<?xml version="1.0" encoding="UTF-8" standalone="no"?>
<!-- Generator: Adobe Illustrator 25.4.1, SVG Export Plug-In . SVG Version: 6.00 Build 0)  -->

<svg
   version="1.1"
   x="0px"
   y="0px"
   viewBox="0 0 3839 901.2"
   style="enable-background:new 0 0 3839 901.2;"
   xml:space="preserve"
   id="svg22"
   sodipodi:docname="header.svg"
   inkscape:version="1.3.2 (091e20e, 2023-11-25)"
   xmlns:inkscape="http://www.inkscape.org/namespaces/inkscape"
   xmlns:sodipodi="http://sodipodi.sourceforge.net/DTD/sodipodi-0.dtd"
   xmlns="http://www.w3.org/2000/svg"
   xmlns:svg="http://www.w3.org/2000/svg"><defs
   id="defs22" /><sodipodi:namedview
   id="namedview22"
   pagecolor="#ffffff"
   bordercolor="#000000"
   borderopacity="0.25"
   inkscape:showpageshadow="2"
   inkscape:pageopacity="0.0"
   inkscape:pagecheckerboard="0"
   inkscape:deskcolor="#d1d1d1"
   inkscape:zoom="0.30428247"
   inkscape:cx="2012.9323"
   inkscape:cy="394.3704"
   inkscape:window-width="1800"
   inkscape:window-height="1037"
   inkscape:window-x="0"
   inkscape:window-y="44"
   inkscape:window-maximized="0"
   inkscape:current-layer="svg22" />
<style
   type="text/css"
   id="style1">
	.st0{fill:#FFFFFF;}
	.st1{fill:#034693;}
</style>
<g
   id="g233"><path
     d="m 1706.3008,360.80078 -134.2012,112.79883 17.3008,-112.69922 H 1074.3008 L 940.19922,473.59961 957.5,360.90039 H 642.90039 l -145.5,122.19922 -95.5,-122.19922 H 211.5 l -147.5,124 -64,416.29883 h 1908.0996 l 83,-540.39844 z M 224.5,396.59961 h 160 l 83.5,107 H 232.30078 l -39.20117,255 h 100.59961 l 11.40039,-74 h -89.79883 l 127.39844,-107 H 456.59961 L 412.40039,865.5 H 41.599609 l 55.5,-361.90039 z m 431.40039,0 h 260 l -72.20117,469 H 472.80078 l 28,-182 126.29883,-106 h 125.70117 l 11.39844,-74 H 528.5 Z m 431.50001,0 h 460.4004 L 1475.9004,865.5 h -135.2012 l 55.6016,-361.90039 h -82 l -55.6016,362 h -135.0996 l 55.5996,-362 h -84 l -55.5996,362 H 904.40039 l 55.59961,-362 z m 631.9004,0 H 1949.5 L 1933.0996,503.5 h -206 l -11.4004,74 h 206 l -16.3984,107 h -206 l -11.4004,74.09961 h 206 l -16.4004,107 h -341.1992 l 55.5996,-362 z M 1100,432 992.90039,522 945.69922,829.5 H 1008.5 l 51,-331.59961 4.6992,-30.30078 h 30.7012 84 41.6992 l -6.2988,41.20117 L 1165,829.59961 h 62.6992 l 51,-331.59961 4.7012,-30.30078 h 30.6992 82 41.7012 l -6.3008,41.20117 -49.3008,320.79883 H 1445 l 61.0996,-397.39844 V 432 Z m -862.40039,0.19922 -107.09961,90 -47.199219,307.5 H 381.80078 l 33.29883,-216.39844 h -59.29883 l -42.30078,35.5 h 33.30078 L 340.5,690 l -11.40039,74 -4.69922,30.30078 H 293.69922 193.09961 151.40039 l 6.29883,-41.20117 39.20117,-255 4.69922,-30.29883 h 30.70117 162.5 l -27.70117,-35.5 z m 1670.20119,0.10156 -175.5,0.0996 -107.1016,90 -47.1992,307.5 h 268.8008 l 5.5,-35.5 h -164.4004 -41.7012 l 6.3008,-41.20117 11.4004,-74.09961 4.6992,-30.29883 h 30.5 175.4004 l 5.5,-35.5 h -164.4004 -41.6992 l 6.2988,-41.20117 11.4004,-74 4.7012,-30.29883 H 1727 1902.3008 Z m -1238.40041,1 L 629.80078,466.5 h 134.5 43 l -6.5,42.5 -11.40039,74 -4.80078,31.30078 H 753 640.69922 l -105.39844,88.5 L 516,828.59961 h 198.38672 l 5.27734,-34.40039 H 624.5 582.80078 L 589.09961,753 600.5,679 605.19922,648.69922 H 635.90039 736.5 778.19922 l -6.29883,41.20117 -7.30078,47.39063 -13.10547,91.30859 h 60.70508 l 60.70117,-395.19922 v -0.0996 z M 635.90039,684.5 624.5,758.5 H 725.09961 L 736.5,684.5 Z"
     style="fill:#ffffff"
     id="path233" /><path
     d="m 2259.5996,360.80078 -147.6992,124 -64,416.39844 H 3756 L 3787.3008,697.5 3743.1992,640.69922 3803.8008,589.80078 3839,360.90039 h -314.5 l -134.4004,112.79883 17.3008,-112.89844 h -314.5 L 2958.5,473.69922 2975.8008,360.80078 H 2691 L 2545.4004,483.09961 2450,360.80078 Z m 13.0996,35.79883 h 160 l 83.4004,107.09961 h -235.6992 l -39.2012,255 h 100.6016 l 11.3984,-74 h -89.7988 l 127.4004,-107 h 113.8984 L 2460.5,865.59961 h -370.8008 l 55.6016,-362 z m 431.3008,0 h 230.1992 L 2917.8008,503.5 h -206 l -11.4004,74 h 206 L 2890,684.5 h -206 l -11.4004,74.09961 h 206 l -16.4004,107 H 2521 l 55.5996,-362 z m 401.9004,0 h 259.9004 l -72.3008,469 h -370.8008 l 28,-182 126.3008,-106 h 125.8008 l 11.3984,-74 H 2978.5 Z m 431.5996,0 h 259.9004 l -26.7012,174.59961 -76.5996,64.30078 55.7012,71.80078 -24.3008,158.29883 h -135.1992 l 27.7988,-181 H 3517.5 l -27.8008,181 H 3354.5 l 55.5996,-362 z m -1251.8008,35.59961 -107.0996,90 -47.1992,307.5 h 298.5 l 33.2988,-216.39844 h -59.2988 l -42.3008,35.5 h 33.3008 L 2388.5996,690 2377.1992,764 2372.5,794.30078 H 2341.8008 2241.1992 2199.5 l 6.3008,-41.20117 39.1992,-255 4.6992,-30.29883 h 30.7012 162.5 l -27.7012,-35.5 z m 1264.8008,0 -107.0996,90 -47.2012,307.5 H 3459 L 3482.0996,679 l 4.7012,-30.30078 h 30.6992 100.5996 41.6074 l 5.4922,-35.79883 L 3671,608 l 66.3008,-55.59961 18.3984,-120.20117 z m -657.9004,0.10156 -175.5996,0.0996 -107.0996,90 -47.2012,307.5 H 2831.5 l 5.5,-35.5 h -164.5 -41.6992 l 6.2988,-41.20117 11.4004,-74.09961 4.6992,-30.29883 h 30.6016 175.3984 l 5.5,-35.5 h -164.3984 -41.7012 l 6.3008,-41.20117 11.4004,-74 4.6992,-30.29883 h 30.6992 175.4004 z m 226.5,0 -42.2988,35.5 h 137.5996 41.6992 L 3249.8008,509 l -11.4004,74 -4.7012,30.30078 H 3203 3090.1992 l -106,89 -19.5996,127.5 h 199.6035 l 5.4629,-35.60156 H 3074.5 3032.8008 L 3039.0996,753 3050.5,679 l 4.6992,-30.30078 h 30.7012 100.5996 41.6992 l -6.2988,41.20117 -4.4063,28.60156 0.01,-0.002 -16.0781,111.30078 h 61.6777 l 61.0996,-397.5 z m 395.4004,35.5 h 30.6992 100.6016 41.6992 L 3681.1992,509 l -11.3984,74 -4.7012,30.30078 h -30.6992 -100.5996 -41.7012 l 6.3008,-41.20117 11.4004,-74 z m 30.8008,35.79883 -11.4004,74 H 3634.5 l 11.4004,-74 z m 114.3691,145.89258 -6.1699,40.4082 -21.5,139.90039 h 62.6992 L 3712,717 3665.6992,657.30078 Z M 3085.9004,684.5 3074.5,758.5 h 100.5996 l 11.4004,-74 z"
     style="fill:#ffffff"
     id="path232" /><path
     d="m 2704,396.59961 -127.4004,107 -55.5996,362 h 341.1992 l 16.4004,-107 h -206 L 2684,684.5 h 206 l 16.4004,-107 h -206 l 11.4004,-74 h 206 l 16.3984,-106.90039 z m 188.5996,35.70117 -5.5,35.5 H 2711.6992 2681 l -4.6992,30.29883 -11.4004,74 -6.3008,41.20117 h 41.7012 164.3984 l -5.5,35.5 h -175.3984 -30.6016 l -4.6992,30.29883 -11.4004,74.09961 -6.2988,41.20117 H 2672.5 2837 l -5.5,35.5 h -268.8008 l 47.2012,-307.5 107.0996,-90 z"
     style="fill:#034693"
     id="path231" /><path
     d="m 1719.3008,396.59961 -127.4004,107 -55.5996,362 H 1877.5 l 16.4004,-107 h -206 L 1699.3008,684.5 h 206 l 16.3984,-107 h -206 l 11.4004,-74 h 206 L 1949.5,396.59961 Z m 188.5,35.70117 -5.5,35.5 H 1727 1696.3008 l -4.7012,30.29883 -11.4004,74 -6.2988,41.20117 H 1715.5996 1880 l -5.5,35.5 h -175.4004 -30.5 l -4.6992,30.29883 -11.4004,74.09961 -6.3008,41.20117 h 41.7012 164.4004 l -5.5,35.5 H 1578 l 47.1992,-307.5 107.1016,-90 z"
     style="fill:#034693"
     id="path230" /><path
     d="m 1087.4004,396.59961 -127.4004,107 -55.59961,362 h 135.19921 l 55.5996,-362 h 84 l -55.5996,362 h 135.0996 l 55.6016,-362 h 82 L 1340.6992,865.5 h 135.2012 l 71.9004,-468.90039 z M 1100,432 h 406.0996 v 0.30078 L 1445,829.69922 h -62.8008 l 49.3008,-320.79883 6.3008,-41.20117 h -41.7012 -82 -30.6992 L 1278.6992,498 l -51,331.59961 H 1165 l 49.3008,-320.79883 6.2988,-41.20117 h -41.6992 -84 -30.7012 L 1059.5,497.90039 1008.5,829.5 H 945.69922 L 992.90039,522 Z"
     style="fill:#034693"
     id="path229" /><path
     d="m 2272.6992,396.59961 -127.3984,107 -55.6016,362 H 2460.5 l 44.1992,-287.90039 h -113.8984 l -127.4004,107 h 89.7988 l -11.3984,74 h -100.6016 l 39.2012,-255 h 235.6992 l -83.4004,-107.09961 z m 13,35.59961 129.5,0.10156 27.7012,35.5 h -162.5 -30.7012 l -4.6992,30.29883 -39.1992,255 -6.3008,41.20117 h 41.6992 100.6016 30.6992 L 2377.1992,764 l 11.4004,-74 6.3008,-41.19922 h -33.3008 l 42.3008,-35.5 h 59.2988 l -33.2988,216.39844 h -298.5 l 47.1992,-307.5 z"
     style="fill:#034693"
     id="path228" /><path
     d="m 224.5,396.59961 -127.400391,107 -55.5,361.90039 H 412.40039 L 456.59961,577.59961 H 342.69922 l -127.39844,107 h 89.79883 l -11.40039,74 H 193.09961 l 39.20117,-255 H 468 l -83.5,-107 z m 13.09961,35.59961 129.5,0.10156 27.70117,35.5 h -162.5 -30.70117 l -4.69922,30.29883 -39.20117,255 -6.29883,41.20117 h 41.69922 100.59961 30.70117 L 329.09961,764 340.5,690 346.80078,648.80078 H 313.5 l 42.30078,-35.5 h 59.29883 L 381.80078,829.69922 H 83.300781 L 130.5,522.19922 Z"
     style="fill:#034693"
     id="path227" /><path
     d="m 3514.5,467.80078 -4.6992,30.29883 -11.4004,74 -6.3008,41.20117 h 41.7012 100.5996 30.6992 L 3669.8008,583 l 11.3984,-74 6.3008,-41.19922 h -41.6992 -100.6016 z m 30.8008,35.79883 h 100.5996 l -11.4004,74 h -100.5996 z"
     style="fill:#034693"
     id="path226" /><path
     d="M 3055.1992,648.69922 3050.5,679 l -11.4004,74 -6.2988,41.19922 h 41.6992 95.166 l 9.834,-64.09961 37.9941,-11.59766 4.4063,-28.60156 6.2988,-41.20117 H 3186.5 3085.9004 Z M 3085.9004,684.5 H 3186.5 l -11.4004,74 H 3074.5 Z"
     style="fill:#034693"
     id="path225" /><path
     d="m 3105.9004,396.59961 -127.4004,107 h 235.6992 l -11.3984,74 H 3077 l -126.3008,106 -28,182 H 3293.5 l 72.3008,-469 z m 13.1992,35.70117 h 205.0996 l -61.0996,397.5 h -61.6777 l -0.7227,5 -38,4.79883 1.5039,-9.79883 h -199.6035 l 19.5996,-127.5 106,-89 H 3203 3233.6992 L 3238.4004,583 l 11.4004,-74 6.2988,-41.19922 h -41.6992 -137.5996 z"
     style="fill:#034693"
     id="path224" /><path
     d="M 605.19922,648.69922 600.5,679 l -11.40039,74 -6.29883,41.19922 H 624.5 719.66406 L 729.5,730.09961 765,734.5 l -0.40039,2.79102 7.30078,-47.39063 6.29883,-41.20117 H 736.5 635.90039 Z M 635.90039,684.5 H 736.5 l -11.40039,74 H 624.5 Z"
     style="fill:#034693"
     id="path223" /><path
     d="m 655.90039,396.59961 -127.40039,107 h 235.69922 l -11.39844,74 H 627.09961 l -126.29883,106 -28,182 h 370.89844 l 72.20117,-469 z m 13.5,36.70117 h 203.5 v 0.0996 l -60.70117,395.19922 h -60.70508 l -1.89453,13.20117 -36.90039,-2.20117 1.6875,-11 H 516 l 19.30078,-125.79883 105.39844,-88.5 H 753 784.59961 L 789.40039,583 l 11.40039,-74 6.5,-42.5 h -43 -134.5 z"
     style="fill:#034693"
     id="path222" /><path
     d="m 729.5,730.09961 -16.80078,109.5 36.90039,2.20117 L 765,734.5 Z"
     style="fill:#034693"
     id="path221" /><path
     d="m 3217.5,718.5 -38,11.59961 -16.8008,109.5 38,-4.79883 z"
     style="fill:#034693"
     id="path220" /><path
     d="m 3537.5,396.59961 -127.4004,107 -55.5996,362 h 135.1992 l 27.8008,-181 h 100.5996 l -27.7988,181 H 3725.5 l 24.3008,-158.29883 -55.7012,-71.80078 76.5996,-64.30078 26.7012,-174.59961 z m 13,35.59961 h 205.1992 L 3737.3008,552.40039 3671,608 l -5.8008,4.90039 -5.4922,35.79883 H 3618.0996 3517.5 3486.8008 L 3482.0996,679 3459,829.69922 h -62.8008 l 47.2012,-307.5 z m 109.1699,217.29297 6.0293,7.80859 L 3712,717 3694.6992,829.80078 H 3632 l 21.5,-139.90039 z"
     style="fill:#034693"
     id="path219" /><path
     d="m 1557.4004,4.6992187 c -47.9999,0 -86.5996,38.6016583 -86.5996,86.6015623 0,47.999909 38.5997,86.599609 86.5996,86.599609 H 1587.5 c 2.8,0 4.6992,1.89922 4.6992,4.69922 -0.1,2.79999 -1.8988,4.70117 -3.7988,4.70117 H 1470.8008 V 224 h 117.5996 c 22.5999,0 41.4004,-18.80044 41.4004,-41.40039 0,-22.59996 -18.8005,-41.40039 -41.4004,-41.40039 h -30.0996 c -27.3,0 -49.9004,-22.59849 -49.9004,-49.898439 0,-27.299945 22.6004,-49.90039 49.9004,-49.90039 H 1675 V 4.6992187 Z"
     style="fill:#034693"
     id="path218" /><path
     d="m 1557.3008,49.900391 c -22.6,0 -41.4004,18.800435 -41.4004,41.40039 0,22.599959 18.8004,41.398439 41.4004,41.398439 h 30.0996 c 27.2999,0 49.9004,22.60044 49.9004,49.90039 0,27.29994 -22.6005,49.90039 -49.9004,49.90039 h -116.7012 v 36.69922 h 117.6016 c 47.9999,0 86.5996,-38.59971 86.5996,-86.59961 C 1674.9004,134.59971 1636.3007,96 1588.3008,96 h -30.1016 c -2.8,0 -4.6992,-1.899224 -4.6992,-4.699219 0.1,-1.899996 2.0008,-3.701172 3.8008,-3.701172 h 117.5996 V 49.900391 Z"
     style="fill:#034693"
     id="path217" /><path
     d="m 1979.6992,49.900391 c -15.9999,0 -28.1992,12.19925 -28.1992,28.199218 V 195.69922 c 0,15.99997 12.1993,28.20117 28.1992,28.20117 h 76.2012 v -82.80078 h -58.3008 v 36.70117 h 21.5996 v 8.5 h -21.5996 c -4.7,0 -8.5,-3.80001 -8.5,-8.5 V 95 c 0,-4.699991 3.8,-8.5 8.5,-8.5 H 2102 V 49.900391 Z"
     style="fill:#034693"
     id="path216" /><path
     d="m 2227.0996,42.300781 c -4.7,0 -9.3988,3.800012 -11.2988,7.5 L 2140.5,269 h 43.3008 l 26.2988,-78.09961 v 32.90039 l 1,0.0996 h 85.5996 L 2238.4004,50.800781 c -1.9,-4.699985 -5.6008,-8.5 -11.3008,-8.5 z M 2226.1992,144.90039 2238.4004,182.5 H 2213 Z"
     style="fill:#034693"
     id="path215" /><path
     d="m 2226.0996,0 c -27.2999,0 -49.9,17.90083 -56.5,42.300781 L 2101,243.59961 V 96 h -103.5 v 36.69922 h 67.6992 v 99.70117 H 1980.5 c -20.7,0 -36.6992,-16.90121 -36.6992,-36.70117 V 78.099609 c 0,-20.699958 16.8992,-36.699218 36.6992,-36.699218 h 121.4004 V 4.6992187 h -122.3008 c -40.4999,0 -73.4004,32.9004713 -73.4004,73.4003903 V 195.69922 c 0,40.49992 32.9005,73.40039 73.4004,73.40039 H 2131 L 2207.1992,48.099609 C 2209.9992,39.599626 2217.6,34 2227,34 c 9.4,0 16.9008,5.599626 19.8008,14.099609 L 2308.9004,232.5 H 2211 V 269 h 148.6992 L 2283.5,43.300781 C 2276,18.80083 2253.3996,0 2226.0996,0 Z"
     style="fill:#034693"
     id="path214" /><path
     d="m 1766.0996,4.6992187 c -40.4999,0 -73.4004,32.9004713 -73.4004,73.4003903 V 195.69922 c 0,40.49992 32.9005,73.40039 73.4004,73.40039 h 126.0996 v -36.69922 h -126.0996 c -20.6999,0 -36.6992,-16.90121 -36.6992,-36.70117 V 78.099609 c 0,-20.699958 16.8992,-36.699218 36.6992,-36.699218 h 126.0996 V 4.6992187 Z"
     style="fill:#034693"
     id="path213" /><path
     d="m 1737.9004,142.09961 v 54.59961 c 0,15.99997 12.1992,28.20117 28.1992,28.20117 h 126.0996 V 188.19922 H 1783 c -4.6,-0.9 -8.4004,-4.69845 -8.4004,-9.39844 h 91.3008 v -36.70117 z"
     style="fill:#034693"
     id="path212" /><path
     d="m 1766.1992,49.900391 c -16,0 -28.1992,12.199234 -28.1992,28.199218 v 54.599611 h 128 c -0.1,0 -0.1,-36.69922 -0.1,-36.69922 h -91.3008 c 0,-4.699995 3.8,-8.5 8.5,-8.5 h 108.2012 V 49.900391 Z"
     style="fill:#034693"
     id="path211" /></g>

</svg>
