<?xml version="1.0" encoding="UTF-8" standalone="no"?>
<!-- Generator: Adobe Illustrator 25.4.1, SVG Export Plug-In . SVG Version: 6.00 Build 0)  -->

<svg
   version="1.1"
   x="0px"
   y="0px"
   viewBox="0 0 3839 901.2"
   style="enable-background:new 0 0 3839 901.2;"
   xml:space="preserve"
   id="svg22"
   sodipodi:docname="header.svg"
   inkscape:version="1.3.2 (091e20e, 2023-11-25)"
   xmlns:inkscape="http://www.inkscape.org/namespaces/inkscape"
   xmlns:sodipodi="http://sodipodi.sourceforge.net/DTD/sodipodi-0.dtd"
   xmlns="http://www.w3.org/2000/svg"
   xmlns:svg="http://www.w3.org/2000/svg"><defs
   id="defs22">
	

		
		
	
			
			
			
			
			
			
			
			
			
			
			
			
			
			
			
		
			
			
			
			
			
			
			
			
		</defs><sodipodi:namedview
   id="namedview22"
   pagecolor="#ffffff"
   bordercolor="#000000"
   borderopacity="0.25"
   inkscape:showpageshadow="2"
   inkscape:pageopacity="0.0"
   inkscape:pagecheckerboard="0"
   inkscape:deskcolor="#d1d1d1"
   inkscape:zoom="0.2151602"
   inkscape:cx="1921.8238"
   inkscape:cy="450.82688"
   inkscape:window-width="1800"
   inkscape:window-height="1037"
   inkscape:window-x="0"
   inkscape:window-y="44"
   inkscape:window-maximized="0"
   inkscape:current-layer="svg22" />
<style
   type="text/css"
   id="style1">
	.st0{fill:#FFFFFF;}
	.st1{fill:#034693;}
</style>

<path
   class="st0"
   d="m 1572.1,473.6 17.3,-112.7 H 1074.3 L 940.2,473.6 957.5,360.9 H 642.9 L 497.4,483.1 401.9,360.9 H 211.5 L 64,484.9 0,901.2 h 1908.1 l 83,-540.4 h -284.8 z"
   id="path1" /><path
   class="st0"
   d="m 3839,360.9 h -314.5 l -134.4,112.8 17.3,-112.9 h -314.5 l -134.4,112.9 17.3,-112.9 H 2691 L 2545.4,483.1 2450,360.8 h -190.4 l -147.7,124 -64,416.4 H 3756 l 31.3,-203.7 -44.1,-56.8 60.6,-50.9 z"
   id="path2" /><path
   class="st1"
   d="m 2892.6,432.3 -5.5,35.5 H 2711.7 2681 l -4.7,30.3 -11.4,74 -6.3,41.2 h 41.7 164.4 l -5.5,35.5 h -175.4 -30.6 l -4.7,30.3 -11.4,74.1 -6.3,41.2 h 41.7 164.5 l -5.5,35.5 h -268.8 l 47.2,-307.5 107.1,-90 175.6,-0.1 m 41.6,-35.7 H 2704 l -127.4,107 -55.6,362 h 341.2 l 16.4,-107 h -206 l 11.4,-74.1 h 206 l 16.4,-107 h -206 l 11.4,-74 h 206 z"
   id="path3" /><path
   class="st1"
   d="m 1907.8,432.3 -5.5,35.5 H 1727 1696.3 l -4.7,30.3 -11.4,74 -6.3,41.2 h 41.7 164.4 l -5.5,35.5 h -175.4 -30.5 l -4.7,30.3 -11.4,74.1 -6.3,41.2 h 41.7 164.4 l -5.5,35.5 H 1578 l 47.2,-307.5 107.1,-90 175.5,-0.1 m 41.7,-35.7 h -230.2 l -127.4,107 -55.6,362 h 341.2 l 16.4,-107 h -206 l 11.4,-74.1 h 206 l 16.4,-107 h -206 l 11.4,-74 h 206 z"
   id="path4" /><path
   class="st1"
   d="M 1506.1,432.3 1445,829.7 h -62.8 l 49.3,-320.8 6.3,-41.2 h -41.7 -82 -30.7 l -4.7,30.3 -51,331.6 H 1165 l 49.3,-320.8 6.3,-41.2 h -41.7 -84 -30.7 l -4.7,30.3 -51,331.6 H 945.7 L 992.9,522 1100,432 h 406.1 m 41.7,-35.4 h -460.4 l -127.4,107 -55.6,362 h 135.2 l 55.6,-362 h 84 l -55.6,362 h 135.1 l 55.6,-362 h 82 l -55.6,361.9 h 135.2 z"
   id="path5" /><path
   class="st1"
   d="m 2415.2,432.3 27.7,35.5 h -162.5 -30.7 l -4.7,30.3 -39.2,255 -6.3,41.2 h 41.7 100.6 30.7 l 4.7,-30.3 11.4,-74 6.3,-41.2 h -33.3 l 42.3,-35.5 h 59.3 l -33.3,216.4 h -298.5 l 47.2,-307.5 107.1,-90 129.5,0.1 m 17.5,-35.7 h -160 l -127.4,107 -55.6,362 h 370.8 l 44.2,-287.9 h -113.9 l -127.4,107 h 89.8 l -11.4,74 h -100.6 l 39.2,-255 h 235.7 z"
   id="path6" /><path
   class="st1"
   d="m 367.1,432.3 27.7,35.5 H 232.3 201.6 l -4.7,30.3 -39.2,255 -6.3,41.2 h 41.7 100.6 30.7 l 4.7,-30.3 11.4,-74 6.3,-41.2 h -33.3 l 42.3,-35.5 h 59.3 L 381.8,829.7 H 83.3 l 47.2,-307.5 107.1,-90 129.5,0.1 m 17.4,-35.7 h -160 L 97.1,503.6 41.6,865.5 H 412.4 L 456.6,577.6 H 342.7 l -127.4,107 h 89.8 l -11.4,74 H 193.1 l 39.2,-255 H 468 Z"
   id="path7" /><path
   class="st1"
   d="m 3645.9,503.6 -11.4,74 h -100.6 l 11.4,-74 h 100.6 m 41.6,-35.8 h -41.7 -100.6 -30.7 l -4.7,30.3 -11.4,74 -6.3,41.2 h 41.7 100.6 30.7 l 4.7,-30.3 11.4,-74 z"
   id="path8" /><path
   class="st1"
   d="m 3186.5,684.5 -11.4,74 h -100.6 l 11.4,-74 h 100.6 m 41.7,-35.8 h -41.7 -100.6 -30.7 l -4.7,30.3 -11.4,74 -6.3,41.2 h 41.7 100.6 30.7 l 4.7,-30.3 11.4,-74 z"
   id="path9" /><path
   class="st1"
   d="m 3324.2,432.3 -61.1,397.5 h -298.5 l 19.6,-127.5 106,-89 h 112.8 30.7 l 4.7,-30.3 11.4,-74 6.3,-41.2 h -41.7 -137.6 l 42.3,-35.5 h 205.1 m 41.6,-35.7 h -259.9 l -127.4,107 h 235.7 l -11.4,74 H 3077 l -126.3,106 -28,182 h 370.8 z"
   id="path10" /><path
   class="st1"
   d="m 736.5,684.5 -11.4,74 H 624.5 l 11.4,-74 h 100.6 m 41.7,-35.8 H 736.5 635.9 605.2 l -4.7,30.3 -11.4,74 -6.3,41.2 h 41.7 100.6 30.7 l 4.7,-30.3 11.4,-74 z"
   id="path11" /><path
   class="st1"
   d="M 872.9,433.4 812.2,828.6 H 516 L 535.3,702.8 640.7,614.3 H 753 784.6 l 4.8,-31.3 11.4,-74 6.5,-42.5 h -43 -134.5 l 39.6,-33.2 h 203.5 m 43,-36.7 h -260 l -127.4,107 h 235.7 l -11.4,74 H 627.1 l -126.3,106 -28,182 h 370.9 z"
   id="path12" /><path
   id="polygon12"
   class="st1"
   style="fill:#034693"
   d="m 729.5,730.1 -16.8,109.5 36.9,2.2 15.4,-107.3 z" /><path
   id="polygon13"
   class="st1"
   style="fill:#034693"
   d="m 3179.5,730.1 -16.8,109.5 38,-4.8 16.8,-116.3 z" /><path
   class="st1"
   d="m 3797.4,396.6 h -259.9 l -127.4,107 -55.6,362 h 135.2 l 27.8,-181 h 100.6 l -27.8,181 h 135.2 l 24.3,-158.3 -55.7,-71.8 76.6,-64.3 z m -60.1,155.8 -66.3,55.6 -5.8,4.9 -5.6,36.5 6.1,7.9 46.3,59.7 -17.3,112.8 H 3632 l 21.5,-139.9 6.2,-40.6 0.8,-0.6 h -42.4 -100.6 -30.7 l -4.7,30.3 -23.1,150.7 h -62.8 l 47.2,-307.5 107.1,-90 h 205.2 z"
   id="path13" /><path
   d="m 1557.4004,4.6992187 c -47.9999,0 -86.5996,38.6016583 -86.5996,86.6015623 0,47.999909 38.5997,86.599609 86.5996,86.599609 H 1587.5 c 2.8,0 4.6992,1.89922 4.6992,4.69922 -0.1,2.79999 -1.8988,4.70117 -3.7988,4.70117 H 1470.8008 V 224 h 117.5996 c 22.5999,0 41.4004,-18.80044 41.4004,-41.40039 0,-22.59996 -18.8005,-41.40039 -41.4004,-41.40039 h -30.0996 c -27.3,0 -49.9004,-22.59849 -49.9004,-49.898439 0,-27.299945 22.6004,-49.90039 49.9004,-49.90039 H 1675 V 4.6992187 Z"
   style="fill:#034693"
   id="path75" /><path
   d="m 1557.3008,49.900391 c -22.6,0 -41.4004,18.800435 -41.4004,41.40039 0,22.599959 18.8004,41.398439 41.4004,41.398439 h 30.0996 c 27.2999,0 49.9004,22.60044 49.9004,49.90039 0,27.29994 -22.6005,49.90039 -49.9004,49.90039 h -116.7012 v 36.69922 h 117.6016 c 47.9999,0 86.5996,-38.59971 86.5996,-86.59961 C 1674.9004,134.59971 1636.3007,96 1588.3008,96 h -30.1016 c -2.8,0 -4.6992,-1.899224 -4.6992,-4.699219 0.1,-1.899996 2.0008,-3.701172 3.8008,-3.701172 h 117.5996 V 49.900391 Z"
   style="fill:#034693"
   id="path74" /><path
   d="m 1979.6992,49.900391 c -15.9999,0 -28.1992,12.19925 -28.1992,28.199218 V 195.69922 c 0,15.99997 12.1993,28.20117 28.1992,28.20117 h 76.2012 v -82.80078 h -58.3008 v 36.70117 h 21.5996 v 8.5 h -21.5996 c -4.7,0 -8.5,-3.80001 -8.5,-8.5 V 95 c 0,-4.699991 3.8,-8.5 8.5,-8.5 H 2102 V 49.900391 Z"
   style="fill:#034693"
   id="path73" /><path
   d="m 2227.0996,42.300781 c -4.7,0 -9.3988,3.800008 -11.2988,7.5 L 2140.5,269 h 43.3008 l 26.2988,-78.09961 v 32.90039 l 1,0.0996 h 85.5996 L 2238.4004,50.800781 c -1.9,-4.69999 -5.6008,-8.5 -11.3008,-8.5 z M 2226.1992,144.90039 2238.4004,182.5 H 2213 Z"
   style="fill:#034693"
   id="path72" /><path
   d="m 2226.0996,0 c -27.2999,0 -49.9,17.90083 -56.5,42.300781 L 2101,243.59961 V 96 h -103.5 v 36.69922 h 67.6992 v 99.70117 H 1980.5 c -20.7,0 -36.6992,-16.90121 -36.6992,-36.70117 V 78.099609 c 0,-20.699958 16.8992,-36.699218 36.6992,-36.699218 h 121.4004 V 4.6992187 h -122.3008 c -40.4999,0 -73.4004,32.9004713 -73.4004,73.4003903 V 195.69922 c 0,40.49992 32.9005,73.40039 73.4004,73.40039 H 2131 L 2207.1992,48.099609 C 2209.9992,39.599626 2217.6,34 2227,34 c 9.4,0 16.9008,5.599626 19.8008,14.099609 L 2308.9004,232.5 H 2211 V 269 h 148.6992 L 2283.5,43.300781 C 2276,18.80083 2253.3996,0 2226.0996,0 Z"
   style="fill:#034693"
   id="path71" /><path
   d="m 1766.0996,4.6992187 c -40.4999,0 -73.4004,32.9004713 -73.4004,73.4003903 V 195.69922 c 0,40.49992 32.9005,73.40039 73.4004,73.40039 h 126.0996 v -36.69922 h -126.0996 c -20.6999,0 -36.6992,-16.90121 -36.6992,-36.70117 V 78.099609 c 0,-20.699958 16.8992,-36.699218 36.6992,-36.699218 h 126.0996 V 4.6992187 Z"
   style="fill:#034693"
   id="path70" /><path
   d="m 1737.9004,142.09961 v 54.59961 c 0,15.99997 12.1992,28.20117 28.1992,28.20117 h 126.0996 V 188.19922 H 1783 c -4.6,-0.9 -8.4004,-4.69845 -8.4004,-9.39844 h 91.3008 v -36.70117 z"
   style="fill:#034693"
   id="path69" /><path
   d="m 1766.1992,49.900391 c -16,0 -28.1992,12.199234 -28.1992,28.199218 v 54.599611 h 128 c -0.1,0 -0.1,-36.69922 -0.1,-36.69922 h -91.3008 c 0,-4.699995 3.8,-8.5 8.5,-8.5 h 108.2012 V 49.900391 Z"
   style="fill:#034693"
   id="path68" />
</svg>
