<?xml version="1.0" encoding="UTF-8" standalone="no"?>
<!-- Generator: Adobe Illustrator 25.4.1, SVG Export Plug-In . SVG Version: 6.00 Build 0)  -->

<svg
   version="1.1"
   x="0px"
   y="0px"
   viewBox="0 0 3839 901.2"
   style="enable-background:new 0 0 3839 901.2;"
   xml:space="preserve"
   id="svg22"
   xmlns="http://www.w3.org/2000/svg"
   xmlns:svg="http://www.w3.org/2000/svg"><defs
   id="defs22">
	
</defs>
<style
   type="text/css"
   id="style1">
	.st0{fill:#FFFFFF;}
	.st1{fill:#034693;}
</style>

<g
   id="g24"><g
     id="g23"
     style="display:inline"><g
       id="g22">
		<g
   id="g13">
			<path
   class="st0"
   d="m 1572.1,473.6 17.3,-112.7 H 1074.3 L 940.2,473.6 957.5,360.9 H 642.9 L 497.4,483.1 401.9,360.9 H 211.5 L 64,484.9 0,901.2 h 1908.1 l 83,-540.4 h -284.8 z"
   id="path1" />
			<path
   class="st0"
   d="m 3839,360.9 h -314.5 l -134.4,112.8 17.3,-112.9 h -314.5 l -134.4,112.9 17.3,-112.9 H 2691 L 2545.4,483.1 2450,360.8 h -190.4 l -147.7,124 -64,416.4 H 3756 l 31.3,-203.7 -44.1,-56.8 60.6,-50.9 z"
   id="path2" />
			<path
   class="st1"
   d="m 2892.6,432.3 -5.5,35.5 H 2711.7 2681 l -4.7,30.3 -11.4,74 -6.3,41.2 h 41.7 164.4 l -5.5,35.5 h -175.4 -30.6 l -4.7,30.3 -11.4,74.1 -6.3,41.2 h 41.7 164.5 l -5.5,35.5 h -268.8 l 47.2,-307.5 107.1,-90 175.6,-0.1 m 41.6,-35.7 H 2704 l -127.4,107 -55.6,362 h 341.2 l 16.4,-107 h -206 l 11.4,-74.1 h 206 l 16.4,-107 h -206 l 11.4,-74 h 206 z"
   id="path3" />
			<path
   class="st1"
   d="m 1907.8,432.3 -5.5,35.5 H 1727 1696.3 l -4.7,30.3 -11.4,74 -6.3,41.2 h 41.7 164.4 l -5.5,35.5 h -175.4 -30.5 l -4.7,30.3 -11.4,74.1 -6.3,41.2 h 41.7 164.4 l -5.5,35.5 H 1578 l 47.2,-307.5 107.1,-90 175.5,-0.1 m 41.7,-35.7 h -230.2 l -127.4,107 -55.6,362 h 341.2 l 16.4,-107 h -206 l 11.4,-74.1 h 206 l 16.4,-107 h -206 l 11.4,-74 h 206 z"
   id="path4" />
			<path
   class="st1"
   d="M 1506.1,432.3 1445,829.7 h -62.8 l 49.3,-320.8 6.3,-41.2 h -41.7 -82 -30.7 l -4.7,30.3 -51,331.6 H 1165 l 49.3,-320.8 6.3,-41.2 h -41.7 -84 -30.7 l -4.7,30.3 -51,331.6 H 945.7 L 992.9,522 1100,432 h 406.1 m 41.7,-35.4 h -460.4 l -127.4,107 -55.6,362 h 135.2 l 55.6,-362 h 84 l -55.6,362 h 135.1 l 55.6,-362 h 82 l -55.6,361.9 h 135.2 z"
   id="path5" />
			<path
   class="st1"
   d="m 2415.2,432.3 27.7,35.5 h -162.5 -30.7 l -4.7,30.3 -39.2,255 -6.3,41.2 h 41.7 100.6 30.7 l 4.7,-30.3 11.4,-74 6.3,-41.2 h -33.3 l 42.3,-35.5 h 59.3 l -33.3,216.4 h -298.5 l 47.2,-307.5 107.1,-90 129.5,0.1 m 17.5,-35.7 h -160 l -127.4,107 -55.6,362 h 370.8 l 44.2,-287.9 h -113.9 l -127.4,107 h 89.8 l -11.4,74 h -100.6 l 39.2,-255 h 235.7 z"
   id="path6" />
			<path
   class="st1"
   d="m 367.1,432.3 27.7,35.5 H 232.3 201.6 l -4.7,30.3 -39.2,255 -6.3,41.2 h 41.7 100.6 30.7 l 4.7,-30.3 11.4,-74 6.3,-41.2 h -33.3 l 42.3,-35.5 h 59.3 L 381.8,829.7 H 83.3 l 47.2,-307.5 107.1,-90 129.5,0.1 m 17.4,-35.7 h -160 L 97.1,503.6 41.6,865.5 H 412.4 L 456.6,577.6 H 342.7 l -127.4,107 h 89.8 l -11.4,74 H 193.1 l 39.2,-255 H 468 Z"
   id="path7" />
			<path
   class="st1"
   d="m 3645.9,503.6 -11.4,74 h -100.6 l 11.4,-74 h 100.6 m 41.6,-35.8 h -41.7 -100.6 -30.7 l -4.7,30.3 -11.4,74 -6.3,41.2 h 41.7 100.6 30.7 l 4.7,-30.3 11.4,-74 z"
   id="path8" />
			<path
   class="st1"
   d="m 3186.5,684.5 -11.4,74 h -100.6 l 11.4,-74 h 100.6 m 41.7,-35.8 h -41.7 -100.6 -30.7 l -4.7,30.3 -11.4,74 -6.3,41.2 h 41.7 100.6 30.7 l 4.7,-30.3 11.4,-74 z"
   id="path9" />
			<path
   class="st1"
   d="m 3324.2,432.3 -61.1,397.5 h -298.5 l 19.6,-127.5 106,-89 h 112.8 30.7 l 4.7,-30.3 11.4,-74 6.3,-41.2 h -41.7 -137.6 l 42.3,-35.5 h 205.1 m 41.6,-35.7 h -259.9 l -127.4,107 h 235.7 l -11.4,74 H 3077 l -126.3,106 -28,182 h 370.8 z"
   id="path10" />
			<path
   class="st1"
   d="m 736.5,684.5 -11.4,74 H 624.5 l 11.4,-74 h 100.6 m 41.7,-35.8 H 736.5 635.9 605.2 l -4.7,30.3 -11.4,74 -6.3,41.2 h 41.7 100.6 30.7 l 4.7,-30.3 11.4,-74 z"
   id="path11" />
			<path
   class="st1"
   d="M 872.9,433.4 812.2,828.6 H 516 L 535.3,702.8 640.7,614.3 H 753 784.6 l 4.8,-31.3 11.4,-74 6.5,-42.5 h -43 -134.5 l 39.6,-33.2 h 203.5 m 43,-36.7 h -260 l -127.4,107 h 235.7 l -11.4,74 H 627.1 l -126.3,106 -28,182 h 370.9 z"
   id="path12" />
			<path
   id="polygon12"
   class="st1"
   style="fill:#034693"
   d="m 729.5,730.1 -16.8,109.5 36.9,2.2 15.4,-107.3 z" />
			<path
   id="polygon13"
   class="st1"
   style="fill:#034693"
   d="m 3179.5,730.1 -16.8,109.5 38,-4.8 16.8,-116.3 z" />
			<path
   class="st1"
   d="m 3797.4,396.6 h -259.9 l -127.4,107 -55.6,362 h 135.2 l 27.8,-181 h 100.6 l -27.8,181 h 135.2 l 24.3,-158.3 -55.7,-71.8 76.6,-64.3 z m -60.1,155.8 -66.3,55.6 -5.8,4.9 -5.6,36.5 6.1,7.9 46.3,59.7 -17.3,112.8 H 3632 l 21.5,-139.9 6.2,-40.6 0.8,-0.6 h -42.4 -100.6 -30.7 l -4.7,30.3 -23.1,150.7 h -62.8 l 47.2,-307.5 107.1,-90 h 205.2 z"
   id="path13" />
		</g>
		<g
   id="g21">
			<path
   class="st1"
   d="M 1588.4,187.3 H 1470.8 V 224 h 117.6 c 22.6,0 41.4,-18.8 41.4,-41.4 0,-22.6 -18.8,-41.4 -41.4,-41.4 h -30.1 c -27.3,0 -49.9,-22.6 -49.9,-49.9 0,-27.3 22.6,-49.9 49.9,-49.9 H 1675 V 4.7 h -117.6 c -48,0 -86.6,38.6 -86.6,86.6 0,48 38.6,86.6 86.6,86.6 h 30.1 c 2.8,0 4.7,1.9 4.7,4.7 -0.1,2.8 -1.9,4.7 -3.8,4.7 z"
   id="path14" />
			<path
   class="st1"
   d="m 1557.3,87.6 h 117.6 V 49.9 h -117.6 c -22.6,0 -41.4,18.8 -41.4,41.4 0,22.6 18.8,41.4 41.4,41.4 h 30.1 c 27.3,0 49.9,22.6 49.9,49.9 0,27.3 -22.6,49.9 -49.9,49.9 h -116.7 v 36.7 h 117.6 c 48,0 86.6,-38.6 86.6,-86.6 0,-48 -38.6,-86.6 -86.6,-86.6 h -30.1 c -2.8,0 -4.7,-1.9 -4.7,-4.7 0.1,-1.9 2,-3.7 3.8,-3.7 z"
   id="path15" />
			<path
   class="st1"
   d="m 1979.7,49.9 c -16,0 -28.2,12.2 -28.2,28.2 v 117.6 c 0,16 12.2,28.2 28.2,28.2 h 76.2 v -82.8 h -58.3 v 36.7 h 21.6 v 8.5 h -21.6 c -4.7,0 -8.5,-3.8 -8.5,-8.5 V 95 c 0,-4.7 3.8,-8.5 8.5,-8.5 H 2102 V 49.9 Z"
   id="path16" />
			<path
   class="st1"
   d="m 2211.1,223.9 h 85.6 L 2238.4,50.8 c -1.9,-4.7 -5.6,-8.5 -11.3,-8.5 -4.7,0 -9.4,3.8 -11.3,7.5 L 2140.5,269 h 43.3 l 26.3,-78.1 v 32.9 z m 15.1,-79 12.2,37.6 H 2213 Z"
   id="path17" />
			<path
   class="st1"
   d="M 2283.5,43.3 C 2276,18.8 2253.4,0 2226.1,0 c -27.3,0 -49.9,17.9 -56.5,42.3 L 2101,243.6 V 96 h -103.5 v 36.7 h 67.7 v 99.7 h -84.7 c -20.7,0 -36.7,-16.9 -36.7,-36.7 V 78.1 c 0,-20.7 16.9,-36.7 36.7,-36.7 h 121.4 V 4.7 h -122.3 c -40.5,0 -73.4,32.9 -73.4,73.4 v 117.6 c 0,40.5 32.9,73.4 73.4,73.4 H 2131 l 76.2,-221 C 2210,39.6 2217.6,34 2227,34 c 9.4,0 16.9,5.6 19.8,14.1 l 62.1,184.4 H 2211 V 269 h 148.7 v 0 z"
   id="path18" />
			<path
   class="st1"
   d="m 1766.1,232.4 c -20.7,0 -36.7,-16.9 -36.7,-36.7 V 78.1 c 0,-20.7 16.9,-36.7 36.7,-36.7 h 126.1 V 4.7 h -126.1 c -40.5,0 -73.4,32.9 -73.4,73.4 v 117.6 c 0,40.5 32.9,73.4 73.4,73.4 h 126.1 v -36.7 z"
   id="path19" />
			<path
   class="st1"
   d="m 1774.6,178.8 h 91.3 v -36.7 h -128 v 54.6 c 0,16 12.2,28.2 28.2,28.2 h 126.1 V 188.2 H 1783 c -4.6,-0.9 -8.4,-4.7 -8.4,-9.4 z"
   id="path20" />
			<path
   class="st1"
   d="m 1865.9,96 h -91.3 c 0,-4.7 3.8,-8.5 8.5,-8.5 h 108.2 V 49.9 h -125.1 c -16,0 -28.2,12.2 -28.2,28.2 v 54.6 h 128 c -0.1,0 -0.1,-36.7 -0.1,-36.7 z"
   id="path21" />
		</g>
	</g></g></g>
</svg>
