<?xml version="1.0" encoding="UTF-8" standalone="no"?>
<!-- Generator: Adobe Illustrator 26.0.3, SVG Export Plug-In . SVG Version: 6.00 Build 0)  -->

<svg
   version="1.1"
   id="Layer_1"
   x="0px"
   y="0px"
   viewBox="0 0 3839 647.2"
   style="enable-background:new 0 0 3839 647.2;"
   xml:space="preserve"
   sodipodi:docname="header.svg"
   inkscape:version="1.3.2 (091e20e, 2023-11-25)"
   xmlns:inkscape="http://www.inkscape.org/namespaces/inkscape"
   xmlns:sodipodi="http://sodipodi.sourceforge.net/DTD/sodipodi-0.dtd"
   xmlns="http://www.w3.org/2000/svg"
   xmlns:svg="http://www.w3.org/2000/svg"><defs
   id="defs10">
	
	

		
		
	
		
	
			
		
				
			
					
				
						
						
						
						
						
						
					</defs><sodipodi:namedview
   id="namedview10"
   pagecolor="#ffffff"
   bordercolor="#000000"
   borderopacity="0.25"
   inkscape:showpageshadow="2"
   inkscape:pageopacity="0.0"
   inkscape:pagecheckerboard="0"
   inkscape:deskcolor="#d1d1d1"
   inkscape:zoom="0.3595497"
   inkscape:cx="2326.5212"
   inkscape:cy="300.37572"
   inkscape:window-width="1800"
   inkscape:window-height="1037"
   inkscape:window-x="0"
   inkscape:window-y="44"
   inkscape:window-maximized="0"
   inkscape:current-layer="Layer_1" />
<style
   type="text/css"
   id="style1">
	.st0{fill:#FFFFFF;}
	.st1{fill:#E31E26;}
	.st2{fill:#30308F;}
	.st3{fill:#C6C6C6;}
</style>
<g
   id="g35"><path
     d="M 410.11523,0.04101562 C 309.27799,-0.96847943 227.3866,34.218435 166.19922,72.099609 45.19946,147.09946 -13.099968,261.29952 2.5,416.69922 c 17.999964,180.29964 251.39962,293.79976 449.19922,179.5 2.08185,-1.20338 2.90253,-1.80999 4.35156,-2.71289 L 437.5,635.59961 h 132.69922 l 83.30078,-185 h 146.90039 l 32.5,185 h 216.00001 l 110.1992,-346 70.7012,346 H 1314.5 l 165.3008,-382.69922 17,382.69922 h 127.0996 L 1597,17 H 1444.4004 L 1300.5,355.90039 1238.4004,17 H 1112.6992 L 950.19922,517 866.80078,17 H 710 l -237.07422,538.17969 35.375,-224.48047 h -236 L 254.19922,446.5 h 98.60156 L 341.5,508.69922 C 285.00012,531.29918 188.99953,522.80064 148.09961,449.30078 122.19967,402.80088 98.100218,298.89941 207.5,203.59961 c 88.99982,-77.69984 242.90057,-91.79875 331.90039,-50.79883 0,0 11.29885,-65.000902 19.79883,-125.80078 C 505.69932,8.4375372 455.95035,0.49987701 410.11523,0.04101562 Z M 2965.9668,16.828125 c -122.8484,2.041207 -239.1037,106.646785 -273.666,256.271485 -39.5,171.09966 42.7998,336.00006 183.5996,368.5 140.7996,32.49994 287,-79.59956 326.5,-250.69922 39.4,-170.99966 -42.7,-335.900065 -183.5996,-368.499999 -17.6,-4.062492 -35.2842,-5.863867 -52.834,-5.572266 z M 1732.5,17 1633.8008,635.59961 h 354.5 L 2009.5,502.90039 h -221.9004 l 17.7012,-110.20117 h 192.8984 l 21.2012,-132.79883 h -195 l 16.9004,-110.09961 H 2063 L 2084.1992,17 Z M 3140.8008,17 3290.5,343.19922 3244.4004,635.59961 H 3371.5 l 39.0996,-258.5 L 3639.3008,17 H 3491.0996 L 3365.4004,219 3286.1992,17 Z m -692.418,2.994141 C 2371.7002,19.825391 2276.3008,20.5 2276.3008,20.5 h 1.5 l -98.2012,613.90039 H 2465.5 c 117.7998,0 289.899,-173.60067 133.1992,-315.40039 161.1998,-166.79966 1.4002,-297.100002 -84.0996,-298.5 -17.175,-0.3 -40.6559,-0.449609 -66.2168,-0.505859 z m 521.4395,117.382809 c 13.2464,-0.32885 26.3785,2.17852 38.9785,7.82227 C 3076.1006,175.29916 3102.8,283.1002 3068.5,386 c -34.3,102.9998 -116.6006,162.00033 -183.9004,131.90039 -67.1998,-30.09994 -93.7992,-137.90098 -59.6992,-240.80078 27.95,-83.60609 87.5207,-138.29761 144.9219,-139.72266 z m -582.6231,13.52344 h 82.7012 c 89.6998,0 71.4998,115 -14,115 h -88.3008 z M 758,210.59961 l 23.30078,120 v 0.0996 h -77 z m 1589.9004,181.30078 h 106.5 c 100.8998,0 98.1998,123.40039 -14,123.40039 h -112.2012 z"
     style="fill:#30308f"
     id="path35" /><path
     d="m 3762.9004,36 c -1.9938,0 -3.9643,0.09068 -5.9063,0.271484 -3.8839,0.361621 -7.6555,1.081751 -11.2734,2.142578 -1.809,0.530419 -3.5789,1.146487 -5.3066,1.845704 -2.3062,0.933297 -4.5036,2.069306 -6.6446,3.294921 -0,7.22e-4 -0,0.0012 -0,0.002 -0.7909,0.452867 -1.5815,0.906489 -2.3476,1.398437 -0.3167,0.203294 -0.635,0.40338 -0.9473,0.613281 -0.1058,0.06945 -0.2138,0.135649 -0.3184,0.207032 -4e-4,3.08e-4 -0,-3.08e-4 -0,0 -1.3698,0.934963 -2.7102,1.913306 -3.9902,2.974609 -1.4252,1.181585 -2.793,2.441023 -4.0977,3.775391 -1.1739,1.200568 -2.2789,2.481563 -3.3477,3.802734 -0.3121,0.38591 -0.6093,0.787556 -0.9121,1.183594 -0.7704,1.007699 -1.5089,2.048657 -2.2168,3.121093 -0,0.0055 -0.01,0.01015 -0.012,0.01563 -0.2792,0.423445 -0.5628,0.841989 -0.832,1.275391 -8e-4,0.0012 -0,0.0027 -0,0.0039 -0.9181,1.478451 -1.7975,2.995461 -2.5937,4.587891 -0.8844,1.768687 -1.6914,3.606264 -2.416,5.511719 -0.7246,1.905455 -1.3669,3.879755 -1.9219,5.917968 -0.4964,1.822998 -0.8982,3.716371 -1.252,5.642579 -0.1093,0.596217 -0.1977,1.206579 -0.2929,1.8125 -0.2244,1.425676 -0.4069,2.878825 -0.5508,4.357421 -0.062,0.638014 -0.131,1.272196 -0.1777,1.919922 -0.1487,2.064545 -0.2452,4.160846 -0.2344,6.322266 v 456.40039 c 0,4.79998 0.401,9.36918 1.166,13.68945 0.3825,2.16016 0.8565,4.25723 1.416,6.29102 0.5595,2.03379 1.2047,4.00313 1.9317,5.90625 0.7269,1.90312 1.5352,3.73945 2.4199,5.50781 0.793,1.58528 1.6672,3.09692 2.5801,4.57031 0.2801,0.45217 0.5761,0.88862 0.8671,1.33008 0.702,1.06471 1.4343,2.09806 2.1973,3.09961 0.3047,0.39995 0.6038,0.8056 0.918,1.19531 1.0434,1.29445 2.1242,2.54882 3.2676,3.72852 0.026,0.0264 0.049,0.0557 0.074,0.082 1.3013,1.33712 2.6649,2.60011 4.0859,3.78516 1.4214,1.18535 2.9001,2.29337 4.4317,3.32226 1.5314,1.02891 3.1155,1.97754 4.748,2.84571 1.632,0.86781 3.3118,1.65442 5.0352,2.35742 1.7244,0.7035 3.4926,1.32346 5.2988,1.85742 2.4062,0.71136 4.9036,1.21143 7.4355,1.61328 0.6334,0.10045 1.2698,0.1908 1.9102,0.27149 2.5612,0.32284 5.1579,0.54687 7.8164,0.54687 2.4515,-2e-4 4.8512,-0.18794 7.2207,-0.46289 0.6859,-0.0796 1.361,-0.18882 2.0391,-0.29102 1.8035,-0.27187 3.5777,-0.6235 5.3203,-1.05273 0.5844,-0.14396 1.1789,-0.26439 1.7558,-0.42578 2.2197,-0.62098 4.3882,-1.35457 6.4864,-2.22852 0.3914,-0.16306 0.7615,-0.3654 1.1484,-0.53711 1.7269,-0.76649 3.4059,-1.62066 5.0352,-2.55664 0.5746,-0.33021 1.1432,-0.67055 1.705,-1.02148 1.6061,-1.00325 3.1594,-2.08846 4.6524,-3.25781 0.3203,-0.25093 0.6617,-0.47203 0.9765,-0.73047 1.75,-1.43637 3.4008,-3.00206 4.9707,-4.66602 0.4035,-0.42764 0.7772,-0.88968 1.168,-1.33203 1.1816,-1.3373 2.3044,-2.74171 3.3652,-4.21094 0.3937,-0.54526 0.7918,-1.08536 1.168,-1.64843 1.3144,-1.96702 2.5598,-4.0043 3.6504,-6.1836 0.8849,-1.76814 1.693,-3.60469 2.4199,-5.50781 0.727,-1.90312 1.3722,-3.87246 1.9317,-5.90625 0.5593,-2.03318 1.0336,-4.13144 1.416,-6.29102 v -0.002 c 0.3824,-2.16025 0.6731,-4.38186 0.8691,-6.66406 0.196,-2.28223 0.2969,-4.62344 0.2969,-7.02344 V 98 c -0.012,-2.399982 -0.1245,-4.741227 -0.3301,-7.023438 -0.2056,-2.282879 -0.5051,-4.505167 -0.8945,-6.666015 -0.3894,-2.160145 -0.8678,-4.257238 -1.4317,-6.291016 -0.6452,-2.326523 -1.4304,-4.545953 -2.291,-6.701172 -0.2724,-0.68216 -0.5858,-1.329577 -0.8789,-1.99414 -0.6404,-1.452082 -1.3188,-2.869793 -2.0547,-4.236328 -0.3794,-0.704626 -0.7699,-1.398632 -1.1738,-2.080079 -0.784,-1.322684 -1.6215,-2.59244 -2.4941,-3.826171 -0.3984,-0.563123 -0.7773,-1.145187 -1.1934,-1.689454 -1.3128,-1.717208 -2.6892,-3.367333 -4.1699,-4.892578 -1.2984,-1.337486 -2.6585,-2.599812 -4.0762,-3.785156 -1.4168,-1.184673 -2.8912,-2.293859 -4.418,-3.322266 -4e-4,-3.11e-4 -0,3.12e-4 -0,0 -0.9178,-0.618186 -1.8908,-1.150183 -2.8457,-1.710937 -0.634,-0.372111 -1.2391,-0.790307 -1.8887,-1.136719 -5e-4,-2.76e-4 -0,2.77e-4 -0,0 -1.6279,-0.867879 -3.3022,-1.65447 -5.0215,-2.357422 -6e-4,-2.31e-4 -0,2.32e-4 -0,0 -1.7193,-0.702886 -3.4816,-1.321805 -5.2832,-1.855468 -6e-4,-1.79e-4 -0,1.78e-4 -0,0 -1.8016,-0.533609 -3.643,-0.981708 -5.5176,-1.341797 -6e-4,-1.21e-4 -0,1.2e-4 -0,0 C 3770.7748,36.369532 3766.8879,36 3762.9004,36 Z m -35.8008,42.400391 h 71.7012 v 22.400389 l -50.1016,30.89844 h 50.1016 v 22.20117 h -71.7012 v -22.20117 l 50.0996,-31.09961 h -50.0996 z m 0,87.798829 h 47.7012 v 21.60156 h -47.7012 z m 57.2012,0 H 3799 v 21.60156 h -14.6992 z m -57.3008,33.5 h 47.6992 v 21.40039 h -5 c 4.1,4.09999 7.1008,10.10124 7.3008,17.20117 0.2,8.09994 -5.0993,24.49844 -24.1992,24.39844 H 3727 v -21.39844 h 31.3008 c 0.5125,0 1.0326,-0.0627 1.5508,-0.18359 3.627,-0.84638 7.1484,-4.55435 7.1484,-9.7168 0,-5.89994 -4.4992,-10.30078 -8.6992,-10.30078 H 3727 Z m 47.8008,62.70117 h 7.0996 v 11.69922 h 9.6992 v 21.59961 h -9.6992 v 11.70117 h -7.0996 v -11.70117 h -47.7012 v -21.59961 h 47.7012 z m -23.9004,42.19922 c 1.875,0 3.7019,0.22067 5.4629,0.64062 1.7609,0.41996 3.4558,1.0394 5.0683,1.83789 9.6751,4.79098 16.3692,16.02276 16.3692,29.22266 0,13.1999 -6.9765,24.54221 -16.666,29.38867 -1.6149,0.80775 -3.3049,1.43598 -5.0508,1.86133 -1.746,0.42535 -3.5473,0.64844 -5.3848,0.64844 v -40.59961 h -9.8984 c -8.7,0 -10.7012,5.89962 -10.7012,9.09961 0,3.19999 2.0012,8.90039 10.7012,8.90039 h 2.7988 V 367 C 3732.2996,363.20001 3724,350.8007 3724,336.30078 c 0,-13.1999 6.8632,-24.43168 16.4961,-29.22266 1.6055,-0.79849 3.2869,-1.41793 5.0273,-1.83789 1.7405,-0.41995 3.5395,-0.64062 5.377,-0.64062 z m 12.6621,23.25 c -1.4875,-0.15 -3.2133,-0.0496 -5.3633,0.15039 v 18 c 4,0 6.9008,-3.9e-4 9.3008,-1.40039 3,-1.9 4.4004,-4.89922 4.4004,-7.69922 -0.2,-2.79999 -1.4004,-6.10117 -4.4004,-7.70117 -1.2,-0.8 -2.45,-1.19961 -3.9375,-1.34961 z M 3727,375 h 47.6992 v 21.40039 h -5 c 4.1,4.09999 7.1008,10.09928 7.3008,17.19922 0.2,7.89993 -5.0993,24.30039 -24.1992,24.40039 H 3727 v -21.40039 h 31.3008 c 0.5125,0 1.0326,-0.0641 1.5508,-0.1875 3.627,-0.86415 7.1484,-4.63795 7.1484,-9.71289 0,-5.89999 -4.4992,-10.29883 -8.6992,-10.29883 H 3727 Z m 24.5996,69.69922 c 9.525,0 19.6129,6.69299 23.4707,16.62109 0.643,1.65469 1.1115,3.4004 1.377,5.21875 0.2654,1.81836 0.3273,3.71017 0.1523,5.66016 -0.2,2.49997 -0.7502,4.67499 -1.5,6.65039 -0.7498,1.9754 -1.6992,3.75118 -2.6992,5.45117 11.1,0 26.3988,-0.002 26.2988,-0.10156 v 21.20117 H 3727 v -21.20117 h 2.8008 c -0.65,-1.02499 -1.218,-2.06781 -1.709,-3.1211 -3.4373,-7.37299 -3.0668,-15.29029 -0.092,-21.67773 0.7,-1.75 5.5333,-11.69392 17.8516,-14.15234 1.7597,-0.35121 3.673,-0.54883 5.748,-0.54883 z m -9,22.60156 c -7.3,0 -9.2988,5.00001 -9.2988,8.5 0,3.49999 1.9988,8.5 9.2988,8.5 h 8.5 8.5 c 7.5,0 9.3008,-5.00001 9.3008,-8.5 0,-3.49999 -1.8008,-8.5 -9.3008,-8.5 h -8.5 z m 8.5,45.09961 c 1.875,0 3.702,0.22109 5.4629,0.64063 1.7609,0.41953 3.4558,1.0371 5.0684,1.83398 9.6751,4.78127 16.3691,15.97549 16.3691,29.02539 0,13.3499 -6.694,24.39451 -16.3691,29.08203 -1.6126,0.78126 -3.3075,1.38555 -5.0684,1.79492 -1.7609,0.40938 -3.5879,0.62305 -5.4629,0.62305 -1.875,0 -3.7019,-0.22109 -5.4629,-0.64062 -1.7609,-0.41954 -3.4558,-1.03711 -5.0683,-1.83399 -9.6751,-4.78127 -16.3692,-15.97549 -16.3692,-29.02539 0,-13.0499 6.8632,-24.24412 16.4961,-29.02539 1.6055,-0.79688 3.2869,-1.41445 5.0274,-1.83398 1.7404,-0.41954 3.5394,-0.64063 5.3769,-0.64063 z m -9.7988,22.40039 c -5.625,0 -8.8321,2.64302 -10.084,5.73633 -0.4173,1.0311 -0.6172,2.11211 -0.6172,3.16211 0,1.12498 0.1882,2.24372 0.5899,3.28906 1.205,3.13604 4.3363,5.61133 10.1113,5.61133 h 10.0996 10.0996 c 5.775,0 8.9049,-2.64443 10.1094,-5.73828 0.4015,-1.03128 0.5898,-2.11213 0.5898,-3.16211 0,-4.49999 -3.1992,-8.89844 -10.6992,-8.89844 h -9.9004 z m 45.7988,32.79883 c 6.2,0 11.0996,4.99962 11.0996,11.09961 0,5.99994 -4.8996,11.10156 -11.0996,11.10156 -6.1,0 -11.0996,-5.00162 -11.0996,-11.10156 0,-6.09999 4.9996,-11.09961 11.0996,-11.09961 z m 0,2.20117 c -4.2875,0 -7.886,3.06144 -8.7187,7.10938 -0.119,0.57827 -0.1817,1.17656 -0.1817,1.78906 0,4.99994 4.0004,8.90039 8.9004,8.90039 4.9,0 8.9004,-4.00045 8.9004,-8.90039 0,-4.89999 -4.0004,-8.89844 -8.9004,-8.89844 z M 3781,574.19922 h 12.3008 V 579 c 0,3.49999 -1.0004,5.30078 -3.4004,5.30078 -0.8,0 -1.5004,-0.2501 -2.0879,-0.71289 -0.5875,-0.46279 -1.0621,-1.13828 -1.4121,-1.98828 L 3781,584.19922 V 581 l 5,-2.40039 v -1.40039 h -5 z m 7.0996,3.10156 v 1.39844 c 0,1.6 0.4008,2.60039 1.8008,2.40039 0.6,0 1.0499,-0.2001 1.3496,-0.625 0.2997,-0.4249 0.4492,-1.07461 0.4492,-1.97461 v -1.19922 z"
     style="fill:#ffffff"
     id="path34" /><path
     d="m 3762.6992,17 c -7.8,0 -15.3424,1.136467 -22.4512,3.302734 -2.3695,0.722094 -4.6906,1.5586 -6.957,2.50586 -4.5328,1.894519 -8.8457,4.2299 -12.8867,6.978515 -4.041,2.74862 -7.8102,5.910571 -11.2539,9.451172 -1.7219,1.770301 -3.3632,3.635144 -4.916,5.591797 -1.5528,1.956653 -3.0182,4.00343 -4.3887,6.138672 -1.3705,2.135242 -2.6453,4.358001 -3.8203,6.664062 -2.3501,4.612134 -4.296,9.559748 -5.7852,14.808594 -0.7445,2.624426 -1.3752,5.323748 -1.8847,8.095703 -0.5096,2.77196 -0.8988,5.615619 -1.1602,8.527344 -0.2614,2.911725 -0.3945,5.891815 -0.3945,8.935547 v 456.59961 c 0,3.03125 0.1331,6.00017 0.3945,8.90234 0.5228,5.80444 1.5558,11.344 3.0449,16.58399 0.7446,2.61994 1.602,5.16406 2.5684,7.63086 2.8992,7.40033 6.7674,14.09417 11.4258,19.9707 1.5528,1.95886 3.1941,3.82617 4.916,5.59961 3.4437,3.54687 7.2129,6.71582 11.2539,9.47266 2.0205,1.37836 4.1078,2.65344 6.2578,3.82226 2.1501,1.16882 4.3625,2.23047 6.6289,3.18164 2.2664,0.95117 4.5875,1.79212 6.957,2.51758 2.3696,0.72546 4.7866,1.33646 7.2461,1.82812 4.9192,0.98338 10.0051,1.49024 15.2051,1.49024 5.225,-0.025 10.3403,-0.55449 15.2891,-1.55664 4.9488,-1.00215 9.7328,-2.47578 14.2969,-4.39063 4.564,-1.91479 8.9078,-4.27012 12.9785,-7.0332 2.0353,-1.38154 4.0029,-2.86577 5.8945,-4.44727 3.7833,-3.163 7.2655,-6.71821 10.3926,-10.63281 3.127,-3.91454 5.8975,-8.18936 8.2597,-12.79101 1.1811,-2.30086 2.261,-4.68204 3.2305,-7.14258 0.9695,-2.46055 1.8299,-4.99915 2.5742,-7.61133 0.7444,-2.61218 1.3733,-5.29893 1.8789,-8.05469 0.5057,-2.75571 0.8873,-5.58142 1.1407,-8.47265 0.2533,-2.89128 0.3777,-5.84844 0.3652,-8.86719 V 97.800781 c 0.012,-3.018732 -0.1124,-5.97597 -0.3672,-8.867187 -0.2548,-2.891218 -0.6402,-5.717105 -1.1484,-8.472657 -0.5082,-2.75555 -1.139,-5.441003 -1.8867,-8.052734 -0.7478,-2.611725 -1.6125,-5.149622 -2.586,-7.609375 -1.9469,-4.919501 -4.3312,-9.528344 -7.0976,-13.791016 -1.3832,-2.13133 -2.8605,-4.175964 -4.4278,-6.130859 -3.1345,-3.90979 -6.6244,-7.458172 -10.4121,-10.613281 -7.5754,-6.310218 -16.3449,-11.045233 -25.8672,-13.945313 -4.7611,-1.450037 -9.7115,-2.441748 -14.7929,-2.941406 C 3767.8733,17.127124 3765.2992,17 3762.6992,17 Z m 0.2012,19 c 1.9937,0 3.9612,0.09121 5.9004,0.273437 1.9391,0.182225 3.8493,0.456251 5.7246,0.816407 1.8753,0.360151 3.7173,0.808008 5.5195,1.341797 1.8022,0.533783 3.5653,1.152349 5.2852,1.855468 1.7199,0.703125 3.395,1.489264 5.0234,2.357422 1.6284,0.868158 3.2087,1.818759 4.7363,2.847656 1.5277,1.028899 3.0043,2.136921 4.4219,3.322266 1.4177,1.185346 2.7778,2.447668 4.0762,3.785156 6.4922,6.687464 11.4362,15.251037 14.2559,25.419922 1.1273,4.067554 1.915,8.392608 2.3261,12.957031 0.2056,2.282215 0.3176,4.62345 0.3301,7.023438 v 456.40039 c 0,2.4 -0.1009,4.74121 -0.2969,7.02344 -0.392,4.5644 -1.1661,8.88946 -2.2851,12.95703 -0.5595,2.03379 -1.2047,4.00313 -1.9317,5.90625 -0.7269,1.90312 -1.535,3.73965 -2.4199,5.50781 -9.7337,19.44969 -28.7348,30.60547 -50.666,30.60547 -5.9813,0 -11.7454,-0.83027 -17.1621,-2.43164 -3.6112,-1.06758 -7.0689,-2.47857 -10.334,-4.21484 -1.6325,-0.86817 -3.2166,-1.8168 -4.748,-2.84571 -1.5316,-1.0289 -3.0103,-2.13691 -4.4317,-3.32226 -1.4214,-1.18535 -2.7863,-2.44766 -4.0879,-3.78516 -2.6031,-2.675 -4.9568,-5.65044 -7.0234,-8.9082 -2.0666,-3.25781 -3.8449,-6.79922 -5.2988,-10.60547 -0.727,-1.90312 -1.3722,-3.87246 -1.9317,-5.90625 -0.5595,-2.03379 -1.0335,-4.13086 -1.416,-6.29102 -0.3825,-2.1601 -0.6751,-4.38379 -0.8711,-6.66601 -0.196,-2.28223 -0.2949,-4.62344 -0.2949,-7.02344 V 98 c -0.012,-2.412488 0.075,-4.764905 0.2617,-7.056641 0.373,-4.583466 1.136,-8.921606 2.2461,-12.998047 0.555,-2.038215 1.1973,-4.012511 1.9219,-5.917968 0.7246,-1.905457 1.5316,-3.74303 2.416,-5.511719 2.653,-5.306073 6.0019,-9.987133 9.916,-13.990234 1.3047,-1.334369 2.6725,-2.593805 4.0977,-3.775391 4.2755,-3.544752 9.0707,-6.39259 14.2539,-8.490234 1.7277,-0.699218 3.4976,-1.315284 5.3066,-1.845704 3.6179,-1.060828 7.3895,-1.780957 11.2734,-2.142578 C 3758.9361,36.090679 3760.9066,36 3762.9004,36 Z m -35.8008,42.400391 v 22.199219 h 50.0996 l -50.0996,31.09961 v 22.20117 h 71.7012 v -22.20117 h -50.1016 l 50.1016,-30.89844 V 78.400391 Z m 0,87.798829 v 21.60156 h 47.7012 v -21.60156 z m 57.2012,0 v 21.60156 H 3799 v -21.60156 z m -57.3008,33.5 v 21.40039 h 31.3008 c 4.2,0 8.6992,4.40084 8.6992,10.30078 0,5.89994 -4.5992,9.90039 -8.6992,9.90039 H 3727 v 21.39844 h 25.8008 c 19.1,0.1 24.3992,-16.2985 24.1992,-24.39844 -0.2,-7.09994 -3.2008,-13.10117 -7.3008,-17.20117 h 5 v -21.40039 z m 47.8008,62.70117 v 11.69922 h -47.7012 v 21.59961 h 47.7012 v 11.70117 h 7.0996 v -11.70117 h 9.6992 v -21.59961 h -9.6992 v -11.69922 z m -23.9004,42.19922 c -14.7,0 -26.9004,14.10129 -26.9004,31.70117 0,14.49994 8.2996,26.89922 19.5996,30.69922 v -21.40039 h -2.7988 c -8.7,0 -10.7012,-5.70039 -10.7012,-8.90039 0,-3.2 2.0012,-9.09961 10.7012,-9.09961 h 9.8984 v 40.59961 c 14.7,0 27.1016,-14.29856 27.1016,-31.89844 0,-17.59988 -11.9004,-31.70117 -26.9004,-31.70117 z m 12.6621,23.25 c 1.4875,0.15 2.7375,0.54961 3.9375,1.34961 3,1.6 4.2004,4.90117 4.4004,7.70117 0,2.8 -1.4004,5.79922 -4.4004,7.69922 -2.4,1.4 -5.3008,1.40039 -9.3008,1.40039 v -18 c 2.15,-0.2 3.8758,-0.30039 5.3633,-0.15039 z M 3727,375 v 21.40039 h 31.3008 c 4.2,0 8.6992,4.39883 8.6992,10.29883 0,5.79994 -4.5992,9.90039 -8.6992,9.90039 H 3727 V 438 h 25.8008 c 19.1,-0.1 24.3992,-16.50045 24.1992,-24.40039 -0.2,-7.09994 -3.2008,-13.09922 -7.3008,-17.19922 h 5 V 375 Z m 24.5996,69.69922 c -16.6,0 -22.7996,12.70117 -23.5996,14.70117 -3.4,7.29994 -3.3992,16.59889 1.8008,24.79883 H 3727 v 21.20117 h 71.6992 v -21.20117 c 0.1,0.1 -15.1988,0.10156 -26.2988,0.10156 2,-3.4 3.7992,-7.10162 4.1992,-12.10156 1.4,-15.59994 -12.3,-27.5 -25,-27.5 z m -9,22.60156 h 8.5 8.5 c 7.5,0 9.3008,5 9.3008,8.5 0,3.5 -1.8008,8.5 -9.3008,8.5 h -8.5 -8.5 c -7.3,0 -9.2988,-5 -9.2988,-8.5 0,-3.5 1.9988,-8.5 9.2988,-8.5 z m 8.5,45.09961 c -14.7,0 -26.9004,14.10012 -26.9004,31.5 0,17.39988 11.9004,31.5 26.9004,31.5 15,0 26.9004,-13.70012 26.9004,-31.5 0,-17.39988 -11.9004,-31.5 -26.9004,-31.5 z m -9.7988,22.40039 h 10.2988 9.9004 c 7.5,0 10.6992,4.39844 10.6992,8.89844 0,4.19994 -2.9992,8.90039 -10.6992,8.90039 h -10.0996 -10.0996 c -7.7,0 -10.7012,-4.40045 -10.7012,-8.90039 0,-4.2 3.2012,-8.89844 10.7012,-8.89844 z m 45.7988,32.79883 c -6.1,0 -11.0996,4.99961 -11.0996,11.09961 0,6.09994 4.9996,11.10156 11.0996,11.10156 6.2,0 11.0996,-5.10162 11.0996,-11.10156 0,-6.1 -4.8996,-11.09961 -11.0996,-11.09961 z m 0,2.20117 c 4.9,0 8.9004,3.99844 8.9004,8.89844 0,4.89994 -4.0004,8.90039 -8.9004,8.90039 -4.9,0 -8.9004,-3.90045 -8.9004,-8.90039 0,-4.9 4.0004,-8.89844 8.9004,-8.89844 z M 3781,574.19922 v 3 h 5 v 1.40039 L 3781,581 v 3.19922 l 5.4004,-2.59961 c 0.7,1.7 1.9,2.70117 3.5,2.70117 2.4,0 3.4004,-1.80078 3.4004,-5.30078 v -4.80078 z m 7.0996,3.10156 h 3.5996 V 578.5 c 0,1.8 -0.5988,2.59961 -1.7988,2.59961 -1.4,0.2 -1.8008,-0.80039 -1.8008,-2.40039 z"
     style="fill:#e31e26"
     id="path33" /></g>
</svg>
