<?xml version="1.0" encoding="UTF-8" standalone="no"?>
<!-- Created with Inkscape (http://www.inkscape.org/) -->

<svg
   version="1.0"
   width="1897.3"
   height="456.5"
   viewBox="0 0 1897.282 456.502"
   id="Layer_2"
   xml:space="preserve"
   sodipodi:docname="header.svg"
   inkscape:version="1.3.2 (091e20e, 2023-11-25)"
   xmlns:inkscape="http://www.inkscape.org/namespaces/inkscape"
   xmlns:sodipodi="http://sodipodi.sourceforge.net/DTD/sodipodi-0.dtd"
   xmlns="http://www.w3.org/2000/svg"
   xmlns:svg="http://www.w3.org/2000/svg"
   xmlns:rdf="http://www.w3.org/1999/02/22-rdf-syntax-ns#"
   xmlns:cc="http://creativecommons.org/ns#"
   xmlns:dc="http://purl.org/dc/elements/1.1/"><sodipodi:namedview
   id="namedview1"
   pagecolor="#ffffff"
   bordercolor="#000000"
   borderopacity="0.25"
   inkscape:showpageshadow="2"
   inkscape:pageopacity="0.0"
   inkscape:pagecheckerboard="0"
   inkscape:deskcolor="#d1d1d1"
   inkscape:zoom="0.47502599"
   inkscape:cx="712.59259"
   inkscape:cy="176.83243"
   inkscape:window-width="1800"
   inkscape:window-height="1037"
   inkscape:window-x="0"
   inkscape:window-y="44"
   inkscape:window-maximized="0"
   inkscape:current-layer="Layer_2" /><defs
   id="defs32">
	
	
	
	
	
	
	
	
	
	
	
	
	
	
	
	
	
	
	

	
	

	
	
</defs><metadata
   id="metadata272"><rdf:RDF><cc:Work
       rdf:about=""><dc:format>image/svg+xml</dc:format><dc:type
         rdf:resource="http://purl.org/dc/dcmitype/StillImage" /><dc:title /></cc:Work></rdf:RDF></metadata>


<g
   id="g23"><path
     d="m 748.3651,77.461277 c -1.278,-0.009 -2.63813,0.552854 -3.53713,1.46485 -0.91299,0.900996 -1.47385,2.25413 -1.46485,3.537125 v 25.498158 c -0.011,1.278 0.55486,2.63917 1.46485,3.53517 0.897,0.911 2.25513,1.4749 3.53713,1.4629 h 89.49648 V 334.9585 H 783.3633 v -18.99618 c 0.009,-1.28199 -0.54985,-2.63613 -1.46485,-3.53712 -0.899,-0.911 -2.25913,-1.47385 -3.53713,-1.46485 h -81.4984 v -47.00216 l 81.4984,0.002 c 1.282,0.009 2.63713,-0.5529 3.53713,-1.4629 0.915,-0.90399 1.47485,-2.26117 1.46485,-3.53517 v -23.5001 c 0.009,-1.279 -0.55285,-2.63813 -1.46485,-3.53713 -0.899,-0.90998 -2.25913,-1.4758 -3.53713,-1.4668 h -81.9984 v -43.49628 h 82.50231 c 1.277,0.009 2.63418,-0.55181 3.53517,-1.46681 0.908,-0.89499 1.4729,-2.25622 1.4629,-3.53322 v -24.0001 c 0.009,-1.277 -0.55485,-2.63917 -1.46485,-3.53517 -0.899,-0.913 -2.25622,-1.47385 -3.53322,-1.46485 H 666.35497 c -1.27999,-0.009 -2.63509,0.5518 -3.53907,1.4668 -0.911,0.895 -1.4719,2.25622 -1.4629,3.53322 v 176.99882 l -5.50393,-0.004 h -17.42195 c -17.52594,0 -37.17345,-5e-5 -39.07244,0.002 -0.016,0 -0.13824,0.003 -0.36524,-0.008 l -1.4375,-0.084 -1.2129,-0.77149 c -0.372,-0.239 -0.87277,-0.56525 -1.50977,-0.99023 l -0.82813,-0.55469 -0.58399,-0.80665 c -0.342,-0.47 -0.79611,-1.11648 -1.28711,-1.85548 -3.52099,-5.23497 -10.06847,-15.92308 -17.81844,-28.87903 -11.63695,-19.45092 -26.05013,-44.09659 -37.54509,-63.86551 -4.12397,-7.08898 -7.87047,-13.55485 -10.98247,-18.92782 l -4.77736,-8.2559 h 83.34802 c 1.277,0.012 2.63922,-0.55685 3.53322,-1.46485 0.913,-0.89899 1.47485,-2.25717 1.46485,-3.53517 V 83.978884 c 0.009,-1.276996 -0.55181,-2.640082 -1.4668,-3.539078 -0.895,-0.907998 -2.25123,-1.469944 -3.53322,-1.460944 H 483.85222 c -2.73399,-0.009 -4.99302,2.236735 -5.00002,4.970725 l -1.46876,251.059693 -5.43557,0.0312 c -7.96996,0.049 -19.56763,0.1165 -31.31459,0.1875 -21.04892,0.124 -42.58646,0.25 -44.32246,0.25 -2.70399,0.044 -5.15098,-1.00648 -6.25198,-1.73047 l -0.0371,-0.0234 -0.0508,-0.0293 c -0.745,-0.471 -1.2217,-0.88046 -1.55469,-1.18946 l -0.25001,-0.23437 -76.96322,-92.97893 c -1.002,-1.20698 -2.39749,-1.8055 -3.85549,-1.8125 -1.135,0.003 -2.23547,0.36439 -3.18947,1.15039 -1.20198,0.996 -1.7986,2.38955 -1.8086,3.85353 0.004,1.112 0.35157,2.18997 1.10157,3.12697 l 76.37924,92.27384 0.53711,0.64649 c 0.399,0.475 1.69742,1.98607 4.27541,3.62306 2.56199,1.636 6.64052,3.33028 11.64849,3.32228 h 0.0625 c 3.57799,0 85.97472,-0.49805 86.02772,-0.49805 2.70799,-0.003 4.96877,-2.26369 4.96877,-4.97267 L 488.82099,88.974999 H 599.36054 V 199.97549 l -86.99843,0.002 c -1.79199,0 -3.43215,0.94701 -4.32814,2.50001 -0.45,0.773 -0.67383,1.63006 -0.67383,2.49806 0,0.83499 0.20795,1.66384 0.62695,2.42384 0.014,0.022 0.0184,0.0301 0.0234,0.0371 0.007,0.011 0.008,0.0164 0.01,0.0234 0.007,0.009 0.0136,0.0164 0.0176,0.0254 0.012,0.019 0.025,0.0432 0.043,0.0742 0.037,0.064 0.0892,0.1573 0.16016,0.2793 0.142,0.243 0.3501,0.60518 0.6211,1.07618 0.54299,0.94499 1.34338,2.32891 2.35938,4.08791 2.03399,3.52298 4.94427,8.55359 8.44926,14.60358 7.01097,12.09794 16.4036,28.26173 25.93956,44.52168 9.53896,16.26393 19.21861,32.61919 26.81457,45.12715 3.79999,6.25997 7.07232,11.54505 9.57231,15.41803 1.255,1.943 2.29903,3.51359 3.16603,4.72659 0.458,0.64099 0.81546,1.12018 1.18946,1.57617 0.236,0.281 0.38224,0.45718 0.61524,0.70118 0.515,0.5 0.36064,0.4061 1.18164,0.9961 v 0.002 c 2.381,1.56 3.26164,2.28674 5.34964,3.26173 0.76398,0.357 2.04089,0.73457 2.92188,0.85157 1.053,0.161 1.90543,0.1825 2.94142,0.1875 h 67.00225 c 1.282,0.009 2.63228,-0.55381 3.53126,-1.4668 0.915,-0.901 1.47776,-2.25622 1.46876,-3.53322 V 162.95579 h 102.51022 v 14.00202 h -82.49841 c -1.28,-0.009 -2.63713,0.55485 -3.53713,1.46485 -0.90999,0.89699 -1.47189,2.25413 -1.46289,3.53712 v 53.49828 c -0.009,1.28 0.55294,2.64022 1.46094,3.53322 0.899,0.911 2.26108,1.4768 3.53908,1.4668 h 81.9984 v 13.49811 l -81.4984,0.004 c -1.282,-0.01 -2.64118,0.54994 -3.53517,1.46094 -0.913,0.898 -1.47485,2.25408 -1.46485,3.53908 v 56.9983 c -0.009,1.27698 0.55376,2.63912 1.46875,3.53712 0.892,0.906 2.24927,1.46799 3.53127,1.45899 h 81.50036 v 19.00399 c -0.011,1.277 0.55285,2.63718 1.46485,3.53517 0.89699,0.911 2.24927,1.47385 3.53126,1.46485 h 64.50419 c 1.28,0.009 2.63427,-0.5538 3.53127,-1.4668 0.91299,-0.901 1.47485,-2.25622 1.46485,-3.53322 V 107.9575 c 0.009,-1.27698 -0.55286,-2.63617 -1.46485,-3.53517 -0.895,-0.90799 -2.25327,-1.47289 -3.53127,-1.46289 H 753.37489 V 87.459368 h 206.51067 v 15.500072 h -90.99845 c -1.28,-0.009 -2.63617,0.5529 -3.53517,1.46289 -0.911,0.899 -1.47685,2.25519 -1.46485,3.53517 v 232.00102 c -0.009,1.277 0.55185,2.63222 1.46485,3.53322 0.901,0.913 2.25517,1.4758 3.53517,1.4668 h 64.00223 c 1.277,0.009 2.63427,-0.5568 3.53127,-1.4668 0.913,-0.901 1.47485,-2.25622 1.46485,-3.53322 V 164.45775 h 99.00044 v 84.50037 l -74.49838,-0.004 c -1.95799,0 -3.74862,1.15433 -4.55861,2.94532 -0.296,0.651 -0.44336,1.34576 -0.44336,2.05274 0.003,1.178 0.41314,2.33371 1.24414,3.30471 l 0.002,-0.002 0.006,0.01 c 0.007,0.009 0.0221,0.0239 0.0371,0.0449 0.034,0.039 0.0844,0.093 0.14844,0.16797 0.133,0.151 0.32699,0.37697 0.58399,0.66797 0.512,0.585 1.26471,1.44408 2.22071,2.53908 1.915,2.18598 4.65327,5.31231 7.94925,9.0723 6.59199,7.52097 15.4179,17.58077 24.34386,27.72473 8.92604,10.14496 17.95204,20.37415 24.96104,28.25013 3.502,3.93797 6.5003,7.28396 8.7383,9.75394 1.114,1.229 2.0399,2.23597 2.7559,3.00197 0.361,0.384 0.6672,0.70605 0.9492,0.99805 0.402,0.4 0.3555,0.3706 0.8535,0.8086 2.944,2.55499 6.5581,4.20193 9.7091,4.87893 3.369,0.748 6.376,0.77416 9.5,0.78516 h 111.5005 c 1.277,0.01 2.6342,-0.5529 3.5332,-1.4629 0.912,-0.899 1.4749,-2.26314 1.4649,-3.53712 v -36.00016 c 0.01,-1.282 -0.5529,-2.64113 -1.4629,-3.53713 -0.896,-0.91099 -2.2562,-1.47189 -3.5352,-1.46289 h -51.0022 V 163.47728 h 135.0006 v 136.5006 h -53.0002 c -1.281,-0.009 -2.6381,0.5538 -3.5371,1.4668 -0.91,0.896 -1.4739,2.25422 -1.4649,3.53322 v 36.00016 c -0.012,1.27699 0.5529,2.63812 1.4629,3.53712 0.899,0.91 2.2542,1.4729 3.5352,1.4629 h 122.5005 c 1.275,0.01 2.6373,-0.5549 3.5313,-1.4629 0.913,-0.899 1.4758,-2.26313 1.4668,-3.53712 V 88.978905 h 112.5005 V 199.47939 h -87.4985 c -1.28,-0.009 -2.6352,0.5529 -3.5332,1.4629 -0.913,0.89899 -1.4768,2.26109 -1.4668,3.53907 v 135.5006 c -0.012,1.27699 0.5538,2.63717 1.4668,3.53517 0.896,0.911 2.2482,1.4719 3.5332,1.4629 h 157.5007 c 1.275,0.009 2.6323,-0.55186 3.5313,-1.46485 0.912,-0.899 1.4719,-2.25123 1.4629,-3.53322 V 144.9811 h 15.502 v 195.00086 c -0.01,1.27699 0.5558,2.63917 1.4668,3.53517 0.894,0.911 2.2512,1.4719 3.5332,1.4629 h 64.5023 c 1.275,0.009 2.6322,-0.55186 3.5312,-1.46485 0.912,-0.899 1.4719,-2.25123 1.4629,-3.53322 V 164.98119 h 101.0005 v 13.00006 l -80.4965,0.002 c -1.282,-0.009 -2.6392,0.55295 -3.5332,1.46095 -0.911,0.89898 -1.4758,2.26108 -1.4668,3.53907 v 53.99829 c -0.01,1.27699 0.5549,2.64117 1.4629,3.53517 0.897,0.911 2.2571,1.47385 3.5371,1.46485 h 82.4984 v 13.00006 h -80.4984 c -1.282,-0.009 -2.6372,0.5519 -3.5332,1.46289 -0.913,0.898 -1.4788,2.26013 -1.4668,3.53713 v 57.0022 c -0.012,1.275 0.5529,2.63727 1.4629,3.53127 0.899,0.91199 2.2571,1.47485 3.5371,1.46485 h 79.5004 v 18.00203 c -0.012,1.27699 0.5537,2.63808 1.4687,3.53908 0.89,0.90799 2.2474,1.46994 3.5294,1.46094 h 40.799 l -0.078,0.0176 h 44.1877 c 2.379,0.002 4.0487,0.24063 5.3887,0.64063 l 0.127,0.0391 0.1152,0.0391 c 0.392,0.14 1.2816,0.42602 2.2266,1.04102 0.911,0.601 1.444,1.1275 2.123,1.77149 l 0.066,0.0645 c 1.7499,1.77899 3.4395,4.11654 5.9785,7.43753 1.721,2.24799 6.9021,8.72953 13.834,17.3575 20.756,25.81689 56.7542,70.25421 56.7542,70.25421 0.997,1.229 2.4126,1.84653 3.8926,1.85353 1.119,-0.005 2.2018,-0.3544 3.1348,-1.10938 1.234,-1.004 1.8514,-2.42451 1.8574,-3.89651 -0.01,-1.12098 -0.3541,-2.19815 -1.1621,-3.20313 -0.031,-0.036 -0.077,-0.094 -0.1348,-0.16797 -0.124,-0.151 -0.303,-0.37312 -0.539,-0.66212 -0.471,-0.58199 -1.162,-1.4335 -2.043,-2.52149 -1.764,-2.174 -4.284,-5.2896 -7.334,-9.06059 -9.151,-11.30695 -23.0307,-28.46599 -35.2287,-43.59394 -6.102,-7.56297 -11.7785,-14.62085 -16.2325,-20.17782 -4.452,-5.55299 -7.7015,-9.63481 -8.8145,-11.0938 -3.364,-4.33199 -5.4797,-7.60689 -9.3496,-10.67388 -1.76,-1.37798 -4.0682,-2.60789 -6.4552,-3.29689 -2.4658,-0.72898 -5.1471,-1.04097 -8.2031,-1.04297 -3.485,0 -52.5405,-5e-5 -74.5003,0.002 h -5.502 v -17.99812 c 0.01,-1.284 -0.5529,-2.64113 -1.4629,-3.53713 -0.899,-0.91299 -2.2581,-1.47485 -3.5371,-1.46485 h -79.5004 v -47.0002 h 80.5023 c 1.277,0.009 2.6362,-0.5529 3.5352,-1.4629 0.91,-0.899 1.4738,-2.25714 1.4648,-3.53712 v -23.0001 c 0.01,-1.279 -0.5559,-2.64118 -1.4609,-3.53518 -0.899,-0.90999 -2.2601,-1.47289 -3.5391,-1.46289 h -82.5023 v -44.00215 h 80.5023 c 1.275,0.011 2.6411,-0.5529 3.5371,-1.4629 0.908,-0.89499 1.471,-2.25122 1.461,-3.53322 V 160.0007 c 0.01,-1.28 -0.5529,-2.64013 -1.4629,-3.53712 -0.895,-0.908 -2.2562,-1.47295 -3.5352,-1.46095 h -110.9985 c -1.284,-0.009 -2.6392,0.54995 -3.5371,1.46095 -0.911,0.89899 -1.4739,2.25912 -1.4649,3.53712 v 175.00077 h -54.5022 V 140.00061 c 0.01,-1.28199 -0.5509,-2.63812 -1.4629,-3.53712 -0.897,-0.911 -2.2612,-1.4749 -3.5352,-1.4629 h -25.4981 c -1.28,-0.011 -2.6381,0.55182 -3.5391,1.4668 -0.908,0.894 -1.4729,2.25323 -1.4629,3.53322 V 335.00147 H 1351.2877 V 209.49115 h 87.5043 c 1.2738,0.012 2.6361,-0.55377 3.5371,-1.46875 0.906,-0.892 1.4679,-2.25032 1.4609,-3.52932 V 83.994509 c 0.01,-1.281996 -0.5529,-2.640082 -1.4629,-3.539078 -0.897,-0.907997 -2.2542,-1.469944 -3.5332,-1.460944 h -122.5005 c -1.282,-0.009 -2.6421,0.552947 -3.5391,1.460944 -0.908,0.898996 -1.4719,2.259082 -1.4629,3.539078 V 335.99366 H 1198.7909 V 309.9955 h 53.0041 c 1.277,0.009 2.6392,-0.5529 3.5352,-1.4629 0.913,-0.899 1.4749,-2.26013 1.4649,-3.53712 V 158.49484 c 0.01,-1.282 -0.5528,-2.63509 -1.4688,-3.53908 -0.894,-0.911 -2.2543,-1.4719 -3.5313,-1.4629 h -144.9986 c -1.279,-0.009 -2.6392,0.55381 -3.5372,1.4668 -0.913,0.901 -1.4739,2.25413 -1.4629,3.53713 v 146.49869 c -0.011,1.27699 0.5519,2.63812 1.4649,3.53712 0.895,0.908 2.2582,1.4719 3.5352,1.4629 h 51.0002 v 26.00207 h -5.5 c -11.116,-0.002 -29.5236,-0.002 -47.6174,-0.002 -25.59,0 -50.5581,-4e-5 -53.3811,0.002 h -0.064 l -0.064,-0.002 h -0.2539 c -2.855,-0.014 -4.8952,-0.0819 -6.9552,-0.54687 l -0.051,-0.0137 -0.039,-0.01 c -1.325,-0.254 -3.5845,-1.22335 -5.0235,-2.48634 l -0.2793,-0.22071 -0.2539,-0.26172 c -0.243,-0.25199 -0.6926,-0.72188 -1.2226,-1.29688 -5.747,-6.20397 -23.5675,-26.38505 -39.86934,-44.92597 -5.66299,-6.44198 -11.15043,-12.69439 -15.90242,-18.11336 l -8.00198,-9.12504 h 68.47884 c 1.277,0.01 2.6372,-0.55487 3.5332,-1.46485 0.913,-0.899 1.4738,-2.25718 1.4648,-3.53518 v -94.4965 c 0.01,-1.282 -0.5519,-2.64209 -1.4629,-3.53908 -0.896,-0.911 -2.2581,-1.4729 -3.5351,-1.4629 H 932.87763 c -1.28,-0.009 -2.64013,0.55185 -3.53713,1.46485 -0.913,0.896 -1.4758,2.25813 -1.4668,3.53713 V 334.99756 H 873.87346 V 112.96729 h 91.00235 c 1.277,0.011 2.63813,-0.55185 3.53713,-1.46485 0.90799,-0.894 1.47294,-2.25517 1.46094,-3.53517 V 82.463252 c 0.012,-1.283995 -0.55185,-2.638129 -1.46485,-3.537125 -0.896,-0.912996 -2.25622,-1.47485 -3.53322,-1.46485 z M 958.52813,257.30386 c 0.009,0.016 0.0165,0.0282 0.0254,0.0371 h 0.006 c -0.01,-0.014 -0.0156,-0.0204 -0.0176,-0.0234 z"
     style="display:inline;fill:#fee600"
     id="path4" /><path
     d="m 748.06041,66.54326 c -4.25399,0.009 -8.30152,1.689483 -11.3145,4.689474 -2.998,3.007991 -4.68048,7.058562 -4.68948,11.31255 V 108.0493 c 0.009,4.25199 1.69148,8.30052 4.68948,11.3145 3.01598,3 7.06451,4.67357 11.3145,4.68557 h 78.49644 v 200.00088 h -32.49624 v -8.00004 c -0.009,-4.25298 -1.69253,-8.30355 -4.68752,-11.31255 -3.01399,-2.99998 -7.06446,-4.67947 -11.31646,-4.68947 h -70.49835 v -25.00206 h 70.50031 c 4.24698,-0.008 8.30047,-1.68248 11.31645,-4.68948 2.993,-3.00698 4.67552,-7.0577 4.68752,-11.30669 l -0.002,-23.50205 c -0.009,-4.25299 -1.68949,-8.30357 -4.68947,-11.31255 -3.011,-3 -7.06057,-4.67852 -11.31255,-4.68752 h -70.99836 v -21.5001 h 71.50031 c 4.25199,-0.009 8.30161,-1.68952 11.3106,-4.68752 2.99999,-3.00998 4.68047,-7.06056 4.68947,-11.31255 v -24.0001 c -0.009,-4.25099 -1.68948,-8.30351 -4.68947,-11.31451 -3.00899,-2.99598 -7.05861,-4.67656 -11.3106,-4.68556 H 666.06005 c -4.25399,0.009 -8.30356,1.68948 -11.31255,4.68947 -2.99999,3.00999 -4.68047,7.05861 -4.68947,11.3106 v 165.94994 c -3.676,-10e-4 -7.74085,0 -11.92584,0 -14.84895,0 -31.20657,0.002 -37.02555,0.004 -0.042,-0.062 -0.0849,-0.12645 -0.12695,-0.18945 -3.245,-4.81599 -9.83154,-15.54541 -17.52352,-28.40638 -11.59296,-19.37494 -25.9918,-44.00134 -37.47477,-63.75028 -2.181,-3.74898 -4.25459,-7.3224 -6.18557,-10.65239 h 64.26395 c 4.25198,-0.012 8.29961,-1.68757 11.31059,-4.68557 3,-3.01398 4.67853,-7.06447 4.68753,-11.31645 V 84.000368 c -0.009,-4.251987 -1.68753,-8.300512 -4.68753,-11.314503 -3.00898,-2.999991 -7.06061,-4.67652 -11.31059,-4.68752 H 483.55925 c -8.79997,0.009 -15.94007,7.106298 -16.00007,15.908273 l -1.40821,240.188552 c -7.38397,0.045 -16.58314,0.0992 -25.87511,0.15625 -21.02194,0.123 -42.64404,0.25 -44.21504,0.25 -0.235,-0.025 -0.33777,-0.0292 -0.38477,-0.0332 L 319.3847,232.29985 c -3.15598,-3.815 -7.7521,-5.80881 -12.33208,-5.80081 -3.583,-0.005 -7.22933,1.21675 -10.19731,3.67775 -1.344,1.109 -2.45977,2.3968 -3.34377,3.8008 l -0.043,-0.0508 v 0.11914 c -1.59698,2.56798 -2.41807,5.51898 -2.41407,8.46097 -0.005,3.58199 1.2158,7.22633 3.6758,10.19731 l 9.73637,11.76177 70.9925,85.766 0.50586,-0.50586 c 0.737,0.569 1.5654,1.15529 2.48438,1.73829 4.027,2.559 10.05197,5.02618 17.54696,5.03518 h 0.0625 c 1.87399,0 23.34036,-0.126 44.4123,-0.25 10.52897,-0.062 20.94657,-0.12588 28.73255,-0.17188 3.89198,-0.024 7.12668,-0.0446 9.39066,-0.0586 1.131,-0.007 2.02197,-0.0116 2.62697,-0.0156 0.303,0 0.53536,-0.002 0.69336,-0.002 0.078,-0.002 0.13678,-0.002 0.17578,-0.002 h 0.0449 c 8.78797,-0.077 15.85399,-7.1503 15.91999,-15.90828 l 0.73828,-126.05914 c 3.305,5.73198 19.93466,34.55382 37.0236,63.68973 9.55397,16.28995 19.25154,32.67373 26.90051,45.27168 3.82699,6.30499 7.13348,11.64891 9.73246,15.6739 1.303,2.02 2.4261,3.70732 3.4551,5.15432 0.516,0.72 1.03726,1.42656 1.65626,2.18556 0.30899,0.37398 0.70947,0.84972 1.23047,1.38672 l 0.0488,0.0527 0.0508,0.0469 c 0.248,0.255 1.29259,1.32331 2.72657,2.27931 l 0.0566,0.041 0.0606,0.0371 c 1.908,1.231 3.67647,2.62644 6.85745,4.10744 1.91,0.855 3.87742,1.43529 5.90042,1.73829 1.808,0.275 3.36708,0.29969 4.53908,0.30469 h 67.02373 c 4.247,-0.008 8.29857,-1.68449 11.31255,-4.68947 2.996,-3.009 4.67657,-7.05666 4.68557,-11.30865 v -11.13091 c 2.736,2.018 6.05306,3.12092 9.50004,3.12892 h 70.50031 v 8.00199 c 0.009,4.25099 1.68953,8.30057 4.68752,11.31255 3.012,3 7.06457,4.67657 11.31255,4.68557 h 64.73857 c 4.24598,-0.008 8.30047,-1.68243 11.31645,-4.69143 0.618,-0.621 1.17965,-1.28629 1.68165,-1.98829 0.504,0.703 1.06751,1.3692 1.68751,1.9922 3.01098,2.99799 7.06251,4.68047 11.3145,4.68947 h 64.00028 c 4.24899,-0.009 8.2996,-1.69048 11.3106,-4.68947 2.99598,-3.01199 4.67852,-7.05861 4.68752,-11.3106 v -77.4144 c 0.432,0.679 0.91704,1.33123 1.45704,1.94923 0.005,0.004 17.4506,19.94819 35.31656,40.25213 8.93397,10.15297 17.97104,20.39407 25.00204,28.29504 3.516,3.956 6.5297,7.32008 8.8067,9.83208 1.145,1.264 2.1068,2.30673 2.8848,3.13673 0.403,0.431 0.7528,0.80144 1.0898,1.14844 l 0.037,0.0391 0.039,0.0391 c 0.216,0.213 0.6912,0.71516 1.4512,1.36914 4.506,3.874 9.6546,6.23959 14.5586,7.31058 4.667,1.039 8.7162,1.02202 11.8302,1.04102 h 111.5297 c 4.252,-0.01 8.2997,-1.68972 11.3087,-4.6797 2.051,-2.063 3.4864,-4.60624 4.1914,-7.36722 0.706,2.75898 2.1375,5.30136 4.1875,7.36136 3.011,2.99998 7.0636,4.67556 11.3126,4.68556 h 122.5005 c 4.252,-0.01 8.3006,-1.68858 11.3126,-4.68556 1.779,-1.788 3.0931,-3.94119 3.8691,-6.28519 0.797,1.957 1.9811,3.75519 3.5039,5.28518 3.013,3.002 7.0646,4.67657 11.3126,4.68557 h 157.5007 c 4.252,-0.009 8.3005,-1.69053 11.3125,-4.68752 0.519,-0.521 0.9976,-1.07335 1.4356,-1.65235 0.438,0.578 0.9165,1.13135 1.4355,1.65235 3.015,3.00399 7.0685,4.67852 11.3165,4.68752 h 64.5003 c 4.252,-0.009 8.3005,-1.69053 11.3125,-4.68752 3,-3.01199 4.6756,-7.06556 4.6856,-11.31255 v -11.87701 c 0.063,0.064 0.1245,0.12841 0.1875,0.19141 3.013,2.996 7.0615,4.67357 11.3145,4.68557 h 68.4984 v 7.00003 c 0.011,4.25099 1.6875,8.30056 4.6875,11.31255 3.011,3.00199 7.0645,4.67852 11.3125,4.68752 h 85.0023 c 0.788,-0.002 1.3326,0.04 1.6856,0.084 0.134,0.017 0.2413,0.0338 0.3223,0.0488 0.09,0.083 0.201,0.18746 0.334,0.31446 0.664,0.66 2.5245,3.0569 4.9355,6.25588 1.92,2.507 7.047,8.91319 14.0098,17.58016 20.726,25.78092 56.5856,70.04746 56.7796,70.28546 l -0,0.002 c 3.1474,3.88947 7.7913,5.92709 12.4239,5.92385 3.4568,-0.0414 6.9634,-1.18988 9.8536,-3.53126 3.887,-3.158 5.9397,-7.80147 5.9297,-12.44147 0,-3.52344 -1.1772,-7.11385 -3.5664,-10.06059 v 0.006 c -0.089,-0.111 -4.0506,-4.99955 -10.1055,-12.48052 -9.149,-11.30497 -23.0251,-28.46036 -35.2189,-43.57832 -6.093,-7.55697 -11.7671,-14.6104 -16.2111,-20.15438 -4.4148,-5.50699 -7.7274,-9.66965 -8.6914,-10.93364 -2.977,-3.776 -5.8332,-8.28473 -11.25,-12.59771 -2.908,-2.26 -6.3462,-4.09001 -10.1642,-5.20901 -3.7228,-1.098 -7.5059,-1.48138 -11.2969,-1.48438 h -69.0022 v -6.99808 c -0.012,-4.25199 -1.6896,-8.30246 -4.6876,-11.31646 -3.0128,-2.99898 -7.0655,-4.67556 -11.3145,-4.68556 h -68.5022 v -25.00011 h 69.5042 c 4.252,-0.009 8.2997,-1.68862 11.3086,-4.68362 3.002,-3.01599 4.6815,-7.06647 4.6915,-11.31645 v -22.99815 c -0.012,-4.24899 -1.6867,-8.2976 -4.6817,-11.3106 -3.018,-3.00498 -7.0684,-4.68047 -11.3184,-4.68947 h -71.5023 v -22.0001 h 69.5023 c 4.252,-0.011 8.2985,-1.68863 11.3125,-4.68361 3.004,-3.016 4.6756,-7.06847 4.6876,-11.31646 v -23.0001 c -0.01,-4.24798 -1.6816,-8.30051 -4.6856,-11.3145 -3.014,-3 -7.0656,-4.67357 -11.3126,-4.68557 h -111.0004 c -4.25,0.01 -8.3016,1.68557 -11.3126,4.68557 -3,3.01399 -4.6775,7.06252 -4.6875,11.3145 v 164.00072 h -32.5002 V 140.03186 c -0.01,-4.24998 -1.6845,-8.30051 -4.6875,-11.3145 -3.009,-2.99799 -7.0586,-4.67852 -11.3106,-4.68752 h -25.5001 c -4.254,0.009 -8.3044,1.68953 -11.3164,4.68752 -2.998,3.01199 -4.6756,7.06252 -4.6856,11.3145 V 324.03267 H 1362.0611 V 220.53222 h 76.5043 c 4.251,-0.01 8.3005,-1.68758 11.3145,-4.68557 3.002,-3.011 4.6756,-7.06757 4.6856,-11.31255 V 84.035524 c -0.01,-4.249986 -1.6806,-8.300464 -4.6856,-11.316455 -3.011,-2.999991 -7.0656,-4.674568 -11.3126,-4.685568 l -122.4985,0.002 c -4.25,0.01 -8.3005,1.683624 -11.3165,4.683615 -3,3.015991 -4.6756,7.066469 -4.6856,11.316455 V 325.03463 h -90.5023 v -4.00002 h 42.0021 c 4.252,-0.009 8.3006,-1.68667 11.3126,-4.68166 2.999,-3.013 4.6784,-7.06447 4.6894,-11.31646 V 158.53585 c -0.01,-4.25398 -1.6904,-8.30446 -4.6894,-11.31646 -3.01,-2.99998 -7.0606,-4.67656 -11.3126,-4.68556 h -144.9987 c -4.252,0.009 -8.3024,1.68552 -11.3164,4.68752 -2.997,3.00899 -4.6756,7.06052 -4.6856,11.3145 v 146.52017 c 0.01,4.251 1.6895,8.30157 4.6875,11.31255 3.011,2.998 7.0605,4.67657 11.3145,4.68557 h 39.9983 v 4.00002 c -11.161,-0.001 -26.7505,-0.002 -42.1155,-0.002 -25.2568,0 -49.8969,0.002 -53.2639,0.004 -0.262,-0.004 -0.437,0.002 -0.5,0.002 -2.278,0.011 -3.8645,-0.13451 -4.3125,-0.22851 -0.243,-0.062 -0.3949,-0.10496 -0.4609,-0.12696 -0.053,-0.017 -0.053,-0.0196 -0.053,-0.0176 l -0.01,-0.01 c -0.026,-0.016 -0.074,-0.0457 -0.1426,-0.0957 -0.203,-0.214 -0.4735,-0.50418 -0.7715,-0.82618 -5.513,-5.94998 -23.4317,-26.23391 -39.6877,-44.72285 -2.689,-3.05799 -5.33672,-6.07362 -7.88672,-8.9766 h 44.20132 c 4.25,-0.009 8.2986,-1.68754 11.3126,-4.68752 2.996,-3.009 4.6765,-7.05957 4.6875,-11.31255 v -94.49651 c -0.011,-4.24999 -1.6875,-8.30046 -4.6875,-11.31646 -3.013,-2.99998 -7.0626,-4.67652 -11.3126,-4.68752 l -109.00043,0.002 c -4.25198,0.01 -8.30051,1.68558 -11.3145,4.68556 -3,3.014 -4.67848,7.06447 -4.68948,11.31646 v 164.489 H 884.55905 V 124.04742 h 80.00231 c 4.25198,-0.012 8.30051,-1.68754 11.3145,-4.68752 3.00199,-3.014 4.67557,-7.06652 4.68557,-11.3145 V 82.545284 c -0.01,-4.249988 -1.68658,-8.300512 -4.68557,-11.314503 -3.01099,-2.997991 -7.06152,-4.678521 -11.3145,-4.687521 z M 1881.2841,456.49614 c -0.013,1.5e-4 -0.024,0.008 -0.037,0.008 l 0.053,-0.004 c -0.01,1e-5 -0.01,-0.004 -0.016,-0.004 z m -0.037,0.008 -0.4551,0.0254 h 0.3008 c 0.052,2e-5 0.1025,-0.0249 0.1543,-0.0254 z M 748.3651,77.461277 h 216.51071 c 1.277,-0.01 2.63722,0.551853 3.53322,1.46485 0.913,0.898997 1.47685,2.253128 1.46485,3.537125 v 25.504018 c 0.012,1.28 -0.55294,2.64117 -1.46094,3.53517 -0.899,0.913 -2.26013,1.47585 -3.53713,1.46485 H 873.87346 V 334.99756 H 927.8737 V 159.49875 c -0.009,-1.279 0.5538,-2.64113 1.4668,-3.53713 0.897,-0.913 2.25713,-1.47385 3.53713,-1.46485 h 108.91847 c 1.277,-0.01 2.6391,0.5519 3.5351,1.4629 0.911,0.897 1.4729,2.25708 1.4629,3.53908 v 94.4965 c 0.01,1.278 -0.5518,2.63618 -1.4648,3.53518 -0.896,0.90998 -2.2562,1.47485 -3.5332,1.46485 h -68.47884 l 8.00198,9.12504 c 4.75199,5.41897 10.23943,11.67137 15.90242,18.11336 16.30194,18.54094 34.12234,38.722 39.86934,44.92597 0.53,0.575 0.9796,1.04489 1.2226,1.29688 l 0.2539,0.26172 0.2793,0.22071 c 1.439,1.263 3.6985,2.23234 5.0235,2.48634 l 0.039,0.01 0.051,0.0137 c 2.06,0.46498 4.1002,0.53287 6.9552,0.54687 h 0.2539 l 0.064,0.002 h 0.064 c 2.823,-0.002 27.7911,-0.002 53.3811,-0.002 18.0938,0 36.5014,-4e-5 47.6174,0.002 h 5.5 V 309.9955 h -51.0002 c -1.277,0.009 -2.6402,-0.5549 -3.5352,-1.4629 -0.913,-0.899 -1.4759,-2.26013 -1.4649,-3.53712 V 158.49679 c -0.011,-1.283 0.5499,-2.63613 1.4629,-3.53713 0.898,-0.91299 2.2582,-1.4758 3.5372,-1.4668 h 144.9986 c 1.277,-0.009 2.6373,0.5519 3.5313,1.4629 0.916,0.904 1.4788,2.25708 1.4688,3.53908 v 146.50064 c 0.01,1.27699 -0.5519,2.63812 -1.4649,3.53712 -0.896,0.91 -2.2582,1.4719 -3.5352,1.4629 h -53.0041 v 25.99816 h 112.5005 V 83.994509 c -0.01,-1.279997 0.5549,-2.640081 1.4629,-3.539078 0.897,-0.907998 2.2571,-1.469944 3.5391,-1.460944 h 122.5005 c 1.279,-0.009 2.6362,0.552946 3.5332,1.460944 0.91,0.898997 1.4729,2.257081 1.4629,3.539078 V 204.49308 c 0.01,1.279 -0.5549,2.63732 -1.4609,3.52932 -0.901,0.91498 -2.2633,1.48075 -3.5371,1.46875 h -87.5043 v 125.51032 h 147.5006 V 140.00061 c -0.01,-1.27999 0.5549,-2.63922 1.4629,-3.53322 0.901,-0.91498 2.2591,-1.4778 3.5391,-1.4668 h 25.4981 c 1.274,-0.012 2.6382,0.5519 3.5352,1.4629 0.912,0.899 1.4729,2.25513 1.4629,3.53712 v 195.00086 h 54.5022 V 160.0007 c -0.01,-1.278 0.5539,-2.63813 1.4649,-3.53712 0.898,-0.911 2.2531,-1.46995 3.5371,-1.46095 h 110.9985 c 1.279,-0.012 2.6402,0.55295 3.5352,1.46095 0.91,0.89699 1.4729,2.25712 1.4629,3.53712 v 23.00205 c 0.01,1.282 -0.553,2.63823 -1.461,3.53322 -0.896,0.91 -2.2621,1.4739 -3.5371,1.4629 h -80.5023 v 44.00215 h 82.5023 c 1.279,-0.01 2.6401,0.5529 3.5391,1.46289 0.905,0.894 1.4709,2.25618 1.4609,3.53518 v 23.0001 c 0.01,1.27998 -0.5548,2.63812 -1.4648,3.53712 -0.899,0.91 -2.2582,1.4719 -3.5352,1.4629 h -80.5023 v 47.0002 h 79.5004 c 1.279,-0.01 2.6381,0.55186 3.5371,1.46485 0.91,0.896 1.4729,2.25313 1.4629,3.53713 v 17.99812 h 5.502 c 21.9598,-0.002 71.0153,-0.002 74.5003,-0.002 3.056,0.002 5.7373,0.31399 8.2031,1.04297 2.387,0.689 4.6952,1.91891 6.4552,3.29689 3.8699,3.067 5.9856,6.34189 9.3496,10.67388 1.113,1.459 4.3625,5.54081 8.8145,11.0938 4.454,5.55698 10.1305,12.61485 16.2325,20.17782 12.198,15.12796 26.0777,32.28697 35.2287,43.59394 3.05,3.77099 5.57,6.88659 7.334,9.06059 0.881,1.088 1.572,1.93949 2.043,2.52149 0.236,0.289 0.415,0.51112 0.539,0.66212 0.058,0.074 0.1038,0.13197 0.1348,0.16797 0.808,1.00498 1.1521,2.08215 1.1621,3.20313 -0.01,1.472 -0.6234,2.89251 -1.8574,3.89651 -0.933,0.75498 -2.0158,1.10438 -3.1348,1.10938 -1.48,-0.007 -2.8956,-0.62453 -3.8926,-1.85353 0,0 -35.9982,-44.43729 -56.7542,-70.25421 -6.9319,-8.62797 -12.113,-15.1095 -13.834,-17.3575 -2.539,-3.32099 -4.2286,-5.65854 -5.9785,-7.43753 l -0.066,-0.0645 c -0.679,-0.64399 -1.212,-1.17049 -2.123,-1.77149 -0.945,-0.615 -1.8346,-0.90102 -2.2266,-1.04102 l -0.1152,-0.0391 -0.127,-0.0391 c -1.34,-0.4 -3.0097,-0.63863 -5.3887,-0.64063 h -44.1877 l 0.078,-0.0176 h -40.799 c -1.282,0.009 -2.6394,-0.55295 -3.5294,-1.46094 -0.915,-0.901 -1.4807,-2.26208 -1.4687,-3.53908 v -18.00203 h -79.5004 c -1.28,0.01 -2.6381,-0.55286 -3.5371,-1.46485 -0.91,-0.894 -1.4749,-2.25627 -1.4629,-3.53127 v -57.0022 c -0.012,-1.277 0.5538,-2.63913 1.4668,-3.53713 0.896,-0.911 2.2512,-1.47189 3.5332,-1.46289 h 80.4984 v -13.00006 h -82.4984 c -1.28,0.009 -2.6401,-0.55385 -3.5371,-1.46485 -0.908,-0.894 -1.4729,-2.25818 -1.4629,-3.53517 v -53.99829 c -0.01,-1.27799 0.5558,-2.64009 1.4668,-3.53907 0.894,-0.908 2.2512,-1.46995 3.5332,-1.46095 l 80.4965,-0.002 v -13.00006 h -101.0005 v 175.00077 c 0.01,1.282 -0.5509,2.63422 -1.4629,3.53322 -0.899,0.913 -2.2562,1.47385 -3.5312,1.46485 h -64.5023 c -1.282,0.009 -2.6392,-0.5519 -3.5332,-1.4629 -0.911,-0.896 -1.4768,-2.25817 -1.4668,-3.53517 V 144.9811 h -15.502 v 195.00086 c 0.01,1.282 -0.5509,2.63422 -1.4629,3.53322 -0.899,0.913 -2.2563,1.47385 -3.5313,1.46485 h -157.5007 c -1.285,0.009 -2.6372,-0.5519 -3.5332,-1.4629 -0.913,-0.898 -1.4788,-2.25817 -1.4668,-3.53517 v -135.5006 c -0.01,-1.27798 0.5538,-2.64008 1.4668,-3.53907 0.898,-0.91 2.2532,-1.4719 3.5332,-1.4629 h 87.4985 V 88.978905 H 1321.3813 V 340.97806 c 0.01,1.27399 -0.5538,2.63812 -1.4668,3.53712 -0.894,0.908 -2.2563,1.4729 -3.5313,1.4629 h -122.5005 c -1.281,0.01 -2.6362,-0.5529 -3.5352,-1.4629 -0.91,-0.899 -1.4749,-2.26013 -1.4629,-3.53712 V 304.9779 c -0.01,-1.279 0.5549,-2.63722 1.4649,-3.53322 0.899,-0.913 2.2561,-1.4758 3.5371,-1.4668 h 53.0002 v -136.5006 h -135.0006 v 136.48107 h 51.0022 c 1.279,-0.009 2.6392,0.55189 3.5352,1.46289 0.91,0.896 1.4729,2.25513 1.4629,3.53713 v 36.00016 c 0.01,1.27398 -0.5529,2.63812 -1.4649,3.53712 -0.899,0.91 -2.2562,1.4729 -3.5332,1.4629 h -111.5005 c -3.124,-0.011 -6.131,-0.0372 -9.5,-0.78516 -3.151,-0.677 -6.7651,-2.32394 -9.7091,-4.87893 -0.498,-0.438 -0.4515,-0.4086 -0.8535,-0.8086 -0.282,-0.292 -0.5882,-0.61405 -0.9492,-0.99805 -0.716,-0.766 -1.6419,-1.77297 -2.7559,-3.00197 -2.238,-2.46998 -5.2363,-5.81596 -8.7383,-9.75394 -7.009,-7.87599 -16.035,-18.10516 -24.96104,-28.25013 -8.92597,-10.14397 -17.75187,-20.20375 -24.34386,-27.72473 -3.29598,-3.75999 -6.03425,-6.88632 -7.94925,-9.0723 -0.956,-1.095 -1.70871,-1.95408 -2.22071,-2.53908 -0.257,-0.291 -0.45099,-0.51697 -0.58399,-0.66797 -0.064,-0.075 -0.11444,-0.12897 -0.14844,-0.16797 -0.015,-0.021 -0.0301,-0.0359 -0.0371,-0.0449 l -0.006,-0.01 -0.002,0.002 c -0.831,-0.971 -1.24114,-2.12671 -1.24414,-3.30471 0,-0.70698 0.14736,-1.40174 0.44336,-2.05274 0.80999,-1.791 2.60061,-2.94532 4.55861,-2.94532 l 74.49838,0.004 v -84.50037 h -99.00044 v 175.50077 c 0.01,1.277 -0.55185,2.63222 -1.46485,3.53322 -0.897,0.91 -2.25427,1.4758 -3.53127,1.4668 h -64.00223 c -1.28,0.009 -2.63417,-0.5538 -3.53517,-1.4668 -0.913,-0.901 -1.47385,-2.25622 -1.46485,-3.53322 V 107.9575 c -0.012,-1.27998 0.55385,-2.63617 1.46485,-3.53517 0.899,-0.91 2.25517,-1.47189 3.53517,-1.46289 h 90.99845 V 87.459368 H 753.37489 v 15.500072 h 89.50234 c 1.278,-0.01 2.63627,0.55489 3.53127,1.46289 0.91199,0.899 1.47385,2.25819 1.46485,3.53517 v 232.00102 c 0.01,1.277 -0.55186,2.63222 -1.46485,3.53322 -0.897,0.913 -2.25127,1.4758 -3.53127,1.4668 h -64.50419 c -1.282,0.009 -2.63427,-0.55385 -3.53126,-1.46485 -0.912,-0.898 -1.47585,-2.25817 -1.46485,-3.53517 v -19.00399 h -81.50036 c -1.282,0.009 -2.63927,-0.55299 -3.53127,-1.45899 -0.91499,-0.898 -1.47775,-2.26014 -1.46875,-3.53712 v -56.9983 c -0.01,-1.285 0.55185,-2.64108 1.46485,-3.53908 0.894,-0.911 2.25317,-1.47094 3.53517,-1.46094 l 81.4984,-0.004 v -13.49811 h -81.9984 c -1.278,0.01 -2.64008,-0.5558 -3.53908,-1.4668 -0.908,-0.893 -1.46994,-2.25322 -1.46094,-3.53322 v -53.49828 c -0.009,-1.283 0.55289,-2.64013 1.46289,-3.53712 0.9,-0.91 2.25713,-1.47385 3.53713,-1.46485 h 82.49841 V 162.95579 H 671.36476 V 339.9761 c 0.009,1.277 -0.55376,2.63222 -1.46876,3.53322 -0.89898,0.913 -2.24926,1.4758 -3.53126,1.4668 h -67.00225 c -1.036,-0.005 -1.88842,-0.0265 -2.94142,-0.1875 -0.881,-0.117 -2.1579,-0.49457 -2.92188,-0.85157 -2.088,-0.97499 -2.96864,-1.70173 -5.34964,-3.26173 v -0.002 c -0.821,-0.59 -0.66664,-0.4961 -1.18164,-0.9961 -0.233,-0.244 -0.37924,-0.42018 -0.61524,-0.70118 -0.374,-0.45599 -0.73146,-0.93518 -1.18946,-1.57617 -0.867,-1.213 -1.91103,-2.78359 -3.16603,-4.72659 -2.49999,-3.87298 -5.77231,-9.15806 -9.57231,-15.41803 -7.59597,-12.50797 -17.2756,-28.86321 -26.81457,-45.12715 -9.53597,-16.25996 -18.92859,-32.42373 -25.93956,-44.52168 -3.505,-6.04999 -6.41526,-11.0806 -8.44926,-14.60358 -1.016,-1.759 -1.81639,-3.14291 -2.35938,-4.08791 -0.271,-0.471 -0.4791,-0.83318 -0.6211,-1.07618 -0.071,-0.122 -0.12316,-0.2153 -0.16016,-0.2793 -0.018,-0.031 -0.031,-0.0552 -0.043,-0.0742 -0.004,-0.009 -0.0106,-0.0164 -0.0176,-0.0254 -0.002,-0.007 -0.003,-0.0124 -0.01,-0.0234 -0.005,-0.007 -0.009,-0.0151 -0.0234,-0.0371 -0.419,-0.76 -0.62695,-1.58884 -0.62695,-2.42384 0,-0.868 0.22383,-1.72506 0.67383,-2.49806 0.896,-1.553 2.53614,-2.50001 4.32814,-2.50001 l 86.99843,-0.002 V 88.974999 H 488.82099 L 487.35028,340.0054 c 0,2.70898 -2.26077,4.96967 -4.96877,4.97267 -0.053,0 -82.44973,0.49805 -86.02772,0.49805 h -0.0625 c -5.00798,0.008 -9.08649,-1.68628 -11.64849,-3.32228 -2.57799,-1.63699 -3.87641,-3.14806 -4.27541,-3.62306 l -0.53711,-0.64649 -76.37924,-92.27384 c -0.75,-0.937 -1.09757,-2.01497 -1.10157,-3.12697 0.01,-1.46398 0.60662,-2.85753 1.8086,-3.85353 0.954,-0.786 2.05447,-1.14739 3.18947,-1.15039 1.458,0.007 2.85349,0.60552 3.85549,1.8125 l 76.96322,92.97893 0.25001,0.23437 c 0.33299,0.309 0.80969,0.71846 1.55469,1.18946 l 0.0508,0.0293 0.0371,0.0234 c 1.101,0.72399 3.54799,1.77447 6.25198,1.73047 1.736,0 23.27352,-0.126 44.32246,-0.25 11.74697,-0.071 23.34462,-0.1385 31.31459,-0.1875 l 5.43557,-0.0312 1.46876,-251.059693 c 0.007,-2.733993 2.26603,-4.979725 5.00002,-4.970725 h 120.50053 c 1.282,-0.009 2.63822,0.552945 3.53322,1.460944 0.915,0.898997 1.4758,2.262081 1.4668,3.539078 V 204.95988 c 0.01,1.278 -0.55185,2.63618 -1.46485,3.53517 -0.894,0.908 -2.25622,1.47685 -3.53322,1.46485 h -83.34802 l 4.77736,8.2559 c 3.112,5.37298 6.85849,11.83883 10.98247,18.92782 11.49497,19.76894 25.90812,44.41457 37.54509,63.86551 7.74998,12.95597 14.29745,23.64405 17.81844,28.87903 0.491,0.739 0.94511,1.38548 1.28711,1.85548 l 0.58399,0.80665 0.82813,0.55469 c 0.637,0.42498 1.13777,0.75123 1.50977,0.99023 l 1.2129,0.77149 1.4375,0.084 c 0.227,0.011 0.34924,0.008 0.36524,0.008 1.899,-0.002 21.54648,-0.002 39.07244,-0.002 h 17.42195 l 5.50393,0.004 V 157.96163 c -0.009,-1.277 0.5519,-2.63822 1.4629,-3.53322 0.90398,-0.915 2.25908,-1.4758 3.53907,-1.4668 h 112.51026 c 1.277,-0.009 2.63422,0.55185 3.53322,1.46485 0.91,0.896 1.47385,2.25817 1.46485,3.53517 v 24.0001 c 0.01,1.277 -0.5549,2.63823 -1.4629,3.53322 -0.90099,0.915 -2.25817,1.47581 -3.53517,1.46681 h -82.50231 v 43.49628 h 81.9984 c 1.278,-0.009 2.63813,0.55682 3.53713,1.4668 0.912,0.899 1.47385,2.25813 1.46485,3.53713 v 23.5001 c 0.01,1.274 -0.54985,2.63118 -1.46485,3.53517 -0.9,0.91 -2.25513,1.4719 -3.53713,1.4629 l -81.4984,-0.002 v 47.00216 h 81.4984 c 1.278,-0.009 2.63813,0.55385 3.53713,1.46485 0.915,0.901 1.47385,2.25512 1.46485,3.53712 v 18.99618 h 54.49828 V 112.95948 H 748.3651 c -1.282,0.012 -2.64013,-0.5519 -3.53713,-1.4629 -0.90999,-0.896 -1.47585,-2.25717 -1.46485,-3.53517 V 82.463252 c -0.009,-1.282997 0.55186,-2.636128 1.46485,-3.537125 0.899,-0.911997 2.25913,-1.47385 3.53713,-1.46485 z m 107.28562,21.043061 h 0.25782 c -0.043,0.059 -0.0869,0.117735 -0.12891,0.177735 -0.04,-0.06 -0.0789,-0.119735 -0.12891,-0.177735 z m -355.96835,1.498052 h 88.59414 v 89.00039 l -76.00034,0.002 c -5.27898,0 -10.18632,2.59857 -13.1563,6.89457 l -0.008,0.002 z m 832.61693,0.004 h 90.5004 v 88.49843 l -76.4984,0.002 c -4.252,0.008 -8.3025,1.68758 -11.3145,4.68556 -1.069,1.074 -1.9695,2.27915 -2.6875,3.57814 z m -209.499,74.50228 h 113.0005 v 114.48878 l -41.9982,0.002 c -4.249,0.009 -8.3006,1.68754 -11.3126,4.68752 -2.0499,2.057 -3.4825,4.59842 -4.1875,7.35941 -0.705,-2.75899 -2.1345,-5.30136 -4.1855,-7.36136 -3.013,-2.99799 -7.0655,-4.67657 -11.3145,-4.68557 h -40.0022 z m -174.02026,1.00195 h 76.99836 v 62.49637 h -63.4983 c -5.52199,0.004 -10.59207,2.83716 -13.50006,7.41214 h -0.0195 l 0.0195,-0.004 z m 9.74809,81.79333 0.0137,0.0137 c 0.002,0.003 0.008,0.009 0.0176,0.0234 h -0.006 c -0.009,-0.009 -0.0165,-0.0211 -0.0254,-0.0371 z"
     style="display:inline;fill:#ffffff"
     id="path3" /><path
     d="m 1514.7942,19.998134 c -1.272,0.004 -2.4994,0.460119 -3.4804,1.412116 l -35.5022,34.500151 c -0.952,0.920997 -1.5066,2.222801 -1.5156,3.550797 l -0,0.142579 c 0.026,1.274995 0.5568,2.523752 1.4668,3.427749 l 35.4962,35.500156 c 0.9938,0.949026 2.1874,1.460419 3.5762,1.466803 1.3445,-0.01643 2.5796,-0.536428 3.5215,-1.490241 l 34.5002,-34.9982 c 0.9658,-0.985997 1.4325,-2.225739 1.4375,-3.511734 0,-1.290997 -0.4717,-2.527784 -1.4375,-3.509781 l -34.4982,-35.000154 c -0.992,-1.002997 -2.2516,-1.483241 -3.5626,-1.490241 z m -0.1386,12.052788 27.5548,27.951294 -27.5021,27.904419 -24.5001,-24.40831 h 0.092 l -3.9453,-3.94533 z"
     style="display:inline;fill:#fee600"
     id="path2" /><path
     d="m 1514.7962,9.007852 c -4.001,-0.007 -8.0525,1.513463 -11.1465,4.523457 l -35.5022,34.500151 c -3.0308,2.948994 -4.7667,6.966606 -4.8437,11.185596 -0.01,0.084 -0.012,0.152126 -0.012,0.203126 v 0.105469 c 0.01,4.235992 1.6904,8.296931 4.6894,11.296925 l 35.5002,35.490394 v 0.002 c 3,3.002 7.0774,4.68757 11.3184,4.68557 l 0.09,0.006 c 4.2568,-0.027 8.3271,-1.74109 11.3048,-4.77151 l 34.4982,-34.996247 c 3.059,-3.102994 4.6116,-7.192479 4.6016,-11.232471 0.01,-4.039992 -1.5406,-8.131477 -4.6016,-11.232471 l -34.5002,-35.002106 c -3.119,-3.164994 -7.2815,-4.769693 -11.3965,-4.763693 z m 0.094,101.998498 c -0.018,1.1e-4 -0.035,0.002 -0.053,0.002 h 0.1 z m -0.096,-91.008216 c 1.311,0.007 2.5706,0.487243 3.5626,1.490241 l 34.4982,35.000154 c 0.9658,0.981998 1.4375,2.218783 1.4375,3.509781 -0.01,1.285996 -0.4717,2.525736 -1.4375,3.511734 l -34.5002,34.9982 c -0.9419,0.953814 -2.177,1.473808 -3.5215,1.490241 -1.3888,-0.0064 -2.5824,-0.517776 -3.5762,-1.466803 l -35.4962,-35.500156 c -0.91,-0.903998 -1.4408,-2.152753 -1.4668,-3.427749 l 0,-0.142579 c 0.01,-1.327998 0.5636,-2.629799 1.5156,-3.550797 l 35.5022,-34.500151 c 0.981,-0.951998 2.2084,-1.408116 3.4804,-1.412116 z m -0.1386,12.052788 -28.3009,27.502073 3.9453,3.94533 h -0.092 l 24.5001,24.40831 27.5021,-27.904419 z m -0.1153,15.498114 12.2755,12.45318 -12.0802,12.25396 -12.6621,-12.589899 z"
     style="display:inline;fill:#ffffff"
     id="path1" /><path
     d="m 30.113905,287.52079 c 6.968695,18.65628 15.345225,41.08026 16.787182,44.9416 5.115501,13.69322 17.131205,25.11335 34.750153,33.02359 16.36228,7.34554 37.15463,11.39262 58.54127,11.39262 21.54396,0 42.57457,-4.08885 59.21315,-11.51762 17.88241,-7.98307 30.09114,-19.44438 35.30484,-33.14468 l 16.08211,-42.23651 0.57617,-1.51173 c -0.003,0.002 -0.006,0.004 -0.01,0.006 -5.58696,2.91084 -11.31273,1.51364 -17.20515,2.20899 -6.69305,0.79107 -6.84334,8.88673 -12.43365,12.39264 -7.66138,4.81046 -15.58311,3.05941 -23.8712,1.65039 -9.39706,-1.58878 -12.07405,3.88373 -19.29891,7.81449 -10.2672,5.58532 -19.47094,2.20211 -29.42396,-1.63086 -9.0163,-3.47054 -15.13727,1.59286 -23.47861,3.78712 -9.0987,2.39567 -20.02124,0.54983 -26.451292,-6.75784 -5.562003,-6.32311 -15.56707,-2.01075 -22.377051,-1.45313 -8.429978,0.68829 -18.641391,-2.48827 -21.931736,-11.08013 -2.901681,-7.57816 -13.148111,-3.73035 -19.642665,-5.47268 -1.846862,-0.49441 -3.554442,-1.36284 -5.130881,-2.41212 z"
     style="fill:#991a37;stroke-width:0.416133"
     id="path23" /><path
     d="m 262.96258,270.13009 c -0.59756,0.11187 -1.15821,0.2658 -1.7754,0.35742 -1.50062,6.83142 -3.07344,14.46345 -9.8184,17.98055 l -0.57617,1.51173 -16.08211,42.23651 c -5.21371,13.70031 -17.42241,25.1616 -35.30484,33.14468 -16.63859,7.42878 -37.66917,11.51762 -59.21315,11.51762 -21.38667,0 -42.178974,-4.04707 -58.54127,-11.39262 -17.618966,-7.91025 -29.634647,-19.33035 -34.750153,-33.02359 -1.441959,-3.86135 -9.81848,-26.2853 -16.787182,-44.9416 -2.522211,-1.67878 -4.616233,-3.94924 -5.710963,-6.86136 -0.721155,-1.91669 -1.634358,-9.52915 -3.572281,-9.57035 -0.543836,-0.0115 -0.979025,-0.10601 -1.474616,-0.1543 8.922941,23.88538 21.489534,57.52028 23.546978,63.03153 11.78776,31.55567 54.474374,47.20723 97.310977,47.20723 43.19029,0 86.52654,-15.89806 98.52777,-47.42794 2.23477,-5.87096 15.2148,-39.96119 24.22081,-63.61551 z"
     style="fill:#010101;stroke-width:0.416133"
     id="path22" /><path
     d="m 159.259,169.65504 c -0.0824,1.03867 -0.12203,1.55527 -0.20312,2.57618 1.24404,0.27928 2.49741,0.53388 3.8047,0.64454 4.80465,0.40448 9.48841,-0.74942 14.2735,0.24805 2.18303,0.45523 3.98042,1.61429 6.12307,2.12696 2.67156,0.63627 5.37979,0.75399 8.11918,0.69531 2.46474,-0.052 4.97686,0.18796 7.34964,0.82423 2.59957,0.68786 4.33073,2.4733 6.83792,3.23438 5.57866,1.68909 12.58087,0.32477 17.38094,4.02541 0.93172,0.71574 1.27689,1.80161 2.31055,2.35548 1.07195,0.58009 2.27109,0.9769 3.45705,1.30274 2.06734,0.56261 4.20472,0.72441 6.29495,1.17384 2.394,0.51516 4.93943,1.29789 6.82034,2.83009 0.99706,0.81062 1.77054,1.88833 1.91993,3.13673 0.1315,1.13187 1.39078,1.5722 2.459,2.04493 3.41392,1.50306 7.20826,1.76382 10.44536,3.69923 1.21462,0.7275 2.29211,1.75837 2.91798,2.96291 0.17115,0.27297 0.3305,0.57315 0.43945,0.96485 0.009,0.0361 0.0135,0.073 0.0215,0.10937 0.0543,0.21229 0.10948,0.42495 0.14453,0.68165 0.0739,0.54209 0.22889,2.08843 0.43164,3.52345 0.91968,0.62909 1.92982,1.1554 2.97267,1.56836 2.7506,1.0893 7.12214,3.1369 8.34379,6.02542 0.082,0.1547 0.17079,0.30833 0.23047,0.47461 0.0112,0.0392 0.0154,0.0796 0.0254,0.11914 0.19377,0.60653 0.24705,1.29321 0.01,2.19142 -0.31482,1.18891 -1.04384,3.77643 -1.50586,5.80667 1.66984,1.22421 3.62925,2.10062 5.04299,3.65626 0.68778,0.74973 1.1689,1.63069 1.48438,2.54689 0.0353,0.071 0.0885,0.12079 0.11914,0.19726 0.0399,0.1 0.0528,0.23312 0.0859,0.3418 0.0137,0.0573 0.0311,0.11239 0.043,0.16993 0.77204,2.91751 -0.62608,8.47014 -2.1504,10.17973 -0.42223,0.47155 -2.34432,2.96546 -2.88283,4.01759 0.34209,0.65009 0.57711,1.32553 0.71094,2.02736 0.11364,0.31294 0.17095,0.60761 0.17383,0.91602 9.4e-4,0.0287 -0.002,0.0572 -0.002,0.0859 -0.001,0.18541 -0.007,0.37102 -0.0176,0.60157 -0.0562,1.16891 -0.90626,4.36738 -2.93946,8.90238 -1.89299,6.13669 -9.11571,4.87279 -13.71686,6.47073 -0.44485,2.44727 -2.6107,12.87619 -4.50783,15.32429 -3.76474,4.85458 -10.05824,4.48172 -15.38679,4.30861 -2.70277,-0.087 -5.48153,0.30929 -7.98832,1.4004 -1.15808,0.5031 -2.27359,1.16894 -3.19532,2.06446 -1.22717,1.18931 -1.43373,2.46002 -1.91603,4.04299 -1.70863,5.59196 -7.47276,8.13214 -12.62115,8.61527 -4.30902,0.40032 -8.08422,-0.89869 -12.26177,-1.6211 -4.06019,-0.70326 -8.3673,-0.45607 -12.27935,0.92383 -1.84679,0.65125 -3.66574,1.58371 -5.11721,2.96486 -1.36283,1.29998 -2.44167,2.74642 -4.01174,3.81837 -3.43141,2.34782 -7.60213,3.34963 -11.66606,3.34963 -4.15591,0 -8.34267,-1.05151 -11.97466,-3.18752 -3.57582,-2.09188 -7.81039,-2.88868 -11.86724,-2.88868 -4.05645,0.005 -8.29975,0.79216 -11.86724,2.90235 -3.63699,2.1306 -7.83823,3.19338 -12.00787,3.19338 l -0.0117,0.0254 c -5.36184,0 -11.02798,-1.77353 -14.71491,-6.04886 -2.88669,-3.34777 -7.256929,-4.75619 -11.433639,-5.19728 -5.992706,-0.63294 -11.396692,1.95899 -17.30867,1.95899 -5.237843,0 -11.333365,-1.78327 -14.123108,-6.8555 -1.061551,-1.94334 -1.053237,-4.23654 -2.689465,-5.82034 -2.145157,-2.10146 -5.244119,-3.04893 -8.093786,-3.40431 -5.618188,-0.69619 -11.139974,1.0859 -16.345774,-2.21485 -2.077744,-1.31539 -3.662684,-3.39071 -4.195331,-5.91995 -0.356625,-1.32123 -2.553115,-8.91531 -2.859388,-10.52739 -0.450669,-2.37487 -7.675849,-0.75492 -10.10356,-2.14064 -2.204246,-1.25795 -3.309467,-4.60765 -4.015642,-6.1719 -0.706592,-1.5634 -2.8754022,-6.43098 -3.0156385,-7.95902 0.013026,-0.0262 0.1008229,-0.0614 0.1328131,-0.0898 -0.027538,-0.18417 -0.10657,-0.35113 -0.1152349,-0.54102 -0.081448,-1.79752 0.6661841,-3.19231 1.6601633,-4.50002 -1.456678,-1.02463 -2.724364,-2.23815 -3.1601699,-3.07618 -0.7086714,-1.36242 -4.0616982,-7.21188 -3.0234507,-10.17974 0.036398,-0.0455 0.1169371,-0.076 0.1601569,-0.11914 0.4211573,-1.56936 1.4658367,-3.00734 2.7754028,-4.09376 1.105491,-0.91553 2.5596409,-1.61482 3.7988449,-2.4883 -0.290756,-0.25374 -0.861618,-0.68894 -0.949223,-0.80859 -1.6674382,-2.27624 -1.2803815,-7.30959 0.445314,-9.36528 0.03706,-0.0442 0.112256,-0.0679 0.154298,-0.10938 0.125775,-0.1601 0.205208,-0.34174 0.347658,-0.49218 1.857607,-1.96498 4.428872,-2.93768 6.947296,-3.93557 1.037483,-0.40881 2.044556,-0.92055 2.957044,-1.54688 0.146167,-1.39537 0.05018,-3.0016 0.164063,-3.91213 0.170968,-1.36884 0.827073,-2.3256 1.761727,-3.02735 2.650564,-2.52945 8.090916,-3.49148 10.95122,-4.49807 1.218846,-0.42778 2.466279,-0.94693 3.488296,-1.71095 0.622116,-0.46522 0.564791,-2.10845 1.107427,-2.86915 1.424415,-1.99576 4.120397,-3.00204 6.490263,-3.64455 2.647423,-0.71491 5.420358,-0.84392 8.058629,-1.59961 1.266701,-0.36287 2.628658,-0.79814 3.697282,-1.54884 0.884277,-0.61005 1.307399,-1.79853 2.333994,-2.44727 5.126316,-3.24333 11.749525,-1.84221 17.347732,-3.75393 1.996595,-0.68161 3.362467,-2.15556 5.421899,-2.81056 2.795983,-0.88592 5.869212,-1.16633 8.806679,-1.02734 2.607893,0.12858 5.317005,-0.13164 7.837925,-0.7754 2.250433,-0.57177 4.129033,-1.7649 6.472683,-2.17188 5.19665,-0.89972 10.35147,0.48791 15.56257,-0.3086 -0.0712,-0.92401 -0.12835,-1.53663 -0.20117,-2.47462 -0.65857,0.10322 -1.31368,0.22189 -1.98634,0.26563 -3.96157,0.25675 -7.91658,-0.42222 -11.88482,-0.11719 -5.06099,0.38867 -9.362948,3.13478 -14.50592,3.13478 -4.733497,0 -9.6567,-0.0854 -13.990296,2.16798 -7.076319,3.67859 -17.554837,1.36129 -23.404399,7.41019 -4.725175,4.88746 -13.63718,2.42717 -19.03524,7.53519 -1.397785,1.32328 -1.613468,3.531 -3.388687,4.14064 -1.994103,0.68911 -4.075021,1.11268 -6.076198,1.78516 -3.924954,1.32039 -8.111223,3.59658 -9.636761,7.71879 -0.979158,2.64284 0.342309,2.99127 -2.330088,4.08986 -1.845129,0.75986 -3.644741,1.65442 -5.2285389,2.88282 -2.901686,2.25086 -3.6762604,5.34699 -4.0957211,9.02934 -0.032042,0.27506 0.039928,4.99134 0.044922,4.98635 -1.396954,1.13396 -2.6273604,2.50026 -3.5195467,4.07033 -2.11186804,3.72355 -1.70150184,7.68862 -0.1347662,11.55864 1.7003139,4.19628 3.137578,5.78329 3.3086083,10.10356 -0.1822659,2.07026 0.8174096,4.22288 1.5722725,6.07425 3.2154492,7.89651 5.045491,13.92548 14.63483,14.12897 1.937925,0.0412 2.851125,7.65366 3.572281,9.57035 1.778963,4.73226 6.040102,7.98804 10.841844,9.27348 6.494567,1.74234 16.740978,-2.10549 19.642665,5.47268 3.290352,8.59187 13.501741,11.76842 21.931736,11.08013 6.809995,-0.55762 16.815037,-4.86999 22.377051,1.45313 6.430072,7.30768 17.352572,9.15352 26.451292,6.75784 8.34136,-2.19426 14.46229,-7.25767 23.47861,-3.78712 9.95304,3.83298 19.15674,7.21619 29.42396,1.63086 7.22488,-3.93077 9.90183,-9.40327 19.29891,-7.81449 8.28811,1.40902 16.20981,3.16008 23.8712,-1.65039 5.59032,-3.50592 5.74058,-11.60157 12.43365,-12.39264 5.89243,-0.69535 11.61818,0.70185 17.20515,-2.20899 6.75383,-3.51465 8.32678,-11.15144 9.82817,-17.98641 5.94529,-0.88262 11.09293,-2.49682 13.26764,-8.84574 1.36034,-3.00281 2.7509,-6.24097 3.19533,-9.53715 0.19807,-1.31331 0.13894,-2.65548 -0.15235,-3.94924 0.97791,-1.26752 1.96132,-2.39739 2.65626,-3.86134 3.35195,-7.06633 2.57438,-15.31358 -4.25392,-19.84774 1.80601,-6.47086 -0.223,-11.04651 -6.11917,-14.46296 -2.97991,-1.72611 -4.61872,-1.44314 -5.51174,-4.69728 -0.84101,-3.01572 -2.22202,-5.37979 -4.87112,-6.93363 -3.41435,-2.002 -7.2823,-2.37588 -10.87309,-3.85939 -1.47519,-3.8409 -5.22956,-6.11511 -8.96684,-7.34769 -3.09227,-1.01953 -6.32075,-1.15477 -9.4434,-1.98829 -3.21004,-0.86098 -5.0236,-3.85555 -8.31644,-5.05276 -3.56791,-1.29665 -7.35483,-1.41381 -11.08794,-1.80664 -4.01984,-0.42279 -6.81295,-2.8634 -10.61724,-3.84963 -4.01816,-1.05615 -7.96448,-0.78295 -12.03716,-1.0293 -4.0939,-0.24552 -7.56011,-2.38677 -11.59575,-2.90236 -3.20255,-0.40906 -6.40886,-0.13808 -9.61723,-0.01 -2.62636,0.10318 -5.1002,-0.35526 -7.58402,-0.85157 z"
     style="fill:#010101;stroke-width:0.416133"
     id="path21" /><path
     d="m 23.111921,201.76456 c -0.934655,0.70176 -1.590758,1.65851 -1.761727,3.02735 -0.113878,0.91053 -0.0179,2.51676 -0.164063,3.91213 0.118522,-0.0813 0.252667,-0.14241 0.367189,-0.22852 1.282517,-0.96417 0.347425,-1.12396 0.08984,-2.4922 -0.338717,-1.79876 0.335646,-3.13743 1.468757,-4.21876 z m 236.458069,1.77149 c 0.16428,0.31617 0.35489,0.62293 0.43945,0.96485 -0.10895,-0.3917 -0.2683,-0.69188 -0.43945,-0.96485 z m 0.46094,1.07422 c 0.11543,0.52875 0.13483,1.08426 0.01,1.66407 -0.21348,0.98374 -1.03187,1.3307 -0.14844,2.06642 0.21751,0.18114 0.4789,0.31321 0.71485,0.47461 -0.20275,-1.43502 -0.35775,-2.98136 -0.43164,-3.52345 -0.0351,-0.2567 -0.0902,-0.46936 -0.14453,-0.68165 z m -249.096797,10.0684 c -0.04204,0.0415 -0.117243,0.0652 -0.154298,0.10938 -1.7256972,2.0557 -2.1127539,7.08904 -0.445314,9.36528 0.0876,0.11965 0.658467,0.55485 0.949223,0.80859 0.742333,-0.52324 1.426624,-1.09339 1.859383,-1.85352 0.394077,-0.69328 -1.946799,-1.72475 -2.445323,-2.32814 -1.5684571,-1.9005 -1.1964889,-4.27771 0.236329,-6.10159 z m 260.989427,1.73048 c 0.0679,0.16064 0.18326,0.30867 0.23047,0.47461 -0.0597,-0.16628 -0.14849,-0.31991 -0.23047,-0.47461 z m 0.25586,0.59375 c 0.26127,1.0386 0.11305,2.17502 -0.67579,3.41408 -0.59756,0.93838 -1.51554,1.65639 -2.54298,2.16407 -0.73029,0.36121 0.12037,1.02832 0.52735,1.43946 0.36453,0.36727 0.77917,0.67538 1.19532,0.98048 0.46202,-2.03024 1.19104,-4.61775 1.50586,-5.80667 0.23729,-0.89821 0.18401,-1.58489 -0.01,-2.19142 z m 5.03127,14.20124 c 0.0625,0.18148 0.16089,0.35423 0.20508,0.53906 -0.0331,-0.10868 -0.046,-0.24184 -0.0859,-0.3418 -0.0306,-0.0765 -0.0839,-0.12625 -0.11914,-0.19726 z M 4.7094963,231.54398 c -0.04322,0.0432 -0.1237592,0.0736 -0.1601569,0.11914 -1.0382485,2.96786 2.3147786,8.81732 3.0234507,10.17974 0.4358063,0.83803 1.7034905,2.05155 3.1601699,3.07618 0.539699,-0.71004 1.130291,-1.40161 1.750008,-2.10157 1.784371,-2.01283 0.602555,-3.40408 -1.816414,-3.99416 -2.56545,-0.62503 -5.1825166,-2.01089 -5.9844015,-4.52931 -0.3035042,-0.94761 -0.2104678,-1.86386 0.027344,-2.75002 z m 272.7492437,0.36915 c 0.23427,1.13658 0.1174,2.31872 -0.51172,3.42774 -1.4419,2.54382 -4.10427,2.81723 -6.62894,3.90041 -2.75354,1.18348 -0.90571,3.11135 0.46875,4.53908 0.66637,0.6919 1.19826,1.49313 1.63868,2.33009 0.53851,-1.05213 2.4606,-3.54604 2.88283,-4.01759 1.52432,-1.7096 2.92244,-7.26222 2.1504,-10.17973 z m -4.32229,16.22468 c 0.0583,0.30589 0.16364,0.60456 0.17383,0.91602 -0.003,-0.30841 -0.0602,-0.60308 -0.17383,-0.91602 z m 0.17188,1.00195 c 0.0112,0.63495 -0.0757,1.27727 -0.29883,1.91798 -1.93667,5.57407 -8.68535,4.65445 -13.39264,6.1055 -2.21172,0.68162 -4.86212,2.30853 -3.78517,4.81447 1.13271,2.63203 0.81582,5.58133 -1.125,7.80472 -3.85005,4.40642 -10.29207,4.06622 -15.74421,3.91018 -2.76562,-0.077 -5.60925,0.27914 -8.17387,1.26953 -1.18347,0.45816 -2.32576,1.0616 -3.26954,1.87306 -1.25506,1.0811 -1.46576,2.23653 -1.96095,3.67384 -1.74775,5.07598 -7.64703,7.38383 -12.91607,7.82035 -4.40851,0.36329 -8.26866,-0.81713 -12.54107,-1.47462 -4.15757,-0.63585 -8.56593,-0.41396 -12.57037,0.83985 -1.88923,0.59174 -3.74964,1.43844 -5.2344,2.69142 -1.39612,1.18056 -2.49964,2.49502 -4.10548,3.46876 -3.51215,2.13102 -7.78165,3.04103 -11.93756,3.04103 -4.25202,0 -8.53665,-0.95607 -12.25396,-2.8965 -3.6582,-1.89547 -7.99059,-2.6211 -12.14068,-2.6211 -4.15214,0.003 -8.49316,0.71866 -12.14263,2.63868 -3.73171,1.95469 -8.03084,2.91769 -12.29888,2.91798 -5.48668,0 -11.28294,-1.61261 -15.05475,-5.49221 -2.955365,-3.03817 -7.428805,-4.3165 -11.701225,-4.71681 -6.133775,-0.57343 -11.663957,1.7793 -17.714922,1.7793 -5.356857,0 -11.591835,-1.62014 -14.447329,-6.22464 -1.086934,-1.76355 -1.078157,-3.84591 -2.753918,-5.28322 -2.193427,-1.90839 -5.365871,-2.7679 -8.281286,-3.08791 -5.748853,-0.63584 -11.397498,0.98343 -16.72273,-2.01563 -2.128094,-1.19346 -3.8089,-3.06646 -4.29494,-5.37307 -0.230121,-1.11524 -0.175226,-2.26079 0.115235,-3.35939 0.291707,-1.08485 0.913516,-2.06841 0.406251,-3.18947 -0.920481,-2.03696 -3.831713,-2.88585 -5.953151,-3.21876 -2.718169,-0.42986 -5.347763,-0.47281 -7.832065,-1.73243 -2.081108,-1.05457 -3.6646213,-2.85662 -3.9941584,-5.06057 -0.03199,0.0284 -0.1197872,0.0637 -0.1328131,0.0898 0.1402364,1.52804 2.3090455,6.39562 3.0156385,7.95902 0.706175,1.56425 1.811394,4.91395 4.015642,6.1719 2.427713,1.38572 9.65289,-0.23424 10.10356,2.14064 0.306274,1.61209 2.502762,9.20616 2.859388,10.52739 0.532648,2.52924 2.117585,4.60456 4.195331,5.91995 5.205805,3.30075 10.727581,1.51866 16.345774,2.21485 2.84967,0.35538 5.948627,1.30285 8.093786,3.40431 1.63623,1.5838 1.627913,3.87699 2.689465,5.82034 2.789746,5.07223 8.88526,6.8555 14.123108,6.8555 5.911984,0 11.315958,-2.59193 17.30867,-1.95899 4.176714,0.4411 8.546949,1.84951 11.433639,5.19728 3.68694,4.27534 9.35306,6.04886 14.71491,6.04886 l 0.0117,-0.0254 c 4.16964,0 8.37087,-1.06278 12.00787,-3.19338 3.56749,-2.11019 7.81078,-2.89735 11.86724,-2.90235 4.05686,0 8.29141,0.7968 11.86724,2.88868 3.63199,2.13601 7.81875,3.18752 11.97466,3.18752 4.06393,0 8.23465,-1.00181 11.66606,-3.34963 1.57007,-1.07195 2.64891,-2.51839 4.01174,-3.81837 1.45147,-1.38115 3.27041,-2.31361 5.11721,-2.96486 3.91205,-1.3799 8.21916,-1.62709 12.27935,-0.92383 4.17755,0.72241 7.95274,2.02142 12.26177,1.6211 5.14839,-0.48313 10.91252,-3.0233 12.62115,-8.61527 0.4823,-1.58297 0.68886,-2.85368 1.91603,-4.04299 0.92174,-0.89552 2.03724,-1.56136 3.19532,-2.06446 2.50679,-1.09111 5.28555,-1.4874 7.98832,-1.4004 5.32856,0.17311 11.62204,0.54598 15.38679,-4.30861 1.89713,-2.44811 4.06298,-12.87702 4.50783,-15.32429 4.60116,-1.59794 11.82387,-0.33403 13.71686,-6.47073 2.0332,-4.535 2.88326,-7.73347 2.93946,-8.90238 0.0109,-0.23055 0.0163,-0.41616 0.0176,-0.60157 z"
     style="fill:#991a37;stroke-width:0.416133"
     id="path20" /><path
     d="m 159.05588,172.23122 c -0.75329,9.48321 -1.35191,17.45227 -1.88868,23.9298 10.25112,2.76608 17.12898,7.85206 17.12898,13.66802 l 0.002,0.01 c 0,8.77371 -15.60876,15.88679 -34.86148,15.88679 -19.25314,0 -34.86148,-7.11308 -34.86148,-15.88679 0,-5.95464 7.19278,-11.14055 17.83015,-13.86139 -0.41771,-6.25213 -1.03209,-14.49695 -1.7168,-23.37901 -5.21111,0.79651 -10.36591,-0.59112 -15.56257,0.3086 -2.34365,0.40698 -4.22224,1.60011 -6.472683,2.17188 -2.520925,0.64376 -5.230027,0.90398 -7.837925,0.7754 -2.937473,-0.13899 -6.01069,0.14142 -8.806679,1.02734 -2.059436,0.655 -3.4253,2.12894 -5.421899,2.81056 -5.598218,1.91172 -12.221406,0.51059 -17.347732,3.75393 -1.026597,0.64874 -1.449715,1.83722 -2.333994,2.44727 -1.068626,0.7507 -2.430579,1.18597 -3.697282,1.54884 -2.638276,0.7557 -5.411201,0.8847 -8.058629,1.59961 -2.369871,0.64251 -5.065845,1.64879 -6.490263,3.64455 -0.542637,0.7607 -0.48531,2.40393 -1.107427,2.86915 -1.022019,0.76402 -2.269448,1.28317 -3.488296,1.71095 -4.083084,1.43691 -13.551022,2.71039 -12.419977,8.71683 0.257581,1.36824 1.192675,1.52802 -0.08984,2.4922 -0.996219,0.74904 -2.151991,1.31349 -3.324233,1.7754 -2.518429,0.99789 -5.089685,1.97059 -6.947296,3.93557 -1.765231,1.86426 -2.2901276,4.52644 -0.583987,6.59377 0.498525,0.60339 2.8394,1.63486 2.445323,2.32814 -1.155182,2.02906 -3.8905005,2.87786 -5.6582279,4.34182 -2.0490322,1.69988 -3.6437487,4.21798 -2.8027466,6.84378 0.8018857,2.51842 3.4189489,3.90428 5.9844015,4.52931 2.418972,0.59008 3.600786,1.98132 1.816414,3.99416 -1.76107,1.98911 -3.535843,3.82807 -3.4101713,6.60159 0.1123556,2.46226 1.8543753,4.45889 4.1093933,5.60159 2.484305,1.25963 5.113894,1.30257 7.832065,1.73243 2.12144,0.33291 5.032669,1.1818 5.953151,3.21876 0.507265,1.12106 -0.114544,2.10462 -0.406251,3.18947 -0.290461,1.0986 -0.345356,2.24415 -0.115235,3.35939 0.486041,2.30661 2.166844,4.17961 4.29494,5.37307 5.325238,2.99906 10.973871,1.37978 16.72273,2.01563 2.915418,0.32001 6.087857,1.17952 8.281286,3.08791 1.675763,1.43731 1.666983,3.51967 2.753918,5.28322 2.855497,4.6045 9.090467,6.22464 14.447329,6.22464 6.050971,0 11.581141,-2.35273 17.714922,-1.7793 4.272424,0.40031 8.745857,1.67864 11.701225,4.71681 3.77181,3.87961 9.56806,5.49221 15.05475,5.49221 4.26804,-2.9e-4 8.56717,-0.96329 12.29888,-2.91798 3.64948,-1.92002 7.99048,-2.63568 12.14263,-2.63868 4.1501,0 8.48248,0.72563 12.14068,2.6211 3.71732,1.94043 8.00193,2.8965 12.25396,2.8965 4.15591,0 8.4254,-0.91001 11.93756,-3.04103 1.60584,-0.97375 2.70935,-2.28819 4.10548,-3.46876 1.48476,-1.25298 3.34516,-2.09968 5.2344,-2.69142 4.00444,-1.25381 8.4128,-1.4757 12.57037,-0.83985 4.27242,0.65749 8.13256,1.83791 12.54107,1.47462 5.26905,-0.43652 11.16831,-2.74437 12.91607,-7.82035 0.49519,-1.43732 0.70589,-2.59273 1.96095,-3.67384 0.94378,-0.81146 2.08606,-1.4149 3.26954,-1.87306 2.56463,-0.9904 5.40825,-1.34653 8.17387,-1.26953 5.45214,0.15605 11.89415,0.49624 15.74421,-3.91018 1.94082,-2.22339 2.25771,-5.17269 1.125,-7.80472 -1.07695,-2.50594 1.57345,-4.13285 3.78517,-4.81447 4.70729,-1.45105 11.45596,-0.53142 13.39264,-6.1055 0.91799,-2.63578 -0.33301,-5.31532 -2.22267,-7.27738 -1.37446,-1.42773 -3.22229,-3.3556 -0.46875,-4.53908 2.52468,-1.08319 5.18704,-1.35659 6.62894,-3.90041 1.28251,-2.26083 0.47961,-4.83016 -1.22071,-6.68362 -1.76607,-1.94333 -4.41107,-2.79577 -6.23831,-4.63674 -0.40698,-0.41114 -1.25764,-1.07825 -0.52735,-1.43946 1.02744,-0.50768 1.94542,-1.22569 2.54298,-2.16407 3.2292,-5.07222 -4.03386,-8.49273 -7.92386,-10.03325 -1.31041,-0.51891 -2.62222,-1.15578 -3.68752,-2.04297 -0.88343,-0.73572 -0.065,-1.08268 0.14844,-2.06642 0.52556,-2.43644 -1.33217,-4.46945 -3.38868,-5.7012 -3.23711,-1.93541 -7.03143,-2.19616 -10.44536,-3.69923 -1.06822,-0.47273 -2.3275,-0.91305 -2.459,-2.04493 -0.14939,-1.2484 -0.92287,-2.32611 -1.91993,-3.13673 -1.88091,-1.5322 -4.42633,-2.31493 -6.82034,-2.83009 -2.09024,-0.44943 -4.2276,-0.61123 -6.29495,-1.17384 -1.18597,-0.32584 -2.3851,-0.72265 -3.45705,-1.30274 -1.03366,-0.55387 -1.37882,-1.63974 -2.31055,-2.35548 -4.80008,-3.70065 -11.80227,-2.33632 -17.38094,-4.02541 -2.50719,-0.76108 -4.23834,-2.54652 -6.83792,-3.23438 -2.37278,-0.63627 -4.8849,-0.87623 -7.34964,-0.82423 -2.73939,0.0587 -5.44761,-0.059 -8.11918,-0.69531 -2.14265,-0.51267 -3.94003,-1.67173 -6.12307,-2.12696 -4.7851,-0.99747 -9.46884,0.15643 -14.2735,-0.24805 -1.30729,-0.11066 -2.56066,-0.36526 -3.8047,-0.64454 z m 61.42995,32.63101 0.002,0.002 c 5.07009,0 9.96456,0.95709 14.16412,2.709 0.41905,0.15104 0.9774,0.38444 1.55665,0.71484 5.57653,2.79014 8.63894,6.93728 8.62894,11.68365 -9.4e-4,0.96914 -0.17373,1.90656 -0.43164,2.82227 l -0.35157,6.52347 c -0.052,0.96792 -0.10918,1.41212 -0.17578,1.89649 -0.0383,0.27756 -0.0693,0.49898 -0.10547,1.16602 -0.23302,4.59657 -3.18826,8.6845 -8.3262,11.51959 -4.26991,2.34862 -9.38205,3.58986 -14.78132,3.58986 -4.14839,0 -8.29166,-0.75081 -11.97857,-2.17189 -2.78762,-1.07562 -5.08032,-2.52073 -6.92581,-4.2051 0.0202,0.27332 0.032,0.54859 0.0312,0.82618 -9.3e-4,0.95507 -0.17133,1.87795 -0.42188,2.78126 l -0.36328,6.57034 c -0.0533,0.95836 -0.11168,1.41912 -0.17578,1.88478 -0.0391,0.27631 -0.0673,0.49512 -0.10352,1.17383 -0.23595,4.59741 -3.19577,8.68863 -8.33206,11.51372 -4.26908,2.35073 -9.37965,3.59377 -14.77937,3.59377 -4.1484,0 -8.28999,-0.7508 -11.97856,-2.17189 -4.67648,-1.80558 -8.14002,-4.55669 -10.01177,-7.95316 -0.16604,-0.30293 -0.2993,-0.52348 -0.40625,-0.70117 -0.91007,-1.52345 -1.07658,-2.31741 -1.17188,-4.25783 l -0.0625,-1.26954 c -0.032,-0.64085 -0.0633,-1.28203 -0.0937,-1.92579 l -0.29688,-6.39651 c -0.38895,-1.31639 -0.53158,-2.68384 -0.37304,-4.08205 0.52931,-4.70393 4.10074,-8.67182 10.05473,-11.17192 4.20248,-1.76481 9.1015,-2.69728 14.16412,-2.69728 v 0.002 c 5.07388,0 9.96842,0.93629 14.16217,2.709 0.42487,0.15231 0.98688,0.38668 1.56446,0.71875 1.51986,0.76084 2.84556,1.6257 3.98049,2.57228 -0.0109,-0.16315 -0.0436,-0.24599 -0.0527,-0.42774 -0.0512,-1.06154 -0.10295,-2.11912 -0.15625,-3.17775 l -0.32226,-6.4844 c -0.37216,-1.29409 -0.50189,-2.63882 -0.34766,-4.01174 0.53097,-4.7064 4.10273,-8.67224 10.05668,-11.17192 4.20623,-1.76314 9.10261,-2.69532 14.16022,-2.69532 z"
     style="fill:#cb2027;stroke-width:0.416133"
     id="path19" /><path
     d="m 122.40532,195.97742 c -10.63738,2.72084 -17.83015,7.90675 -17.83015,13.86139 0,8.77372 15.60832,15.88679 34.86148,15.88679 19.25274,0 34.86148,-7.11307 34.86148,-15.88679 l -0.002,-0.01 c 0,-5.81597 -6.87785,-10.90193 -17.12898,-13.66802 -0.50023,6.0365 -0.97142,11.6682 -1.07032,12.27349 -0.5081,3.12636 -2.82834,6.0361 -6.36917,7.98441 -2.72856,1.49931 -6.32088,2.32423 -10.11137,2.32423 -7.98841,0 -16.19194,-3.70557 -16.5157,-11.98443 -0.0783,-2.00411 -0.43581,-6.89719 -0.69532,-10.7813 z"
     style="fill:#010101;stroke-width:0.416133"
     id="path18" /><path
     d="m 158.19064,251.22766 c 0.0471,0.97782 0.0966,1.95829 0.14453,2.93556 0.0886,1.81933 0.12972,1.43283 1.04688,3.08986 1.62457,2.94746 4.74961,4.8486 7.80277,6.02542 3.21419,1.24007 6.82078,1.88672 10.43364,1.88672 4.46632,0 8.94263,-0.98738 12.70904,-3.06056 2.97617,-1.63746 5.9312,-4.35667 6.11721,-7.97659 0.0865,-1.61152 0.17319,-1.4534 0.26172,-2.81447 -1.12542,0.88513 -2.42415,1.6844 -3.88673,2.38673 -0.27338,0.14427 -0.54162,0.29154 -0.82813,0.42774 -4.28574,2.03695 -9.29585,3.11524 -14.48835,3.11524 -5.35611,0 -10.46246,-1.14133 -14.80866,-3.29688 -0.0207,-0.009 -0.0438,-0.016 -0.0644,-0.0254 -0.0858,-0.039 -0.15741,-0.0872 -0.24219,-0.12695 -0.0225,-0.0115 -0.0459,-0.0216 -0.0684,-0.0332 -0.023,-0.0118 -0.0435,-0.0252 -0.0664,-0.0371 -1.52988,-0.72892 -2.89449,-1.56406 -4.06252,-2.49611 z"
     style="fill:#ffcd05;stroke-width:0.416133"
     id="path17" /><path
     d="m 201.37051,244.71982 c -0.68598,2.47329 -2.27802,4.71719 -4.66408,6.59378 -0.0885,1.36107 -0.17525,1.20295 -0.26172,2.81447 -0.18601,3.61992 -3.14104,6.33913 -6.11721,7.97659 -3.76642,2.07318 -8.24271,3.06056 -12.70904,3.06056 -3.61287,0 -7.21945,-0.64665 -10.43364,-1.88672 -3.05317,-1.17682 -6.17819,-3.07796 -7.80277,-6.02542 -0.91716,-1.65704 -0.95824,-1.27053 -1.04688,-3.08986 -0.0479,-0.97727 -0.0974,-1.95773 -0.14453,-2.93556 -2.31953,-1.8509 -3.88942,-4.05687 -4.59573,-6.44729 l 0.29688,6.39651 c 0.0304,0.64376 0.0618,1.28494 0.0937,1.92579 l 0.0625,1.26954 c 0.0953,1.94042 0.2618,2.73437 1.17188,4.25783 0.10695,0.17769 0.24021,0.39823 0.40625,0.70117 1.87176,3.39648 5.33528,6.14758 10.01177,7.95316 3.68858,1.42109 7.83015,2.17189 11.97856,2.17189 5.39973,0 10.51027,-1.24303 14.77937,-3.59377 5.13631,-2.8251 8.09611,-6.9163 8.33206,-11.51372 0.0362,-0.67871 0.0645,-0.89752 0.10352,-1.17383 0.0641,-0.46566 0.12251,-0.92642 0.17578,-1.88478 z m -8.55081,8.98051 c -0.38282,0.18383 -0.74367,0.38086 -1.14845,0.55078 -4.20749,1.76482 -9.10901,2.69728 -14.16998,2.69728 -5.35625,0 -10.47497,-1.04147 -14.80671,-3.00196 4.34621,2.15555 9.45255,3.29688 14.80866,3.29688 5.1925,0 10.20261,-1.07829 14.48835,-3.11524 0.28651,-0.1362 0.55475,-0.28347 0.82813,-0.42774 z m -30.56654,0.0234 c 0.0229,0.0119 0.0434,0.0253 0.0664,0.0371 0.0224,0.0116 0.0459,0.0217 0.0684,0.0332 -0.0471,-0.0221 -0.088,-0.048 -0.13476,-0.0703 z"
     style="fill:#1d1d1b;stroke-width:0.416133"
     id="path16" /><path
     d="m 177.44072,231.12211 v 0.004 c -4.4888,0 -8.81188,0.81554 -12.50005,2.35939 -4.45344,1.86843 -7.10652,4.60361 -7.45316,7.69339 -0.39117,3.44515 2.1357,6.66394 6.91995,8.83988 3.79804,1.73153 8.32982,2.64064 13.09576,2.64064 4.49756,0 8.8236,-0.81541 12.51178,-2.36134 4.75512,-1.99702 7.48431,-5.04605 7.48831,-8.36136 0.01,-4.05562 -3.76326,-6.6125 -6.37698,-7.90043 -0.33624,-0.20308 -0.7248,-0.37123 -1.07227,-0.49023 -3.70566,-1.58796 -8.05337,-2.42384 -12.61334,-2.42384 z"
     style="fill:#ffcd05;stroke-width:0.416133"
     id="path15" /><path
     d="m 177.44072,226.82912 c -5.06265,0 -9.96162,0.93246 -14.16412,2.69728 -5.95402,2.50011 -9.52542,6.46797 -10.05473,11.17192 -0.60381,5.32524 2.91326,10.26777 9.40824,13.22271 4.34484,1.97871 9.48932,3.02736 14.87116,3.02736 5.06098,0 9.96248,-0.93246 14.16998,-2.69728 6.42758,-2.69819 10.11614,-7.18623 10.12114,-12.31255 7.1e-4,-0.27759 -0.011,-0.55286 -0.0312,-0.82618 -1.25101,-1.14179 -2.33086,-2.37553 -3.0879,-3.74806 -0.16562,-0.30086 -0.29694,-0.52236 -0.4043,-0.69922 -0.82393,-1.38226 -1.01513,-2.25085 -1.1211,-3.834 -1.13493,-0.94658 -2.46062,-1.81144 -3.98049,-2.57228 -0.57759,-0.33207 -1.13959,-0.56644 -1.56446,-0.71875 -4.19377,-1.77272 -9.08827,-2.709 -14.16217,-2.709 z m 0,4.29299 c 4.55997,0 8.90768,0.83588 12.61334,2.42384 0.34747,0.119 0.73603,0.28715 1.07227,0.49023 2.61372,1.28793 6.38696,3.8448 6.37698,7.90043 -0.004,3.31531 -2.73318,6.36434 -7.48831,8.36136 -3.68819,1.54593 -8.01422,2.36134 -12.51178,2.36134 -4.76595,0 -9.29772,-0.90911 -13.09576,-2.64064 -4.78426,-2.17594 -7.31112,-5.39473 -6.91995,-8.83988 0.34664,-3.08978 2.99972,-5.82496 7.45316,-7.69339 3.68817,-1.54385 8.01124,-2.35939 12.50005,-2.35939 z"
     style="fill:#1d1d1b;stroke-width:0.416133"
     id="path14" /><path
     d="m 201.23575,229.26077 c 0.0483,0.97849 0.097,1.95709 0.14648,2.93556 0.0907,1.81849 0.12944,1.43365 1.04493,3.08986 1.62374,2.94329 4.75115,4.84944 7.80472,6.02541 3.21462,1.23925 6.82233,1.88478 10.43559,1.88478 4.46635,0 8.94335,-0.98544 12.711,-3.05861 2.97367,-1.6408 5.92784,-4.35834 6.11135,-7.9766 0.0876,-1.61001 0.17458,-1.45426 0.26172,-2.81251 -1.12188,0.88227 -2.41594,1.67777 -3.87306,2.37892 -0.27696,0.14653 -0.54925,0.29548 -0.83985,0.43359 -4.28616,2.03739 -9.29349,3.1133 -14.48639,3.1133 -5.34835,0 -10.45013,-1.13781 -14.78913,-3.28517 -0.0281,-0.0127 -0.0599,-0.0204 -0.0879,-0.0332 -0.10938,-0.0498 -0.20091,-0.1112 -0.30859,-0.16211 -1.55941,-0.73713 -2.94466,-1.58552 -4.13088,-2.53321 z"
     style="fill:#669a40;stroke-width:0.416133"
     id="path13" /><path
     d="m 196.61659,222.74121 0.32226,6.4844 c 0.0533,1.05864 0.10506,2.1162 0.15625,3.17775 0.0982,1.94543 0.265,2.73703 1.17384,4.26174 0.10736,0.17686 0.23868,0.39836 0.4043,0.69922 1.87383,3.3973 5.3364,6.14839 10.01371,7.95316 3.68694,1.42109 7.83015,2.17189 11.97857,2.17189 5.39931,0 10.51138,-1.24122 14.78132,-3.58986 5.13798,-2.83511 8.09317,-6.92298 8.3262,-11.51959 0.0362,-0.66704 0.0672,-0.88846 0.10547,-1.16602 0.0666,-0.48438 0.12377,-0.92856 0.17578,-1.89649 l 0.35157,-6.52347 c -0.69208,2.45722 -2.28045,4.68786 -4.65432,6.55472 -0.0871,1.35825 -0.17416,1.2025 -0.26172,2.81251 -0.18351,3.61827 -3.13768,6.33579 -6.11135,7.9766 -3.76766,2.07318 -8.24465,3.05861 -12.711,3.05861 -3.61326,0 -7.22097,-0.64553 -10.43559,-1.88478 -3.05357,-1.17597 -6.18097,-3.08212 -7.80472,-6.02541 -0.91549,-1.65621 -0.95421,-1.27136 -1.04493,-3.08986 -0.0495,-0.97847 -0.0982,-1.95706 -0.14648,-2.93556 -2.33994,-1.86942 -3.9234,-4.10024 -4.61916,-6.51956 z m 39.26189,8.98637 c -0.38685,0.18614 -0.75279,0.38467 -1.16212,0.55664 -4.20957,1.76273 -9.11025,2.69533 -14.16998,2.69533 -5.3463,0 -10.45461,-1.03628 -14.78327,-2.99025 4.339,2.14736 9.44077,3.28517 14.78913,3.28517 5.19291,0 10.20023,-1.07591 14.48639,-3.1133 0.2906,-0.13811 0.56289,-0.28705 0.83985,-0.43359 z"
     style="fill:#1d1d1b;stroke-width:0.416133"
     id="path12" /><path
     d="m 220.48974,209.15326 c -4.48881,0 -8.81217,0.81529 -12.50201,2.36329 -4.45426,1.87011 -7.10402,4.60502 -7.45316,7.6973 -0.38742,3.44182 2.13527,6.66323 6.91996,8.83793 3.79843,1.7307 8.32703,2.63868 13.0938,2.63868 4.49548,0 8.82152,-0.81625 12.51178,-2.36133 4.75138,-1.99744 7.48531,-5.04576 7.48831,-8.35942 0.008,-4.05519 -3.76409,-6.61416 -6.37698,-7.90042 -0.33582,-0.20307 -0.72202,-0.37205 -1.07032,-0.49024 -3.70648,-1.5892 -8.05296,-2.42384 -12.61333,-2.42384 z"
     style="fill:#669a40;stroke-width:0.416133"
     id="path11" /><path
     d="m 220.48583,204.86223 c -5.05766,0 -9.95395,0.93216 -14.16022,2.69532 -5.954,2.4997 -9.5257,6.46547 -10.05668,11.17192 -0.59882,5.33065 2.91713,10.27334 9.40629,13.22662 4.3465,1.97871 9.49015,3.02346 14.87116,3.02346 5.05974,0 9.9604,-0.93259 14.16998,-2.69533 6.42924,-2.70111 10.11615,-7.18748 10.12114,-12.31255 0.01,-4.74641 -3.05236,-8.89348 -8.62894,-11.68365 -0.57925,-0.33041 -1.1376,-0.5638 -1.55665,-0.71484 -4.1996,-1.75192 -9.09398,-2.709 -14.16412,-2.709 z m 0.004,4.29103 -0.002,0.002 c 4.56038,0 8.90685,0.83464 12.61333,2.42384 0.3483,0.11819 0.7345,0.28717 1.07032,0.49024 2.61289,1.28627 6.3853,3.84522 6.37698,7.90042 -0.003,3.31367 -2.73692,6.36198 -7.48831,8.35942 -3.69027,1.54508 -8.0163,2.36133 -12.51178,2.36133 -4.76678,0 -9.29536,-0.90798 -13.0938,-2.63868 -4.7847,-2.17471 -7.30738,-5.39611 -6.91996,-8.83793 0.34914,-3.09228 2.9989,-5.82719 7.45316,-7.6973 3.68984,-1.54801 8.0132,-2.36329 12.50201,-2.36329 z"
     style="fill:#1d1d1b;stroke-width:0.416133"
     id="path10" /><path
     d="m 121.44243,110.99072 c 1.95971,23.43142 6.86598,82.55434 7.37894,95.54534 0.24927,6.41429 10.36817,6.48831 10.79887,6.48831 2.80307,0 5.48486,-0.58977 7.35746,-1.61719 1.91004,-1.0524 3.2381,-2.52844 3.47072,-3.85549 0.43263,-3.34166 4.5867,-56.2262 7.71097,-96.54925 -5.75779,1.956 -11.92164,3.03322 -18.33993,3.03322 -6.43253,0 -12.60867,-1.08183 -18.37703,-3.04494 z"
     style="fill:#ffffff;stroke-width:0.416133"
     id="path9" /><path
     d="m 115.49904,108.59618 c 1.49605,17.76379 7.05797,84.25267 7.6016,98.16254 0.32376,8.27894 8.52721,11.98443 16.5157,11.98443 3.79053,0 7.38279,-0.82491 10.11137,-2.32423 3.54086,-1.94833 5.86107,-4.85802 6.36917,-7.98441 0.48714,-2.98138 7.02273,-87.43149 7.9805,-99.81489 -1.91613,0.90249 -3.89236,1.69468 -5.91799,2.38282 -3.12427,40.32309 -7.27834,93.20759 -7.71097,96.54925 -0.23262,1.32705 -1.56068,2.80309 -3.47072,3.85549 -1.8726,1.02742 -4.55439,1.61719 -7.35746,1.61719 -0.4307,0 -10.5496,-0.074 -10.79887,-6.48831 -0.51296,-12.99101 -5.41923,-72.1139 -7.37894,-95.54534 -2.03427,-0.69231 -4.01976,-1.48613 -5.94339,-2.39454 z"
     style="fill:#010101;stroke-width:0.416133"
     id="path8" /><path
     d="m 139.81946,-0.0175782 c -31.49825,0 -57.031497,25.5347502 -57.031497,57.0275932 0,31.492011 25.533667,57.025645 57.031497,57.025645 31.48702,0 57.02174,-25.532385 57.02174,-57.025645 v -0.01758 c 0,-31.459552 -25.53638,-57.0100152 -57.02174,-57.0100152 z m 1.60743,3.1230606 c 13.23063,-0.079637 26.43208,4.8881837 36.46501,14.9219406 20.06252,20.057526 19.86285,52.80835 -0.44727,73.115554 l 0.002,-0.0098 C 157.13854,111.44333 124.40664,111.64104 104.34079,91.578526 84.274531,71.509348 84.47138,38.774081 104.78025,18.466878 114.93489,8.3118187 128.19626,3.1851195 141.42689,3.1054824 Z"
     style="fill:#1d1d1b;stroke-width:0.416133"
     id="path7" /><path
     d="m 141.42689,3.1054824 c -13.23064,0.079637 -26.49199,5.2063262 -36.64664,15.3613956 -20.30889,20.307223 -20.505739,53.04245 -0.43946,73.111648 20.06587,20.062534 52.79773,19.864824 73.10579,-0.445314 l -0.002,0.0098 C 197.75477,70.835753 197.95444,38.084969 177.8919,18.027423 167.85896,7.9936561 154.65754,3.025845 141.42689,3.1054824 Z m 13.48639,10.0098096 c 4.63766,-0.111755 10.85358,2.504789 16.01179,8.226598 l -0.002,0.0059 c 8.23857,9.109955 9.38428,19.970192 5.27541,22.191503 -4.14218,2.300377 -11.76862,-2.30522 -18.84579,-8.40238 -6.95396,-6.171233 -11.45673,-13.716065 -8.51175,-18.955161 1.07518,-1.950619 3.28969,-2.999368 6.07229,-3.06642 z"
     style="fill:#cb2027;stroke-width:0.416133"
     id="path6" /><path
     d="m 154.91328,13.115292 c -2.7826,0.06705 -4.99711,1.115799 -6.07229,3.06642 -2.94498,5.239101 1.55778,12.783922 8.51175,18.955161 7.07718,6.097167 14.7036,10.702759 18.84579,8.40238 4.10887,-2.221314 2.96317,-13.081539 -5.27541,-22.191503 l 0.002,-0.0059 c -5.15822,-5.721815 -11.37413,-8.338353 -16.01179,-8.226598 z"
     style="fill:#ffffff;stroke-width:0.416133"
     id="path5" /></g>
</svg>
