<?xml version="1.0" encoding="UTF-8" standalone="no"?>
<!-- Generator: Adobe Illustrator 25.1.0, SVG Export Plug-In . SVG Version: 6.00 Build 0)  -->

<svg
   version="1.1"
   id="Layer_1"
   x="0px"
   y="0px"
   viewBox="0 0 3840 1254.4"
   style="enable-background:new 0 0 3840 1254.4;"
   xml:space="preserve"
   sodipodi:docname="3DO Interactive Multiplayer 2-02.svg"
   inkscape:version="1.3.2 (091e20e, 2023-11-25)"
   xmlns:inkscape="http://www.inkscape.org/namespaces/inkscape"
   xmlns:sodipodi="http://sodipodi.sourceforge.net/DTD/sodipodi-0.dtd"
   xmlns="http://www.w3.org/2000/svg"
   xmlns:svg="http://www.w3.org/2000/svg"><defs
   id="defs11">
	
	

		
		
		
	
			
		
			
			
		
			
			
			
		
				
					<radialGradient
   id="SVGID_1_"
   cx="-4249.2959"
   cy="20563.207"
   r="151.5321"
   gradientTransform="matrix(0.9688,0,0,0.9688,4760.8735,-19121.014)"
   gradientUnits="userSpaceOnUse">
					<stop
   offset="0.5225"
   style="stop-color:#FFE41B"
   id="stop3" />
					<stop
   offset="0.8933"
   style="stop-color:#716A13"
   id="stop4" />
					<stop
   offset="1"
   style="stop-color:#49482E"
   id="stop5" />
				</radialGradient>
				
				
			
					
					
					
				</defs><sodipodi:namedview
   id="namedview11"
   pagecolor="#ffffff"
   bordercolor="#666666"
   borderopacity="1.0"
   inkscape:showpageshadow="2"
   inkscape:pageopacity="0.0"
   inkscape:pagecheckerboard="0"
   inkscape:deskcolor="#d1d1d1"
   inkscape:zoom="0.1609375"
   inkscape:cx="1916.8932"
   inkscape:cy="624.46602"
   inkscape:window-width="2048"
   inkscape:window-height="1154"
   inkscape:window-x="0"
   inkscape:window-y="25"
   inkscape:window-maximized="0"
   inkscape:current-layer="Layer_1" />
<style
   type="text/css"
   id="style1">
	.st0{fill:#FFFFFF;}
	.st1{fill:url(#SVGID_1_);}
	.st2{fill:#888888;}
	.st3{fill:#FF0000;}
	.st4{fill:#0000A0;}
	.st5{fill:url(#SVGID_2_);}
	.st6{opacity:0.5;fill:#FFFFFF;}
	.st7{opacity:0.7;fill:#FFFFFF;}
	.st8{opacity:0.5;}
	.st9{opacity:0.7;}
	.st10{fill:url(#SVGID_3_);}
</style>
<g
   id="g20"><path
     d="M 59.800781,59.800781 V 1194.5 H 3780.0996 V 59.800781 Z M 119.69922,119.69922 H 1134.8008 V 1134.8008 H 119.69922 Z M 3271.1992,310.30078 c 78.6996,0 149.2011,27.39871 211.3008,82.39844 62.1997,54.89972 93.1992,133.1009 93.1992,234.40039 0,94.89952 -29.2999,171.00107 -88.0996,228.30078 -58.7997,57.19971 -130.6008,85.79883 -215.4004,85.79883 -91.5995,0 -166.2991,-30.49991 -223.7988,-91.09961 -57.4997,-60.7997 -86.3008,-136.29967 -86.3008,-226.69922 0,-91.79954 30.2003,-167.00029 91,-225.5 60.5997,-58.39971 133.4,-87.59961 218.0996,-87.59961 z m -1232.0996,8.39844 h 348.2012 c 100.6996,0 180.4994,28.5014 239.1992,85.70117 58.6998,57.09977 88.0996,129.09996 88.0996,216.09961 0,45.09982 -8.9005,87.59938 -26.9004,127.19922 C 2669.7993,787.39906 2642.1999,823.50013 2605,856 c -37.1999,32.49987 -75.4002,53.39926 -114.5,62.69922 -39.0998,9.29996 -87.0994,14 -144.1992,14 H 2039 v -30 h 87 v -554 h -86.9004 z m -488.1992,2.70117 c 61.7998,0 113.7993,13.0993 156.1992,39.19922 42.4999,26.09992 63.7012,59.50012 63.7012,100.5 -0.1,80.69976 -75.2016,129.39966 -225.2012,146.09961 v 1.90039 c 82.8998,1.49999 144.1001,18.00048 183.5,49.40039 39.4999,31.39991 59.3008,69.40052 59.3008,113.90039 0,49.69985 -22.4001,90.8001 -67.5,123 C 1676.0005,927.80029 1616.0994,944 1541.5996,944 c -64.4998,0 -114.3001,-12.8993 -149.5,-38.69922 -35.2999,-25.69992 -52.9004,-55.0001 -52.9004,-88 0,-21.89993 7.9012,-39.60004 23.7012,-53 15.7999,-13.39996 34.7989,-20 56.7988,-20 20.7,0 38.5008,5.90004 53.3008,17.5 14.8,11.79997 22.1992,27.2985 22.1992,46.39844 0,25.59992 -17.1997,47.10005 -51.5996,64.5 -6.7,3.39999 -10.1992,7.20001 -10.1992,11.5 0,7.89998 9.6,14.8008 29,20.80078 19.2999,5.99998 38.8993,8.90039 59.1992,8.90039 66.1998,0 99.3008,-48.70029 99.3008,-146 0,-96.39971 -39.801,-144.5 -119.3008,-144.5 l -66,2.69922 c -13.3,0 -20,-4.89925 -20,-14.69922 0,-11.29997 7.0001,-16.90039 21,-16.90039 l 48.0996,1.80078 c 49.0999,0 81.9016,-10.90085 98.6016,-32.80078 16.6999,-21.79993 25,-52.79973 25,-93.09961 0,-41.39988 -6.3004,-72.00006 -18.9004,-91.5 -12.6,-19.59994 -34.3005,-29.30078 -64.9004,-29.30078 -16.6999,0 -32.4,2.80002 -47,8.5 -14.6,5.59998 -22.0996,11.09963 -22.0996,16.59961 0,5.09998 4.8,10.40041 14.5,15.90039 25.1999,16.09995 38,33.50084 38,52.30078 0,18.49995 -7.0012,33.09964 -21.2012,44.09961 -14.1999,10.89997 -30.0989,16.40039 -47.7988,16.40039 -20.3999,0 -38.5997,-6.30121 -54.5996,-18.70117 -16,-12.49996 -24.1016,-27.89967 -24.1016,-46.59961 0,-31.59991 17.8001,-59.00007 53.5,-82 35.6999,-23.09993 81.3014,-34.69922 137.2012,-34.69922 z m 1718.1992,18.90039 c -31.2998,0 -56.3005,7.39929 -74.9004,22.19922 -18.5999,14.79993 -30.1988,38.49938 -34.7988,71.19922 -4.5,32.59984 -6.8008,96.50086 -6.8008,191.40039 0,93.89953 1.9004,156.20015 5.9004,186.5 3.9,30.39985 14.2993,54.5997 31.1992,72.59961 16.8999,17.99991 43.3002,27 79.5,27 29.9999,0 54.4009,-7.19929 73.3008,-21.69922 18.8999,-14.59993 30.7,-38.09938 35.5,-70.69922 4.8,-32.79983 7.0996,-97.00126 7.0996,-192.80078 0,-93.99953 -1.9988,-156.00054 -5.7988,-185.90039 -3.9,-29.99985 -14.0013,-54.10048 -30.2012,-72.40039 -16.1999,-18.29991 -42.9002,-27.39844 -80,-27.39844 z m -975.5,8.39844 v 554 h 54.3008 c 82.9997,0 133.0989,-21.79939 150.2988,-65.19922 C 2515.4991,794.00017 2524,719.60036 2524,614.30078 c 0,-82.39967 -5.3004,-141.60171 -15.9004,-177.60156 -10.4999,-35.99986 -26.5997,-59.70005 -48.0996,-71 -21.4999,-11.29996 -48.8005,-17 -81.9004,-17 z"
     style=""
     id="path20" /><path
     d="m 1550.9004,321.40039 c -55.8999,0 -101.5013,11.59927 -137.2012,34.69922 -35.6999,22.99995 -53.5,50.40006 -53.5,82 0,18.69996 8.1016,34.09963 24.1016,46.59961 15.9999,12.39997 34.1996,18.70117 54.5996,18.70117 17.7,0 33.5988,-5.50041 47.7988,-16.40039 14.2,-10.99998 21.2012,-25.59965 21.2012,-44.09961 0,-18.79996 -12.8001,-36.20081 -38,-52.30078 -9.7,-5.49999 -14.5,-10.8004 -14.5,-15.90039 0,-5.49999 7.4996,-10.99962 22.0996,-16.59961 14.6,-5.69999 30.3,-8.5 47,-8.5 30.5999,0 52.3004,9.70082 64.9004,29.30078 12.6,19.49996 18.9004,50.10008 18.9004,91.5 0,40.29992 -8.3001,71.29965 -25,93.09961 -16.7,21.89996 -49.5017,32.80078 -98.6016,32.80078 L 1436.5996,594.5 c -14,0 -21,5.60041 -21,16.90039 0,9.79998 6.7,14.69922 20,14.69922 l 66,-2.69922 c 79.4999,0 119.3008,48.10019 119.3008,144.5 0,97.29981 -33.1009,146 -99.3008,146 -20.3,0 -39.8992,-2.9004 -59.1992,-8.90039 -19.4,-5.99999 -29,-12.9008 -29,-20.80078 0,-4.29999 3.4992,-8.10001 10.1992,-11.5 34.3999,-17.39997 51.5996,-38.90005 51.5996,-64.5 0,-19.09996 -7.3992,-34.59846 -22.1992,-46.39844 -14.8,-11.59998 -32.6008,-17.5 -53.3008,-17.5 -21.9999,0 -40.9988,6.60003 -56.7988,20 -15.8,13.39997 -23.7012,31.10005 -23.7012,53 0,32.99994 17.6005,62.30005 52.9004,88 35.1999,25.79995 85.0001,38.69922 149.5,38.69922 74.4999,0 134.4009,-16.19967 179.3008,-48.59961 45.0999,-32.19993 67.5,-73.3001 67.5,-123 0,-44.49991 -19.8009,-82.50045 -59.3008,-113.90039 -39.3999,-31.39994 -100.6002,-47.90039 -183.5,-49.40039 v -1.90039 c 149.9997,-16.69997 225.1012,-65.39977 225.2012,-146.09961 0,-40.99992 -21.2013,-74.40005 -63.7012,-100.5 -42.3999,-26.09995 -94.3993,-39.19922 -156.1992,-39.19922 z"
     style="fill:#ffffff"
     id="path19" /><path
     d="m 2039.0996,318.69922 v 30 H 2126 v 554 h -87 v 30 h 307.3008 c 57.0999,0 105.0993,-4.70002 144.1992,-14 39.0999,-9.29998 77.3001,-30.19928 114.5,-62.69922 37.1999,-32.49994 64.7993,-68.60086 82.6992,-108.30078 18,-39.59992 26.9004,-82.09931 26.9004,-127.19922 0,-86.99983 -29.3997,-158.99972 -88.0996,-216.09961 -58.6999,-57.19988 -138.4994,-85.70117 -239.1992,-85.70117 z m 254.5,30 h 84.5 c 33.0999,0 60.4004,5.70002 81.9004,17 21.5,11.29998 37.5996,35.00007 48.0996,71 10.6,35.99993 15.9004,95.20173 15.9004,177.60156 0,105.29979 -8.5008,179.69931 -25.8008,223.19922 -17.1999,43.39991 -67.299,65.19922 -150.2988,65.19922 h -54.3008 z"
     style="fill:#ffffff"
     id="path18" /><path
     d="m 3271.1992,310.30078 c -84.6998,0 -157.4997,29.19973 -218.0996,87.59961 -60.7999,58.49988 -91,133.70018 -91,225.5 0,90.39982 28.8009,165.89934 86.3008,226.69922 57.4999,60.59988 132.199,91.09961 223.7988,91.09961 84.7998,0 156.6005,-28.59894 215.4004,-85.79883 58.7999,-57.29988 88.0996,-133.40097 88.0996,-228.30078 0,-101.2998 -30.9993,-179.5005 -93.1992,-234.40039 -62.0999,-54.99989 -132.6009,-82.39844 -211.3008,-82.39844 z m -2.0996,30 c 37.0999,0 63.8,9.09848 80,27.39844 16.2,18.29996 26.3012,42.40045 30.2012,72.40039 3.8,29.89994 5.7988,91.90058 5.7988,185.90039 0,95.79981 -2.2996,160.00085 -7.0996,192.80078 -4.8,32.59994 -16.6,56.09925 -35.5,70.69922 -18.9,14.49997 -43.3008,21.69922 -73.3008,21.69922 -36.1999,0 -62.6,-9.00004 -79.5,-27 -16.8999,-17.99997 -27.2992,-42.19967 -31.1992,-72.59961 -4,-30.29994 -5.9004,-92.60019 -5.9004,-186.5 0,-94.89981 2.3008,-158.80046 6.8008,-191.40039 4.6,-32.69994 16.1989,-56.39925 34.7988,-71.19922 18.6,-14.79997 43.6005,-22.19922 74.9004,-22.19922 z"
     style="fill:#ffffff"
     id="path17" /><path
     d="M 119.69922,119.69922 V 1134.8008 H 1134.8008 V 119.69922 Z m 507.5,75.5 L 769.59961,338 627.19922,480.69922 484.80078,338 Z m -0.59961,292 h 1.30078 c 55.49967,0 109.9989,4.40126 121.29883,18.70117 9.69994,12.29993 10.40039,45.79982 10.40039,80.09961 v 9.40039 c 0,34.29979 -0.70045,67.89968 -10.40039,80.09961 -11.29993,14.29991 -65.69916,18.69922 -121.29883,18.69922 h -1.30078 c -55.49967,0 -109.9989,-4.39931 -121.29883,-18.69922 -9.69994,-12.29993 -10.40039,-45.79982 -10.40039,-80.09961 V 586 c 0,-34.29979 0.70045,-67.89968 10.40039,-80.09961 11.29993,-14.29991 65.69916,-18.70117 121.29883,-18.70117 z m 0.59961,216.40039 c 67.1998,0 121.60156,54.60059 121.60156,121.90039 0,67.2998 -54.40176,121.90039 -121.60156,121.90039 -67.1998,0 -121.59961,-54.60059 -121.59961,-121.90039 0,-67.2998 54.39981,-121.90039 121.59961,-121.90039 z M 627.09961,1037 c 78.99968,0 143,11.1997 143,25.0996 0,13.9 -64.00032,25.0996 -143,25.0996 -78.99968,0 -143,-11.2996 -143,-25.0996 0,-13.8999 64.00032,-25.0996 143,-25.0996 z"
     style="fill:#ffffff"
     id="path16" /><path
     d="m 627.19922,703.59961 c -67.19987,0 -121.59961,54.60052 -121.59961,121.90039 0,67.29987 54.39974,121.90039 121.59961,121.90039 67.19986,0 121.60156,-54.60052 121.60156,-121.90039 0,-67.29987 -54.4017,-121.90039 -121.60156,-121.90039 z"
     style="fill:url(#SVGID_1_)"
     id="path15" /><path
     d="m 627.09961,1037 c -78.99984,0 -143,11.1996 -143,25.0996 0,13.8 64.00016,25.0996 143,25.0996 78.99984,0 143,-11.1996 143,-25.0996 0,-13.9 -64.00016,-25.0996 -143,-25.0996 z"
     style="fill:#888888"
     id="path14" /><path
     d="M 627.19922,195.19922 484.80078,338 627.19922,480.69922 769.59961,338 Z"
     style="fill:#ff0000"
     id="path13" /><path
     d="m 626.59961,487.19922 c -55.59989,0 -109.99885,4.4012 -121.29883,18.70117 C 495.6008,518.10037 494.90039,551.70007 494.90039,586 v 9.40039 c 0,34.29993 0.70041,67.79963 10.40039,80.09961 11.29998,14.29997 65.79894,18.69922 121.29883,18.69922 h 1.30078 c 55.59989,0 109.99885,-4.39925 121.29883,-18.69922 9.69998,-12.19998 10.40039,-45.79968 10.40039,-80.09961 V 586 c 0,-34.29993 -0.70041,-67.79963 -10.40039,-80.09961 -11.29998,-14.29997 -65.79894,-18.70117 -121.29883,-18.70117 z"
     style="fill:#0000a0"
     id="path12" /><path
     d="M 0,0 V 1254.4004 H 3840 V 0 Z M 59.800781,59.800781 H 3780.0996 V 1194.5 H 59.800781 Z"
     style="fill:#ffffff"
     id="path11" /></g>
</svg>
