<?xml version="1.0" encoding="UTF-8" standalone="no"?>
<!-- Generator: Adobe Illustrator 26.0.3, SVG Export Plug-In . SVG Version: 6.00 Build 0)  -->

<svg
   version="1.1"
   id="Layer_1"
   x="0px"
   y="0px"
   viewBox="0 0 3839 1096.9"
   style="enable-background:new 0 0 3839 1096.9;"
   xml:space="preserve"
   sodipodi:docname="Arcade -DP Alt Version-13.svg"
   inkscape:version="1.3.2 (091e20e, 2023-11-25)"
   xmlns:inkscape="http://www.inkscape.org/namespaces/inkscape"
   xmlns:sodipodi="http://sodipodi.sourceforge.net/DTD/sodipodi-0.dtd"
   xmlns="http://www.w3.org/2000/svg"
   xmlns:svg="http://www.w3.org/2000/svg"><defs
   id="defs6">
	
	

		
	
		
		<linearGradient
   id="SVGID_1_"
   gradientUnits="userSpaceOnUse"
   x1="0"
   y1="548.43042"
   x2="3839"
   y2="548.43042">
			<stop
   offset="0"
   style="stop-color:#FAD961"
   id="stop1" />
			<stop
   offset="1"
   style="stop-color:#F76B1C"
   id="stop2" />
		</linearGradient>
		
	
			
				<linearGradient
   id="SVGID_00000000218044320164781310000010467304342273061786_"
   gradientUnits="userSpaceOnUse"
   x1="319.91879"
   y1="548.43048"
   x2="3519.0811"
   y2="548.43048">
				<stop
   offset="0"
   style="stop-color:#FAD961"
   id="stop3" />
				<stop
   offset="1"
   style="stop-color:#F76B1C"
   id="stop4" />
			</linearGradient>
			
		</defs><sodipodi:namedview
   id="namedview6"
   pagecolor="#ffffff"
   bordercolor="#666666"
   borderopacity="1.0"
   inkscape:showpageshadow="2"
   inkscape:pageopacity="0.0"
   inkscape:pagecheckerboard="0"
   inkscape:deskcolor="#d1d1d1"
   inkscape:zoom="0.16097942"
   inkscape:cx="1916.394"
   inkscape:cy="549.75971"
   inkscape:window-width="2048"
   inkscape:window-height="1154"
   inkscape:window-x="0"
   inkscape:window-y="25"
   inkscape:window-maximized="0"
   inkscape:current-layer="Layer_1" />
<style
   type="text/css"
   id="style1">
	.st0{fill:#1E1E1E;}
	.st1{fill:#FFFFFF;}
	.st2{fill:url(#SVGID_1_);}
	.st3{fill:url(#SVGID_00000000933125983231321720000015956102470035197574_);}
	.st4{fill:url(#SVGID_00000063629498813959349290000006699863035415600826_);}
	.st5{fill:url(#SVGID_00000000914723331032199800000002695856837064335295_);}
	.st6{fill:url(#SVGID_00000173130919695538533700000017781485695453558408_);}
	.st7{fill:url(#SVGID_00000156546349600776818090000002265048891103768227_);}
	.st8{fill:url(#SVGID_00000072990902551008102980000009717665676050040973_);}
	.st9{fill:url(#SVGID_00000141432473707172110390000001096408563068475270_);}
	.st10{fill:url(#SVGID_00000031913825535305031980000015727833800727982992_);}
	.st11{fill:url(#SVGID_00000060752319698752085660000018002449737925203628_);}
	.st12{fill:url(#SVGID_00000080202393634604259730000013812722494251923858_);}
	.st13{fill:url(#SVGID_00000092434153745867187240000009147151743302574256_);}
	.st14{fill:url(#SVGID_00000032626263845812599920000011625541338157112990_);}
	.st15{fill:#232244;}
	.st16{fill:url(#SVGID_00000063611561394461558420000004441188127598192769_);}
	.st17{fill:url(#SVGID_00000035516554992268549380000006702687134249382796_);}
	.st18{fill:#00FFF8;}
	.st19{fill:#FF0000;}
	.st20{fill:#0000FF;}
	.st21{stroke:#231F20;stroke-width:2.4791;stroke-miterlimit:10;}
	.st22{fill:#FFCE00;}
	.st23{fill:#339300;}
	.st24{fill:url(#SVGID_00000005246820302609211080000017654504430456896673_);}
	.st25{fill:url(#SVGID_00000063604964837172784600000002599064218263714198_);}
	.st26{fill:url(#SVGID_00000069376310807407814060000014918228563771697282_);}
	.st27{fill:url(#SVGID_00000173869037920793241920000007998476587401909383_);}
	.st28{fill:url(#SVGID_00000041291671933673743830000014971559662511008948_);}
	.st29{fill:#7C7C7C;}
	.st30{fill:url(#SVGID_00000067957828235402642550000017528295262733408913_);}
	.st31{fill:url(#SVGID_00000021097458724619878250000009461777472865363333_);}
	.st32{fill:url(#SVGID_00000076579494037484731040000007276802689352275598_);}
	.st33{fill:url(#SVGID_00000079484836608413061930000003850172437514984332_);}
	.st34{fill:url(#SVGID_00000048464102194183581050000013684981358700661666_);}
	.st35{fill:url(#SVGID_00000154391515363543336050000003950630640024487078_);}
	.st36{fill:url(#SVGID_00000108997913215914562150000016213757644115836545_);}
	.st37{fill:url(#SVGID_00000115502591482336315590000002081113922276590234_);}
	.st38{fill:url(#SVGID_00000080885660721536102060000001444848155819205514_);}
	.st39{fill:url(#SVGID_00000055688769077687523210000000093058074990624430_);}
	.st40{fill:url(#SVGID_00000083047772749173413890000004004616571257409681_);}
	.st41{fill:url(#SVGID_00000156583598331362472760000014342517960582798480_);}
	.st42{fill:url(#SVGID_00000078762790845033453640000014918288810313857697_);}
	.st43{fill:url(#SVGID_00000133521081144499641490000013121932800904557503_);}
	.st44{fill:url(#SVGID_00000105416035904508380470000017990911467317695898_);}
	.st45{fill:url(#SVGID_00000136394051522445961780000005315177141550361763_);}
	.st46{fill:url(#SVGID_00000049193493319333797630000013441404803281863081_);}
	.st47{fill:url(#SVGID_00000057108331385812564240000005045231406350556846_);}
	.st48{fill:url(#SVGID_00000116215694350015328680000017729850989830711221_);}
	.st49{fill:url(#SVGID_00000083080583420423598780000006914678595513024693_);}
	.st50{fill:url(#SVGID_00000081629552752736478490000000570258657497995656_);}
	.st51{fill:url(#SVGID_00000026853530379091562860000017558605276486136744_);}
</style>
<g
   id="g15"><path
     d="m 228.5,45.699219 c -11.9137,0 -23.50065,1.330273 -34.77734,3.503906 -3.70391,0.714265 -7.18425,1.981975 -10.80469,2.916016 -7.40052,1.909722 -14.73872,3.96438 -21.74414,6.746093 -4.02555,1.599056 -7.83011,3.590106 -11.70899,5.460938 -6.1935,2.988009 -12.2743,6.155011 -18.05468,9.796875 -3.77346,2.378235 -7.3903,4.959633 -10.97071,7.599609 -5.37641,3.96533 -10.51668,8.20481 -15.41992,12.722656 -3.2635,3.007854 -6.480492,6.055078 -9.517577,9.291018 -4.655792,4.96209 -8.900679,10.27987 -12.984375,15.73828 -2.546664,3.40473 -5.200883,6.7182 -7.509766,10.30078 -4.033528,6.26038 -7.425091,12.93519 -10.683593,19.68945 -1.589945,3.29628 -3.476779,6.41551 -4.871094,9.81836 -4.248719,10.37116 -7.745642,21.13856 -10.041016,32.36328 -2.434003,11.90271 -3.71289,24.22859 -3.71289,36.85352 v 639.80078 c 0,100.9994 81.801381,182.79882 182.800781,182.79882 h 3382 c 11.3069,0 22.268,-1.3637 33.0059,-3.3262 2.2635,-0.4139 4.5359,-0.7965 6.7695,-1.2929 10.2909,-2.2878 20.2979,-5.3209 29.8535,-9.2617 1.6076,-0.6632 3.1249,-1.4881 4.709,-2.1954 8.6364,-3.8562 16.9123,-8.349 24.7773,-13.4433 1.4392,-0.9324 2.9544,-1.7533 4.3653,-2.7246 8.3968,-5.7813 16.2069,-12.3257 23.5078,-19.39456 1.612,-1.56113 3.1474,-3.19533 4.7012,-4.81446 7.2099,-7.51394 14.0218,-15.42986 19.873,-24.08789 0,-0.003 0.01,-0.006 0.01,-0.01 0.052,-0.0764 0.087,-0.16373 0.1387,-0.24024 5.8311,-8.65787 10.6845,-17.99357 14.9863,-27.61914 1.3015,-2.91291 2.3683,-5.94254 3.5195,-8.93359 2.8286,-7.35232 5.1723,-14.92742 7.043,-22.70313 0.7616,-3.16508 1.6007,-6.29667 2.1953,-9.52343 1.9885,-10.80572 3.3477,-21.84541 3.3477,-33.22852 V 228.5 c 0,-100.9994 -81.8014,-182.800781 -182.8008,-182.800781 z M 502.69922,319.90039 h 91.40039 c 100.9995,0 182.80078,81.89933 182.80078,182.79883 V 594.09961 685.5 L 685.5,776.90039 H 594.09961 V 685.5 h -91.40039 l -91.39844,91.40039 H 319.90039 V 502.69922 c 0,-100.9995 81.79933,-182.79883 182.79883,-182.79883 z m 548.49998,0 h 91.4004 L 1234,411.30078 h 91.4004 v 91.39844 H 1234 h -91.4004 -45.6992 c -25.1999,0 -45.7012,20.50131 -45.7012,45.70117 V 594.09961 685.5 776.90039 H 959.80078 868.40039 V 685.5 594.09961 502.69922 c 0,-12.62493 1.27893,-24.95086 3.71289,-36.85352 17.03773,-83.31864 90.71141,-145.94531 179.08592,-145.94531 z m 548.4004,0 91.4004,91.40039 h 91.4004 v -91.40039 h 91.4004 v 182.79883 h -228.5 c -25.1999,0 -45.7012,20.50131 -45.7012,45.70117 0,18.89991 11.5325,35.15489 27.9297,42.10156 5.4657,2.31556 11.4715,3.59766 17.7715,3.59766 H 1691 1782.4004 L 1873.8008,685.5 v 91.40039 h -274.2012 c -12.6249,0 -24.9509,-1.27887 -36.8535,-3.71289 -83.3186,-17.03809 -145.9453,-90.71333 -145.9453,-179.08789 v -91.40039 c 0,-12.62493 1.2789,-24.95086 3.7129,-36.85352 17.0377,-83.31864 90.7113,-145.94531 179.0859,-145.94531 z m 548.4004,0 h 91.4004 c 100.9995,0 182.7988,81.89933 182.7988,182.79883 V 594.09961 685.5 l -91.3984,91.40039 h -91.4004 V 685.5 H 2148 l -91.4004,91.40039 h -91.4004 V 502.69922 c 0,-12.62493 1.2789,-24.95086 3.7129,-36.85352 17.0381,-83.31864 90.7133,-145.94531 179.0879,-145.94531 z m 365.5996,0 H 2605 h 91.4004 91.4004 c 100.9995,0 182.8988,81.89933 182.7988,182.79883 v 91.40039 c 0,100.9995 -81.7993,182.80078 -182.7988,182.80078 H 2696.4004 2605 2513.5996 V 685.5 H 2605 l 91.4004,-91.40039 h 45.6992 c 25.1999,0 45.7012,-20.49936 45.7012,-45.69922 0,-25.19984 -20.5013,-45.70117 -45.7012,-45.70117 H 2696.4004 2605 l -91.4004,-91.39844 z m 548.5,0 h 91.4004 91.4004 91.4004 91.3984 91.4004 v 91.40039 h -91.4004 -91.3984 -45.7012 c -25.1999,0 -45.6992,20.49936 -45.6992,45.69922 0,18.8999 11.5311,35.15489 27.9277,42.10156 5.4656,2.31556 11.4715,3.59766 17.7715,3.59766 H 3336.3008 3382 c 25.1999,0 45.6992,20.50131 45.6992,45.70117 0,18.89991 -11.5311,35.15489 -27.9277,42.10156 -5.4656,2.31556 -11.4715,3.59766 -17.7715,3.59766 h -45.6992 -91.4004 L 3153.5,502.69922 3062.0996,411.30078 Z M 548.40039,502.69922 c -25.19986,0 -45.70117,20.50131 -45.70117,45.70117 0,25.19989 20.50131,45.69922 45.70117,45.69922 25.19989,0 45.69922,-20.49933 45.69922,-45.69922 0,-25.19986 -20.39934,-45.70117 -45.69922,-45.70117 z m 1645.29881,0 c -25.1999,0 -45.6992,20.50131 -45.6992,45.70117 0,25.19989 20.4993,45.69922 45.6992,45.69922 6.3,0 12.3058,-1.2821 17.7715,-3.59766 16.3972,-6.94667 27.9297,-23.20166 27.9297,-42.10156 0,-12.59992 -5.1005,-24.02548 -13.3633,-32.30078 -8.2628,-8.2753 -19.6879,-13.40039 -32.3379,-13.40039 z m 365.6016,0 c 25.1999,0 45.6992,20.50131 45.6992,45.70117 0,25.19989 -20.4993,45.69922 -45.6992,45.69922 -6.3,0 -12.3058,-1.2821 -17.7715,-3.59766 -16.3972,-6.94667 -27.9297,-23.20165 -27.9297,-42.10156 0,-25.19986 20.5013,-45.70117 45.7012,-45.70117 z m 548.5,0 c 25.1999,0 45.6992,20.50131 45.6992,45.70117 0,25.19989 -20.4993,45.69922 -45.6992,45.69922 -6.325,0 -12.3441,-1.2821 -17.8145,-3.59766 -5.4704,-2.31555 -10.392,-5.66533 -14.5234,-9.80273 -8.2628,-8.27481 -13.3633,-19.69889 -13.3633,-32.29883 0,-25.19986 20.5013,-45.70117 45.7012,-45.70117 z m -1919.5,91.40039 c 25.1999,0 45.6992,20.50131 45.6992,45.70117 0,25.19989 -20.4993,45.69922 -45.6992,45.69922 -6.3,0 -12.3058,-1.2821 -17.7715,-3.59766 -16.3972,-6.94667 -27.9297,-23.20165 -27.9297,-42.10156 0,-25.19986 20.5013,-45.70117 45.7012,-45.70117 z M 3062.0996,685.5 h 91.4004 91.4004 91.4004 91.3984 l 91.4004,91.40039 h -91.4004 -91.3984 -91.4004 -91.4004 -91.4004 z"
     style=""
     id="path15" /><path
     d="m 228.5,0 c -30.79985,0 -60.80015,6.00006 -89,18 -27.19987,11.499943 -51.699714,28.000105 -72.599609,49 -20.999895,20.999895 -37.40006,45.39974 -49,72.59961 C 6.0004493,167.79946 0,197.70015 0,228.5 v 639.80078 c 0,30.79985 6.00006,60.80015 18,89 11.499943,27.19987 28.000105,51.69962 49,72.59962 20.999895,20.9998 45.39974,37.4 72.59961,49 28.19985,11.9 58.10015,18 89,18 H 3610.5996 c 30.7998,0 60.8002,-6 89,-18 27.2,-11.5 51.6998,-28.0002 72.5996,-49 21,-21 37.4,-45.39975 49,-72.59962 11.9,-28.19985 18,-58.10015 18,-89 V 228.5 c 0,-30.79985 -6,-60.80015 -18,-89 -11.5,-27.19987 -28,-51.699714 -49,-72.599609 -20.9998,-20.999895 -45.3996,-37.40006 -72.5996,-49 C 3671.1998,6.0004493 3641.2998,0 3610.5,0 Z m 0,45.699219 h 3382 c 100.9995,0 182.8008,81.801281 182.8008,182.800781 v 639.80078 c 0,100.9995 -81.8013,182.79882 -182.8008,182.79882 h -3382 c -100.9995,0 -182.800781,-81.79932 -182.800781,-182.79882 V 228.5 C 45.699219,127.5005 127.5005,45.699219 228.5,45.699219 Z"
     style="fill:url(#SVGID_1_)"
     id="path14" /><path
     d="m 502.69922,319.90039 c -100.9997,0 -182.79883,81.79913 -182.79883,182.79883 v 274.20117 h 91.40039 L 502.69922,685.5 h 91.40039 v 91.40039 H 685.5 L 776.90039,685.5 v -91.40039 -91.40039 c 0,-100.8997 -81.80108,-182.79883 -182.80078,-182.79883 z m 548.49998,0 c -100.99964,0 -182.79881,81.79913 -182.79881,182.79883 V 594.09961 685.5 776.90039 h 91.40039 91.39842 V 685.5 594.09961 548.40039 c 0,-25.19991 20.5012,-45.70117 45.7012,-45.70117 h 45.6992 91.4004 91.4004 V 411.30078 H 1234 l -91.4004,-91.40039 z m 548.4004,0 c -100.9997,0 -182.7988,81.79913 -182.7988,182.79883 v 91.40039 c 0,100.9997 81.7991,182.80078 182.7988,182.80078 h 274.2012 V 685.5 l -91.4004,-91.40039 H 1691 1645.3008 c -25.2,0 -45.7012,-20.49928 -45.7012,-45.69922 0,-25.19991 20.5012,-45.70117 45.7012,-45.70117 h 228.5 V 319.90039 h -91.4004 v 91.40039 H 1691 Z m 548.4004,0 c -100.9997,0 -182.8008,81.79913 -182.8008,182.79883 v 274.20117 h 91.4004 L 2148,685.5 h 91.4004 v 91.40039 h 91.4004 L 2422.1992,685.5 v -91.40039 -91.40039 c 0,-100.8997 -81.7991,-182.79883 -182.7988,-182.79883 z m 365.5996,0 v 91.40039 L 2605,502.69922 h 91.4004 45.6992 c 25.2,0 45.7012,20.50126 45.7012,45.70117 0,25.19994 -20.5012,45.69922 -45.7012,45.69922 h -45.6992 L 2605,685.5 h -91.4004 v 91.40039 H 2605 h 91.4004 91.4004 c 100.9997,0 182.7988,-81.80108 182.7988,-182.80078 v -91.40039 c 0.1,-100.8997 -81.7991,-182.79883 -182.7988,-182.79883 H 2696.4004 2605 Z m 548.5,0 v 91.40039 l 91.4004,91.39844 91.4004,91.40039 H 3336.3008 3382 c 25.2,0 45.6992,-20.49928 45.6992,-45.69922 0,-25.19991 -20.4992,-45.70117 -45.6992,-45.70117 h -45.6992 -45.7012 c -25.2,0 -45.6992,-20.49931 -45.6992,-45.69922 0,-25.19991 20.4992,-45.69922 45.6992,-45.69922 h 45.7012 91.3984 91.4004 v -91.40039 h -91.4004 -91.3984 -91.4004 H 3153.5 Z M 548.40039,502.69922 c 25.29994,0 45.69922,20.50126 45.69922,45.70117 0,25.19994 -20.49928,45.69922 -45.69922,45.69922 -25.19991,0 -45.70117,-20.49928 -45.70117,-45.69922 0,-25.19991 20.50126,-45.70117 45.70117,-45.70117 z m 1645.29881,0 c 25.3,0 45.7012,20.50126 45.7012,45.70117 0,25.19994 -20.5012,45.69922 -45.7012,45.69922 -25.2,0 -45.6992,-20.49928 -45.6992,-45.69922 0,-25.19991 20.4992,-45.70117 45.6992,-45.70117 z m 365.6016,0 c -25.2,0 -45.7012,20.50126 -45.7012,45.70117 0,25.19994 20.5012,45.69922 45.7012,45.69922 25.2,0 45.6992,-20.49928 45.6992,-45.69922 0,-25.19991 -20.4992,-45.70117 -45.6992,-45.70117 z m 548.5,0 c -25.2,0 -45.7012,20.50126 -45.7012,45.70117 0,25.19994 20.4012,45.69922 45.7012,45.69922 25.2,0 45.6992,-20.49928 45.6992,-45.69922 0,-25.19991 -20.4992,-45.70117 -45.6992,-45.70117 z m -1919.5,91.40039 c -25.2,0 -45.7012,20.50126 -45.7012,45.70117 0,25.19994 20.5012,45.69922 45.7012,45.69922 25.2,0 45.6992,-20.49928 45.6992,-45.69922 0,-25.19991 -20.4992,-45.70117 -45.6992,-45.70117 z M 3062.0996,685.5 v 91.40039 h 91.4004 91.4004 91.4004 91.3984 91.4004 L 3427.6992,685.5 h -91.3984 -91.4004 -91.4004 z"
     style="fill:url(#SVGID_00000000218044320164781310000010467304342273061786_)"
     id="path13" /></g>
</svg>
