<?xml version="1.0" encoding="UTF-8" standalone="no"?>
<!-- Generator: Adobe Illustrator 25.1.0, SVG Export Plug-In . SVG Version: 6.00 Build 0)  -->

<svg
   version="1.1"
   id="Layer_1"
   x="0px"
   y="0px"
   viewBox="0 0 3840 741.1"
   style="enable-background:new 0 0 3840 741.1;"
   xml:space="preserve"
   sodipodi:docname="Atari 7800-07.svg"
   inkscape:version="1.3.2 (091e20e, 2023-11-25)"
   xmlns:inkscape="http://www.inkscape.org/namespaces/inkscape"
   xmlns:sodipodi="http://sodipodi.sourceforge.net/DTD/sodipodi-0.dtd"
   xmlns="http://www.w3.org/2000/svg"
   xmlns:svg="http://www.w3.org/2000/svg"><defs
   id="defs16">
	
		<linearGradient
   id="SVGID_1_"
   gradientUnits="userSpaceOnUse"
   x1="1.08"
   y1="-1551.0638"
   x2="3838.9202"
   y2="-1551.0638"
   gradientTransform="matrix(1,0,0,-1,0,-898.4639)">
		<stop
   offset="0"
   style="stop-color:#F1784F"
   id="stop1" />
		<stop
   offset="0.2896"
   style="stop-color:#E0D647"
   id="stop2" />
		<stop
   offset="0.5478"
   style="stop-color:#73914F"
   id="stop3" />
		<stop
   offset="0.7713"
   style="stop-color:#4D7BBD"
   id="stop4" />
		<stop
   offset="1"
   style="stop-color:#444044"
   id="stop5" />
	</linearGradient>
	
	

		
		
	
			
		
			
		
				
				
				
				
				
				
			
				
				
				
				
			
					
					
					
				</defs><sodipodi:namedview
   id="namedview16"
   pagecolor="#ffffff"
   bordercolor="#666666"
   borderopacity="1.0"
   inkscape:showpageshadow="2"
   inkscape:pageopacity="0.0"
   inkscape:pagecheckerboard="0"
   inkscape:deskcolor="#d1d1d1"
   inkscape:zoom="0.1609375"
   inkscape:cx="1916.8932"
   inkscape:cy="369.70874"
   inkscape:window-width="2048"
   inkscape:window-height="1154"
   inkscape:window-x="0"
   inkscape:window-y="25"
   inkscape:window-maximized="0"
   inkscape:current-layer="Layer_1" />
<style
   type="text/css"
   id="style1">
	.st0{fill:#AD0E0E;}
	.st1{fill:#FFFFFF;}
	.st2{fill:url(#SVGID_1_);}
	.st3{fill:#606060;}
	.st4{fill:url(#SVGID_2_);}
	.st5{fill:url(#SVGID_3_);}
	.st6{fill:url(#SVGID_4_);}
</style>
<g
   id="g52"><path
     d="m 1.0996094,564.09961 v 177 H 3838.9004 v -177 z"
     style="fill:url(#SVGID_1_)"
     id="path52" /><path
     d="m 3202.3008,0 c -68.0999,0 -124.4017,28.19977 -162.6016,81.599609 -32.1998,44.899861 -49.8984,105.200981 -49.8984,169.800781 0,22.90551 2.2262,45.84349 6.7265,68.04688 5.692,11.66539 9.0155,23.96828 9.8379,36.73828 27.7645,82.29247 91.2133,146.61523 196.0352,146.61523 146.4301,0 212.1614,-125.49491 212.5801,-250.20117 -0,-0.40142 -0.08,-0.79782 -0.08,-1.19922 0,-0.38738 0.077,-0.7516 0.078,-1.13867 C 3414.673,185.99513 3397.01,126.13546 3364.9004,81.599609 3326.6005,28.19977 3270.4005,0 3202.3008,0 Z m 0,148.90039 c 51.1998,0 56.7988,68.70049 56.7988,101.90039 0,33.5999 -5.699,103.09961 -56.7988,103.09961 -51.1999,0 -56.8008,-69.49971 -56.8008,-103.09961 0,-33.1999 5.6009,-101.90039 56.8008,-101.90039 z"
     style="fill:#606060"
     id="path51" /><path
     d="m 3627.4004,0 c -68.0998,0 -124.3998,28.19977 -162.5996,81.599609 -32.2,44.899861 -49.9004,105.200981 -49.9004,169.800781 0,125.09963 65.7,251.40039 212.5996,251.40039 146.8996,0 212.5,-126.30076 212.5,-251.40039 0,-64.6998 -17.7001,-125.00092 -50,-169.800781 C 3751.8001,28.19977 3695.5002,0 3627.4004,0 Z m 0,148.90039 c 51.1998,0 56.7988,68.70049 56.7988,101.90039 0,33.5999 -5.599,103.09961 -56.7988,103.09961 -51.1999,0 -56.8008,-69.49971 -56.8008,-103.09961 0,-33.1999 5.6009,-101.90039 56.8008,-101.90039 z"
     style="fill:#606060"
     id="path50" /><path
     d="M 2212.0996,9.0996094 V 163.5 H 2411 L 2251.8008,492.40039 H 2430.5 l 159.9746,-367.64453 c 0.907,-21.48668 10.096,-41.646214 25.7793,-59.244141 l 24.5469,-56.4121096 z"
     style="fill:#606060"
     id="path49" /><path
     d="m 2793.4004,0 c -112.1997,0 -203.2012,57.39943 -203.2012,128.19922 0,47.29985 40.6006,88.40124 100.9004,110.70117 -66.3998,23.79993 -111.5,70.10055 -111.5,123.40039 0,77.59977 95.7015,140.5 213.7012,140.5 117.9996,0 213.6992,-62.90023 213.6992,-140.5 0.1,-53.19984 -45.0006,-99.50046 -111.4004,-123.40039 C 2955.8994,216.70046 2996.5,175.49907 2996.5,128.19922 2996.5,57.39943 2905.6001,0 2793.4004,0 Z m 0,103.80078 c 22.8999,0 41.5,18.60007 41.5,41.5 0,22.89994 -18.6001,41.5 -41.5,41.5 -22.9,0 -41.5,-18.60006 -41.5,-41.5 0,-22.89993 18.6,-41.5 41.5,-41.5 z m 0,185.29883 c 27.3999,0 49.5996,22.19969 49.5996,49.59961 0,27.29991 -22.1997,49.60156 -49.5996,49.60156 -27.4,0 -49.5996,-22.20165 -49.5996,-49.60156 0,-27.39992 22.1996,-49.59961 49.5996,-49.59961 z"
     style="fill:#606060"
     id="path48" /><path
     d="m 215,9.0996094 c 0,14.2999566 0.10039,28.5008236 -0.0996,42.8007816 -1,42.099873 -3.60041,84.198949 -9.90039,125.798829 -4.99998,32.7999 -12.39926,65.40126 -26.19922,95.70117 -11.69997,26.29992 -27.10006,51.10006 -46.5,72.5 C 113.50084,366.60033 91.199926,384.20082 66.5,397.30078 45.700063,408.20075 23.30032,416.50001 -0.09960937,420 v 72.19922 c 19.39994137,-2.7 38.50005537,-7.60002 57.00000037,-14 32.699901,-11.29997 63.800469,-27.9985 89.900389,-50.89844 29.19991,-24.69992 55.09966,-54.10049 71.59961,-88.90039 10.09997,-21.59994 18.29923,-44.30046 22.19922,-67.90039 5.69998,-34.1999 7.9,-68.8005 9.5,-103.40039 0.9,-23.99993 1.6,-47.90047 1.5,-71.900391 0,-28.699915 0.1,-57.399695 0,-86.0996096 z"
     style="fill:#606060"
     id="path47" /><path
     d="m 333.80078,9.0996094 c -22.39993,0.1 -44.90045,-3.905e-4 -67.40039,0.099609 0.1,109.6996712 0,219.4003312 0,329.0000012 0.1,51.39985 -0.20039,102.70171 0.0996,154.10156 22.39994,-0.2 44.90085,-0.10156 67.30078,-0.10156 z"
     style="fill:#606060"
     id="path46" /><path
     d="m 348.80078,9.0996094 c 0,26.3999206 -0.002,52.8008606 -0.10156,79.3007816 -0.3,46.599859 1.30001,93.298969 5.5,139.798829 2.19999,21.49994 4.60119,43.10006 10.20117,64 6.09998,20.79994 13.89925,41.20162 24.69922,60.10156 13.79996,24.19993 32.10006,45.70006 52.5,64.5 12.39996,11.49997 25.30004,22.40003 39.5,31.5 19.49994,12.59997 40.60006,22.49964 62.5,30.09961 18.39994,6.19998 37.20006,11.19883 56.5,13.79883 V 420 c -9.79997,-1.4 -19.50042,-3.80079 -28.90039,-6.80078 -33.6999,-10.79997 -64.80008,-29.59969 -90.5,-54.09961 -26.89992,-25.59993 -47.49887,-57.4001 -61.79883,-91.5 C 403.80044,232.29971 397.10077,194.0991 392.30078,156.19922 386.5008,107.39937 384.79922,58.199462 385.19922,9.0996094 Z"
     style="fill:#606060"
     id="path45" /><path
     d="M 866.29687,8.2539063 C 849.40962,8.3956295 832.47536,15.59965 821.90039,29.099609 811.30042,40.999574 809.49959,57.400044 804.59961,72 763.89973,212.09958 723.1991,352.2012 682.69922,492.30078 c 25.09992,0 50.20125,-0.1 75.20117,0 11.69997,-40.49988 23.50043,-81.10168 35.40039,-121.60156 48.69985,0 97.39976,-0.1 146.09961,0 11.69997,40.49988 23.29925,81.10168 35.19922,121.60156 h 75.59959 C 1007.5994,345.50122 964.69987,198.70034 922,51.800781 918.60001,40.000817 911.99958,28.999586 902.59961,21.099609 892.53714,12.305886 879.4314,8.1436772 866.29687,8.2539063 Z m 0.004,110.8457037 c 17.79995,60.89982 35.39967,121.80096 53.09961,182.80078 -35.39989,0 -70.80128,0.10039 -106.20117,-0.0996 17.69994,-60.89982 35.20162,-121.90135 53.10156,-182.70117 z"
     style="fill:#606060"
     id="path44" /><path
     d="M 1400.5313,8.0488281 C 1381.908,7.7292247 1363.1437,16.761765 1352.5,32.199219 c -8.2,10.999967 -9.9008,25.001209 -14.3008,37.701172 -40.8998,140.799579 -81.8986,281.500809 -122.3984,422.400389 h 75.0996 c 11.6,-40.59988 23.5992,-81.00168 35.1992,-121.60156 48.6999,-0.1 97.3005,0 145.9004,0 11.9,40.49988 23.4992,81.10168 35.1992,121.60156 25.3,-0.1 50.5012,0.0984 75.7012,-0.10156 C 1540.2005,345.49966 1497.5006,198.79956 1454.8008,52 c -5.4,-19.89994 -21.0001,-37.499232 -41.5,-42.1992187 -4.1813,-1.1062466 -8.4718,-1.6781985 -12.7695,-1.7519532 z m -1.1309,110.6503919 c 17.4,61.09982 35.2989,122.00174 52.7988,183.10156 h -105.7988 c 17.5,-60.99982 35.3,-122.00174 53,-183.10156 z"
     style="fill:#606060"
     id="path43" /><path
     d="M 993.80078,9.0996094 V 82.800781 c 33.59982,0 67.09932,-0.1 100.69922,0 V 492.30078 h 72.0996 V 82.800781 h 100.5996 V 9.0996094 Z"
     style="fill:#606060"
     id="path42" /><path
     d="m 1684.6992,9.0996094 c -7.3,-0.1999994 -14.6996,0.6000076 -21.5996,2.9999996 -23.5999,7.499978 -41.1988,30.901247 -41.2988,55.701172 0.2,141.599579 -4e-4,283.100029 0.1,424.599609 H 1694.5 c 0,-131.49961 -0.1,-262.90078 0,-394.40039 -0.1,-8.599974 7.7992,-15.899218 16.1992,-15.699219 18.6,-0.199999 37.2008,-0.0016 55.8008,-0.101562 26.9999,-0.899997 52.3992,19.600861 58.1992,45.800781 5,20.19994 5.5016,42.90084 -5.3984,61.30078 -14.3,24.49993 -40.0005,40.10003 -65.9004,50 -13.6,5.29999 -25.8004,15.50005 -30.9004,29.5 -6.6,18.19994 -3.5992,39.29888 7.3008,55.29883 37.0998,55.99983 73.9989,112.30095 111.2988,168.30078 28.5,-0.1 56.9005,0 85.4004,0 -38.8999,-58.39982 -78.5994,-116.30135 -116.6992,-175.20117 -4,-8.19997 -3.6004,-19.69963 4.0996,-25.59961 14.1,-10.39997 30.4992,-17.59886 43.6992,-29.29883 24.9,-21.59994 38.5996,-54.00009 41.0996,-86.5 3.7,-30.99991 2.2012,-63.90126 -12.2988,-92.201171 -20.9,-43.599868 -67.1002,-73.6000023 -115.5,-74.4999996 -28.7,0 -57.5012,0.1 -86.2012,0 z"
     style="fill:#606060"
     id="path41" /><path
     d="m 1964.5,9.0996094 c 0,161.0996806 4e-4,322.1014906 -0.1,483.2011706 25.5,0 51.0004,-0.1 76.4004,0 0.2,-160.99968 0.1,-322.10149 0.1,-483.2011706 z"
     style="fill:#606060"
     id="path40" /></g>
</svg>
