<?xml version="1.0" encoding="UTF-8" standalone="no"?>
<!-- Generator: Adobe Illustrator 25.4.1, SVG Export Plug-In . SVG Version: 6.00 Build 0)  -->

<svg
   version="1.1"
   id="Layer_1"
   x="0px"
   y="0px"
   viewBox="0 0 3839 1360.3"
   style="enable-background:new 0 0 3839 1360.3;"
   xml:space="preserve"
   sodipodi:docname="Atari Jaguar-11.svg"
   inkscape:version="1.3.2 (091e20e, 2023-11-25)"
   xmlns:inkscape="http://www.inkscape.org/namespaces/inkscape"
   xmlns:sodipodi="http://sodipodi.sourceforge.net/DTD/sodipodi-0.dtd"
   xmlns="http://www.w3.org/2000/svg"
   xmlns:svg="http://www.w3.org/2000/svg"><defs
   id="defs12">
	
	
	
	
	
	
	
	
	
	
	
	
</defs><sodipodi:namedview
   id="namedview12"
   pagecolor="#ffffff"
   bordercolor="#000000"
   borderopacity="0.25"
   inkscape:showpageshadow="2"
   inkscape:pageopacity="0.0"
   inkscape:pagecheckerboard="0"
   inkscape:deskcolor="#d1d1d1"
   inkscape:zoom="0.17349114"
   inkscape:cx="1919.4064"
   inkscape:cy="680.15002"
   inkscape:window-width="1800"
   inkscape:window-height="1037"
   inkscape:window-x="0"
   inkscape:window-y="44"
   inkscape:window-maximized="0"
   inkscape:current-layer="Layer_1" />
<style
   type="text/css"
   id="style1">
	.st0{fill:#FFFFFF;}
	.st1{fill:#ED1C24;}
	.st2{fill-rule:evenodd;clip-rule:evenodd;fill:#FFD100;}
	.st3{fill:#231F20;}
	.st4{fill:url(#SVGID_1_);}
	.st5{opacity:0.72;fill:#18180E;enable-background:new    ;}
	.st6{fill:url(#SVGID_00000103257351976251649830000003637968147371696309_);}
	.st7{fill:url(#SVGID_00000081625377573881546180000001274643343088661914_);}
	.st8{fill:url(#SVGID_00000087388834061464466230000013748336035336863167_);}
	.st9{fill:url(#SVGID_00000099623289534248577110000003293295551646786225_);}
	.st10{fill:url(#SVGID_00000178901939407673688590000000429560050741444501_);}
	.st11{fill:url(#SVGID_00000155837968126252466530000013078757712705362055_);}
	.st12{fill:url(#SVGID_00000061451037091144757040000010766937799568974469_);}
	.st13{fill:url(#SVGID_00000014610599447634473250000011396526159731620023_);}
	.st14{fill:url(#SVGID_00000062912120993472563410000013984485696824662665_);}
</style>
<g
   id="g24"><path
     d="m 3584.7305,1021.4102 c -2.6684,-0.064 -5.4493,0.9961 -8.2305,3.5898 6.7,27.4999 40.9008,31.2 57.3008,55 17.7999,1.4 33.3988,31.9996 48.2988,14.0996 -23.0999,-9.7 -33.4989,-36.3996 -55.7988,-47.5996 -11.2,0.7 -17.9008,-8.9992 -26.8008,-12.6992 -3.575,-6.6688 -8.8992,-12.2505 -14.7695,-12.3906 z"
     style="fill:#ed1c24"
     id="path24" /><path
     d="m 3694.6992,1100 c -6.7,2.2 -2.8992,8.8996 -3.6992,14.0996 6,11.1 17.2008,16.3008 28.3008,19.3008 39.3998,20.8999 76.5993,52.0988 119.6992,57.2988 -31.9999,-26.0999 -70.5997,-40.9 -105.5996,-64 -14.1,-5.9 -23.0012,-24.4992 -38.7012,-26.6992 z"
     style="fill:#ed1c24"
     id="path23" /><path
     d="m 3649.8457,1149.0625 c -4.5014,0.198 -7.6703,5.4117 -3.4453,9.6367 25.2999,18.6 50.5997,37.2008 78.0996,49.8008 5.2,1.5 13.3008,7.4 17.8008,0 -29,-17.8 -57.2013,-43.7992 -89.2012,-58.6992 -1.1062,-0.5625 -2.2151,-0.784 -3.2539,-0.7383 z"
     style="fill:#ed1c24"
     id="path22" /><path
     d="m 3681.9707,1252.3984 c -2.565,-0.019 -4.998,1.6426 -7.2715,6.002 10.4,9 23.8012,21.6004 35.7012,16.4004 V 1271 c -10.2594,-0.5359 -20.0507,-18.5391 -28.4297,-18.6016 z"
     style="fill:#ed1c24"
     id="path21" /><path
     d="m 1463.5996,139 c -44.5998,6.69998 -87.0005,16.30045 -124.9004,37.90039 0,6.69998 -7.4992,7.49922 -12.6992,6.69922 -31.1999,17.09995 -43.8997,57.19966 -73.5996,73.59961 -14.8,32.6999 -48.3012,52.8001 -58.7012,87 -57.2998,85.49974 -62.4991,205.20187 -37.1992,307.10156 24.6,55.09984 66.2002,109.2985 125,132.39844 40.1999,23.79992 91.5005,31.20075 135.4004,19.30078 32.6999,-5.19998 46.8993,-37.89928 67.6992,-60.19922 17.1,-1.5 22.3012,14.10003 32.7012,24.5 20.7999,-3.69999 8.2,36.49957 33.5,23.09961 3.7,3.79999 -8e-4,9.69923 3.6992,12.69922 2.9,-1.5 6.6004,-1.49923 8.9004,-5.19922 -1.5,-12.69996 -5.2012,-26.1012 -3.7012,-37.20117 -27.4999,-118.19964 40.1004,-220.79996 40.9004,-336.09961 -11.2,-8.89997 -20.1,9.70117 -32,11.20117 -4.5,-2.29999 -2.8992,-6.80119 -3.6992,-11.20117 -3,-11.89997 -12.6996,-14.10038 -23.0996,-8.90039 -22.3,24.49992 -52.1016,31.2016 -78.1016,44.60156 -8.9,6.69998 -34.2,-7.4015 -29,14.89844 -19.2999,4.39998 -46.0988,7.40124 -51.2988,29.70117 -37.1999,2.3 -24.5009,46.19886 -57.3008,55.79883 -6,5.99998 2.2012,9.70039 6.7012,10.40039 31.1999,-20.79994 66.8986,-30.49966 100.3984,-46.09961 5.2,-6.69998 12.6012,2.99923 5.2012,6.69922 17.8,-0.7 33.3989,-11.89844 49.7988,-10.39844 -11.2,27.49992 -14.1996,51.29892 -21.5996,80.29883 5.9,27.49991 -17.0988,55.00086 3.7012,80.30078 -10.4,8.19997 7.3984,12.69964 7.3984,21.59961 -28.2999,24.59993 -62.4986,39.39997 -101.8984,30.5 -44.5999,-7.39998 -81.1009,-41.5997 -112.3008,-73.59961 -37.9999,-54.99983 -35.0004,-135.30097 -16.4004,-197.80078 37.1999,-93.59972 133.0999,-161.29893 221.5996,-194.79883 24.6,-6.59998 50.6005,-7.40081 72.9004,-19.30078 8.2,-8.19997 8e-4,-17.90081 -3.6992,-25.30078 4.5,-2.2 8.9992,-4.49922 12.6992,-6.69922 6,-8.19997 -2.2004,-16.40039 -8.9004,-14.90039 -24.5999,10.39997 -22.2985,-21.59884 -42.3984,-26.79883 11.2,-31.19991 -26.7012,-11.90085 -35.7012,-35.80078 z"
     style="fill:#ed1c24"
     id="path20" /><path
     d="m 1852.5957,89.277344 c -11.2082,-1.706246 -14.9703,17.260926 -26.6953,14.023436 -6.6,-5.99998 -12.6008,2.89844 -17.8008,5.89844 -32.6999,20.79994 -46.0988,59.40049 -57.2988,94.40039 -23,28.29991 -32.7016,62.50009 -46.1016,94.5 C 1682.3993,353.89944 1649.7,405.1994 1640,466.19922 c -20.9,25.99992 -14.2008,64.70048 -28.3008,94.40039 -25.1999,52.79984 -27.4996,113.80096 -14.0996,173.30078 8.9,8.99997 8.2008,22.39885 20.8008,29.79883 33.4999,18.59994 69.9004,12.59995 101.9004,-3 43.1998,-37.99989 85.6001,-80.40012 123.5,-122 8.2,13.39996 -10.4004,19.30122 -8.9004,34.20117 -12.7,28.29991 -6.0012,50.59892 -11.2012,81.79883 9.7,5.89998 14.1004,18.60003 8.9004,29 26,49.79985 83.2013,11.90116 119.7012,6.70117 -17.1,14.89996 -16.4,37.19965 -32,52.09961 0,11.19997 -13.4004,13.40082 -10.4004,26.80078 -15.6,8.19997 -11.2008,31.29924 -26.8008,37.19922 -3.7,17.09995 -21.5988,29.69965 -25.2988,44.59961 5.2,9.59997 11.8984,-3.69881 17.8984,2.20117 -1.5,9.69997 -5.1992,20.09886 -3.6992,28.29883 28.1999,0 33.4008,-32.00044 49.8008,-48.40039 6.7,6.69998 -5.9008,26.00155 11.1992,21.60156 8.9,-12.59996 17.1,-26.0012 30.5,-37.20117 0,5.99998 -5.2,13.39964 -6,21.59961 2.2,1.5 4.4004,4.5 7.4004,3 27.4999,-26.79992 45.4,-63.99932 62.5,-98.19922 1.5,-4.49999 9.7004,-19.30036 16.4004,-10.40039 0.7,2.99999 7.3984,5.19999 10.3984,1.5 5.2,-19.29994 20.1008,-34.90006 26.8008,-53.5 41.6999,-64.69981 75.1009,-132.29903 110.8008,-199.29883 4.4,-6.59998 10.3988,-16.30078 19.2988,-16.30078 -5.9,-16.39995 13.3996,-9.00042 20.0996,-17.90039 2.2,0.7 1.5,3.70117 1.5,5.20117 5.3,-2.19999 11.9004,-2.20119 16.4004,-6.70117 27.5,-2.2 39.4005,-32.00041 65.4004,-37.90039 9,-4.39999 22.3008,-3.69964 26.8008,-14.09961 18.5999,-0.7 32.6996,-17.0996 50.5996,-14.09961 3,31.99991 -6.7012,69.20049 -3.7012,101.90039 -7.5,18.59994 5.9004,34.89887 8.9004,49.79883 -18.6,27.49991 -3,62.50009 0,93 5.9,-4.49999 1.5004,-20.79884 10.4004,-25.29883 8.2,8.19997 0,19.39886 0,28.29883 14.1,11.89996 2.1996,37.20161 12.5996,52.10156 -3,8.19997 1.5012,17.09886 5.2012,25.29883 6.7,4.39998 10.3996,-9.69997 14.0996,0 5.9,11.89997 -8.9004,11.09962 -11.9004,15.59961 5.2,6.69998 2.8996,19.30156 14.0996,20.10156 1.5,11.89997 5.9008,30.49924 -11.1992,35.69922 5.9,3.69999 3.7004,10.39962 8.9004,14.09961 3.7,0 7.3984,-0.69923 8.8984,-3.69922 9,8.89997 6,25.29925 6,35.69922 2.2,2.99999 6.7012,5.9004 5.2012,10.40039 5.9,3.69999 5.2004,-5.2004 10.4004,-8.90039 -3.7,-27.49992 8.1992,-60.19931 3.6992,-90.69922 31.9999,-216.39935 20.8005,-457.40024 71.4004,-665.59961 -3.7,-2.99999 -0,-8.20118 -3.7012,-11.20117 -23.7999,-11.89997 -41.6993,-5.20041 -67.6992,-11.90039 -9.6,0.7 -6.6004,-10.49845 -7.4004,-16.39844 -9,-4.49998 -20.9,-10.40039 -33.5,-10.40039 -12.6,6.69998 -13.2996,23.10003 -14.0996,33.5 3,39.39988 -39.3993,54.9989 -64.6992,80.29883 0.7,3.69999 -6.0012,4.5004 -3.7012,8.90039 -19.4,12.69996 -31.9992,31.30044 -44.6992,48.40039 -17.1,11.19997 -14.1012,34.20041 -35.7012,40.90039 5.2,31.99991 -43.1992,31.29891 -37.1992,58.79883 -2.2,3.69999 -5.9004,4.50117 -8.9004,2.20117 -8.9,19.39994 -33.4992,31.99968 -37.1992,55.09961 -24.5,22.29994 -21.6001,63.20042 -59.5,71.40039 -6.7,21.59994 -29.6996,20.10003 -44.5996,32 -7.4,16.39995 -29.0016,20.10003 -44.6016,29 -9.7,8.99997 8.9004,7.50042 5.9004,17.90039 -0.8,13.29996 -17.1004,19.99847 -14.9004,31.89844 16.4,-4.39999 33.5004,-11.89962 48.4004,-14.09961 -21.4999,43.79987 -61.7,75.80131 -84,119.70117 -3.7,4.49999 -7.4004,-0.70118 -10.4004,-3.70117 -10.4,-1.5 -19.3,-12.69964 -23,-21.59961 -5.2,-13.39996 0.7,-27.50043 1.5,-40.90039 49.0999,-145.09957 107.1014,-285.6004 182.2012,-419.5 v -11.19922 c 0.7,-14.19996 -13.3996,-17.89962 -23.0996,-23.09961 -1.5,-6.69998 4.4992,-10.40158 6.6992,-15.60156 4.5,-10.39997 -3.7004,-20.10003 -8.9004,-29 -14.9,-8.19997 -27.5004,-7.39998 -42.4004,0 -6,-15.59996 -23.1,-5.89964 -32,-14.09961 -22.2999,17.09995 -29.6996,43.20006 -44.5996,64 0.7,11.19997 -17.0992,16.40081 -11.1992,26.80078 -17.2,8.99997 -20.9,34.19966 -33.5,50.59961 -20.1,12.59996 15.5988,22.29926 -3.7012,35.69922 -5.2,2.29999 -11.1984,9.70116 -16.3984,6.70117 2.2,5.89998 -3.7,8.89963 -1.5,14.09961 -11.9,11.89997 -8.2012,27.49965 -3.7012,41.59961 -17.9,7.39997 -17.9004,32.00084 -17.9004,51.30078 -20.0999,12.59997 -5.1996,39.40004 -21.5996,53.5 -3.7,51.99985 -59.5005,87.69932 -95.9004,121.19922 -7.4,17.79994 -28.1984,22.30044 -37.8984,37.90039 -25.3,13.29996 -48.3009,52.70077 -81.8008,48.30078 -11.9,-5.89998 -12.6004,-21.6012 -8.9004,-32.70117 21.6,-76.69977 45.4002,-152.49941 94.5,-217.19922 10.4,-43.09987 35.0001,-81.00129 61,-118.20117 14.9,-20.09994 3.8008,-51.29927 28.3008,-67.69922 14.8,-35.69989 40.8,-67.0005 53.5,-103.40039 -7.5,-16.39995 -20.1,-11.89964 -32,-20.09961 20.7999,-18.59994 -17.1012,-28.29967 -5.2012,-47.59961 -1.5,-3.699988 -4.3988,-6.700007 -7.2988,-8.999999 -1.95,-1.212497 -3.7035,-1.879298 -5.3047,-2.123047 z m 528.0039,192.623046 c -0.7,5.89998 1.5012,9.70001 5.2012,12.5 5.3,0.7 10.3992,-5.9004 11.1992,-8.90039 0.7,20.09994 -13.3992,36.50084 -11.1992,55.80078 -9.6,3 -11.9004,14.89964 -10.4004,23.09961 12.6,10.39997 -8.9,14.90005 -1.5,30.5 -22.3,-14.19996 -38.7008,8.19963 -57.3008,14.09961 -3.7,19.39994 -28.9992,12.69964 -35.6992,23.09961 h -5.2012 c 23.8,-54.99984 66.2005,-101.89937 104.9004,-150.19922 z"
     style="fill:#ed1c24"
     id="path19" /><path
     d="M 1071,0 C 1026.3001,7.4999775 981.69987,14.200022 937,21.5 804.60039,39.299946 676.6992,77.999666 542.09961,96.599609 448.39989,101.79959 365.89893,129.29958 270.69922,121.09961 c -13.39996,-1.5 -14.79961,8.89964 -15.59961,20.09961 0.7,14.09995 17.80002,9.70039 24.5,10.40039 5.99998,20.09994 -23.00042,6.00119 -33.40039,12.70117 -7.39998,4.39999 -7.39844,11.89885 -7.39844,19.29883 2.3,8.19997 8.99846,9.70117 16.39844,11.20117 5.19998,6.59998 18.60156,8.09886 15.60156,19.29883 -5.29998,8.99997 -13.40159,17.20039 -24.60156,16.40039 0.7,1.5 6.69998,3.69922 1.5,5.19922 3.69999,11.89996 17.10081,0.001 26.80078,3.70117 4.49999,7.49998 5.99923,15.69963 11.19922,23.09961 91.39973,-2.3 180.70066,-22.30003 272.90039,-30.5 0.7,1.5 2.20117,2.19922 3.70117,3.69922 -35.69989,160.69952 -74.40021,320.602 -146.5,465.60156 C 363.00094,786.90053 292.29967,900.70003 181.5,912.5 122.70018,919.29998 84.099082,876.89953 38.699219,850.09961 37.199223,837.39964 26.800364,833.69998 17.900391,828.5 15.700397,826.3 17.199985,821.10079 12,823.30078 c -5.999982,1.5 -12.70038822,4.49846 -11.90039063,11.89844 C 29.799521,919.29896 121.29943,945.2997 192.69922,975.09961 313.99886,1011.5995 408.39981,910.40013 474.59961,823.40039 539.29941,757.20059 560.90012,673.89977 601,598 638.89988,470.80038 685.00045,346.59881 706.40039,212.69922 c 17.79995,-8.09998 33.50006,-19.29883 55,-17.79883 5.99998,-7.39997 25.29959,-17.90003 20.09961,-30.5 34.2999,-3.69999 67.69931,-19.30003 99.69922,-32 -0.7,-1.5 -2.19922,-2.20117 -3.69922,-3.70117 19.29994,-16.39995 47.59928,-9.69888 66.19922,-26.79883 -6.69998,-25.99992 29,-17.100457 29,-39.40039 -0.8,-1.499995 -7.49923,5.199985 -11.19922,0 -11.09997,0.799997 -31.89998,1.49916 -24.5,-17.800781 46.89986,-11.199967 97.5009,-14.199631 145.8008,-21.59961 5.3,-4.499986 13.3984,-4.500408 16.3984,-10.40039 C 1096.9992,-1.4007392 1082.1,0 1071,0 Z"
     style="fill:#ed1c24"
     id="path18" /><path
     d="m 1079.4082,121.56445 c -8.8506,-0.23632 -18.2324,3.56056 -24.6074,7.43555 -11.1,17.09995 -31.9008,6.60039 -49.8008,7.40039 -22.29994,0 -17.80002,25.99925 -23,37.19922 -16.39995,3.69999 -9.70041,-14.89963 -16.40039,-21.59961 -8.99997,2.2 -13.39964,-2.20077 -21.59961,2.19922 -4.49999,19.29994 -11.19964,37.90005 -23.09961,55 -31.89991,25.29992 -35.70005,65.50127 -53.5,98.20117 -15.69995,0.7 -1.50043,14.79883 -16.40039,17.79883 -10.49997,14.09995 -13.40083,36.40081 -29.80078,48.30078 -3.69999,26.09992 -37.89844,49.0997 -37.89844,78.09961 0,12.59996 -11.2016,24.5012 -23.10156,32.70117 7.39997,22.29994 -15.69964,37.90006 -23.09961,56.5 -6.69998,3 -17.09962,0.69847 -20.09961,8.89844 -14.09996,0 -32.00042,6.00042 -42.40039,16.40039 2.89999,2.19999 12.60038,2.20041 8.90039,7.40039 -2.99999,17.79994 20.1008,8.89962 26.80078,14.09961 -2.29999,8.19997 -9.70118,14.89964 -12.70117,23.09961 8.19997,14.19995 -15.60036,14.90082 -7.40039,28.30078 -18.59994,22.99993 -31.19847,49.79968 -40.89844,75.09961 C 636.70082,722.19958 640.39997,737.10003 630,746 c -11.89997,25.99992 -29.80003,52.00087 -39.5,80.30078 12.69996,8.99997 -11.20039,15.59886 -10.40039,25.29883 -13.39996,0 -2.99925,13.4004 -11.19922,17.90039 1.5,18.59994 -19.30078,26.70084 -19.30078,48.30078 -1.5,17.79995 7.39998,26.69967 1.5,46.09961 23.79993,-11.89997 26.80043,-41.60006 40.90039,-62.5 h 3.80078 c 5.89999,8.89997 -2.30119,21.60003 -6.70117,30.5 -3.69999,4.39999 -2.1988,16.29961 5.20117,14.09961 16.29995,-34.99989 28.99889,-72.20048 51.29883,-103.40039 2.99999,16.29995 -3.00041,33.40083 -8.90039,48.30078 16.39995,13.39996 -7.39998,31.99965 0,46.09961 8.89997,-8.09997 11.9008,-22.20042 17.80078,-33.40039 -5.19998,-26.09992 27.50078,-31.2989 25.30078,-55.79883 43.09988,-90.69973 78.79858,-184.40066 126.39844,-272.90039 12.69996,0.8 20.80003,-9.69962 30.5,-14.09961 44.59986,-13.39996 93.0017,-29.80045 137.60156,-48.40039 L 978,516.09961 c 1.5,46.09986 3.69922,103.40132 5.19922,151.70117 -10.39997,24.59993 17.80038,40.8993 7.40039,67.69922 -14.79996,11.89997 4.5,29.79966 3,46.09961 5.99998,7.49997 7.50039,20.90038 17.90039,17.90039 8.9,-9.69997 -1.4996,-31.29923 8.9004,-37.19922 -9.7,26.79992 26.6996,38.70008 12.5996,62.5 1.5,12.69997 2.3004,26.80002 16.4004,32 6.7,-20.09994 -8e-4,-47.60123 12.6992,-69.20117 10.4,2.19999 11.1008,18.60081 19.3008,26.80078 17.1,9.69997 10.3996,-14.19963 14.0996,-21.59961 -2.3,-170.99949 1.4008,-353.20129 17.8008,-522.80078 -0.7,-31.29991 14.1,-64.00008 -1.5,-91.5 -30.4,2.2 -9.6008,-35.70083 -17.8008,-51.30078 -4.1625,-3.89999 -9.2815,-5.49297 -14.5918,-5.63477 z M 978,289.40039 c 2.2,50.49985 -3.70078,97.40015 -2.30078,148 -22.99994,10.39997 -50.49848,17.10046 -65.39844,39.40039 -13.39996,-5.19998 -25.3012,1.49845 -35.70117,7.39844 -5.99998,8.99997 -3.79967,23.10038 -21.59961,19.40039 -2.2,-4.49999 -2.2,-9.69923 0,-14.19922 31.29991,-62.49981 62.49933,-124.20135 99.69922,-183.70117 6.69998,17.89994 15.60158,-2.19845 20.10156,-7.39844 0,-3.69999 3.69922,-5.9004 5.19922,-8.90039 z"
     style="fill:#ed1c24"
     id="path17" /><path
     d="m 3001.8008,105.90039 c -15.6,16.29995 -34.2008,-2.19958 -49.8008,8.90039 -15.6,19.29994 -43.9,14.09884 -64,17.79883 -29.6999,-5.19999 -58.6993,12.59961 -89.1992,15.59961 -12.6,12.59996 -33.4008,11.90003 -48.3008,21.5 -0.7,-0.8 -1.5,-0.8 -1.5,-1.5 -14.9,3.69999 -29.6996,13.40156 -44.5996,12.60156 -8.2,-0.8 -11.2004,6.69845 -14.9004,11.89844 -28.9999,4.49998 -55.0001,26.8012 -85.5,34.20117 -11.9,11.89997 -5.2008,31.99964 -19.3008,43.09961 -12.7,-0.8 -20.7992,15.60037 -34.1992,8.90039 3,13.39996 -5.1992,20.79926 -5.1992,35.69922 5.9,20.89994 32.6992,0.79967 35.6992,23.09961 -1.5,36.39989 46.7996,-6.69989 46.0996,30.5 36.3999,20.09994 66.8997,-20.89885 98.0996,-26.79883 -4.5,23.79993 -18.5996,43.09929 -23.0996,67.69922 -11.9,12.69996 -14.0988,31.99965 -17.7988,46.09961 -30.5,63.19981 -43.9012,133.90176 -67.7012,200.10156 -2.2,5.89999 -4.4988,17.79883 5.2012,19.29883 -0.8,14.09996 -10.5016,24.50001 -23.1016,29 -12.7,27.49991 -17.8,58.00008 -30.5,85.5 5.9,2.89999 14.8012,7.39963 5.2012,14.09961 -16.4,-1.5 -4.5004,22.30003 -11.9004,30.5 11.9,10.39997 -2.2004,14.1008 -8.9004,19.30078 -11.2,31.99991 -46.7988,68.39931 -25.2988,98.19922 -16.3,13.39996 0,31.30043 0,46.90039 12.7,6.59999 11.8996,-16.39963 21.5996,-23.09961 6,7.49998 0.8,23.10078 0,28.3008 19.4,-16.39999 16.3988,-48.30048 26.7988,-71.40041 2.2,-8.19997 7.4008,-12.60039 17.8008,-10.40039 7.5,10.39997 -0.7008,20.80003 6.6992,32 24.5,-53.59984 46.1005,-108.60055 69.9004,-162.90039 19.3,5.89998 -0.7996,26.0012 10.4004,34.20117 7.4,-5.19998 13.3008,-8.90081 16.3008,-17.80078 27.5999,-126.39962 50.5989,-253.60114 90.7988,-374.80078 5.9,0 3.7004,7.40039 8.9004,7.40039 15.6,-33.4999 18.4997,-73.60048 41.5996,-101.90039 2.2,0.8 8.9012,4.50118 5.2012,6.70117 0,4.49999 0.6992,8.20039 5.1992,8.90039 8.2,-16.29995 20.7996,-30.50084 23.0996,-49.80078 2.9,-22.39994 29.6996,-14.90082 43.0996,-26.80078 51.2999,-8.99997 108.5002,-1.49949 140.5,39.40039 9,22.39993 -6.6996,39.40084 -14.0996,57.30078 -22.2999,28.19991 -46.1004,55.80009 -63.9004,85.5 -8.2,2.99999 -11.0988,-5.20117 -17.7988,-5.20117 -27.5,19.29994 -41.7012,-29.7 -66.2012,-29 -1.5,4.49998 -14.0984,14.10081 -7.3984,23.80078 8.9,17.09995 42.4,22.99968 30.5,46.09961 -14.1,5.19998 -29.0004,5.89997 -42.4004,-1.5 -16.4,2.29999 -11.2008,22.39961 -26.8008,24.59961 -0.8,8.09997 8.9004,7.40158 11.9004,14.10156 17.1,2.2 23.0992,22.30003 35.6992,30.5 17.8,-5.19998 30.5016,8.99846 44.6016,16.39844 7.5,25.29992 36.4996,32.70083 52.0996,49.80078 0.7,21.59994 24.4992,35.69966 35.6992,52.09961 11.2,6.79998 29,5.99966 32,23.09961 99.6997,49.09985 159.1007,144.30019 248.4004,210.5 107.0997,63.8998 197.8007,156.20168 303.4004,223.10158 3.7,3 11.9004,2.1988 8.9004,-5.2012 -98.0997,-52.0998 -171.0003,-150.99939 -262.5,-212.69921 -1.5,-2.19999 3,-3.00118 1.5,-5.20117 -21.6,-23.79993 -48.4005,-46.89851 -74.4004,-71.39844 -68.4998,-40.19988 -122.7006,-113.8001 -193.4004,-148 5.2,-2.99999 13.4004,-1.50118 16.4004,-5.20117 -36.3999,-30.49991 -73.5998,-59.49933 -107.0996,-96.69922 -34.9999,-7.39997 -43.1005,-49.80045 -71.4004,-69.90039 -1.5,-4.49999 -10.4,-9.69923 -1.5,-14.19922 11.9,6.69998 23.1,19.40003 32,30.5 5.9,5.89999 27.5,-6.00033 21.5,12.59961 14.9,13.39996 37.8988,20.09927 51.2988,37.19922 5.2,6.69998 19.4016,11.19996 20.1016,-1.5 9,8.19997 18.6996,19.30003 24.5996,30.5 36.3999,24.49992 49.8005,72.90003 94.4004,85.5 18.5999,22.29993 35.7,51.30003 61,64 80.9997,53.49984 148.6991,116.00018 226.7988,177 17.1,11.89997 29.6997,26.8012 46.0996,37.20117 21.6,8.89997 38.7001,53.49992 62.5,32.00002 -3.8,-8.2 -11.1996,-19.40159 -21.5996,-23.10158 -15.6,-37.19989 -54.3004,-29.80011 -72.9004,-64 -42.2998,-28.99991 -80.9993,-69.89854 -119.6992,-103.39844 -31.9999,-46.79986 -88.5001,-61.70015 -117.5,-113 -19.4,-20.79994 -50.6,-22.30164 -62.5,-47.60156 -41.6999,-32.69991 -66.2005,-81.00011 -101.9004,-116 -11.2,-8.19997 -25.3,-17.90003 -32,-29 C 3120.6993,477.49934 3224,400.20048 3228.5,299.80078 c 2.2,-52.79984 -17.9009,-96.70167 -58.8008,-131.60156 -34.1998,-21.69994 -68.3997,-54.29961 -107.0996,-53.59961 -17.1,-16.399952 -43.8989,2.20075 -60.7988,-8.69922 z"
     style="fill:#ed1c24"
     id="path16" /><path
     d="m 2810.7031,528.7207 c -7.0118,0.18824 -13.0976,4.25394 -17.5039,15.87891 13.4,11.19997 1.5,17.90003 0,30.5 6.7,11.09997 20.1,8.90039 32,8.90039 8.2,17.09995 29.0004,8.2004 40.9004,10.40039 7.5,11.89997 12.6996,23.79925 23.0996,34.19922 34.3,18.59994 61.0009,52.00087 87.8008,81.80078 3.7,14.09996 18.6008,14.89886 26.8008,25.29883 27.5999,7.39997 30.4989,43.90003 58.7988,55 35.6999,20.79994 73.7001,43.10089 94.5,80.30078 68.3998,17.09995 107.0998,95.99931 168.0996,127.19922 10.4,8.89998 22.3012,19.30078 35.7012,17.80078 92.2997,82.4997 194.0999,144.2999 287.0996,224.5996 3,3 9.6992,3 11.1992,0 -22.2999,-32.7999 -61.8,-60.9989 -91.5,-89.2988 -43.1998,-36.4999 -97.3997,-46.9002 -137.5996,-93 -62.4998,-58.69986 -113.8002,-116.00018 -181.5,-169.50002 -24.4999,-6.69998 -45.3004,-21.60003 -68.4004,-33.5 -19.3999,-37.99988 -61,-65.50008 -94.5,-93 -4.4,-25.29992 -33.3988,-29.70161 -49.7988,-44.60156 -32.7999,-53.59984 -91.5001,-87.79976 -125,-139.09961 -10.4,-0.7 -18.6008,-7.39963 -26.8008,-12.59961 -4.5,-9.69997 -11.8992,-17.1004 -21.6992,-21.40039 -16.3625,2.0625 -36.2712,-16.29302 -51.6973,-15.87891 z"
     style="fill:#ed1c24"
     id="path15" /><path
     d="m 2804.6836,608.47266 c -4.8546,-0.0668 -9.8281,0.9832 -14.9844,3.62695 -8.9,21.59994 21.6,18.60003 32,29 2.2,4.39998 2.2004,11.89961 7.4004,14.09961 8.9,28.99991 41.6012,22.30044 60.2012,39.40039 5.9,55.79983 75.7985,66.90015 94.3984,117.5 50.5999,33.4999 82.601,98.89964 142.8008,107.09961 4.5,8.99997 5.2004,20.1008 14.9004,25.30078 174.0994,146.4996 360.7005,268.5012 537,406.8008 8.9,2.9 17.0988,8.8984 26.7988,8.8984 -64.6998,-59.4998 -141.3001,-110.7997 -209,-168.0996 -12.6,-10.4 -36.3984,-10.4 -39.3984,-32 -16.4,2.3 -27.5012,-13.3 -38.7012,-21.5 1.5,-16.4 -22.2996,-8.1996 -20.0996,-23.0996 -22.3,-17.1 -49.1004,-31.2008 -72.9004,-49.8008 -1.5,-26.6999 -33.3996,-17.0985 -44.5996,-39.3984 -28.2999,-3 -39.3993,-35.70161 -64.6992,-46.10158 -1.4,-9.59997 -8.1008,-20.79881 -19.3008,-16.29883 -13.4,-13.39996 -43.1004,-17.80046 -39.4004,-40.90039 -19.4,-18.59994 -37.9993,-54.30035 -69.1992,-40.90039 -15.6,-20.09994 -29.6996,-40.90006 -41.5996,-62.5 -37.1999,-33.4999 -81.1016,-65.39896 -107.1016,-110.79883 0.7,-19.29994 -11.8988,-33.5016 -26.7988,-46.10156 -14.9,-9.69997 -33.4996,-16.40004 -46.0996,-29 -21.775,-3.65624 -40.5808,-24.93711 -61.6172,-25.22656 z"
     style="fill:#ed1c24"
     id="path14" /><path
     d="m 2677.3008,833.80078 c -27.5,8.19998 -14.1008,42.40004 -25.3008,62.5 -2.2,2.9 -5.2004,3.69922 -8.9004,3.69922 -2.2,3 -6.6004,5.20039 -7.4004,8.90039 9.7,2.2 9.0004,14.09961 16.4004,15.59961 17.1,-25.29994 30.5012,-52.80084 34.2012,-83.30078 -3,-3 -6,-5.99844 -9,-7.39844 z"
     style="fill:#ed1c24"
     id="path13" /></g>
</svg>
