<?xml version="1.0" encoding="UTF-8" standalone="no"?>
<!-- Generator: Adobe Illustrator 25.0.0, SVG Export Plug-In . SVG Version: 6.00 Build 0)  -->

<svg
   version="1.1"
   id="Layer_1"
   x="0px"
   y="0px"
   viewBox="0 0 3840 363.07"
   style="enable-background:new 0 0 3840 363.07;"
   xml:space="preserve"
   sodipodi:docname="Atari Lynx-04.svg"
   inkscape:version="1.3.2 (091e20e, 2023-11-25)"
   xmlns:inkscape="http://www.inkscape.org/namespaces/inkscape"
   xmlns:sodipodi="http://sodipodi.sourceforge.net/DTD/sodipodi-0.dtd"
   xmlns="http://www.w3.org/2000/svg"
   xmlns:svg="http://www.w3.org/2000/svg"><defs
   id="defs6">
	
	

		
		
		
		
		
		
		
		
		
	
		
		
		
	
			
			
		
			
			
		</defs><sodipodi:namedview
   id="namedview6"
   pagecolor="#ffffff"
   bordercolor="#000000"
   borderopacity="0.25"
   inkscape:showpageshadow="2"
   inkscape:pageopacity="0.0"
   inkscape:pagecheckerboard="0"
   inkscape:deskcolor="#d1d1d1"
   inkscape:zoom="0.18776042"
   inkscape:cx="1917.337"
   inkscape:cy="181.08183"
   inkscape:window-width="1800"
   inkscape:window-height="1037"
   inkscape:window-x="0"
   inkscape:window-y="44"
   inkscape:window-maximized="0"
   inkscape:current-layer="Layer_1" />
<style
   type="text/css"
   id="style1">
	.st0{fill:#FFCC00;}
	.st1{fill-rule:evenodd;clip-rule:evenodd;fill:#FFCC00;}
	.st2{fill-rule:evenodd;clip-rule:evenodd;fill:#FF0000;}
	.st3{fill:#FF0000;}
</style>
<g
   id="g19"><path
     d="M 603.99023,0.0390625 V 256.06055 H 810.69922 V 0.0390625 Z"
     style="fill:#ffcc00"
     id="path19" /><path
     d="m 603.07031,285.33008 v 77.75 H 1126.25 v -77.75 z"
     style="fill:#ffcc00"
     id="path18" /><path
     d="M 1067.2305,0.0390625 1400.0898,230.91016 1542.3203,139.5293 1357.1992,0.0390625 Z"
     style="clip-rule:evenodd;fill:#ffcc00;fill-rule:evenodd"
     id="path17" /><path
     d="m 2080.0391,0.0390625 40.8007,26.2148435 524.2403,336.826174 h 116.8906 V 0.0390625 H 2658.6094 V 253.32031 L 2277.3008,0.0390625 Z"
     style="clip-rule:evenodd;fill:#ffcc00;fill-rule:evenodd"
     id="path16" /><path
     d="M 2087.0293,4.5292969 2311.0508,148.4707 Z m -9.5488,34.3515621 -0.961,324.199221 H 2301.5 V 182.82031 Z"
     style="clip-rule:evenodd;fill:#ffcc00;fill-rule:evenodd"
     id="path15" /><path
     d="m 1822.6191,0.0390625 -400.08,257.0507775 v 105.98047 h 208.5918 v -115.25 L 1988.8691,0.0390625 Z M 2087.0293,4.5292969 2311.0508,148.4707 Z"
     style="clip-rule:evenodd;fill:#ffcc00;fill-rule:evenodd"
     id="path14" /><path
     d="M 2087.0293,4.5292969 2311.0508,148.4707 Z"
     style="clip-rule:evenodd;fill:#ffcc00;fill-rule:evenodd"
     id="path13" /><path
     d="m 3156.6309,136.66992 -97.2305,35.59961 436.6699,190.80078 v -0.01 h 3.0391 313.3515 L 3392.3496,179.5 l -74.8789,27.41016 z"
     style="clip-rule:evenodd;fill:#ffcc00;fill-rule:evenodd"
     id="path12" /><path
     d="m 3174.1797,252.35937 -304.2598,110.71094 h 286.2696 l 147.6699,-54.05078 z"
     style="clip-rule:evenodd;fill:#ff0000;fill-rule:evenodd"
     id="path11" /><path
     d="m 2897.4707,0 420.0996,183.57031 74.8789,-27.41015 160.8399,70.24023 97.2304,-35.59961 L 3213.8496,0 h -3.0293 z"
     style="clip-rule:evenodd;fill:#ff0000;fill-rule:evenodd"
     id="path10" /><path
     d="m 3553.7305,0 -147.67,54.050781 129.6797,56.660159 L 3840,0 Z"
     style="clip-rule:evenodd;fill:#ffcc00;fill-rule:evenodd"
     id="path9" /><path
     d="m 188.63086,0.80078125 c -9.14997,0.0199999 -18.31097,-0.0104687 -27.46094,0.0195313 -0.03,10.6799685 0.0609,21.3690945 -0.0391,32.0390625 -0.73,31.519905 -2.70017,63.06986 -7.41016,94.259765 -3.75998,24.53993 -9.29089,49.04053 -19.63086,71.73047 -8.77997,19.72994 -20.33965,38.31137 -34.849606,54.36133 C 85.190276,268.76089 68.489163,281.95003 49.949219,291.75 34.329265,299.94997 17.499947,306.15908 0,308.78906 c 0.00999997,18.04995 0.00999997,36.12021 0,54.16016 14.539956,-2.05 28.809495,-5.73978 42.689453,-10.50977 24.519927,-8.46997 47.840921,-20.98974 67.380857,-38.17968 21.83994,-18.54996 41.26894,-40.60024 53.62891,-66.66016 7.57997,-16.16995 13.69064,-33.2092 16.64062,-50.86914 4.29,-25.61993 5.91063,-51.58008 7.14063,-77.5 0.75,-17.93995 1.26015,-35.901149 1.16015,-53.871095 -0.01,-21.509935 0.0302,-43.038658 -0.01,-64.55859375 z"
     style="fill:#ff0000"
     id="path8" /><path
     d="m 250.23047,0.81054688 c -16.84995,0.0299999 -33.70084,-0.0611715 -50.55078,0.0488281 0.06,82.229754 -4.7e-4,164.449935 0.0195,246.679685 0.06,38.48989 -0.12016,76.99059 0.0898,115.48047 16.80996,-0.14 33.63146,-0.0186 50.44141,-0.0586 0.01,-120.71964 0.01,-241.44075 0,-362.15039312 z"
     style="fill:#ff0000"
     id="path7" /><path
     d="M 261.48047,0.81054688 C 261.47047,20.590507 261.48,40.379726 261.5,60.179687 c -0.23,34.959931 0.94914,69.970623 4.11914,104.810543 1.63,16.11998 3.43041,32.32004 7.65039,48 4.6,15.60998 10.47127,30.90059 18.53125,45.06055 10.29998,18.16996 24.0101,34.2294 39.33008,48.35938 9.29998,8.53998 18.96941,16.72033 29.60937,23.57031 14.56998,9.48998 30.43987,16.87008 46.83985,22.58008 13.77996,4.67998 27.92916,8.39937 42.36914,10.35937 -0.02,-18.02996 -0.01,-36.07918 0,-54.11914 -7.33998,-1.07 -14.56869,-2.84156 -21.63867,-5.10156 -25.32996,-8.11998 -48.6409,-22.2284 -67.88086,-40.56836 -20.14996,-19.17996 -35.6101,-42.98012 -46.33008,-68.58008 -11.31998,-26.46994 -16.37875,-55.08053 -19.96875,-83.48047 -4.39,-36.569922 -5.64156,-73.440071 -5.35156,-110.2499975 -9.09998,-0.0299999 -18.19885,-0.0197656 -27.29883,-0.009766 z"
     style="fill:#ff0000"
     id="path6" /></g>
</svg>
