<?xml version="1.0" encoding="UTF-8" standalone="no"?>
<!-- Created with Inkscape (http://www.inkscape.org/) -->

<svg
   width="198.80299mm"
   height="36.103504mm"
   viewBox="0 0 198.803 36.103504"
   version="1.1"
   id="svg1"
   inkscape:version="1.3.2 (091e20e, 2023-11-25)"
   sodipodi:docname="auto-lastplayed.svg"
   xmlns:inkscape="http://www.inkscape.org/namespaces/inkscape"
   xmlns:sodipodi="http://sodipodi.sourceforge.net/DTD/sodipodi-0.dtd"
   xmlns="http://www.w3.org/2000/svg"
   xmlns:svg="http://www.w3.org/2000/svg">
  <sodipodi:namedview
     id="namedview1"
     pagecolor="#ffffff"
     bordercolor="#666666"
     borderopacity="1.0"
     inkscape:showpageshadow="2"
     inkscape:pageopacity="0.0"
     inkscape:pagecheckerboard="0"
     inkscape:deskcolor="#d1d1d1"
     inkscape:document-units="mm"
     inkscape:zoom="3.5281881"
     inkscape:cx="93.674144"
     inkscape:cy="71.708195"
     inkscape:window-width="1800"
     inkscape:window-height="1037"
     inkscape:window-x="0"
     inkscape:window-y="44"
     inkscape:window-maximized="0"
     inkscape:current-layer="svg1" />
  <defs
     id="defs1">
    <rect
       x="161.12437"
       y="124.85653"
       width="611.797"
       height="108.209"
       id="rect2" />
    <rect
       x="166.48387"
       y="161.4389"
       width="548.2196"
       height="127.8058"
       id="rect1" />
  </defs>
  <g
     id="g21">
    <path
       id="path10"
       style="fill:#ee2929;fill-rule:evenodd;stroke:#f9ffff;stroke-linejoin:miter;stroke-opacity:1;paint-order:normal"
       d="M 18.76578 2.1843628 C 18.318853 2.1907428 17.872441 2.2160244 17.427877 2.2598104 C 14.834746 2.5152112 12.305404 3.4081119 10.08879 4.907194 L 7.7990072 2.6174113 L 5.1071818 12.679846 L 15.170133 9.9885376 L 13.399182 8.2175863 C 13.123913 8.3742764 12.848427 8.5290564 12.581661 8.702828 C 12.418868 8.814702 12.254855 8.9243264 12.096936 9.0454427 C 12.197538 8.967732 12.298949 8.8911186 12.401827 8.8175496 C 12.460199 8.7758074 12.521988 8.7416991 12.581661 8.702828 C 16.347907 6.1145976 21.363976 5.9982952 25.283211 8.6170451 C 29.794072 11.631106 31.536856 17.376615 29.460734 22.388814 C 27.384613 27.401013 22.090442 30.232328 16.769519 29.17393 C 11.448597 28.115532 7.6388107 23.474191 7.6388102 18.049028 L 3.111438 18.049028 C 3.1114387 25.606879 8.4742534 32.14054 15.886886 33.615002 C 23.299515 35.089468 30.752193 31.10562 33.644458 24.123075 C 36.536723 17.140529 34.082946 9.0503022 27.79882 4.8513835 C 25.049515 3.0143566 21.89426 2.1396825 18.76578 2.1843628 z M 12.04991 9.0816162 C 11.72273 9.3372718 11.407322 9.6135485 11.103198 9.9079224 C 11.058128 9.9515503 11.005588 9.9827924 10.961088 10.027295 C 11.305834 9.682549 11.673232 9.3736421 12.04991 9.0816162 z " />
    <path
       id="path7"
       style="font-size:85.3333px;font-family:Impact;-inkscape-font-specification:Impact;white-space:pre;shape-inside:url(#rect2);fill:#fafafa;stroke-width:3.00094;paint-order:markers fill stroke"
       d="M 79.177079 9.8448771 C 78.304075 9.8448771 77.468519 9.9652672 76.670772 10.206095 C 75.888086 10.431872 75.188282 10.770506 74.571159 11.222054 C 73.969087 11.658558 73.495215 12.200566 73.149023 12.847795 C 72.817883 13.479965 72.651896 14.202309 72.651896 15.015104 C 72.651896 16.113885 72.975674 17.009378 73.622896 17.701762 C 74.285177 18.394143 75.173498 18.868533 76.287333 19.124414 L 78.838599 19.733679 C 79.576139 19.899247 80.102777 20.125176 80.418864 20.411157 C 80.734953 20.697142 80.892737 21.058308 80.892737 21.494812 C 80.892737 22.036669 80.622249 22.48084 80.080383 22.82703 C 79.553578 23.173224 78.808178 23.346379 77.844861 23.346379 C 77.167537 23.346379 76.445194 23.271068 75.677551 23.120553 C 74.924962 22.954982 74.202625 22.691663 73.510242 22.33042 C 73.118894 22.134748 72.772583 22.074292 72.471545 22.149552 C 72.170509 22.209762 71.922046 22.360377 71.726371 22.601204 C 71.530704 22.826981 71.410309 23.0903 71.365153 23.391337 C 71.319993 23.692366 71.357353 23.993604 71.477808 24.294641 C 71.613273 24.580626 71.85457 24.821403 72.200761 25.017078 C 72.712522 25.28801 73.261703 25.521101 73.848722 25.716777 C 74.450794 25.897396 75.060428 26.033157 75.677551 26.12347 C 76.294675 26.21378 76.911991 26.258862 77.529118 26.258862 C 78.432218 26.258862 79.289806 26.153329 80.102604 25.942603 C 80.930447 25.716826 81.660476 25.393054 82.292651 24.971602 C 82.93988 24.535102 83.444495 23.993606 83.805737 23.346379 C 84.166981 22.699155 84.347306 21.938902 84.347306 21.065898 C 84.347306 20.072484 84.008679 19.222068 83.331348 18.514632 C 82.669075 17.807204 81.690582 17.303098 80.396126 17.002063 L 77.867598 16.392281 C 77.28058 16.241762 76.836409 16.03838 76.53538 15.782499 C 76.249395 15.511566 76.106466 15.150398 76.106466 14.698844 C 76.106466 14.307498 76.226855 13.968862 76.467684 13.682886 C 76.723565 13.396901 77.077562 13.170979 77.529118 13.005408 C 77.995717 12.839837 78.530049 12.757361 79.132121 12.757361 C 79.704088 12.757361 80.290662 12.832671 80.892737 12.983187 C 81.509855 13.118653 82.067243 13.314355 82.563953 13.570231 C 83.015508 13.780958 83.399222 13.863434 83.715304 13.818278 C 84.046444 13.758068 84.302076 13.622826 84.482699 13.412101 C 84.678365 13.201374 84.791592 12.952912 84.821696 12.666927 C 84.866846 12.365892 84.828895 12.080031 84.708525 11.809098 C 84.58811 11.523122 84.377559 11.289505 84.076522 11.108883 C 83.323932 10.657329 82.503741 10.334074 81.61569 10.138399 C 80.742686 9.9427272 79.92967 9.8448771 79.177079 9.8448771 z M 46.168241 9.8898356 C 45.626376 9.8898356 45.19758 10.025088 44.881498 10.296012 C 44.56541 10.566945 44.362026 10.973711 44.271716 11.515576 L 42.262537 24.091036 C 42.172227 24.693102 42.270037 25.167497 42.556059 25.513688 C 42.842043 25.844827 43.29338 26.010299 43.910498 26.010299 L 51.519336 26.010299 C 52.061193 26.010299 52.48999 25.859683 52.806079 25.558647 C 53.122166 25.24256 53.280469 24.806083 53.280469 24.249166 C 53.280469 23.872871 53.144708 23.579324 52.873775 23.368599 C 52.602842 23.157873 52.211448 23.052856 51.699687 23.052856 L 45.942415 23.052856 L 47.726286 11.809098 C 47.816596 11.207033 47.726434 10.740322 47.455501 10.409184 C 47.184569 10.062993 46.755256 9.8898356 46.168241 9.8898356 z M 64.049837 9.8898356 C 63.583233 9.8898356 63.199524 9.987685 62.898486 10.183358 C 62.59745 10.363981 62.318759 10.66521 62.062878 11.086662 L 53.980168 24.159249 C 53.754391 24.535543 53.671912 24.881341 53.732121 25.197428 C 53.777271 25.498463 53.935061 25.74693 54.205994 25.942603 C 54.491978 26.123224 54.838298 26.213387 55.24469 26.213387 C 55.65109 26.213387 55.989716 26.130907 56.260649 25.96534 C 56.546633 25.78472 56.78741 25.528567 56.983085 25.197428 L 58.520976 22.555729 L 66.000106 22.555729 L 66.556144 24.67808 C 66.691611 25.204886 66.887309 25.596289 67.143188 25.852169 C 67.414122 26.092999 67.805516 26.213387 68.317277 26.213387 C 68.67852 26.213387 68.986921 26.130907 69.242802 25.96534 C 69.498678 25.799769 69.671837 25.566158 69.76215 25.265125 C 69.85246 24.949035 69.829924 24.557636 69.694454 24.091036 L 65.878666 11.334709 C 65.7432 10.853048 65.517278 10.491883 65.201188 10.251054 C 64.900159 10.010225 64.516445 9.8898361 64.049837 9.8898356 z M 125.3262 9.8898356 C 124.78433 9.8898356 124.35503 10.025088 124.03894 10.296012 C 123.72285 10.566945 123.51999 10.973711 123.42968 11.515576 L 121.41998 24.091036 C 121.32968 24.693102 121.42798 25.167497 121.7135 25.513688 C 121.99949 25.844827 122.45134 26.010299 123.06846 26.010299 L 130.67678 26.010299 C 131.21864 26.010299 131.64795 25.859683 131.96404 25.558647 C 132.28012 25.24256 132.43791 24.806083 132.43791 24.249166 C 132.43791 23.872871 132.30267 23.579324 132.03173 23.368599 C 131.7608 23.157873 131.36941 23.052856 130.85765 23.052856 L 125.10037 23.052856 L 126.88373 11.809098 C 126.97403 11.207033 126.88388 10.740322 126.61294 10.409184 C 126.34201 10.062993 125.91322 9.8898356 125.3262 9.8898356 z M 143.2078 9.8898356 C 142.7412 9.8898356 142.35696 9.987685 142.05593 10.183358 C 141.75489 10.363981 141.47672 10.66521 141.22084 11.086662 L 133.13813 24.159249 C 132.91235 24.535543 132.82935 24.881341 132.88956 25.197428 C 132.93476 25.498463 133.09303 25.74693 133.36395 25.942603 C 133.64994 26.123224 133.99574 26.213387 134.40213 26.213387 C 134.80853 26.213387 135.14716 26.130907 135.41809 25.96534 C 135.70407 25.78472 135.94537 25.528567 136.14104 25.197428 L 137.67893 22.555729 L 145.15806 22.555729 L 145.71359 24.67808 C 145.84905 25.204886 146.04475 25.596289 146.30063 25.852169 C 146.57156 26.092999 146.96296 26.213387 147.47472 26.213387 C 147.83596 26.213387 148.14488 26.130907 148.40076 25.96534 C 148.65664 25.799769 148.82928 25.566158 148.91959 25.265125 C 149.00989 24.949035 148.9874 24.557636 148.8519 24.091036 L 145.03663 11.334709 C 144.90116 10.853048 144.67523 10.491883 144.35915 10.251054 C 144.05811 10.010225 143.6744 9.8898356 143.2078 9.8898356 z M 152.10338 9.8898356 C 151.62172 9.8898356 151.23801 10.010226 150.95203 10.251054 C 150.66605 10.491883 150.49289 10.800283 150.43268 11.176579 C 150.38748 11.537821 150.48538 11.936902 150.7262 12.373405 L 154.22986 18.816939 L 153.39012 24.159249 C 153.28476 24.791425 153.35242 25.295523 153.59321 25.671818 C 153.84909 26.033056 154.25586 26.213387 154.81277 26.213387 C 155.97176 26.213387 156.64902 25.626812 156.84469 24.452771 L 157.75213 18.792651 L 163.27944 12.373405 C 163.59553 11.99711 163.75331 11.62057 163.75331 11.244275 C 163.75331 10.852926 163.61807 10.52967 163.34714 10.273792 C 163.09125 10.01791 162.73009 9.8898356 162.26348 9.8898356 C 161.85708 9.8898356 161.51793 9.9728295 161.24701 10.138399 C 160.97607 10.288918 160.65999 10.574775 160.29874 10.996228 L 156.29537 15.730823 L 153.90947 11.222054 C 153.63854 10.710298 153.36753 10.363981 153.0966 10.183358 C 152.84072 9.9876857 152.50978 9.8898356 152.10338 9.8898356 z M 87.91453 10.092924 C 87.372665 10.092924 86.943874 10.243539 86.627787 10.544576 C 86.326751 10.845611 86.176135 11.267241 86.176135 11.809098 C 86.176135 12.170344 86.311896 12.456203 86.582829 12.666927 C 86.853754 12.877654 87.229785 12.983187 87.711442 12.983187 L 91.414058 12.983187 L 89.652926 24.159249 C 89.547563 24.791424 89.622876 25.295523 89.878752 25.671818 C 90.149684 26.033056 90.571311 26.213387 91.143274 26.213387 C 91.715243 26.213387 92.159407 26.063288 92.475492 25.762252 C 92.806631 25.461217 93.017185 25.02474 93.107495 24.452771 L 94.936324 12.983187 L 98.910242 12.983187 C 99.452107 12.983187 99.873208 12.832572 100.17425 12.531535 C 100.47528 12.215448 100.6259 11.78614 100.6259 11.244275 C 100.6259 10.883032 100.49066 10.604856 100.21972 10.409184 C 99.963845 10.198459 99.587302 10.092924 99.090592 10.092924 L 87.91453 10.092924 z M 110.42478 10.092924 C 109.83777 10.092924 109.37106 10.235854 109.02487 10.521838 C 108.67868 10.807824 108.46813 11.2443 108.39287 11.831319 L 106.42865 24.159249 C 106.33835 24.791424 106.42065 25.295523 106.67669 25.671818 C 106.93257 26.033056 107.33882 26.213387 107.89574 26.213387 C 108.46771 26.213387 108.91956 26.070454 109.2507 25.784473 C 109.58184 25.483435 109.79239 25.039793 109.8827 24.452771 L 110.53744 20.275765 L 114.24057 20.275765 C 116.33277 20.275765 117.92807 19.778835 119.02684 18.785417 C 120.12563 17.792004 120.6748 16.399575 120.6748 14.608411 C 120.6748 13.178496 120.20861 12.072444 119.27541 11.28975 C 118.34219 10.492012 116.94977 10.092924 115.0984 10.092924 L 110.42478 10.092924 z M 168.76541 10.092924 C 168.20849 10.092924 167.76485 10.235854 167.43371 10.521838 C 167.10257 10.807824 166.8915 11.229442 166.80119 11.786361 L 164.8597 24.046077 C 164.7694 24.678254 164.8677 25.167497 165.15323 25.513688 C 165.43921 25.844827 165.90591 26.010299 166.55314 26.010299 L 174.2519 26.010299 C 174.7486 26.010299 175.14 25.867369 175.42598 25.581384 C 175.72701 25.2954 175.87764 24.89632 175.87764 24.384558 C 175.87764 24.023315 175.74956 23.752824 175.49368 23.572205 C 175.25285 23.37653 174.89937 23.278682 174.43276 23.278682 L 168.33649 23.278682 L 168.96901 19.304765 L 174.83894 19.304765 C 175.32059 19.304765 175.70431 19.161836 175.99029 18.87585 C 176.29133 18.574814 176.44194 18.168565 176.44194 17.656803 C 176.44194 17.310611 176.32154 17.039608 176.08073 16.843933 C 175.83989 16.648261 175.48641 16.550411 175.01981 16.550411 L 169.39793 16.550411 L 169.98497 12.825057 L 176.35203 12.825057 C 176.84873 12.825057 177.23962 12.682127 177.5256 12.396143 C 177.82664 12.110165 177.97725 11.711073 177.97725 11.199316 C 177.97725 10.838074 177.84969 10.567069 177.59381 10.386446 C 177.35298 10.190774 176.99898 10.092924 176.53238 10.092924 L 168.76541 10.092924 z M 182.42504 10.092924 C 181.86813 10.092924 181.42448 10.235854 181.09334 10.521838 C 180.7622 10.807824 180.55113 11.229442 180.46082 11.786361 L 178.51934 24.046077 C 178.41397 24.663204 178.51134 25.144759 178.81286 25.490951 C 179.11389 25.837141 179.57292 26.010299 180.19003 26.010299 L 185.06674 26.010299 C 186.58697 26.010299 187.91895 25.784368 189.06288 25.332821 C 190.20682 24.866213 191.16277 24.226873 191.9304 23.414075 C 192.69805 22.601284 193.27028 21.645333 193.64658 20.546549 C 194.03793 19.447775 194.23311 18.258729 194.23311 16.979325 C 194.23311 14.811872 193.52613 13.125891 192.11127 11.921753 C 190.6964 10.702555 188.69433 10.092924 186.10544 10.092924 L 182.42504 10.092924 z M 111.73427 12.825057 L 114.66949 12.825057 C 115.55754 12.825057 116.21942 12.99053 116.65593 13.321667 C 117.09242 13.652806 117.31067 14.179445 117.31067 14.901933 C 117.31067 15.759879 117.06272 16.422286 116.56601 16.888892 C 116.0693 17.340447 115.33928 17.56637 114.37596 17.56637 L 110.98909 17.56637 L 111.73427 12.825057 z M 183.78 12.960449 L 186.10544 12.960449 C 187.59555 12.960449 188.70931 13.313938 189.44683 14.021366 C 190.19942 14.713751 190.57596 15.714784 190.57596 17.024284 C 190.57596 17.927392 190.46274 18.755264 190.23697 19.507853 C 190.02624 20.245391 189.69529 20.88525 189.24375 21.427116 C 188.80724 21.968978 188.24269 22.390609 187.55031 22.691638 C 186.85792 22.992676 186.0449 23.142773 185.1117 23.142773 L 182.15426 23.142773 L 183.78 12.960449 z M 63.64366 13.818278 L 63.688619 13.818278 L 65.265784 19.824113 L 60.13018 19.824113 L 63.64366 13.818278 z M 142.8011 13.818278 L 142.84658 13.818278 L 144.42374 19.824113 L 139.28762 19.824113 L 142.8011 13.818278 z " />
    <path
       id="rect17"
       style="fill:#ee2929;fill-opacity:1;stroke:none;stroke-width:1.25183;stroke-linecap:butt;stroke-linejoin:miter;stroke-miterlimit:0;stroke-dasharray:none;stroke-opacity:1;paint-order:normal"
       d="M 12.285173 -3.4175705 L 12.285437 -0.63611265 L 15.061889 -0.63591402 L 15.061625 -3.4173718 L 12.285173 -3.4175705 z "
       transform="matrix(0.70864051,0.70556971,-0.930127,0.36723802,0,0)" />
  </g>
</svg>
