<?xml version="1.0" encoding="UTF-8" standalone="no"?>
<!-- Created with Inkscape (http://www.inkscape.org/) -->

<svg
   width="162.56961mm"
   height="36.103504mm"
   viewBox="0 0 162.56961 36.103504"
   version="1.1"
   id="svg1"
   inkscape:version="1.3.2 (091e20e, 2023-11-25)"
   sodipodi:docname="auto-favorites.svg"
   xmlns:inkscape="http://www.inkscape.org/namespaces/inkscape"
   xmlns:sodipodi="http://sodipodi.sourceforge.net/DTD/sodipodi-0.dtd"
   xmlns="http://www.w3.org/2000/svg"
   xmlns:svg="http://www.w3.org/2000/svg">
  <sodipodi:namedview
     id="namedview1"
     pagecolor="#ffffff"
     bordercolor="#666666"
     borderopacity="1.0"
     inkscape:showpageshadow="2"
     inkscape:pageopacity="0.0"
     inkscape:pagecheckerboard="0"
     inkscape:deskcolor="#d1d1d1"
     inkscape:document-units="mm"
     inkscape:zoom="1.6819304"
     inkscape:cx="291.03463"
     inkscape:cy="219.09349"
     inkscape:window-width="2048"
     inkscape:window-height="1154"
     inkscape:window-x="0"
     inkscape:window-y="25"
     inkscape:window-maximized="0"
     inkscape:current-layer="svg1" />
  <defs
     id="defs1">
    <rect
       x="166.48387"
       y="161.4389"
       width="548.2196"
       height="127.8058"
       id="rect1" />
  </defs>
  <g
     id="g3"
     transform="translate(-2.7666333e-4,-1.5238969e-4)">
    <path
       d="m 90.325236,9.8448771 c -1.294455,0 -2.460956,0.2336109 -3.499528,0.7002159 -1.038575,0.451555 -1.934068,1.098583 -2.686658,1.941483 -0.737537,0.827851 -1.309775,1.813506 -1.716174,2.957443 -0.391347,1.143937 -0.587044,2.39343 -0.587044,3.748091 0,1.490131 0.301232,2.762161 0.903304,3.815788 0.602074,1.053624 1.444799,1.858955 2.528528,2.415873 1.098783,0.556915 2.378499,0.835091 3.838525,0.835091 1.309505,0 2.483177,-0.225922 3.521749,-0.677478 1.038575,-0.466605 1.926896,-1.113635 2.664437,-1.941483 0.75259,-0.8429 1.32431,-1.836243 1.715657,-2.98018 0.391347,-1.143937 0.587044,-2.400599 0.587044,-3.770313 0,-1.475078 -0.300715,-2.739423 -0.902787,-3.79305 C 96.10527,12.042731 95.262025,11.237403 94.163245,10.680485 93.079513,10.123567 91.800312,9.8448771 90.325236,9.8448771 Z m 66.581984,0 c -0.87301,0 -1.70856,0.1203897 -2.50631,0.3612179 -0.78269,0.225777 -1.48249,0.564404 -2.09961,1.015959 -0.60208,0.436501 -1.07646,0.978513 -1.42265,1.625741 -0.33114,0.632175 -0.49661,1.354513 -0.49661,2.167309 0,1.098783 0.32377,1.994276 0.971,2.686658 0.66228,0.692384 1.55008,1.166771 2.66392,1.422652 l 2.55126,0.609782 c 0.73754,0.165571 1.26469,0.390979 1.58078,0.676961 0.31609,0.285985 0.47388,0.647152 0.47388,1.083655 0,0.541866 -0.27101,0.986028 -0.81287,1.332218 -0.52682,0.346194 -1.27169,0.519349 -2.23501,0.519349 -0.67733,0 -1.39967,-0.07531 -2.16731,-0.225826 -0.75259,-0.165571 -1.47544,-0.42889 -2.16783,-0.790133 -0.39134,-0.195672 -0.73766,-0.256128 -1.03869,-0.180868 -0.30104,0.06021 -0.54898,0.210824 -0.74466,0.451652 -0.19567,0.225777 -0.31606,0.489096 -0.36122,0.790133 -0.0452,0.301034 -0.008,0.602267 0.11266,0.903304 0.13546,0.285985 0.37624,0.526762 0.72243,0.722437 0.51176,0.270932 1.06146,0.504543 1.64848,0.700215 0.60207,0.180623 1.2117,0.315867 1.82883,0.406177 0.61712,0.09031 1.23393,0.135392 1.85105,0.135392 0.90311,0 1.7612,-0.105018 2.574,-0.315743 0.82785,-0.225776 1.55787,-0.549551 2.19005,-0.971 0.64723,-0.436503 1.15133,-0.978515 1.51257,-1.62574 0.36124,-0.647228 0.54209,-1.407475 0.54209,-2.280481 0,-0.993419 -0.33863,-1.843832 -1.01596,-2.551266 -0.66228,-0.707436 -1.64077,-1.211532 -2.93522,-1.512569 l -2.52853,-0.609782 c -0.58702,-0.150518 -1.03118,-0.353384 -1.33222,-0.609265 -0.28598,-0.270933 -0.42892,-0.632099 -0.42892,-1.083655 0,-0.391344 0.12039,-0.729974 0.36122,-1.015958 0.25588,-0.285985 0.60937,-0.511908 1.06092,-0.677479 0.46661,-0.165568 1.00093,-0.248563 1.603,-0.248563 0.57197,0 1.15906,0.07531 1.76114,0.225826 0.61712,0.135466 1.17399,0.331163 1.6707,0.587044 0.45155,0.210724 0.83526,0.29372 1.15135,0.248564 0.33113,-0.06021 0.58729,-0.195969 0.76791,-0.406694 0.19567,-0.210724 0.30837,-0.459189 0.33848,-0.745174 0.0452,-0.301034 0.008,-0.586899 -0.11266,-0.857829 -0.12041,-0.285985 -0.33148,-0.519076 -0.63252,-0.699699 -0.75259,-0.451552 -1.57277,-0.775325 -2.46083,-0.971 -0.873,-0.195672 -1.6855,-0.2935219 -2.43809,-0.2935219 z m -97.987819,0.044958 c -0.466608,0 -0.850316,0.09785 -1.151351,0.2935229 -0.301037,0.180621 -0.579727,0.481852 -0.835608,0.903304 l -8.082711,13.072586 c -0.225776,0.376295 -0.308252,0.72261 -0.248046,1.038697 0.04516,0.301037 0.20294,0.549499 0.473872,0.745173 0.285985,0.180621 0.632298,0.270785 1.038697,0.270785 0.406399,0 0.745028,-0.08299 1.015958,-0.248564 0.285985,-0.18062 0.526765,-0.436254 0.722437,-0.767395 l 1.537891,-2.641699 h 7.47913 l 0.556038,2.122351 c 0.135466,0.526813 0.331164,0.918208 0.587044,1.174089 0.270933,0.240828 0.662327,0.361218 1.174089,0.361218 0.361245,0 0.669644,-0.08299 0.925525,-0.248564 0.25588,-0.165568 0.429038,-0.398662 0.519348,-0.699699 0.09031,-0.316085 0.06777,-0.707483 -0.0677,-1.174088 L 60.74823,11.335225 C 60.612764,10.853568 60.386841,10.492399 60.070752,10.251571 59.769715,10.010742 59.386006,9.8898356 58.919401,9.8898351 Z m 60.102279,0 c -0.57197,0 -1.02382,0.1506149 -1.35496,0.4516529 -0.33114,0.285985 -0.54169,0.72246 -0.632,1.30948 l -1.98696,12.485542 c -0.10536,0.647228 -0.0301,1.159012 0.22582,1.535307 0.25588,0.361243 0.68468,0.542086 1.28675,0.542086 0.57196,0 1.01613,-0.150614 1.33222,-0.451651 0.31608,-0.301035 0.51947,-0.745199 0.60978,-1.332219 l 1.98696,-12.462805 c 0.10536,-0.66228 0.0301,-1.174064 -0.22583,-1.535307 -0.24083,-0.361242 -0.65476,-0.5420859 -1.24178,-0.5420859 z M 42.053764,10.093441 c -0.556918,0 -1.000561,0.142932 -1.331702,0.428914 -0.331138,0.285985 -0.542209,0.707088 -0.632519,1.264006 l -1.964222,12.440584 c -0.09031,0.617123 -1.48e-4,1.106365 0.270785,1.467611 0.270933,0.34619 0.707407,0.519348 1.309481,0.519348 1.083728,0 1.715902,-0.572238 1.896525,-1.716175 l 0.790649,-5.057055 h 5.508708 c 0.511761,0 0.910841,-0.150615 1.196826,-0.451652 0.285982,-0.301035 0.428914,-0.692429 0.428914,-1.174089 0,-0.361243 -0.128075,-0.63225 -0.383955,-0.81287 -0.240829,-0.195675 -0.59431,-0.293522 -1.060918,-0.293522 h -5.26066 l 0.632002,-3.883484 h 5.983098 c 0.526813,0 0.925893,-0.142932 1.196826,-0.428914 0.285985,-0.301037 0.428914,-0.699601 0.428914,-1.19631 0,-0.361243 -0.128075,-0.63225 -0.383956,-0.81287 -0.240828,-0.195675 -0.594312,-0.293522 -1.060917,-0.293522 z m 25.71626,0 c -0.376295,0 -0.700068,0.09016 -0.971001,0.270784 -0.270932,0.18062 -0.458944,0.436257 -0.564306,0.767395 -0.105365,0.316087 -0.09768,0.692627 0.02274,1.12913 l 3.612183,12.440585 c 0.150519,0.496709 0.376444,0.872732 0.677478,1.128613 0.316089,0.255881 0.722338,0.383956 1.219047,0.383956 0.466605,0 0.850314,-0.09785 1.151351,-0.293522 0.301034,-0.195673 0.579727,-0.504074 0.835608,-0.925525 L 81.40692,12.351184 c 0.240829,-0.376295 0.338679,-0.737464 0.293522,-1.083655 -0.0301,-0.34619 -0.180719,-0.624883 -0.451652,-0.835608 -0.25588,-0.225776 -0.617049,-0.33848 -1.083654,-0.33848 -0.466608,0 -0.842629,0.09785 -1.128614,0.293522 -0.285985,0.18062 -0.556989,0.489024 -0.81287,0.925525 L 72.207996,21.5191 69.531156,11.628748 c -0.150518,-0.587022 -0.376441,-0.986102 -0.677478,-1.196827 -0.285982,-0.225776 -0.647151,-0.33848 -1.083654,-0.33848 z m 35.560106,0 c -0.58702,0 -1.05373,0.150617 -1.39992,0.451652 -0.34619,0.285985 -0.55674,0.714776 -0.632,1.286743 l -1.964738,12.304675 c -0.105362,0.647228 -0.03006,1.159012 0.225826,1.535307 0.270932,0.361243 0.677702,0.542086 1.219562,0.542086 0.58702,0 1.04604,-0.14293 1.37718,-0.428915 0.34619,-0.301034 0.56443,-0.745199 0.65474,-1.332218 l 0.6997,-4.60592 h 1.8743 c 0.51176,0 0.91033,0.105535 1.19631,0.316259 0.30104,0.195675 0.53465,0.534302 0.70022,1.015959 l 1.3317,3.499528 c 0.19567,0.526813 0.43645,0.918208 0.72244,1.174089 0.28598,0.240828 0.67021,0.361218 1.15186,0.361218 0.49671,0 0.88042,-0.09016 1.15135,-0.270785 0.27094,-0.180622 0.42872,-0.43677 0.47388,-0.767911 0.0602,-0.346191 2.7e-4,-0.75244 -0.18035,-1.219048 l -0.85783,-2.212784 c -0.28599,-0.722486 -0.66253,-1.287038 -1.12913,-1.693437 -0.20052,-0.181118 -0.43106,-0.315297 -0.68162,-0.418579 0.46992,-0.08935 0.91789,-0.209566 1.33636,-0.371554 0.93321,-0.376295 1.66323,-0.948015 2.19004,-1.715657 0.52682,-0.782694 0.79014,-1.776551 0.79014,-2.980697 0,-1.384765 -0.47388,-2.475958 -1.42214,-3.273702 -0.93321,-0.797746 -2.28824,-1.196309 -4.06435,-1.196309 z m 20.47782,0 c -0.54187,0 -0.97066,0.150617 -1.28675,0.451652 -0.30103,0.301037 -0.45165,0.72214 -0.45165,1.264005 0,0.361243 0.13525,0.647105 0.40618,0.857829 0.27093,0.210727 0.64747,0.31626 1.12913,0.31626 h 3.70261 l -1.76113,11.176062 c -0.10536,0.632175 -0.0301,1.136274 0.22583,1.512569 0.27093,0.361243 0.69255,0.542086 1.26452,0.542086 0.57197,0 1.01613,-0.150615 1.33222,-0.451652 0.33114,-0.301035 0.54169,-0.737514 0.632,-1.309481 l 1.82883,-11.469584 h 3.97392 c 0.54186,0 0.96297,-0.150615 1.264,-0.451652 0.30104,-0.316087 0.45166,-0.744878 0.45166,-1.286743 0,-0.361243 -0.13525,-0.639936 -0.40618,-0.835608 -0.25588,-0.210725 -0.63242,-0.315743 -1.12913,-0.315743 z m 16.1432,0 c -0.55692,0 -1.00108,0.142932 -1.33222,0.428914 -0.33114,0.285985 -0.54169,0.707088 -0.632,1.264006 l -1.942,12.260233 c -0.0903,0.632176 0.008,1.120903 0.29352,1.467094 0.28598,0.331141 0.75268,0.497127 1.39991,0.497127 h 7.69927 c 0.49671,0 0.88811,-0.143446 1.17409,-0.429431 0.30104,-0.285985 0.45165,-0.684548 0.45165,-1.196309 0,-0.361246 -0.12807,-0.632248 -0.38395,-0.81287 -0.24083,-0.195673 -0.59483,-0.293523 -1.06143,-0.293523 h -6.09576 l 0.63201,-3.973917 h 5.87044 c 0.48166,0 0.86536,-0.14293 1.15135,-0.428915 0.30104,-0.301037 0.45165,-0.707285 0.45165,-1.219047 0,-0.34619 -0.12039,-0.617195 -0.36122,-0.81287 -0.24083,-0.195672 -0.59483,-0.293522 -1.06143,-0.293522 h -5.62188 l 0.58704,-3.725354 h 6.36706 c 0.49671,0 0.8881,-0.142932 1.17409,-0.428914 0.30103,-0.285985 0.45165,-0.684548 0.45165,-1.19631 0,-0.361243 -0.12808,-0.63225 -0.38396,-0.81287 -0.24083,-0.195675 -0.59431,-0.293522 -1.06091,-0.293522 z m -49.69361,2.731616 c 1.143937,0 2.047118,0.338629 2.709395,1.015959 0.66228,0.677332 0.993221,1.716271 0.993221,3.116088 0,1.219195 -0.188011,2.310388 -0.564306,3.273702 -0.376295,0.948265 -0.925993,1.693141 -1.648479,2.235006 -0.707436,0.541866 -1.565015,0.81287 -2.573486,0.81287 -1.143937,0 -2.047115,-0.338626 -2.709395,-1.015958 -0.647228,-0.692382 -0.971,-1.730807 -0.971,-3.115572 0,-1.249299 0.188011,-2.348178 0.564306,-3.29644 0.376295,-0.948265 0.918307,-1.685974 1.625741,-2.212785 0.707436,-0.541865 1.565532,-0.81287 2.574003,-0.81287 z m 14.38207,0 h 2.88974 c 0.93321,0 1.61047,0.173157 2.03192,0.519348 0.4365,0.331139 0.65474,0.835237 0.65474,1.512569 0,0.812796 -0.24795,1.430118 -0.74466,1.851567 -0.49671,0.406399 -1.20419,0.609782 -2.12235,0.609782 h -3.43183 z m -46.126386,0.993738 h 0.04496 l 1.577164,6.005318 h -5.135603 z"
       style="font-size:85.3333px;line-height:1.25;white-space:pre;shape-inside:url(#rect1);display:inline;fill:#fafafa"
       id="path3" />
    <path
       d="M 18.980754,1.1957926 13.466878,12.368237 1.1373983,14.159859 10.058818,22.856486 7.9530029,35.136357 18.980754,29.338778 30.009021,35.136357 27.90269,22.856486 36.824626,14.159859 24.495146,12.368237 Z"
       style="fill:#ffe05e;stroke:#f9ffff;stroke-width:1.05833"
       id="path2" />
  </g>
</svg>
