<?xml version="1.0" encoding="UTF-8" standalone="no"?>
<!-- Created with Inkscape (http://www.inkscape.org/) -->

<svg
   width="198.80299mm"
   height="36.103504mm"
   viewBox="0 0 198.803 36.103504"
   version="1.1"
   id="svg1"
   inkscape:version="1.3.2 (091e20e, 2023-11-25)"
   sodipodi:docname="auto-lastplayed copy.svg"
   xmlns:inkscape="http://www.inkscape.org/namespaces/inkscape"
   xmlns:sodipodi="http://sodipodi.sourceforge.net/DTD/sodipodi-0.dtd"
   xmlns="http://www.w3.org/2000/svg"
   xmlns:svg="http://www.w3.org/2000/svg">
  <sodipodi:namedview
     id="namedview1"
     pagecolor="#ffffff"
     bordercolor="#666666"
     borderopacity="1.0"
     inkscape:showpageshadow="2"
     inkscape:pageopacity="0.0"
     inkscape:pagecheckerboard="0"
     inkscape:deskcolor="#d1d1d1"
     inkscape:document-units="mm"
     inkscape:zoom="1.3855747"
     inkscape:cx="378.90414"
     inkscape:cy="148.67477"
     inkscape:window-width="1800"
     inkscape:window-height="1037"
     inkscape:window-x="0"
     inkscape:window-y="44"
     inkscape:window-maximized="0"
     inkscape:current-layer="svg1" />
  <defs
     id="defs1">
    <inkscape:path-effect
       effect="fillet_chamfer"
       id="path-effect4"
       is_visible="true"
       lpeversion="1"
       nodesatellites_param="F,0,1,1,0,0.91239422,0,1 @ F,0,1,1,0,0.91239422,0,1 @ F,0,0,1,0,0.91239422,0,1 @ F,0,1,1,0,0.91239422,0,1"
       radius="0"
       unit="px"
       method="auto"
       mode="F"
       chamfer_steps="1"
       flexible="false"
       use_knot_distance="true"
       apply_no_radius="true"
       apply_with_radius="true"
       only_selected="false"
       hide_knots="false" />
    <rect
       x="161.12437"
       y="124.85653"
       width="611.797"
       height="108.209"
       id="rect2" />
    <rect
       x="166.48387"
       y="161.4389"
       width="548.2196"
       height="127.8058"
       id="rect1" />
    <inkscape:path-effect
       effect="fillet_chamfer"
       id="path-effect4-9"
       is_visible="true"
       lpeversion="1"
       nodesatellites_param="F,0,1,1,0,0.91239422,0,1 @ F,0,1,1,0,0.91239422,0,1 @ F,0,0,1,0,0.91239422,0,1 @ F,0,1,1,0,0.91239422,0,1"
       radius="0"
       unit="px"
       method="auto"
       mode="F"
       chamfer_steps="1"
       flexible="false"
       use_knot_distance="true"
       apply_no_radius="true"
       apply_with_radius="true"
       only_selected="false"
       hide_knots="false" />
    <inkscape:path-effect
       effect="fillet_chamfer"
       id="path-effect4-6"
       is_visible="true"
       lpeversion="1"
       nodesatellites_param="F,0,1,1,0,0.91239422,0,1 @ F,0,1,1,0,0.91239422,0,1 @ F,0,0,1,0,0.91239422,0,1 @ F,0,1,1,0,0.91239422,0,1"
       radius="0"
       unit="px"
       method="auto"
       mode="F"
       chamfer_steps="1"
       flexible="false"
       use_knot_distance="true"
       apply_no_radius="true"
       apply_with_radius="true"
       only_selected="false"
       hide_knots="false" />
  </defs>
  <g
     id="g7"
     transform="translate(11.112501)">
    <path
       d="m 100.98712,9.8448771 c -1.460026,0 -2.746916,0.2330909 -3.860749,0.6996989 -1.113835,0.466605 -2.062093,1.113633 -2.844787,1.941484 -0.782694,0.827847 -1.369786,1.806336 -1.761133,2.935221 -0.391347,1.113833 -0.587044,2.333098 -0.587044,3.657658 0,1.535284 0.316086,2.844714 0.948262,3.928442 0.647228,1.068679 1.542721,1.881693 2.686658,2.438611 1.143937,0.541866 2.453883,0.81287 3.928959,0.81287 0.737534,0 1.490104,-0.06045 2.257744,-0.180867 0.76764,-0.105362 1.47461,-0.263149 2.12183,-0.473873 0.4064,-0.135466 0.70764,-0.331164 0.90331,-0.587044 0.21072,-0.270933 0.34648,-0.60956 0.40669,-1.015959 l 0.81235,-5.148006 c 0.0903,-0.511762 0.008,-0.910327 -0.24804,-1.19631 -0.24083,-0.285985 -0.61737,-0.429431 -1.12913,-0.429431 h -3.47679 c -0.49671,0 -0.88811,0.128075 -1.174091,0.383956 -0.285985,0.240829 -0.428915,0.594829 -0.428915,1.061434 0,0.331139 0.128076,0.594458 0.383956,0.790133 0.25588,0.195672 0.60936,0.293522 1.06092,0.293522 h 1.98696 l -0.50902,3.150712 c -0.29696,0.08141 -0.59394,0.174507 -0.8909,0.235644 -0.51176,0.09031 -1.03123,0.135909 -1.55804,0.135909 -1.39982,0 -2.491011,-0.354 -3.273705,-1.061433 -0.782691,-0.707437 -1.174088,-1.806312 -1.174088,-3.29644 0,-1.113833 0.203383,-2.12203 0.609782,-3.025138 0.406399,-0.918161 1.001176,-1.648182 1.78387,-2.190048 0.782694,-0.541863 1.730955,-0.81287 2.844791,-0.81287 0.58702,0 1.15874,0.06762 1.71565,0.203088 0.55692,0.120415 1.08356,0.330966 1.58027,0.632003 0.37629,0.18062 0.71492,0.233391 1.01596,0.15813 0.30103,-0.07526 0.5495,-0.233044 0.74517,-0.473873 0.21073,-0.240828 0.34649,-0.519519 0.4067,-0.835608 0.0602,-0.316086 0.0223,-0.62449 -0.11318,-0.925525 -0.13546,-0.316089 -0.3911,-0.572237 -0.76739,-0.767911 -0.55692,-0.316087 -1.21932,-0.564035 -1.98696,-0.744658 -0.76764,-0.195672 -1.57297,-0.2935219 -2.41587,-0.2935219 z m 64.88854,0 c -0.873,0 -1.70856,0.1203897 -2.5063,0.3612179 -0.7827,0.225777 -1.48249,0.564406 -2.09962,1.015959 -0.60207,0.436503 -1.07594,0.978513 -1.42213,1.625741 -0.33114,0.632175 -0.49713,1.354513 -0.49713,2.167309 0,1.098781 0.32378,1.994274 0.971,2.686658 0.66228,0.692381 1.5506,1.166771 2.66444,1.422652 l 2.55126,0.609265 c 0.73754,0.165568 1.26418,0.391496 1.58027,0.677478 0.31609,0.285985 0.47439,0.647152 0.47439,1.083655 0,0.541863 -0.27101,0.986028 -0.81287,1.332218 -0.52682,0.346194 -1.27221,0.519349 -2.23553,0.519349 -0.67733,0 -1.39966,-0.07531 -2.1673,-0.225826 -0.75259,-0.165571 -1.47493,-0.42889 -2.16731,-0.790133 -0.39135,-0.195672 -0.73766,-0.256128 -1.0387,-0.180868 -0.30103,0.06021 -0.5495,0.210824 -0.74517,0.451652 -0.19568,0.225777 -0.31607,0.489096 -0.36122,0.790133 -0.0452,0.301034 -0.007,0.602267 0.11317,0.903304 0.13546,0.285985 0.37624,0.526762 0.72243,0.722437 0.51177,0.270932 1.06095,0.504024 1.64797,0.699699 0.60207,0.18062 1.2117,0.31638 1.82883,0.406693 0.61712,0.09031 1.23444,0.135392 1.85156,0.135392 0.90311,0 1.76069,-0.105532 2.57349,-0.316259 0.82785,-0.225777 1.55787,-0.549549 2.19005,-0.971001 0.64722,-0.4365 1.15184,-0.977996 1.51308,-1.625223 0.36124,-0.647228 0.54157,-1.407477 0.54157,-2.280481 0,-0.993419 -0.33863,-1.84383 -1.01596,-2.551266 -0.66228,-0.707433 -1.64076,-1.211535 -2.93522,-1.512569 l -2.52853,-0.609782 c -0.58702,-0.150518 -1.03118,-0.353901 -1.33222,-0.609782 -0.28598,-0.270933 -0.42891,-0.632102 -0.42891,-1.083655 0,-0.391347 0.12039,-0.729976 0.36122,-1.015958 0.25588,-0.285985 0.60988,-0.511908 1.06143,-0.677478 0.46661,-0.165571 1.00093,-0.248047 1.603,-0.248047 0.57197,0 1.15907,0.07531 1.76114,0.225826 0.61712,0.135466 1.17399,0.331163 1.6707,0.587044 0.45155,0.210727 0.83526,0.293203 1.15135,0.248047 0.33114,-0.06021 0.58677,-0.195452 0.76739,-0.406177 0.19567,-0.210727 0.3089,-0.459189 0.339,-0.745174 0.0451,-0.301034 0.007,-0.586896 -0.11317,-0.857829 -0.12042,-0.285982 -0.33097,-0.519593 -0.632,-0.700215 -0.75259,-0.451553 -1.57278,-0.774809 -2.46084,-0.970484 -0.873,-0.195672 -1.68602,-0.2935219 -2.43861,-0.2935219 z M 51.383944,9.8898356 c -0.466608,0 -0.850317,0.09785 -1.151351,0.2935224 -0.301037,0.180622 -0.579727,0.481852 -0.835608,0.903304 l -8.082711,13.072587 c -0.225776,0.376295 -0.308769,0.72209 -0.248564,1.038179 0.04516,0.301035 0.203457,0.549502 0.47439,0.745175 0.285985,0.180622 0.63178,0.270784 1.03818,0.270784 0.406399,0 0.745025,-0.08248 1.015958,-0.248047 0.285985,-0.18062 0.527281,-0.436773 0.722954,-0.767912 l 1.53789,-2.641699 h 7.47913 l 0.555522,2.122351 c 0.135466,0.526811 0.331163,0.918208 0.587044,1.174089 0.270933,0.240828 0.662327,0.361218 1.174089,0.361218 0.361243,0 0.670161,-0.08248 0.926041,-0.248047 0.255881,-0.16557 0.428522,-0.399181 0.518832,-0.700215 0.09031,-0.31609 0.06777,-0.707484 -0.0677,-1.174089 L 53.212773,11.334709 C 53.077306,10.853049 52.851384,10.491882 52.535295,10.251054 52.234258,10.010225 51.850549,9.8898356 51.383944,9.8898356 Z m 11.785327,0 c -0.541866,0 -0.970657,0.1352464 -1.286743,0.4061764 -0.316089,0.270933 -0.519472,0.677699 -0.609782,1.219564 l -2.00918,12.57546 c -0.09031,0.602071 0.0075,1.076461 0.293522,1.422652 0.285985,0.331139 0.737316,0.496611 1.35444,0.496611 h 7.608837 c 0.541863,0 0.970654,-0.150615 1.286744,-0.451652 0.316086,-0.316087 0.474389,-0.752563 0.474389,-1.309481 0,-0.376295 -0.135761,-0.669842 -0.406693,-0.880567 -0.270933,-0.210727 -0.662328,-0.315743 -1.174089,-0.315743 h -5.757271 l 1.78387,-11.243758 c 0.09031,-0.602071 1.49e-4,-1.068776 -0.270784,-1.399914 -0.270933,-0.346191 -0.700241,-0.5193484 -1.28726,-0.5193484 z m 12.937195,0 c -0.541866,0 -0.970654,0.1352464 -1.286744,0.4061764 -0.316086,0.270933 -0.519469,0.677699 -0.609781,1.219564 l -2.00918,12.57546 c -0.09031,0.602071 0.0075,1.076461 0.293522,1.422652 0.285985,0.331139 0.737316,0.496611 1.354439,0.496611 h 7.608838 c 0.541866,0 0.970657,-0.150615 1.286743,-0.451652 0.31609,-0.316087 0.47439,-0.752563 0.47439,-1.309481 0,-0.376295 -0.135761,-0.669842 -0.406693,-0.880567 -0.270933,-0.210727 -0.662328,-0.315743 -1.174089,-0.315743 H 75.88064 l 1.78387,-11.243758 c 0.09031,-0.602071 -3.68e-4,-1.068776 -0.271301,-1.399914 -0.270933,-0.346191 -0.699721,-0.5193484 -1.286743,-0.5193484 z m 41.204204,0 c -0.46661,0 -0.85031,0.09785 -1.15135,0.2935224 -0.30104,0.180622 -0.57921,0.481852 -0.83509,0.903304 L 107.241,24.159249 c -0.22578,0.376295 -0.30825,0.72209 -0.24805,1.038179 0.0452,0.301035 0.20294,0.549502 0.47388,0.745175 0.28598,0.180622 0.63229,0.270784 1.03869,0.270784 0.4064,0 0.74503,-0.08248 1.01596,-0.248047 0.28599,-0.18062 0.52676,-0.436773 0.72244,-0.767912 l 1.53789,-2.641699 h 7.47913 l 0.55604,2.122351 c 0.13546,0.526811 0.33116,0.918208 0.58704,1.174089 0.27093,0.240828 0.66233,0.361218 1.17409,0.361218 0.36124,0 0.66964,-0.08248 0.92552,-0.248047 0.25588,-0.16557 0.42904,-0.399181 0.51935,-0.700215 0.0903,-0.31609 0.0678,-0.707484 -0.0677,-1.174089 L 119.1395,11.334709 c -0.13547,-0.48166 -0.36087,-0.842827 -0.67696,-1.083655 -0.30104,-0.240829 -0.68527,-0.3612184 -1.15187,-0.3612184 z m 11.67319,0 c -0.48166,0 -0.87306,0.1280754 -1.17409,0.3839564 -0.28599,0.240828 -0.46683,0.609683 -0.54209,1.106392 l -2.07687,13.049849 c -0.0753,0.541863 -4.7e-4,0.970654 0.22531,1.286744 0.22577,0.301034 0.62485,0.451652 1.19682,0.451652 0.49671,0 0.88811,-0.128076 1.17409,-0.383956 0.28599,-0.255881 0.46683,-0.624736 0.54209,-1.106393 l 1.32705,-8.354012 2.64635,6.525183 c 0.15051,0.331139 0.32367,0.579606 0.51935,0.745174 0.21072,0.150519 0.48173,0.225826 0.81287,0.225826 0.31609,0 0.57172,-0.05994 0.76739,-0.18035 0.21073,-0.120415 0.41411,-0.316112 0.60978,-0.587045 l 4.77387,-6.77478 -1.27434,8.151957 c -0.0753,0.541863 0.008,0.970654 0.24857,1.286744 0.25588,0.301034 0.63959,0.451652 1.15135,0.451652 0.51176,0 0.91032,-0.128076 1.19631,-0.383956 0.28598,-0.255881 0.46682,-0.624736 0.54208,-1.106393 l 2.05466,-13.049849 c 0.0903,-0.541866 0.007,-0.962971 -0.24857,-1.264006 -0.24083,-0.316089 -0.63222,-0.4743894 -1.17409,-0.4743894 -0.4365,0 -0.79767,0.082993 -1.08365,0.2485634 -0.28599,0.150519 -0.55699,0.406152 -0.81287,0.767395 l -6.35775,9.040275 -3.37292,-8.791711 c -0.18063,-0.466605 -0.39886,-0.790378 -0.65474,-0.971 -0.24083,-0.1956725 -0.57946,-0.2935224 -1.01596,-0.2935224 z m 19.93573,0.2030884 c -0.55691,0 -1.00056,0.142929 -1.3317,0.428914 -0.33114,0.285985 -0.54221,0.707605 -0.63252,1.264523 l -1.94148,12.259716 c -0.0903,0.632176 0.008,1.12142 0.29352,1.467611 0.28598,0.331139 0.75269,0.496611 1.39991,0.496611 h 7.69876 c 0.49671,0 0.88811,-0.14293 1.17409,-0.428915 0.30103,-0.285985 0.45165,-0.685065 0.45165,-1.196826 0,-0.361243 -0.12808,-0.631733 -0.38396,-0.812353 -0.24082,-0.195675 -0.59431,-0.293523 -1.06091,-0.293523 h -6.09627 l 0.63252,-3.973917 h 5.86992 c 0.48166,0 0.86537,-0.14293 1.15135,-0.428915 0.30104,-0.301037 0.45166,-0.707285 0.45166,-1.219047 0,-0.346193 -0.12039,-0.617195 -0.36122,-0.81287 -0.24083,-0.195672 -0.59431,-0.293522 -1.06092,-0.293522 h -5.62188 l 0.58705,-3.725354 h 6.36653 c 0.49671,0 0.88811,-0.14293 1.17409,-0.428914 0.30104,-0.285983 0.45165,-0.685065 0.45165,-1.196827 0,-0.361242 -0.12807,-0.632247 -0.38395,-0.81287 -0.24083,-0.195672 -0.59431,-0.293522 -1.06092,-0.293522 z m -97.94234,3.725354 h 0.04548 l 1.577165,6.005835 h -5.13612 z m 65.92724,0 h 0.045 l 1.57717,6.005835 h -5.13561 z"
       style="font-size:85.3333px;font-family:Impact;-inkscape-font-specification:Impact;white-space:pre;shape-inside:url(#rect2);fill:#fafafa;stroke-width:3.00094;paint-order:markers fill stroke"
       id="path7" />
    <path
       d="M 4.023527,4.3397868 C 3.4475155,4.3397221 2.980563,4.7483634 2.9806966,5.2523926 v 5.4115564 c 1.926e-4,0.503827 0.4670495,0.912153 1.0428304,0.912089 H 33.93798 c 0.575781,6.4e-5 1.042638,-0.408262 1.042831,-0.912089 V 5.2523926 C 34.980944,4.7483634 34.513992,4.3397221 33.93798,4.3397868 Z"
       style="fill:#455cff;stroke-width:4.99999;paint-order:markers fill stroke"
       id="path6" />
    <path
       d="m 4.023527,24.527185 c -0.5760115,-6.5e-5 -1.042964,0.408577 -1.0428304,0.912606 v 5.411556 c 1.926e-4,0.503827 0.4670495,0.912154 1.0428304,0.912089 H 33.93798 c 0.575781,6.5e-5 1.042638,-0.408262 1.042831,-0.912089 v -5.411556 c 1.33e-4,-0.504029 -0.466819,-0.912671 -1.042831,-0.912606 z"
       style="fill:#455cff;stroke-width:4.99999;paint-order:markers fill stroke"
       id="path5" />
    <path
       d="m 4.023527,14.433744 a 1.0426967,0.91239422 0 0 0 -1.0428304,0.912089 v 5.411556 A 1.0426967,0.91239422 0 0 0 4.023527,21.669995 H 33.93798 a 1.0426967,0.91239422 0 0 0 1.042831,-0.912606 V 15.345833 A 1.0426967,0.91239422 0 0 0 33.93798,14.433744 Z"
       style="fill:#455cff;stroke-width:4.99999;paint-order:markers fill stroke"
       id="path4" />
  </g>
</svg>
