<?xml version="1.0" encoding="UTF-8" standalone="no"?>
<!-- Created with Inkscape (http://www.inkscape.org/) -->

<svg
   width="198.80299mm"
   height="36.103504mm"
   viewBox="0 0 198.803 36.103504"
   version="1.1"
   id="svg1"
   inkscape:version="1.3.2 (091e20e, 2023-11-25)"
   sodipodi:docname="auto-lastplayed.svg"
   xmlns:inkscape="http://www.inkscape.org/namespaces/inkscape"
   xmlns:sodipodi="http://sodipodi.sourceforge.net/DTD/sodipodi-0.dtd"
   xmlns="http://www.w3.org/2000/svg"
   xmlns:svg="http://www.w3.org/2000/svg">
  <sodipodi:namedview
     id="namedview1"
     pagecolor="#ffffff"
     bordercolor="#666666"
     borderopacity="1.0"
     inkscape:showpageshadow="2"
     inkscape:pageopacity="0.0"
     inkscape:pagecheckerboard="0"
     inkscape:deskcolor="#d1d1d1"
     inkscape:document-units="mm"
     inkscape:zoom="1.6819304"
     inkscape:cx="275.27893"
     inkscape:cy="129.61297"
     inkscape:window-width="1800"
     inkscape:window-height="1037"
     inkscape:window-x="0"
     inkscape:window-y="44"
     inkscape:window-maximized="0"
     inkscape:current-layer="svg1" />
  <defs
     id="defs1">
    <rect
       x="161.12437"
       y="124.85653"
       width="611.797"
       height="108.209"
       id="rect2" />
    <rect
       x="166.48387"
       y="161.4389"
       width="548.2196"
       height="127.8058"
       id="rect1" />
  </defs>
  <g
     id="g10">
    <path
       d="M 8.3829508,4.7986735 7.8672201,6.727238 C 8.2838814,6.3181792 8.7224687,5.9435168 9.1730835,5.5888062 Z M 7.8238118,6.8900187 6.70295,11.084078 10.897009,9.9632161 Z m 4.5780152,1.9275309 c -0.45464,0.3251179 -0.886817,0.6917621 -1.298629,1.0903728 l 1.885156,-0.5038453 z"
       style="fill:#ee2929;fill-rule:evenodd"
       id="path10" />
    <path
       d="M 7.7990072,2.6174113 5.1071818,12.679846 15.170133,9.9885376 13.399182,8.2175863 C 13.062337,8.409327 12.721148,8.5892002 12.401827,8.8175496 l 0.586527,0.5865275 -1.885156,0.5038453 c -0.04507,0.043628 -0.09761,0.07487 -0.14211,0.1193726 L 10.897009,9.9632161 6.70295,11.084078 7.8238118,6.8900187 7.7597331,6.8259399 c 0.034686,-0.034686 0.072544,-0.064397 0.107487,-0.098702 L 8.3829508,4.7986735 9.1730835,5.5888062 C 9.4737222,5.3521522 9.7784448,5.1230948 10.092407,4.9108114 Z"
       style="fill:#ee2929;fill-rule:evenodd"
       id="path9" />
    <path
       d="m 18.76578,2.1843628 c -0.446927,0.00638 -0.893337,0.031662 -1.337903,0.075448 -3.556533,0.3502877 -6.996033,1.8940199 -9.6681439,4.5661295 L 10.961088,10.027295 C 14.797266,6.1911164 20.772343,5.602979 25.283211,8.6170451 29.79408,11.631112 31.53686,17.376605 29.460734,22.388814 27.384609,27.401023 22.090452,30.23233 16.769519,29.17393 11.448587,28.11553 7.6388107,23.474203 7.6388102,18.049028 H 3.111438 c 7e-7,7.557867 5.3628014,14.091508 12.775448,15.565974 7.412645,1.474468 14.865301,-2.509368 17.757572,-9.491927 C 36.536729,17.140515 34.082958,9.0503106 27.79882,4.8513835 25.049509,3.014353 21.894268,2.1396825 18.76578,2.1843628 Z"
       style="fill:#ee2929;paint-order:markers fill stroke"
       id="path8" />
    <path
       d="m 79.177079,9.8448771 c -0.873005,0 -1.70856,0.1203895 -2.506307,0.3612179 -0.782687,0.225777 -1.482489,0.564411 -2.099613,1.015959 -0.602072,0.436504 -1.075944,0.978512 -1.422136,1.625741 -0.331141,0.632171 -0.497127,1.354513 -0.497127,2.167309 0,1.098782 0.323777,1.994273 0.971,2.686658 0.662281,0.692382 1.550601,1.166771 2.664437,1.422652 l 2.551266,0.609265 c 0.737541,0.165568 1.264178,0.391496 1.580265,0.677478 0.316089,0.285985 0.473873,0.647151 0.473873,1.083655 0,0.541858 -0.270488,0.986027 -0.812354,1.332218 -0.526806,0.346194 -1.272204,0.519349 -2.235522,0.519349 -0.677325,0 -1.399667,-0.07531 -2.16731,-0.225826 -0.75259,-0.165571 -1.474925,-0.42889 -2.167309,-0.790133 -0.391348,-0.195672 -0.737659,-0.256128 -1.038697,-0.180868 -0.301037,0.06021 -0.549499,0.210824 -0.745174,0.451652 -0.195667,0.225777 -0.316062,0.489096 -0.361218,0.790133 -0.04516,0.301029 -0.0078,0.602267 0.112655,0.903304 0.135466,0.285985 0.376762,0.526762 0.722953,0.722437 0.511762,0.270933 1.060941,0.504023 1.647961,0.699699 0.602072,0.18062 1.211705,0.31638 1.828829,0.406693 0.617124,0.09031 1.23444,0.135392 1.851567,0.135392 0.903101,0 1.760687,-0.105532 2.573486,-0.316259 0.827844,-0.225777 1.557871,-0.549549 2.190047,-0.971001 0.647229,-0.436501 1.151843,-0.977995 1.513086,-1.625223 0.361244,-0.647224 0.541569,-1.407476 0.541569,-2.280481 0,-0.993415 -0.338626,-1.843829 -1.015958,-2.551266 -0.662273,-0.707429 -1.640765,-1.211534 -2.935222,-1.512569 l -2.528528,-0.609782 c -0.587019,-0.150519 -1.031189,-0.353901 -1.332218,-0.609782 -0.285985,-0.270933 -0.428914,-0.632101 -0.428914,-1.083655 0,-0.391347 0.120389,-0.729981 0.361218,-1.015958 0.255881,-0.285985 0.609878,-0.511907 1.061434,-0.677478 0.4666,-0.165571 1.000931,-0.248047 1.603003,-0.248047 0.571968,0 1.158541,0.07531 1.760616,0.225826 0.617119,0.135466 1.174506,0.331168 1.671216,0.587044 0.451556,0.210727 0.835269,0.293203 1.151351,0.248047 0.331141,-0.06021 0.586772,-0.195452 0.767395,-0.406177 0.195667,-0.210727 0.308893,-0.459189 0.338997,-0.745174 0.04515,-0.301035 0.0072,-0.586896 -0.113171,-0.857829 C 84.58811,11.523121 84.377559,11.289506 84.076522,11.108883 83.323931,10.657329 82.503742,10.334074 81.61569,10.138399 80.742685,9.9427268 79.92967,9.8448771 79.177079,9.8448771 Z m -33.008838,0.044958 c -0.541866,0 -0.970661,0.1352514 -1.286743,0.4061764 -0.316089,0.270933 -0.519472,0.677698 -0.609782,1.219564 l -2.009179,12.57546 c -0.09031,0.602067 0.0075,1.076461 0.293522,1.422652 0.285985,0.331139 0.73732,0.496611 1.354439,0.496611 h 7.608838 c 0.541858,0 0.970654,-0.150615 1.286743,-0.451652 0.316087,-0.316087 0.47439,-0.752563 0.47439,-1.309481 0,-0.376295 -0.135761,-0.669842 -0.406694,-0.880567 -0.270933,-0.210727 -0.662326,-0.315743 -1.174088,-0.315743 h -5.757272 l 1.783871,-11.243758 c 0.09031,-0.602066 1.48e-4,-1.068775 -0.270785,-1.399914 -0.270933,-0.346191 -0.700245,-0.5193484 -1.28726,-0.5193484 z m 17.881596,0 c -0.466605,0 -0.850313,0.09785 -1.151351,0.2935224 -0.301037,0.180623 -0.579727,0.481852 -0.835608,0.903304 l -8.08271,13.072587 c -0.225777,0.376295 -0.308256,0.72209 -0.248047,1.038179 0.04515,0.301035 0.20294,0.549502 0.473873,0.745175 0.285985,0.180622 0.632304,0.270784 1.038696,0.270784 0.4064,0 0.745026,-0.08248 1.015959,-0.248047 0.285985,-0.18062 0.526761,-0.436773 0.722436,-0.767912 l 1.537891,-2.641699 h 7.47913 l 0.556038,2.122351 c 0.135467,0.526806 0.331164,0.918208 0.587044,1.174089 0.270934,0.240829 0.662327,0.361218 1.174089,0.361218 0.361243,0 0.669644,-0.08248 0.925525,-0.248047 0.255876,-0.165571 0.429035,-0.399181 0.519348,-0.700215 0.09031,-0.31609 0.06777,-0.707489 -0.0677,-1.174089 L 65.878666,11.334709 C 65.7432,10.853048 65.517278,10.491883 65.201188,10.251054 64.900159,10.010225 64.516445,9.8898356 64.049837,9.8898356 Z m 61.276363,0 c -0.54187,0 -0.97117,0.1352514 -1.28726,0.4061764 -0.31609,0.270933 -0.51895,0.677698 -0.60926,1.219564 l -2.0097,12.57546 c -0.0903,0.602067 0.008,1.076461 0.29352,1.422652 0.28599,0.331139 0.73784,0.496611 1.35496,0.496611 h 7.60832 c 0.54186,0 0.97117,-0.150615 1.28726,-0.451652 0.31608,-0.316087 0.47387,-0.752563 0.47387,-1.309481 0,-0.376295 -0.13524,-0.669842 -0.40618,-0.880567 -0.27093,-0.210727 -0.66232,-0.315743 -1.17408,-0.315743 h -5.75728 l 1.78336,-11.243758 c 0.0903,-0.602066 1.5e-4,-1.068775 -0.27079,-1.399914 -0.27093,-0.346191 -0.69972,-0.5193484 -1.28674,-0.5193484 z m 17.8816,0 c -0.4666,0 -0.85084,0.09785 -1.15187,0.2935224 -0.30104,0.180623 -0.57921,0.481852 -0.83509,0.903304 l -8.08271,13.072587 c -0.22578,0.376295 -0.30878,0.72209 -0.24857,1.038179 0.0452,0.301035 0.20347,0.549502 0.47439,0.745175 0.28599,0.180622 0.63179,0.270784 1.03818,0.270784 0.4064,0 0.74503,-0.08248 1.01596,-0.248047 0.28598,-0.18062 0.52728,-0.436773 0.72295,-0.767912 l 1.53789,-2.641699 h 7.47913 l 0.55553,2.122351 c 0.13546,0.526806 0.33116,0.918208 0.58704,1.174089 0.27093,0.240829 0.66233,0.361218 1.17409,0.361218 0.36124,0 0.67016,-0.08248 0.92604,-0.248047 0.25588,-0.165571 0.42852,-0.399181 0.51883,-0.700215 0.0903,-0.31609 0.0678,-0.707489 -0.0677,-1.174089 l -3.81527,-12.756327 c -0.13547,-0.481661 -0.3614,-0.842826 -0.67748,-1.083655 -0.30104,-0.240829 -0.68475,-0.3612184 -1.15135,-0.3612184 z m 8.89558,0 c -0.48166,0 -0.86537,0.1203894 -1.15135,0.3612184 -0.28598,0.240829 -0.45914,0.549229 -0.51935,0.925525 -0.0452,0.361243 0.0527,0.760322 0.29352,1.196826 l 3.50366,6.443534 -0.83974,5.34231 c -0.10536,0.632176 -0.0377,1.136274 0.20309,1.512569 0.25588,0.361238 0.66265,0.541569 1.21956,0.541569 1.15899,0 1.83625,-0.586574 2.03192,-1.760616 l 0.90744,-5.66012 5.52731,-6.419246 c 0.31609,-0.376295 0.47387,-0.752835 0.47387,-1.12913 0,-0.391348 -0.13524,-0.714603 -0.40617,-0.970483 -0.25589,-0.255881 -0.61705,-0.3839564 -1.08366,-0.3839564 -0.4064,0 -0.74554,0.082993 -1.01647,0.2485634 -0.27094,0.150519 -0.58702,0.436377 -0.94827,0.857829 l -4.00337,4.734595 -2.3859,-4.508769 c -0.27093,-0.511757 -0.54194,-0.858073 -0.81287,-1.038696 -0.25588,-0.1956727 -0.58682,-0.2935224 -0.99322,-0.2935224 z M 87.91453,10.092924 c -0.541866,0 -0.970656,0.150615 -1.286743,0.451652 -0.301037,0.301035 -0.451652,0.722664 -0.451652,1.264522 0,0.361246 0.135761,0.647105 0.406694,0.857829 0.270925,0.210727 0.646955,0.31626 1.128613,0.31626 h 3.702616 l -1.761132,11.176062 c -0.105363,0.632176 -0.03005,1.136274 0.225826,1.512569 0.270933,0.361238 0.692559,0.541569 1.264522,0.541569 0.57197,0 1.016132,-0.150098 1.332218,-0.451135 0.331139,-0.301035 0.541693,-0.737511 0.632003,-1.309481 l 1.828829,-11.469584 h 3.973918 c 0.541866,0 0.962968,-0.150615 1.264008,-0.451652 0.30103,-0.316087 0.45165,-0.745394 0.45165,-1.28726 0,-0.361243 -0.13524,-0.639419 -0.40618,-0.835091 -0.255878,-0.210725 -0.632418,-0.31626 -1.129128,-0.31626 z m 22.51025,0 c -0.58701,0 -1.05372,0.142929 -1.39991,0.428914 -0.34619,0.285986 -0.55674,0.722461 -0.632,1.309481 l -1.96422,12.32793 c -0.0903,0.632176 -0.008,1.136274 0.24804,1.512569 0.25588,0.361238 0.66213,0.541569 1.21905,0.541569 0.57197,0 1.02382,-0.142932 1.35496,-0.428914 0.33114,-0.301038 0.54169,-0.744679 0.632,-1.331702 l 0.65474,-4.177006 h 3.70313 c 2.0922,0 3.6875,-0.496929 4.78627,-1.490348 1.09879,-0.993414 1.64796,-2.38584 1.64796,-4.177006 0,-1.429916 -0.46619,-2.535966 -1.39939,-3.318661 -0.93322,-0.797739 -2.32564,-1.196826 -4.17701,-1.196826 z m 58.34063,0 c -0.55692,0 -1.00056,0.142929 -1.3317,0.428914 -0.33114,0.285986 -0.54221,0.707604 -0.63252,1.264523 l -1.94149,12.259716 c -0.0903,0.632177 0.008,1.12142 0.29353,1.467611 0.28598,0.331139 0.75268,0.496611 1.39991,0.496611 h 7.69876 c 0.4967,0 0.8881,-0.14293 1.17408,-0.428915 0.30103,-0.285985 0.45166,-0.685064 0.45166,-1.196826 0,-0.361243 -0.12808,-0.631733 -0.38396,-0.812353 -0.24083,-0.195675 -0.59431,-0.293523 -1.06092,-0.293523 h -6.09627 l 0.63252,-3.973917 h 5.86993 c 0.48165,0 0.86537,-0.142929 1.15135,-0.428915 0.30104,-0.301037 0.45165,-0.707285 0.45165,-1.219047 0,-0.346193 -0.12039,-0.617195 -0.36121,-0.81287 -0.24084,-0.195672 -0.59432,-0.293522 -1.06092,-0.293522 h -5.62188 l 0.58704,-3.725354 h 6.36706 c 0.4967,0 0.88759,-0.142929 1.17357,-0.428914 0.30104,-0.285978 0.45165,-0.68507 0.45165,-1.196827 0,-0.361243 -0.12756,-0.632247 -0.38344,-0.81287 -0.24083,-0.195672 -0.59483,-0.293522 -1.06143,-0.293522 z m 13.65963,0 c -0.55691,0 -1.00056,0.142929 -1.3317,0.428914 -0.33114,0.285986 -0.54221,0.707604 -0.63252,1.264523 l -1.94148,12.259716 c -0.10537,0.617127 -0.008,1.098682 0.29352,1.444874 0.30103,0.346191 0.76005,0.519348 1.37717,0.519348 h 4.87671 c 1.52023,0 2.85221,-0.22593 3.99614,-0.677478 1.14394,-0.466608 2.09989,-1.105947 2.86752,-1.918746 0.76765,-0.812792 1.33988,-1.768741 1.71618,-2.867526 0.39135,-1.098776 0.58653,-2.287819 0.58653,-3.567224 0,-2.167456 -0.70698,-3.853433 -2.12184,-5.057572 -1.41487,-1.219199 -3.41693,-1.828829 -6.00583,-1.828829 z m -70.69077,2.732133 h 2.93522 c 0.88805,0 1.54993,0.165472 1.98644,0.49661 0.43649,0.331139 0.65474,0.857777 0.65474,1.580266 0,0.857947 -0.24795,1.520353 -0.74466,1.986959 -0.49671,0.451556 -1.22673,0.677478 -2.19005,0.677478 h -3.38687 z M 183.78,12.960449 h 2.32544 c 1.49012,0 2.60386,0.353488 3.34139,1.060917 0.75259,0.692385 1.12913,1.693417 1.12913,3.002918 0,0.903109 -0.11322,1.730979 -0.33899,2.483569 -0.21073,0.737539 -0.54168,1.377397 -0.99322,1.919263 -0.43651,0.541863 -1.00106,0.963493 -1.69344,1.264522 -0.69239,0.301038 -1.50541,0.451135 -2.43861,0.451135 h -2.95744 z M 63.64366,13.818278 h 0.04496 l 1.577165,6.005835 H 60.13018 Z m 79.15744,0 h 0.0455 l 1.57716,6.005835 h -5.13612 z"
       style="font-size:85.3333px;font-family:Impact;-inkscape-font-specification:Impact;white-space:pre;shape-inside:url(#rect2);fill:#fafafa;stroke-width:3.00094;paint-order:markers fill stroke"
       id="path7" />
  </g>
</svg>
