<?xml version="1.0" encoding="UTF-8" standalone="no"?>
<!-- Generator: Adobe Illustrator 25.1.0, SVG Export Plug-In . SVG Version: 6.00 Build 0)  -->

<svg
   version="1.1"
   id="Layer_1"
   x="0px"
   y="0px"
   viewBox="0 0 3840 1254"
   style="enable-background:new 0 0 3840 1254;"
   xml:space="preserve"
   sodipodi:docname="ColecoVision-02.svg"
   inkscape:version="1.3.2 (091e20e, 2023-11-25)"
   xmlns:inkscape="http://www.inkscape.org/namespaces/inkscape"
   xmlns:sodipodi="http://sodipodi.sourceforge.net/DTD/sodipodi-0.dtd"
   xmlns="http://www.w3.org/2000/svg"
   xmlns:svg="http://www.w3.org/2000/svg"><defs
   id="defs30">
	
	
	

		
		
	
		
	
		
		
		
		
		
		
		
		
		
		
		
		
	
			
			
			
			
			
			
			
			
			
			
			
			
		
			<linearGradient
   id="SVGID_1_"
   gradientUnits="userSpaceOnUse"
   x1="84.989899"
   y1="626.99042"
   x2="3755.01"
   y2="626.99042">
				<stop
   offset="0"
   style="stop-color:#D81526"
   id="stop24" />
				<stop
   offset="0.25"
   style="stop-color:#DE551E"
   id="stop25" />
				<stop
   offset="0.5"
   style="stop-color:#EEB824"
   id="stop26" />
				<stop
   offset="0.75"
   style="stop-color:#75B230"
   id="stop27" />
				<stop
   offset="1"
   style="stop-color:#49A070"
   id="stop28" />
			</linearGradient>
			
		</defs><sodipodi:namedview
   id="namedview30"
   pagecolor="#ffffff"
   bordercolor="#666666"
   borderopacity="1.0"
   inkscape:showpageshadow="2"
   inkscape:pageopacity="0.0"
   inkscape:pagecheckerboard="0"
   inkscape:deskcolor="#d1d1d1"
   inkscape:zoom="0.1609375"
   inkscape:cx="1916.8932"
   inkscape:cy="624.46602"
   inkscape:window-width="2048"
   inkscape:window-height="1154"
   inkscape:window-x="0"
   inkscape:window-y="25"
   inkscape:window-maximized="0"
   inkscape:current-layer="Layer_1" />
<style
   type="text/css"
   id="style1">
	.st0{fill:#D8D8D8;}
	.st1{fill:url(#SVGID_1_);}
	.st2{fill:#FFFFFF;}
	.st3{fill:url(#SVGID_2_);}
	.st4{fill:url(#SVGID_3_);}
	.st5{fill:#999999;}
	.st6{fill:url(#SVGID_4_);}
	.st7{fill:#666666;}
</style>
<g
   id="g105"><path
     d="m 1040,860.03516 -24.8008,42.95312 v 273.61132 c 0,41.8999 34.1001,76 76,76 h 138.1016 c -13.7,0 -24.8008,-11.0989 -24.8008,-24.7988 h -113.4004 c -28.1996,0 -51.0996,-22.902 -51.0996,-51.1016 z"
     style="fill:#d8d8d8"
     id="path105" /><path
     d="m 1898.4316,1206.9375 c -6.8805,5.0408 -14.3692,9.234 -21.7832,13.5234 13.7845,19.4091 36.3911,32.1387 61.9512,32.1387 h 220.8008 c 12.8829,0 23.3421,-9.8514 24.5586,-22.4141 -8.3919,-4.0913 -16.6532,-8.4253 -24.459,-13.4414 v 11.0567 h -220.9004 c -16.6633,0 -30.8516,-8.4976 -40.168,-20.8633 z"
     style="fill:#d8d8d8"
     id="path104" /><path
     d="m 1887.9746,1183.2988 c -35.7852,27.6973 -80.4108,44.502 -129.0742,44.502 h -446.0996 -83.5 -24.8008 c 0,13.7 11.1008,24.7988 24.8008,24.7988 h 529.5996 c 52.1552,0 100.386,-16.9836 139.5312,-45.6621 -5.1966,-6.8976 -9.2937,-14.6582 -10.457,-23.6387 z"
     style="fill:#d8d8d8"
     id="path103" /><path
     d="m 835.40039,0 c -40.01256,0 -77.69753,10.080225 -110.6875,27.802734 5.53763,6.3717 10.30843,13.401127 13.50195,21.363282 29.11029,-15.352128 62.04246,-24.365235 97.18555,-24.365235 l 391.40041,0.398438 c 32.7021,0.02829 63.6025,7.694976 91.1992,21.140625 V 26.599609 c 0,-2.479921 0.735,-4.731173 1.4121,-6.990234 C 1290.9874,7.2958417 1259.683,0.42584125 1226.8008,0.40039063 Z"
     style="fill:#d8d8d8"
     id="path102" /><path
     d="m 3214.3008,1.1992187 c -39.6948,10e-8 -77.0923,9.9353823 -109.8945,27.3964843 5.4295,6.42973 10.0686,13.522598 13.1503,21.509766 C 3146.5594,34.906463 3179.3415,26 3214.3008,26 l 391.3984,0.400391 c 115.5984,0.1 209.6016,94.200449 209.6016,209.798829 v 221.10156 c 0,115.69838 -94.1024,209.79883 -209.8008,209.79883 h -7.0312 c 5.2971,7.82321 9.8451,16.16394 14.1855,24.61719 C 3738.7007,687.86404 3840,584.268 3840,457.30078 V 236.19922 C 3840,106.99948 3734.899,1.799609 3605.6992,1.5996094 Z"
     style="fill:#d8d8d8"
     id="path101" /><path
     d="m 2159.5,1186.1074 v 30.6367 c 36.5218,23.469 79.8377,37.2559 126.4004,37.2559 H 2677 c 42.6855,0 82.6157,-11.6298 117.127,-31.6172 -5.0824,-6.6791 -9.2644,-14.0575 -11.9317,-22.1992 -30.9694,18.1498 -66.6688,29.0156 -105.0957,29.0156 h -391.1992 c -47.5854,0 -91.211,-16.2746 -126.4004,-43.0918 z"
     style="fill:#d8d8d8"
     id="path100" /><path
     d="M 234.59961,1.1992187 C 105.19987,1.1992187 0,106.50104 0,235.80078 V 457.40039 C 0,577.44288 90.693837,676.7381 207.22656,690.34961 L 191.0918,662.40625 C 96.128624,642.35266 24.800781,558.34793 24.800781,457.40039 V 235.80078 C 24.800781,120.2024 118.90123,26 234.59961,26 l 433.20117,0.199219 c 22.83991,0 41.97444,15.124373 48.50977,35.871093 6.95144,-4.812784 14.38476,-8.938656 21.90429,-12.904296 C 727.00388,21.214652 699.71982,1.4003906 667.80078,1.4003906 Z M 565.27344,667.19922 579.5918,692 h 186.01562 l 14.31836,-24.80078 z"
     style="fill:#d8d8d8"
     id="path99" /><path
     d="m 2613.5996,1.1992187 c -39.6617,0 -77.0282,9.9195403 -109.8105,27.3535153 5.4377,6.406832 10.091,13.475089 13.1914,21.439453 C 2545.9539,34.852155 2578.7013,26 2613.5996,26 l 433.2012,0.199219 c 23.1744,0 42.5452,15.564568 48.793,36.783203 6.9723,-4.803894 14.4215,-8.924889 21.9628,-12.876953 -10.9734,-28.440623 -38.4845,-48.7050784 -70.7558,-48.7050784 z"
     style="fill:#d8d8d8"
     id="path98" /><path
     d="M 1342.8008,1.8007812 C 1329.1008,1.8007813 1318,12.899637 1318,26.599609 v 19.740235 c 8.5903,4.185333 16.9098,8.851653 24.8008,14.123047 V 26.599609 h 220.8984 c 28.2996,0 51.2012,22.901568 51.2012,51.201172 V 414.59961 H 1778.5 V 389.90039 H 1639.6992 V 77.800781 c 0,-41.899916 -34.1001,-75.9999997 -76,-75.9999998 z"
     style="fill:#d8d8d8"
     id="path97" /><path
     d="m 1803.3008,1.0996094 c -6.5,0 -12.9,2.7007904 -17.5,7.3007812 -4.7,4.5999904 -7.3008,10.9000134 -7.3008,17.5000004 V 414.59961 h 24.8008 V 25.900391 l 643,0.40039 c 23.0851,0 42.3908,15.446949 48.7168,36.539063 6.9722,-4.794767 14.4209,-8.906586 21.9629,-12.847657 C 2505.9524,21.662316 2478.4924,1.5 2446.3008,1.5 Z"
     style="fill:#d8d8d8"
     id="path96" /><path
     d="M 3567.2168,667.09961 C 3596.2501,703.04763 3614,748.47706 3614,798.30078 v 430.29882 l -221.5,-2.5 c -27.9996,-0.4 -50.5,-23.1992 -50.5,-51.2988 V 837.30078 h -266.6992 v 390.50002 h -220.9004 c -25.0867,0 -45.8481,-18.0222 -50.2578,-41.8223 -6.9119,5.2839 -14.4087,9.7871 -21.9473,14.2051 9.9541,30.384 38.5411,52.416 72.2051,52.416 h 220.9004 c 13.7,0 24.7988,-11.0988 24.7988,-24.7988 V 862.09961 h 217.0996 v 312.70119 c 0,41.4999 33.7017,75.5 75.1016,76 0,0 221.5996,2.4996 221.5996,2.5996 6.5,0 12.8004,-2.6012 17.4004,-7.2012 4.7,-4.6 7.3984,-10.9996 7.3984,-17.5996 V 798.30078 c 0,-48.54838 -14.8486,-93.71518 -40.2304,-131.20117 z"
     style="fill:#d8d8d8"
     id="path95" /><path
     d="m 191.0918,662.40625 333.60742,577.79295 c 4.49999,7.7 12.60002,12.4004 21.5,12.4004 H 799 c 8.89998,0 17.10001,-4.7004 21.5,-12.4004 L 1040,860.03516 V 810.39844 L 799,1227.8008 H 546.19922 L 222.29492,666.8125 c -10.66227,-0.6166 -21.02711,-2.25736 -31.20312,-4.40625 z m 345.52929,4.79297 135.97852,235.5 135.98047,-235.5 h -28.6543 L 672.59961,853.09961 565.27344,667.19922 Z"
     style="fill:#d8d8d8"
     id="path94" /><path
     d="m 1286.6406,656.83594 c -11.0204,3.31658 -22.3324,5.94237 -34.041,7.39648 v 40.67383 c 9.0541,-17.63563 20.6171,-33.72617 34.041,-48.07031 z M 1100.1992,706.13477 1040,810.39844 v 366.30076 c 0,28.2 22.8997,51.1016 51.0996,51.1016 h 138.2012 v -60.2012 h -129.1016 z m 152.4004,211.82226 v 60.44336 H 1299 c -18.88,-17.11553 -34.6527,-37.58664 -46.4004,-60.44336 z"
     style=""
     id="path93" /><path
     d="m 2099.3008,667.30078 v 35.13867 c 6.4134,-12.48642 13.9918,-24.25597 22.6797,-35.13867 z M 1901,838.90039 c 19.0477,17.26757 34.9196,37.95796 46.6992,61.06055 v -61.06055 z m 46.6992,272.91211 c -14.3241,28.1146 -34.9715,52.3278 -59.7246,71.4863 3.2489,25.0806 24.6667,44.502 50.625,44.502 H 2159.5 v -41.6934 c -24.9352,-19.0026 -45.7614,-43.1371 -60.1992,-71.2461 v 52.7383 h -151.6016 z"
     style=""
     id="path92" /><path
     d="M 1410.0996,610.35156 V 619 h -45.9004 v -4.89648 c -22.2385,19.39179 -48.6239,34.02459 -77.5586,42.73242 -13.424,14.34417 -24.9869,30.43464 -34.041,48.07031 v 213.05078 c 11.7477,22.85676 27.5203,43.3278 46.4004,60.44336 h -46.4004 v 189.19921 h -23.2988 v 60.2012 h 529.5996 c 82.3251,0 153.7663,-47.2283 188.7988,-115.9883 V 899.96094 C 1935.9196,876.85833 1920.0477,856.16798 1901,838.90039 h 46.6992 V 656.75391 C 1929.4163,650.7621 1912.6748,641.72847 1897,631.23828 v 34.96094 h -3.1992 v 112.5 h -419.9004 c -17.9998,0 -32.7012,14.60139 -32.7012,32.70117 0,17.99978 14.6014,32.69922 32.7012,32.69922 h 285 c 83.699,0 151.5996,67.90061 151.5996,151.59961 v 20.20118 c 0,83.699 -67.9006,151.5996 -151.5996,151.5996 h -469.3008 v -129 h 436.5996 c 17.9998,0 32.7012,-14.6994 32.7012,-32.6992 0,-17.9998 -14.6014,-32.70119 -32.7012,-32.70119 h -285 c -83.699,0 -151.5996,-67.90061 -151.5996,-151.59961 v -20.19922 c 0,-83.69899 67.9006,-151.60156 151.5996,-151.60156 h 29.6856 c -22.5613,-9.54533 -43.0785,-22.9507 -60.7852,-39.34766 z"
     style=""
     id="path91" /><path
     d="m 835.40039,24.800781 c -44.22148,0 -85.22698,13.824811 -119.08984,37.269531 1.53361,4.868544 2.58984,9.951329 2.58984,15.330079 l 11.69922,50.515629 C 757.63529,101.38441 794.62227,84.950571 835.5,85 l 391.1992,0.400391 c 47.164,0.05717 88.7194,22.381059 116.1016,56.554689 V 60.462891 c -33.2418,-22.206323 -73.118,-35.226577 -116,-35.263672 z m 60,189.099609 c -31.99965,0 -58,26.00035 -58,58 V 416.5 c 0,31.99965 26.00035,58 58,58 h 271.00001 c 31.9996,0 58,-26.00035 58,-58 V 271.90039 c 0,-31.99965 -26.0004,-58 -58,-58 z m 460.58401,315.81055 c -25.7524,45.16728 -73.7884,75.98828 -129.4844,75.98828 h -68.3105 l -25.3477,43.90039 h 119.7578 v 14.63281 c 42.4499,-5.27195 80.891,-23.35124 111.5996,-50.1289 v -41.00391 h 14.0293 c -9.0124,-13.44248 -16.502,-27.98843 -22.2441,-43.38867 z m -514.72854,75.98828 0.8125,3.50195 2.02148,-3.50195 z"
     style=""
     id="path90" /><path
     d="m 3214.3008,26 c -44.05,0 -84.9199,13.703257 -118.707,36.982422 1.3547,4.601151 2.3066,9.374899 2.3066,14.417969 v 65.486329 c 27.4545,-34.33637 69.2117,-56.744802 116.5996,-56.687501 l 391.0996,0.40039 C 3688.0988,86.699608 3755,153.70004 3755,236.19922 v 221.10156 c 0,82.59918 -67.0004,149.59961 -149.5996,149.59961 h -115.5391 c 30.4274,13.63948 56.668,34.58467 77.3555,60.19922 H 3605.5 c 115.6998,0 209.8008,-94.09906 209.8008,-209.79883 V 236.19922 c 0,-115.59977 -94.0018,-209.69883 -209.6016,-209.798829 z m 60.0996,189.09961 c -31.9997,0 -58,26.00032 -58,58 v 144.70117 c 0,31.99968 26.0003,58 58,58 h 271 c 31.9997,0 58,-26.00032 58,-58 V 273.09961 c 0,-31.99968 -26.0003,-58 -58,-58 z m -176.5,335.42578 v 37.69922 l 45.5137,0.041 c -17.5499,-9.52839 -33.0241,-22.38846 -45.5137,-37.74023 z"
     style=""
     id="path89" /><path
     d="m 2497.4004,632.0918 v 16.42382 l 29.7207,0.0312 c -10.3813,-4.70253 -20.325,-10.1942 -29.7207,-16.45507 z m 251.2871,35.10742 c 22.184,12.26856 40.9715,29.96853 54.5117,51.375 v -51.375 z m -626.707,0.10156 c -8.6879,10.88274 -16.2663,22.6522 -22.6797,35.13867 v 412.42185 c 34.8133,67.778 105.2944,114.3379 186.5996,114.3379 h 391.1992 c 47.7813,0 91.7356,-16.2299 127.043,-43.2207 -0.5648,-3.0482 -0.9434,-6.1659 -0.9434,-9.3789 v -77.5351 C 2776.6845,1140.9671 2730.2371,1169 2677,1169 h -391.0996 c -82.5993,0 -149.5996,-67.0004 -149.5996,-149.5996 V 797.90039 c 0,-56.55103 31.7468,-105.16638 78.0312,-130.59961 z M 2346,777.19922 c -31.9997,0 -58,26.00029 -58,58 v 144.60156 c 0,31.99972 26.0003,58.00002 58,58.00002 h 271 c 31.9997,0 58,-26.0003 58,-58.00002 V 835.19922 c 0,-31.99971 -26.0003,-58 -58,-58 z"
     style=""
     id="path88" /><path
     d="M 234.59961,26 C 118.89984,26 24.800781,120.20101 24.800781,235.80078 v 221.59961 c 0,111.76611 87.329609,203.04124 197.494139,209.41211 L 181.97461,596.97656 C 125.42666,575.61855 85,521.38599 85,457.30078 v -221.5 C 85,153.20144 152.09988,86.199219 234.69922,86.199219 l 424,0.201172 V 215.09961 h -364 c -31.99975,0 -58,26.00026 -58,58 v 144.70117 c 0,31.99975 26.00025,58 58,58 h 364 V 607 H 501.86133 l 34.75976,60.19922 h 271.95899 l 33.48828,-57.99805 -0.8125,-3.50195 h -5.85547 c -82.59934,0 -149.60117,-67.00027 -149.70117,-149.59961 v -221.5 c 0,-41.82149 17.24052,-79.53944 44.90039,-106.68359 L 718.90039,77.400391 c 0,-28.299944 -22.89967,-51.201172 -51.09961,-51.201172 z"
     style=""
     id="path87" /><path
     d="m 2613.5996,26 c -43.9832,0 -84.8249,13.62521 -118.582,36.839844 1.4015,4.672977 2.3828,9.527489 2.3828,14.660156 v 65.02344 c 27.4612,-34.12539 69.0802,-56.381317 116.2988,-56.324221 l 424,0.201172 V 215.09961 h -364 c -31.9998,0 -58,26.00022 -58,58 v 144.70117 c 0,31.99978 26.0002,58 58,58 h 364 V 588.09961 H 3070 v 0.0996 l 27.9004,0.0254 v -37.69922 c -20.7141,-25.46088 -33.2012,-57.78772 -33.2012,-93.22461 v -221.5 c 0,-35.31138 12.7433,-67.3281 33.2012,-92.91406 V 77.400391 c 0,-28.299944 -22.8997,-51.201172 -51.0996,-51.201172 z m -152.4004,249.40039 v 140.29883 h 2.7012 V 275.40039 Z m 36.2012,275.14453 v 81.54688 c 9.3957,6.26088 19.3394,11.75253 29.7207,16.45507 l 150.0781,0.15235 c 25.9751,0 50.2816,6.77196 71.4883,18.5 h 54.5117 V 607 h -189.5996 c -47.1804,0 -88.7585,-22.29632 -116.1992,-56.45508 z"
     style=""
     id="path86" /><path
     d="M 1342.8008,26.599609 V 141.95508 c 20.5147,25.60289 33.2988,57.66682 33.2988,93.04492 v 221.09961 c 0,26.9032 -7.6759,51.79389 -20.1152,73.61133 5.7421,15.40032 13.2317,29.94612 22.2441,43.38867 h 31.8711 v 37.25195 c 17.7068,16.39706 38.2238,29.80228 60.7852,39.34766 h 422.916 v 16.5 H 1897 v -34.96094 c -23.878,-15.98006 -44.7152,-36.13361 -60.3008,-60.30469 V 606 H 1552.5996 C 1469.9001,606 1403,538.9999 1403,456.40039 V 86.800781 h 151.6992 V 416.80078 c 0,31.99981 26.0002,58 58,58 h 191.375 c -0.4717,-5.74357 -0.7734,-11.5348 -0.7734,-17.40039 V 414.59961 H 1614.9004 V 77.800781 c 0,-28.299943 -22.9012,-51.201172 -51.2012,-51.201172 z"
     style=""
     id="path85" /><path
     d="M 1803.3008,25.900391 V 457.40039 c 0,5.8656 0.3017,11.65682 0.7734,17.40039 h 32.625 v 96.13281 c 25.817,40.03843 64.866,70.70094 111,85.82032 v -7.1543 h 151.6016 v 17.70117 h 115.0312 c 21.4013,-11.75993 45.6193,-19.03162 71.7676,-19 l 211.3008,0.21484 v -97.9707 c -20.6003,-25.64357 -33.4571,-57.78213 -33.5,-93.24414 v -41.60156 h -2.7012 V 275.40039 h 2.7012 v -39.59961 c 0,-35.48091 12.8651,-67.63489 33.5,-93.27734 V 77.5 c 0,-28.299943 -22.8997,-51.199219 -51.0996,-51.199219 z M 1863.5,86 2437.1992,86.400391 V 215.09961 H 2055 c -21.9999,0 -39.9004,17.9005 -39.9004,39.90039 0,21.99989 17.9005,39.90039 39.9004,39.90039 h 346 v 103.29883 h -347.0996 c -21.3999,0 -38.8008,17.40089 -38.8008,38.80078 0,21.39989 17.4009,38.80078 38.8008,38.80078 h 383.2988 V 607 H 2013.0996 C 1930.4,607 1863.5,540.00037 1863.5,457.30078 Z"
     style=""
     id="path84" /><path
     d="M 3037.6992,588.09961 V 607 h -234.5 v 111.57422 c 14.6265,23.12382 23.4004,50.33884 23.4004,79.72656 v 221.09962 c 0,29.3623 -8.7765,56.5531 -23.4004,79.6641 v 77.5351 c 0,28.3 22.9012,51.2012 51.2012,51.2012 h 220.9004 V 837.30078 H 3342 v 337.50002 c 0,28.0999 22.5001,50.8988 50.5,51.2988 l 221.5,2.5 V 798.30078 c 0,-85.32613 -51.0082,-158.61865 -124.1387,-191.40039 h -275.5605 c -25.7957,0 -49.6992,-7.13135 -70.8867,-18.63477 L 3070,588.19922 v -0.0996 z M 2863.5,648.30078 h 146.4004 V 648.5 c 1.1,-0.1 2.3004,-0.19922 3.4004,-0.19922 l 391.0996,0.39844 c 82.4997,0 149.3988,67.00189 149.2988,149.60156 V 1167.6992 L 3402.0996,1166 V 835.19922 c 0,-31.99987 -26.0001,-58 -58,-58 h -271 c -31.9999,0 -58,26.00013 -58,58 V 1167.6992 H 2863.5 Z"
     style=""
     id="path83" /><path
     d="M 181.97461,596.97656 546.19922,1227.8008 H 799 l 301.1992,-521.66603 v -56.53516 h 32.6426 l 25.3477,-43.90039 H 844.08984 l -171.49023,297 L 501.86133,607 H 234.59961 c -18.59171,0 -36.20006,-3.81978 -52.625,-10.02344 z m 99.82617,52.62305 H 456.90039 L 672.59961,1023.0996 888.19922,649.59961 H 1063.3008 L 764.19922,1167.5996 H 580.90039 Z"
     style=""
     id="path82" /><path
     d="M 1364.1992,573.09961 V 619 h 45.9004 v -45.90039 z"
     style=""
     id="path81" /><path
     d="M 835.5,85 C 752.80008,84.9 685.69922,151.89969 685.69922,234.59961 v 221.5 c 0.1,82.59992 67.10125,149.59961 149.70117,149.59961 H 1226.5 c 82.5999,0 149.5996,-66.99969 149.5996,-149.59961 V 235 c 0,-82.59992 -66.9005,-149.499609 -149.4004,-149.599609 z m 1028,1 V 457.30078 C 1863.5,540.0007 1930.3997,607 2013.0996,607 h 424.0996 V 475.80078 h -383.2988 c -21.4,0 -38.8008,-17.4008 -38.8008,-38.80078 0,-21.39998 17.4008,-38.80078 38.8008,-38.80078 H 2401 V 294.90039 h -346 c -22,0 -39.9004,-17.90041 -39.9004,-39.90039 0,-21.99998 17.9004,-39.90039 39.9004,-39.90039 h 382.1992 V 86.400391 Z M 234.69922,86.199219 C 152.0993,86.199219 85,153.20086 85,235.80078 v 221.5 C 85,540.0007 151.99969,607 234.59961,607 H 658.69922 V 475.80078 h -364 c -31.99997,0 -58,-26.00003 -58,-58 V 273.09961 c 0,-31.99997 26.00003,-58 58,-58 h 364 V 86.400391 Z m 2378.99998,0 c -82.6999,-0.1 -149.7988,66.901641 -149.7988,149.601561 v 221.5 C 2464.0004,540.0007 2530.9997,607 2613.5996,607 h 424.0996 V 475.80078 h -364 c -31.9999,0 -58,-26.00003 -58,-58 V 273.09961 c 0,-31.99997 26.0001,-58 58,-58 h 364 V 86.400391 Z m 600.8008,0 c -82.6999,-0.1 -149.8008,66.901641 -149.8008,149.601561 v 221.5 c 0,82.59992 67.0017,149.59961 149.6016,149.59961 h 391.0996 C 3688.0003,606.90039 3755,539.9007 3755,457.30078 V 236.19922 C 3755,153.6993 3688.0995,86.699609 3605.5996,86.599609 Z M 1403,86.800781 V 456.40039 C 1403,539.00031 1469.8997,606 1552.5996,606 h 284.0996 V 474.80078 h -224 c -31.9999,0 -58,-26.00003 -58,-58 V 86.800781 Z M 895.40039,213.90039 h 271.00001 c 32,0 58,26.00003 58,58 V 416.5 c 0,31.99997 -26,58 -58,58 H 895.40039 c -31.99997,0 -58,-26.00003 -58,-58 V 271.90039 c 0,-31.99997 26.00003,-58 58,-58 z m 2379.00001,1.19922 h 271 c 32,0 58,26.00003 58,58 v 144.70117 c 0,31.99997 -26,58 -58,58 h -271 c -32,0 -58,-26.00003 -58,-58 V 273.09961 c 0,-31.99997 26,-58 58,-58 z m -988.3008,433.20117 c -82.6999,-0.1 -149.7988,66.89969 -149.7988,149.59961 v 221.50001 c 0,82.5999 66.9997,149.5996 149.5996,149.5996 H 2677 c 82.5999,0 149.5996,-66.9997 149.5996,-149.5996 V 798.30078 c 0,-82.59992 -66.9005,-149.60156 -149.4004,-149.60156 z m 577.4004,0 v 519.39842 h 151.5996 V 835.19922 c 0,-31.99997 26,-58 58,-58 h 271 c 32,0 58,26.00003 58,58 V 1166 l 151.5996,1.6992 V 798.30078 c 0.1,-82.59992 -66.7989,-149.60156 -149.2988,-149.60156 l -391.0996,-0.39844 c -1.1,0 -2.3004,0.0992 -3.4004,0.19922 v -0.19922 z M 281.80078,649.59961 580.90039,1167.5996 H 764.19922 L 1063.3008,649.59961 H 888.19922 L 672.59961,1023.0996 456.90039,649.59961 Z m 818.39842,0 v 517.99999 h 152.4004 V 649.59961 Z m 847.5,0 v 517.99999 h 151.6016 V 649.59961 Z m -506.5,0.0996 c -83.6999,0 -151.5996,67.90164 -151.5996,151.60156 V 821.5 c 0,83.69992 67.8997,151.59961 151.5996,151.59961 h 285 c 18.1,0 32.7012,14.70119 32.7012,32.70119 0,18 -14.7012,32.6992 -32.7012,32.6992 h -436.5996 v 129 h 469.3008 c 83.6999,0 151.5996,-67.8997 151.5996,-151.5996 v -20.20118 c 0,-83.69992 -67.8997,-151.59961 -151.5996,-151.59961 h -285 c -18.1,0 -32.7012,-14.69924 -32.7012,-32.69922 0,-18.09998 14.7012,-32.70117 32.7012,-32.70117 h 419.9004 v -129 z m 904.8008,127.5 h 271 c 32,0 58,26.00003 58,58 v 144.60156 c 0,31.99992 -26,58.00002 -58,58.00002 h -271 c -32,0 -58,-26.0001 -58,-58.00002 V 835.19922 c 0,-31.99997 26,-58 58,-58 z"
     style="fill:url(#SVGID_1_)"
     id="path80" /></g>
</svg>
