<?xml version="1.0" encoding="UTF-8" standalone="no"?>
<!-- Generator: Adobe Illustrator 26.0.1, SVG Export Plug-In . SVG Version: 6.00 Build 0)  -->

<svg
   version="1.1"
   id="Layer_1"
   x="0px"
   y="0px"
   viewBox="0 0 3839 659.2"
   style="enable-background:new 0 0 3839 659.2;"
   xml:space="preserve"
   sodipodi:docname="Sega Dreamcast.-16.svg"
   inkscape:version="1.3.2 (091e20e, 2023-11-25)"
   xmlns:inkscape="http://www.inkscape.org/namespaces/inkscape"
   xmlns:sodipodi="http://sodipodi.sourceforge.net/DTD/sodipodi-0.dtd"
   xmlns="http://www.w3.org/2000/svg"
   xmlns:svg="http://www.w3.org/2000/svg"><defs
   id="defs9">
	
	

		
		
		
		
		
		
		
		
	</defs><sodipodi:namedview
   id="namedview9"
   pagecolor="#ffffff"
   bordercolor="#000000"
   borderopacity="0.25"
   inkscape:showpageshadow="2"
   inkscape:pageopacity="0.0"
   inkscape:pagecheckerboard="0"
   inkscape:deskcolor="#d1d1d1"
   inkscape:zoom="0.18780933"
   inkscape:cx="1919.5"
   inkscape:cy="330.12205"
   inkscape:window-width="1800"
   inkscape:window-height="1037"
   inkscape:window-x="0"
   inkscape:window-y="44"
   inkscape:window-maximized="0"
   inkscape:current-layer="Layer_1" />
<style
   type="text/css"
   id="style1">
	.st0{fill:#F05100;}
	.st1{fill:#39689C;}
	.st2{fill:#CF3312;}
	.st3{fill:#FFFFFF;}
</style>
<g
   id="g18"><path
     d="m 843.5,87 c 7.39998,9.099973 10.59961,30.80005 10.59961,47.5 v 395.90039 c 0,17.99994 -5.40042,40.80005 -14.40039,57.5 44.29986,0 169.20048,0.40039 201.90038,0.40039 149.1996,0 259.2012,-106.80121 259.2012,-250.30078 0,-193.29942 -155.9015,-250.699219 -259.2012,-250.699219 C 996.69975,87.300781 891.89985,87 843.5,87 Z m 174.6055,43.47266 c 9.9764,0.0781 19.9937,0.42734 30.0937,1.02734 77.4998,4.49999 178.2004,41.7997 178.9004,204.69922 0.8,171.89948 -128.6993,199.8008 -167.1992,205.30078 -39.7999,5.69998 -83.80015,3.79959 -131.50001,-2.40039 V 137.69922 c 30.22491,-5.24999 59.77545,-7.46094 89.70511,-7.22656 z"
     style="fill:#ffffff"
     id="path18" /><path
     d="m 1417.5996,229.19922 -74.1992,11.60156 c 11.6,9.19997 15.4,37.8985 15.5,56.39844 v 254.60156 c 0,8.39997 -3.6004,26.69925 -11.4004,36.19922 h 77.0996 c -5.1,-10.79997 -6.9004,-27.79925 -6.9004,-36.19922 v -176.5 c 0,-85.59974 65.6014,-117.60145 142.7012,-81.10156 L 1580.0996,242.5 c -84.1997,-32.7999 -143.4,5.09975 -162.5,52.09961 z"
     style="fill:#ffffff"
     id="path17" /><path
     d="m 3747.3008,135.19922 -68.4004,18.90039 c 9.4,8.79997 12.5,34.59966 12.5,51.59961 0,0 -0.1,31.50079 -0.1,35.30078 -3.1,0 -37.8,0.19922 -43.5,0.19922 V 276 c 5.9,0.2 42.1992,0.19922 42.1992,0.19922 v 225.5 c 0,70.79979 48.8001,89.70117 85,89.70117 15.3,0.7 37,-2.90118 52,-6.20117 L 3836.3008,541.5 c -17.7,6.79998 -38.1004,8.30078 -50.4004,8.30078 -22.7,0 -39.0996,-15.10163 -39.0996,-38.60156 0,-21.09994 -0.5,-228.09924 0,-234.69922 3.3174,-0.001 49.8177,-0.19925 54.5996,0 15.4,0.5 27.3,1.40001 37.5,5.5 l 0.1,-41.19922 c 0,0 -90.1996,-0.10156 -92.0996,-0.10156 z"
     style="fill:#ffffff"
     id="path16" /><path
     d="m 3522.3008,228 c -57.9999,0 -118.9004,25.59942 -118.9004,93.69922 0,100.6997 181,87.60063 181,166.90039 0,42.99987 -33.6998,65.80078 -80.5996,65.80078 -33.9,0 -80.0005,-18.59967 -109.4004,-39.59961 l 13.7988,61.59961 c 29.3,8.39997 64.6005,14.40039 98.4004,14.40039 69.4998,0 132.5,-33.90139 132.5,-106.70117 0,-112.59967 -180.7988,-109.39938 -180.7988,-164.19922 0,-37.39988 28.7993,-56.5 67.1992,-56.5 24.1,0 60.9004,5.09967 84.9004,25.59961 l 0.1992,-46.5 C 3583.4997,232.00003 3541.0007,228 3522.3008,228 Z"
     style="fill:#ffffff"
     id="path15" /><path
     d="m 2395.4004,230.30078 c -49.5999,0 -78.8996,28.99967 -93.0996,46.59961 0,-4.09999 0.1,-41.00119 0.1,-45.70117 l -75.0996,11.60156 c 9,9.39997 16,39.09889 16,60.29883 v 246.20117 c 0,8.39997 -3.6004,28.79847 -11.4004,38.39844 h 81.9004 c -7.8,-9.49997 -11.4004,-29.99847 -11.4004,-38.39844 V 364.09961 c 0,-67.6998 41.9994,-91.59961 83.6992,-91.59961 37.7999,0 72,16.29983 72,91.59961 v 185.30078 c 0,8.39997 -3.6004,28.80042 -11.4004,38.40039 h 79.4004 c -7.8,-9.49997 -11.4004,-30.00042 -11.4004,-38.40039 V 364.09961 c 0,-75.09978 46.4009,-91.59961 84.3008,-91.59961 37.7999,0 77.3008,23.69982 77.3008,91.59961 v 185.30078 c 0,8.39997 -3.6004,28.80042 -11.4004,38.40039 H 2741.5 c -7.8,-9.49997 -11.4004,-30.00042 -11.4004,-38.40039 v -220.5 c 0,-37.59988 -38.4007,-97.80078 -127.9004,-97.80078 -52.0998,0 -82.2,23.19967 -105,43.09961 -19.3999,-22.69994 -50.999,-43.89844 -101.7988,-43.89844 z"
     style="fill:#ffffff"
     id="path14" /><path
     d="m 2046.3008,229.30078 c -31.1,0 -80.7005,5.70004 -111.4004,18 h 0.1992 v 51.5 C 1964.5996,281.10084 1999.9001,268 2043,268 c 58.6998,0 87.3996,30.2009 79.0996,70.30078 -5.1,24.29993 -38.3989,31.59884 -64.2988,35.29883 -46.7999,6.59998 -154.7012,8.00112 -154.7012,121.30078 0,31.69991 21.1011,97.79883 117.8008,97.79883 48.8998,0 77.9,-13.99931 102,-45.19922 l 2.2988,40.19922 H 2189 c -10.1,-18.79994 -10.5,-45.59853 -10.5,-73.89844 V 361.09961 c 0,-92.19973 -52.7995,-131.79883 -132.1992,-131.79883 z m 1181.5996,0 c -30.9999,0 -80.7005,5.70004 -111.4004,18 l 0.1,51.5 C 3146.1996,281.10084 3181.4001,268 3224.5,268 c 58.6998,0 87.3996,30.2009 79.0996,70.30078 -5,24.29993 -38.2989,31.59884 -64.2988,35.29883 -46.7999,6.59998 -154.7012,8.00112 -154.7012,121.30078 0,31.69991 21.1011,97.79883 117.8008,97.79883 48.9998,0 77.8,-13.99931 102,-45.19922 l 2.4004,40.19922 H 3370.5 C 3353.8,568.29928 3360,542.10069 3360,513.80078 V 361.09961 c 0,-92.19973 -52.7999,-131.79883 -132.0996,-131.79883 z M 2125.0996,392.5 v 57.40039 c 0,45.79986 -20.7991,103.90039 -101.2988,103.90039 -30.4,0 -68.8008,-27.70049 -68.8008,-62.90039 0,-59.29982 52.7994,-69.40042 113.6992,-77.40039 23.2,-2.99999 45.7004,-10.90003 56.4004,-21 z m 1181.5,0 0.1,57.40039 c 0,45.79986 -20.7991,103.90039 -101.2988,103.90039 -30.3999,0 -68.8008,-27.70049 -68.8008,-62.90039 0,-59.29982 52.6998,-69.40042 113.5996,-77.40039 23.2,-2.99999 45.7004,-10.90003 56.4004,-21 z"
     style="fill:#ffffff"
     id="path13" /><path
     d="m 2953,230.90039 c -108.1997,0 -188.1992,72.89953 -188.1992,176.69922 0,93.89972 59.5992,184.09961 186.7988,184.09961 37.0999,0 65.1998,-4.69925 98.5996,-14.69922 L 3063.5,517.30078 c -32.6999,20.09994 -75.0001,34.09961 -106,34.09961 -90.4997,0 -132,-62.20063 -132,-143.40039 0,-81.99976 42.4003,-138.90039 135,-138.90039 26.3999,0 64.1997,11.00004 88.0996,25 L 3048.8008,246.5 c -14,-3.99999 -48.5009,-15.59961 -95.8008,-15.59961 z"
     style="fill:#ffffff"
     id="path12" /><path
     d="m 1730.4004,230.59961 c -104.0997,0 -165.8008,81.40149 -165.8008,185.20117 0,93.79972 68.8003,177.69922 186.5,177.69922 37.2999,0 68.4001,-9.10042 102,-20.90039 l 11.8008,-60 c -28.7,23.69993 -75.1998,37.70117 -117.0996,37.70117 -75.3998,-0.3 -123.5016,-54.80025 -123.1016,-138 0.1,-8.59997 1.2012,-16.70159 2.2012,-24.60156 H 1873 c 0,-84.59975 -42.2999,-157.09961 -142.5996,-157.09961 z M 1726.3008,267 c 69.6997,0 89.7988,54.3997 89.7988,83.09961 -0.1,0 -181.5,0.1 -181.5,0 8,-41.19988 46.1013,-83.09961 91.7012,-83.09961 z"
     style="fill:#ffffff"
     id="path11" /><path
     d="M 347.90039,-0.09960937 C 331.70043,-1.0996074 316.20076,3.900783 300.80078,4.8007812 292.8008,7.9007751 270.29996,11.099229 254,16.699219 226.20006,28.299195 215.99994,33.000028 188,47 174.00002,57.39998 161.29957,61.600413 146.59961,72.900391 137.69963,76.200383 129.20039,85.899221 127.90039,86.699219 115.20041,98.099195 108.4992,99.799632 97.199219,111.09961 92.499227,116.49959 78.39999,132.40002 73.5,139 56.200034,160.19996 44.899589,184.70082 34.099609,205.80078 26.599625,219.40076 25.100379,229.39963 19.400391,241.59961 17.400395,248.99959 10.299998,265.69922 9.5,271.19922 8.6000018,284.1992 5.000776,290.10041 2.3007813,304.40039 -0.7992125,321.30035 1.5007778,336.00004 -0.19921875,351.5 c 1.29999745,6.79998 2.59882755,19.5008 2.29882815,24.80078 2.5999948,22.59996 9.3011796,37.19848 13.2011716,59.89844 3.699994,9.59998 10.099237,32.3016 19.199219,51.10156 3.499994,11.09998 19.299227,36.49846 23.699219,44.89844 20.09996,27.29994 51.201191,56.60119 65.201171,65.20117 3.4,3.4 23.69883,17.19883 29.79883,20.29883 9.29998,5.19998 31.50002,14.40117 43,18.70117 20.79996,6.29998 55.90006,16.20041 91,20.40039 35.09992,4.2 67.20006,1.49961 98.5,-1.40039 16.09996,-3.3 31.10002,-8.29961 43,-12.09961 29.29994,-11.49998 45.10043,-19.4008 65.90039,-31.80078 15.29996,-9.19998 23.8008,-14.1008 33.80078,-22.30078 12.99998,-10.49998 24.19885,-20.29885 34.79883,-32.79883 24.79994,-28.29994 37.40158,-57.70082 44.60156,-81.80078 3.2,-12.79998 8.69883,-54.90004 5.29883,-75.5 -1.9,-23.99996 -6.60039,-49.59885 -9.40039,-63.29883 C 600.59922,322.6008 599.3,312.19998 596.5,300.5 c -2.2,-7.39998 -5.49961,-20.00041 -6.59961,-24.40039 -2.4,-8.69998 -17.10039,-40.3 -19.40039,-43.5 -12.39998,-19.29996 -22.29965,-35.00043 -42.59961,-49.90039 -7.89998,-7.39998 -19.90119,-16.40002 -30.20117,-23 -12.39998,-7.49998 -21.09885,-14.30002 -36.29883,-18.5 -14.19998,-4 -26.19965,-8.99883 -47.09961,-11.79883 -11.29998,-2.1 -34.20002,-7.10117 -50,-7.20117 -34.99992,-0.6 -46.00164,-3.69959 -83.10156,11.40039 C 251.29928,147.79959 229.39994,159.00004 203,180.5 c -10.19998,7.39998 -17.89963,18.0008 -28.59961,30.80078 -6.99998,8.29998 -11.0008,15.70002 -19.30078,27.5 -4.6,6.1 -8.60041,17.49885 -15.40039,30.29883 -11.99998,32.09994 -13.49922,82.3008 -11.19922,94.30078 2,10.69998 3.40039,26.29885 6.40039,33.29883 2.2,5.09998 4.89885,29.40045 18.29883,55.40039 2.6,3.6 11.9008,21.50041 21.30078,31.40039 16.89996,17.99996 39.19965,32.79963 59.09961,41.09961 29.19994,12.89998 78.00043,16.09959 95.90039,11.59961 17.99996,-2.6 29.09963,-2.89963 43.59961,-8.59961 13.29998,-3.7 23.6008,-8.4 32.30078,-12.5 9.99998,-5.1 16.50002,-8.20041 26,-13.90039 6.69998,-3.5 14.99922,-9.59844 20.19922,-14.39844 12.99998,-9.49998 21.80119,-22.3008 26.70117,-32.80078 5.3,-11.49998 8.09961,-19.80041 8.59961,-28.40039 6.99998,-51.0999 -2.60121,-88.79889 -19.20117,-122.79883 C 459.89924,289.6008 445.89998,273.7992 432,265.19922 c -16.49996,-10.39998 -22.30082,-11.80002 -42.30078,-19 -11.69998,-3.9 -29.39846,-5.79922 -44.39844,-7.19922 -18.49996,-1.1 -38.80002,1.1008 -50.5,7.30078 -13.19998,6 -26.70041,18.89924 -37.40039,29.69922 -8.19998,11.09998 -13.20078,20.79963 -17.30078,33.59961 -2,11.29998 -4.09883,14.6008 -4.79883,22.30078 -1,11.39998 1.69844,22.79883 2.89844,28.79883 1.1,5.09998 3.20039,10.80002 7.40039,18.5 3.4,6.29998 8.30119,15 12.70117,19 6,5.39998 14.79844,13.50039 20.39844,16.90039 8.39998,6.29998 46.9016,13.80117 62.10156,11.20117 16.89996,-1.2 32.79883,-3.30082 35.29883,-19.80078 3.4,-8.59998 -0.19963,-21.00002 -10.09961,-26.5 -6.59998,-2.9 -26.49926,2.19961 -43.69922,-1.40039 -24.99994,1.3 -31.5008,-16.49926 -36.80078,-33.19922 -5.99998,-18.39996 8.90041,-36.30041 16.40039,-44.90039 8.69998,-8.89998 23.00004,-16.69961 40,-14.59961 8.89998,1 30.19963,5.10002 39.09961,9.5 15.99996,7.89998 29.90002,17.70041 36.5,27.90039 6.49998,9.99998 12.40039,26.19885 15.90039,40.29883 3.6,13.99998 1,23.70121 1.5,40.70117 1,12.49998 -4.69961,32.59883 -8.09961,36.79883 -6.29998,8.09998 -20.30078,19 -20.30078,19 -10.19998,7.49998 -20.09924,9.90119 -34.69922,16.70117 -16.29996,7.09998 -19.20002,7.20002 -35,11 -7.79998,1.9 -22.6,2.69961 -28.5,3.09961 -11.79998,0 -33.30002,-1.20119 -46,-8.20117 -14.19996,-4 -33.00041,-14.49924 -42.90039,-25.19922 -13.19998,-12.89998 -21.10119,-25.49924 -25.20117,-34.19922 -1,-2.1 -8.3,-17.00078 -9,-19.80078 -0.6,-2.7 -3.69844,-16.8008 -4.89844,-21.30078 -1.2,-4.5 -4.30078,-25.09846 -4.30078,-36.39844 -1.1,-14.79996 1.10041,-37.90121 7.90039,-54.20117 6.19998,-16.39996 15.60002,-31.69963 24,-43.09961 6.19998,-6.99998 11.49963,-18.90041 19.09961,-25.90039 9.49998,-8.89998 16.6008,-13.10041 25.80078,-18.40039 19.89996,-12.19998 27.09965,-16.49846 46.59961,-23.39844 6.59998,-2.4 24.79963,-6.10039 32.59961,-7.40039 22.69996,-1.7 26.60082,-3.30078 50.30078,-0.80078 11.09998,1.9 28.49924,5.99961 39.19922,9.59961 37.99992,14.89996 65.29963,38.80002 74.09961,49 14.09998,16.29996 33.09963,39.20082 39.59961,63.80078 6.79998,21.99996 11.40119,39.00043 16.70117,61.90039 4,16.99996 2.9,32.29926 6,49.69922 1,3.3 2.29961,22.10119 1.09961,27.70117 -1.4,19.29996 -0.20002,18.29965 -7,36.59961 -5.69998,12.29998 -8.99922,22.29924 -14.69922,31.69922 -5.29998,6.79998 -10.80078,14.5 -14.30078,19.5 -6.19998,8.89998 -11.20041,13.00119 -19.40039,20.20117 -5.6,6 -11.40002,8.30002 -21,14.5 -4.9,4.1 -20.90041,13.59885 -31.40039,19.29883 0.4,-0.4 -25.69887,11.40119 -48.29883,19.70117 -20.89996,7.69998 -55.19965,11.09961 -80.09961,10.59961 -23.59996,-0.5 -48.20043,-2.69961 -66.90039,-6.09961 -10.99998,-2.9 -48.90002,-13.00119 -61,-19.20117 -42.99992,-19.29996 -81.50123,-46.10012 -110.201171,-108 C 78.399231,464.49963 68.199996,427.79959 66,417.09961 63.500004,401.69963 57.299219,388.70074 57.199219,369.80078 55.299223,348.90082 57.5,343.59994 57,318 55.800002,303.70002 62.400397,274.29996 65.900391,258.5 70.900381,242.90004 83.400014,221.00037 90,206.90039 c 14.69998,-28.69994 25.30004,-40.89965 46.5,-63.59961 21.09996,-20.09996 52.90082,-43.500021 73.80078,-54.999999 19.49996,-11.499976 39.29963,-20.801184 53.59961,-26.701172 17.69996,-6.799986 37.29924,-8.100006 49.69922,-11.5 32.59994,-3.799992 44.80004,-1.498824 70,0.201172 20.39996,1.399998 34.40004,4.898834 56,7.298828 15.89996,2.099996 41.3008,9.500004 47.30078,11.5 18.69996,5.69999 44.69926,16.70002 60.69922,26.5 C 564.89957,107.19959 583.10002,123.40041 593,135.40039 604.09998,149.60037 622.69965,171.50006 640.59961,199 l 10.09961,17 c 12.79998,19.49996 16.30041,46.49965 24.40039,65.09961 10.39998,22.99996 9.2008,43.1008 18.30078,57.30078 6.59998,10.09998 20.59885,17.1 35.79883,13.5 15.19996,-3.7 14.50117,-29.40002 13.70117,-36.5 l -9.09961,-40.70117 c -4.09998,-23.09996 -5.10041,-31.19889 -18.90039,-58.79883 -12.39998,-24.69994 -26.9008,-51.60121 -39.30078,-69.70117 -7.69998,-10.79998 -19.89885,-28.59885 -26.29883,-36.79883 -6.59998,-8.39998 -23.50002,-25.100013 -31.5,-31.499999 C 600.80082,64.400417 552.79955,36.199201 523.09961,27.199219 508.39963,22.699227 480.19955,13.000383 452.59961,8.9003906 430.89965,4.2004 414.89998,3.599217 402.5,2.6992188 384.30004,0.9992221 366.10035,-0.29960898 347.90039,-0.09960937 Z"
     style="fill:#f05100"
     id="path10" /></g>
</svg>
