<?xml version="1.0" encoding="UTF-8" standalone="no"?>
<!-- Generator: Adobe Illustrator 25.1.0, SVG Export Plug-In . SVG Version: 6.00 Build 0)  -->

<svg
   version="1.1"
   id="Layer_1"
   x="0px"
   y="0px"
   viewBox="0 0 3840 679.2"
   style="enable-background:new 0 0 3840 679.2;"
   xml:space="preserve"
   sodipodi:docname="Nintendo Famicom Disk System-05.svg"
   inkscape:version="1.3.2 (091e20e, 2023-11-25)"
   xmlns:inkscape="http://www.inkscape.org/namespaces/inkscape"
   xmlns:sodipodi="http://sodipodi.sourceforge.net/DTD/sodipodi-0.dtd"
   xmlns="http://www.w3.org/2000/svg"
   xmlns:svg="http://www.w3.org/2000/svg"><defs
   id="defs27">
	
	
	
	

		
		
		
		
	
		
		
		
		
		
		
		
		
		
		
		
	
		
		
		
		
		
		
		
		
		
		
	
		
	
			
			
		
			
		
			
			
		
				
			
				
			
					
				
					
				</defs><sodipodi:namedview
   id="namedview27"
   pagecolor="#ffffff"
   bordercolor="#000000"
   borderopacity="0.25"
   inkscape:showpageshadow="2"
   inkscape:pageopacity="0.0"
   inkscape:pagecheckerboard="0"
   inkscape:deskcolor="#d1d1d1"
   inkscape:zoom="0.18776042"
   inkscape:cx="1917.337"
   inkscape:cy="340.85992"
   inkscape:window-width="1800"
   inkscape:window-height="1037"
   inkscape:window-x="0"
   inkscape:window-y="44"
   inkscape:window-maximized="0"
   inkscape:current-layer="Layer_1" />
<style
   type="text/css"
   id="style1">
	.st0{fill:#FDBC1A;}
	.st1{fill:none;}
	.st2{fill:#FFFFFF;}
	.st3{fill:#FFFFFF;stroke:#000000;stroke-width:9;stroke-miterlimit:10;}
</style>
<g
   id="g81"><path
     d="m 127.59961,24.800781 c -5.9417,0 -11.60149,1.215144 -16.75195,3.398438 -0.0286,0.01214 -0.0534,0.03077 -0.082,0.04297 -5.12466,2.185761 -9.74607,5.326831 -13.626958,9.210938 -0.01604,0.01604 -0.02696,0.03667 -0.04297,0.05273 -3.881359,3.896895 -7.030819,8.52357 -9.205078,13.65625 -0.0034,0.0081 -0.0044,0.0173 -0.0078,0.02539 C 85.706406,56.334179 84.5,61.982351 84.5,67.900391 v 213.699219 0.20117 12.79883 0.20117 l -10.900391,7 c -0.68392,0.43701 -1.27358,0.97171 -1.945312,1.42188 -6.547531,4.4333 -12.599285,9.39002 -17.929688,14.94921 -0.575233,0.59727 -1.164386,1.178 -1.724609,1.78711 -5.620095,6.13655 -10.501017,12.83969 -14.53125,20.01368 -0.237063,0.42144 -0.501143,0.82544 -0.732422,1.25 -4.046587,7.43856 -7.191722,15.34852 -9.378906,23.58398 -0.08388,0.31508 -0.206072,0.61562 -0.28711,0.93164 -2.174324,8.50288 -3.328866,17.34122 -3.345703,26.36524 -3.26e-4,0.0889 -0.01747,0.17476 -0.01758,0.26367 C 23.729962,429.14061 42.319168,463.0125 73.599609,483 L 84.5,490 v 0.19922 13 46.70117 V 572 l -22.199219,1.40039 c -21.599827,1.39999 -38.601562,19.30056 -38.601562,40.90039 0,5.65561 1.156247,11.03764 3.207031,15.94727 0.03229,0.077 0.06296,0.15366 0.0957,0.23047 2.040491,4.80133 4.983854,9.11373 8.583984,12.77734 0.124529,0.12664 0.241053,0.25778 0.367188,0.38281 3.638237,3.60703 7.938049,6.54149 12.712891,8.5957 0.102793,0.0444 0.19756,0.10098 0.300781,0.14454 4.901028,2.06025 10.277355,3.2207 15.933594,3.2207 H 284.5 c 10.49997,-39.79988 46.80091,-69.19922 89.80078,-69.19922 0.0224,0 0.0441,0.002 0.0664,0.002 0.0113,0 0.0219,-0.002 0.0332,-0.002 0.0339,0 0.0657,0.008 0.0996,0.008 5.24079,0.0112 10.3822,0.46043 15.39062,1.31055 0.2521,0.0426 0.49664,0.0999 0.74805,0.14453 4.76019,0.84857 9.39731,2.05529 13.88086,3.60156 0.43163,0.14856 0.8525,0.31012 1.28125,0.46485 4.28846,1.55035 8.43118,3.40336 12.40234,5.54101 0.51395,0.27644 1.01532,0.56187 1.52344,0.84766 3.84999,2.16664 7.53312,4.59352 11.01953,7.26758 0.49299,0.378 0.97383,0.76084 1.45899,1.14843 3.3992,2.71617 6.60272,5.66404 9.58789,8.82227 0.46093,0.4874 0.90894,0.97734 1.35937,1.47461 2.86673,3.16644 5.51406,6.52895 7.92578,10.06836 0.44173,0.64725 0.86731,1.29626 1.29297,1.95508 2.2284,3.4549 4.22503,7.06797 5.98438,10.8164 0.44641,0.94734 0.8643,1.89882 1.2793,2.86328 1.49603,3.49296 2.76933,7.09747 3.83007,10.79493 0.20524,0.70839 0.54569,1.35509 0.73438,2.07031 h 219.5 c 0.13723,0 0.26348,-0.0397 0.40039,-0.041 5.43677,-0.0276 10.60788,-1.15927 15.35937,-3.11328 0.38155,-0.15836 0.7318,-0.36379 1.10743,-0.5332 4.30558,-1.9271 8.18528,-4.60104 11.5625,-7.81445 0.56562,-0.5424 1.08508,-1.11578 1.61914,-1.68946 2.9296,-3.12657 5.31952,-6.72692 7.17187,-10.64843 0.4744,-1.01474 0.8888,-2.04579 1.28125,-3.10352 1.45508,-3.88821 2.28677,-8.05085 2.50195,-12.39258 0.0317,-0.66451 0.19727,-1.29053 0.19727,-1.96289 0,-0.69535 -0.16439,-1.3479 -0.19922,-2.03516 -0.20722,-3.96055 -0.95307,-7.76872 -2.22461,-11.36328 -0.42232,-1.19985 -0.88097,-2.36658 -1.41015,-3.51367 -1.63885,-3.52678 -3.72827,-6.7899 -6.26563,-9.69726 -0.672,-0.77419 -1.34239,-1.53319 -2.07031,-2.25586 -3.0004,-2.95668 -6.41558,-5.48771 -10.21875,-7.42969 -0.5389,-0.27778 -1.05092,-0.58707 -1.60352,-0.8418 -4.37344,-1.99247 -9.13001,-3.30961 -14.17773,-3.67773 -0.18192,-0.0141 -0.34866,-0.0742 -0.53125,-0.0859 L 664,572 v -22.30078 l 0.19922,-46.5 v -0.0996 -12.90039 -0.0996 l 10.90039,-7 c 0.34543,-0.22072 0.64007,-0.49466 0.98242,-0.71875 7.19816,-4.74057 13.76368,-10.15846 19.51953,-16.22852 0.28616,-0.3013 0.57698,-0.59611 0.85938,-0.90039 5.86372,-6.32785 10.91728,-13.28016 15.07031,-20.7207 0.15122,-0.27084 0.3121,-0.53453 0.46094,-0.80664 4.12985,-7.55363 7.33838,-15.59252 9.54297,-23.96875 0.0564,-0.21382 0.13046,-0.42052 0.18554,-0.63477 2.19364,-8.5522 3.35865,-17.44192 3.36719,-26.52148 8e-5,-0.0448 0.008,-0.0881 0.008,-0.13281 -0.0115,-36.78657 -18.70599,-70.67235 -49.99609,-90.66602 l -10.90039,-7 v -0.10156 -12.89844 -0.10156 -213.798829 c 0,-5.906273 -1.21183,-11.52654 -3.36133,-16.652344 -0.0435,-0.103257 -0.1003,-0.19793 -0.14453,-0.300781 -2.14363,-5.000017 -5.20651,-9.505351 -8.9707,-13.31836 -0.12451,-0.126144 -0.25483,-0.242574 -0.38086,-0.367187 -3.81545,-3.769973 -8.30856,-6.85238 -13.30469,-8.992188 -0.088,-0.03781 -0.17536,-0.07409 -0.26367,-0.111328 -5.10687,-2.146094 -10.69983,-3.357422 -16.57422,-3.357422 z M 229.40039,129.40039 c 72.59957,0 131.5,58.90043 131.5,131.5 0,72.59957 -58.90043,131.5 -131.5,131.5 -72.59957,0 -131.499999,-58.90043 -131.499999,-131.5 0,-72.59957 58.900429,-131.5 131.499999,-131.5 z m 290,0 c 72.69971,0 131.59961,58.90029 131.59961,131.5 0,72.59971 -58.9999,131.5 -131.59961,131.5 -72.59971,0 -131.5,-58.90029 -131.5,-131.5 0,-72.59971 58.90029,-131.5 131.5,-131.5 z m -290,23.69922 c -28.79983,0 -55.90129,11.19973 -76.20117,31.59961 -20.39988,20.39988 -31.59961,47.50095 -31.59961,76.30078 0,28.69983 11.19973,55.79934 31.59961,76.19922 20.29988,20.39988 47.50134,31.60156 76.20117,31.60156 28.69983,0 55.79934,-11.20168 76.19922,-31.60156 13.78809,-13.72051 23.35427,-30.55366 28.11914,-48.91211 -4.58382,2.56158 -9.59465,4.41225 -15.21875,4.41211 -17.56241,4.3e-4 -31.80013,-14.23641 -31.80078,-31.79883 -4.3e-4,-17.56318 14.2376,-31.80121 31.80078,-31.80078 5.60238,-1.4e-4 10.59649,1.83571 15.16797,4.37891 -4.78125,-18.29458 -14.32691,-35.03785 -28.06836,-48.7793 -20.29988,-20.39988 -47.39939,-31.59961 -76.19922,-31.59961 z m 290,0 c -28.79988,0 -55.90125,11.19969 -76.20117,31.59961 -13.72825,13.72824 -23.26688,30.49833 -28.05274,48.77148 4.56827,-2.53842 9.55756,-4.37123 15.1543,-4.37109 17.56245,6.5e-4 31.79926,14.23833 31.79883,31.80078 -6.5e-4,17.56169 -14.23714,31.79818 -31.79883,31.79883 -5.61592,1.4e-4 -10.62003,-1.84574 -15.19922,-4.40039 4.77175,18.30463 14.329,35.13173 28.09766,48.90039 20.29992,20.39992 47.50129,31.60156 76.20117,31.60156 28.69988,0 55.7993,-11.20164 76.19922,-31.60156 20.39992,-20.29992 31.59961,-47.39934 31.59961,-76.19922 0,-28.89988 -11.19969,-55.90086 -31.59961,-76.30078 -20.29992,-20.39992 -47.39934,-31.59961 -76.19922,-31.59961 z"
     style="fill:#fdbc1a"
     id="path81" /><path
     d="m 519.40039,129.40039 c -72.59978,0 -131.5,58.90022 -131.5,131.5 0,72.59979 58.90022,131.5 131.5,131.5 72.59979,0 131.59961,-58.90021 131.59961,-131.5 0,-72.59978 -58.89982,-131.5 -131.59961,-131.5 z m 0,23.69922 c 28.79991,0 55.89928,11.19967 76.19922,31.59961 20.39994,20.39994 31.59961,47.40087 31.59961,76.30078 0,28.79991 -11.19967,55.89928 -31.59961,76.19922 -20.39994,20.39994 -47.49931,31.60156 -76.19922,31.60156 -28.69991,0 -55.90123,-11.20162 -76.20117,-31.60156 -13.76867,-13.76867 -23.32591,-30.59574 -28.09766,-48.90039 -9.74113,-5.43441 -16.60112,-15.4519 -16.60156,-27.39844 -2.9e-4,-11.96648 6.87899,-22.00224 16.64648,-27.42969 4.78587,-18.27316 14.32448,-35.04322 28.05274,-48.77148 20.29994,-20.39994 47.40126,-31.59961 76.20117,-31.59961 z"
     style=""
     id="path80" /><path
     d="m 430.30078,229.09961 c -17.56325,-4.3e-4 -31.80121,14.23753 -31.80078,31.80078 6.5e-4,17.56249 14.2383,31.79926 31.80078,31.79883 17.56172,-6.5e-4 31.79818,-14.23711 31.79883,-31.79883 4.3e-4,-17.56248 -14.23634,-31.80013 -31.79883,-31.80078 z"
     style=""
     id="path79" /><path
     d="m 229.40039,129.40039 c -72.59978,0 -131.499999,58.90022 -131.499999,131.5 0,72.59979 58.900219,131.5 131.499999,131.5 72.59979,0 131.5,-58.90021 131.5,-131.5 0,-72.59978 -58.90021,-131.5 -131.5,-131.5 z m 0,23.69922 c 28.79991,0 55.89928,11.19967 76.19922,31.59961 13.74149,13.74149 23.2871,30.48466 28.06836,48.7793 9.75989,5.42959 16.63311,15.46104 16.63281,27.42187 -4.4e-4,11.93835 -6.8519,21.94922 -16.58203,27.38672 -4.76488,18.35851 -14.331,35.19156 -28.11914,48.91211 -20.39994,20.39994 -47.49931,31.60156 -76.19922,31.60156 -28.69991,0 -55.90123,-11.20162 -76.20117,-31.60156 C 132.79928,316.79928 121.59961,289.69991 121.59961,261 c 0,-28.79991 11.19967,-55.90084 31.59961,-76.30078 20.29994,-20.39994 47.40126,-31.59961 76.20117,-31.59961 z"
     style=""
     id="path78" /><path
     d="m 318.5,229.09961 c -17.56325,-4.3e-4 -31.80121,14.23753 -31.80078,31.80078 6.5e-4,17.56249 14.23829,31.79926 31.80078,31.79883 17.56249,4.3e-4 31.80013,-14.23634 31.80078,-31.79883 4.3e-4,-17.56325 -14.23753,-31.80121 -31.80078,-31.80078 z"
     style=""
     id="path77" /><path
     d="m 127.59961,1.0996094 c -36.899891,0 -66.798829,29.9008916 -66.798829,66.8007816 V 281.80078 C 24.400891,305.20071 0,345.90053 0,392.40039 0,439.00025 24.4005,479.70007 60.900391,503 v 46.69922 C 26.900493,551.89921 0,579.80089 0,614.30078 c 0,35.8999 29.100497,65 64.900391,65 H 305.09961 c 0,-38.19988 31.00129,-69.20117 69.20117,-69.20117 38.19988,0 69.19922,31.00129 69.19922,69.20117 h 240.19922 c 35.89989,0 64.90039,-29.1001 64.90039,-65 0,-34.49989 -26.9005,-62.4 -60.90039,-64.5 v -46.70117 c 36.49989,-23.39993 60.90039,-63.99975 60.90039,-110.59961 0,-46.59986 -24.3005,-87.29968 -60.90039,-110.59961 V 67.900391 c 0.2,-36.89989 -29.70011,-66.8007816 -66.5,-66.8007816 z m 0,23.7011716 h 493.59961 c 23.69993,0 43,19.29968 43,43.09961 v 213.900389 13 l 10.90039,7 c 31.29991,19.99994 50,53.89933 50,90.69922 0,36.79989 -18.70009,70.59928 -50,90.69922 l -10.90039,7 v 13 46.70117 V 572 l 22.20117,1.40039 c 21.69994,1.4 38.69922,19.30045 38.69922,40.90039 0,22.79994 -18.49928,41.29883 -41.19922,41.29883 H 464.19922 c -10.49997,-39.79988 -46.79896,-69.19922 -89.79883,-69.19922 -42.99987,0 -79.40081,29.39934 -89.80078,69.19922 H 64.900391 c -22.799933,0 -41.201172,-18.49889 -41.201172,-41.29883 0,-21.59994 17.001627,-39.50039 38.601562,-40.90039 L 84.5,572 V 549.69922 503 490 l -10.900391,-7 c -31.299905,-19.99994 -49.90039,-53.89933 -49.90039,-90.69922 0,-36.79989 18.700485,-70.60123 49.90039,-90.70117 l 10.900391,-7 v -13 -213.699219 c 0,-23.69993 19.29968,-43.09961 43.09961,-43.09961 z"
     style="fill:#ffffff"
     id="path76" /><path
     d="m 827.69922,222.09961 v 457.09961 h 200.60158 c 38.0998,0 69,-30.90012 69,-69 V 291.09961 c -0.1,-38.09988 -31.0017,-69 -69.1016,-69 z m 23.60156,23.59961 h 176.89842 c 12.5378,0 23.8897,5.10961 32.0957,13.35351 0.036,0.0356 0.066,0.0756 0.1016,0.11133 1.9116,1.93321 3.648,4.0371 5.1894,6.28711 0.2131,0.30895 0.4019,0.62893 0.6075,0.94336 1.2843,1.97776 2.4168,4.06031 3.3847,6.23438 0.2931,0.65285 0.5499,1.31365 0.8125,1.98242 0.7522,1.93197 1.3716,3.92493 1.8555,5.97461 0.2381,0.99523 0.4246,1.99618 0.5957,3.01562 0.3035,1.8397 0.494,3.71411 0.5684,5.6211 0.026,0.63629 0.1894,1.23418 0.1894,1.87695 v 319.09961 c 0,12.52031 -5.0932,23.8611 -13.3164,32.06445 -0.013,0.013 -0.028,0.0241 -0.041,0.0371 -1.9837,1.97412 -4.1511,3.76178 -6.4707,5.34375 -0.2091,0.14342 -0.4271,0.26821 -0.6387,0.4082 -2.0891,1.37426 -4.2972,2.57707 -6.6074,3.59571 -0.5441,0.24212 -1.0954,0.45276 -1.6504,0.67383 -2.015,0.79468 -4.0984,1.44346 -6.2422,1.94531 -0.9486,0.22565 -1.9028,0.3997 -2.873,0.56445 -1.8653,0.31034 -3.7666,0.50354 -5.7012,0.57813 -0.6303,0.0262 -1.2229,0.18945 -1.8594,0.18945 H 851.30078 V 655.5 245.80078 Z"
     style="fill:#ffffff"
     id="path75" /><path
     d="m 1345.3008,222 c -38.0999,0 -69,30.90012 -69,69 v 100.30078 c 0,22.99994 11.4996,44.49886 30.5996,57.29883 l 116,77.70117 V 557 c 0,7.19998 -6.4008,12.79961 -13.8008,11.59961 -5.8,-0.9 -9.7988,-6.39884 -9.7988,-12.29883 v -18 -7.10156 l -123,-82.59961 v 161.59961 c 0,38.09988 30.9001,69 69,69 h 131.5996 c 38.0999,0 69,-30.90012 69,-69 V 542.59961 520.5 510 c 0,-23.09993 -11.4997,-44.60043 -30.5996,-57.40039 l -116,-77.69922 v -30.70117 c 0,-7.19998 6.3988,-12.89961 13.7988,-11.59961 5.8,1 9.8008,6.4008 9.8008,12.30078 v 18 V 370 l 123,82.59961 V 291 c 0,-38.09988 -30.9001,-69 -69,-69 z m 0.1,23.80078 H 1477 c 25,0 45.3008,20.2989 45.3008,45.29883 v 117.20117 l -0.1016,-0.0684 V 408.5 L 1446.5,357.69922 v -12.59961 c 0,-17.79968 -12.4995,-32.79966 -29.6992,-35.59961 -2,-0.39999 -3.9008,-0.5 -5.8008,-0.5 -8.3999,0 -16.5001,2.90049 -23,8.40039 -3.8961,3.3043 -6.9706,7.39835 -9.1055,11.93555 -0,0.005 -0.01,0.009 -0.01,0.0137 -0.1074,0.23114 -0.1827,0.47561 -0.2851,0.70898 -0.8373,1.88611 -1.4854,3.85157 -1.9844,5.86328 -0.1623,0.66927 -0.2851,1.34738 -0.4082,2.02735 -0.2963,1.58851 -0.4554,3.20488 -0.5313,4.83594 -0.019,0.47262 -0.078,0.9387 -0.078,1.41406 V 374.90039 387.5 l 10.5,7 116,77.69922 c 12.6,8.39997 20.0996,22.50122 20.0996,37.70117 V 520.5 610.19922 c 0,12.53377 -5.1069,23.88248 -13.3457,32.08789 -0.044,0.0446 -0.094,0.0826 -0.1387,0.12695 -1.9216,1.89817 -4.0117,3.62352 -6.246,5.15625 -0.3205,0.22131 -0.6522,0.41767 -0.9786,0.63086 -1.9736,1.28073 -4.0497,2.41118 -6.2187,3.37695 -0.654,0.29358 -1.3164,0.54951 -1.9863,0.8125 -1.9297,0.75111 -3.9197,1.37198 -5.9668,1.85547 -0.9965,0.23844 -1.9989,0.42443 -3.0196,0.59571 -1.8396,0.30351 -3.7141,0.49402 -5.6211,0.56836 -0.6363,0.0266 -1.2341,0.18945 -1.8769,0.18945 l -131.6016,0.0996 c -1.3886,0 -2.6978,-0.28758 -4.0547,-0.41016 -0.3117,-0.0284 -0.6218,-0.059 -0.9316,-0.0937 -2.8883,-0.32116 -5.6722,-0.89337 -8.3711,-1.73242 -0,-0.001 -0.01,-0.003 -0.01,-0.004 -8.5166,-2.64988 -15.8898,-7.67936 -21.4336,-14.40039 -0.029,-0.0353 -0.059,-0.0701 -0.088,-0.10547 -1.7075,-2.08288 -3.2137,-4.29616 -4.5332,-6.66406 -0.1935,-0.34517 -0.3817,-0.6923 -0.5664,-1.04297 -1.0654,-2.03623 -1.9667,-4.13866 -2.7168,-6.34179 -0.2873,-0.83524 -0.55,-1.67872 -0.789,-2.53516 -0.4833,-1.75357 -0.8661,-3.52585 -1.1367,-5.35742 -0.2207,-1.45653 -0.369,-2.93329 -0.4473,-4.43164 -0.036,-0.73768 -0.2207,-1.43322 -0.2207,-2.17969 V 493.19922 l 0.1,0.0664 v -0.16601 l 75.6992,50.80078 V 556.5 c 0,0.3 0.032,0.59226 0.039,0.89062 0.084,3.82586 0.7593,7.499 1.9199,10.95508 0.2061,0.61045 0.4292,1.21127 0.666,1.80664 1.2869,3.24349 3.0233,6.24037 5.1387,8.9375 0.4366,0.55591 0.8892,1.09669 1.3574,1.625 2.2599,2.54888 4.8706,4.7625 7.7832,6.56836 0.5643,0.35016 1.1369,0.68538 1.7227,1.00391 3.1181,1.69102 6.5166,2.93235 10.1504,3.61914 0.3102,0.0591 0.6104,0.14234 0.9238,0.19336 1.9,0.3 3.7988,0.5 5.7988,0.5 0.2108,0 0.4185,-0.0236 0.6289,-0.0273 3.6838,-0.0759 7.2938,-0.71167 10.7364,-1.87891 0.4489,-0.15208 0.897,-0.3048 1.3398,-0.47461 3.5987,-1.38642 7.0158,-3.2886 10.0547,-5.83594 0.074,-0.0608 0.1545,-0.11243 0.2285,-0.17383 1.8592,-1.58849 3.5188,-3.36477 4.9922,-5.27343 0.082,-0.10587 0.1787,-0.2019 0.2598,-0.3086 4.5859,-6.08314 7.1601,-13.56276 7.1601,-21.32617 V 526.59961 514 l -10.5,-7 -116,-77.69922 c -0.6066,-0.40924 -1.0462,-0.98131 -1.6289,-1.41601 -1.9804,-1.46271 -3.8251,-3.05904 -5.5156,-4.79493 -0.8022,-0.82709 -1.5595,-1.66033 -2.293,-2.54101 -1.6485,-1.97362 -3.1193,-4.07192 -4.4023,-6.28711 -0.5529,-0.95361 -1.0553,-1.90765 -1.5371,-2.89844 -1.0998,-2.26431 -2.0071,-4.6181 -2.7188,-7.04883 -0.3284,-1.1182 -0.6056,-2.2279 -0.8476,-3.37304 -0.5269,-2.49502 -0.8431,-5.04459 -0.9454,-7.63868 -0.022,-0.57775 -0.2109,-1.12215 -0.2109,-1.70312 V 291.30078 c 0,-0.60801 0.1559,-1.17316 0.1797,-1.77539 0.071,-2.0457 0.2736,-4.05502 0.6074,-6.02344 0.1306,-0.74804 0.2472,-1.49156 0.4141,-2.22656 0.5452,-2.45855 1.2874,-4.84002 2.2148,-7.13086 0.083,-0.20224 0.1407,-0.41447 0.2266,-0.61523 6.8688,-16.28422 22.9874,-27.72852 41.7578,-27.72852 z"
     style="fill:#ffffff"
     id="path74" /><path
     d="m 2694.4004,222 c -38.0999,0 -69,30.90012 -69,69 v 100.30078 c 0,22.99994 11.4996,44.49886 30.5996,57.29883 l 116,77.70117 V 557 c 0,7.19998 -6.4008,12.79961 -13.8008,11.59961 -5.8,-0.9 -9.7988,-6.39884 -9.7988,-12.29883 v -18 -7.10156 l -123,-82.59961 v 161.59961 c 0,38.09988 30.9001,69 69,69 H 2826 c 38.0999,0 69,-30.90012 69,-69 V 542.59961 520.5 510 c -0.1,-23.09993 -11.4996,-44.60043 -30.5996,-57.40039 l -116,-77.69922 v -30.70117 c 0,-7.19998 6.3988,-12.89961 13.7988,-11.59961 5.8,1 9.8008,6.4008 9.8008,12.30078 v 18 V 370 l 123,82.59961 V 291 c 0,-38.09988 -30.9001,-69 -69,-69 z m 0.1,23.80078 h 131.5996 c 25,0 45.3008,20.2989 45.3008,45.29883 v 117.20117 l -0.2012,-0.13476 V 408.5 l -75.5996,-50.80078 v -12.59961 c 0,-17.79978 -12.4994,-32.79964 -29.6992,-35.59961 -2,-0.4 -3.9008,-0.5 -5.8008,-0.5 -8.3999,0 -16.5001,2.90046 -23,8.40039 -1.7421,1.4775 -3.2549,3.16403 -4.6621,4.92383 -0.4868,0.61953 -0.9334,1.26266 -1.377,1.91015 -0.8116,1.16721 -1.5268,2.39143 -2.1914,3.64454 -0.6478,1.23925 -1.2234,2.51012 -1.7207,3.8164 -0.3127,0.80837 -0.5808,1.63035 -0.8339,2.46094 -0.5444,1.82367 -0.9617,3.68797 -1.2051,5.59375 -0.053,0.39195 -0.09,0.7852 -0.1289,1.17969 -0.1012,1.08285 -0.1797,2.17045 -0.1797,3.26953 V 374.90039 387.5 l 10.5,7 116,77.69922 c 12.6,8.39997 20.0996,22.50122 20.0996,37.70117 l -0.1,10.59961 v 89.69922 c 0,12.53774 -5.1096,23.88969 -13.3535,32.0957 -0.036,0.0357 -0.076,0.066 -0.1114,0.10156 -1.9332,1.91165 -4.0371,3.64803 -6.2871,5.18946 -0.3089,0.21309 -0.6289,0.40187 -0.9433,0.60742 -1.9778,1.28432 -4.0603,2.41679 -6.2344,3.38476 -0.6529,0.29307 -1.3137,0.54991 -1.9824,0.8125 -1.932,0.75213 -3.925,1.3716 -5.9746,1.85547 -0.9953,0.23807 -1.9962,0.42464 -3.0157,0.59571 -1.8397,0.30351 -3.7141,0.49402 -5.6211,0.56836 -0.6363,0.0266 -1.2341,0.18945 -1.8769,0.18945 l -131.7012,0.0996 c -1.4233,0 -2.7662,-0.2912 -4.1562,-0.41992 -0.1789,-0.0171 -0.3569,-0.0355 -0.5352,-0.0547 -21.2037,-2.21761 -37.9152,-18.92908 -40.1328,-40.13281 -0.019,-0.17825 -0.038,-0.3563 -0.055,-0.53516 -0.1287,-1.39 -0.4199,-2.73289 -0.4199,-4.15625 V 493.19922 l 0.1992,0.13281 v -0.23242 l 75.7012,50.80078 V 556.5 c 0,0.55986 0.048,1.10808 0.072,1.66211 0.1424,3.28695 0.7131,6.4501 1.6583,9.46094 0.3386,1.07635 0.7237,2.12975 1.1562,3.16015 1.1741,2.79221 2.6685,5.39521 4.4688,7.77344 0.6609,0.87492 1.3605,1.71664 2.0976,2.52539 2.0793,2.27083 4.4252,4.27502 7.0371,5.9375 0.7648,0.48959 1.5485,0.95038 2.3535,1.38086 2.9935,1.58644 6.2256,2.78276 9.6875,3.45313 0.3913,0.0774 0.7716,0.18156 1.168,0.24609 1.9,0.3 3.9008,0.5 5.8008,0.5 0.1649,0 0.3275,-0.0192 0.4922,-0.0215 3.774,-0.074 7.4792,-0.70512 10.998,-1.92382 0.2844,-0.0975 0.5736,-0.18053 0.8555,-0.28516 3.7528,-1.40961 7.3037,-3.40348 10.4531,-6.06836 7.8999,-6.69992 12.5,-16.60012 12.5,-27 V 526.59961 514 l -10.5,-7 -116,-77.69922 c -0.8713,-0.58776 -1.5181,-1.39339 -2.3398,-2.0332 -1.3685,-1.05935 -2.6621,-2.18561 -3.8868,-3.38086 -1.4234,-1.39196 -2.7259,-2.83564 -3.9453,-4.38672 -1.0247,-1.3039 -1.9694,-2.65585 -2.8418,-4.06055 -1.1033,-1.77141 -2.0593,-3.58 -2.9082,-5.48437 -0.6088,-1.37113 -1.146,-2.76912 -1.6172,-4.19922 -0.6947,-2.09745 -1.2181,-4.21177 -1.6015,-6.40625 -0.2554,-1.46511 -0.437,-2.94284 -0.5488,-4.44141 -0.083,-1.11557 -0.4102,-2.17993 -0.4102,-3.30859 V 291.30078 c 0,-1.28489 0.2738,-2.494 0.3789,-3.75195 0.056,-0.71423 0.1264,-1.42237 0.2149,-2.12696 0.2702,-2.05876 0.6519,-4.05901 1.1894,-6.02148 0.3137,-1.17266 0.6707,-2.32379 1.0742,-3.45703 0.488,-1.34517 1.0049,-2.6569 1.6133,-3.93945 0.7782,-1.66698 1.6533,-3.27489 2.6211,-4.82422 0.3938,-0.62213 0.7647,-1.24844 1.1875,-1.84961 1.4435,-2.07949 3.0538,-4.03137 4.8164,-5.83789 0.088,-0.0892 0.1631,-0.1889 0.252,-0.27735 8.2104,-8.27794 19.5847,-13.41406 32.1523,-13.41406 z"
     style="fill:#ffffff"
     id="path73" /><path
     d="m 2108,222 c -38.0999,0 -69,30.90012 -69,69 v 100.30078 c 0,22.99994 11.4996,44.49886 30.5996,57.29883 l 116,77.70117 V 557 c 0,7.19998 -6.3988,12.79961 -13.7988,11.59961 -5.8,-0.9 -9.8008,-6.39884 -9.8008,-12.29883 v -18 -7.10156 l -123,-82.59961 v 161.59961 c 0,38.09988 30.9001,69 69,69 h 131.5996 c 38.0999,0 69,-30.90012 69,-69 V 542.59961 520.5 510 c 0,-23.09993 -11.4996,-44.60043 -30.5996,-57.40039 l -116,-77.69922 v -30.70117 c 0,-7.19998 6.4008,-12.89961 13.8008,-11.59961 5.8,1 9.7988,6.4008 9.7988,12.30078 v 18 V 370 l 123,82.59961 V 291 c 0,-38.09988 -30.9001,-69 -69,-69 z m 0.1,23.80078 h 131.5996 c 25,0 45.3008,20.2989 45.3008,45.29883 v 117.20117 l -0.1,-0.0664 V 408.5 l -75.5996,-50.80078 v -12.59961 c 0,-17.79978 -12.5014,-32.79964 -29.7012,-35.59961 -2,-0.4 -3.8988,-0.5 -5.7988,-0.5 -8.3999,0 -16.5001,2.90046 -23,8.40039 -3.8962,3.30432 -6.9706,7.39836 -9.1055,11.93555 -0,0.005 -0.01,0.009 -0.01,0.0137 -0.1074,0.23114 -0.1828,0.47561 -0.2852,0.70898 -0.8372,1.88611 -1.4854,3.85157 -1.9843,5.86328 -0.1624,0.66927 -0.2851,1.34738 -0.4082,2.02735 -0.2964,1.58851 -0.4554,3.20487 -0.5313,4.83594 -0.019,0.47262 -0.078,0.9387 -0.078,1.41406 V 374.90039 387.5 l 10.5,7 116,77.69922 c 12.6,8.39997 20.0996,22.50122 20.0996,37.70117 V 520.5 610.19922 c 0,12.53377 -5.1064,23.88248 -13.3457,32.08789 -0.044,0.0446 -0.094,0.0826 -0.1387,0.12695 -1.9218,1.89817 -4.0116,3.62352 -6.2461,5.15625 -0.3209,0.22161 -0.6536,0.4174 -0.9804,0.63086 -1.9727,1.27996 -4.049,2.40964 -6.2168,3.375 -0.6536,0.29344 -1.3149,0.55155 -1.9844,0.81445 -1.932,0.75213 -3.9249,1.3716 -5.9746,1.85547 -0.9953,0.23807 -1.9962,0.42464 -3.0156,0.59571 -1.8397,0.30351 -3.7141,0.49402 -5.6211,0.56836 -0.6363,0.0266 -1.2342,0.18945 -1.877,0.18945 l -131.6992,0.0996 c -1.3879,0 -2.6964,-0.28769 -4.0527,-0.41016 -0.3143,-0.0287 -0.6271,-0.0587 -0.9395,-0.0937 -2.8835,-0.321 -5.6626,-0.89324 -8.3574,-1.73047 -0.01,-0.003 -0.021,-0.007 -0.031,-0.01 -8.5064,-2.64957 -15.8719,-7.67291 -21.4121,-14.38477 -0.036,-0.0435 -0.072,-0.0872 -0.1074,-0.13086 -1.6994,-2.07447 -3.199,-4.27775 -4.5137,-6.63476 -0.1991,-0.35476 -0.3923,-0.7117 -0.582,-1.07227 -1.0625,-2.03214 -1.9625,-4.12986 -2.7109,-6.32812 -0.2874,-0.83524 -0.5501,-1.67872 -0.7891,-2.53516 -0.4834,-1.75357 -0.8661,-3.52585 -1.1367,-5.35742 -0.2207,-1.45653 -0.369,-2.93329 -0.4473,-4.43164 -0.036,-0.73768 -0.2207,-1.43321 -0.2207,-2.17969 V 493.19922 l 0.1,0.0664 v -0.16601 l 75.7012,50.80078 V 556.5 c 0,0.3 0.032,0.59226 0.039,0.89062 0.084,3.82588 0.7594,7.49899 1.9199,10.95508 0.2061,0.61045 0.4292,1.21127 0.666,1.80664 1.2873,3.24486 3.0243,6.24341 5.1406,8.94141 0.4352,0.55401 0.8869,1.09254 1.3535,1.61914 2.2604,2.55004 4.8715,4.76386 7.7852,6.57031 0.5644,0.35022 1.1368,0.68729 1.7226,1.00586 3.1175,1.69041 6.5156,2.93055 10.1485,3.61719 0.3102,0.0591 0.6104,0.14234 0.9238,0.19336 1.9,0.3 3.9008,0.5 5.8008,0.5 0.2108,0 0.4185,-0.0236 0.6289,-0.0273 3.6838,-0.0759 7.2938,-0.71167 10.7363,-1.87891 0.449,-0.15208 0.8971,-0.3048 1.3399,-0.47461 3.5987,-1.38642 7.0157,-3.28858 10.0547,-5.83594 0.074,-0.0608 0.1545,-0.11243 0.2285,-0.17383 1.8592,-1.58849 3.5188,-3.36478 4.9922,-5.27343 0.082,-0.10587 0.1786,-0.2019 0.2597,-0.3086 4.586,-6.08313 7.1602,-13.56271 7.1602,-21.32617 V 526.59961 514 l -10.5,-7 -116,-77.69922 c -0.6067,-0.40925 -1.0462,-0.98131 -1.6289,-1.41601 -1.9804,-1.46271 -3.8251,-3.05904 -5.5156,-4.79493 -0.8022,-0.82709 -1.5594,-1.66033 -2.293,-2.54101 -1.6486,-1.97362 -3.1193,-4.07192 -4.4024,-6.28711 -0.5536,-0.95483 -1.0566,-1.91024 -1.539,-2.90235 -1.0954,-2.25573 -1.9987,-4.60054 -2.709,-7.02148 -0.3344,-1.13609 -0.6162,-2.26383 -0.8613,-3.42773 -0.5209,-2.47511 -0.8343,-5.00363 -0.9375,-7.57618 -0.023,-0.58829 -0.2149,-1.14273 -0.2149,-1.73437 V 291.30078 c 0,-0.62073 0.1588,-1.1978 0.1836,-1.8125 0.071,-2.01941 0.2718,-4.00319 0.5996,-5.94726 0.134,-0.77134 0.2552,-1.53745 0.4278,-2.29493 0.5423,-2.43783 1.279,-4.7994 2.1972,-7.07226 0.088,-0.21566 0.1487,-0.44227 0.2403,-0.65625 6.8709,-16.27819 22.9858,-27.7168 41.7519,-27.7168 z"
     style="fill:#ffffff"
     id="path72" /><path
     d="m 1128.1992,222.09961 v 457.09961 h 123 V 222.09961 Z m 23.7012,23.59961 h 75.6992 V 655.5 v 0.0996 h -75.6992 V 655.5 Z"
     style="fill:#ffffff"
     id="path71" /><path
     d="m 2915.9004,222.09961 v 110.5 h 59.9004 v 346.59961 h 123 V 332.59961 h 59.8984 v -110.5 h -59.8984 -123 z m 23.5,23.59961 h 0.1992 195.2012 0.1 v 63.20117 h -59.8008 v 346.69922 h -0.1 -75.5996 -0.1 V 308.90039 h -59.7012 -0.1992 z"
     style="fill:#ffffff"
     id="path70" /><path
     d="M 927,308.90039 V 592.5 h 32.5 c 2.64996,0 5.23712,-0.26951 7.73633,-0.78125 2.49921,-0.51174 4.91014,-1.26638 7.20703,-2.23828 4.59377,-1.94381 8.73197,-4.75541 12.20703,-8.23047 3.47506,-3.47506 6.28666,-7.61326 8.23047,-12.20703 0.9719,-2.29689 1.72654,-4.70782 2.23828,-7.20703 0.51174,-2.49921 0.78125,-5.08637 0.78125,-7.73633 V 347.30078 c 0,-2.62254 -0.27198,-5.1811 -0.77344,-7.65625 -0.0146,-0.0717 -0.0338,-0.14136 -0.0488,-0.21289 -0.49177,-2.35741 -1.21252,-4.62929 -2.11523,-6.80664 -0.0514,-0.12357 -0.0997,-0.24817 -0.15234,-0.37109 -1.91871,-4.49269 -4.67356,-8.53928 -8.0625,-11.95899 -0.0837,-0.0845 -0.16944,-0.1663 -0.25391,-0.25 -3.42659,-3.3933 -7.47609,-6.15868 -11.97852,-8.07617 -0.1028,-0.0439 -0.20923,-0.08 -0.3125,-0.12305 -2.2039,-0.91563 -4.50415,-1.64642 -6.89257,-2.14062 -0.0496,-0.0103 -0.0988,-0.0211 -0.14844,-0.0312 -2.4769,-0.5022 -5.03758,-0.77344 -7.66211,-0.77344 z m 23.69922,23.69922 H 959.5 c 8.19997,0 14.80078,6.60081 14.80078,14.80078 v 206.69922 c 0,8.19997 -6.60081,14.80078 -14.80078,14.80078 h -8.80078 z"
     style="fill:#ffffff"
     id="path69" /><path
     d="m 1566.0996,222.09961 v 457.09961 h 123 V 536.30078 l 23.5996,23.59961 v 119.29883 h 123 V 508.90039 L 1777.5,450.69922 1835.6992,392.5 V 222.09961 h -123 V 341.40039 L 1689.0996,365 V 222.09961 Z m 23.7012,23.59961 H 1665.5 V 422 l 70.9004,-70.90039 V 245.69922 h 75.6992 v 136.90039 l -67.9512,68.04883 67.9512,67.95117 v 0.0996 136.80078 0.0996 h -75.6992 V 655.5 550.19922 l -70.9004,-71 V 655.5 v 0.0996 h -75.6992 V 655.5 Z"
     style="fill:#ffffff"
     id="path68" /><path
     d="m 2330.9004,222.09961 v 164.70117 66.29883 23.09961 c 0,38.09988 30.9001,69 69,69 H 2477.5 v 23.60156 h -123 v 110.29883 h 176.9004 c 38.0999,0 69,-30.90012 69,-69 v -388 H 2477.5 v 200.20117 h -23.5996 V 222.09961 Z m 23.5,23.59961 h 0.1992 75.5 0.2012 V 422.30078 446 h 23.5 0.1992 23.4004 0.1992 23.5 V 422.30078 245.69922 h 0.2012 75.5 0.1992 l -0.1992,364.5 c 0,3.12223 -0.3171,6.17193 -0.9199,9.11719 -6e-4,0.003 -0,0.005 -0,0.008 -2e-4,0.001 3e-4,0.003 0,0.004 -0,0.007 -0,0.0128 -0.01,0.0195 -0.6034,2.93711 -1.4901,5.7703 -2.6328,8.4707 -8e-4,0.002 -0,0.004 -0,0.006 -0.01,0.0195 -0.019,0.0372 -0.027,0.0566 -1.1327,2.66561 -2.5151,5.20055 -4.1152,7.57617 -0.047,0.0702 -0.097,0.13709 -0.1445,0.20703 -1.588,2.32962 -3.3839,4.50517 -5.3672,6.4961 -0.081,0.0813 -0.1665,0.15563 -0.2481,0.23632 -1.9823,1.96028 -4.1383,3.74415 -6.4531,5.31446 -0.1105,0.075 -0.2266,0.13886 -0.3379,0.21289 -2.3373,1.55572 -4.8188,2.91369 -7.4336,4.01953 -0.091,0.0383 -0.1864,0.0639 -0.2773,0.10156 -2.6472,1.09921 -5.4153,1.96175 -8.2871,2.54492 -0.07,0.0142 -0.1427,0.0193 -0.2129,0.0332 -2.8587,0.56638 -5.8102,0.87695 -8.834,0.87695 H 2531.3008 2378.1992 2378 v -63 h 0.1992 99.1016 0.1992 23.5 V 568.80078 545.19922 521.5 h -23.5 -0.1992 -77.4004 -0.2012 c -0.069,0 -0.1324,-0.0192 -0.2012,-0.0195 -2.8468,-0.0251 -5.6309,-0.3134 -8.33,-0.8418 -0.5316,-0.1017 -1.0416,-0.24315 -1.5664,-0.36328 -2.1295,-0.49676 -4.1985,-1.14004 -6.2012,-1.92578 -0.9947,-0.3856 -1.9488,-0.81905 -2.9082,-1.27149 -1.4582,-0.69444 -2.8709,-1.46205 -4.2383,-2.30273 -1.3227,-0.80644 -2.5755,-1.6777 -3.8047,-2.61133 -0.8978,-0.68662 -1.7661,-1.40387 -2.6094,-2.15429 -1.4753,-1.30425 -2.8419,-2.68996 -4.1367,-4.17383 -0.4878,-0.56223 -0.9598,-1.13476 -1.4199,-1.72071 -1.4194,-1.79723 -2.6842,-3.68533 -3.8223,-5.6875 -0.2486,-0.43976 -0.4884,-0.8833 -0.7226,-1.33203 -1.1515,-2.194 -2.1069,-4.47242 -2.8906,-6.85937 -0.1267,-0.38806 -0.247,-0.77736 -0.3633,-1.16992 -0.7323,-2.45425 -1.2433,-4.97329 -1.5508,-7.58204 -0.052,-0.4424 -0.096,-0.88584 -0.1348,-1.33203 -0.1165,-1.32373 -0.3984,-2.59935 -0.3984,-3.95312 v -23.09961 -66.29883 z"
     style="fill:#ffffff"
     id="path67" /><path
     d="m 3179,222.09961 v 457.09961 h 213.0996 V 568.90039 h -90.1992 v -63 h 90.1992 v -110.5 h -90.1992 v -62.80078 h 90.1992 v -110.5 z m 23.5996,23.59961 h 165.8008 v 63.20117 h -90.2012 v 110.19922 h 90.2012 v 63.09961 0.10156 h -90.2012 V 592.5 h 90.2012 v 0.0996 63 h -165.8008 z"
     style="fill:#ffffff"
     id="path66" /><path
     d="m 3423.4004,222.09961 v 457.09961 h 123 V 344.5 c 0,-6.59998 5.3004,-11.90039 11.9004,-11.90039 6.6,0 11.8984,5.30041 11.8984,11.90039 v 334.80078 h 123 V 344.40039 c 0,-6.59998 5.3004,-11.90039 11.9004,-11.90039 6.6,0 11.9004,5.30041 11.9004,11.90039 v 334.79883 h 123 V 291.09961 c 0,-38.09988 -30.9001,-69 -69,-69 h -93.9004 c -17.4,0 -33.2004,6.49964 -45.4004,17.09961 -12.1,-10.59997 -27.9985,-17.09961 -45.3984,-17.09961 z m 23.7988,23.59961 h 139.2012 c 11.6451,0 22.2956,4.46355 30.2832,11.70312 0.093,0.0827 0.2239,0.11389 0.3164,0.19727 0.2295,0.20928 0.4152,0.6087 0.6406,0.83984 1.0916,1.1518 2.1302,2.52365 3.1172,4.08594 0.9434,1.46701 1.7997,3.00708 2.6406,4.70898 0.151,0.30851 0.2979,0.61252 0.4454,0.92579 1.581,3.3283 2.6131,6.17067 3.7636,9.51757 0.6245,1.79716 1.1745,3.36629 1.6641,4.96289 0.4684,1.54116 1.2992,3.66611 1.6289,4.85938 0.1289,0.47252 0.519,0.64242 0.9004,0.70898 0.1769,-0.009 0.347,-0.0685 0.5019,-0.16211 0.056,-0.0251 0.091,-0.0762 0.1426,-0.11132 0.1527,-0.13495 0.2907,-0.29761 0.3555,-0.53516 2.1,-7.59997 6.9988,-23.60041 13.7988,-29.90039 8.1,-7.29998 18.7004,-11.80078 30.4004,-11.80078 h 93.9004 c 9.3135,0 17.9697,2.824 25.1719,7.65234 0.3472,0.23029 0.6634,0.49292 1.0039,0.73242 1.7929,1.27446 3.4876,2.67193 5.0742,4.1875 0.7115,0.67315 1.3722,1.37814 2.0391,2.09571 1.1178,1.21413 2.1689,2.48562 3.1503,3.8164 0.8969,1.20443 1.7066,2.44998 2.4825,3.74219 0.591,0.994 1.1429,2.00972 1.6582,3.05078 0.8785,1.75609 1.6237,3.56085 2.2715,5.4375 0.2575,0.75554 0.4928,1.51817 0.7109,2.29102 0.6375,2.22583 1.0862,4.50223 1.3769,6.85351 0.066,0.54701 0.122,1.09565 0.168,1.64844 0.1131,1.30394 0.3926,2.55954 0.3926,3.89258 v 364.5 h -0.2012 -75.5 -0.1 V 345.69922 c 0,-0.3803 -0.088,-0.74267 -0.1,-1.1211 -0.1166,-3.77574 -0.7674,-7.44718 -1.9336,-10.91601 -0.2049,-0.61224 -0.4155,-1.21379 -0.6504,-1.8125 -1.3571,-3.44079 -3.1927,-6.63691 -5.4414,-9.49609 -0.3653,-0.46401 -0.7246,-0.92386 -1.1113,-1.36915 -2.3662,-2.72582 -5.1395,-5.04363 -8.2012,-6.93359 -0.4801,-0.29546 -0.9225,-0.63987 -1.418,-0.91211 -3.4239,-1.88335 -7.1818,-3.20402 -11.1992,-3.78906 -0.2846,-0.0437 -0.5585,-0.11369 -0.8457,-0.15039 -0.049,-0.006 -0.096,-0.004 -0.1445,-0.01 -21.4586,-2.44272 -39.6543,14.29179 -39.6543,35.21094 v 311.19922 h -75.7012 V 655.5 H 3594 V 345.69922 c 0,-0.75857 -0.1525,-1.48566 -0.1973,-2.23633 -0.1852,-3.01019 -0.6929,-5.9395 -1.5547,-8.75195 -0.3833,-1.26412 -0.8158,-2.49322 -1.3242,-3.70117 -1.2364,-2.90256 -2.7774,-5.63561 -4.6699,-8.11133 -0.5718,-0.75374 -1.1466,-1.49134 -1.7734,-2.19727 -2.3435,-2.61601 -5.0209,-4.90502 -8.0313,-6.72851 -0.4205,-0.25651 -0.8041,-0.56202 -1.2363,-0.80079 -3.556,-1.94794 -7.4695,-3.32365 -11.6816,-3.89648 -0.1459,-0.0206 -0.2851,-0.0574 -0.4317,-0.0762 -0.024,-0.003 -0.048,-0.003 -0.072,-0.006 -21.5789,-2.6197 -39.9277,14.1979 -39.9277,35.20703 v 311.19922 h -75.6992 V 655.5 h -0.2012 z"
     style="fill:#ffffff"
     id="path65" /><path
     d="m 2694.3008,246 c -25,0 -45.3008,20.30086 -45.3008,45.30078 v 100.29883 c 0,15.09995 7.4996,29.2012 20.0996,37.70117 l 116,77.69922 10.5,7 v 12.59961 30.70117 c 0,10.39997 -4.6,20.30002 -12.5,27 -6.5,5.49999 -14.6,8.39844 -23,8.39844 -1.9,0 -3.7988,-0.2 -5.7988,-0.5 -17.2,-2.8 -29.7012,-17.79967 -29.7012,-35.59961 V 544 l -75.6992,-50.80078 v 117.20117 c 0,24.99993 20.2989,45.29883 45.2988,45.29883 l 131.7012,-0.0996 c 24.9999,0 45.2988,-20.2989 45.2988,-45.29883 v -89.70117 -10.5 c 0,-15.09996 -7.4996,-29.19925 -20.0996,-37.69922 l -116,-77.70117 -10.5,-7 v -12.59961 -30.69922 c 0,-10.39997 4.6,-20.30002 12.5,-27 6.5,-5.49998 14.6,-8.40039 23,-8.40039 1.9,0 3.8008,0.1 5.8008,0.5 17.2,2.79999 29.6992,17.79966 29.6992,35.59961 v 12.59961 L 2871.1992,408.5 V 291.30078 C 2871.1992,266.30086 2850.9003,246 2825.9004,246 Z"
     style="fill:#fdbc1a"
     id="path64" /><path
     d="m 2108,246 c -25,0 -45.3008,20.30086 -45.3008,45.30078 v 100.29883 c 0,15.09995 7.5016,29.2012 20.1016,37.70117 l 116,77.69922 10.5,7 v 12.59961 30.70117 c 0,10.39997 -4.6,20.30002 -12.5,27 -6.5,5.49999 -14.6,8.39844 -23,8.39844 -1.9,0 -3.8008,-0.2 -5.8008,-0.5 -17.2,-2.8 -29.6992,-17.79967 -29.6992,-35.59961 V 544 l -75.7012,-50.80078 v 117.20117 c 0,24.99993 20.3008,45.29883 45.3008,45.29883 l 131.6992,-0.0996 c 25,0 45.3008,-20.2989 45.3008,-45.29883 v -89.70117 -10.5 c 0,-15.09996 -7.4996,-29.19925 -20.0996,-37.69922 l -116,-77.70117 -10.5,-7 v -12.59961 -30.69922 c 0,-10.39997 4.6,-20.30002 12.5,-27 6.5,-5.49998 14.6,-8.40039 23,-8.40039 1.9,0 3.7988,0.1 5.7988,0.5 17.2,2.79999 29.7012,17.79966 29.7012,35.59961 v 12.59961 L 2284.9004,408.5 V 291.30078 C 2284.9004,266.30086 2264.5996,246 2239.5996,246 Z"
     style="fill:#fdbc1a"
     id="path63" /><path
     d="m 2354.4004,245.69922 v 141.10156 66.29883 23.09961 c 0,24.99992 20.2989,45.30078 45.2988,45.30078 H 2477.3008 2501 V 545.19922 568.80078 592.5 H 2477.3008 2378 v 63 h 153.3008 c 25.1999,0.1 45.5,-20.30086 45.5,-45.30078 v -364.5 h -75.7012 V 422.30078 446 h -23.6992 -23.5996 -23.7012 V 422.30078 245.69922 Z"
     style="fill:#fdbc1a"
     id="path62" /><path
     d="M 1589.8008,245.69922 V 655.59961 H 1665.5 V 479.19922 l 70.9004,71 v 105.40039 h 75.6992 V 518.69922 l -68,-68 68,-68.09961 V 245.69922 h -75.6992 v 105.40039 l -70.9004,71 V 245.69922 Z"
     style="fill:#fdbc1a"
     id="path61" /><path
     d="M 1151.9004,245.69922 V 655.5 h 75.6992 V 245.69922 Z"
     style="fill:#fdbc1a"
     id="path60" /><path
     d="m 1345.3008,246 c -25,0 -45.3008,20.30086 -45.3008,45.30078 v 100.29883 c 0,15.09995 7.4996,29.2012 20.0996,37.70117 l 116,77.69922 10.5,7 v 12.59961 30.70117 c 0,10.39997 -4.6,20.30002 -12.5,27 -6.5,5.49999 -14.6,8.39844 -23,8.39844 -1.9,0 -3.7988,-0.2 -5.7988,-0.5 -17.2,-2.8 -29.7012,-17.79967 -29.7012,-35.59961 V 544 l -75.6992,-50.80078 v 117.20117 c 0,24.99993 20.2989,45.29883 45.2988,45.29883 l 131.6016,-0.0996 c 24.9999,0 45.2988,-20.2989 45.2988,-45.29883 v -89.70117 -10.5 c 0,-15.09996 -7.4996,-29.19925 -20.0996,-37.69922 l -116,-77.70117 -10.5,-7 v -12.59961 -30.69922 c 0,-10.39997 4.6,-20.30002 12.5,-27 6.5,-5.49998 14.6,-8.40039 23,-8.40039 1.9,0 3.8008,0.1 5.8008,0.5 17.1999,2.79999 29.6992,17.79966 29.6992,35.59961 v 12.59961 L 1522.1992,408.5 V 291.30078 C 1522.1992,266.30086 1501.9003,246 1476.9004,246 Z"
     style="fill:#fdbc1a"
     id="path59" /><path
     d="m 851.30078,245.80078 v 409.79883 h 176.89842 c 25,0 45.4004,-20.40047 45.4004,-45.40039 V 291.09961 c 0,-24.99993 -20.2989,-45.29883 -45.2988,-45.29883 z M 927,308.90039 h 32.5 c 21.19994,0 38.40039,17.20045 38.40039,38.40039 V 554.09961 C 997.90039,575.29955 980.69994,592.5 959.5,592.5 H 927 Z"
     style="fill:#fdbc1a"
     id="path58" /><path
     d="m 3447.4004,245.80078 v 409.79883 h 75.6992 V 344.40039 c 0,-21.09994 18.5012,-38.00117 40.2012,-35.20117 17.8999,2.29999 30.8984,18.40005 30.8984,36.5 v 309.90039 h 75.7012 V 344.40039 c 0,-21.09994 18.4993,-38.00117 40.1992,-35.20117 17.6,2.29999 30.5996,18.40005 30.5996,36.5 v 309.90039 h 75.7012 v -364.5 c 0,-24.99993 -20.3008,-45.29883 -45.3008,-45.29883 h -93.9004 c -11.7,0 -22.3984,4.49885 -30.3984,11.79883 -6.9,6.19998 -11.8008,22.20042 -13.8008,29.90039 -0.3,1.1 -1.7996,1.1 -2.0996,0 -2.1,-7.59997 -7.1004,-23.70041 -13.9004,-29.90039 -8.1,-7.29998 -18.7004,-11.79883 -30.4004,-11.79883 z"
     style="fill:#fdbc1a"
     id="path57" /><path
     d="m 2939.5996,245.69922 v 63.20117 h 59.8008 v 346.69922 h 75.6992 V 308.90039 h 59.8008 v -63.20117 z"
     style="fill:#fdbc1a"
     id="path56" /><path
     d="m 3202.5996,245.69922 v 409.90039 h 165.8008 V 592.5 h -90.2012 V 482.19922 h 90.2012 v -63.09961 h -90.2012 V 308.90039 h 90.2012 v -63.20117 z"
     style="fill:#fdbc1a"
     id="path55" /><path
     d="m 1524.1992,0 c -46.0998,0.499999 -83.0988,38.200483 -82.7988,84.400391 -0.4,46.099899 36.599,83.900389 82.7988,84.400389 30.9,-0.1 59.1016,-17.60162 73.1016,-45.10156 L 1597.5996,123 h -36.4004 c -9.9,9.79998 -23.1,15.30039 -37,15.40039 -29.8,-0.8 -53.3996,-25.60045 -52.5996,-55.40039 0.8,-28.699942 23.8996,-51.899611 52.5996,-52.599609 13.7,0 26.9016,5.499238 36.6016,15.199218 l 36.7988,0.09961 L 1597.3008,45 c -14,-27.499945 -42.2016,-44.9000002 -73.1016,-45 z m 157.9004,0.30078125 c -46.1998,0.5999988 -83.1988,38.40009175 -82.7988,84.49999975 0.9,45.699909 38.6986,81.999609 84.3984,81.099609 45.7,-0.9 82.0016,-38.70049 81.1016,-84.40039 -0.9,-45.09991 -37.7012,-81.09921895 -82.7012,-81.19921875 z M 2361.5996,1 l -0.4004,0.099609 h -83.3984 V 167.30078 h 83.7988 v -32 h -52.4004 V 102 h 52.4004 V 70 h -52.4004 V 33 h 52.4004 z m -1365.90038,0.099609 -114.5,166.3007806 h 35.5 c 0,0 17.70039,-25.79961 17.90039,-26.09961 h 56.09961 v 26.09961 h 30.20118 V 1.0996094 h -0.5 z m 778.49998,0 V 167.40039 H 1805.5 V 84.599609 c 0.5,-0.1 3,-0.698828 3.5,-0.798828 l 36.3008,83.599609 h 27.8984 c 0,0 36.0012,-82.800001 36.2012,-83.499999 0.5,0.1 3,0.698828 3.5,0.798828 v 82.701171 h 31.2988 V 1.0996094 h -0.2988 -35 c 0,0 -48.7996,112.7996106 -49.5996,114.5996106 -0.8,-1.8 -49.8008,-114.5996106 -49.8008,-114.5996106 z m 294.2012,0 V 113.30078 c -0.5,29.29994 22.7996,53.29883 52.0996,53.79883 29.3,0.5 53.3008,-22.79967 53.8008,-52.09961 V 113.30078 1.1992187 l -0.4004,-0.099609 h -31 V 113.30078 c 0.2,11.89998 -9.4012,21.69844 -21.2012,21.89844 -11.8,0.2 -21.6984,-9.29924 -21.8984,-21.19922 V 113.40039 1.0996094 Z m 370.0996,0 -66.9004,0.099609 h -0.5 V 168 H 2402.5 V 80.199219 c 1.6,2.599994 51.8008,87.201171 51.8008,87.201171 h 35.2988 c 0,0 -35.4004,-59.69961 -35.9004,-60.59961 0.7,-0.2 2.1016,-0.80078 2.1016,-0.80078 28,-10.499979 42.1988,-41.699275 31.7988,-69.699219 C 2479.8996,15.700823 2460.5,1.799608 2438.5,1.0996094 Z m -1606,0.099609 V 167.40039 h 31.90039 v -65.5 h 54.19922 V 70.099609 H 864.40039 V 31.800781 h 54.19922 V 1.1992187 h -0.40039 z m 198,0 V 167.40039 h 31.3008 V 84.599609 c 0.5,-0.1 3,-0.698828 3.5,-0.798828 0.3,0.7 36.2988,83.499999 36.2988,83.499999 H 1129.5 l 36.3008,-83.499999 c 0.5,0.1 3,0.698828 3.5,0.798828 v 82.701171 h 31.2988 V 1.1992187 h -0.4004 -35 c 0,0 -48.7996,112.7000013 -49.5996,114.5000013 L 1065.8008,1.1992187 Z m 179.6992,0 V 167.40039 H 1240 V 1.1992187 h -0.4004 z m 39.4004,0 V 167.40039 h 73.8008 v -32 H 1281 V 1.1992187 h -0.5 z m 39.5,0 51.5996,102.2011713 -0.1,64.09961 h 31.5 l 0.1,-64.19922 C 1372.2992,103.30078 1423.4004,2 1423.4004,2 L 1423.6992,1.3007812 1423,1.1992187 h -32.5 c 0,0 -33.3996,65.0015663 -34.0996,66.6015623 -0.8,-1.499996 -34.0996,-66.6015623 -34.0996,-66.6015623 z m 664.9004,0 V 167.40039 h 31.4004 v -59.20117 h 22.4004 c 29.6,-0.6 53.1,-25.000061 52.5,-54.500001 -0.5,-28.799942 -23.7,-52.0000013 -52.5,-52.5000003 h -53.4004 z m 229.3008,0 V 33.099609 h 27.0996 V 167.40039 h 31.4004 V 33.099609 H 2269 V 1.1992187 h -0.5 z M 1683.0996,33 c 29.2,0.599998 52.4008,24.800058 51.8008,54 -0.6,28.79994 -24.1004,51.80078 -52.9004,51.80078 -29.5,-0.3 -53.1004,-24.50006 -52.9004,-53.999999 0.6,-29.199942 24.8,-52.400779 54,-51.800781 z m 302.2012,0.09961 h 22.3984 c 11.9,0.2 21.4012,10.100024 21.2012,22 -0.2,11.599978 -9.6012,20.89961 -21.2012,21.09961 h -22.3984 z m 453.1992,0 c 11.9,0.4 21.1996,10.199634 21.0996,22.09961 0.2,11.899976 -9.1996,21.7 -21.0996,22 h -36 v -44 h 36 z M 990.69922,59.199219 V 111.5 H 955 c 0.6,-0.9 1.90039,-2.90039 1.90039,-2.90039 z"
     style="fill:#ffffff"
     id="path54" /></g>
</svg>
