<?xml version="1.0" encoding="UTF-8" standalone="no"?>
<!-- Generator: Adobe Illustrator 25.0.0, SVG Export Plug-In . SVG Version: 6.00 Build 0)  -->

<svg
   version="1.1"
   id="Layer_1"
   x="0px"
   y="0px"
   viewBox="0 0 3840 444.8"
   style="enable-background:new 0 0 3840 444.8;"
   xml:space="preserve"
   sodipodi:docname="Nintendo Game &amp; Watch 3-07-05-01.svg"
   inkscape:version="1.3.2 (091e20e, 2023-11-25)"
   xmlns:inkscape="http://www.inkscape.org/namespaces/inkscape"
   xmlns:sodipodi="http://sodipodi.sourceforge.net/DTD/sodipodi-0.dtd"
   xmlns="http://www.w3.org/2000/svg"
   xmlns:svg="http://www.w3.org/2000/svg"><defs
   id="defs13">
	

		
	
			
		
				
				
				
				
				
				
				
				
				
				
			
					
				
					
				
					
				
					
				
					
				
					
				
					
				
					
				
					
				
					
				</defs><sodipodi:namedview
   id="namedview13"
   pagecolor="#ffffff"
   bordercolor="#000000"
   borderopacity="0.25"
   inkscape:showpageshadow="2"
   inkscape:pageopacity="0.0"
   inkscape:pagecheckerboard="0"
   inkscape:deskcolor="#d1d1d1"
   inkscape:zoom="0.18776042"
   inkscape:cx="1917.337"
   inkscape:cy="223.68932"
   inkscape:window-width="1800"
   inkscape:window-height="1037"
   inkscape:window-x="0"
   inkscape:window-y="44"
   inkscape:window-maximized="0"
   inkscape:current-layer="Layer_1" />
<style
   type="text/css"
   id="style1">
	.st0{fill:#E31E26;}
	.st1{fill:#FFFFFF;}
</style>
<g
   id="g22"><path
     d="M 217.59961,9.9003906 C 97.39997,9.9003906 0,107.20075 0,227.40039 c 0,120.09964 97.40036,217.60039 217.5,217.40039 97.7997,0 180.50048,-64.70027 207.90039,-153.5 C 431.70037,271.00084 435,249.49915 435,227.19922 c 0,-1.6 3.9e-4,-3.19883 -0.0996,-4.79883 H 221.09961 v 69 H 355 c -24.19993,51.69985 -76.60057,87.5 -137.40039,87.5 C 133.89986,378.90039 66,311.00053 66,227.30078 66,143.60103 133.79986,75.699219 217.59961,75.699219 268.79946,75.699219 314.10008,101.10012 341.5,140 l 75.30078,0.0996 C 383.10088,63.499839 306.59934,9.9003906 217.59961,9.9003906 Z"
     style="fill:#e31e26"
     id="path22" /><path
     d="M 665.80078,14.099609 391,428.09961 h 85.09961 l 58.70117,-88.40039 h 131.09961 v 88.60156 h 70.90039 V 14.099609 Z m 0,128.201171 v 126.5 h -84 z"
     style="fill:#e31e26"
     id="path21" /><path
     d="M 1031.4004,14.099609 756.5,428.09961 h 85.19922 L 1031.4004,142.30078 v 286 h 70.9004 v -0.5 l 189.5996,-285.5 v 286 h 70.9004 V 14.099609 h -70.9004 L 1102.3008,299.5 V 14.099609 Z"
     style="fill:#e31e26"
     id="path20" /><path
     d="M 1420.0996,14.099609 V 428.30078 L 1491,428 h 144.5 V 357.09961 H 1491 v -96.5 h 144.5 V 189.69922 H 1491 V 85 h 144.5 V 14.099609 Z"
     style="fill:#e31e26"
     id="path19" /><path
     d="m 1860.5996,12.900391 c -46.7998,0 -95.1992,33.500169 -95.1992,89.499999 0,38.99988 21.4989,64.20045 42.7988,82.90039 -39.4998,27.99992 -73.8984,57.7994 -73.8984,119.19922 0,34.8999 12.6,66.60007 35.5,89.5 23.0999,23.09993 55.2989,35.80078 90.7988,35.80078 67.1998,0 100.5997,-32.50093 126.0996,-82.80078 l 82.4004,76.19922 43.2012,-46.69922 -97.9004,-90.59961 c 22.6999,-51.19985 56.7988,-128 56.7988,-128 h -69.5996 l -36.5996,82.5 -54.5,-50.30078 c 25,-20.09994 46.9004,-45.39934 46.9004,-87.69922 0,-22.699931 -9.0012,-44.200438 -25.2012,-60.40039 -18.4999,-18.499945 -44.5996,-29.099609 -71.5996,-29.099609 z m 0.1,63.5 c 10,0 20.2016,4.00041 26.6016,10.40039 4.5,4.399987 6.5996,9.500019 6.5996,15.499999 0,17.79995 -8.6004,27.59849 -31.9004,44.89844 -20.4,-16.39995 -32.9004,-27.79849 -32.9004,-44.89844 -0.1,-6.399978 2.0996,-11.701184 6.5996,-16.201171 6,-5.999982 15.6,-9.699218 25,-9.699218 z m -2.7988,151.499999 79.7988,73.69922 -1.1992,3 c -21.9,48.89985 -37.5009,61.5 -75.8008,61.5 -18.7999,0 -34.6984,-5.99964 -45.8984,-17.09961 -11.1,-11.09997 -16.9004,-26.49967 -16.9004,-44.59961 0,-33.3999 17.2005,-46.70009 59.4004,-76 0.2,-0.1 0.4996,-0.3 0.5996,-0.5 z"
     style="fill:#e31e26"
     id="path18" /><path
     d="M 2829.6992,14.199219 2554.8008,428.19922 h 85.0996 l 58.6992,-88.39844 h 131.0996 v 88.59961 h 70.9004 V 14.199219 Z m 0,128.300781 v 126.40039 h -84 z"
     style="fill:#e31e26"
     id="path17" /><path
     d="M 2178.8008,14.199219 V 428.40039 h 70.8984 l 189.5,-285.5 v 285.5 h 70.9004 L 2785,14.400391 h -85.0996 L 2510.0996,300.09961 V 14.199219 h -70.9004 v 0.5 l -189.5,285.400391 V 14.199219 Z"
     style="fill:#e31e26"
     id="path16" /><path
     d="M 3570.1992,14.199219 V 428.30078 h 70.9004 V 251.90039 h 128 V 428.30078 H 3840 V 14.199219 h -70.9004 V 180.90039 h -128 V 14.199219 Z"
     style="fill:#e31e26"
     id="path15" /><path
     d="m 2928.3008,14.199219 v 70.90039 h 80.2988 V 428.30078 H 3079.5 V 85.099609 h 80.1992 v -70.90039 z"
     style="fill:#e31e26"
     id="path14" /><path
     d="m 3359.5996,0 c -119.9998,0 -217.2988,97.301022 -217.2988,217.30078 0,119.99976 97.299,217.29883 217.2988,217.29883 84.0998,0 156.9998,-48.00053 193.0996,-117.90039 H 3470 c -27.2,30.29994 -66.6,49.20117 -110.5,49.20117 -82.1998,0 -148.8008,-66.60133 -148.8008,-148.70117 0,-82.09984 66.601,-148.69922 148.8008,-148.69922 43.2,0 82.1008,19.400842 109.3008,49.30078 h 83.0996 C 3515.6004,48.80092 3443.0994,0 3359.5996,0 Z"
     style="fill:#e31e26"
     id="path13" /></g>
</svg>
