<?xml version="1.0" encoding="UTF-8" standalone="no"?>
<!-- Generator: Adobe Illustrator 26.0.3, SVG Export Plug-In . SVG Version: 6.00 Build 0)  -->

<svg
   version="1.1"
   id="Layer_1"
   x="0px"
   y="0px"
   viewBox="0 0 3839 682.7"
   style="enable-background:new 0 0 3839 682.7;"
   xml:space="preserve"
   sodipodi:docname="Nintendo Game Boy-13.svg"
   inkscape:version="1.3.2 (091e20e, 2023-11-25)"
   xmlns:inkscape="http://www.inkscape.org/namespaces/inkscape"
   xmlns:sodipodi="http://sodipodi.sourceforge.net/DTD/sodipodi-0.dtd"
   xmlns="http://www.w3.org/2000/svg"
   xmlns:svg="http://www.w3.org/2000/svg"><defs
   id="defs7">
	

		
	
			
		
				
				
				
				
				
				
			</defs><sodipodi:namedview
   id="namedview7"
   pagecolor="#ffffff"
   bordercolor="#000000"
   borderopacity="0.25"
   inkscape:showpageshadow="2"
   inkscape:pageopacity="0.0"
   inkscape:pagecheckerboard="0"
   inkscape:deskcolor="#d1d1d1"
   inkscape:zoom="0.2151602"
   inkscape:cx="1921.8238"
   inkscape:cy="339.28208"
   inkscape:window-width="1800"
   inkscape:window-height="1037"
   inkscape:window-x="0"
   inkscape:window-y="44"
   inkscape:window-maximized="0"
   inkscape:current-layer="Layer_1" />
<style
   type="text/css"
   id="style1">
	.st0{fill:#FFFFFF;}
	.st1{fill:#E31E26;}
	.st2{fill:#30308F;}
	.st3{fill:#C6C6C6;}
</style>
<g
   id="g12"><path
     d="M 749,17.900391 498.91406,585.37891 494.40039,614 c -5.61801,4.95707 -4.55404,6.09149 -13.30273,11.80664 L 461.40039,670.5 h 140 l 87.90039,-195.19922 h 155 L 878.59961,670.5 h 227.70119 l 116.2988,-365 74.5996,365 h 89.4004 L 1561,266.80078 1579,670.5 h 134 L 1684.6992,17.900391 h -161 l -151.7988,357.499999 -65.5,-357.499999 H 1173.8008 L 1002.4004,545.40039 914.40039,17.900391 Z m 50.59961,204.199219 24.59961,126.59961 v 0.10156 H 743 Z"
     style="fill:#30308f"
     id="path12" /><path
     d="M 1827.5996,17.900391 1723.5,670.5 h 374 l 22.3008,-140 h -234.1016 l 18.7012,-116.30078 h 203.5 l 22.4004,-140.09961 H 1924.5996 L 1942.4004,158 h 233.9004 l 22.2988,-140.099609 z"
     style="fill:#30308f"
     id="path11" /><path
     d="M 3313.0996,17.900391 3471,362 3422.4004,670.5 H 3556.5 L 3597.6992,397.80078 3839,17.900391 H 3682.6992 L 3550.0996,231 3466.5,17.900391 Z"
     style="fill:#30308f"
     id="path10" /><path
     d="M 3128.6758,17.746094 C 2999.1078,19.944524 2876.4874,130.25009 2840,288.09961 c -41.6999,180.49946 45.1997,354.50128 193.6992,388.70117 148.4996,34.1999 302.7006,-84.00054 344.4004,-264.5 41.5999,-180.29946 -44.9997,-354.301273 -193.6992,-388.701171 -18.5625,-4.274986 -37.215,-6.167577 -55.7246,-5.853515 z m 4.1035,127.183596 c 13.974,-0.34387 27.8274,2.30704 41.1211,8.26953 70.9997,31.69991 99.1999,145.50033 63,254 -36.1999,108.59967 -123.0003,170.90147 -194,139.10156 -70.8998,-31.69991 -98.9999,-145.50033 -63,-254 29.4936,-88.15598 92.325,-145.88099 152.8789,-147.37109 z"
     style="fill:#30308f"
     id="path9" /><path
     d="M 432.62695,-0.00195313 C 326.24981,-1.0522674 239.85684,36.05637 175.30078,76 47.701165,155.19976 -13.800341,275.6001 2.5996094,439.59961 21.599552,629.79904 267.80063,749.49964 476.5,629 c 18.19994,-10.49997 11.10041,-9.00002 17.90039,-15 l 41.79883,-265.09961 h -249 L 268.09961,471 h 104 l -11.90039,65.59961 c -59.59982,23.79993 -160.90013,14.90055 -204,-62.69922 C 128.8993,424.80054 103.50074,315.19892 218.90039,214.69922 312.80011,132.69946 475.10028,117.89974 569,161.09961 c 0,0 11.90042,-68.599412 20.90039,-132.699219 C 533.46306,8.8379489 480.98021,0.47546244 432.62695,-0.00195313 Z"
     style="fill:#30308f"
     id="path8" /><path
     d="m 2582.6328,21.050781 c -80.9014,-0.182812 -181.5332,0.548828 -181.5332,0.548828 h 1.5996 L 2299.0996,669.19922 h 301.5996 c 124.2998,0 305.7998,-183.09952 140.5,-332.69922 170.0996,-175.99964 1.5006,-313.400393 -88.6992,-314.900391 -18.125,-0.324998 -42.9,-0.48789 -69.8672,-0.548828 z m -64.4336,138.148439 h 87.2012 c 94.5998,0 75.399,121.30078 -14.8008,121.30078 H 2497.5 Z m -41.5,254.20117 H 2589 c 106.3998,0 103.599,130.19922 -14.8008,130.19922 h -118.3984 z"
     style="fill:#30308f"
     id="path7" /></g>
</svg>
