<?xml version="1.0" encoding="UTF-8" standalone="no"?>
<!-- Generator: Adobe Illustrator 25.4.1, SVG Export Plug-In . SVG Version: 6.00 Build 0)  -->

<svg
   version="1.1"
   id="Layer_1"
   x="0px"
   y="0px"
   viewBox="0 0 3839 447.1"
   style="enable-background:new 0 0 3839 447.1;"
   xml:space="preserve"
   sodipodi:docname="Nintendo Game Boy Advance-06.svg"
   inkscape:version="1.3.2 (091e20e, 2023-11-25)"
   xmlns:inkscape="http://www.inkscape.org/namespaces/inkscape"
   xmlns:sodipodi="http://sodipodi.sourceforge.net/DTD/sodipodi-0.dtd"
   xmlns="http://www.w3.org/2000/svg"
   xmlns:svg="http://www.w3.org/2000/svg"><defs
   id="defs70">
	
	<linearGradient
   id="SVGID_1_"
   gradientUnits="userSpaceOnUse"
   x1="2183.947"
   y1="91.1637"
   x2="2183.947"
   y2="546.7573">
		<stop
   offset="0"
   style="stop-color:#272E7F"
   id="stop7" />
		<stop
   offset="1"
   style="stop-color:#0C1D6A"
   id="stop8" />
	</linearGradient>
	
	
		<linearGradient
   id="SVGID_00000011018629097285442200000006352936053539727269_"
   gradientUnits="userSpaceOnUse"
   x1="-7.821654e-11"
   y1="418.2146"
   x2="3839"
   y2="418.2146">
		<stop
   offset="0"
   style="stop-color:#8A7CC3"
   id="stop9" />
		<stop
   offset="1"
   style="stop-color:#A386D0"
   id="stop10" />
	</linearGradient>
	
	
		<linearGradient
   id="SVGID_00000082336328466079352920000014171963835845641136_"
   gradientUnits="userSpaceOnUse"
   x1="937.4777"
   y1="336.4257"
   x2="937.4777"
   y2="611.8974">
		<stop
   offset="0"
   style="stop-color:#0D245E"
   id="stop11" />
		<stop
   offset="1"
   style="stop-color:#1D2476"
   id="stop12" />
	</linearGradient>
	
	
		<linearGradient
   id="SVGID_00000046314049739616535880000016051977666619319453_"
   gradientUnits="userSpaceOnUse"
   x1="194.008"
   y1="-3.637979e-12"
   x2="194.008"
   y2="443.787">
		<stop
   offset="0"
   style="stop-color:#7786DE"
   id="stop13" />
		<stop
   offset="1"
   style="stop-color:#05136D"
   id="stop14" />
	</linearGradient>
	
	
		<linearGradient
   id="SVGID_00000099653750205123251700000005588562158659653784_"
   gradientUnits="userSpaceOnUse"
   x1="772.5724"
   y1="410.8781"
   x2="2988.8633"
   y2="410.8781">
		<stop
   offset="0"
   style="stop-color:#8A7CC3"
   id="stop15" />
		<stop
   offset="1"
   style="stop-color:#A386D0"
   id="stop16" />
	</linearGradient>
	
	
		<linearGradient
   id="SVGID_00000039134983536875081310000003776497083420005763_"
   gradientUnits="userSpaceOnUse"
   x1="1437.3505"
   y1="382.6501"
   x2="2268.9585"
   y2="382.6501">
		<stop
   offset="0"
   style="stop-color:#8A7CC3"
   id="stop17" />
		<stop
   offset="1"
   style="stop-color:#A386D0"
   id="stop18" />
	</linearGradient>
	
	
		<linearGradient
   id="SVGID_00000178903309650686944600000006214077504797311413_"
   gradientUnits="userSpaceOnUse"
   x1="1838.2041"
   y1="377.5801"
   x2="1838.2041"
   y2="440.4857">
		<stop
   offset="0"
   style="stop-color:#272E7F"
   id="stop19" />
		<stop
   offset="1"
   style="stop-color:#0C1D6A"
   id="stop20" />
	</linearGradient>
	
	
		<linearGradient
   id="SVGID_00000021802790995953191370000012513952408997393333_"
   gradientUnits="userSpaceOnUse"
   x1="1660.7089"
   y1="432.4378"
   x2="1841.5996"
   y2="432.4378">
		<stop
   offset="0"
   style="stop-color:#272E7F"
   id="stop21" />
		<stop
   offset="1"
   style="stop-color:#0C1D6A"
   id="stop22" />
	</linearGradient>
	
	
		<linearGradient
   id="SVGID_00000074443929223291059820000007367157450644696488_"
   gradientUnits="userSpaceOnUse"
   x1="1673.5377"
   y1="381.3315"
   x2="1673.5377"
   y2="440.4857">
		<stop
   offset="0"
   style="stop-color:#282E97"
   id="stop23" />
		<stop
   offset="1"
   style="stop-color:#18247D"
   id="stop24" />
	</linearGradient>
	
	
		<linearGradient
   id="SVGID_00000144336916995796264440000016111467027315857846_"
   gradientUnits="userSpaceOnUse"
   x1="2530.741"
   y1="351.1879"
   x2="2575.6172"
   y2="351.1879">
		<stop
   offset="0"
   style="stop-color:#222F91"
   id="stop25" />
		<stop
   offset="1"
   style="stop-color:#2C3491"
   id="stop26" />
	</linearGradient>
	
	
		<linearGradient
   id="SVGID_00000022521844476465025780000012102088880141420199_"
   gradientUnits="userSpaceOnUse"
   x1="2566.6399"
   y1="385.624"
   x2="3093.7012"
   y2="385.624">
		<stop
   offset="0"
   style="stop-color:#272E7F"
   id="stop27" />
		<stop
   offset="1"
   style="stop-color:#0C1D6A"
   id="stop28" />
	</linearGradient>
	
	
		<linearGradient
   id="SVGID_00000176740492002680405900000015392708808112893582_"
   gradientUnits="userSpaceOnUse"
   x1="3085.6536"
   y1="393.6718"
   x2="3085.6536"
   y2="287.0432">
		<stop
   offset="0"
   style="stop-color:#272E7F"
   id="stop29" />
		<stop
   offset="1"
   style="stop-color:#0C1D6A"
   id="stop30" />
	</linearGradient>
	
	
		<linearGradient
   id="SVGID_00000146476116673678867510000005613859344176308658_"
   gradientUnits="userSpaceOnUse"
   x1="3077.6057"
   y1="340.3575"
   x2="3194.0378"
   y2="340.3575">
		<stop
   offset="0"
   style="stop-color:#272E7F"
   id="stop31" />
		<stop
   offset="1"
   style="stop-color:#0C1D6A"
   id="stop32" />
	</linearGradient>
	
	
		<linearGradient
   id="SVGID_00000025444140436879763330000000978891097095516075_"
   gradientUnits="userSpaceOnUse"
   x1="3188.5173"
   y1="385.624"
   x2="3839"
   y2="385.624">
		<stop
   offset="0"
   style="stop-color:#272E7F"
   id="stop33" />
		<stop
   offset="1"
   style="stop-color:#0C1D6A"
   id="stop34" />
	</linearGradient>
	
	
		<linearGradient
   id="SVGID_00000042009400596963523710000018433905161929969286_"
   gradientUnits="userSpaceOnUse"
   x1="3822.9048"
   y1="224.7584"
   x2="3839"
   y2="224.7584">
		<stop
   offset="0"
   style="stop-color:#122570"
   id="stop35" />
		<stop
   offset="1"
   style="stop-color:#26399F"
   id="stop36" />
	</linearGradient>
	
	
		<linearGradient
   id="SVGID_00000097493320614026422680000009271175445148479394_"
   gradientUnits="userSpaceOnUse"
   x1="3133.8804"
   y1="63.8928"
   x2="3839"
   y2="63.8928">
		<stop
   offset="0"
   style="stop-color:#879CEB"
   id="stop37" />
		<stop
   offset="1"
   style="stop-color:#6085DE"
   id="stop38" />
	</linearGradient>
	
	
		<linearGradient
   id="SVGID_00000087382123633189926840000017461784827464637629_"
   gradientUnits="userSpaceOnUse"
   x1="3141.9287"
   y1="162.5016"
   x2="3141.9287"
   y2="55.8449">
		<stop
   offset="0"
   style="stop-color:#3A47B7"
   id="stop39" />
		<stop
   offset="1"
   style="stop-color:#91A1E1"
   id="stop40" />
	</linearGradient>
	
	
		<linearGradient
   id="SVGID_00000122719763170066286280000014249924934929989302_"
   gradientUnits="userSpaceOnUse"
   x1="3034.5615"
   y1="109.1732"
   x2="3149.9773"
   y2="109.1732">
		<stop
   offset="0"
   style="stop-color:#91A1E1"
   id="stop41" />
		<stop
   offset="1"
   style="stop-color:#3A47B7"
   id="stop42" />
	</linearGradient>
	
	
		<linearGradient
   id="SVGID_00000054260904301245950740000004115935046668659356_"
   gradientUnits="userSpaceOnUse"
   x1="2666.5247"
   y1="63.8928"
   x2="3040.1226"
   y2="63.8928">
		<stop
   offset="0"
   style="stop-color:#9AB2E7"
   id="stop43" />
		<stop
   offset="1"
   style="stop-color:#7E86D6"
   id="stop44" />
	</linearGradient>
	
	
		<linearGradient
   id="SVGID_00000134930106036506789290000014158474213435304089_"
   gradientUnits="userSpaceOnUse"
   x1="2619.8618"
   y1="116.5057"
   x2="2676.0933"
   y2="116.5057">
		<stop
   offset="0"
   style="stop-color:#3A47B7"
   id="stop45" />
		<stop
   offset="1"
   style="stop-color:#91A1E1"
   id="stop46" />
	</linearGradient>
	
	
		<linearGradient
   id="SVGID_00000000196952401446087010000012236024263688322703_"
   gradientUnits="userSpaceOnUse"
   x1="2559.5151"
   y1="116.5057"
   x2="2620.3647"
   y2="116.5057">
		<stop
   offset="0"
   style="stop-color:#707FD1"
   id="stop47" />
		<stop
   offset="1"
   style="stop-color:#3649BD"
   id="stop48" />
	</linearGradient>
	
	
		<linearGradient
   id="SVGID_00000049904786749271383160000012648076905040273587_"
   gradientUnits="userSpaceOnUse"
   x1="1974.8103"
   y1="63.8928"
   x2="2567.512"
   y2="63.8928">
		<stop
   offset="0"
   style="stop-color:#9AB2E7"
   id="stop49" />
		<stop
   offset="1"
   style="stop-color:#7E86D6"
   id="stop50" />
	</linearGradient>
	
	
		<linearGradient
   id="SVGID_00000171722248410847098140000009449930076914558378_"
   gradientUnits="userSpaceOnUse"
   x1="1974.8103"
   y1="40.4564"
   x2="2033.7881"
   y2="40.4564">
		<stop
   offset="0"
   style="stop-color:#272E7F"
   id="stop51" />
		<stop
   offset="1"
   style="stop-color:#0C1D6A"
   id="stop52" />
	</linearGradient>
	
	
		<linearGradient
   id="SVGID_00000146466710235471938410000001419872338930773657_"
   gradientUnits="userSpaceOnUse"
   x1="579.4175"
   y1="8.972"
   x2="579.4175"
   y2="151.5751">
		<stop
   offset="0"
   style="stop-color:#91A1E1"
   id="stop53" />
		<stop
   offset="1"
   style="stop-color:#3A47B7"
   id="stop54" />
	</linearGradient>
	
	
		<linearGradient
   id="SVGID_00000101090211870951554050000007096240917418199702_"
   gradientUnits="userSpaceOnUse"
   x1="550.7762"
   y1="8.972"
   x2="550.7762"
   y2="151.5751">
		<stop
   offset="1.491781e-07"
   style="stop-color:#4B51B9"
   id="stop55" />
		<stop
   offset="1"
   style="stop-color:#3649BD"
   id="stop56" />
	</linearGradient>
	
	
		<linearGradient
   id="SVGID_00000052097120712146706500000013856656711450124476_"
   gradientUnits="userSpaceOnUse"
   x1="385.3437"
   y1="17.02"
   x2="550.9681"
   y2="17.02">
		<stop
   offset="0"
   style="stop-color:#9AA3E7"
   id="stop57" />
		<stop
   offset="1"
   style="stop-color:#6E78D0"
   id="stop58" />
	</linearGradient>
	
	
		<linearGradient
   id="SVGID_00000181767625368728786860000007526378277760469905_"
   gradientUnits="userSpaceOnUse"
   x1="387.5605"
   y1="8.972"
   x2="387.5605"
   y2="42.7501">
		<stop
   offset="7.458905e-08"
   style="stop-color:#4954C2"
   id="stop59" />
		<stop
   offset="1"
   style="stop-color:#919DD6"
   id="stop60" />
	</linearGradient>
	
	
		<linearGradient
   id="SVGID_00000142140203645393941720000012171113874168699798_"
   gradientUnits="userSpaceOnUse"
   x1="237.7562"
   y1="432.4378"
   x2="387.1086"
   y2="432.4378">
		<stop
   offset="0"
   style="stop-color:#0D245E"
   id="stop61" />
		<stop
   offset="1"
   style="stop-color:#1D2476"
   id="stop62" />
	</linearGradient>
	
	
		<linearGradient
   id="SVGID_00000111876464053923932180000011958800155719171714_"
   gradientUnits="userSpaceOnUse"
   x1="377.0345"
   y1="373.1514"
   x2="430.4178"
   y2="373.1514">
		<stop
   offset="0"
   style="stop-color:#0D245E"
   id="stop63" />
		<stop
   offset="1"
   style="stop-color:#232F95"
   id="stop64" />
	</linearGradient>
	
	
	
		<linearGradient
   id="SVGID_00000053503475643700607500000009693207495460766887_"
   gradientUnits="userSpaceOnUse"
   x1="1561.4686"
   y1="-55.8269"
   x2="1561.4686"
   y2="1089.0822">
		<stop
   offset="0"
   style="stop-color:#272E7F"
   id="stop65" />
		<stop
   offset="1"
   style="stop-color:#0C1D6A"
   id="stop66" />
	</linearGradient>
	
	
		<linearGradient
   id="SVGID_00000065775958788012224270000016971608808874643126_"
   gradientUnits="userSpaceOnUse"
   x1="1021.9261"
   y1="8.972"
   x2="1021.9261"
   y2="86.8903">
		<stop
   offset="0"
   style="stop-color:#91A1E1"
   id="stop67" />
		<stop
   offset="1"
   style="stop-color:#3A47B7"
   id="stop68" />
	</linearGradient>
	
	
		<linearGradient
   id="SVGID_00000028312824975795777640000011263915760814988175_"
   gradientUnits="userSpaceOnUse"
   x1="1744.0486"
   y1="8.972"
   x2="1744.0486"
   y2="86.8903">
		<stop
   offset="0"
   style="stop-color:#9AB2E7"
   id="stop69" />
		<stop
   offset="1"
   style="stop-color:#7E86D6"
   id="stop70" />
	</linearGradient>
	

		
		
		
	
			
			
			
			
			
		
			
			
			
			
		</defs><sodipodi:namedview
   id="namedview70"
   pagecolor="#ffffff"
   bordercolor="#666666"
   borderopacity="1.0"
   inkscape:showpageshadow="2"
   inkscape:pageopacity="0.0"
   inkscape:pagecheckerboard="0"
   inkscape:deskcolor="#d1d1d1"
   inkscape:zoom="0.16097942"
   inkscape:cx="1916.394"
   inkscape:cy="220.52508"
   inkscape:window-width="2048"
   inkscape:window-height="1154"
   inkscape:window-x="0"
   inkscape:window-y="25"
   inkscape:window-maximized="0"
   inkscape:current-layer="Layer_1" />
<style
   type="text/css"
   id="style1">
	.st0{fill:#232F95;}
	.st1{fill:#FFFFFF;}
	.st2{fill:url(#SVGID_1_);}
	.st3{fill:url(#SVGID_00000017505246055895404520000004881474055022483109_);}
	.st4{fill:url(#SVGID_00000084488038478555941760000004135375623146026124_);}
	.st5{fill:url(#SVGID_00000027579151536789994510000001059102276914572166_);}
	.st6{fill:url(#SVGID_00000158747436078298631080000001642108912828055447_);}
	.st7{fill:url(#SVGID_00000044862180636791508610000008371830304615180709_);}
	.st8{fill:url(#SVGID_00000031196138254039487800000003382391631301111439_);}
	.st9{fill:url(#SVGID_00000111914347771983111590000013338264578811466679_);}
	.st10{fill:url(#SVGID_00000045598550209356563640000010683506462799056567_);}
	.st11{fill:url(#SVGID_00000116214724771403868510000014657564642031039376_);}
	.st12{fill:url(#SVGID_00000141447035556264621790000010825344235966517940_);}
	.st13{fill:url(#SVGID_00000053542135427920019830000013082454580446988475_);}
	.st14{fill:url(#SVGID_00000135676157133912439180000002493330528545907628_);}
	.st15{fill:url(#SVGID_00000104663918668186157120000009632804057296136623_);}
	.st16{fill:url(#SVGID_00000066486670893290211410000003322090961755332518_);}
	.st17{fill:url(#SVGID_00000166674274632132941700000016920085444762608575_);}
	.st18{fill:url(#SVGID_00000049221230189737784390000013146356995613852843_);}
	.st19{fill:url(#SVGID_00000173141168248107848960000011602001121292087472_);}
	.st20{fill:url(#SVGID_00000169542509432808801330000015262805952042063289_);}
	.st21{fill:url(#SVGID_00000038402519428652926020000009705604901053898387_);}
	.st22{fill:url(#SVGID_00000158720274693733456520000003363132817607945912_);}
	.st23{fill:url(#SVGID_00000095302054918785967170000006197739783107848576_);}
	.st24{fill:url(#SVGID_00000093150630522577358160000011311572675637922176_);}
	.st25{fill:url(#SVGID_00000003105782762027924100000009423525449095973009_);}
	.st26{fill:url(#SVGID_00000090256687226633283880000011106743845331239353_);}
	.st27{fill:url(#SVGID_00000070834910031887399530000017899092134280037777_);}
	.st28{fill:url(#SVGID_00000174569085925198329330000010868434464508030611_);}
	.st29{fill:url(#SVGID_00000094602848580668473170000000386648854478252201_);}
	.st30{fill:url(#SVGID_00000150076298893852843860000003990569693245788312_);}
	.st31{fill:url(#SVGID_00000139289449110845620090000008557143618206390435_);}
	.st32{fill:url(#SVGID_00000175286337264255296600000011127481253665576606_);}
	.st33{fill:url(#SVGID_00000177452439100837766290000003474780882315218573_);}
	.st34{fill:url(#SVGID_00000001633634803940223830000007786876506095706555_);}
	.st35{fill:url(#SVGID_00000080171476595278340060000004935470026772978859_);}
	.st36{fill:url(#SVGID_00000028308258530886385180000008700881594441629841_);}
	.st37{fill:url(#SVGID_00000147909895459213508090000009319796410528905868_);}
	.st38{fill:url(#SVGID_00000051364183087566791740000010952873889788032935_);}
	.st39{fill:url(#SVGID_00000003099982494290143240000001693431489762428809_);}
	.st40{fill:url(#SVGID_00000107563596633555612300000016588474034002636695_);}
	.st41{fill:url(#SVGID_00000104685865518739320480000003098488989400914591_);}
	.st42{fill:url(#SVGID_00000099635176359343978560000000222605889625043844_);}
	.st43{fill:url(#SVGID_00000111884385722980967400000018406745413674366116_);}
	.st44{fill:url(#SVGID_00000067228730995236328290000016218467820762128259_);}
	.st45{fill:url(#SVGID_00000137128858185009959550000017974780130412217491_);}
	.st46{fill:url(#SVGID_00000026881914033487555290000001569018800785301668_);}
	.st47{fill:url(#SVGID_00000138565676066040865950000013046597902391292322_);}
	.st48{fill:url(#SVGID_00000159468169003877272220000015348712159678608572_);}
	.st49{fill:url(#SVGID_00000047771483254949817980000017381182495033962368_);}
	.st50{fill:url(#SVGID_00000135679757903505777480000005014072236909954727_);}
	.st51{fill:url(#SVGID_00000144326481643328517680000000969099889308437930_);}
	.st52{fill:url(#SVGID_00000119826509110716426110000015942596135803657629_);}
	.st53{fill:url(#SVGID_00000012444259981587953740000009469317675594394281_);}
	.st54{fill:url(#SVGID_00000113329118710447174870000013959759068891318158_);}
	.st55{fill:url(#SVGID_00000036944919327655527540000003283878369481242792_);}
	.st56{fill:url(#SVGID_00000035527260366799500100000002940134390378447521_);}
	.st57{fill:url(#SVGID_00000059306817929330945310000016980133669139807129_);}
	.st58{fill:url(#SVGID_00000151501536025287951620000005862031114907870080_);}
	.st59{fill:url(#SVGID_00000167379768916118914510000001227785310515186360_);}
	.st60{fill:url(#SVGID_00000062880240583464528080000016042797457932023177_);}
	.st61{fill:url(#SVGID_00000062176956007235610110000000350975285888394934_);}
	.st62{fill:url(#SVGID_00000096029385788275605470000013632320706942174612_);}
	.st63{fill:url(#SVGID_00000003802364852335094980000002266347575073626270_);}
	.st64{fill:url(#SVGID_00000178175139246068299920000002438787371494686862_);}
	.st65{fill:url(#SVGID_00000083781449770488714990000011362678785536454050_);}
	.st66{fill:url(#SVGID_00000146487048370422921390000014889697413931573176_);}
	.st67{fill:url(#SVGID_00000101786036822333898750000012933671659433659045_);}
	.st68{fill:url(#SVGID_00000070088248908282554790000000858309744070467773_);}
	.st69{fill:url(#SVGID_00000039120259285969632920000005234450237498551723_);}
	.st70{fill:url(#SVGID_00000075850484193078053730000011366878309016215194_);}
	.st71{fill:url(#SVGID_00000097497190079622437550000004827611828784054666_);}
	.st72{fill:url(#SVGID_00000025421382110930381660000003907144533653147787_);}
	.st73{fill:url(#SVGID_00000105386461815096001720000016751943806651059125_);}
	.st74{fill:url(#SVGID_00000015314301740286574470000007605774184936187533_);}
	.st75{fill:url(#SVGID_00000057830248028604406860000000107046457684047003_);}
	.st76{fill:url(#SVGID_00000035509084625495246660000000646368485240357002_);}
	.st77{fill:url(#SVGID_00000038388121778172675590000007611852410493498294_);}
	.st78{fill:url(#SVGID_00000060029024438513673180000005473189957169500314_);}
	.st79{fill:url(#SVGID_00000087409666264056621310000004503795965691947904_);}
	.st80{fill:url(#SVGID_00000168094193015559976770000012213480826029646250_);}
	.st81{fill:url(#SVGID_00000096752263526306673910000003200987210945837704_);}
	.st82{fill:url(#SVGID_00000072260268994169207560000012113342023299856262_);}
	.st83{fill:url(#SVGID_00000118368891401379377790000006794246762378861717_);}
	.st84{fill:url(#SVGID_00000096770223184257705270000000276619382905506963_);}
	.st85{fill:url(#SVGID_00000173142390172230361580000005898604713287740566_);}
	.st86{fill:url(#SVGID_00000002372992981827685870000002767748361332832168_);}
	.st87{fill:url(#SVGID_00000088821001054654692170000014190447571832111781_);}
	.st88{fill:url(#SVGID_00000047038632704073713090000013470772206418721152_);}
	.st89{fill:url(#SVGID_00000135652181486647746090000012162289110900069003_);}
	.st90{fill:url(#SVGID_00000054225480619081244600000011666715903237684396_);}
	.st91{fill:url(#SVGID_00000021815138873613896530000016253619726467000989_);}
	.st92{fill:url(#SVGID_00000140729084281683477330000004042436107294442921_);}
	.st93{fill:url(#SVGID_00000131364867718415271810000007323966789769524880_);}
	.st94{fill:url(#SVGID_00000082341569617321976130000001771449181156393628_);}
	.st95{fill:url(#SVGID_00000021101962909879259220000006074170308938413484_);}
	.st96{fill:url(#SVGID_00000093152057506080795580000009797563437193696190_);}
	.st97{fill:url(#SVGID_00000064334201427304663410000003671207086218597250_);}
	.st98{fill:url(#SVGID_00000031898818204163560510000015854997728251011253_);}
	.st99{fill:url(#SVGID_00000020362127364746733310000003394221088438399664_);}
	.st100{fill:url(#SVGID_00000003093725905258050490000007654970691502493619_);}
	.st101{fill:url(#SVGID_00000102520106227664910380000006220500160272413106_);}
	.st102{fill:#502F8E;}
	.st103{fill:url(#SVGID_00000074400128258850113440000004155046221736899770_);}
	.st104{fill:url(#SVGID_00000101074301330167377880000015822650299296031167_);}
	.st105{fill:url(#SVGID_00000152958683961529898330000011429459425404401074_);}
	.st106{fill:url(#SVGID_00000155127719224686278780000008598629933564729997_);}
	.st107{fill:url(#SVGID_00000121237828812116384810000012844591828362524328_);}
	.st108{fill:url(#SVGID_00000158726655325461148130000007242076713183336893_);}
	.st109{fill:url(#SVGID_00000078761260252807973000000007793368817889773955_);}
	.st110{fill:url(#SVGID_00000017485348171510880270000016747160699771994020_);}
	.st111{fill:url(#SVGID_00000143602808617963691810000007973788519866856864_);}
	.st112{fill:url(#SVGID_00000161597768144633686570000007192459126969910148_);}
	.st113{fill:url(#SVGID_00000072248629725863417030000011145930919182116022_);}
	.st114{fill:url(#SVGID_00000132079747513938137020000006590972822847010697_);}
	.st115{fill:url(#SVGID_00000163778009670287384980000009811008514236068774_);}
	.st116{fill:url(#SVGID_00000088095893076377982110000006581272413179234206_);}
	.st117{fill:url(#SVGID_00000159472351322931150410000000505966327886841987_);}
	.st118{fill:url(#SVGID_00000018227339041488424230000014070915960228750499_);}
	.st119{fill:url(#SVGID_00000098198925305551792880000015558601186659175090_);}
	.st120{fill:url(#SVGID_00000075142427329764027810000017866148199563574713_);}
	.st121{fill:url(#SVGID_00000142890430440570103540000012603499332895913628_);}
	.st122{fill:url(#SVGID_00000064340840474174649210000006234703129732118413_);}
	.st123{fill:url(#SVGID_00000051372768785949905430000006364644083348789430_);}
	.st124{fill:url(#SVGID_00000048499272279086830040000015139778955638090127_);}
	.st125{fill:url(#SVGID_00000181088828913136230490000005557927938543569579_);}
	.st126{fill:url(#SVGID_00000106118098828175758590000015042120629448003214_);}
	.st127{fill:url(#SVGID_00000181783729534230616300000016482754265903909280_);}
	.st128{fill:url(#SVGID_00000163046637799285475360000011542569985760517527_);}
	.st129{fill:url(#SVGID_00000051373919617446128670000000436527826291220402_);}
	.st130{fill:url(#SVGID_00000053522879500703694170000009020116876687115423_);}
	.st131{fill:url(#SVGID_00000092420538194846554520000002377420438070690957_);}
	.st132{fill:url(#SVGID_00000147922011154237322480000004123038850187012762_);}
	.st133{fill:url(#SVGID_00000088834529125921260890000010551692039815689350_);}
	.st134{fill:url(#SVGID_00000083789779715938122060000010727664007825034412_);}
	.st135{fill:url(#SVGID_00000177471023798178437760000015967611895750404511_);}
	.st136{fill:url(#SVGID_00000173864738822788893750000009589259027814011311_);}
	.st137{fill:url(#SVGID_00000000198512117641922130000012217843044939939774_);}
	.st138{fill:url(#SVGID_00000003107389182136036300000009293483453736732584_);}
	.st139{fill:url(#SVGID_00000165208427618459815680000009611761328865805706_);}
	.st140{fill:url(#SVGID_00000147209870794039504920000010054653585109565614_);}
	.st141{fill:url(#SVGID_00000049215492021367194080000009719346171644900268_);}
	.st142{fill:url(#SVGID_00000115505000659369775240000006711942160415757497_);}
	.st143{fill:url(#SVGID_00000122702679400865722400000012630265248767324572_);}
	.st144{fill:url(#SVGID_00000183931616955960909000000007013967660115301300_);}
	.st145{fill:url(#SVGID_00000160172738975302252420000011228732986393235598_);}
	.st146{fill:url(#SVGID_00000137843216362975734510000000499304340216896940_);}
	.st147{fill:url(#SVGID_00000149372765142014781590000003897815165743686802_);}
	.st148{fill:url(#SVGID_00000050633589187978260930000000531647524115825795_);}
	.st149{fill:url(#SVGID_00000002385744362138699860000017553996582558083259_);}
	.st150{fill:url(#SVGID_00000023975142529907433140000012187232468346432896_);}
	.st151{fill:url(#SVGID_00000103241021911025407130000016229364425950562688_);}
	.st152{fill:url(#SVGID_00000158001727133916164310000010938094167785418942_);}
	.st153{fill:url(#SVGID_00000163032592314981178650000013015413318122147744_);}
	.st154{fill:url(#SVGID_00000166642599389735973930000017219486359816906150_);}
	.st155{fill:url(#SVGID_00000142139465699571340010000018200103838509369998_);}
	.st156{fill:url(#SVGID_00000129176642372376961060000018402769909314943667_);}
	.st157{fill:url(#SVGID_00000145760034107969187910000002881867314082237342_);}
	.st158{fill:url(#SVGID_00000122688437515434196520000006004218534254001286_);}
	.st159{fill:url(#SVGID_00000139290970454266763890000013485908758292506520_);}
	.st160{fill:url(#SVGID_00000171685276742199441680000010718761895012419485_);}
	.st161{fill:url(#SVGID_00000066487570966689991170000016293046777200209072_);}
	.st162{fill:url(#SVGID_00000047043929852884402460000000270221460337613479_);}
	.st163{fill:url(#SVGID_00000039107333958258551000000006953302273511473832_);}
	.st164{fill:url(#SVGID_00000091695861358750719090000010355732949567636157_);}
	.st165{fill:url(#SVGID_00000108275759965317656450000008486533203787487369_);}
	.st166{fill:url(#SVGID_00000114050502996493913260000005071791624670921125_);}
	.st167{fill:url(#SVGID_00000178907331938915234810000006960189738985179325_);}
	.st168{fill:url(#SVGID_00000103952732327671687760000014555919215982156171_);}
	.st169{fill:url(#SVGID_00000043457158748888277100000011347232646534555527_);}
	.st170{fill:url(#SVGID_00000031899768059804744200000013923796594813920897_);}
</style>
<g
   id="g223"><path
     d="m 385.30078,9 -6.04883,13.681641 0.0488,0.01758 z m -6,13.699219 8.5,20 -30,-10.5 c -31.0995,-10.799827 -62.20087,-16.298828 -92.40039,-16.298828 -49.39921,0 -98.00075,14.600851 -144.5,43.40039 C 82.401007,83.1004 54.09894,113.60098 36.699219,149.90039 19.299497,186.2998 12.800075,228.60075 17.5,275.5 c 5.399914,54.79913 40.40124,103.70122 93.40039,130.80078 27.59956,14.09978 57.6009,21.29883 89.40039,21.29883 11.89981,0 24.0998,-1.09964 36.09961,-3.09961 l 1.29883,-0.19922 1.28906,14.82617 -1.1875,-14.72656 H 377 l 53.5,-118.59961 20.80078,118.59961 h 874.89842 c 33.3996,0 70.5004,-16.80042 99,-45 l 11.8985,-11.69922 0,-0.10156 11.3008,12.30078 c 21.9991,23.89898 49.6001,40.19952 79.7988,47.19922 11.1995,2.59989 22.8009,3.90039 34.4004,3.90039 30.3987,0 60.9023,-9.00035 88.2012,-26.09961 l 0.1992,-0.0996 c 0.8,-0.49998 1.8008,-1.20042 2.8008,-1.90039 0.7,-0.39998 1.3984,-0.90041 1.8984,-1.40039 l 30.5,-20.19922 -21.5996,33.59961 c -1.7999,1.19995 -3.6005,2.49966 -5.4004,3.59961 -31.1833,19.56453 -65.909,29.23339 -100.3828,28.4707 34.5071,0.78394 69.2696,-8.88647 100.4844,-28.4707 1.8,-1.1 3.5984,-2.39961 5.3984,-3.59961 l -4,25.5 h 0.016 L 1664.6992,415 l 21.7012,-33.69922 -6.7852,43 h 148.084 L 1832,395.90039 c 0.01,0.007 0.014,0.0142 0.022,0.0215 l 2.7637,-18.22265 -0.086,-0.0996 h 0.1016 l 530.2988,-0.19922 c 88.2988,0 132.1999,-28.59992 153.5996,-52.59961 l 14.4004,-16.10156 42.5,68.90039 h 502 V 287 L 3194,377.59961 h 628.9004 V 71.900391 H 3150 V 162.5 L 3034.5996,71.900391 H 2676.1992 L 2620.5,177.19922 2559.5,71.900391 h -584.6992 l 29.7988,-46.800782 h -419.4004 c -30.3987,0.1 -60.7007,9.10113 -87.5996,25.900391 -10.7995,6.799701 -21.2004,14.899628 -31,24.199219 l -12.4004,11.701172 -11,-13.09961 C 1418.6003,44.602066 1393.1984,25.099609 1348.9004,25.099609 H 600 L 558.80078,151.90039 537.69922,25.099609 H 395.80078 L 388,42.800781 Z M 588.30078,9 l -24.43359,75.097656 0.0332,0.203125 z m 777.88282,0.9550781 c 10.9907,1.2641349 20.9624,3.7627749 30.1816,7.3769529 -9.2186,-3.613705 -19.1913,-6.112966 -30.1816,-7.3769529 z m 30.1836,7.3769529 c 13.8281,5.421251 25.9601,13.354422 37.2871,23.394531 -11.3276,-10.041034 -23.4581,-17.973273 -37.2871,-23.394531 z M 267.25781,55.525391 c 23.56671,0.229001 49.1428,4.312576 76.64258,13.875 -4.39996,31.199749 -10.20117,64.699219 -10.20117,64.699219 -45.79964,-20.99983 -125.0988,-13.79851 -170.89844,26.20117 -56.19955,49.09961 -43.7999,102.6002 -30.5,126.5 21.09983,37.7997 70.49984,42.19952 99.59961,30.59961 l 5.79883,-32 H 187 l 9.30078,-59.70117 h 121.39844 l -18.19922,116 122.19922,-277.298829 h 80.70117 L 545.30078,321.80078 628.90039,64.400391 h 64.69922 l 32,174.499999 74.20117,-174.499999 h 78.5 l 13.79883,318.400389 h -65.5 l -8.69922,-197 -85.09961,197 H 689.19922 L 652.80078,204.69922 596.09961,382.80078 H 484.80078 L 468.09961,287.59961 H 392.5 l -42.90039,95.20117 h -68.29883 l 9.59961,-21.70117 C 290.2004,361.49961 289.4996,362 288.59961,362.5 186.80042,421.39953 66.600316,362.89887 57.400391,270.09961 49.400455,190.10025 79.401282,131.29891 141.80078,92.699219 173.28803,73.174374 215.41107,55.021586 267.25781,55.525391 Z m 2399.24219,0.27539 -46.6797,88.062499 0.08,0.13672 z m -1083.5059,8.4375 c 9.0371,-0.15156 18.1427,0.773851 27.2051,2.861328 72.4992,16.799816 114.8998,101.802141 94.5,189.701171 -20.2998,88.09903 -95.6004,145.79942 -168.0996,129.09961 -72.4992,-16.69981 -114.8998,-101.70214 -94.5,-189.70117 17.7623,-77.08665 77.6355,-130.900012 140.8945,-131.960939 z m -634.89449,0.16211 h 181.09959 l -10.8984,68.298829 H 1004.0996 L 995.40039,189.5 h 100.29881 l -10.8984,68.30078 H 985.5 L 976.40039,314.5 h 114.29881 l -11,68.40039 H 897.19922 Z m 724.90039,0 h 75 l 40.6992,103.999999 64.7012,-103.999999 h 76.2988 l -117.7988,185.400389 -20.0996,133.09961 h -65.4004 l 23.6992,-150.59961 z m -356.4062,1.546875 c 13.1622,0.02812 25.2555,0.101954 34.1054,0.251953 44.0995,0.699991 126.2998,67.802211 43.3008,153.701171 80.699,72.99913 -8.0004,162.29883 -68.5996,162.29883 h -147.2012 l 50.5,-316.000001 H 1228 c 0,0 49.1067,-0.336327 88.5938,-0.251953 z m 914.6054,45.953124 h 148 c 45.2999,0 80.0013,11.69891 102.7012,33.29883 l -14.0996,-23.29883 -6,-9.90039 h 73.5996 l 1.9004,3.30078 83.1992,142.59961 78.4004,-142.5 1.9004,-3.40039 h 68.5 l -5.8008,9.69922 -121.9004,210.10156 -1.9004,3.29883 h -42.7988 L 2595,332 2507.1992,187.09961 c 3.2,10.79996 4.9004,22.80122 4.9004,35.70117 0,74.49971 -49.0992,112.29883 -145.7988,112.29883 h -112.2012 l 0.1,0.20117 h -73 L 2179.3008,332 2088.6992,170.30078 2024.5,286 h 64.0996 v 49.40039 h -109 v -0.0996 h -49 l 5.9004,-9.90039 124.6992,-210.09961 1.9004,-3.20117 h 56.5996 l 1.9004,3.20117 109.5996,181.79883 z M 2976.4004,112 h 44 l 1.7988,1.40039 L 3190,244.69922 V 112 h 6.5996 52.5 v 223.19922 h -44 l -1.7988,-1.39844 -167.2012,-133.20117 v 134.59961 h -36.9004 l 0.1016,0.10156 h -73.1016 l -1.8984,-3.40039 -90.6016,-161.59961 -64.0996,115.39844 h 64.2012 v 49.40039 h -91.5 l -0.2012,0.20117 h -66.5 l 5.9004,-9.90039 124.6992,-210.09961 1.9004,-3.20117 h 56.5996 l 1.9004,3.20117 109.8008,182.09961 z m 353.2988,0 h 130.9004 c 46.5998,0 61.4996,13.70103 61.5996,56.30078 v 26.89844 h -6.5996 L 3464.0996,195 H 3457.5 V 164 H 3332.8008 V 281.90039 H 3457.5 V 247.5 h 6.5996 l 51.5,0.0996 h 6.5 v 31.30078 c 0,41.99975 -15.5002,56.19922 -61.5,56.19922 h -130.9004 c -45.8997,0 -61.3984,-14.19947 -61.3984,-56.19922 V 168.30078 c 0,-42.09975 15.4987,-56.30078 61.3984,-56.30078 z m 213.4004,0 h 238.5 v 50.5 h -173.9004 v 32.30078 h 101.4004 V 244 h -101.4004 v 39.09961 h 169.9004 6.5 v 52.09961 h -241 z M 38.472656,115.05273 c -12.221083,17.89943 -21.574993,37.40293 -27.996093,58.3711 6.421186,-20.96825 15.775,-40.47155 27.996093,-58.3711 z m 1546.457044,11.2168 c -29.5575,0.72585 -60.2295,28.86766 -74.5293,71.92969 -17.6998,52.99942 -3.9004,108.50016 30.6992,124 34.6997,15.49982 77.0014,-14.89902 94.7012,-67.89844 17.6998,-52.89942 3.8989,-108.40016 -30.8008,-124 -6.4874,-2.90622 -13.2494,-4.19875 -20.0703,-4.03125 z M 1285,133.30078 1274.9004,192.5 h 45.5 c 43.9994,0 53.3987,-59.19922 7.1992,-59.19922 z m 1011,29.29883 v 120.5 h 59.5 c 67.9997,0 90.9004,-15.79902 90.9004,-62.79883 0,-39.29984 -21.1002,-57.70117 -66.5,-57.70117 z M 446.40039,164 418.80078,225.80078 h 39.59961 z m 818.50001,93.40039 -10.0996,63.5 H 1312.5 c 57.6993,0 59.0986,-63.5 7.1992,-63.5 z m 1828.7988,62.5 V 393.5 h 0.1016 V 319.97852 Z M 33.1875,360.42383 c 4.384616,6.16287 9.174471,12.08602 14.345703,17.73633 -5.170882,-5.65004 -9.961327,-11.5738 -14.345703,-17.73633 z"
     style="fill:#232f95"
     id="path223" /><path
     d="m 2231.1992,111.90039 v 185.19922 l -109.5996,-181.79883 -1.9004,-3.20117 h -56.5996 l -1.9004,3.20117 -124.6992,210.09961 -5.9004,9.90039 h 49 v 0.0996 h 109 V 286 H 2024.5 L 2088.6992,170.30078 2179.3008,332 l 1.8984,3.30078 h 73 l -0.1,-0.20117 h 112.2012 c 96.6997,0 145.7988,-37.79905 145.7988,-112.29883 0,-12.89996 -1.7004,-24.9012 -4.9004,-35.70117 L 2595,332 l 1.9004,3.09961 h 42.7988 l 1.9004,-3.29883 L 2763.5,121.69922 2769.3008,112 h -68.5 l -1.9004,3.40039 -78.4004,142.5 L 2537.3008,115.30078 2535.4004,112 h -73.5996 l 6,9.90039 14.0996,23.29883 c -22.7,-21.59994 -57.4013,-33.29883 -102.7012,-33.29883 z M 2296,162.59961 h 83.9004 c 45.3998,0 66.5,18.40129 66.5,57.70117 0,46.99986 -22.9006,62.79883 -90.9004,62.79883 H 2296 Z"
     style="fill:#ffffff"
     id="path222" /><path
     d="m 2976.4004,112 v 185.40039 l -109.8008,-182.09961 -1.9004,-3.20117 h -56.5996 l -1.9004,3.20117 -124.6992,210.09961 -5.9004,9.90039 h 66.5 l 0.2012,-0.20117 h 91.5 v -49.40039 h -64.2012 l 64.0996,-115.39844 90.6016,161.59961 1.8984,3.40039 h 73.1016 l -0.1016,-0.10156 h 36.9004 V 200.59961 l 167.2012,133.20117 1.7988,1.39844 h 44 V 112 h -52.5 H 3190 V 244.69922 L 3022.1992,113.40039 3020.4004,112 Z"
     style="fill:#ffffff"
     id="path221" /><path
     d="m 3329.6992,112 c -45.8998,0 -61.3984,14.20091 -61.3984,56.30078 v 110.59961 c 0,41.99988 15.4986,56.19922 61.3984,56.19922 h 130.9004 c 45.9999,0 61.5,-14.19934 61.5,-56.19922 v -31.30078 h -6.5 l -51.5,-0.0996 H 3457.5 v 34.40039 H 3332.8008 V 164 H 3457.5 v 31 h 6.5996 l 51.5,0.19922 h 6.5996 V 168.30078 C 3522.0992,125.70091 3507.1995,112 3460.5996,112 Z"
     style="fill:#ffffff"
     id="path220" /><path
     d="m 3543.0996,112 v 223.19922 h 241 v -52.09961 h -6.5 -169.9004 V 244 h 101.4004 V 194.80078 H 3607.6992 V 162.5 h 173.9004 V 112 Z"
     style="fill:#ffffff"
     id="path219" /><path
     d="M 267.25781,55.525391 C 215.41081,55.021584 173.28819,73.174277 141.80078,92.699219 79.40097,131.2991 49.400415,190.09985 57.400391,270.09961 66.600362,362.89933 186.79991,421.39982 288.59961,362.5 c 0.9,-0.5 1.60078,-1.00039 2.30078,-1.40039 l -9.59961,21.70117 h 68.29883 L 392.5,287.59961 h 75.59961 l 16.70117,95.20117 h 111.29883 l 56.70117,-178.10156 36.39844,178.10156 h 43.60156 l 85.09961,-197 8.69922,197 h 65.5 L 878.30078,64.400391 h -78.5 l -74.20117,174.499999 -32,-174.499999 H 628.90039 L 545.30078,321.80078 502.40039,64.400391 H 421.69922 L 299.5,341.69922 l 18.19922,-116 H 196.30078 L 187,285.40039 h 50.69922 l -5.79883,32 c -29.09991,11.59997 -78.49967,7.20028 -99.59961,-30.59961 -13.29996,-23.89992 -25.69983,-77.40015 30.5,-126.5 45.79987,-39.99988 125.09857,-47.20111 170.89844,-26.20117 0,0 5.80119,-33.49931 10.20117,-64.699219 -27.49991,-9.562472 -53.07575,-13.645998 -76.64258,-13.875 z M 446.40039,164 l 12,61.80078 h -39.59961 z"
     style="fill:#ffffff"
     id="path218" /><path
     d="M 948.09961,64.400391 897.19922,382.90039 h 182.49998 l 11,-68.40039 H 976.40039 L 985.5,257.80078 h 99.3008 L 1095.6992,189.5 H 995.40039 l 8.69921,-56.80078 h 114.2012 l 10.8984,-68.298829 z"
     style="fill:#ffffff"
     id="path217" /><path
     d="m 1673,64.400391 77.0996,167.900389 -23.6992,150.59961 h 65.4004 l 20.0996,-133.09961 117.7988,-185.400389 h -76.2988 L 1788.6992,168.40039 1748,64.400391 Z"
     style="fill:#ffffff"
     id="path216" /><path
     d="m 1582.9941,64.238281 c -63.2595,1.060935 -123.132,54.873669 -140.8945,131.960939 -20.3999,87.99973 22.0003,173.00122 94.5,189.70117 72.4998,16.69995 147.7997,-40.99987 168.0996,-129.09961 20.4,-87.89973 -22.0002,-172.90122 -94.5,-189.701171 -9.0625,-2.087493 -18.168,-3.012889 -27.2051,-2.861328 z m 1.9356,62.031249 c 6.821,-0.1675 13.5828,1.12501 20.0703,4.03125 34.6999,15.59996 48.5007,71.10016 30.8008,124 -17.7,52.99985 -60.0013,83.39839 -94.7012,67.89844 -34.5999,-15.49996 -48.3992,-71.00016 -30.6992,-124 14.3,-43.06238 44.9715,-71.20383 74.5293,-71.92969 z"
     style="fill:#ffffff"
     id="path215" /><path
     d="M 1316.5938,65.947266 C 1277.1063,65.862891 1228,66.199219 1228,66.199219 h 0.6992 l -50.5,316.000001 h 147.2012 c 60.5998,0 149.2993,-89.29905 68.5996,-162.29883 82.9997,-85.89974 0.7991,-153.001174 -43.3008,-153.701171 -8.85,-0.15 -20.9431,-0.223828 -34.1054,-0.251953 z M 1285,133.30078 h 42.5996 c 46.1999,0 36.8006,59.19922 -7.1992,59.19922 h -45.5 z m -20.0996,124.09961 h 54.7988 c 51.8999,0 50.5006,63.5 -7.1992,63.5 h -57.6992 z"
     style="fill:#ffffff"
     id="path214" /><path
     d="m 2533.0996,308.69922 -14.4004,16.10156 c -21.3999,23.99993 -65.2999,52.59961 -153.5996,52.59961 l -530.2988,0.19922 13.8984,16.09961 516.4004,-0.19922 c 84.8997,0 136.6997,-25.50009 165.5996,-58 z m -698.2988,68.90039 h -0.1016 l 0.086,0.0996 z"
     style="fill:url(#SVGID_1_)"
     id="path213" /><path
     d="m 1832,395.90039 -4.3008,28.40039 h -148.084 l -0.016,0.0996 h 148.0996 l 2.3203,-15.29102 c 0.4444,-2.95963 0.8933,-5.91926 1.3477,-8.8789 l 0.6543,-4.3086 c -0.01,-0.007 -0.014,-0.0142 -0.022,-0.0215 z m 14.3945,12.99609 -4.7949,31.60352 4.8008,-31.59961 c -0,-0.001 -0,-0.003 -0.01,-0.004 z"
     style="fill:url(#SVGID_00000011018629097285442200000006352936053539727269_)"
     id="path212" /><path
     d="m 1437.0977,367.70117 -11.8985,11.69922 c -28.4999,28.19991 -65.6,45 -99,45 H 451.30078 l -13.5,16.09961 h 888.39842 c 38.9999,0 80.0005,-19.6997 110.4004,-49.59961 v -0.006 c -0.031,-0.0337 -0.069,-0.06 -0.1,-0.0937 z"
     style="fill:url(#SVGID_00000082336328466079352920000014171963835845641136_)"
     id="path211" /><path
     d="M 266.67969,-0.01953125 C 213.76382,-0.23144468 162.22446,15.050874 112.59961,45.800781 29.899857,96.900628 -8.5003603,176.99952 1.5996094,277.19922 c 5.999982,60.19982 44.1997826,113.90009 102.0996106,143.5 41.79751,21.39873 88.69534,27.70103 135.39258,19.70312 l -0.10352,-1.27539 -1.28906,-14.82617 -1.29883,0.19922 c -11.99997,2 -24.19964,3.09961 -36.09961,3.09961 -31.79991,0 -61.80047,-7.19887 -89.40039,-21.29883 C 57.900551,379.20087 22.899984,330.29984 17.5,275.5 12.800014,228.60014 19.299271,186.30028 36.699219,149.90039 54.099166,113.6005 82.400507,83.10071 120.90039,59.300781 c 46.49986,-28.799913 95.10015,-43.40039 144.5,-43.40039 30.19991,0 61.30048,5.49886 92.40039,16.298828 l 30,10.5 -8.5,-20 -16,-5.59961 C 330.67588,5.8121436 298.4292,0.10761681 266.67969,-0.01953125 Z"
     style="fill:url(#SVGID_00000046314049739616535880000016051977666619319453_)"
     id="path210" /><path
     d="m 1831.3672,400.23047 c -0.4544,2.95965 -0.9033,5.91926 -1.3477,8.8789 z"
     style="fill:url(#SVGID_00000099653750205123251700000005588562158659653784_)"
     id="path209" /><path
     d=""
     style="fill:url(#SVGID_00000039134983536875081310000003776497083420005763_)"
     id="path208" /><path
     d="m 1834.8008,377.59961 -7.1016,46.80078 13.9004,16.09961 7.0996,-46.80078 z"
     style="fill:url(#SVGID_00000178903309650686944600000006214077504797311413_)"
     id="path207" /><path
     d="M 1679.5996,424.40039 1660.6992,440.5 h 180.9004 l -13.9004,-16.09961 z"
     style="fill:url(#SVGID_00000021802790995953191370000012513952408997393333_)"
     id="path206" /><path
     d="M 1686.4004,381.30078 1664.6992,415 l -4,25.5 18.9004,-16.09961 z"
     style="fill:url(#SVGID_00000074443929223291059820000007367157450644696488_)"
     id="path205" /><path
     d="m 2533.0996,308.69922 -2.4004,26.80078 35.9004,58.19922 9,-16.09961 z"
     style="fill:url(#SVGID_00000144336916995796264440000016111467027315857846_)"
     id="path204" /><path
     d="m 2575.5996,377.59961 -9,16.09961 h 527.0996 l -16.0996,-16.09961 z"
     style="fill:url(#SVGID_00000022521844476465025780000012102088880141420199_)"
     id="path203" /><path
     d="m 3077.5996,287 v 90.59961 l 16.0996,16.09961 v -73.79883 z"
     style="fill:url(#SVGID_00000176740492002680405900000015392708808112893582_)"
     id="path202" /><path
     d="m 3077.5996,287 16.0996,32.90039 94.8008,73.79883 5.5,-16.09961 z"
     style="fill:url(#SVGID_00000146476116673678867510000005613859344176308658_)"
     id="path201" /><path
     d="m 3194,377.59961 -5.5,16.09961 H 3839 l -16.0996,-16.09961 z"
     style="fill:url(#SVGID_00000025444140436879763330000000978891097095516075_)"
     id="path200" /><path
     d="m 3839,55.800781 -16.0996,16.09961 V 377.59961 L 3839,393.69922 Z"
     style="fill:url(#SVGID_00000042009400596963523710000018433905161929969286_)"
     id="path199" /><path
     d="M 3133.9004,55.800781 3150,71.900391 h 672.9004 L 3839,55.800781 Z"
     style="fill:url(#SVGID_00000097493320614026422680000009271175445148479394_)"
     id="path198" /><path
     d="M 3133.9004,55.800781 V 129.40039 L 3150,162.5 V 71.900391 Z"
     style="fill:url(#SVGID_00000087382123633189926840000017461784827464637629_)"
     id="path197" /><path
     d="m 3040.0996,55.800781 -5.5,16.09961 L 3150,162.5 3133.9004,129.40039 Z"
     style="fill:url(#SVGID_00000122719763170066286280000014249924934929989302_)"
     id="path196" /><path
     d="m 2666.5,55.800781 9.6992,16.09961 h 358.4004 l 5.5,-16.09961 z"
     style="fill:url(#SVGID_00000054260904301245950740000004115935046668659356_)"
     id="path195" /><path
     d="M 2666.5,55.800781 2619.9004,144 2620.5,177.19922 2676.1992,71.900391 Z"
     style="fill:url(#SVGID_00000134930106036506789290000014158474213435304089_)"
     id="path194" /><path
     d="m 2568.8008,55.800781 -9.3008,16.09961 61,105.298829 L 2619.9004,144 Z"
     style="fill:url(#SVGID_00000000196952401446087010000012236024263688322703_)"
     id="path193" /><path
     d="m 2004.0996,55.800781 -29.2988,16.09961 H 2559.5 l 9.3008,-16.09961 z"
     style="fill:url(#SVGID_00000049904786749271383160000012648076905040273587_)"
     id="path192" /><path
     d="m 2033.9004,9 -29.3008,16.099609 -29.7988,46.800782 29.2988,-16.09961 z"
     style="fill:url(#SVGID_00000171722248410847098140000009449930076914558378_)"
     id="path191" /><path
     d="M 588.30078,9 563.90039,84.300781 558.80078,151.90039 600,25.099609 Z"
     style="fill:url(#SVGID_00000146466710235471938410000001419872338930773657_)"
     id="path190" /><path
     d="m 551.30078,9 -13.60156,16.099609 21.10156,126.800781 5.09961,-67.599609 z"
     style="fill:url(#SVGID_00000101090211870951554050000007096240917418199702_)"
     id="path189" /><path
     d="m 385.30078,9 10.5,16.099609 H 537.69922 L 551.30078,9 Z"
     style="fill:url(#SVGID_00000052097120712146706500000013856656711450124476_)"
     id="path188" /><path
     d="m 385.30078,9 -6,13.699219 L 388,42.800781 395.80078,25.099609 Z"
     style="fill:url(#SVGID_00000181767625368728786860000007526378277760469905_)"
     id="path187" /><path
     d="M 237.80078,424.40039 239.09961,440.5 H 387.40039 L 377,424.40039 Z"
     style="fill:url(#SVGID_00000142140203645393941720000012171113874168699798_)"
     id="path186" /><path
     d="M 430.5,305.80078 377,424.40039 387.40039,440.5 423.69922,360.09961 Z"
     style="fill:url(#SVGID_00000111876464053923932180000011958800155719171714_)"
     id="path185" /><path
     d="m 430.5,305.80078 -6.80078,54.29883 14.10156,80.40039 13.5,-16.09961 z"
     style="fill:#232f95"
     id="path184" /><path
     d="m 1437.0996,367.59961 -0.5996,23.20117 c 23.4,25.49993 53.4001,43.89846 88,51.89844 45.1999,10.39997 93.0994,1.9007 134.6992,-24.19922 1.8,-1.1 3.6004,-2.39961 5.4004,-3.59961 l 21.5996,-33.59961 -30.5,20.19922 c -0.5,0.5 -1.1984,1.00039 -1.8984,1.40039 -1,0.7 -2.0008,1.40039 -2.8008,1.90039 l -0.1992,0.0996 C 1623.5008,422.00034 1592.9995,431 1562.5996,431 c -11.6,0 -23.2004,-1.3004 -34.4004,-3.90039 -30.1999,-6.99998 -57.7989,-23.29929 -79.7988,-47.19922 z"
     style="fill:url(#SVGID_00000053503475643700607500000009693207495460766887_)"
     id="path183" /><path
     d="M 588.30078,9 600,25.099609 h 748.9004 c 44.2998,0 69.6989,19.50126 94.2988,48.701172 l 11,13.09961 L 1455.5,63.5 C 1427.1001,29.700102 1397.2002,9 1348.9004,9 Z"
     style="fill:url(#SVGID_00000065775958788012224270000016971608808874643126_)"
     id="path182" /><path
     d="m 1585.0996,9 c -33,0.1 -66.1996,9.700427 -96.0996,28.400391 -12,7.499984 -23.1,16.299629 -33.5,26.099609 l -1.3008,23.400391 12.4004,-11.701172 c 9.8,-9.299982 20.2,-17.399233 31,-24.199219 26.9,-16.799966 57.1996,-25.800391 87.5996,-25.900391 h 419.4004 L 2033.9004,9 Z"
     style="fill:url(#SVGID_00000028312824975795777640000011263915760814988175_)"
     id="path181" /></g>
</svg>
