<?xml version="1.0" encoding="UTF-8" standalone="no"?>
<!-- Generator: Adobe Illustrator 25.0.0, SVG Export Plug-In . SVG Version: 6.00 Build 0)  -->

<svg
   version="1.1"
   id="Layer_1"
   x="0px"
   y="0px"
   viewBox="0 0 3840 462.2"
   style="enable-background:new 0 0 3840 462.2;"
   xml:space="preserve"
   sodipodi:docname="Nintendo Game Boy Color-07.svg"
   inkscape:version="1.3.2 (091e20e, 2023-11-25)"
   xmlns:inkscape="http://www.inkscape.org/namespaces/inkscape"
   xmlns:sodipodi="http://sodipodi.sourceforge.net/DTD/sodipodi-0.dtd"
   xmlns="http://www.w3.org/2000/svg"
   xmlns:svg="http://www.w3.org/2000/svg"><defs
   id="defs10">
	

		
		
		
		
		
		
		
		
		
		
		
	</defs><sodipodi:namedview
   id="namedview10"
   pagecolor="#ffffff"
   bordercolor="#666666"
   borderopacity="1.0"
   inkscape:showpageshadow="2"
   inkscape:pageopacity="0.0"
   inkscape:pagecheckerboard="0"
   inkscape:deskcolor="#d1d1d1"
   inkscape:zoom="0.14166667"
   inkscape:cx="1923.5294"
   inkscape:cy="229.41176"
   inkscape:window-width="2048"
   inkscape:window-height="1154"
   inkscape:window-x="0"
   inkscape:window-y="25"
   inkscape:window-maximized="0"
   inkscape:current-layer="Layer_1" />
<style
   type="text/css"
   id="style1">
	.st0{fill:#30308F;}
	.st1{fill:#00968C;}
	.st2{fill:#DFB10A;}
	.st3{fill:#4F549D;}
	.st4{fill:#BD0547;}
	.st5{fill:#7AAC3B;}
	.st6{fill:#C6C6C6;}
	.st7{fill:#FFFFFF;}
	.st8{fill:#383C70;}
	.st9{fill:#696FD0;}
	.st10{fill:#B28D08;}
	.st11{fill:#FFCA0B;}
	.st12{fill:#5A7F2B;}
	.st13{fill:#9EDF4D;}
	.st14{fill:none;stroke:#231F20;stroke-width:1.6419;stroke-miterlimit:10;}
	.st15{fill:#006962;}
	.st16{fill:#00C9BC;}
	.st17{fill:#900436;}
	.st18{fill:#F0065A;}
	.st19{fill:none;stroke:#231F20;stroke-width:1.6588;stroke-miterlimit:10;}
</style>
<g
   id="g20"><path
     d="m 3632.5254,17.212891 c -45.9536,-0.474129 -93.7606,14.011464 -126.3262,59.486328 -14.2,19.79994 -14.1988,50.300431 -8.2988,65.900391 7.1461,18.84908 13.7631,35.79054 18.1543,66.96289 4.4846,16.62538 7.4453,33.95759 7.4453,52.13672 0,8.36814 -0.9454,16.42147 -2.3301,24.31445 0.3318,17.70282 0.349,37.72449 -0.07,61.08594 -0.3,16.89995 -12.0004,24.10122 -13.4004,40.70117 -1.5,17.89995 4.9013,65.39844 55.2012,67.39844 43.2998,1.8 50.9004,-35.49848 50.9004,-50.89844 v -71.5 c 0,0 117.3996,98.59888 137.5996,115.79883 10.9,9.29997 24.9988,14.60078 39.2988,13.30078 10.9,-1 23.3016,-5.50003 35.6016,-17.5 24.8999,-24.49992 9.9992,-53.10121 1.1992,-65.70117 -2.6,-3.69999 -5.6996,-6.99844 -9.0996,-9.89844 -16,-13.69996 -76.9002,-65.70168 -122.5,-103.10156 35.5999,-19.39994 52.6992,-32.79883 52.6992,-32.79883 0,0 49.4996,-32.80015 60.0996,-83 8.1,-48.19985 -0.9998,-73.400102 -70.5996,-107.499999 -25.9217,-12.703088 -65.0269,-24.769152 -105.5742,-25.1875 z m -18.7246,95.087889 h 61.0996 c 28.0999,0 43.3992,33.19928 24.6992,54.19922 -13,14.69996 -38.3001,26.59961 -86,26.59961 z"
     style="fill:#00968c"
     id="path20" /><path
     d="m 445.19922,31.900391 -148.99805,338.300779 -2.50195,15.89844 c -3.19923,2.87931 -2.87893,3.6302 -7.45703,6.71289 l -11.8418,26.88672 h 83.19922 l 52.20117,-116 h 92.09961 l 20.40039,116 h 135.5 l 69.09961,-217 44.29883,217 h 53.10156 l 103.59961,-240 10.59961,240 h 79.6992 L 1001.3008,31.900391 h -95.60158 l -90.29883,212.499999 -39,-212.499999 H 697.59961 L 595.80078,345.40039 543.5,31.900391 Z M 475.30078,153.19922 489.90039,228.5 h -48.20117 z"
     style="fill:#30308f"
     id="path19" /><path
     d="m 1086.4004,31.900391 -62,387.798829 h 222.2988 L 1260,336.5 H 1120.9004 L 1132,267.40039 h 120.9004 l 13.2988,-83.20117 h -122.2988 l 10.6992,-69.09961 h 139 l 13.3008,-83.199219 z"
     style="fill:#30308f"
     id="path18" /><path
     d="m 1969.3008,31.900391 93.8984,204.499999 -28.8984,183.29883 H 2114 l 24.4004,-162 143.5,-225.798829 h -93 L 2110.0996,158.5 2060.5,31.900391 Z"
     style="fill:#30308f"
     id="path17" /><path
     d="m 1859.666,31.701172 c -77.0435,1.274214 -149.9539,66.8995 -171.5664,160.699218 -24.7999,107.29968 26.6999,210.69967 115.0996,231.09961 88.2997,20.39994 180.0012,-49.99954 204.7012,-157.19922 24.7999,-107.19967 -26.7999,-210.701623 -115.0996,-231.101561 -11.0375,-2.549993 -22.1285,-3.680078 -33.1348,-3.498047 z m 2.5117,75.585938 c 8.3014,-0.20523 16.5282,1.36837 24.4219,4.91211 42.1999,18.89994 58.9004,86.50019 37.4004,151 -21.5,64.5998 -73.1009,101.60111 -115.3008,82.70117 -42.1998,-18.89994 -58.8984,-86.50019 -37.3984,-151 17.5499,-52.40609 54.9046,-86.72397 90.8769,-87.61328 z"
     style="fill:#30308f"
     id="path16" /><path
     d="M 257.13477,21.230469 C 193.97572,20.616286 142.66316,42.681711 104.30078,66.400391 28.30101,113.40025 -8.1999709,185.10029 1.5,282.5 12.799966,395.49966 159.09998,466.69979 283.09961,395 c 10.79997,-6.29998 6.59962,-5.3004 10.59961,-8.90039 L 318.5,228.5 H 170.69922 l -11.29883,72.59961 h 61.79883 l -7.09961,39 c -35.3999,14.19996 -95.5989,8.90064 -121.298829,-37.19922 C 76.60083,273.80048 61.500205,208.7006 130,148.80078 185.79983,100.10093 282.29978,91.300077 338.09961,117 c 0,0 7.10041,-40.800505 12.40039,-78.900391 -33.4999,-11.624964 -64.65658,-16.589967 -93.36523,-16.86914 z"
     style="fill:#30308f"
     id="path15" /><path
     d="M 1535.2734,33.705078 C 1487.1939,33.606641 1427.4004,34 1427.4004,34 h 0.7988 v 0.09961 L 1366.6992,419 H 1546 c 73.7998,0 181.7997,-108.80105 83.5,-197.80078 C 1730.5997,116.59953 1630.4006,34.899997 1576.8008,34 1566.0258,33.825 1551.3,33.737891 1535.2734,33.705078 Z m -38.5742,82.095702 h 51.9004 c 56.1999,0 44.801,72.09961 -8.7988,72.09961 h -55.4004 z m -24.5996,151.09961 h 66.8008 c 63.2998,0 61.499,77.29883 -8.8008,77.29883 h -70.2988 z"
     style="fill:#30308f"
     id="path14" /><path
     d="M 3354.1992,88.400391 C 3240.7995,87.800392 3149.5,152.69958 3150,273.19922 c 0.054,13.61881 1.1437,26.72976 3.1934,39.25195 63.0345,5.3986 61.8526,61.33889 39.8984,87.6582 27.4702,30.00433 67.8842,47.26684 120.8086,45.69141 80.1997,-2.39999 209.5996,-72.70189 209.5996,-184.10156 0,-93.49972 -60.5011,-172.698832 -169.3008,-173.298829 z m -10,92.499999 c 51.2999,0 89.0008,36.09935 84.3008,80.69922 -4.7,44.59986 -50.1005,80.80039 -101.4004,80.90039 -51.2998,0 -88.9988,-36.09935 -84.2988,-80.69922 4.7,-44.59986 50.0986,-80.80039 101.3984,-80.90039 z"
     style="fill:#dfb10a"
     id="path13" /><path
     d="m 2782.9141,77.359375 c -97.8734,2.327736 -190.4801,89.108895 -201.8145,187.339845 -4.7166,40.85428 1.3736,74.94675 15.582,102.16015 16.003,6.97507 22.9901,19.35645 24.1289,32.77344 30.088,29.9143 74.3216,45.62683 124.9903,46.66797 114.8721,2.37667 195.1824,-70.67793 205.668,-170.76367 -1.737,-27.8893 -3.5997,-57.57422 -4.1426,-66.3125 -17.2707,-72.70424 -75.6105,-129.240406 -154.9258,-131.824219 -3.1656,-0.103125 -6.3291,-0.116104 -9.4863,-0.04102 z m 1.9863,94.740235 c 45.4998,0 66.2996,44.69976 65.0996,95.09961 -1.6,69.99979 -48.1994,85.30078 -93.6992,85.30078 -45.4999,0 -76.0016,-40.39937 -68.1016,-90.19922 7.9,-49.79985 51.2013,-90.20117 96.7012,-90.20117 z"
     style="fill:#4f549d"
     id="path12" /><path
     d="M 2514.6094,-0.06054687 C 2483.8413,-0.53867349 2452.2344,7.2813046 2428,25.5 c -48.6999,36.59989 -148.4,143.7996 -146,271.19922 -1,35.09989 9.3008,60.60156 9.3008,60.60156 0,0 18.1994,62.99929 81.1992,87.69922 38.3999,15.89995 96.1992,13 96.1992,13 h 109 c 42.9999,0 81.8009,-105.59997 -27.2988,-96.5 -45.8999,3.79999 -180.0008,38.59926 -177.3008,-77.40039 2.1,-93.19972 91.3005,-176.50042 131.9004,-186.400391 7.5,-1.799995 14.9004,2.700021 17.4004,10.000001 11.1,32.5999 55.8004,49.30109 85.4004,21.70117 10.7,-9.99997 13.9992,-22.99969 16.6992,-50.599609 4.5281,-46.790484 -51.1517,-77.9485407 -109.8906,-78.86132787 z"
     style="fill:#bd0547"
     id="path11" /><path
     d="m 2964.5508,11.9375 c -16.05,-0.4625 -31.2008,6.512139 -38.5508,21.162109 -10,19.89996 -8.7,53.899689 7,94.099611 8,20.39996 12.0992,42.10004 13.1992,64 0,0 8.8008,141.70049 11.8008,188.90039 1.3,20.59996 -6.5,68.00041 20.5,77.90039 41.2,15.09996 108.6994,-41.90078 190.1992,-44.30078 47,-1.4 75.9012,-130.69916 -70.8984,-95.69922 -32.6,7.79998 -58.4004,21.19922 -58.4004,21.19922 L 3034.5,151.09961 C 3034.2,141.99963 3033.5004,132.99998 3032.4004,124 3029.2004,99.700048 3021.6,53.500355 3008.5,35.400391 2997.55,20.300421 2980.6008,12.4 2964.5508,11.9375 Z"
     style="fill:#7aac3b"
     id="path10" /></g>
</svg>
