<?xml version="1.0" encoding="UTF-8" standalone="no"?>
<!-- Generator: Adobe Illustrator 26.0.1, SVG Export Plug-In . SVG Version: 6.00 Build 0)  -->

<svg
   version="1.1"
   id="Layer_1"
   x="0px"
   y="0px"
   viewBox="0 0 3839 589.5"
   style="enable-background:new 0 0 3839 589.5;"
   xml:space="preserve"
   sodipodi:docname="Mattel Intellivision-01.svg"
   inkscape:version="1.3.2 (091e20e, 2023-11-25)"
   xmlns:inkscape="http://www.inkscape.org/namespaces/inkscape"
   xmlns:sodipodi="http://sodipodi.sourceforge.net/DTD/sodipodi-0.dtd"
   xmlns="http://www.w3.org/2000/svg"
   xmlns:svg="http://www.w3.org/2000/svg"><defs
   id="defs45">
	
	

		
	
		
	
			
			
			
			
			
			
			
			
			
			
			
			
			
			
			
		
			
			
			
			
			
			
			
			
			
			
			
			
		
				
			
				
			
				
			
				
				
			
				
			
				
				
			
				
			
				
			
				
			
				
			
				
			
				
			
				
			
				
			
				
			
				
			
				
				
			
				
				
			
					
				
					
				
					
				
					
				
					
				
					
				
					
				
					
				
					
				
					
				
					
				
					
				
					
				
					
				</defs><sodipodi:namedview
   id="namedview45"
   pagecolor="#ffffff"
   bordercolor="#000000"
   borderopacity="0.25"
   inkscape:showpageshadow="2"
   inkscape:pageopacity="0.0"
   inkscape:pagecheckerboard="0"
   inkscape:deskcolor="#d1d1d1"
   inkscape:zoom="0.18780933"
   inkscape:cx="1916.8377"
   inkscape:cy="292.85021"
   inkscape:window-width="1800"
   inkscape:window-height="1037"
   inkscape:window-x="0"
   inkscape:window-y="44"
   inkscape:window-maximized="0"
   inkscape:current-layer="Layer_1" />
<style
   type="text/css"
   id="style1">
	.st0{fill:#0035A0;}
	.st1{fill:#F30100;}
	.st2{fill:#FFFFFF;}
</style>
<g
   id="g75"><path
     d="M 0,51.099609 V 579.90039 H 144.40039 V 51.099609 Z"
     style="fill:#0035a0"
     id="path75" /><path
     d="m 269.20898,139.71484 c -38.17375,0.88281 -75.00976,30.08603 -75.00976,76.08594 v 364 h 71.70117 V 326.5 l 172.29883,237.69922 c 31.79994,43.99991 101.20117,21.40106 101.20117,-32.79883 V 221.69922 h -23.20117 l 23.20117,-15.44336 V 150 h -71.5 V 359 L 331.69922,171.19922 c -16.19997,-22.34996 -39.58598,-32.01406 -62.49024,-31.48438 z"
     style="fill:#0035a0"
     id="path74" /><path
     d="m 3568.709,139.71484 c -38.1738,0.88281 -75.0098,30.08603 -75.0098,76.08594 v 364 h 71.7012 V 326.5 l 172.2988,237.69922 c 31.8,43.99991 101.2012,21.40106 101.2012,-32.79883 V 150 h -71.5 V 359 L 3631.1992,171.19922 c -16.1999,-22.34996 -39.586,-32.01406 -62.4902,-31.48438 z"
     style="fill:#0035a0"
     id="path73" /><path
     d="M 2259.9004,23.199219 2144,474.5 2053.9004,150 h -149.8008 l 110.0996,367.90039 c 29.2,97.49981 168.3016,94.79902 193.6016,-3.80078 L 2333.9004,23.199219 Z"
     style="fill:#0035a0"
     id="path72" /><path
     d="M 772.5,51.099609 516.19922,221.69922 h 91.90039 c 11.09998,0 20.09961,9.00158 20.09961,20.10156 v 245.89844 c 0,50.8999 41.30166,92.10156 92.10156,92.10156 H 772.5 874.69922 V 508.09961 L 792.59961,508 c -11.09998,0 -20,-9.00002 -20,-20 V 241.80078 c 0,-11.09998 8.99963,-20.10156 20.09961,-20.10156 h 82.20117 V 150 H 772.5 Z"
     style="fill:#0035a0"
     id="path71" /><path
     d="m 1217,150 v 337.59961 c 0,50.8999 41.2997,92.09961 92.0996,92.09961 H 1361.3008 1463.5 V 508 h -82.1992 c -11.1,0 -20,-9.00002 -20,-20 V 150 Z"
     style="fill:#0035a0"
     id="path70" /><path
     d="m 1468.4004,150 v 337.59961 c 0,50.8999 41.2997,92.09961 92.0996,92.09961 h 52.1992 102.2012 V 508 h -82.2012 c -11.1,0 -20,-9.00002 -20,-20 V 150 Z"
     style="fill:#0035a0"
     id="path69" /><path
     d="m 984.30078,150 c -50.8999,0 -92.20117,41.29932 -92.20117,92.19922 v 245.5 c 0,50.8999 41.30127,92.20117 92.20117,92.20117 H 1036.5 1195 v -71.70117 h -138.4004 c -11.1,0 -20.0996,-8.99963 -20.0996,-20.09961 V 400.80078 H 1168 v -71.70117 h -131.5 v -87.19922 c 0,-11.09998 8.9996,-20.09961 20.0996,-20.09961 L 1195,221.69922 V 150 h -158.5 z"
     style="fill:#0035a0"
     id="path68" /><path
     d="M 1728.0996,257.80078 V 579.69922 H 1872.5 V 257.80078 Z"
     style="fill:#0035a0"
     id="path67" /><path
     d="m 1728.0996,150 v 71.69922 H 1872.5 V 150 Z"
     style="fill:#0035a0"
     id="path66" /><path
     d="M 2850.0996,257.80078 V 579.69922 H 2994.5 V 257.80078 Z"
     style="fill:#0035a0"
     id="path65" /><path
     d="m 2850.0996,150 v 71.69922 H 2994.5 V 150 Z"
     style="fill:#0035a0"
     id="path64" /><path
     d="M 2319.5996,257.80078 V 579.69922 H 2464 V 257.80078 Z"
     style="fill:#0035a0"
     id="path63" /><path
     d="m 2319.5996,150 v 71.69922 H 2464 V 150 Z"
     style="fill:#0035a0"
     id="path62" /><path
     d="m 3244.4004,151.59961 c -79.9998,0 -223.8008,18.10001 -223.8008,218.59961 0,200.4996 143.801,218.60156 223.8008,218.60156 79.9998,0 223.7988,-18.10196 223.7988,-218.60156 0,-200.4996 -143.799,-218.59961 -223.7988,-218.59961 z m 0,59 c 38.4999,0 65.4004,47.29968 65.4004,81.09961 v 157 c 0,33.69993 -26.9005,81.10156 -65.4004,81.10156 -38.4999,0 -65.4004,-47.30163 -65.4004,-81.10156 v -157 c 0,-33.69993 26.9005,-81.09961 65.4004,-81.09961 z"
     style="fill:#0035a0"
     id="path61" /><path
     d="m 2640.8008,149.90039 c -83.5999,0 -148.4004,58.09978 -148.4004,143.09961 0,87.59982 96.5993,115.4004 147.6992,120.90039 32.0999,3.39999 63.0996,16.79889 63.0996,48.29883 0,25.29995 -21.8,45.90039 -45.5,45.90039 H 2492.4004 V 579 c 0,0 186.3004,0.90078 188.9004,0.80078 79.9998,-3.89999 143.5996,-69.20055 143.5996,-148.40039 0,-13.19997 -0.7004,-24.69963 -2.4004,-35.09961 -0.4,-2.59999 -1,-5 -1.5,-7.5 -14.3,-66.29987 -66.3009,-79.1016 -147.3008,-100.60156 0,0 -0.3984,-0.0988 -0.8984,-0.29883 l -18.6016,-5 c -35.0999,-9.39998 -28.2983,-61.30078 8.1016,-61.30078 h 15.8984 15.9004 85.2012 l -0.5,-71.69922 z"
     style="fill:#0035a0"
     id="path60" /><path
     d="m 2768.4004,0.19921875 c -3.9,0 -7,3.10000775 -7,6.99999995 V 40.599609 c 0,3.899993 -3.1,7 -7,7 H 2744.5 c -3.9,0 -7,3.100008 -7,7 V 97.5 c 0,3.89999 3.1,7 7,7 h 69.1992 c 3.9,0 7,-3.10001 7,-7 0,-3.899992 -3.1,-7 -7,-7 H 2758.5 c -3.9,0 -7,-3.100008 -7,-7 v -15 c 0,-3.899992 3.1,-7 7,-7 h 55.1992 c 3.9,0 7,-3.100008 7,-7 0,-3.899992 -3.1,-7 -7,-7 h -13.8984 c -3.9,0 -7,-3.100008 -7,-7 V 21 c 0,-3.899992 3.1,-7 7,-7 h 14 c 3.9,0.2 7,-3.000789 7,-6.8007813 0,-3.8999922 -3.1,-6.99999995 -7,-6.99999995 z"
     style="fill:#0035a0"
     id="path59" /><path
     d="m 2971.3008,0.19921875 c -3.9,0 -7,3.10000775 -7,6.99999995 V 40.599609 c 0,3.899993 -3.1,7 -7,7 h -9.9004 c -3.9,0 -7,3.100008 -7,7 V 97.5 c 0,3.89999 3.1,7 7,7 h 69.1992 c 3.9,0 7,-3.10001 7,-7 0,-3.899992 -3.1,-7 -7,-7 h -55.1992 c -3.9,0 -7,-3.100008 -7,-7 v -15 c 0,-3.899992 3.1,-7 7,-7 h 55.1992 c 3.9,0 7,-3.100008 7,-7 0,-3.899992 -3.1,-7 -7,-7 h -13.9004 c -3.9,0 -7,-3.100008 -7,-7 V 21 c 0,-3.899992 3.1,-7 7,-7 h 14 c 3.9,0.2 7,-3.000789 7,-6.8007813 0,-3.8999922 -3.1,-6.99999995 -7,-6.99999995 z"
     style="fill:#0035a0"
     id="path58" /><path
     d="m 3137.1992,0.19921875 c -3.9,0 -7,3.10000775 -7,6.99999995 V 40.599609 c 0,3.899993 -3.1,7 -7,7 h -9.8984 c -3.9,0 -7,3.100008 -7,7 V 97.5 c 0,3.89999 3.1,7 7,7 H 3182.5 c 3.9,0 7,-3.10001 7,-7 0,-3.899992 -3.1,-7 -7,-7 h -55.0996 c -3.9,0 -7,-3.100008 -7,-7 v -15 c 0,-3.899992 3.1,-7 7,-7 h 55.1992 c 3.9,0 7,-3.100008 7,-7 0,-3.899992 -3.1,-7 -7,-7 h -14 c -3.9,0 -7,-3.100008 -7,-7 V 21 c 0,-3.899992 3.1,-7 7,-7 h 14 c 3.9,0.2 7,-3.000789 7,-6.8007813 0,-3.8999922 -3.1,-6.99999995 -7,-6.99999995 z"
     style="fill:#0035a0"
     id="path57" /><path
     d="m 2843.5996,0.19921875 c -3.9,0 -7,3.10000775 -7,6.99999995 V 97.400391 c 0,3.899989 3.1,6.999999 7,6.999999 h 45.5996 c 3.9,0 7,-3.10001 7,-6.999999 V 80 c 0,-3.899992 -3.2,-7 -7,-7 h -31.5996 c -3.9,0 -7,-3.100008 -7,-7 V 7.1992187 c 0,-3.8999922 -3.1,-6.99999995 -7,-6.99999995 z"
     style="fill:#0035a0"
     id="path56" /><path
     d="m 3043.5,0.19921875 c -3.9,0 -7,3.10000775 -7,6.99999995 V 97.400391 c 0,3.899989 3.1,6.999999 7,6.999999 h 45.5996 c 3.9,0 7,-3.10001 7,-6.999999 V 80 c 0,-3.899992 -3.1,-6.900391 -7,-6.900391 H 3057.5 c -3.9,0 -7,-3.100007 -7,-7 V 7.1992187 c 0,-3.8999922 -3.1,-6.99999995 -7,-6.99999995 z"
     style="fill:#0035a0"
     id="path55" /><path
     d="m 3362.6992,0.09960937 c -3.9,0 -7,3.10000783 -7,7.00000003 V 97.300781 c 0,3.899989 3.1,6.999999 7,6.999999 h 17.4004 c 3.9,0 7,-3.10001 7,-6.999999 V 68.5 c 0,-3.899992 3.1,-7 7,-7 h 23.8008 c 3.9,0 7,3.100008 7,7 v 28.800781 c 0,3.899989 3.1,6.999999 7,6.999999 3.9,0 7,-3.10001 7,-6.999999 v -42.90039 c 0,-3.899993 -3.1,-7 -7,-7 -3.8,0.199999 -7,-3.000789 -7,-6.800782 V 7.0996094 c 0,-3.8999922 -3.1,-7.00000003 -7,-7.00000003 z M 3376.8008,14.199219 H 3404 c 3.9,0 7,3.100008 7,7 v 19.40039 c 0,3.899993 -3.1,7 -7,7 h -27.1992 c -3.9,0 -7,-3.100007 -7,-7 V 21.300781 c 0,-3.999992 3.1,-7.101562 7,-7.101562 z"
     style="fill:#0035a0"
     id="path54" /><path
     d="m 3211,0.19921875 c -3.9,0 -7,3.10000775 -7,6.99999995 V 97.400391 c 0,3.899989 3.1,6.999999 7,6.999999 h 51.5996 c 3.9,0 7,-3.10001 7,-6.999999 0,-3.899993 -3.1,-7 -7,-7 h -37.6992 c -3.9,0 -7,-3.100008 -7,-7 v -45 c 0,-3.899993 3.1,-7 7,-7 h 37.6992 c 3.8,0.199999 7,-3.000789 7,-6.800782 V 7.1992187 c 0,-3.8999922 -3.1,-6.99999995 -7,-6.99999995 z"
     style="fill:#0035a0"
     id="path53" /><path
     d="m 3687.8008,0.19921875 c -3.9,0 -7,3.10000775 -7,6.99999995 V 97.400391 c 0,3.899989 3.1,6.999999 7,6.999999 h 51.5996 c 3.9,0 7,-3.10001 7,-6.999999 0,-3.899993 -3.1,-7 -7,-7 h -37.7012 c -3.9,0 -7,-3.100008 -7,-7 v -45 c 0,-3.899993 3.1,-7 7,-7 h 37.7012 c 3.9,0.199999 7,-3.000789 7,-6.800782 V 7.1992187 c 0,-3.8999922 -3.1,-6.99999995 -7,-6.99999995 z"
     style="fill:#0035a0"
     id="path52" /><path
     d="m 2404.5996,0.30078125 c -3.9,0 -7,3.10000775 -7,6.99999995 V 31.699219 97.300781 c 0,3.899989 3.0008,7.198829 6.8008,7.298829 4,0.1 7.1992,-3.00001 7.1992,-7.000001 v -58.90039 c 0,-3.899992 3.1,-7 7,-7 h 9.5 c 3.4,0 6.4004,2.600397 6.9004,5.90039 l 5.4004,32.300782 c 0.6,3.399993 3.5004,5.90039 6.9004,5.90039 h 12.5 c 2.8,0 5.3,-1.600786 6.5,-4.300781 L 2486.5,24.400391 c 1.6,-3.999992 7.6992,-2.800382 7.6992,1.599609 v 71.599609 c 0,3.899991 3.1,7.000001 7,7.000001 h 12.1016 c 2.8,0 5.3,-1.59883 6.5,-4.29883 l 13.5,-31.601561 c 1.1,-2.599995 3.6,-4.298828 6.5,-4.298828 h 23.0996 c 3.9,0 7,3.100007 7,7 V 97.5 c 0,3.89999 3.1,7 7,7 h 17.4004 c 3.9,0 7,-3.10001 7,-7 V 14.400391 7.4003906 c 0,-3.8999922 -3.1,-6.99999997 -7,-6.99999997 H 2552 C 2549.4,0.30039082 2546.9008,1.9000052 2545.8008,4.5 l -29.7012,69.300781 c -1.6,3.999992 -7.6992,2.798429 -7.6992,-1.601562 V 7.3007812 c 0,-3.8999922 -3.1,-6.99999995 -7,-6.99999995 h -15.0996 c -2.8,0 -5.3,1.59883355 -6.5,4.29882815 l -20.5,48.0996096 c -1.6,3.699992 -7.0012,3.101554 -7.7012,-0.898438 L 2443.9004,6.1992187 C 2443.3004,2.7992255 2440.4,0.30078125 2437,0.30078125 Z M 2561.4004,14.199219 h 19 c 3.9,0 7,3.100008 7,7 v 22.201172 c 0,3.899992 -3.1,7 -7,7 H 2552 c -5,0 -8.3,-5.100791 -6.5,-9.800782 l 9.5,-22.199218 c 1.1,-2.499995 3.6004,-4.201172 6.4004,-4.201172 z"
     style="fill:#0035a0"
     id="path51" /><path
     d="m 3287,0.19921875 c -3.9,0 -7,3.10000775 -7,6.99999995 V 24.599609 c 0,3.899993 3.1,7 7,7 h 11.9004 c 3.9,0 7,3.100008 7,7 v 58.800782 c 0,3.899989 3.1,6.999999 7,6.999999 3.9,0 7,-3.10001 7,-6.999999 V 38.599609 c 0,-3.899992 3.1,-7 7,-7 h 11.9004 c 3.9,0 7,-3.100007 7,-7 V 7.1992187 h -0.1016 c 0,-3.8999922 -3.1,-6.99999995 -7,-6.99999995 h -18.7988 -14 z"
     style="fill:#0035a0"
     id="path50" /><path
     d="m 3651.8008,0.19921875 c -3.1,0 -5.6016,2.60157155 -5.6016,5.60156245 V 67.199219 c 0,3.099991 -2.5996,5.601562 -5.5996,5.601562 h -7.9004 c -3.1,0 -5.5996,2.599619 -5.5996,5.59961 v 20 c 0,3.099989 2.5996,5.599609 5.5996,5.599609 H 3666 c 3.1,0 5.5996,-2.59962 5.5996,-5.599609 v -20 c 0,-3.099991 -2.5996,-5.59961 -5.5996,-5.59961 -3.4,0.3 -6,-2.400399 -6,-5.40039 V 5.8007812 c 0,-3.0999907 -2.5996,-5.60156245 -5.5996,-5.60156245 z"
     style="fill:#0035a0"
     id="path49" /><path
     d="m 3546.5,0.19921875 c -3.9,0 -7,3.10001155 -7,6.99999995 V 97.400391 c 0,3.899989 3.1,6.999999 7,6.999999 3.9,0 7,-3.10001 7,-6.999999 V 38.599609 c 0,-3.899988 3.1,-7 7,-7 h 32.3008 c 3.9,0 7,3.100012 7,7 v 58.800782 c 0,3.899989 3.1,6.999999 7,6.999999 3.9,0 7,-3.10001 7,-6.999999 V 7.1992187 c 0,-3.8999883 -3.1,-6.99999995 -7,-6.99999995 h -7 -46.3008 z"
     style="fill:#0035a0"
     id="path48" /><path
     d="m 3457.5996,0.19921875 c -3.9,0 -7,3.20001125 -7,6.99999995 V 97.400391 c 0,3.899989 3.1,6.999999 7,6.999999 H 3518 c 3.9,0 7,-3.10001 7,-6.999999 V 7.1992187 c 0,-3.8999883 -3.1,-6.99999995 -7,-6.99999995 h -59.3008 z m 14,14.00000025 h 32.3008 c 3.9,0 7,3.100012 7,7 v 44.90039 c 0,3.899989 -3.1,7 -7,7 h -32.3008 c -3.9,0 -7,-3.30001 -7,-7 v -44.90039 c 0,-3.899988 3.1,-7 7,-7 z"
     style="fill:#0035a0"
     id="path47" /><path
     d="m 3771.6992,0.19921875 c -3.9,0 -7,3.10001165 -7,6.99999995 V 54.699219 c 0,3.899988 3.1,7 7,7 h 29 c 3.9,0 7,3.100012 7,7 v 14.90039 c 0,3.899989 -3.1,7 -7,7 h -37.7988 c -3.9,0 -7,3.100012 -7,7 0,3.899991 3.1,7.000001 7,7.000001 h 69.1992 c 3.9,0 7,-3.10001 7,-7.000001 v -42.90039 c 0,-3.899988 -3.1,-7 -7,-7 h -46.5 c -4,-0.1 -7.0996,-3.29962 -7.0996,-7.09961 v -19.40039 c 0,-3.899988 3.1,-7 7,-7 h 37.1992 c 3.9,0 7,-3.100012 7,-7.0000003 0,-3.8999883 -3.1,-6.99999995 -7,-6.99999995 z"
     style="fill:#0035a0"
     id="path46" /><path
     d="M 2732.8008,0 2714,0.19921875 h -14 -46.0996 -14 -18.5996 c -3.9,0 -7,3.10000765 -7,6.99999995 V 24.5 c 0,3.899992 3.1,7 7,7 H 2633 c 3.9,0 7,3.100008 7,7 V 97 c 0,3.9 3.0008,7.20078 6.8008,7.30078 4,0.1 7.1992,-3 7.1992,-6.999999 V 38.5 c 0,-3.899992 3.1,-7 7,-7 h 32.0996 c 3.9,0 7,3.100008 7,7 V 97 c 0,3.9 3.0008,7.20078 6.8008,7.30078 4,0.1 7.1992,-3 7.1992,-6.999999 V 38.5 c 0,-3.899992 3.1,-7 7,-7 h 11.7012 c 3.9,0 7,-3.100008 7,-7 V 7 c 0,-3.8999922 -3.1,-7 -7,-7 z"
     style="fill:#0035a0"
     id="path45" /></g>
</svg>
