<?xml version="1.0" encoding="UTF-8" standalone="no"?>
<!-- Generator: Adobe Illustrator 26.0.3, SVG Export Plug-In . SVG Version: 6.00 Build 0)  -->

<svg
   version="1.1"
   id="Layer_1"
   x="0px"
   y="0px"
   viewBox="0 0 3839 984.9"
   style="enable-background:new 0 0 3839 984.9;"
   xml:space="preserve"
   sodipodi:docname="Sega Master System,-24.svg"
   inkscape:version="1.3.2 (091e20e, 2023-11-25)"
   xmlns:inkscape="http://www.inkscape.org/namespaces/inkscape"
   xmlns:sodipodi="http://sodipodi.sourceforge.net/DTD/sodipodi-0.dtd"
   xmlns="http://www.w3.org/2000/svg"
   xmlns:svg="http://www.w3.org/2000/svg"><defs
   id="defs24">
	
	
	

		
		
		
		
		
		
		
		
		
		
		
		
	
		
		
	
			
			
			
		
				
				
				
			
				
				
				
			
				
				
			</defs><sodipodi:namedview
   id="namedview24"
   pagecolor="#ffffff"
   bordercolor="#666666"
   borderopacity="1.0"
   inkscape:showpageshadow="2"
   inkscape:pageopacity="0.0"
   inkscape:pagecheckerboard="0"
   inkscape:deskcolor="#d1d1d1"
   inkscape:zoom="0.32195884"
   inkscape:cx="1917.947"
   inkscape:cy="492.29895"
   inkscape:window-width="2048"
   inkscape:window-height="1154"
   inkscape:window-x="0"
   inkscape:window-y="25"
   inkscape:window-maximized="0"
   inkscape:current-layer="Layer_1" />
<style
   type="text/css"
   id="style1">
	.st0{fill:#034693;}
	.st1{fill:#FF0000;}
	.st2{fill:#FFFFFF;}
	.st3{display:none;}
	.st4{display:inline;}
</style>
<path
   d="m 0,912.30078 v 45.89844 h 2287.8457 c -2.5185,-5.56417 -4.0449,-11.95169 -4.0449,-19.39844 0,-11.59362 5.853,-20.59353 14.2695,-26.5 z m 2339.4277,0 c 5.4918,4.72763 8.8731,11.13688 8.8731,17.69922 0,10.69988 -4.1016,15.99965 -4.1016,20.09961 0,5.59316 3.2772,7.86011 6.5957,8.09961 h 1.7071 c 16.5628,-0.70107 33.5605,-17.09422 51.7031,-45.89844 z m 95.0821,0 c -11.5752,19.62267 -23.1465,34.66081 -34.9571,45.89844 H 3839 v -45.89844 z"
   style="fill:#034693"
   id="path45" /><path
   d="m 0,436.30078 v 26.59961 h 33.800781 c 22.999931,0 33.09961,6.49929 33.09961,30.19922 v 246.20117 c 0,82.79976 -14.200549,92.89963 -66.900391,97.59961 V 863.5 H 165 V 836.90039 C 102.30019,835.20039 96.400391,807.89984 96.400391,753.5 V 465.90039 h 1.199218 L 238.5,863.59961 h 17.80078 L 391.69922,465.90039 h 1.20117 v 340.90039 c 0,23.69993 -9.99967,30.19922 -33.09961,30.19922 h -32.5 v 26.59961 h 197 V 837 H 490.59961 C 467.59968,837 457.5,830.50071 457.5,806.80078 V 493.09961 c 0,-23.69993 9.99968,-30.19922 33.09961,-30.19922 h 33.70117 V 436.30078 H 374 L 265.69922,757.09961 H 264.5 l -113,-320.79883 z"
   style="fill:#ff0000"
   id="path44" /><path
   d="m 681.19922,580.09961 c -71.59979,0 -115.39844,35.50128 -115.39844,72.20117 0,20.09994 10.0985,37.29883 31.39844,37.29883 18.89994,0 33.10156,-8.30006 33.10156,-29 0,-13.59996 -13,-27.19924 -13,-33.69922 0,-8.29997 15.30012,-20.09961 55,-20.09961 47.29986,0 63.89844,17.10012 63.89844,55 h -0.0996 v 31.79883 c -115.39966,15.39995 -186.40039,52.70095 -186.40039,108.30078 0,49.69985 38.50052,70.40039 82.90039,70.40039 40.19988,0 80.50008,-15.90087 106.5,-47.30078 7.69997,28.99991 22.50126,44.40039 52.70117,44.40039 30.79991,0 52.69922,-23.60003 52.69922,-32.5 0,-7.09998 -1.79923,-10.09961 -7.69922,-10.09961 -5.89998,0 -10.00004,7.09961 -26,7.09961 -13.59996,0 -21.90039,-16.5012 -21.90039,-27.20117 0,-22.49994 1.79883,-106.4997 1.79883,-136.09961 0,-63.29981 -33.20023,-90.5 -109.5,-90.5 z m 55,137.30078 v 47.40039 c 0,48.49985 -42.59894,78.09961 -79.29883,78.09961 -26.59992,0 -49.70117,-17.80126 -49.70117,-46.20117 0,-43.79987 26.6003,-65.09887 129,-79.29883 z"
   style="fill:#ff0000"
   id="path43" /><path
   d="m 953.30078,580.09961 c -50.29985,0 -86.40039,31.40093 -86.40039,82.30078 0,40.79988 15.39977,67.50043 68.09961,79.90039 l 45.69922,10.59961 c 44.99988,10.59997 65.70118,21.29892 65.70118,50.29883 0,30.19991 -33.2013,45.60156 -59.20118,45.60156 -58.59982,0 -89.39926,-39.60132 -104.19922,-91.70117 h -20.59961 v 112.30078 h 20.69922 l 18.30078,-26 c 23.59993,20.09994 53.80009,29 84,29 53.89981,0 96.50001,-32.50018 96.50001,-90.5 0,-43.79987 -27.2002,-71.00003 -71,-80.5 L 952.90039,689 c -37.89988,-8.29997 -53.30078,-21.30006 -53.30078,-42 0,-29.59991 28.40047,-43.19922 54.40039,-43.19922 48.4999,0 75.7992,33.70014 88.1992,77.5 h 20.7012 v -98.20117 h -20.7012 L 1025.5,603.80078 c -20.1,-15.99995 -46.19929,-23.70117 -72.19922,-23.70117 z"
   style="fill:#ff0000"
   id="path42" /><path
   d="m 1180.5996,469.5 c -3.5,49.69985 -15.9994,115.40001 -78.6992,119.5 h 0.1 v 26.59961 h 47.9004 v 193 c 0,37.29988 31.9001,63.90039 71,63.90039 63.3998,0 89.4,-41.40061 90,-115.40039 h -23.7012 C 1287.1992,786.69952 1278.8999,837 1241,837 c -27.1999,0 -36.6992,-16.5997 -36.6992,-45.59961 V 615.59961 H 1292.5 V 589 h -88.1992 V 469.5 Z"
   style="fill:#ff0000"
   id="path41" /><path
   d="m 1462.4004,580.19922 c -84.5997,0 -138.5,56.20186 -138.5,155.60156 0,80.49976 53.8003,136.69922 135.5,136.69922 59.0998,0 95.7996,-29.00094 120.0996,-82.30078 L 1559.4004,779 c -19,38.99988 -45.0002,63.90039 -90,63.90039 -46.6999,0 -85.2012,-35.60138 -85.2012,-104.20117 V 730.5 h 195.4004 c -4.2,-87.59973 -47.9994,-150.30078 -117.1992,-150.30078 z m -5.3008,23.60156 c 37.7999,0 62.0996,30.20015 62.0996,80.5 0,18.89994 -5.8992,22.5 -30.1992,22.5 h -104.6992 c 5.3,-64.4998 25.999,-103 72.7988,-103 z"
   style="fill:#ff0000"
   id="path40" /><path
   d="m 1792,580.09961 c -52.6998,0 -81.0992,47.90087 -88.1992,79.30078 h -1.2012 V 589 L 1592.5,594.90039 h 0.1 V 618.5 h 27.2012 c 19.4999,0 28.3984,2.39965 28.3984,16.59961 v 175.80078 c 0,23.09993 -8.8985,29 -31.3984,29 h -19.5 v 23.69922 h 161 V 839.90039 H 1737 c -24.2,0 -34.3008,-3.50044 -34.3008,-18.90039 v -59.19922 c 0,-48.59985 19.6017,-150.40158 81.1016,-155.10156 H 1785 v 1.20117 c -11.2,7.69998 -14.1992,15.89964 -14.1992,26.59961 0,17.19995 13,32 32.5,32 23.6999,0 35.5,-17.69928 35.5,-40.19922 0,-27.29991 -20.8009,-46.20117 -46.8008,-46.20117 z"
   style="fill:#ff0000"
   id="path39" /><path
   d="m 2102.5996,427.30078 c -76.2997,0 -129.5996,43.79985 -129.5996,123.09961 0,66.2998 40.8998,98.20006 110.0996,116 L 2179,691.30078 c 40.7999,10.69997 56.8008,33.79971 56.8008,68.09961 0,54.99984 -38.4017,86.40039 -97.6016,86.40039 -73.8997,0 -132.4992,-50.90146 -149.6992,-146.20117 L 1966,702 l 2.4004,167.40039 h 19.5 L 2014.5,826.80078 c 32.5999,28.39991 75.1994,45.59961 123.6992,45.59961 92.8997,0 145,-56.19982 145,-126.59961 0,-62.19981 -31.8987,-106.60045 -99.3984,-124.90039 L 2091.5,595.5 c -55.5998,-15.39995 -71,-41.40009 -71,-71 0,-34.8999 26.0002,-70.40039 84,-70.40039 75.6997,0 118.3,65.10098 135.5,130.80078 h 23.5996 L 2256.5,431.59961 h -20.6992 L 2211.5,468.69922 c -31.9999,-28.99991 -66.3005,-41.39844 -108.9004,-41.39844 z"
   style="fill:#ff0000"
   id="path38" /><path
   d="m 2290.9004,589 v 23.69922 H 2298 c 23.7,0 29,6.50009 42,35.5 L 2433,859 c -30.1999,65.0998 -56.2993,99.40039 -81.6992,99.40039 -3.5,0 -7.1016,-2.4008 -7.1016,-8.30078 0,-4.09999 4.1016,-9.39964 4.1016,-20.09961 0,-12.49997 -11.8004,-24.90039 -28.4004,-24.90039 -19.5,0 -36.0996,13.60123 -36.0996,33.70117 0,31.99991 25.9985,46.19922 54.3984,46.19922 49.6999,0 88.2002,-39.69954 132,-146.19922 l 76.9004,-186.40039 c 11.2,-27.89991 20.7012,-39.10117 49.7012,-39.70117 V 589 H 2479 v 23.69922 h 17.9004 c 10.1,0 24.9004,5.30082 24.9004,18.30078 0,9.39997 -4.2004,20.10087 -15.4004,47.30078 L 2460.1992,792.5 2395.0996,643.40039 c -2.9,-6.49998 -5.2988,-13.6008 -5.2988,-18.30078 0,-10.59997 10.6,-12.40039 32.5,-12.40039 h 8.2988 V 589 Z"
   style="fill:#ff0000"
   id="path37" /><path
   d="m 2699.9004,580 c -50.2999,0 -86.4004,31.40093 -86.4004,82.30078 0,40.79988 15.3998,67.49847 68.0996,79.89844 l 45.5996,10.70117 c 44.9999,10.59997 65.7012,21.29892 65.7012,50.29883 0,30.19991 -33.2012,45.60156 -59.2012,45.60156 -58.5998,0 -89.3992,-39.60132 -104.1992,-91.70117 h -20.6992 V 869.40039 H 2629.5 l 18.3008,-26 c 23.5999,20.09994 53.8,29 84,29 53.8998,0 96.5,-32.50018 96.5,-90.5 0,-43.79987 -27.2002,-71.00003 -71,-80.5 L 2699.3008,689 C 2661.4009,680.70003 2646,667.69994 2646,647 c 0,-29.59991 28.4004,-43.19922 54.4004,-43.19922 48.4998,0 75.7992,33.70014 88.1992,77.5 h 20.7012 v -98.20117 h -20.7012 l -16.5,20.59961 C 2751.9996,587.69926 2725.9003,580 2699.9004,580 Z"
   style="fill:#ff0000"
   id="path36" /><path
   d="m 2927,469.5 c -3.5,49.69985 -15.9994,115.40001 -78.6992,119.5 h 0.1 v 26.59961 h 47.9004 v 193 c 0,37.29988 31.9001,63.90039 71,63.90039 63.3998,0 89.4,-41.40061 90,-115.40039 h -23.7012 c 0,29.59991 -8.2993,79.90039 -46.1992,79.90039 -27.2,0 -36.7012,-16.5997 -36.7012,-45.59961 V 615.59961 h 88.2012 V 589 h -88.2012 V 469.5 Z"
   style="fill:#ff0000"
   id="path35" /><path
   d="m 3208.8008,580.19922 c -84.5997,0 -138.5,56.20186 -138.5,155.60156 0,80.49976 53.8002,136.69922 135.5,136.69922 59.0998,0 95.7996,-29.00094 120.0996,-82.30078 L 3305.8008,779 c -19,38.99988 -45.0002,63.90039 -90,63.90039 -46.6999,0 -85.2012,-35.60138 -85.2012,-104.20117 V 730.5 H 3326 c -4.2,-87.59973 -47.9995,-150.30078 -117.1992,-150.30078 z m -5.3008,23.60156 c 37.7999,0 62.0996,30.20015 62.0996,80.5 0,18.89994 -5.8993,22.5 -30.1992,22.5 h -104.7012 c 5.3,-64.4998 26.0009,-103 72.8008,-103 z"
   style="fill:#ff0000"
   id="path34" /><path
   d="m 3534.8008,580.09961 c -22.5,0 -58.0016,10.10132 -84.6016,59.20117 H 3449 V 589 l -105.1992,5.80078 V 618.5 h 22.5 c 19.4999,0 28.3984,2.39965 28.3984,16.59961 v 177.59961 c 0,20.09994 -8.3,27.20117 -32,27.20117 h -18.8984 v 23.69922 h 151.5 v -23.69922 h -14.2012 c -23.6999,0 -32,-7.10123 -32,-27.20117 V 711.5 c 0,-61.59982 33.6997,-95.90039 62.0996,-95.90039 33.7,0 56.2012,22.50012 56.2012,61 v 136.09961 c 0,20.09994 -8.3001,27.20117 -32,27.20117 h -14.2012 v 23.69922 H 3668 v -23.69922 h -14.1992 c -23.7,0 -32,-7.10123 -32,-27.20117 V 685.5 c 0,-41.99988 30.1989,-69.80078 66.2988,-69.80078 33.7999,0 52.0996,22.40048 52.0996,54.40039 v 142.59961 c 0,20.09994 -8.3,27.20117 -32,27.20117 H 3694 v 23.69922 h 145 v -23.69922 h -12.4004 c -23.6999,0 -32,-7.10123 -32,-27.20117 V 675.40039 c 0,-57.99982 -47.9005,-95.30078 -86.4004,-95.30078 -36.0998,0 -65.6989,16.60052 -92.2988,60.40039 -8.3,-34.3999 -38.4998,-60.40039 -81.0996,-60.40039 z"
   style="fill:#ff0000"
   id="path33" /><path
   d="m 2297.0996,0 c -43.8998,0 -81.9992,28.900903 -94.6992,69.300781 l -33.5,99.298829 V 5.8007812 h -175.5 c -31.1999,0 -60.0001,12.7000628 -82,33.4999998 V 5.8007812 h -180.0996 c -33.5,0 -63.5001,13.8985068 -85.5,36.8984378 V 5.8007812 h -170.9004 c -72.7998,0 -132.8008,60.0990458 -132.8008,132.7988288 0,34.59989 13.9008,66.99967 35.8008,90.09961 h -35.8008 V 383.40039 H 1513 c 48.4999,0 90.1008,-25.40129 114.3008,-64.70117 19.5999,38.09988 58.8997,64.70117 105.0996,64.70117 h 181.2988 v -33.5 c 20.8,20.79994 49.7002,33.5 82,33.5 h 501.1016 l -105,-314.099609 C 2379.1008,28.900903 2340.9995,0 2297.0996,0 Z M 2296,26.599609 c 33.4998,0 61.2005,23.09985 70.4004,53.09961 l 93.4004,277.000001 h -182.5 v -45 h 120.0996 L 2321.1992,85.400391 c -3.4,-10.399918 -12.6993,-17.300782 -24.1992,-17.300782 -11.4999,0 -20.6992,6.900864 -24.1992,17.300782 l -93.5,271.400389 h -185.9004 c -49.6997,0 -90.0996,-40.40196 -90.0996,-90.10156 V 122.40039 c 0,-49.699601 40.3999,-90.099609 90.0996,-90.099609 H 2143.5 v 45.09961 h -148.9004 c -24.1998,0 -45,19.600203 -45,44.999999 v 144.29883 c 0,24.1998 19.6002,45 45,45 H 2098.5 V 189.30078 h -83.0996 v -45 h 127 v 181.39844 l 84.2988,-247.099611 c 8.1,-30.099759 35.801,-52 69.3008,-52 z m -821,5.701172 h 144.3008 v 45.09961 h -143.2012 c -33.4999,0 -61.1992,27.699349 -61.1992,61.199219 0,33.49987 27.6993,61.20117 61.1992,61.20117 h 37 c 27.6999,0 50.8008,23.09894 50.8008,50.79883 0,27.69989 -23.1009,50.80078 -50.8008,50.80078 h -144.2988 v -45 h 144.2988 c 2.2,0 4.5996,-2.4004 4.5996,-5.90039 0,-3.49999 -2.2988,-5.80078 -5.7988,-5.80078 H 1475 c -58.8997,0 -106.1992,-47.29946 -106.1992,-106.19922 0,-58.899764 47.2995,-106.199219 106.1992,-106.199219 z m 256.3008,0 H 1886 v 45.09961 h -154.6992 c -24.1998,0 -45,19.600229 -45,44.999999 v 144.40039 c 0,24.19979 19.6002,45 45,45 H 1886 v 45 h -154.6992 c -49.6996,0 -90.1016,-40.40201 -90.1016,-90.10156 V 122.40039 c 0,-49.699552 40.402,-90.099609 90.1016,-90.099609 z M 2297.0996,78.5 c 7,0 11.6004,4.60043 13.9004,10.400391 l 71.5996,212.499999 H 2277.5 v -0.0996 h -1.3008 v -40.40039 l -32.2988,95.79883 h -53.0996 l 92.3984,-269.000001 c 2.4,-4.599969 8.1004,-9.199219 13.9004,-9.199219 z m -822.1992,9.300781 h 144.2988 V 134 h -144.2988 c -2.3,0 -4.6008,2.29962 -4.8008,4.59961 0,3.49999 2.3008,5.80078 5.8008,5.80078 h 37 c 58.8997,0 106.1992,47.29951 106.1992,106.19922 0,58.8997 -47.2995,106.20117 -106.1992,106.20117 h -144.3008 v -45 h 143.2012 c 33.4997,0 61.1992,-27.70133 61.1992,-61.20117 0,-33.49984 -27.6995,-61.19922 -61.1992,-61.19922 h -36.9004 c -27.6999,0 -50.8008,-23.10092 -50.8008,-50.80078 0,-27.69986 23.1009,-50.798829 50.8008,-50.798829 z m 256.4004,0 h 153.5996 v 46.099609 h -132.8008 c -5.7999,0 -10.4004,4.60045 -10.4004,10.40039 h 112 v 45.09961 h -157 v -67 c 0,-19.5998 15.0018,-34.599609 34.6016,-34.599609 z m 262.0996,0 H 2143.5 v 44.999999 h -128.1992 c -5.8,0 -10.4004,4.59847 -10.4004,10.39844 v 101.60156 c 0,5.79997 4.6004,10.39844 10.4004,10.39844 h 26.5996 v -10.39844 h -26.5996 v -45 h 71.5996 v 101.5 h -93.5 c -19.5999,0 -34.5996,-15.00168 -34.5996,-34.60156 V 122.40039 c 0,-19.59988 14.9997,-34.599609 34.5996,-34.599609 z M 1696.6992,200.90039 h 157 v 45 h -112 c 0,5.79994 4.6005,10.50001 10.4004,11.5 H 1886 V 302.5 h -154.6992 c -19.5998,0 -34.6016,-14.99981 -34.6016,-34.59961 z m 599.2012,3.5 -16.2012,46.19922 h 31.2012 z"
   style="fill:#ffffff"
   id="path32" /><path
   d="m 1475,32.300781 c -58.8998,0 -106.1992,47.299396 -106.1992,106.199219 0,58.89982 47.2994,106.19922 106.1992,106.19922 h 36.9004 c 3.5,0 5.7988,2.30079 5.7988,5.80078 0,3.49999 -2.3996,5.90039 -4.5996,5.90039 h -144.2988 v 45 h 144.2988 c 27.7,0 50.8008,-23.10087 50.8008,-50.80078 0,-27.69992 -23.1008,-50.79883 -50.8008,-50.79883 h -37 c -33.4999,0 -61.1992,-27.70127 -61.1992,-61.20117 0,-33.4999 27.6993,-61.199219 61.1992,-61.199219 h 143.2012 v -45.09961 z"
   style="fill:#034693"
   id="path31" /><path
   d="m 1474.9004,87.800781 c -27.7,0 -50.8008,23.098909 -50.8008,50.798829 0,27.69991 23.1008,50.80078 50.8008,50.80078 h 36.9004 c 33.4998,0 61.1992,27.69932 61.1992,61.19922 0,33.4999 -27.6994,61.20117 -61.1992,61.20117 h -143.2012 v 45 h 144.3008 c 58.8998,0 106.1992,-47.30135 106.1992,-106.20117 0,-58.89982 -47.2994,-106.19922 -106.1992,-106.19922 h -37 c -3.5,0 -5.8008,-2.30079 -5.8008,-5.80078 0.2,-2.3 2.5008,-4.59961 4.8008,-4.59961 h 144.2988 V 87.800781 Z"
   style="fill:#034693"
   id="path30" /><path
   d="m 1993.4004,87.800781 c -19.6,0 -34.5996,14.999669 -34.5996,34.599609 v 144.29883 c 0,19.59994 14.9996,34.60156 34.5996,34.60156 h 93.5 v -101.5 h -71.5996 v 45 h 26.5996 v 10.39844 h -26.5996 c -5.8,0 -10.4004,-4.59845 -10.4004,-10.39844 V 143.19922 c 0,-5.79999 4.6004,-10.39844 10.4004,-10.39844 H 2143.5 V 87.800781 Z"
   style="fill:#034693"
   id="path29" /><path
   d="m 2297.0996,78.5 c -5.8,0 -11.5004,4.599232 -13.9004,9.199219 l -92.3984,269.000001 h 53.0996 l 32.2988,-95.79883 v 40.40039 h 1.3008 v 0.0996 h 105.0996 L 2311,88.900391 C 2308.7,83.100407 2304.0996,78.5 2297.0996,78.5 Z m -1.1992,125.90039 15,46.19922 h -31.2012 z"
   style="fill:#034693"
   id="path28" /><path
   d="m 2296,26.599609 c -33.4999,0 -61.2008,21.900091 -69.3008,52 L 2142.4004,325.69922 V 144.30078 h -127 v 45 H 2098.5 v 122.39844 h -103.9004 c -25.3999,0 -45,-20.80008 -45,-45 V 122.40039 c 0,-25.399923 20.8001,-44.999999 45,-44.999999 H 2143.5 v -45.09961 h -150.0996 c -49.6999,0 -90.0996,40.399759 -90.0996,90.099609 v 144.29883 c 0,49.69985 40.3997,90.10156 90.0996,90.10156 h 185.9004 l 93.5,-271.400389 c 3.5,-10.39997 12.6992,-17.300782 24.1992,-17.300782 11.5,0 20.7992,6.900812 24.1992,17.300782 l 76.2012,226.298829 h -120.0996 v 45 h 182.5 L 2366.4004,79.699219 c -9.2,-29.99991 -36.9005,-53.09961 -70.4004,-53.09961 z"
   style="fill:#034693"
   id="path27" /><path
   d="m 1731.3008,32.300781 c -49.6999,0 -90.1016,40.399759 -90.1016,90.099609 v 144.29883 c 0,49.69985 40.4017,90.10156 90.1016,90.10156 H 1886 v -45 h -154.6992 c -25.4,0 -45,-20.80007 -45,-45 V 122.40039 c 0,-25.399923 20.8,-44.999999 45,-44.999999 H 1886 v -45.09961 z"
   style="fill:#034693"
   id="path26" /><path
   d="m 1696.6992,200.90039 v 67 c 0,19.59994 15.0016,34.59961 34.6016,34.59961 H 1886 v -45.09961 h -133.9004 c -5.8,-1 -10.4004,-5.70002 -10.4004,-11.5 h 112 v -45 z"
   style="fill:#034693"
   id="path25" /><path
   d="m 1731.3008,87.800781 c -19.6,0 -34.6016,14.999649 -34.6016,34.599609 v 67 h 157 v -45.09961 h -112 c 0,-5.79998 4.6004,-10.40039 10.4004,-10.40039 h 132.8008 V 87.800781 Z"
   style="fill:#034693"
   id="path24" />
</svg>
