<?xml version="1.0" encoding="UTF-8" standalone="no"?>
<!-- Generator: Adobe Illustrator 25.1.0, SVG Export Plug-In . SVG Version: 6.00 Build 0)  -->

<svg
   version="1.1"
   id="Layer_1"
   x="0px"
   y="0px"
   viewBox="0 0 3840 857.9"
   style="enable-background:new 0 0 3840 857.9;"
   xml:space="preserve"
   sodipodi:docname="Nintendo 64 -2-09.svg"
   inkscape:version="1.3.2 (091e20e, 2023-11-25)"
   xmlns:inkscape="http://www.inkscape.org/namespaces/inkscape"
   xmlns:sodipodi="http://sodipodi.sourceforge.net/DTD/sodipodi-0.dtd"
   xmlns="http://www.w3.org/2000/svg"
   xmlns:svg="http://www.w3.org/2000/svg"><defs
   id="defs23">
	
	

		
		
		
		
		
		
		
		
		
		
	
		
		
		
		
	
			
			
		
			
			
			
		
			
		
			
		
			
		
			
		
			
		
			
		
			
		
			
		
			
		
			
		
			
			
			
		
			
			
			
			
		
				
			
				
			
				
			
				
			
				
			
				
			
				
			
				
			
				
			
				
			
				
			
				
			</defs><sodipodi:namedview
   id="namedview23"
   pagecolor="#ffffff"
   bordercolor="#000000"
   borderopacity="0.25"
   inkscape:showpageshadow="2"
   inkscape:pageopacity="0.0"
   inkscape:pagecheckerboard="0"
   inkscape:deskcolor="#d1d1d1"
   inkscape:zoom="0.18776042"
   inkscape:cx="1917.337"
   inkscape:cy="431.40083"
   inkscape:window-width="1800"
   inkscape:window-height="1037"
   inkscape:window-x="0"
   inkscape:window-y="44"
   inkscape:window-maximized="0"
   inkscape:current-layer="Layer_1" />
<style
   type="text/css"
   id="style1">
	.st0{fill:#334FA2;}
	.st1{fill:#F01B25;}
	.st2{fill:#354EA2;}
	.st3{fill:#23B057;}
	.st4{fill:#FFA623;}
	.st5{fill:#FFFFFF;}
</style>
<path
   d="m 988.30078,316.90039 v 310 h 94.29882 V 448 h 0.8008 l 62.2988,178.90039 h 139.4004 v -310 h -94.2988 V 494.69922 H 1190 l -62.1992,-177.79883 z"
   style="fill:#334fa2"
   id="path44" /><path
   d="m 1514.5996,316.90039 v 310 H 1609 V 448 h 0.6992 L 1672,626.90039 h 139.5 v -310 h -94.4004 v 177.79883 h -0.7988 l -62.2012,-177.79883 z"
   style="fill:#334fa2"
   id="path43" /><path
   d="m 2420.8008,316.90039 v 310 h 94.3984 V 448 h 0.7012 l 62.2988,178.90039 h 139.5 v -310 h -94.2988 V 494.69922 H 2622.5 l -62.1992,-177.79883 z"
   style="fill:#334fa2"
   id="path42" /><path
   d="m 1342.1992,316.90039 v 310 H 1458.5 v -310 z"
   style="fill:#334fa2"
   id="path41" /><path
   d="m 1845.1992,316.90039 v 84.29883 h 74 V 626.90039 H 2035.5 V 401.19922 h 74.1992 v -84.29883 z"
   style="fill:#334fa2"
   id="path40" /><path
   d="m 2767.8008,316.90039 v 310 h 144.7988 c 90.2997,0 148.0996,-57.99989 148.0996,-151.59961 0,-91.89972 -37.4003,-158.40039 -155,-158.40039 z m 113.8984,70.5 h 11.4004 c 18.8,0 31.2996,5.79925 38.5996,18.19922 7.8,12.89996 8.6016,36.30048 8.6016,66.40039 0,29.99991 -0.8016,53.40082 -8.6016,66.30078 -7.3,12.49997 -19.8996,18.19922 -38.5996,18.19922 h -11.4004 z"
   style="fill:#334fa2"
   id="path39" /><path
   d="m 3243,308.69922 c -101.1997,0 -151.7008,66.60146 -151.8008,163.20117 0,96.69971 50.5011,163.19922 151.8008,163.19922 101.2997,0 151.6992,-66.59951 151.6992,-163.19922 0,-96.69971 -50.3995,-163.20117 -151.6992,-163.20117 z m 0,78.60156 c 18.7,0 31.3008,10.49983 31.3008,84.59961 0,75.79977 -13.4008,84.59961 -31.3008,84.59961 -17.8,0 -31.3004,-8.69984 -31.4004,-84.59961 0,-74.09978 12.7004,-84.59961 31.4004,-84.59961 z"
   style="fill:#334fa2"
   id="path38" /><path
   d="m 3588.0508,222.75391 c -2.175,0.0203 -4.575,0.0961 -7.25,0.24609 -40.1999,0.9 -73.0001,12.80046 -98.5,36.40039 -26.7,25.09993 -43,64.00014 -43,110 0,56.59983 30.0994,109.29883 99.1992,109.29883 52.2998,0 91.4004,-39.59859 91.4004,-90.39844 0,-53.09984 -35.6001,-81.30078 -74.5,-81.30078 -20.3,0 -35.3996,4.89964 -47.5996,15.59961 h -1.2012 c 6.7,-23.59993 26.4998,-44.49883 75.5996,-46.79883 8.4,-0.4 14.4016,-0.50156 20.6016,-0.10156 h 0.1 V 223.5 c -3.825,-0.375 -8.3246,-0.80703 -14.8496,-0.74609 z M 3533.5,355.19922 c 21.4,0 29.4,19.00162 29.5,36.60156 0,20.79994 -9.5996,37 -25.5996,37 h -0.3008 c -21.6999,0 -31.1996,-20.80162 -32.5996,-40.60156 0,-7.29998 0.5,-11.69884 2,-14.79883 3.8,-9.99997 14,-18.20117 27,-18.20117 z"
   style="fill:#f01b25"
   id="path37" /><path
   d="m 3731.0996,226.59961 -83,148 V 419 H 3751.5 v 55.59961 h 62.1992 V 419 H 3840 v -51 h -26.3008 V 226.59961 Z m 20.8008,49.30078 h 1.2988 c -0.8,17.29995 -1.6992,33.70044 -1.6992,49.40039 v 42.59961 h -43.4004 l 0.3008,-0.80078 20.4004,-41.29883 c 8.6,-17.19994 15.2996,-33.10044 23.0996,-49.90039 z"
   style="fill:#f01b25"
   id="path36" /><path
   d="m 2144,316.90039 v 309.90039 h 233.8008 V 545.5 H 2258.5996 V 510.69922 H 2365 v -79.5 h -106.4004 v -32.39844 h 115.5996 v -81.90039 z"
   style="fill:#334fa2"
   id="path35" /><path
   d="M 549.40039,46.300781 429.5,92.800781 330.50391,269.5918 429.5,231.69922 l 94.61133,36.1875 h 0.002 l 0.40234,-0.45313 24.88477,-28.03711 z"
   style="fill:#354ea2"
   id="path34" /><path
   d="M 859.09961,164.69922 737.40039,211.59961 V 536.80078 L 558.40039,281 429.5,330.40039 v 527.5 l 128.90039,-54.5 V 622.19922 494.59961 l 179,233.59961 L 859.09961,677 Z"
   style="fill:#354ea2"
   id="path33" /><path
   d="M 121.69922,455.90039 V 728.19922 L 235.89844,677.59961 Z"
   style="fill:#354ea2"
   id="path32" /><path
   d="M 309.59961,46.199219 243.40039,164.69922 300.69922,281 330.50391,269.5918 429.5,92.800781 Z"
   style="fill:#23b057"
   id="path31" /><path
   d="M 615.69922,164.69922 524.11328,267.88672 558.40039,281 l 179,255.80078 V 211.59961 Z"
   style="fill:#23b057"
   id="path30" /><path
   d="M 0,164.69922 V 677 l 121.69922,51.19922 V 455.90039 l 179,347.5 128.80078,54.5 v -527.5 L 300.69922,281 v 267.80078 l -179,-337.20117 z"
   style="fill:#23b057"
   id="path29" /><path
   d="m 243.40039,164.69922 -121.70117,46.90039 179,337.20117 V 281 Z"
   style="fill:#f01b25"
   id="path28" /><path
   d="M 558.40039,494.59961 V 622.19922 L 595,673.5 737.40039,728.19922 Z"
   style="fill:#f01b25"
   id="path27" /><path
   d="M 429.5,231.69922 300.69922,281 429.5,330.40039 558.40039,281 Z"
   style="fill:#ffa623"
   id="path26" /><path
   d="m 737.40039,117.90039 -121.70117,46.79883 121.70117,46.90039 121.69922,-46.90039 z"
   style="fill:#ffa623"
   id="path25" /><path
   d="M 121.69922,117.90039 0,164.69922 121.69922,211.59961 243.40039,164.69922 Z"
   style="fill:#ffa623"
   id="path24" /><path
   d="M 429.5,0 309.59961,46.199219 429.5,92.800781 l 119.90039,-46.5 z"
   style="fill:#ffa623"
   id="path23" />
</svg>
