<?xml version="1.0" encoding="UTF-8" standalone="no"?>
<!-- Generator: Adobe Illustrator 25.0.0, SVG Export Plug-In . SVG Version: 6.00 Build 0)  -->

<svg
   version="1.1"
   id="Layer_1"
   x="0px"
   y="0px"
   viewBox="0 0 3840 549.1"
   style="enable-background:new 0 0 3840 549.1;"
   xml:space="preserve"
   sodipodi:docname="Nintendo DS-08.svg"
   inkscape:version="1.3.2 (091e20e, 2023-11-25)"
   xmlns:inkscape="http://www.inkscape.org/namespaces/inkscape"
   xmlns:sodipodi="http://sodipodi.sourceforge.net/DTD/sodipodi-0.dtd"
   xmlns="http://www.w3.org/2000/svg"
   xmlns:svg="http://www.w3.org/2000/svg"><defs
   id="defs14">
	

		
		
	
			
			
			
			
			
			
			
			
			
		
			
			
		
				
			</defs><sodipodi:namedview
   id="namedview14"
   pagecolor="#ffffff"
   bordercolor="#000000"
   borderopacity="0.25"
   inkscape:showpageshadow="2"
   inkscape:pageopacity="0.0"
   inkscape:pagecheckerboard="0"
   inkscape:deskcolor="#d1d1d1"
   inkscape:zoom="0.18776042"
   inkscape:cx="1917.337"
   inkscape:cy="276.94868"
   inkscape:window-width="1800"
   inkscape:window-height="1037"
   inkscape:window-x="0"
   inkscape:window-y="44"
   inkscape:window-maximized="0"
   inkscape:current-layer="Layer_1" />
<style
   type="text/css"
   id="style1">
	.st0{fill:#929497;}
	.st1{fill:#231F20;}
	.st2{fill:#FFFFFF;}
</style>
<g
   id="g24"><path
     d="M 0,2.6992188 V 260.40039 H 47.699219 V 69.5 L 243.80078,260.40039 h 37.29883 V 2.6992188 H 272.19922 234 V 190.40039 L 40.699219,2.6992188 Z"
     style="fill:#ffffff"
     id="path24" /><path
     d="M 478.30078,2.6992188 V 260.40039 H 526 V 69.5 l 196.09961,190.90039 h 37.30078 V 2.6992188 H 750.5 712.30078 V 190.40039 L 519,2.6992188 Z"
     style="fill:#ffffff"
     id="path23" /><path
     d="M 1469.6992,2.6992188 V 260.40039 h 47.7012 V 69.5 L 1713.5,260.40039 h 37.1992 V 2.6992188 h -8.8984 -38.2012 V 190.40039 L 1510.4004,2.6992188 Z"
     style="fill:#ffffff"
     id="path22" /><path
     d="M 355.90039,2.6992188 V 260.40039 h 47.69922 V 2.6992188 h -8.90039 z"
     style="fill:#ffffff"
     id="path21" /><path
     d="M 813.5,2.6992188 V 47.099609 h 115 V 260.40039 h 49.59961 V 47.099609 H 1093.0996 V 2.6992188 h -8.7988 z"
     style="fill:#ffffff"
     id="path20" /><path
     d="M 1147.1992,2.6992188 V 260.40039 h 251.7012 V 216 h -204.5 v -66.80078 h 158.1992 V 104.90039 H 1194.4004 V 47.099609 h 204.5 V 2.6992188 H 1390 Z"
     style="fill:#ffffff"
     id="path19" /><path
     d="M 1823.4004,2.6992188 V 260.40039 h 191.1992 c 33.3999,0 61.0012,-13.10122 79.7012,-37.70117 17.3999,-22.89996 26.6992,-54.3989 26.6992,-91.29883 0,-36.599926 -9.2993,-68.200045 -26.6992,-90.999999 -18.7,-24.599951 -46.3013,-37.7011722 -79.7012,-37.7011722 z M 1869.4004,47 h 1.4004 H 2016 c 45.7999,0 62.0996,45.600078 62.0996,84.5 0.1,38.99992 -16.2997,84.5 -62.0996,84.5 h -146.5996 z"
     style="fill:#ffffff"
     id="path18" /><path
     d="m 2225,2.6992188 c -30.0999,0 -54.5996,24.7012322 -54.5996,54.7011722 V 205.80078 c 0,29.99994 24.4997,54.59961 54.5996,54.59961 h 207.9004 c 30.0999,0 54.6992,-24.59967 54.6992,-54.59961 V 57.400391 c 0,-29.99994 -24.5993,-54.7011723 -54.6992,-54.7011722 z m 1.8008,44.4003902 h 204.2988 c 5.9,0 10.7012,4.799621 10.7012,10.59961 V 205.5 c 0,5.79999 -4.8012,10.59961 -10.7012,10.59961 h -204.2988 c -5.9,0 -10.7012,-4.79962 -10.7012,-10.59961 V 57.699219 c 0,-5.799989 4.8012,-10.59961 10.7012,-10.59961 z"
     style="fill:#ffffff"
     id="path17" /><path
     d="m 2225,291.5 c -30.0999,0 -54.5996,24.59928 -54.5996,54.69922 v 148.40039 c 0,29.99994 24.4997,54.59961 54.5996,54.59961 h 207.9004 c 30.0999,0 54.6992,-24.59967 54.6992,-54.59961 v -148.5 c 0,-29.99994 -24.5993,-54.59961 -54.6992,-54.59961 z m 1.8008,44.30078 h 204.2988 c 5.9,0 10.7012,4.69962 10.7012,10.59961 v 147.79883 c 0,5.89999 -4.8012,10.70117 -10.7012,10.70117 h -204.2988 c -5.9,0 -10.7012,-4.80118 -10.7012,-10.70117 V 346.40039 c 0,-5.89999 4.8012,-10.59961 10.7012,-10.59961 z"
     style="fill:#929497"
     id="path16" /><path
     d="m 3593,0 c -177.1996,0 -293.5,52.70096 -293.5,142.30078 0,86.49983 96.601,124.8001 228.3008,173.5 98.5998,36.09993 132.8984,56.39851 132.8984,90.89844 0,38.39992 -36.9994,69.10156 -126.1992,69.10156 -81.4998,0 -185.9005,-15.80043 -235.4004,-35.40039 v 91.69922 c 69.4999,11.09998 131.9002,17.09961 222.5,17.09961 220.5996,0 318.4004,-62.89979 318.4004,-150.09961 0,-84.69983 -78.2003,-123.49932 -218.5,-173.69922 -100.9998,-35.99993 -158.4004,-55.90008 -158.4004,-97.5 0,-28.699942 37.3006,-56.499999 124.9004,-56.499999 81.7998,0 134.3993,19.499241 193.6992,30.699219 l -0.3984,-85.000001 C 3720.9009,6.0996314 3688.0998,0 3593,0 Z"
     style="fill:#ffffff"
     id="path15" /><path
     d="M 2547.1992,1.1992187 V 548 h 328.2012 c 85.7999,0 184.1,-14.90041 236,-38.40039 126.7999,-57.19994 167.5992,-148.40048 167.6992,-234.90039 0,-86.59991 -41.2997,-177.898496 -167.5996,-234.898439 C 3059.5001,16.300805 2961.3003,1.1992187 2875.4004,1.1992187 Z m 177.4004,74.0000003 h 105 c 161.0998,0 262.8008,70.500131 262.8008,199.500001 0,128.99987 -101.601,197.90039 -262.8008,197.90039 h -105 z"
     style="fill:#ffffff"
     id="path14" /></g>
</svg>
