<?xml version="1.0" encoding="UTF-8" standalone="no"?>
<!-- Generator: Adobe Illustrator 26.0.3, SVG Export Plug-In . SVG Version: 6.00 Build 0)  -->

<svg
   version="1.1"
   id="Layer_1"
   x="0px"
   y="0px"
   viewBox="0 0 3839 1224.6"
   style="enable-background:new 0 0 3839 1224.6;"
   xml:space="preserve"
   sodipodi:docname="SNK Neo Geo AES'-04.svg"
   inkscape:version="1.3.2 (091e20e, 2023-11-25)"
   xmlns:inkscape="http://www.inkscape.org/namespaces/inkscape"
   xmlns:sodipodi="http://sodipodi.sourceforge.net/DTD/sodipodi-0.dtd"
   xmlns="http://www.w3.org/2000/svg"
   xmlns:svg="http://www.w3.org/2000/svg"><defs
   id="defs43">
	
	

		
		
	
		
	
			
		
			
		
			
		
				
			
				
			
				
				
				
				
				
				
				
				
				
				
				
				
				
				
				
				
				
				
				
				
				
				
				
				
				
				
				
			
					
					
					
					
					
				
					
					
					
				
						
						
					
						
					
						
						
					</defs><sodipodi:namedview
   id="namedview43"
   pagecolor="#ffffff"
   bordercolor="#000000"
   borderopacity="0.25"
   inkscape:showpageshadow="2"
   inkscape:pageopacity="0.0"
   inkscape:pagecheckerboard="0"
   inkscape:deskcolor="#d1d1d1"
   inkscape:zoom="0.18780933"
   inkscape:cx="1916.8377"
   inkscape:cy="612.32316"
   inkscape:window-width="1800"
   inkscape:window-height="1037"
   inkscape:window-x="0"
   inkscape:window-y="44"
   inkscape:window-maximized="0"
   inkscape:current-layer="Layer_1" />
<style
   type="text/css"
   id="style1">
	.st0{fill:#C2AC6D;}
	.st1{fill:#22CDC4;}
	.st2{fill:#FFFFFF;}
</style>
<g
   id="g79"><path
     d="m 0,290.19922 v 25.60156 c 45.299909,0 81.099609,40.89892 81.099609,86.29883 V 845.5 c 0,45.29991 -47.799676,60.40039 -81.099609,60.40039 V 931.5 h 220.40039 v -25.59961 c -41.29992,-0.2 -63.1012,-5.9012 -77.20117,-19.20117 -14.09997,-13.39997 -17.89844,-31.09849 -17.89844,-55.39844 V 415.69922 l 430.5,524.90039 h 23.5 V 382.19922 c 0,-33.09994 25.90008,-61.19961 64,-62.59961 v -29.40039 h -195 v 25.60156 h 25.39844 c 34.09993,0 61.70117,31.79929 61.70117,65.69922 v 316.40039 l -332.5,-407.70117 z"
     style="fill:#c2ac6d"
     id="path79" /><path
     d="m 1943.6992,534.40039 c -41.0895,8.6e-4 -74.3986,33.31091 -74.3984,74.40039 8e-4,41.08872 33.3097,74.39757 74.3984,74.39844 41.0895,2.1e-4 74.3995,-33.30895 74.4004,-74.39844 2e-4,-41.09025 -33.3101,-74.4006 -74.4004,-74.40039 z"
     style="fill:#c2ac6d"
     id="path78" /><path
     d="m 2332,274.19922 c -164.5997,0 -304.9004,152.50193 -304.9004,334.60156 0,209.79958 158.4003,332.69922 328.5,332.69922 80.5998,0 166.1009,-18.60046 233.8008,-52.90039 V 715.40039 c 0,-40.59992 28.3001,-52.90039 66.5,-52.90039 v -31 h -293.3008 v 31 h 24.2012 c 39.2999,0 50.5,19.00046 50.5,52.90039 V 867 c -9,10.99998 -39.7001,24.80078 -83,24.80078 -8.8,0 -59.0001,-1.00084 -96.5,-31.80078 -39.1999,-32.19994 -65.6016,-97.4007 -65.6016,-252.40039 0,-201.7996 71.0006,-287.29883 173.9004,-287.29883 33.4999,0 147.0009,22.5999 195.3008,168.59961 h 30.2988 V 278.30078 h -28.5996 c -3.6,28.29994 -25.9989,43.9984 -68.2988,26.39844 -63.8999,-26.49995 -121.0009,-30.5 -162.8008,-30.5 z"
     style="fill:#c2ac6d"
     id="path77" /><path
     d="m 662.19922,290.19922 v 25.5 h 36.10156 c 27.59995,0 50,26.10162 50,53.60156 v 472.09961 c 0,49.6999 -32.60123,61 -60.20117,61 h -25.90039 v 29.19922 h 86.10156 433.00002 l 29.1992,-198 h -25.3008 c -15.8999,87.89982 -91.6994,156.50078 -176.6992,154.30078 h -73.40039 c -22.99995,0 -41.69922,-18.70122 -41.69922,-41.70117 V 621.40039 H 913.5 c 59.99988,0 98.3008,50.19978 98.3008,136.59961 h 26.2988 V 604.90039 597.09961 446.90039 h -26.2988 c 0,75.99985 -32.10054,130.90039 -98.40041,130.90039 H 893.30078 V 328.69922 h 105.5 c 141.99972,0 146.79882,126.50081 146.79882,142.80078 h 28.3008 V 334.09961 290.19922 Z"
     style="fill:#c2ac6d"
     id="path76" /><path
     d="m 1533.5,283.5 c -184.5996,0 -326.6992,135.90117 -326.6992,331.30078 0,195.39961 142.1996,331.29883 326.6992,331.29883 184.5996,0 326.8008,-135.89922 326.8008,-331.29883 C 1860.3008,419.40117 1718.0996,283.5 1533.5,283.5 Z m 0,42.80078 c 88.6998,0 160.4004,81.20042 160.4004,288.5 0.2,207.19959 -71.7006,288.39844 -160.4004,288.39844 -88.6998,0 -160.4004,-81.20042 -160.4004,-288.5 0,-207.29959 71.9006,-288.39844 160.4004,-288.39844 z"
     style="fill:#c2ac6d"
     id="path75" /><path
     d="m 2640.9004,290.19922 v 25.5 H 2677 c 27.5999,0 50,26.10162 50,53.60156 v 472.09961 c 0,49.6999 -32.5993,61 -60.1992,61 h -25.9004 v 29.19922 H 2727 3160 l 29.1992,-198 h -25.2988 c -15.9,87.89982 -91.7014,156.50078 -176.7012,154.30078 h -73.3984 c -23,0 -41.7012,-18.70122 -41.7012,-41.70117 V 621.40039 h 20.0996 c 59.9999,0 98.3008,50.19978 98.3008,136.59961 h 26.3008 V 604.90039 597.09961 446.90039 H 2990.5 c 0,75.99985 -32.1005,130.90039 -98.4004,130.90039 H 2872 V 328.69922 h 105.5 c 141.9997,0 146.8008,126.50081 146.8008,142.80078 h 28.2988 V 334.09961 290.19922 Z"
     style="fill:#c2ac6d"
     id="path74" /><path
     d="m 3512.1992,283.5 c -184.5996,0 -326.6992,135.90117 -326.6992,331.30078 0,195.39961 142.1996,331.29883 326.6992,331.29883 C 3696.7988,946.09961 3839,810.20039 3839,614.80078 3839,419.40117 3696.7988,283.5 3512.1992,283.5 Z m 0,42.69922 c 88.6998,0 160.4004,81.20041 160.4004,288.5 0.2,207.29958 -71.7006,288.5 -160.4004,288.5 -88.6998,0 -160.3984,-81.20042 -160.3984,-288.5 0,-207.29959 71.8986,-288.5 160.3984,-288.5 z"
     style="fill:#c2ac6d"
     id="path73" /><path
     d="m 162.90039,1053.9004 -42.80078,167.4004 h 40.80078 l 5.90039,-31.9004 h 40.09961 L 213,1221.3008 h 40.80078 l -41.70117,-167.4004 z m 23.40039,30.5 h 0.5 l 14.29883,74.5 H 172.5 Z"
     style="fill:#22cdc4"
     id="path72" /><path
     d="m 264.80078,1053.9004 v 167.4004 h 54.39844 c 51.7999,0 59.5,-28.4017 59.5,-89.1016 0,-58.0999 -16.69969,-78.2988 -55.59961,-78.2988 z M 304.09961,1083 h 11 c 20.79996,0 24.09961,11.0009 24.09961,51.8008 0,50.0999 -6.29965,57.3984 -24.59961,57.3984 h -10.5 z"
     style="fill:#22cdc4"
     id="path71" /><path
     d="m 381.90039,1053.9004 36.79883,167.4004 h 50.20117 l 38,-167.4004 H 464.69922 L 444.5,1183.3008 H 444 l -19.90039,-129.4004 z"
     style="fill:#22cdc4"
     id="path70" /><path
     d="m 537.59961,1053.9004 -42.79883,167.4004 h 40.79883 L 541.5,1189.4004 h 40.09961 l 6.09961,31.9004 H 628.5 l -41.69922,-167.4004 z m 23.40039,30.5 h 0.5 l 14.30078,74.5 h -28.60156 z"
     style="fill:#22cdc4"
     id="path69" /><path
     d="m 639.40039,1053.9004 v 167.4004 h 35.19922 V 1106 h 0.5 l 34.5,115.3008 h 44.5 V 1053.9004 H 717.5 v 108.7988 H 717 l -32.40039,-108.7988 z"
     style="fill:#22cdc4"
     id="path68" /><path
     d="m 828.80078,1050.6992 c -55.79989,0 -58.10156,42.9009 -58.10156,85.8008 0,50.3999 4.00049,88.0996 54.40039,88.0996 48.6999,0 58.80078,-26.9997 58.80078,-63.0996 v -5.9004 h -38 c -0.2,26.1 -1.90042,42.7012 -16.40039,42.7012 -16.39997,0 -18,-12.9017 -18,-62.6016 0,-43.7999 1.39964,-58.7988 17.09961,-58.7988 13.09997,0 15.90039,10.7993 15.90039,35.1992 h 38 v -7 c 0,-39.3999 -18.99929,-54.4004 -53.69922,-54.4004 z"
     style="fill:#22cdc4"
     id="path67" /><path
     d="m 897.59961,1053.9004 v 167.4004 H 997 v -31.9004 h -60 v -38.2012 h 53.90039 v -31.8984 H 937 v -33.5 h 57.40039 v -31.9004 z"
     style="fill:#22cdc4"
     id="path66" /><path
     d="m 1011.4004,1053.9004 0.1,167.4004 h 54.4004 c 51.7999,0 59.5,-28.4017 59.5,-89.1016 0,-58.0999 -16.6997,-78.2988 -55.5996,-78.2988 z m 39.5,29.0996 h 11 c 20.7999,0 24.0996,11.0009 24.0996,51.8008 0,50.0999 -6.2996,57.3984 -24.5996,57.3984 h -10.5996 z"
     style="fill:#22cdc4"
     id="path65" /><path
     d="m 1261.5,1053.9004 v 167.4004 h 99.4004 v -31.9004 h -60 v -38.2012 h 53.9004 v -31.8984 h -53.9004 v -33.5 h 57.4004 v -31.9004 z"
     style="fill:#22cdc4"
     id="path64" /><path
     d="m 1375.1992,1053.9004 v 167.4004 h 35.2012 V 1106 h 0.5 l 34.5,115.3008 h 44.5 v -167.4004 h -36.5996 v 108.7988 h -0.5 l -32.4004,-108.7988 z"
     style="fill:#22cdc4"
     id="path63" /><path
     d="m 1501.0996,1053.9004 v 31.9004 h 35.2012 l -0.1016,135.5 h 39.4004 v -135.5 h 35.2012 v -31.9004 z"
     style="fill:#22cdc4"
     id="path62" /><path
     d="m 1622,1053.9004 v 167.4004 h 99.4004 v -31.9004 h -60 v -38.2012 h 53.9004 v -31.8984 h -53.9004 v -33.5 h 57.4004 v -31.9004 z"
     style="fill:#22cdc4"
     id="path61" /><path
     d="m 1735.8008,1053.9004 0.1,167.4004 h 39.4004 v -69.2012 h 15 c 12.4,0 16.3984,6.1012 16.3984,35.2012 0,18.9999 1.2012,28.4 4.2012,34 h 42.4004 v -2.1016 c -5.6,-2.4 -6.8,-5.5993 -7.5,-38.6992 -0.5,-22.5 -1.9001,-38.1992 -27,-41.6992 v -0.5 c 18.2999,-4.5 28.0996,-16.4008 28.0996,-40.8008 0,-23 -11.5001,-43.5996 -45,-43.5996 z m 39.3984,27.6992 h 12 c 15.7,0 20.4004,8.3996 20.4004,21.0996 0,9.8 -4.2992,21.8008 -20.1992,21.8008 h -12.2012 z"
     style="fill:#22cdc4"
     id="path60" /><path
     d="m 1857.4004,1053.9004 v 31.9004 h 35.1992 v 135.5 H 1932 v -135.5 h 35.0996 v -31.9004 z"
     style="fill:#22cdc4"
     id="path59" /><path
     d="M 1997.5996,1053.9004 1955,1221.3008 h 40.5996 l 5.9004,-31.9004 h 40.0996 l 6.0996,31.9004 H 2088.5 l -41.6992,-167.4004 z m 23.5,30.5 h 0.5 l 14.3008,74.5 h -28.5996 z"
     style="fill:#22cdc4"
     id="path58" /><path
     d="m 2099.8008,1053.9004 v 167.4004 h 39.3984 v -167.4004 z"
     style="fill:#22cdc4"
     id="path57" /><path
     d="m 2159.1992,1053.9004 v 167.4004 h 35.2012 V 1106 h 0.5 l 34.5,115.3008 h 44.5 v -167.4004 h -36.5996 v 108.7988 h -0.5 l -32.4004,-108.7988 z"
     style="fill:#22cdc4"
     id="path56" /><path
     d="m 2294.0996,1053.9004 v 167.4004 h 35.2012 V 1091 h 0.5 l 27,130.3008 h 30.5 L 2412.9004,1091 h 0.5 v 130.3008 H 2450 v -167.4004 h -57 l -19.9004,110 h -0.5 l -20.5996,-110 h -57.6992 z"
     style="fill:#22cdc4"
     id="path55" /><path
     d="m 2470.5996,1053.9004 v 167.4004 H 2570 v -31.9004 h -60 v -38.2012 h 53.9004 v -31.8984 H 2510 v -33.5 h 57.4004 v -31.9004 z"
     style="fill:#22cdc4"
     id="path54" /><path
     d="m 2584.4004,1053.9004 -0.1,167.4004 H 2619.5 V 1106 h 0.5 l 34.5996,115.3008 h 44.5 V 1053.9004 H 2662.5 v 108.7988 h -0.5 l -32.4004,-108.7988 z"
     style="fill:#22cdc4"
     id="path53" /><path
     d="m 2710.1992,1053.9004 v 31.9004 h 35.2012 l -0.1,135.5 h 39.3984 v -135.5 h 35.2012 v -31.9004 z"
     style="fill:#22cdc4"
     id="path52" /><path
     d="m 2999.5,1050.8008 c -40.5999,0 -54.9004,22.4993 -54.9004,49.1992 0,62.5999 72,42.4001 72,78.5 0,9.6 -3.9988,19.9004 -17.7988,19.9004 -13.6,0 -17.1016,-9.6008 -17.1016,-22.3008 v -5.9004 h -38 V 1181 c 0,34.8999 26.5016,43.5996 55.1016,43.5996 36.0999,0 57.1992,-15.1993 57.1992,-53.1992 0,-59.0999 -72,-41.5005 -72,-76.4004 0,-12.1 5.8992,-18 15.6992,-18 5.9,0 9.7,1.9004 12,5.9004 2.4,3.8 3.3008,9.5996 3.3008,17.5996 h 38 v -4 c 0,-25.7999 -14.1001,-45.6992 -53.5,-45.6992 z"
     style="fill:#22cdc4"
     id="path51" /><path
     d="m 3056.9004,1053.9004 42.4004,101.5 h 0.1 v 65.9004 h 39.4004 v -65.9004 l 42.3984,-101.5 H 3139 L 3119.8008,1116 h -0.5 L 3100.5,1053.9004 Z"
     style="fill:#22cdc4"
     id="path50" /><path
     d="m 3238.5,1050.8008 c -40.5999,0 -54.9004,22.4993 -54.9004,49.1992 0,62.5999 72,42.4001 72,78.5 0,9.6 -3.9988,19.9004 -17.7988,19.9004 -13.6,0 -17.1016,-9.6008 -17.1016,-22.3008 v -5.9004 h -38.0996 V 1181 c 0,34.8999 26.4997,43.5996 55.0996,43.5996 36.0999,0 57.2012,-15.1993 57.2012,-53.1992 0,-59.0999 -72,-41.5005 -72,-76.4004 0,-12.1 5.8992,-18 15.6992,-18 5.9,0 9.7,1.9004 12,5.9004 2.4,3.8 3.3008,9.5996 3.3008,17.5996 h 38 v -4 c 0,-25.7999 -14.0005,-45.6992 -53.4004,-45.6992 z"
     style="fill:#22cdc4"
     id="path49" /><path
     d="m 3301.8008,1053.9004 v 31.9004 H 3337 v 135.5 h 39.3008 v -135.5 H 3411.5 v -31.9004 z"
     style="fill:#22cdc4"
     id="path48" /><path
     d="m 3422.6992,1053.9004 v 167.4004 h 99.4004 v -31.9004 h -60 v -38.2012 H 3516 v -31.8984 h -53.9004 v -33.5 H 3519.5 v -31.9004 z"
     style="fill:#22cdc4"
     id="path47" /><path
     d="m 3537,1053.9004 v 167.4004 h 35 V 1091 h 0.5 l 27,130.3008 H 3630 L 3655.5996,1091 h 0.5 v 130.3008 h 36.5996 v -167.4004 h -57 l -19.8984,110 h -0.5 l -20.6016,-110 z"
     style="fill:#22cdc4"
     id="path46" /><path
     d="m 1596.9004,0 c -25,0 -45.2012,24.600842 -45.2012,54.800781 0,30.19994 20.3012,54.599609 45.2012,54.599609 h 125.4004 c 3.1,0 5.5996,3.09884 5.5996,6.79883 0,3.79999 -2.4996,6.80078 -5.5996,6.80078 h -170.6016 v 48 h 191 c 25,0 45.2012,-24.49928 45.2012,-54.69922 0,-30.199938 -20.2012,-54.601561 -45.2012,-54.601561 h -125.3984 c -3.1,0 -5.6016,-2.998836 -5.6016,-6.798828 0,-3.699993 2.5016,-6.900391 5.6016,-6.900391 h 170.5996 V 0 Z"
     style="fill:#ffffff"
     id="path45" /><path
     d="m 1801.3008,0 v 170.90039 h 60 V 63.800781 l 114.2988,107.099609 h 62.0996 V 0 h -60 V 107 L 1863.5,0 Z"
     style="fill:#ffffff"
     id="path44" /><path
     d="m 2051.1992,0 v 170.90039 h 59.9004 V 95.5 l 97.5996,75.40039 h 78.6016 L 2176.5,85.5 2287.3008,0 h -78.6016 l -97.5996,75.300781 V 0 Z"
     style="fill:#ffffff"
     id="path43" /></g>
</svg>
