<?xml version="1.0" encoding="UTF-8" standalone="no"?>
<!-- Generator: Adobe Illustrator 26.0.2, SVG Export Plug-In . SVG Version: 6.00 Build 0)  -->

<svg
   version="1.1"
   id="Layer_1"
   x="0px"
   y="0px"
   viewBox="0 0 3839 1526.6"
   style="enable-background:new 0 0 3839 1526.6;"
   xml:space="preserve"
   sodipodi:docname="Nintendo Entertainment System-04.svg"
   inkscape:version="1.3.2 (091e20e, 2023-11-25)"
   xmlns:inkscape="http://www.inkscape.org/namespaces/inkscape"
   xmlns:sodipodi="http://sodipodi.sourceforge.net/DTD/sodipodi-0.dtd"
   xmlns="http://www.w3.org/2000/svg"
   xmlns:svg="http://www.w3.org/2000/svg"><defs
   id="defs21">
	
	
	

		
		
		
		
		
		
	
		
	
		
		
		
		
		
		
		
		
		
		
		
		
		
	
			
		
				
			</defs><sodipodi:namedview
   id="namedview21"
   pagecolor="#ffffff"
   bordercolor="#666666"
   borderopacity="1.0"
   inkscape:showpageshadow="2"
   inkscape:pageopacity="0.0"
   inkscape:pagecheckerboard="0"
   inkscape:deskcolor="#d1d1d1"
   inkscape:zoom="0.09898411"
   inkscape:cx="1914.4487"
   inkscape:cy="762.74868"
   inkscape:window-width="2048"
   inkscape:window-height="1154"
   inkscape:window-x="0"
   inkscape:window-y="25"
   inkscape:window-maximized="0"
   inkscape:current-layer="Layer_1" />
<style
   type="text/css"
   id="style1">
	.st0{display:none;}
	.st1{display:inline;fill:#FFFFFF;}
	.st2{display:inline;}
	.st3{fill:#2920E2;}
	.st4{fill:#FFFFFF;}
	.st5{fill:#E31E26;}
	.st6{fill:#F4A51C;}
	.st7{fill:#9A9A9A;}
</style>
<g
   id="g40"><path
     d="m 573.19922,0 c -35.5124,-0.14999955 -69.57529,2.9338071 -101.99805,8.921875 -16.21138,2.994034 -32.01224,6.713416 -47.3789,11.119141 -15.36668,4.405724 -30.29966,9.496891 -44.77344,15.232421 -14.47379,5.73553 -28.48878,12.116159 -42.02149,19.09961 -13.53269,6.983451 -26.58352,14.569262 -39.12695,22.71875 -12.54341,8.149487 -24.57999,16.862063 -36.08594,26.095703 -11.50594,9.23364 -22.48206,18.9887 -32.90234,29.22461 -10.42028,10.23591 -20.28584,20.95309 -29.57227,32.10937 -18.57284,22.31259 -34.82987,46.38392 -48.57812,71.88672 -20.62238,38.25422 -35.60052,79.72855 -44.2832,123.31836 -2.89424,14.52994 -5.08934,29.29685 -6.560551,44.25586 -1.471212,14.95901 -2.21875,30.11177 -2.21875,45.41797 0,45.91861 6.686981,90.33223 19.441411,132.19141 21.25738,69.76529 59.37125,132.43569 111.47265,183.14648 20.84057,20.28432 43.91902,38.65415 69.05274,54.80078 12.56685,8.07332 25.64737,15.59146 39.21875,22.51367 13.57136,6.92223 27.63402,13.25003 42.16406,18.94336 14.53003,5.69335 29.52785,10.75199 44.9707,15.13868 15.44285,4.38668 31.33081,8.10128 47.64063,11.10351 32.61962,6.00448 66.92784,9.16211 102.74023,9.16211 H 3262.4004 c 142.6495,0 261.8256,-50.52485 345.3379,-131.66211 62.6342,-60.85294 105.2076,-138.92701 122.5801,-225.81836 5.7907,-28.96378 8.7812,-58.90712 8.7812,-89.51953 -0.1375,-30.76241 -3.25,-60.87567 -9.1465,-90.01758 -5.8965,-29.1419 -14.5762,-57.31297 -25.8496,-84.19336 -5.6367,-13.44019 -11.9227,-26.55787 -18.832,-39.3125 -13.8187,-25.50925 -30.1333,-49.56731 -48.7559,-71.85351 -9.3112,-11.14311 -19.2,-21.84339 -29.6406,-32.06055 -10.4406,-10.21716 -21.4349,-19.95103 -32.957,-29.16211 C 3527.8292,65.95646 3473.2789,37.479537 3411.7949,19.9375 3396.424,15.551991 3380.6201,11.849893 3364.4063,8.8710938 3348.1925,5.892294 3331.5695,3.6364946 3314.5605,2.1445313 3297.5517,0.652568 3280.1566,-0.07499978 3262.4004,0 Z m 1.20117,109.40039 H 3261.1992 c 42.3561,0 81.6621,5.3075 117.5703,15.17188 11.9695,3.28812 23.5618,7.08282 34.7637,11.35546 11.2019,4.27266 22.013,9.02321 32.4219,14.22461 10.4089,5.2014 20.4156,10.85334 30.0058,16.92774 9.5904,6.0744 18.7655,12.57126 27.5118,19.46289 26.2385,20.67489 48.6208,44.9034 66.8027,71.92969 18.1819,27.02628 32.1639,56.85248 41.5996,88.72461 3.1452,10.62403 5.784,21.47444 7.9063,32.52539 2.1223,11.05093 3.7268,22.30252 4.8007,33.72461 1.074,11.42207 1.6172,23.01448 1.6172,34.75195 0,46.94985 -8.6875,91.60052 -25.25,132.16601 -4.1406,10.14138 -8.7725,20.02791 -13.8847,29.63086 -5.1123,9.60295 -10.7051,18.92288 -16.7637,27.93164 -6.0586,9.00877 -12.583,17.70564 -19.5625,26.06446 -6.9795,8.35881 -14.4141,16.3801 -22.2891,24.0332 -15.7499,15.30621 -33.2656,29.14417 -52.4453,41.29297 -9.5898,6.0744 -19.5947,11.72633 -30.0039,16.92773 -10.4092,5.2014 -21.2227,9.95391 -32.4258,14.22657 -33.6092,12.81792 -70.7335,21.32975 -111.0312,24.78515 C 3289.1104,786.40962 3275.3242,787 3261.1992,787 H 574.40039 c -14.19371,0.075 -28.04045,-0.44829 -41.52539,-1.54297 -26.96989,-2.18934 -52.49807,-6.66067 -76.49023,-13.18359 -23.99218,-6.52294 -46.44728,-15.09779 -67.27149,-25.49414 -10.4121,-5.19818 -20.41751,-10.85334 -30.00195,-16.9336 -19.16889,-12.1605 -36.65747,-26.02739 -52.37305,-41.37109 -7.85778,-7.67186 -15.27362,-15.71238 -22.23242,-24.09375 -6.9588,-8.38137 -13.46203,-17.10335 -19.49805,-26.13672 -12.07203,-18.06674 -22.27345,-37.37936 -30.51172,-57.70898 -4.11912,-10.16482 -7.74803,-20.58426 -10.87304,-31.22852 -3.12502,-10.64426 -5.74639,-21.5139 -7.85352,-32.58008 -2.10712,-11.06618 -3.70018,-22.32919 -4.76562,-33.75976 -1.06546,-11.43059 -1.60352,-23.03011 -1.60352,-34.76758 0,-11.73747 0.54324,-23.32664 1.61719,-34.74024 3.22184,-34.24076 11.21879,-66.90204 23.64648,-97.25586 12.4277,-30.3538 29.28642,-58.39944 50.23047,-83.4082 13.9627,-16.6725 29.74199,-31.99506 47.23438,-45.75195 8.74618,-6.87845 17.91946,-13.36701 27.50976,-19.43555 28.77091,-18.2056 61.28314,-32.64353 97.19141,-42.58789 11.96941,-3.31478 24.31596,-6.13107 37.02734,-8.41992 12.71139,-2.28887 25.78899,-4.05083 39.2168,-5.25977 13.42781,-1.20892 27.20746,-1.86445 41.32617,-1.93945 z M 976.19922,235.5 v 86.69922 H 1103.4004 V 235.5 Z M 459,236.59961 v 422 H 589.69922 V 363.80078 L 772.80078,658.59961 H 903.5 v -422 H 773 V 531.40039 L 591.09961,236.59961 Z m 2389.5996,1.20117 c 0.1,-1.2 0.1,89.2002 0.1,154.5 -20.1999,-11.89996 -41.6985,-22.5 -71.3984,-25 -91.4997,-8.29997 -161.7012,72.49866 -161.7012,147.39844 0,97.4997 74.9012,134.40158 86.7012,139.10156 42.7998,20.19994 97.4993,20.19874 146.1992,-10.70117 v 16.70117 h 125 v -422 z m 555.3008,2.29883 c -35.6999,0 -65.4004,28.5005 -65.4004,65.40039 0,35.69989 29.7005,65.40039 65.4004,65.40039 35.6999,0 65.4004,-29.7005 65.4004,-65.40039 0,-36.89989 -29.8005,-65.40039 -65.4004,-65.40039 z m 0,13.09961 c 28.4999,0 52.2988,23.80087 52.2988,52.30078 -0.1,28.59991 -22.5989,52.30078 -52.2988,52.30078 -28.5,0 -52.3008,-23.80087 -52.3008,-52.30078 0,-28.49991 23.8008,-52.30078 52.3008,-52.30078 z m -26.0996,15.5 v 72.5 h 17.7988 V 311.5 h 8.3008 l 14.2988,29.69922 h 19 l -15.5,-32.09961 c 9.6,-3.59999 15.5,-10.69925 15.5,-20.19922 0,-14.29996 -10.6985,-20.20117 -30.8984,-20.20117 z m 17.7988,9.5 h 7.2012 c 10.7,0 15.5,3.5012 15.5,10.70117 1,8.39997 -4.9004,10.69922 -14.4004,10.69922 h -8.3008 z m -1784.5,1.10156 v 57 h -69 V 378 h 69 v 280.59961 h 127.2012 V 378 h 69 v -41.69922 h -69 v -57 z M 3199.4004,359 C 3097.2007,359 3014,429.19988 3014,517.09961 c 0,86.69974 83.2007,158.09961 185.4004,158.09961 102.1997,0 185.4004,-70.19988 185.4004,-158.09961 C 3384.8008,429.19988 3304.1001,359 3199.4004,359 Z m -1222.2012,1.30078 c -103.3997,0 -186.5996,70.19988 -186.5996,158.09961 0,86.69974 83.1999,158.09961 186.5996,158.09961 85.5997,0 158.1012,-48.70059 180.7012,-115.40039 h -126 v 16.70117 c 0,51.19985 -33.3008,63 -52.3008,63 -19,0 -53.5,-11.90015 -53.5,-63 v -58.20117 h 239 c 0,-86.69974 -84.4007,-159.29883 -187.9004,-159.29883 z M 1400.5996,365 c -41.6998,1.2 -77.2,19.00086 -101,42.80078 v -29.70117 h -126 v 280.59961 h 126 V 474.40039 c 0,-24.99992 26.2013,-51.20117 60.7012,-51.20117 34.4998,0 58.1992,27.30124 58.1992,51.20117 v 184.29883 h 126 V 506.5 c 0,-111.79967 -96.2005,-142.7 -143.9004,-141.5 z m 1032,0 c -41.6998,1.2 -77.2,19.00086 -101,42.80078 v -29.70117 h -126 V 658.69922 H 2331.5 V 474.40039 c 0,-24.99992 26.1994,-51.20117 60.6992,-51.20117 34.4999,0 58.2012,27.30124 58.2012,51.20117 v 184.29883 h 126 V 506.5 c -1.1,-111.79967 -97.5009,-142.7 -143.8008,-141.5 z M 976.19922,378 V 658.59961 H 1103.4004 V 378 Z m 2222.10158,15.5 c 24.9999,0 52.2988,17.80014 52.2988,63 v 59.5 59.40039 c 0,45.19987 -26.1989,63 -52.2988,63 -25,0 -52.3008,-19.00013 -52.3008,-63 V 514.69922 456.5 c 0,-43.99987 26.2008,-63 52.3008,-63 z m -1217.4004,1.19922 c 16.7,0 34.4992,8.30123 45.1992,26.20117 8.3,14.29996 8.3008,30.89929 8.3008,54.69922 H 1928.5 c -2.3,-24.99993 -2.3008,-40.39926 7.1992,-54.69922 9.5,-17.79994 28.5012,-25.00117 45.2012,-26.20117 z m 817.9004,17.90039 c 20.1999,0 49.8984,10.70131 49.8984,54.70117 v 49.89844 49.90039 c 0,42.79987 -29.6985,54.70117 -49.8984,54.70117 -20.2,0 -49.9004,-11.9013 -49.9004,-54.70117 v -49.90039 -49.89844 c 0,-43.99986 29.7004,-54.70117 49.9004,-54.70117 z"
     style="fill:#e31e26"
     id="path40" /><path
     d="m 1188.8008,1005.8008 v 79.6992 137.9004 h 72.5996 V 1181 c 0,-7.5 6.1,-13.5 13.5,-13.5 h 98.9004 c 7.5,0 13.5,6.1 13.5,13.5 v 1.3008 41 h 69.2988 v -41 c -0.2,-10.6 -4.6989,-30.1012 -26.7988,-44.7012 19.4999,-12.6 32.5996,-35.0004 32.5996,-60.4004 0,-39.3998 -31.1013,-71.3984 -69.7012,-71.3984 h -15.5 z m 86.3984,52.3984 h 98.9004 c 7.5,0 13.5,6.1 13.5,13.5 v 27.7012 c 0,7.5 -6.1,13.5 -13.5,13.5 h -98.9004 c -7.5,0 -13.5,-6.1 -13.5,-13.5 v -27.7012 c 0,-7.5 6.1,-13.5 13.5,-13.5 z"
     style="fill:#e31e26"
     id="path39" /><path
     d="m 1840.6992,1005.8008 c -35.6998,0 -64.5996,28.8997 -64.5996,64.5996 v 17.4004 135.5996 h 71.2012 v -53.5996 H 1970.5 v 53.5996 h 71.1992 v -135.5996 -17.4004 c 0,-35.6999 -28.8997,-64.5996 -64.5996,-64.5996 h -16.5 -38.5996 -26.1992 -38.6016 z m 24.8008,54.5996 h 30.5 26.1992 30.5 c 9.9,0 17.9004,8.0004 17.9004,17.9004 v 34.5 h -123 v -34.5 c 0,-9.9 8.0004,-17.9004 17.9004,-17.9004 z"
     style="fill:#e31e26"
     id="path38" /><path
     d="m 2090.1992,1005.8008 v 217.5996 h 73.7012 v -217.5996 z"
     style="fill:#e31e26"
     id="path37" /><path
     d="m 2209.0996,1005.8008 v 217.5996 h 70.2012 v -145.8008 c 0,-8.8 7.2,-16 16,-16 h 120.2988 c 8.8,0 16,7.2 16,16 V 1122 1223.4004 h 69 V 1122 v -17.5 -26.3008 -12.5 c -0.1,-33.0998 -26.9001,-59.8984 -60,-59.8984 z"
     style="fill:#e31e26"
     id="path36" /><path
     d="m 2546.6992,1005.8008 v 217.5996 h 64.2012 V 1087.3008 1077 c 0,-8.5 6.9004,-15.4004 15.4004,-15.4004 h 54.8984 c 8.5,0 15.4004,6.9004 15.4004,15.4004 v 26.5 119.9004 h 72.5 V 1087.3008 1077 c 0,-8.5 6.9004,-15.4004 15.4004,-15.4004 h 54.9004 c 8.5,0 15.4004,6.9004 15.4004,15.4004 v 10.3008 136.0996 h 3.5 69 v -153.8008 c -0.1,-35.2999 -28.7005,-63.7988 -63.9004,-63.7988 z"
     style="fill:#e31e26"
     id="path35" /><path
     d="m 3254.0996,1005.8008 v 217.5996 h 70.2012 v -145.8008 c 0,-8.8 7.2,-16 16,-16 h 120.2988 c 8.8,0 16,7.2 16,16 V 1122 1223.4004 h 69 V 1122 v -17.5 -26.3008 -12.5 c -0.1,-33.0998 -26.9001,-59.8984 -60,-59.8984 z"
     style="fill:#e31e26"
     id="path34" /><path
     d="m 289.09961,1005.8008 v 217.5996 h 70.20117 v -145.8008 c 0,-8.8 7.20003,-16 16,-16 h 120.29883 c 8.79997,0 16,7.2 16,16 V 1122 1223.4004 h 69 V 1122 v -17.5 -26.3008 -12.5 c -0.1,-33.0998 -26.9001,-59.8984 -60,-59.8984 z"
     style="fill:#e31e26"
     id="path33" /><path
     d="M 0,1005.8008 V 1159.5 c 0,35.3999 28.600106,64 64,64 h 179.69922 v -55.3008 H 81.300781 c -9.499971,0 -17.201172,-7.6992 -17.201172,-17.1992 0,-9.5 7.701201,-17.1992 17.201172,-17.1992 H 234.19922 v -38.4004 H 81.300781 c -9.499971,0 -17.201172,-7.7012 -17.201172,-17.2012 0,-9.5 7.701201,-17.1992 17.201172,-17.1992 l 162.398439,0.1 v -55.2988 H 64.099609 Z"
     style="fill:#e31e26"
     id="path32" /><path
     d="M 903.30078,1005.8008 V 1159.5 c 0,35.3999 28.60011,64 64,64 H 1147 v -55.3008 H 984.59961 c -9.49997,0 -17.19922,-7.6992 -17.19922,-17.1992 0,-9.5 7.69925,-17.1992 17.19922,-17.1992 H 1137.5 v -38.4004 H 984.59961 c -9.49997,0 -17.19922,-7.7012 -17.19922,-17.2012 0,-9.5 7.69925,-17.1992 17.19922,-17.1992 l 162.40039,0.1 v -55.2988 H 967.40039 Z"
     style="fill:#e31e26"
     id="path31" /><path
     d="M 2967.5,1005.8008 V 1159.5 c 0,35.3999 28.6001,64 64,64 h 179.6992 v -55.3008 h -162.3984 c -9.5,0 -17.2012,-7.6992 -17.2012,-17.1992 0,-9.5 7.7012,-17.1992 17.2012,-17.1992 h 152.8984 v -38.4004 h -152.8984 c -9.5,0 -17.2012,-7.7012 -17.2012,-17.2012 0,-9.5 7.7012,-17.1992 17.2012,-17.1992 l 162.3984,0.1 v -55.2988 h -179.5996 z"
     style="fill:#e31e26"
     id="path30" /><path
     d="M 3577.3008,1005.8008 V 1060.5 h 77 c 8.4,0 15.1992,6.7992 15.1992,15.1992 v 147.7012 h 77.3008 v -147.7012 c 0,-8.4 6.7992,-15.1992 15.1992,-15.1992 h 77 v -54.6992 z"
     style="fill:#e31e26"
     id="path29" /><path
     d="M 1485.1992,1005.8008 V 1060.5 h 77 c 8.4,0 15.2012,6.7992 15.2012,15.1992 v 147.7012 h 77.2988 v -147.7012 c 0,-8.4 6.8012,-15.1992 15.2012,-15.1992 h 77 v -54.6992 z"
     style="fill:#e31e26"
     id="path28" /><path
     d="M 608.90039,1005.8008 V 1060.5 h 77 c 8.39997,0 15.19922,6.7992 15.19922,15.1992 v 147.7012 h 77.30078 v -147.7012 c 0,-8.4 6.79925,-15.1992 15.19922,-15.1992 h 77 v -54.6992 H 870.5 Z"
     style="fill:#e31e26"
     id="path27" /><path
     d="m 1657.5996,1308.9004 c -35.6999,0 -65.4004,29.899 -65.4004,63.2988 0,47.7999 30.9002,65.8008 72.5,65.8008 h 102.2012 c 10.7,0 21.4004,4.7996 21.4004,15.5996 0,9.6 -7.2012,17.9004 -16.7012,17.9004 H 1592 v 55 h 196.0996 c 32.0999,0 65.4004,-26.3009 65.4004,-63.3008 0.1,-44.2998 -35.5997,-65.7988 -73.5996,-65.7988 h -102.2012 c -11.9,0 -20.1992,-4.7996 -20.1992,-15.5996 0,-9.6 7.1992,-17.9004 16.6992,-17.9004 H 1849 v -55 z"
     style="fill:#e31e26"
     id="path26" /><path
     d="m 1074.9004,1309 c -37.9999,0 -69,29.9008 -69,63.3008 0,47.6998 33.3005,65.6992 74.9004,65.6992 h 99.8984 c 11.9,0 21.4004,4.7996 21.4004,15.5996 0,9.5 -9.4988,17.9004 -17.7988,17.9004 h -177.2012 v 55 h 196.0996 c 35.6999,0 67.7012,-26.3009 67.7012,-63.3008 0.2,-44.1998 -34.3005,-65.6992 -75.9004,-65.6992 h -99.9004 c -11.9,0 -21.4004,-4.7996 -21.4004,-15.5996 0,-9.5 9.5008,-17.9004 17.8008,-17.9004 h 174.8008 v -55 z"
     style="fill:#e31e26"
     id="path25" /><path
     d="m 2451.5996,1309 v 217.5996 h 64.2012 V 1390.5 1380.1992 c 0,-8.5 6.8984,-15.3984 15.3984,-15.3984 h 54.9004 c 8.5,0 15.4004,6.8984 15.4004,15.3984 v 26.5 119.9004 H 2674 V 1390.5 1380.1992 c 0,-8.5 6.9004,-15.3984 15.4004,-15.3984 h 54.9004 c 8.5,0 15.3984,6.8984 15.3984,15.3984 v 10.3008 136.0996 h 3.5 69 v -153.7988 c -0.1,-35.2999 -28.6986,-63.8008 -63.8984,-63.8008 z"
     style="fill:#e31e26"
     id="path24" /><path
     d="m 1294.8008,1309 v 79.6992 11.4004 c 0,34.3999 27.8989,62.3008 62.2988,62.3008 h 32.8008 v 64.1992 H 1466 v -64.1992 h 33.4004 c 34.3999,0 62.2988,-27.9009 62.2988,-62.3008 V 1309 H 1560 h -65.4004 -0.4004 v 81.1992 c 0,9.1 -7.3984,16.4004 -16.3984,16.4004 h -97.7012 c -9.1,0 -16.4004,-7.4004 -16.4004,-16.4004 V 1309 h -1.5 z"
     style="fill:#e31e26"
     id="path23" /><path
     d="m 2164.8008,1308.9004 v 153.6992 c 0,35.3999 28.6001,64 64,64 H 2408.5 v -55.2988 h -162.4004 c -9.5,0 -17.1992,-7.7012 -17.1992,-17.2012 0,-9.5 7.6992,-17.1992 17.1992,-17.1992 H 2399 V 1398.5 h -152.9004 c -9.5,0 -17.1992,-7.6992 -17.1992,-17.1992 0,-9.5 7.6992,-17.2012 17.1992,-17.2012 l 162.4004,0.1 v -55.2988 h -179.5996 z"
     style="fill:#e31e26"
     id="path22" /><path
     d="m 1875.5,1308.9004 v 54.6992 h 77 c 8.4,0 15.1992,6.8012 15.1992,15.2012 V 1526.5 H 2045 v -147.6992 c 0,-8.4 6.7992,-15.2012 15.1992,-15.2012 h 77 v -54.6992 z"
     style="fill:#e31e26"
     id="path21" /></g>
</svg>
