<?xml version="1.0" encoding="UTF-8" standalone="no"?>
<!-- Generator: Adobe Illustrator 26.0.2, SVG Export Plug-In . SVG Version: 6.00 Build 0)  -->

<svg
   version="1.1"
   id="Layer_1"
   x="0px"
   y="0px"
   viewBox="0 0 3839 550.3"
   style="enable-background:new 0 0 3839 550.3;"
   xml:space="preserve"
   sodipodi:docname="Nintendo Entertainment System-13 (2).svg"
   inkscape:version="1.3.2 (091e20e, 2023-11-25)"
   xmlns:inkscape="http://www.inkscape.org/namespaces/inkscape"
   xmlns:sodipodi="http://sodipodi.sourceforge.net/DTD/sodipodi-0.dtd"
   xmlns="http://www.w3.org/2000/svg"
   xmlns:svg="http://www.w3.org/2000/svg"><defs
   id="defs20">
	
	
	

		
		
		
		
		
		
		
		
		
		
		
		
		
	
		
	
		
		
		
		
		
		
	</defs><sodipodi:namedview
   id="namedview20"
   pagecolor="#ffffff"
   bordercolor="#000000"
   borderopacity="0.25"
   inkscape:showpageshadow="2"
   inkscape:pageopacity="0.0"
   inkscape:pagecheckerboard="0"
   inkscape:deskcolor="#d1d1d1"
   inkscape:zoom="0.2151602"
   inkscape:cx="1921.8238"
   inkscape:cy="274.21429"
   inkscape:window-width="1800"
   inkscape:window-height="1037"
   inkscape:window-x="0"
   inkscape:window-y="44"
   inkscape:window-maximized="0"
   inkscape:current-layer="Layer_1" />
<style
   type="text/css"
   id="style1">
	.st0{display:none;}
	.st1{display:inline;fill:#FFFFFF;}
	.st2{display:inline;}
	.st3{fill:#2920E2;}
	.st4{fill:#FFFFFF;}
	.st5{fill:#E31E26;}
	.st6{fill:#F4A51C;}
	.st7{fill:#9A9A9A;}
</style>
<g
   id="g39"><path
     d="m 776.09961,408.30078 v 52 90 H 823.5 v -27.70117 c 0,-4.89999 4.0008,-8.79883 8.80078,-8.79883 h 64.59961 c 4.89999,0 8.79883,3.99884 8.79883,8.79883 v 0.80078 26.79883 h 45.20117 v -26.79883 c -0.1,-6.89998 -3.10004,-19.59964 -17.5,-29.09961 12.69997,-8.19997 21.29883,-22.80044 21.29883,-39.40039 0,-25.69992 -20.30008,-46.59961 -45.5,-46.59961 H 899.09961 Z M 832.5,442.40039 H 897 c 4.89999,0 8.80078,3.99884 8.80078,8.79883 v 18.10156 c 0,4.89999 -4.00079,8.79883 -8.80078,8.79883 h -64.5 c -4.89999,0 -8.80078,-3.99884 -8.80078,-8.79883 v -18.10156 c 0,-4.89999 4.00079,-8.79883 8.80078,-8.79883 z"
     style="fill:#e31e26"
     id="path39" /><path
     d="m 1201.5996,408.19922 c -23.2999,0 -42.1992,18.90124 -42.1992,42.20117 v 11.40039 88.5 h 46.5 v -35 h 80.4004 v 35 h 46.5 v -88.5 -11.40039 c 0,-23.29993 -18.8016,-42.20117 -42.1016,-42.20117 h -10.7988 -25.2012 -17.0996 -25.1992 z m 16.2012,35.70117 h 19.8984 17.1016 19.8984 c 6.5,0 11.7012,5.19924 11.7012,11.69922 v 22.5 h -80.3008 v -22.5 c 0,-6.49998 5.2012,-11.69922 11.7012,-11.69922 z"
     style="fill:#e31e26"
     id="path38" /><path
     d="m 1364.5,408.19922 v 142.10156 h 48.0996 V 408.19922 Z"
     style="fill:#e31e26"
     id="path37" /><path
     d="m 1442.0996,408.19922 v 142.10156 h 45.8008 v -95.20117 c 0,-5.69998 4.7004,-10.40039 10.4004,-10.40039 h 78.5 c 5.7,0 10.3984,4.70041 10.3984,10.40039 v 29 66.20117 h 45 V 484.09961 472.69922 455.5 447.30078 c 0.2,-21.59994 -17.3,-39.10156 -39,-39.10156 z"
     style="fill:#e31e26"
     id="path36" /><path
     d="M 1662.5996,408.19922 V 550.30078 H 1704.5 V 461.5 454.80078 c 0,-5.49998 4.4996,-10.10156 10.0996,-10.10156 h 35.8008 c 5.5,0 10.0996,4.50158 10.0996,10.10156 V 472 550.30078 h 47.3008 V 461.5 454.80078 c 0,-5.49998 4.4996,-10.10156 10.0996,-10.10156 h 35.7988 c 5.5,0 10.1016,4.50158 10.1016,10.10156 V 461.5 550.30078 h 2.2988 45 V 449.90039 c -0.2,-23.09993 -18.8989,-41.70117 -41.7988,-41.70117 z"
     style="fill:#e31e26"
     id="path35" /><path
     d="m 2124.3008,408.19922 v 142.10156 h 45.7988 v -95.20117 c 0,-5.69998 4.7004,-10.40039 10.4004,-10.40039 h 78.5 c 5.7,0 10.4004,4.70041 10.4004,10.40039 v 29 66.20117 h 45 V 484.09961 472.69922 455.5 447.30078 c 0.1,-21.59994 -17.4001,-39.10156 -39,-39.10156 z"
     style="fill:#e31e26"
     id="path34" /><path
     d="M 188.69922,408.19922 V 550.30078 H 234.5 v -95.20117 c 0,-5.69998 4.70041,-10.40039 10.40039,-10.40039 h 78.5 c 5.69998,0 10.40039,4.70041 10.40039,10.40039 v 29 66.20117 h 45 V 484.09961 472.69922 455.5 447.30078 c 0.2,-21.59994 -17.30045,-39.10156 -38.90039,-39.10156 z"
     style="fill:#e31e26"
     id="path33" /><path
     d="M 0,408.19922 V 508.5 c 0,23.09993 18.70085,41.80078 41.800781,41.80078 H 159.09961 V 514.19922 H 53.099609 c -6.19998,0 -11.199218,-4.99924 -11.199218,-11.19922 0,-6.19998 4.999238,-11.19922 11.199218,-11.19922 H 152.90039 V 466.69922 H 53.099609 c -6.19998,0 -11.199218,-4.99924 -11.199218,-11.19922 0,-6.19998 4.999238,-11.19922 11.199218,-11.19922 H 159.09961 V 408.19922 H 41.800781 Z"
     style="fill:#e31e26"
     id="path32" /><path
     d="M 589.69922,408.19922 V 508.5 c 0,23.09993 18.70085,41.80078 41.80078,41.80078 h 117.30078 v -36.10156 h -106 c -6.19998,0 -11.20117,-4.99924 -11.20117,-11.19922 0,-6.19998 5.00119,-11.19922 11.20117,-11.19922 h 99.79883 v -25.10156 h -99.79883 c -6.19998,0 -11.20117,-4.99924 -11.20117,-11.19922 0,-6.19998 5.00119,-11.19922 11.20117,-11.19922 h 106 V 408.19922 H 631.5 Z"
     style="fill:#e31e26"
     id="path31" /><path
     d="M 1937.3008,408.19922 V 508.5 c 0,23.09993 18.6989,41.80078 41.7988,41.80078 h 117.3008 v -36.10156 h -106 c -6.2,0 -11.2012,-4.99924 -11.2012,-11.19922 0,-6.19998 5.0012,-11.19922 11.2012,-11.19922 h 99.7988 v -25.10156 h -99.7988 c -6.2,0 -11.2012,-4.99924 -11.2012,-11.19922 0,-6.19998 5.0012,-11.19922 11.2012,-11.19922 h 105.9004 v -36.10156 h -117.2012 z"
     style="fill:#e31e26"
     id="path30" /><path
     d="m 2335.3008,408.19922 v 35.70117 h 50.2988 c 5.5,0 9.9004,4.40041 9.9004,9.90039 v 96.39844 h 50.5 v -96.39844 c 0,-5.49998 4.4004,-9.90039 9.9004,-9.90039 h 50.2988 v -35.70117 h -0.1 z"
     style="fill:#e31e26"
     id="path29" /><path
     d="m 969.59961,408.19922 v 35.70117 h 50.30079 c 5.5,0 9.9004,4.40041 9.9004,9.90039 v 96.39844 h 50.5 v -96.39844 c 0,-5.49998 4.3984,-9.90039 9.8984,-9.90039 H 1140.5 l -0.1,-35.70117 z"
     style="fill:#e31e26"
     id="path28" /><path
     d="m 397.5,408.19922 v 35.70117 h 50.30078 c 5.49999,0 9.89844,4.40041 9.89844,9.90039 v 96.39844 h 50.5 v -96.39844 c 0,-5.49998 4.4004,-9.90039 9.90039,-9.90039 h 50.30078 l -0.0996,-35.70117 z"
     style="fill:#e31e26"
     id="path27" /><path
     d="m 3072.1992,408.19922 c -23.2999,0 -42.6992,19.50084 -42.6992,41.30078 0,31.19991 20.2008,43 47.3008,43 H 3143.5 c 7,0 14,3.09924 14,10.19922 0,6.29998 -4.7004,11.70117 -10.9004,11.70117 h -117.1992 v 35.90039 h 128 c 20.9999,0 42.6992,-17.20085 42.6992,-41.30078 0.1,-28.99991 -23.1996,-43 -48.0996,-43 h -66.6992 c -7.8,0 -13.2012,-3.09924 -13.2012,-10.19922 0,-6.29998 4.7004,-11.70117 10.9004,-11.70117 h 114.0996 v -35.90039 z"
     style="fill:#e31e26"
     id="path26" /><path
     d="m 2691.8008,408.30078 c -24.8,0 -45,19.49889 -45,41.29883 0,31.09991 21.6985,42.90039 48.8984,42.90039 h 65.2012 c 7.8,0 14,3.09924 14,10.19922 0,6.19998 -6.1996,11.70117 -11.5996,11.70117 h -115.7012 v 35.90039 h 128 c 23.3,0 44.2012,-17.20085 44.2012,-41.30078 0.1,-28.89991 -22.4016,-42.90039 -49.6016,-42.90039 H 2705 c -7.8,0 -14,-3.09924 -14,-10.19922 0,-6.19998 6.1996,-11.70117 11.5996,-11.70117 h 114.0996 v -35.89844 z"
     style="fill:#e31e26"
     id="path25" /><path
     d="M 3590.5996,408.30078 V 550.40039 H 3632.5 v -88.80078 -6.69922 c 0,-5.49998 4.4996,-10.09961 10.0996,-10.09961 h 35.8008 c 5.5,0 10.0996,4.49963 10.0996,10.09961 V 472.19922 550.5 h 47.3008 V 461.69922 455 c 0,-5.49998 4.4996,-10.09961 10.0996,-10.09961 h 35.7988 c 5.5,0 10.1016,4.49963 10.1016,10.09961 V 461.69922 550.5 h 2.2988 45 V 449.90039 c -0.2,-22.99993 -18.7989,-41.59961 -41.7988,-41.59961 z"
     style="fill:#e31e26"
     id="path24" /><path
     d="m 3008.5,408.19922 v 0.10156 h -42.6992 -0.3008 v 53 C 2965.5,467.20077 2960.7008,472 2954.8008,472 H 2891 c -5.9,0 -10.6992,-4.79923 -10.6992,-10.69922 v -53 h -1 -44 v 52 7.39844 c 0,22.49993 18.1992,40.70117 40.6992,40.70117 h 21.4004 v 41.90039 h 49.6992 v -41.90039 h 21.8008 c 22.4999,0 40.6992,-18.20124 40.6992,-40.70117 v -59.5 z"
     style="fill:#e31e26"
     id="path23" /><path
     d="M 3403.4004,408.19922 V 508.5 c 0,23.09993 18.6989,41.80078 41.7988,41.80078 H 3562.5 v -36.10156 h -106 c -6.2,0 -11.1992,-4.99924 -11.1992,-11.19922 0,-6.19998 4.9992,-11.19922 11.1992,-11.19922 h 99.8008 V 466.69922 H 3456.5 c -6.2,0 -11.1992,-4.99924 -11.1992,-11.19922 0,-6.19998 4.9992,-11.19922 11.1992,-11.19922 h 105.9004 v -36.10156 h -117.2012 z"
     style="fill:#e31e26"
     id="path22" /><path
     d="m 3214.5,408.19922 v 35.70117 h 50.3008 c 5.5,0 9.8984,4.40041 9.8984,9.90039 v 96.39844 h 50.5 v -96.39844 c 0,-5.49998 4.4004,-9.90039 9.9004,-9.90039 h 50.3008 v -35.70117 h -0.1 z"
     style="fill:#e31e26"
     id="path21" /><path
     d="m 358.90039,0 v 60.199219 h 88.29883 V 0 Z M 0,0.80078125 V 293.59961 H 90.699219 V 89 L 217.69922,293.59961 h 90.70117 V 0.80078125 H 217.80078 V 205.13867 L 91.699219,0.80078125 Z M 1658,1.5996094 c 0.1,-0.79999846 0.1,61.9012646 0.1,107.2011706 -14,-8.29998 -28.9,-15.600784 -49.5,-17.30078 -63.4998,-5.799988 -112.1992,50.30088 -112.1992,102.30078 0,67.69986 51.9992,93.3 60.1992,96.5 29.7,13.99998 67.7004,13.99957 101.4004,-7.40039 V 294.5 h 86.6992 V 1.5996094 Z M 799.30078,30.400391 V 70 h -47.90039 v 28.900391 h 47.90039 V 293.59961 h 88.29883 V 98.900391 H 935.5 v -29 h -47.90039 v -39.5 z M 1901.5,85.699219 c -70.8998,0 -128.5996,48.701291 -128.5996,109.701171 0,60.19988 57.6998,109.69922 128.5996,109.69922 70.8998,0 128.5996,-48.69934 128.5996,-109.69922 0,-60.99988 -55.9998,-109.701171 -128.5996,-109.701171 z m -848.0996,0.90039 c -71.69988,0 -129.50001,48.701291 -129.50001,109.701171 0,60.19988 57.70013,109.69922 129.50001,109.69922 59.3998,0 109.7004,-33.79971 125.4004,-80.09961 h -87.4004 V 237.5 c 0,35.49992 -23.1008,43.69922 -36.3008,43.69922 -13.2,0 -37.0996,-8.2993 -37.0996,-43.69922 v -40.40039 h 165.8008 c 0,-60.19988 -58.6006,-110.500001 -130.4004,-110.500001 z m -400.09962,3.300782 c -28.89994,0.799998 -53.6016,13.199259 -70.10156,29.699219 V 99 h -87.39844 v 194.69922 h 87.39844 V 165.80078 c 0,-17.29996 18.20162,-35.5 42.10156,-35.5 23.89996,0 40.39844,18.90004 40.39844,35.5 v 127.89844 h 87.40039 V 188.09961 c 0.1,-77.59984 -66.69889,-99.099217 -99.79883,-98.199219 z m 716.09962,0 c -28.9,0.799998 -53.5996,13.199259 -70.0996,29.699219 V 99 h -87.4004 v 194.69922 h 87.4004 V 165.80078 c 0,-17.29996 18.1996,-35.5 42.0996,-35.5 23.9,0 40.4004,18.90004 40.4004,35.5 v 127.89844 h 87.3984 V 188.09961 c -0.8,-77.59984 -67.6988,-99.099217 -99.7988,-98.199219 z m -1010.50001,9 V 293.59961 h 88.29883 V 98.900391 Z M 1900.6992,109.59961 c 17.3,0 36.3008,12.40123 36.3008,43.70117 v 41.29883 41.20117 c 0,31.39994 -18.2008,43.69922 -36.3008,43.69922 -17.3,0 -36.2988,-13.19928 -36.2988,-43.69922 v -42.10156 -40.39844 c 0,-30.49994 18.1988,-43.70117 36.2988,-43.70117 z M 1056,110.40039 c 11.6,0 23.9004,5.79924 31.4004,18.19922 5.8,9.89998 5.7988,21.40004 5.7988,38 h -73.5 c -1.7,-17.29996 -1.6996,-28.00002 4.9004,-38 6.6,-12.39998 19.8004,-17.29922 31.4004,-18.19922 z m 567.5,12.5 c 14,0 34.5996,7.40006 34.5996,38 V 195.5 230.09961 c 0,29.69994 -20.5996,38 -34.5996,38 -14,0 -34.5996,-8.30006 -34.5996,-38 V 195.5 160.90039 c 0,-30.49994 20.5996,-38 34.5996,-38 z"
     style="fill:#e31e26"
     id="path20" /></g>
</svg>
