<?xml version="1.0" encoding="UTF-8" standalone="no"?>
<!-- Generator: Adobe Illustrator 25.0.0, SVG Export Plug-In . SVG Version: 6.00 Build 0)  -->

<svg
   version="1.1"
   id="Layer_1"
   x="0px"
   y="0px"
   viewBox="0 0 3840 1434.8"
   style="enable-background:new 0 0 3840 1434.8;"
   xml:space="preserve"
   sodipodi:docname="SNK Neo Geo Pocket Color-03.svg"
   inkscape:version="1.3.2 (091e20e, 2023-11-25)"
   xmlns:inkscape="http://www.inkscape.org/namespaces/inkscape"
   xmlns:sodipodi="http://sodipodi.sourceforge.net/DTD/sodipodi-0.dtd"
   xmlns="http://www.w3.org/2000/svg"
   xmlns:svg="http://www.w3.org/2000/svg"><defs
   id="defs14">
	
	

		
		
		
		
		
	
		
		
		
		
		
		
		
		
		
		
		
		
	
			
			
			
			
		</defs><sodipodi:namedview
   id="namedview14"
   pagecolor="#ffffff"
   bordercolor="#666666"
   borderopacity="1.0"
   inkscape:showpageshadow="2"
   inkscape:pageopacity="0.0"
   inkscape:pagecheckerboard="0"
   inkscape:deskcolor="#d1d1d1"
   inkscape:zoom="0.1609375"
   inkscape:cx="1916.8932"
   inkscape:cy="717.6699"
   inkscape:window-width="2048"
   inkscape:window-height="1154"
   inkscape:window-x="0"
   inkscape:window-y="25"
   inkscape:window-maximized="0"
   inkscape:current-layer="Layer_1" />
<style
   type="text/css"
   id="style1">
	.st0{fill:#11A73B;}
	.st1{fill:#00A0E9;}
	.st2{fill:#E60019;}
	.st3{fill:#FFFFFF;}
</style>
<g
   id="g33"><path
     d="M 306.59961,776.90039 V 813 v 100.80078 36.09961 109.69921 36.2012 h 0.70117 35.5 141.79883 v -36.2012 H 342.80078 V 949.90039 h 132.5 v -0.30078 -35.79883 h -132.5 V 813 H 484.59961 V 776.90039 H 342.80078 Z"
     style="fill:#ffffff"
     id="path33" /><path
     d="M 1243,776.90039 V 813 v 100.80078 36.09961 109.69921 36.2012 h 0.6992 35.4004 H 1421 v -36.2012 H 1279.0996 V 949.90039 h 132.5996 v -0.30078 -35.79883 H 1279.0996 V 813 H 1421 v -36.09961 h -141.9004 z"
     style="fill:#ffffff"
     id="path32" /><path
     d="M 3350.6992,776.90039 V 813 v 100.80078 36.09961 109.69921 36.2012 h 0.7012 35.4004 141.8984 v -36.2012 H 3386.8008 V 949.90039 h 132.5996 v -0.30078 -35.79883 H 3386.8008 V 813 h 141.8984 v -36.09961 h -141.8984 z"
     style="fill:#ffffff"
     id="path31" /><path
     d="M 0,776.90039 V 1095.8008 H 36.099609 V 831.19922 L 220.19922,1095.8008 h 35.20117 V 776.90039 H 219.30078 V 1031.1992 L 42.400391,776.90039 Z"
     style="fill:#ffffff"
     id="path30" /><path
     d="M 3579.8008,776.90039 V 813 h 112 v 282.8008 H 3728 V 813 h 112 v -36.09961 h -112 -36.1992 z"
     style="fill:#ffffff"
     id="path29" /><path
     d="m 3055.5996,776.90039 v 318.90041 h 36.0996 v -91.1016 L 3134.5,961.90039 3268.4004,1095.8008 H 3319.5 L 3160.0996,936.30078 3319.5,776.90039 h -51.0996 L 3091.6992,953.59961 V 776.90039 Z"
     style="fill:#ffffff"
     id="path28" /><path
     d="m 675.19922,767.80078 c -93.09973,0 -168.5,75.50028 -168.5,168.5 0,92.99972 75.50027,168.50002 168.5,168.50002 92.99972,0 168.5,-75.5003 168.5,-168.50002 0,-92.99972 -75.50028,-168.5 -168.5,-168.5 z m 0,35.5 c 73.49978,0 133,59.60022 133,133 0,73.39982 -59.60022,133.00002 -133,133.00002 -73.49978,0 -133,-59.6002 -133,-133.00002 0,-73.39978 59.60022,-133 133,-133 z"
     style="fill:#ffffff"
     id="path27" /><path
     d="m 1620.6992,767.80078 c -93.0997,0 -168.5,75.50028 -168.5,168.5 0,92.99972 75.5003,168.50002 168.5,168.50002 93.0997,0 168.5,-75.5003 168.5,-168.50002 0,-92.99972 -75.4003,-168.5 -168.5,-168.5 z m 0,35.5 c 73.4998,0 133,59.60022 133,133 0,73.39982 -59.5002,133.00002 -133,133.00002 -73.4997,0 -133,-59.6002 -133,-133.00002 0,-73.39978 59.6003,-133 133,-133 z"
     style="fill:#ffffff"
     id="path26" /><path
     d="m 2504.5996,767.80078 c -93.0997,0 -168.5,75.50028 -168.5,168.5 0,92.99972 75.5003,168.50002 168.5,168.50002 93.0997,0 168.5,-75.5003 168.5,-168.50002 0,-92.99972 -75.5003,-168.5 -168.5,-168.5 z m 0,35.5 c 73.4998,0 133,59.60022 133,133 0,73.39982 -59.6002,133.00002 -133,133.00002 -73.4997,0 -133,-59.6002 -133,-133.00002 0,-73.39978 59.6003,-133 133,-133 z"
     style="fill:#ffffff"
     id="path25" /><path
     d="m 1043.5,767.80078 c -93.09972,0 -168.5,75.50028 -168.5,168.5 0,92.99972 75.50028,168.50002 168.5,168.50002 91.0997,0 165.2004,-72.3019 168.4004,-162.60158 h -35.8008 -184.69921 v 36.10156 h 178.19921 c -17.6,52.79982 -67.3998,91.00002 -126.0996,91.00002 -73.49978,0 -133,-59.6002 -133,-133.00002 0,-73.39978 59.60022,-133 133,-133 45.6999,0 86,23.09933 110,58.19922 h 41 c -27.5999,-55.49983 -84.8002,-93.69922 -151,-93.69922 z"
     style="fill:#ffffff"
     id="path24" /><path
     d="m 2872.9004,767.80078 c -93.0997,0 -168.5,75.50028 -168.5,168.5 0,92.99972 75.5003,168.50002 168.5,168.50002 66.5998,0 124.2,-38.6013 151.5,-94.7012 H 2983.5 c -23.9,35.6999 -64.4994,59.2012 -110.6992,59.2012 -73.4998,0 -133,-59.6002 -133,-133.00002 0,-73.39978 59.6002,-133 133,-133 46.1998,0 86.7992,23.49933 110.6992,59.19922 h 40.9004 c -27.4,-56.09983 -84.9002,-94.69922 -151.5,-94.69922 z"
     style="fill:#ffffff"
     id="path23" /><path
     d="M 2401.5996,66.199219 2289.5,283.30078 2344.9004,317.90039 2491,122.09961 Z"
     style="fill:#11a73b"
     id="path22" /><path
     d="M 2574.0996,200.59961 2391.9004,363.40039 2431.1992,415.5 2637.5996,284.69922 Z"
     style="fill:#00a0e9"
     id="path21" /><path
     d="m 2193,0 -32.6992,242.09961 63.6992,14 71.9004,-233.500001 z"
     style="fill:#e60019"
     id="path20" /><path
     d="m 2101.9531,357.42187 c -37.836,0.55626 -76.1415,9.42233 -112.2539,27.47852 l -188.5,94.29883 -71.5996,35.90039 -14.1992,7.09961 344.6992,688.80078 85.8008,-43 -301.8008,-603 188.5,-94.30078 c 80.7997,-40.39988 179.3013,-7.49937 219.7012,73.40039 40.3998,80.79976 7.6982,179.09973 -73.1016,219.59961 0,0 -13.3992,6.2 -20.1992,8.5 l -110.6992,-95.5 21.3984,-67.69922 120,-1.30078 -1,-96 -189.5,2.10156 -61.5,194.39844 4.3008,3.70117 208.1992,179.90039 c 19.8,-9.89997 81.3008,-46.60156 81.3008,-46.60156 121.6997,-66.8998 169.6998,-218.70038 107,-344 -46.2155,-92.3591 -139.8547,-145.19891 -236.5469,-143.77735 z"
     style="fill:#e60019"
     id="path19" /><path
     d="m 1439.8008,1252.9004 c -55.3999,0 -91.7012,44.099 -91.7012,90.7988 0,48.7999 38.3006,91.2012 91.9004,91.2012 40.9999,0 75.1008,-25.7998 85.8008,-62.0996 l -37.2012,-0.1016 c -3.3,6.4 -17.499,31.1016 -48.7988,31.1016 -33.4,0 -56.4004,-28.2013 -56.4004,-60.2012 0,-30.9999 22.0993,-59.6992 56.1992,-59.6992 27.9,0.3 43.6,19.9 49,32 h 37.2012 c -6.9,-25.6 -35.5002,-62.7 -86,-63 z"
     style="fill:#ffffff"
     id="path18" /><path
     d="m 1712.1992,1252.9004 c -48.7998,0 -91.8984,36.2005 -91.8984,92.4004 v 0.2988 c 0,46.8999 37.8994,89.3008 91.6992,89.3008 53.4998,0 92.4004,-41.2002 92.4004,-91 0,-49.7999 -39.1013,-91 -92.2012,-91 z m 0.3008,31 c 35.7999,0 56.5996,30.7993 56.5996,60.1992 0,28.9 -20.8005,59.7012 -56.4004,59.7012 -34.0998,0 -57.0996,-27.9005 -57.0996,-59.9004 v -0.3008 c 0,-30.7999 21.8005,-59.6992 56.9004,-59.6992 z"
     style="fill:#ffffff"
     id="path17" /><path
     d="M 1908.6992,1256.1992 V 1431.5 h 92.9004 v -31 H 1944 v -144.3008 z"
     style="fill:#ffffff"
     id="path16" /><path
     d="m 2180.3008,1252.9004 c -48.7999,0 -91.9004,36.2005 -91.9004,92.4004 v 0.2988 c 0,46.8999 37.8994,89.3008 91.6992,89.3008 53.4999,0 92.4004,-41.2002 92.4004,-91 0,-49.7999 -39.0994,-91 -92.1992,-91 z m 0.2988,31 c 35.6999,0 56.5996,30.7993 56.5996,60.1992 0,28.9 -20.7986,59.7012 -56.3984,59.7012 -34.1,0 -57.1016,-27.9005 -57.1016,-59.9004 v -0.3008 c 0,-30.7999 21.8005,-59.6992 56.9004,-59.6992 z"
     style="fill:#ffffff"
     id="path15" /><path
     d="m 2416.5996,1256.1992 -49.6992,0.1016 v 178.5 H 2402.5 v -67.5 l 49.5996,67.5 h 39.7012 l -51.6016,-68.5 c 9.3,-2.1 13.6004,-3.3016 17.9004,-5.1016 2.3,-1 8.4012,-3.6988 14.2012,-8.7988 5.4,-4.8 7.5984,-8.6004 9.3984,-11.4004 6.6,-10.9 7.1016,-22.7996 7.1016,-27.0996 0,-4.8 -0.7008,-18.6996 -8.8008,-31.0996 -2.8,-4.3 -6.5996,-8.6004 -10.5996,-11.9004 -15.7,-13.2 -33.1008,-14.2012 -52.8008,-14.7012 z m -13.7988,29.6016 h 16.8984 c 12.1,0.3 24.3016,1.2984 32.1016,11.8984 4.6,6.3 4.7988,13.1004 4.7988,15.9004 0,8.6 -3.5996,13.9004 -5.5996,16.4004 -8.4,10.1 -21.0008,10.5996 -24.8008,10.5996 -2,0.3 -3.7988,0.3008 -5.7988,0.3008 h -17.7012 z"
     style="fill:#ffffff"
     id="path14" /></g>
</svg>
