<?xml version="1.0" encoding="UTF-8" standalone="no"?>
<!-- Generator: Adobe Illustrator 26.0.2, SVG Export Plug-In . SVG Version: 6.00 Build 0)  -->

<svg
   version="1.1"
   id="Layer_1"
   x="0px"
   y="0px"
   viewBox="0 0 3839 693.3"
   style="enable-background:new 0 0 3839 693.3;"
   xml:space="preserve"
   sodipodi:docname="NEC TurboGrafx-16-02.svg"
   inkscape:version="1.3.2 (091e20e, 2023-11-25)"
   xmlns:inkscape="http://www.inkscape.org/namespaces/inkscape"
   xmlns:sodipodi="http://sodipodi.sourceforge.net/DTD/sodipodi-0.dtd"
   xmlns="http://www.w3.org/2000/svg"
   xmlns:svg="http://www.w3.org/2000/svg"><defs
   id="defs12">
	
	

		
		
		
	
			
			
			
			
			
		
			
			
			
			
		
			
			
		
				
				
			</defs><sodipodi:namedview
   id="namedview12"
   pagecolor="#ffffff"
   bordercolor="#000000"
   borderopacity="0.25"
   inkscape:showpageshadow="2"
   inkscape:pageopacity="0.0"
   inkscape:pagecheckerboard="0"
   inkscape:deskcolor="#d1d1d1"
   inkscape:zoom="0.18780933"
   inkscape:cx="1916.8377"
   inkscape:cy="-15.973648"
   inkscape:window-width="1800"
   inkscape:window-height="1037"
   inkscape:window-x="0"
   inkscape:window-y="44"
   inkscape:window-maximized="0"
   inkscape:current-layer="Layer_1" />
<style
   type="text/css"
   id="style1">
	.st0{display:none;}
	.st1{display:inline;}
	.st2{fill:#FF6427;}
	.st3{fill:#EAD900;}
	.st4{fill:#FFFFFF;}
</style>
<g
   id="g25"><path
     d="M 1987.4004,99.400391 V 134.5 v 21.80078 198.5 56.89844 270 h 56.9004 v -270 h 24.0996 l 47.2988,270 h 56.9004 l -47.4004,-270.79883 c 26.9,-4.49997 47.4004,-27.89973 47.4004,-56.09961 v -198.5 c 0,-31.39988 -25.5004,-56.900389 -56.9004,-56.900389 z m 56.9004,56.900389 h 71.3984 v 198.5 h -71.3984 z"
     style="fill:#ead900"
     id="path25" /><path
     d="m 2373,99.400391 c -31.3999,0 -56.9004,25.500479 -56.9004,56.900389 v 198.5 56.89844 270 H 2373 v -270 h 71.0996 v 270 H 2501 v -270 -56.89844 -198.5 c 0,-31.39991 -25.5005,-56.900389 -56.9004,-56.900389 z m 0,56.900389 h 71.0996 v 198.5 H 2373 Z"
     style="fill:#ead900"
     id="path24" /><path
     d="m 1692.3008,0 c -31.4,0 -56.9004,25.500484 -56.9004,56.900391 V 624.80078 c 0,31.39991 25.5004,56.89844 56.9004,56.89844 h 71.0996 56.9004 v -56.89844 -279.5 -56.90039 h -92.4004 v 56.90039 h 35.5 v 279.5 h -71.0996 V 56.900391 h 71.0996 V 134.5 h 56.9004 V 56.900391 C 1820.3008,25.500484 1794.8003,0 1763.4004,0 Z"
     style="fill:#ead900"
     id="path23" /><path
     d="m 2713.3008,99.400391 c -31.4,0 -56.9004,25.500479 -56.9004,56.900389 v 198.5 56.89844 270 h 56.9004 v -270 H 2798.5 v -56.89844 h -85.1992 v -198.5 H 2798.5 V 99.400391 h -14.1992 z"
     style="fill:#ead900"
     id="path22" /><path
     d="M 2926.1992,99.400391 V 282.59961 c 0,13.29996 27.6016,60.80053 57.1016,107.90039 -29.6,47.09986 -57.1016,94.60043 -57.1016,107.90039 v 183.19922 h 56.9004 V 498.5 c 0,0 15.4,-22.4997 35.5,-53.09961 20.1,30.59991 35.5,53.09961 35.5,53.09961 V 681.69922 H 3111 V 498.5 c 0.1,-13.39996 -27.4997,-60.90014 -57.0996,-108 C 3083.4003,343.50014 3111,295.99957 3111,282.59961 V 99.400391 h -56.9004 V 282.59961 c 0,0 -15.4,22.4997 -35.5,53.09961 -20.1,-30.59991 -35.5,-53.09961 -35.5,-53.09961 V 99.400391 Z"
     style="fill:#ead900"
     id="path21" /><path
     d="M 0,0 V 56.900391 H 64 V 681.69922 h 56.90039 V 56.900391 h 64 V 0 Z"
     style="fill:#ff6427"
     id="path20" /><path
     d="M 289.5,99.400391 V 624.80078 c 0,31.39991 25.50048,56.89844 56.90039,56.89844 h 70.40039 c 31.39991,0 56.89844,-25.49853 56.89844,-56.89844 V 99.400391 H 416.80078 V 624.80078 H 346.40039 V 99.400391 Z"
     style="fill:#ff6427"
     id="path19" /><path
     d="M 630.59961,99.400391 V 134.5 v 21.80078 198.5 56.89844 270 H 687.5 v -270 h 24.09961 l 47.30078,270 h 56.90039 L 768.40039,410.90039 c 26.89992,-4.49998 47.40039,-27.8997 47.40039,-56.09961 v -198.5 c 0,-31.39991 -25.50048,-56.900389 -56.90039,-56.900389 z M 687.5,156.30078 h 71.40039 v 198.5 H 687.5 Z"
     style="fill:#ff6427"
     id="path18" /><path
     d="m 1352.6992,99.400391 c -31.3998,0 -56.8984,25.500479 -56.8984,56.900389 v 468.5 c 0,31.39991 25.4986,56.89844 56.8984,56.89844 h 71.1016 c 31.3998,0 56.8984,-25.49853 56.8984,-56.89844 v -468.5 c 0.1,-31.39991 -25.3986,-56.900389 -56.8984,-56.900389 z m 0,56.900389 h 71.1016 v 468.5 h -71.1016 z"
     style="fill:#ff6427"
     id="path17" /><path
     d="M 3536.3008,87.900391 C 3369.1242,87.899749 3233.6,223.42303 3233.5996,390.59961 c -6e-4,167.17734 135.5238,302.70181 302.7012,302.70117 C 3703.4774,693.30034 3839.0006,557.77619 3839,390.59961 3838.9996,223.4238 3703.4766,87.900828 3536.3008,87.900391 Z M 3338,255.69922 H 3370.3008 3407 v 34.60156 200.5 h 32.4004 v 34.59961 H 3338 v -34.59961 h 32.3008 v -200.5 H 3338 Z m 159.9004,0 h 210.7988 l 25.9004,25.90039 v 41.09961 H 3700 v -32.39844 h -193.4004 v 82.89844 h 202.0996 l 25.9004,25.90039 v 100.5 L 3708.6992,525.5 H 3497.9004 L 3472,499.59961 v -91.69922 -34.59961 -91.70117 z m 8.6992,152.20117 v 82.90039 H 3700 v -82.90039 z"
     style="fill:#ff6427"
     id="path16" /><path
     d="m 3338,255.69922 v 34.60156 h 32.3008 v 200.5 H 3338 v 34.59961 h 101.4004 V 490.80078 H 3407 v -200.5 -34.60156 h -36.6992 z"
     style="fill:#ffffff"
     id="path15" /><path
     d="M 3497.9004,255.69922 3472,281.59961 v 91.70117 34.59961 91.69922 L 3497.9004,525.5 h 210.7988 l 25.9004,-25.90039 v -100.5 l -25.9004,-25.90039 H 3506.5996 V 290.30078 H 3700 v 32.39844 h 34.5996 v -41.09961 l -25.9004,-25.90039 z m 8.6992,152.20117 H 3700 v 82.90039 h -193.4004 z"
     style="fill:#ffffff"
     id="path14" /><path
     d="m 967,99.400391 v 45.699219 11.20117 198.5 56.89844 213.10156 56.89844 H 1023.9004 1095 c 31.4,0 56.9004,-25.4985 56.9004,-56.89844 V 440.09961 c 0,-31.39994 -3.1,-56.90039 -34.5,-56.90039 31.4,0 34.5,-25.4985 34.5,-56.89844 v -170 c 0,-31.39994 -25.5004,-56.900389 -56.9004,-56.900389 z m 56.9004,56.900389 h 71 v 198.5 h -71 z m 0,255.39844 h 71 v 213.10156 h -71 z"
     style="fill:#ff6427"
     id="path13" /></g>
</svg>
