<?xml version="1.0" encoding="UTF-8" standalone="no"?>
<!-- Generator: Adobe Illustrator 25.0.0, SVG Export Plug-In . SVG Version: 6.00 Build 0)  -->

<svg
   version="1.1"
   id="Layer_1"
   x="0px"
   y="0px"
   viewBox="0 0 3840 472.3"
   style="enable-background:new 0 0 3840 472.3;"
   xml:space="preserve"
   sodipodi:docname="Nintendo PokeÌmon Mini-02.svg"
   inkscape:version="1.3.2 (091e20e, 2023-11-25)"
   xmlns:inkscape="http://www.inkscape.org/namespaces/inkscape"
   xmlns:sodipodi="http://sodipodi.sourceforge.net/DTD/sodipodi-0.dtd"
   xmlns="http://www.w3.org/2000/svg"
   xmlns:svg="http://www.w3.org/2000/svg"><defs
   id="defs15">
	
	

		
		
		
		
		
		
	
		
		
		
		
		
		
		
		
	</defs><sodipodi:namedview
   id="namedview15"
   pagecolor="#ffffff"
   bordercolor="#000000"
   borderopacity="0.25"
   inkscape:showpageshadow="2"
   inkscape:pageopacity="0.0"
   inkscape:pagecheckerboard="0"
   inkscape:deskcolor="#d1d1d1"
   inkscape:zoom="0.26553333"
   inkscape:cx="1920.6629"
   inkscape:cy="237.25835"
   inkscape:window-width="1800"
   inkscape:window-height="1037"
   inkscape:window-x="0"
   inkscape:window-y="44"
   inkscape:window-maximized="0"
   inkscape:current-layer="Layer_1" />
<style
   type="text/css"
   id="style1">
	.st0{fill:#FFE900;}
	.st1{fill:#FFFFFF;}
</style>
<g
   id="g28"><path
     d="m 2682.4004,171.5 c -25.7,0 -46.5,20.80008 -46.5,46.5 v 28 18.5 156.90039 c 0,25.69992 20.8,46.5 46.5,46.5 25.6999,0 46.5,-20.80008 46.5,-46.5 V 264.5 h 70.7988 26.5 v 156.90039 c 0,25.69992 20.8001,46.5 46.5,46.5 25.7,0 46.5,-20.80008 46.5,-46.5 V 264.5 H 3016.5 v 156.90039 c 0,25.69992 20.8001,46.5 46.5,46.5 25.6999,0 46.5,-20.80008 46.5,-46.5 V 264.5 250 218 c 0.2,-25.69992 -20.7004,-46.5 -46.4004,-46.5 h -229.6992 -33.7012 z"
     style="fill:#ffe900"
     id="path28" /><path
     d="m 3423.5996,171.5 c -25.6999,0 -46.5,20.80008 -46.5,46.5 v 28 18.5 156.90039 c 0,25.69992 20.8001,46.5 46.5,46.5 25.7,0 46.5,-20.80008 46.5,-46.5 V 264.5 h 97.3008 v 156.90039 c 0,25.69992 20.8,46.5 46.5,46.5 25.6999,0 46.5,-20.80008 46.5,-46.5 V 264.5 250 218 c 0,-25.69992 -20.9001,-46.5 -46.5,-46.5 z"
     style="fill:#ffe900"
     id="path27" /><path
     d="m 3243.3008,174.09961 c -25.7,0 -46.5,20.80008 -46.5,46.5 0,25.69992 20.8,46.5 46.5,46.5 25.6999,0 46.5,-20.80008 46.5,-46.5 0,-25.69992 -20.8001,-46.5 -46.5,-46.5 z"
     style="fill:#ffe900"
     id="path26" /><path
     d="m 3793.5,174.09961 c -25.6999,0 -46.5,20.80008 -46.5,46.5 0,25.69992 20.8001,46.5 46.5,46.5 25.6999,0 46.5,-20.80008 46.5,-46.5 0,-25.69992 -20.8001,-46.5 -46.5,-46.5 z"
     style="fill:#ffe900"
     id="path25" /><path
     d="m 3243.3008,297.90039 c -25.7,0 -46.5,20.80008 -46.5,46.5 v 77 c 0,25.69992 20.8,46.5 46.5,46.5 25.6999,0 46.5,-20.80008 46.5,-46.5 v -77 c 0,-25.69992 -20.8001,-46.5 -46.5,-46.5 z"
     style="fill:#ffe900"
     id="path24" /><path
     d="m 3793.5,297.90039 c -25.6999,0 -46.5,20.80008 -46.5,46.5 v 77 c 0,25.69992 20.8001,46.5 46.5,46.5 25.6999,0 46.5,-20.80008 46.5,-46.5 v -77 c 0,-25.69992 -20.8001,-46.5 -46.5,-46.5 z"
     style="fill:#ffe900"
     id="path23" /><path
     d="M 0,73.400391 V 465.5 H 104.5 V 328.40039 h 40.40039 C 242.6001,328.40039 300.5,281.19976 300.5,202 300.5,113.80027 244.39886,73.400391 124.69922,73.400391 Z m 104.5,74.199219 h 27 c 35.99989,0 64.59961,12.9009 64.59961,52.80078 0,40.99988 -28.59972,53.90039 -64.59961,53.90039 h -27 z"
     style="fill:#ffffff"
     id="path22" /><path
     d="m 486.69922,166.09961 c -86.89974,0 -153.09961,56.20068 -153.09961,153.40039 0,96.59971 66.19987,152.80078 153.09961,152.80078 86.99973,0 153.20117,-56.20107 153.20117,-152.80078 0,-97.19971 -66.30144,-153.40039 -153.20117,-153.40039 z m 0,70.80078 c 41.89987,0 59.10156,38.79974 59.10156,82.59961 0,43.19987 -17.20169,82 -59.10156,82 -41.89988,0 -59.09961,-38.70013 -59.09961,-82 0,-43.79987 17.19973,-82.59961 59.09961,-82.59961 z"
     style="fill:#ffffff"
     id="path21" /><path
     d="M 689,44.199219 V 465.5 h 91 V 320.59961 h 1 l 72.80078,145 H 964 l -99.09961,-158.40039 91.5,-134.29883 h -99.59961 l -75.80078,123 h -1 V 44.199219 Z"
     style="fill:#ffffff"
     id="path20" /><path
     d="m 1496.6992,166.09961 c -41.3998,0 -77.8,18.6013 -96,60.70117 h -1 v -53.90039 h -82.8984 -0.2012 v 292.69922 h 91 V 342 c 0,-62.99981 19.2998,-91.59961 51.5996,-91.59961 25.8,0 36.4004,24.80049 36.4004,57.90039 v 157.29883 h 91 V 342 c 0,-62.99981 19.2998,-91.59961 51.5996,-91.59961 25.8,0 36.4004,24.80049 36.4004,57.90039 v 157.29883 h 91 v -172.5 c 0,-79.29976 -17.2002,-127 -93,-127 -37.3999,0 -72.3,16.90129 -93.5,56.20117 -14.2,-38.19988 -45.0005,-56.20117 -82.4004,-56.20117 z"
     style="fill:#ffffff"
     id="path19" /><path
     d="m 1967.9004,166.09961 c -86.8997,0 -153.0996,56.20068 -153.0996,153.40039 0,96.59971 66.1999,152.80078 153.0996,152.80078 86.9997,0 153.1992,-56.20107 153.1992,-152.80078 0,-97.19971 -66.2995,-153.40039 -153.1992,-153.40039 z m 0.1,70.80078 c 41.8999,0 59.0996,38.79974 59.0996,82.59961 0,43.19987 -17.1997,82 -59.0996,82 -41.8999,0 -59.0996,-38.70013 -59.0996,-82 0,-43.79987 17.1997,-82.59961 59.0996,-82.59961 z"
     style="fill:#ffffff"
     id="path18" /><path
     d="m 2350.0996,166.09961 c -41.3998,0 -77.8,18.6013 -96,60.70117 h -1 v -53.90039 h -82.9004 -0.1 v 292.69922 h 91 V 342 c 0,-62.99981 19.1998,-91.59961 56.5996,-91.59961 24.8,0 42,18.59977 42,73.59961 v 141.5 h 91 V 282.90039 c 0,-60.59982 -28.7998,-116.80078 -100.5996,-116.80078 z"
     style="fill:#ffffff"
     id="path17" /><path
     d="m 1131.3008,166 c -81.8998,0 -141.00002,56.10107 -141.00002,152.80078 0,96.69971 66.19992,153.39844 153.09962,153.39844 33.8999,0 67.2997,-5.60004 96.5996,-18.5 v -71.29883 c -27.2999,16.29995 -55.6004,22.5 -80.4004,22.5 -44.3998,0 -72.1988,-15.80129 -77.2988,-56.20117 V 348.5 h 181.8984 V 330 c 0,-86.99974 -35.3987,-164 -132.8984,-164 z m 0.3984,64.19922 c 36.3999,0 50.6016,27.50127 50.6016,61.20117 h -101.1016 c 2,-33.6999 17.7002,-61.20117 50.5,-61.20117 z"
     style="fill:#ffffff"
     id="path16" /><path
     d="m 1180.6992,0 -154.0996,84.5 22.3008,57.59961 c 4.6,-1.1 163.1992,-70.199219 163.1992,-70.199219 z"
     style="fill:#ffffff"
     id="path15" /></g>
</svg>
