<?xml version="1.0" encoding="UTF-8" standalone="no"?>
<!-- Created with Inkscape (http://www.inkscape.org/) -->

<svg
   width="198.80299mm"
   height="36.103504mm"
   viewBox="0 0 198.803 36.103504"
   version="1.1"
   id="svg1"
   inkscape:version="1.3.2 (091e20e, 2023-11-25)"
   sodipodi:docname="ports.svg"
   xmlns:inkscape="http://www.inkscape.org/namespaces/inkscape"
   xmlns:sodipodi="http://sodipodi.sourceforge.net/DTD/sodipodi-0.dtd"
   xmlns="http://www.w3.org/2000/svg"
   xmlns:svg="http://www.w3.org/2000/svg">
  <sodipodi:namedview
     id="namedview1"
     pagecolor="#ffffff"
     bordercolor="#666666"
     borderopacity="1.0"
     inkscape:showpageshadow="2"
     inkscape:pageopacity="0.0"
     inkscape:pagecheckerboard="0"
     inkscape:deskcolor="#d1d1d1"
     inkscape:document-units="mm"
     inkscape:zoom="1.5755454"
     inkscape:cx="364.00094"
     inkscape:cy="99.013333"
     inkscape:window-width="1800"
     inkscape:window-height="1037"
     inkscape:window-x="0"
     inkscape:window-y="44"
     inkscape:window-maximized="0"
     inkscape:current-layer="svg1" />
  <defs
     id="defs1">
    <rect
       x="208.57771"
       y="177.54366"
       width="510.25758"
       height="100.31938"
       id="rect3" />
    <inkscape:path-effect
       effect="fillet_chamfer"
       id="path-effect4"
       is_visible="true"
       lpeversion="1"
       nodesatellites_param="F,0,1,1,0,0.91239422,0,1 @ F,0,1,1,0,0.91239422,0,1 @ F,0,0,1,0,0.91239422,0,1 @ F,0,1,1,0,0.91239422,0,1"
       radius="0"
       unit="px"
       method="auto"
       mode="F"
       chamfer_steps="1"
       flexible="false"
       use_knot_distance="true"
       apply_no_radius="true"
       apply_with_radius="true"
       only_selected="false"
       hide_knots="false" />
    <rect
       x="161.12437"
       y="124.85653"
       width="611.797"
       height="108.209"
       id="rect2" />
    <rect
       x="166.48387"
       y="161.4389"
       width="548.2196"
       height="127.8058"
       id="rect1" />
    <inkscape:path-effect
       effect="fillet_chamfer"
       id="path-effect4-9"
       is_visible="true"
       lpeversion="1"
       nodesatellites_param="F,0,1,1,0,0.91239422,0,1 @ F,0,1,1,0,0.91239422,0,1 @ F,0,0,1,0,0.91239422,0,1 @ F,0,1,1,0,0.91239422,0,1"
       radius="0"
       unit="px"
       method="auto"
       mode="F"
       chamfer_steps="1"
       flexible="false"
       use_knot_distance="true"
       apply_no_radius="true"
       apply_with_radius="true"
       only_selected="false"
       hide_knots="false" />
    <inkscape:path-effect
       effect="fillet_chamfer"
       id="path-effect4-6"
       is_visible="true"
       lpeversion="1"
       nodesatellites_param="F,0,1,1,0,0.91239422,0,1 @ F,0,1,1,0,0.91239422,0,1 @ F,0,0,1,0,0.91239422,0,1 @ F,0,1,1,0,0.91239422,0,1"
       radius="0"
       unit="px"
       method="auto"
       mode="F"
       chamfer_steps="1"
       flexible="false"
       use_knot_distance="true"
       apply_no_radius="true"
       apply_with_radius="true"
       only_selected="false"
       hide_knots="false" />
  </defs>
  <g
     id="g4"
     transform="translate(27.305409)">
    <text
       xml:space="preserve"
       transform="matrix(0.26458333,0,0,0.26458333,-1.9095566,-2.7688571)"
       id="text1"
       style="font-style:italic;font-weight:800;font-size:85.3333px;font-family:Nunito;-inkscape-font-specification:'Nunito Ultra-Bold Italic';white-space:pre;shape-inside:url(#rect3);display:inline;fill:#0057ff;stroke:#f9ffff;stroke-width:3.77953;stroke-miterlimit:0" />
    <path
       id="text4"
       style="color:#000000;-inkscape-font-specification:'Nunito Ultra-Bold Italic';fill:#fafafa;stroke-linecap:round;stroke-miterlimit:0;stroke-dasharray:1.5;-inkscape-stroke:none"
       d="m 122.02666,9.3446493 c -0.21921,0.00134 -0.4383,0.010174 -0.65732,0.026355 a 0.5,0.5 0 0 0 -0.46302,0.5353679 0.5,0.5 0 0 0 0.53485,0.4609539 c 0.38877,-0.02872 0.78174,-0.03035 1.17202,-0.0062 l 0.25218,0.01964 a 0.5,0.5 0 0 0 0.53692,-0.458887 0.5,0.5 0 0 0 -0.46096,-0.5369181 l -0.25166,-0.019637 -0.006,-0.00207 c -0.21858,-0.013742 -0.4376,-0.019946 -0.65681,-0.018603 z m -45.698502,0.0031 c -0.497229,0.011596 -0.995926,0.055969 -1.492416,0.144694 a 0.5,0.5 0 0 0 -0.40411,0.5798092 0.5,0.5 0 0 0 0.580327,0.40411 c 0.437378,-0.07816 0.882963,-0.117899 1.333769,-0.128674 h 0.07441 A 0.5,0.5 0 0 0 76.914168,9.8417765 0.5,0.5 0 0 0 76.410323,9.3477498 h -0.07441 z m 1.654162,0.083716 a 0.5,0.5 0 0 0 -0.566374,0.4237467 0.5,0.5 0 0 0 0.425814,0.5668906 l 0.240296,0.03514 0.232544,0.03876 0.226342,0.04703 0.222726,0.05064 0.218591,0.05891 0.212907,0.06408 0.01964,0.0062 A 0.5,0.5 0 0 0 79.847839,10.40815 0.5,0.5 0 0 0 79.53313,9.7756307 l -0.02739,-0.00982 -0.0155,-0.00413 -0.228409,-0.07028 -0.0155,-0.00413 -0.232544,-0.062012 -0.0155,-0.00207 -0.236678,-0.056844 -0.0155,-0.00207 -0.242363,-0.050643 -0.01344,-0.00207 -0.245979,-0.042891 -0.01602,-0.00207 z m 11.561568,0.1576131 c -0.140001,0.0035 -0.286072,0.014119 -0.438216,0.036174 a 0.5,0.5 0 0 0 -0.422196,0.5663737 0.5,0.5 0 0 0 0.566373,0.423747 c 0.383006,-0.05552 0.884939,0.04069 1.482597,-0.02532 a 0.5,0.5 0 0 0 0.441317,-0.55087 0.5,0.5 0 0 0 -0.552421,-0.4433843 c -0.293906,0.032463 -0.65745,-0.01722 -1.077454,-0.00672 z m -32.912203,0.00207 c -0.139572,0.00386 -0.285096,0.013952 -0.436149,0.035657 a 0.5,0.5 0 0 0 -0.424263,0.5648234 0.5,0.5 0 0 0 0.566373,0.423747 c 0.3875,-0.05568 0.886019,0.03418 1.476913,-0.02532 A 0.5,0.5 0 0 0 58.26156,10.042798 0.5,0.5 0 0 0 57.714823,9.5957967 c -0.299579,0.030166 -0.664421,-0.016222 -1.083138,-0.00465 z m 2.633948,0.00258 a 0.5,0.5 0 0 0 -0.500228,0.5002283 0.5,0.5 0 0 0 0.500228,0.499711 H 60.7658 A 0.5,0.5 0 0 0 61.265511,10.093958 0.5,0.5 0 0 0 60.7658,9.5937297 Z m 32.910136,0 a 0.5,0.5 0 0 0 -0.500228,0.5002283 0.5,0.5 0 0 0 0.500228,0.499711 h 1.500167 a 0.5,0.5 0 0 0 0.499711,-0.499711 0.5,0.5 0 0 0 -0.499711,-0.5002283 z m 11.761561,0 a 0.5,0.5 0 0 0 -0.49972,0.5002283 0.5,0.5 0 0 0 0.49972,0.499711 h 1.50016 a 0.5,0.5 0 0 0 0.50023,-0.499711 0.5,0.5 0 0 0 -0.50023,-0.5002283 z m 3.00033,0 a 0.5,0.5 0 0 0 -0.50023,0.5002283 0.5,0.5 0 0 0 0.50023,0.499711 h 1.49965 a 0.5,0.5 0 0 0 0.50023,-0.499711 0.5,0.5 0 0 0 -0.50023,-0.5002283 z m 2.99982,0 a 0.5,0.5 0 0 0 -0.50023,0.5002283 0.5,0.5 0 0 0 0.50023,0.499711 h 1.50016 a 0.5,0.5 0 0 0 0.49971,-0.499711 0.5,0.5 0 0 0 -0.49971,-0.5002283 z m 2.99981,0 a 0.5,0.5 0 0 0 -0.49971,0.5002283 0.5,0.5 0 0 0 0.49971,0.499711 h 1.1467 c 0.10147,3.6e-5 0.1982,0.0042 0.29094,0.0155 a 0.5,0.5 0 0 0 0.55656,-0.435116 0.5,0.5 0 0 0 -0.43564,-0.557072 c -0.1409,-0.017215 -0.27801,-0.023207 -0.41186,-0.023254 z m 11.54917,0.027388 a 0.5,0.5 0 0 0 -0.5917,0.3886068 0.5,0.5 0 0 0 0.39016,0.591695 c 0.46245,0.09464 0.91494,0.226677 1.34979,0.400492 a 0.5,0.5 0 0 0 0.6506,-0.279052 0.5,0.5 0 0 0 -0.27956,-0.64854 c -0.49379,-0.1973758 -1.00219,-0.3473764 -1.51929,-0.4532018 z m -4.68395,0.00207 c -0.50505,0.1294332 -1.01512,0.2944038 -1.50585,0.5291668 a 0.5,0.5 0 0 0 -0.2341,0.666109 0.5,0.5 0 0 0 0.66611,0.236161 c 0.4121,-0.197143 0.85882,-0.34435 1.32188,-0.46302 a 0.5,0.5 0 0 0 0.35967,-0.6092656 0.5,0.5 0 0 0 -0.60771,-0.3591512 z m -24.58765,0.00207 a 0.5,0.5 0 0 0 -0.536918,0.4604367 0.5,0.5 0 0 0 0.458887,0.537435 c 0.472431,0.037 0.935671,0.109689 1.37666,0.236161 A 0.5,0.5 0 0 0 97.132572,10.517704 0.5,0.5 0 0 0 96.788924,9.8986206 C 96.268256,9.7492955 95.738786,9.6662893 95.21486,9.6252523 Z m -32.912203,0.00362 a 0.5,0.5 0 0 0 -0.536918,0.4588864 0.5,0.5 0 0 0 0.458887,0.538986 c 0.473644,0.03739 0.939018,0.109419 1.382861,0.232543 a 0.5,0.5 0 0 0 0.61495,-0.349332 0.5,0.5 0 0 0 -0.347266,-0.6154665 C 63.355079,9.7502093 62.825322,9.6701274 62.302657,9.6288696 Z m 40.043033,0.015503 c -0.31478,0.060514 -0.62898,0.1877305 -0.90227,0.3968754 -0.27912,0.209511 -0.47748,0.489674 -0.59945,0.790649 a 0.5,0.5 0 0 0 0.27492,0.650606 0.5,0.5 0 0 0 0.65268,-0.275435 c 0.0614,-0.151565 0.15818,-0.282809 0.2713,-0.36742 l 0.006,-0.0036 c 0.13095,-0.100709 0.30037,-0.173946 0.48421,-0.209289 a 0.5,0.5 0 0 0 0.39635,-0.585494 0.5,0.5 0 0 0 -0.58394,-0.3968754 z m -29.039053,0.2656168 -0.01344,0.0062 -0.199471,0.080099 -0.01344,0.00568 -0.195337,0.08423 h -0.0021 c -0.347021,0.151051 -0.686114,0.326022 -1.011825,0.525033 a 0.5,0.5 0 0 0 -0.165881,0.685746 0.5,0.5 0 0 0 0.687296,0.165881 c 0.283699,-0.173342 0.581123,-0.324946 0.888835,-0.458887 l 0.189136,-0.08216 0.179834,-0.07235 a 0.5,0.5 0 0 0 0.297139,-0.640271 0.5,0.5 0 0 0 -0.640787,-0.2992066 z m 14.523144,0.4376996 a 0.5,0.5 0 0 0 -0.326078,0.203088 c -0.272428,0.380813 -0.391785,0.812216 -0.444934,1.214913 l -0.06666,0.419613 a 0.5,0.5 0 0 0 0.413928,0.572575 0.5,0.5 0 0 0 0.572575,-0.415996 l 0.07028,-0.431498 0.0021,-0.01395 c 0.03913,-0.296445 0.125831,-0.565488 0.267684,-0.763777 a 0.5,0.5 0 0 0 -0.115238,-0.697115 h -5.17e-4 a 0.5,0.5 0 0 0 -0.373104,-0.08785 z m -32.920471,0.0021 a 0.5,0.5 0 0 0 -0.31936,0.208773 c -0.258312,0.37855 -0.371612,0.800946 -0.423747,1.195276 v 0.0041 l -0.07028,0.431498 a 0.5,0.5 0 0 0 0.413928,0.572058 0.5,0.5 0 0 0 0.574125,-0.415995 l 0.06821,-0.435116 0.0021,-0.01395 c 0.0385,-0.29858 0.121515,-0.570746 0.259933,-0.773596 a 0.5,0.5 0 0 0 -0.130742,-0.695048 0.5,0.5 0 0 0 -0.374137,-0.07803 z m 25.70179,0.02325 a 0.5,0.5 0 0 0 -0.302307,0.234611 0.5,0.5 0 0 0 0.185519,0.681612 l 0.06821,0.04082 0.1757,0.109554 0.170016,0.115238 0.163814,0.118856 0.158647,0.125057 0.153995,0.129191 0.146762,0.134359 0.05064,0.05271 a 0.5,0.5 0 0 0 0.706934,-0.0036 0.5,0.5 0 0 0 -0.0021,-0.706933 l -0.05839,-0.05684 -0.01395,-0.01344 -0.160197,-0.148828 -0.0155,-0.01137 -0.165881,-0.142627 -0.0155,-0.01189 -0.172083,-0.136425 -0.0155,-0.01189 -0.179834,-0.130741 -0.01344,-0.0098 -0.185519,-0.125057 -0.01602,-0.0098 -0.191202,-0.119373 -0.0155,-0.0098 -0.07648,-0.04496 A 0.5,0.5 0 0 0 80.6111,10.37301 Z m 34.84025,0.08217 a 0.5,0.5 0 0 0 -0.35347,0.613399 c 0.0247,0.09162 0.0249,0.232969 0.008,0.413928 -0.0255,0.229141 -0.0963,0.439521 -0.20878,0.593762 a 0.5,0.5 0 0 0 0.10904,0.699183 0.5,0.5 0 0 0 0.69763,-0.109554 c 0.0826,-0.113304 0.0814,-0.244843 0.13643,-0.366903 a 0.5,0.5 0 0 0 0.13694,0.630452 0.5,0.5 0 0 0 0.69143,-0.150378 c 0.2403,-0.374914 0.54293,-0.711439 0.89039,-0.993738 a 0.5,0.5 0 0 0 0.0744,-0.705383 0.5,0.5 0 0 0 -0.70538,-0.07235 c -0.40529,0.329283 -0.74999,0.727905 -1.04077,1.16427 0.073,-0.194788 0.19115,-0.3827 0.21291,-0.578259 l 0.002,-0.0078 c 0.0209,-0.213669 0.0432,-0.481539 -0.0372,-0.77928 a 0.5,0.5 0 0 0 -0.6134,-0.3514 z m -50.445499,0.02739 a 0.5,0.5 0 0 0 -0.314192,0.218592 0.5,0.5 0 0 0 0.148311,0.69143 c 0.370801,0.239212 0.699123,0.542381 0.947229,0.892452 a 0.5,0.5 0 0 0 0.697115,0.119373 0.5,0.5 0 0 0 0.119373,-0.697632 c -0.330162,-0.46585 -0.75293,-0.853967 -1.221115,-1.156002 a 0.5,0.5 0 0 0 -0.376721,-0.06821 z m 32.909619,0.01757 a 0.5,0.5 0 0 0 -0.31781,0.212907 0.5,0.5 0 0 0 0.14056,0.692981 c 0.369401,0.245307 0.69584,0.552091 0.947229,0.904338 a 0.5,0.5 0 0 0 0.699182,0.117305 0.5,0.5 0 0 0 0.115239,-0.697115 c -0.329535,-0.461745 -0.746194,-0.849376 -1.208712,-1.156518 a 0.5,0.5 0 0 0 -0.375688,-0.0739 z m 29.16359,0.233061 a 0.5,0.5 0 0 0 -0.32917,0.194303 0.5,0.5 0 0 0 0.0997,0.70125 l 0.0196,0.01395 0.0625,0.05633 0.0563,0.05684 0.0491,0.05684 0.0408,0.06046 0.0372,0.06615 c 0.0378,0.07679 0.0685,0.148789 0.0858,0.21084 l 0.0176,0.07028 0.0119,0.07235 0.006,0.07028 0.002,0.07441 -0.004,0.0801 a 0.5,0.5 0 0 0 0.47698,0.523482 0.5,0.5 0 0 0 0.52296,-0.474906 l 0.004,-0.09767 v -0.03514 l -0.002,-0.109038 -0.002,-0.03721 -0.01,-0.107487 -0.006,-0.03721 -0.0181,-0.10542 -0.008,-0.03514 -0.0253,-0.10542 -0.004,-0.0155 c -0.0419,-0.150032 -0.0991,-0.282566 -0.15813,-0.400493 l -0.0155,-0.02739 -0.0568,-0.09974 -0.0233,-0.03514 -0.0667,-0.0956 -0.0253,-0.03307 -0.0739,-0.08992 -0.0274,-0.02946 -0.0842,-0.08578 -0.0269,-0.02739 -0.092,-0.0801 -0.0295,-0.02119 -0.0346,-0.02739 a 0.5,0.5 0 0 0 -0.37001,-0.09508 z m -56.124735,0.705383 a 0.5,0.5 0 0 0 -0.358634,0.133842 l -0.101803,0.09354 -0.0057,0.0062 c -0.348199,0.332864 -0.668436,0.694173 -0.954981,1.083655 a 0.5,0.5 0 0 0 0.10542,0.699182 0.5,0.5 0 0 0 0.699183,-0.10542 c 0.251096,-0.3413 0.534264,-0.660978 0.841809,-0.954981 l 0.0956,-0.08992 a 0.5,0.5 0 0 0 0.02739,-0.706933 0.5,0.5 0 0 0 -0.3483,-0.159164 z m 30.491165,0.526066 a 0.5,0.5 0 0 0 -0.37104,0.09198 0.5,0.5 0 0 0 -0.10594,0.699183 c 0.12822,0.173776 0.28599,0.30825 0.44959,0.41031 h 0.002 c 0.42575,0.262363 0.892,0.317234 1.29862,0.31626 a 0.5,0.5 0 0 0 0.50023,-0.499711 0.5,0.5 0 0 0 -0.50229,-0.500228 c -0.30475,7.3e-4 -0.57846,-0.04931 -0.76946,-0.165881 -0.0748,-0.04669 -0.13454,-0.101522 -0.17364,-0.154513 a 0.5,0.5 0 0 0 -0.32814,-0.197404 z m 21.22041,0.322461 a 0.5,0.5 0 0 0 -0.53899,0.45682 0.5,0.5 0 0 0 0.45682,0.539502 l 0.0491,0.0036 0.20309,0.02326 0.20723,0.02945 0.2067,0.03514 0.21704,0.04496 c 0.18693,0.04672 0.35574,0.08028 0.4961,0.119372 a 0.5,0.5 0 0 0 0.61701,-0.347782 0.5,0.5 0 0 0 -0.34778,-0.615466 c -0.2037,-0.05673 -0.38622,-0.09123 -0.54105,-0.130742 l -0.0233,-0.0036 -0.22427,-0.04703 -0.0139,-0.0021 -0.22273,-0.03927 -0.0155,-0.0015 -0.22066,-0.03359 -0.0139,-0.0021 -0.22066,-0.02325 -0.0155,-0.0021 z m -63.455044,0.03721 a 0.5,0.5 0 0 0 -0.499711,0.499711 0.5,0.5 0 0 0 0.499711,0.500228 h 1.500167 a 0.5,0.5 0 0 0 0.499711,-0.500228 0.5,0.5 0 0 0 -0.499711,-0.499711 z m 17.30282,0 c -0.200478,-1e-6 -0.40147,0.0115 -0.603581,0.03307 h -0.0098 l -0.177767,0.0217 -0.01757,0.0036 -0.173633,0.02946 -0.01964,0.0021 -0.170016,0.03514 -0.01964,0.0057 -0.165881,0.04134 -0.01964,0.0036 -0.0155,0.0062 a 0.5,0.5 0 0 0 -0.339514,0.618567 0.5,0.5 0 0 0 0.620634,0.340031 l 0.0062,-0.0021 0.146244,-0.03514 0.148828,-0.03101 0.153996,-0.02532 0.15813,-0.01964 c 0.160883,-0.01717 0.32391,-0.02708 0.488342,-0.02739 l 0.203089,0.0036 0.01188,0.0021 a 0.5,0.5 0 0 0 0.5271,-0.470773 0.5,0.5 0 0 0 -0.470256,-0.527099 l -0.0217,-0.0021 h -0.01964 l -0.21084,-0.0036 z m 15.369088,0 a 0.5,0.5 0 0 0 -0.499711,0.499711 0.5,0.5 0 0 0 0.499711,0.500228 h 1.500167 a 0.5,0.5 0 0 0 0.499711,-0.500228 0.5,0.5 0 0 0 -0.499711,-0.499711 z m 29.159976,0.01137 -0.14831,0.02584 -0.0212,0.0057 -0.19172,0.04082 -0.0233,0.0062 -0.18345,0.05064 -0.0238,0.0078 -0.17777,0.05891 -0.0289,0.0098 -0.16433,0.06408 -0.0233,0.0098 -0.15606,0.07028 -0.0238,0.01189 -0.14624,0.07597 -0.0253,0.01395 -0.13694,0.08217 -0.0274,0.01757 -0.0837,0.05839 a 0.5,0.5 0 0 0 -0.13074,0.693498 0.5,0.5 0 0 0 0.69504,0.130741 l 0.0724,-0.04909 0.11111,-0.06615 0.12144,-0.06253 0.1328,-0.06046 0.1385,-0.05478 0.15244,-0.05064 0.16227,-0.04289 0.16794,-0.03721 0.13643,-0.02532 a 0.5,0.5 0 0 0 0.40463,-0.580326 0.5,0.5 0 0 0 -0.57826,-0.40411 z m -26.054223,0.10387 a 0.5,0.5 0 0 0 -0.599963,0.373104 0.5,0.5 0 0 0 0.373104,0.601513 l 0.107487,0.02532 c 0.163971,0.04197 0.316976,0.09706 0.447518,0.167948 l 0.0057,0.0041 c 0.07062,0.03711 0.152329,0.09798 0.243913,0.173633 l 0.06666,0.06046 c 0.0392,0.04017 0.07189,0.07823 0.09354,0.109554 a 0.5,0.5 0 0 0 0.695564,0.126607 0.5,0.5 0 0 0 0.126608,-0.695048 c -0.07273,-0.105197 -0.150113,-0.191945 -0.224276,-0.265617 l -0.01395,-0.01189 -0.0739,-0.06821 -0.01964,-0.0155 c -0.116279,-0.09699 -0.252475,-0.206189 -0.423747,-0.29714 -0.221698,-0.120382 -0.452284,-0.200615 -0.675927,-0.257865 l -0.0098,-0.0021 z m -12.008052,0.01344 a 0.5,0.5 0 0 0 -0.378789,0.05478 0.5,0.5 0 0 0 -0.174149,0.685746 c 0.103904,0.175086 0.199779,0.348061 0.281636,0.521415 l 0.08785,0.195337 0.08165,0.197404 0.07441,0.203088 0.04909,0.146245 a 0.5,0.5 0 0 0 0.630452,0.318327 0.5,0.5 0 0 0 0.318327,-0.63097 l -0.05064,-0.156063 -0.0057,-0.0155 -0.08217,-0.220659 -0.0057,-0.01602 -0.08785,-0.214457 -0.0083,-0.01757 -0.0956,-0.209289 -0.0021,-0.0078 c -0.10042,-0.212666 -0.212219,-0.413788 -0.326078,-0.605648 a 0.5,0.5 0 0 0 -0.306441,-0.228409 z m 21.238495,0.02946 a 0.5,0.5 0 0 0 -0.50023,0.500228 0.5,0.5 0 0 0 0.50023,0.499711 h 1.49965 a 0.5,0.5 0 0 0 0.50023,-0.499711 0.5,0.5 0 0 0 -0.50023,-0.500228 z m 5.71076,0 -0.49402,0.42168 -0.0687,0.433565 a 0.5,0.5 0 0 0 0.41444,0.572575 0.5,0.5 0 0 0 0.57206,-0.415995 l 0.002,-0.01189 h 0.63458 a 0.5,0.5 0 0 0 0.50023,-0.499711 0.5,0.5 0 0 0 -0.50023,-0.500228 z m 2.56057,0 a 0.5,0.5 0 0 0 -0.50023,0.500228 0.5,0.5 0 0 0 0.50023,0.499711 h 1.4118 0.0103 0.0873 a 0.5,0.5 0 0 0 0.49041,-0.509529 0.5,0.5 0 0 0 -0.50798,-0.49041 h -0.0837 z m -50.160244,0.01189 a 0.5,0.5 0 0 0 -0.61495,0.3514 0.5,0.5 0 0 0 0.3514,0.613399 l 0.01188,0.0036 c 0.152796,0.04491 0.293677,0.102284 0.415996,0.17415 0.06513,0.03833 0.124416,0.0789 0.175699,0.12299 0.0013,0.0011 0.0023,0.0025 0.0036,0.0036 l 0.04909,0.04703 0.04651,0.04857 0.04134,0.05116 c 0.04037,0.05313 0.07473,0.106034 0.101286,0.160197 a 0.5,0.5 0 0 0 0.668176,0.230477 0.5,0.5 0 0 0 0.22841,-0.670243 c -0.05794,-0.11817 -0.12532,-0.226449 -0.201021,-0.326079 l -0.01189,-0.01344 -0.0646,-0.07855 -0.02119,-0.02687 -0.07028,-0.07235 -0.02377,-0.02377 -0.0739,-0.07028 -0.01188,-0.01137 c -0.104802,-0.09106 -0.215803,-0.166424 -0.328146,-0.232544 v -0.0021 c -0.20839,-0.122435 -0.425611,-0.208207 -0.640271,-0.271302 l -0.0098,-0.0021 z m -4.296896,0.12299 a 0.5,0.5 0 0 0 -0.572058,0.415995 l -0.232544,1.48208 a 0.5,0.5 0 0 0 0.415995,0.570508 0.5,0.5 0 0 0 0.572059,-0.415995 l 0.232544,-1.482597 A 0.5,0.5 0 0 0 58.03315,12.617318 Z m 20.359481,0.06253 a 0.5,0.5 0 0 0 -0.650606,0.275436 0.5,0.5 0 0 0 0.275435,0.650089 l 0.134876,0.06253 0.130741,0.07235 0.127124,0.07596 0.120923,0.08423 0.115238,0.08992 0.111621,0.0956 c 0.09127,0.08379 0.175536,0.171478 0.248047,0.261483 a 0.5,0.5 0 0 0 0.7028,0.07441 0.5,0.5 0 0 0 0.07441,-0.703317 c -0.109174,-0.135499 -0.225786,-0.25697 -0.347783,-0.368969 l -0.01189,-0.0098 -0.132809,-0.115238 -0.02119,-0.01757 -0.138493,-0.10542 -0.0217,-0.01757 -0.144694,-0.09974 -0.02325,-0.01344 -0.148312,-0.09198 -0.02532,-0.01343 -0.154513,-0.08423 -0.02325,-0.01189 -0.162264,-0.07596 -0.02325,-0.0098 z m 12.502079,0.160197 a 0.5,0.5 0 0 0 -0.574642,0.413928 l -0.238228,1.48053 a 0.5,0.5 0 0 0 0.414445,0.572058 0.5,0.5 0 0 0 0.574125,-0.413928 l 0.238229,-1.48053 A 0.5,0.5 0 0 0 90.89471,12.840043 Z m -24.209375,0.03101 a 0.5,0.5 0 0 0 -0.368969,0.601514 c 0.103587,0.432235 0.13611,0.891983 0.120922,1.35754 a 0.5,0.5 0 0 0 0.484725,0.51573 0.5,0.5 0 0 0 0.515731,-0.482658 c 0.01739,-0.532969 -0.01912,-1.081934 -0.148828,-1.623156 a 0.5,0.5 0 0 0 -0.603581,-0.36897 z m 32.902385,0.02325 a 0.5,0.5 0 0 0 -0.36897,0.603581 c 0.103613,0.42895 0.131789,0.886089 0.111104,1.349789 a 0.5,0.5 0 0 0 0.478524,0.521415 0.5,0.5 0 0 0 0.521932,-0.476457 c 0.0238,-0.53409 -0.007,-1.084743 -0.13901,-1.628841 a 0.5,0.5 0 0 0 -0.60358,-0.369487 z m 25.7297,0.226343 a 0.5,0.5 0 0 0 -0.27647,0.264067 0.5,0.5 0 0 0 0.25579,0.658357 l 0.13075,0.05839 0.0238,0.0078 0.15813,0.06253 0.0155,0.0041 c 0.30265,0.105382 0.66254,0.193612 1.05885,0.138493 l 0.0367,-0.0078 0.11937,-0.02532 0.0351,-0.0098 0.11317,-0.03307 0.0372,-0.01189 0.0956,-0.03514 a 0.5,0.5 0 0 0 0.29094,-0.644405 0.5,0.5 0 0 0 -0.64234,-0.290939 l -0.0801,0.02894 -0.078,0.0217 -0.0723,0.0155 c -0.16003,0.02097 -0.36144,-0.01439 -0.58033,-0.08992 h -0.006 l -0.13488,-0.05271 -0.11886,-0.05064 a 0.5,0.5 0 0 0 -0.38188,-0.0083 z m -51.31987,0.03359 a 0.5,0.5 0 0 0 -0.37052,0.09405 c -0.193672,0.144535 -0.373385,0.302829 -0.541052,0.472323 -0.131521,0.133093 -0.255653,0.274246 -0.371037,0.420129 l -0.0062,0.0057 -0.103353,0.136943 -0.0098,0.01344 -0.09974,0.14056 -0.0098,0.01602 -0.0036,0.0057 a 0.5,0.5 0 0 0 0.142627,0.69143 0.5,0.5 0 0 0 0.692981,-0.142627 l 0.08837,-0.125057 0.09147,-0.122989 0.0062,-0.0057 c 0.09175,-0.115532 0.190054,-0.226029 0.293005,-0.330212 0.134767,-0.136236 0.276336,-0.26246 0.427364,-0.375171 a 0.5,0.5 0 0 0 0.101803,-0.699182 0.5,0.5 0 0 0 -0.328663,-0.195337 z m 13.330453,0.09767 a 0.5,0.5 0 0 0 -0.572058,0.413929 l -0.236161,1.480529 a 0.5,0.5 0 0 0 0.413928,0.574125 0.5,0.5 0 0 0 0.572058,-0.415995 l 0.236161,-1.48053 a 0.5,0.5 0 0 0 -0.413928,-0.572058 z m -32.896183,0.0041 a 0.5,0.5 0 0 0 -0.572575,0.413929 l -0.236162,1.482596 a 0.5,0.5 0 0 0 0.415996,0.572059 0.5,0.5 0 0 0 0.572058,-0.415996 l 0.236678,-1.480529 A 0.5,0.5 0 0 0 54.43182,13.256038 Z m 51.92758,0.03514 a 0.5,0.5 0 0 0 -0.57206,0.415996 l -0.23461,1.480529 a 0.5,0.5 0 0 0 0.416,0.572059 0.5,0.5 0 0 0 0.57205,-0.415996 l 0.23461,-1.482597 a 0.5,0.5 0 0 0 -0.41599,-0.569991 z m 9.4201,0.10542 a 0.5,0.5 0 0 0 -0.59583,0.378789 c -0.1207,0.539886 -0.15548,1.091575 -0.11938,1.632975 a 0.5,0.5 0 0 0 0.53331,0.466638 0.5,0.5 0 0 0 0.46508,-0.533301 c -0.0304,-0.455424 -0.002,-0.911696 0.0956,-1.347721 a 0.5,0.5 0 0 0 -0.37878,-0.59738 z m -46.781644,0.45837 a 0.5,0.5 0 0 0 -0.290939,0.248564 c -0.157906,0.311367 -0.29402,0.629714 -0.415995,0.949296 -0.066,0.171067 -0.126779,0.346273 -0.179834,0.523482 a 0.5,0.5 0 0 0 0.336414,0.621151 0.5,0.5 0 0 0 0.622701,-0.334347 c 0.04535,-0.151458 0.09698,-0.302125 0.154512,-0.451135 v -0.0021 c 0.111999,-0.293443 0.235713,-0.579206 0.374654,-0.853178 a 0.5,0.5 0 0 0 -0.220658,-0.671793 0.5,0.5 0 0 0 -0.380855,-0.02997 z m 50.037254,0.246497 a 0.5,0.5 0 0 0 -0.52555,0.472839 c -0.0226,0.417291 0.0535,0.875726 0.32453,1.27124 l 0.004,0.0041 c 0.0856,0.122571 0.19489,0.260719 0.35502,0.380855 l 0.061,0.04496 0.0155,0.01137 0.0408,0.02946 a 0.5,0.5 0 0 0 0.69556,-0.127124 0.5,0.5 0 0 0 -0.12506,-0.695048 l -0.0351,-0.02325 -0.0527,-0.04134 c -0.0339,-0.0254 -0.0813,-0.07756 -0.1328,-0.150378 -0.11168,-0.162966 -0.16602,-0.400051 -0.15245,-0.65009 a 0.5,0.5 0 0 0 -0.47284,-0.527616 z m -9.33173,0.302824 a 0.5,0.5 0 0 0 -0.57257,0.413928 l -0.23616,1.482597 a 0.5,0.5 0 0 0 0.41392,0.572058 0.5,0.5 0 0 0 0.57206,-0.415995 l 0.23668,-1.48053 a 0.5,0.5 0 0 0 -0.41393,-0.572058 z M 96.494368,14.60531 a 0.5,0.5 0 0 0 -0.529683,0.468705 l -0.0021,0.03721 c -0.0095,0.116988 -0.02611,0.23091 -0.05064,0.340031 l -0.02532,0.103353 -0.02946,0.0956 -0.03514,0.09198 -0.03721,0.08785 -0.04289,0.08216 -0.04496,0.07803 -0.05064,0.07442 -0.05271,0.07028 -0.01964,0.02119 a 0.5,0.5 0 0 0 0.04909,0.706933 0.5,0.5 0 0 0 0.704866,-0.05064 l 0.03152,-0.03307 0.01912,-0.02532 0.07235,-0.09405 0.01757,-0.02532 0.06666,-0.09974 0.01757,-0.02532 0.06046,-0.10542 0.01395,-0.02532 0.05633,-0.109554 0.01189,-0.02687 0.04858,-0.113688 0.01189,-0.02532 0.04289,-0.118856 0.0098,-0.02532 0.03721,-0.123507 0.0078,-0.02532 0.03101,-0.126607 0.0041,-0.01188 c 0.036,-0.16015 0.05743,-0.320509 0.07028,-0.478524 l 0.0021,-0.0098 0.0021,-0.05064 A 0.5,0.5 0 0 0 96.494368,14.60531 Z m -32.891015,0.214974 a 0.5,0.5 0 0 0 -0.54467,0.449068 l -0.0041,0.03514 -0.01757,0.12299 -0.02119,0.117306 -0.02739,0.113171 -0.03152,0.107487 -0.03514,0.101803 -0.03876,0.0956 -0.04289,0.09353 -0.04703,0.0863 -0.05271,0.08372 -0.05684,0.0801 -0.06046,0.07648 a 0.5,0.5 0 0 0 0.08217,0.7028 0.5,0.5 0 0 0 0.70125,-0.08165 l 0.07028,-0.08837 0.01757,-0.02325 0.07235,-0.103353 0.01757,-0.02377 0.06615,-0.10697 0.01395,-0.02584 0.06046,-0.113171 0.01344,-0.02532 0.05478,-0.117306 0.01189,-0.02532 0.04858,-0.120923 0.0098,-0.02532 0.04289,-0.125057 0.0078,-0.02532 0.03927,-0.131258 0.0057,-0.02326 0.03152,-0.136425 0.0057,-0.02377 0.02532,-0.138493 0.0041,-0.02377 0.0217,-0.144178 0.0016,-0.0217 0.0041,-0.04496 A 0.5,0.5 0 0 0 63.60387,14.820284 Z m 16.316317,0.06821 a 0.5,0.5 0 0 0 -0.366903,0.605648 l 0.03514,0.148311 0.03927,0.195337 0.03307,0.205155 0.02325,0.212907 0.01964,0.224793 0.0098,0.234094 0.0021,0.154513 a 0.5,0.5 0 0 0 0.507462,0.491959 0.5,0.5 0 0 0 0.492477,-0.507462 l -0.0021,-0.162264 v -0.0155 l -0.01189,-0.250114 -0.0021,-0.01757 -0.01912,-0.240296 -0.0021,-0.01757 -0.02532,-0.234611 -0.0041,-0.01757 -0.03514,-0.224275 -0.0021,-0.01964 -0.04289,-0.217041 -0.0057,-0.02119 -0.03927,-0.15813 a 0.5,0.5 0 0 0 -0.60358,-0.369486 z m 3.807002,0.380855 a 0.5,0.5 0 0 0 -0.433565,0.556555 l 0.0057,0.05116 0.02377,0.243913 0.0155,0.252181 0.01137,0.261483 -0.0016,-0.0078 c 0.0047,0.208854 0.0068,0.415176 0,0.619084 a 0.5,0.5 0 0 0 0.482141,0.515731 0.5,0.5 0 0 0 0.515731,-0.482658 c 0.0076,-0.227453 0.0071,-0.452812 0.0021,-0.675411 v -0.0078 l -0.0098,-0.269751 -0.0021,-0.01344 -0.01757,-0.264066 v -0.01344 l -0.02532,-0.259933 -0.0021,-0.0155 -0.0062,-0.05685 a 0.5,0.5 0 0 0 -0.558106,-0.433565 z m -26.16016,0.310576 a 0.5,0.5 0 0 0 -0.570508,0.415995 L 56.76346,17.47852 a 0.5,0.5 0 0 0 0.01757,0.02532 0.5,0.5 0 0 0 -0.02532,0.06253 0.5,0.5 0 0 0 0.408244,0.460953 0.5,0.5 0 0 0 0.0155,0.02326 0.5,0.5 0 0 0 0.02377,-0.0057 0.5,0.5 0 0 0 0.05271,0.0217 h 1.500167 A 0.5,0.5 0 0 0 59.255815,17.56637 0.5,0.5 0 0 0 58.756104,17.066142 H 57.83988 l 0.144694,-0.91364 a 0.5,0.5 0 0 0 -0.418062,-0.572574 z m 14.83372,0.0217 a 0.5,0.5 0 0 0 -0.638721,0.300757 c -0.181378,0.504651 -0.306614,1.024588 -0.386539,1.546675 a 0.5,0.5 0 0 0 0.418062,0.570508 0.5,0.5 0 0 0 0.569991,-0.420129 c 0.07134,-0.465967 0.183156,-0.922612 0.340031,-1.359091 a 0.5,0.5 0 0 0 -0.302824,-0.63872 z m 18.017505,0.198954 a 0.5,0.5 0 0 0 -0.574125,0.414445 l -0.163815,1.023193 a 0.5,0.5 0 0 0 0.0098,0.04289 0.5,0.5 0 0 0 -0.0155,0.03721 0.5,0.5 0 0 0 0.05633,0.138493 0.5,0.5 0 0 0 0.07441,0.177767 0.5,0.5 0 0 0 0.153996,0.09405 0.5,0.5 0 0 0 0.134876,0.08372 0.5,0.5 0 0 0 0.04082,-0.0098 0.5,0.5 0 0 0 0.03927,0.01602 h 1.500167 a 0.5,0.5 0 0 0 0.499711,-0.500228 0.5,0.5 0 0 0 -0.499711,-0.500228 h -0.912089 l 0.07028,-0.442867 a 0.5,0.5 0 0 0 -0.414445,-0.574642 z m -23.554635,0.04496 a 0.5,0.5 0 0 0 -0.605131,0.363286 c -0.110815,0.441751 -0.280373,0.86531 -0.510046,1.246435 a 0.5,0.5 0 0 0 0.170015,0.687297 0.5,0.5 0 0 0 0.685747,-0.170016 c 0.28674,-0.475826 0.490333,-0.991618 0.622701,-1.519287 a 0.5,0.5 0 0 0 -0.363286,-0.607715 z m 32.874996,0.0217 a 0.5,0.5 0 0 0 -0.619084,0.343648 l -0.0098,0.03721 -0.05271,0.160197 -0.05839,0.156063 -0.06253,0.150378 -0.06821,0.144694 -0.07235,0.138493 -0.0801,0.136942 -0.08217,0.128675 -0.08372,0.119372 a 0.5,0.5 0 0 0 0.0894,0.701249 0.5,0.5 0 0 0 0.701249,-0.08992 l 0.0021,-0.0021 0.0098,-0.0155 0.101803,-0.142627 0.01344,-0.01964 0.0956,-0.150379 0.01189,-0.01757 0.08992,-0.154512 0.01137,-0.01912 0.08217,-0.160197 0.0098,-0.01757 0.07803,-0.164331 0.0078,-0.01964 0.0708,-0.169498 0.0078,-0.01757 0.06408,-0.17415 0.0078,-0.01964 0.0589,-0.179317 0.006,-0.01757 0.014,-0.04703 a 0.5,0.5 0 0 0 -0.343645,-0.619083 z m 21.365622,0.09198 a 0.5,0.5 0 0 0 -0.60358,0.368969 0.5,0.5 0 0 0 0.36897,0.603581 l 1.45727,0.3514 a 0.5,0.5 0 0 0 0.60307,-0.36897 0.5,0.5 0 0 0 -0.36897,-0.603581 z m -34.24804,0.253731 a 0.5,0.5 0 0 0 -0.572575,0.415995 l -0.236161,1.48053 a 0.5,0.5 0 0 0 0.413928,0.572058 0.5,0.5 0 0 0 0.572575,-0.413928 l 0.236162,-1.48053 A 0.5,0.5 0 0 0 86.85568,16.212964 Z m -32.8967,0.0057 a 0.5,0.5 0 0 0 -0.572058,0.414445 l -0.234611,1.48208 a 0.5,0.5 0 0 0 0.413928,0.572575 0.5,0.5 0 0 0 0.572575,-0.415995 l 0.236162,-1.48053 A 0.5,0.5 0 0 0 53.95898,16.218648 Z m 51.93378,0.03514 a 0.5,0.5 0 0 0 -0.57257,0.415996 l -0.2341,1.482596 a 0.5,0.5 0 0 0 0.416,0.570508 0.5,0.5 0 0 0 0.57206,-0.415995 l 0.23461,-1.48053 a 0.5,0.5 0 0 0 -0.416,-0.572575 z m 10.20971,0.101803 a 0.5,0.5 0 0 0 -0.38344,0.01137 l -5.1e-4,5.16e-4 a 0.5,0.5 0 0 0 -0.25167,0.659908 l 0.008,0.01344 0.0103,0.02377 0.0801,0.156063 0.0114,0.0217 0.0879,0.152446 0.014,0.02119 0.0935,0.146761 0.0155,0.02119 0.1018,0.14056 0.0155,0.0217 0.10956,0.136425 0.0176,0.01964 0.1173,0.130742 0.0191,0.0217 0.12713,0.127124 0.0139,0.0155 0.13281,0.120923 0.0155,0.01395 0.0548,0.04651 a 0.5,0.5 0 0 0 0.70486,-0.05633 0.5,0.5 0 0 0 -0.0563,-0.705383 l -0.047,-0.03876 -0.1173,-0.109554 -0.10956,-0.109554 -0.0992,-0.113171 -0.0961,-0.116789 -0.0858,-0.12144 -0.0816,-0.125057 -0.0744,-0.128674 -0.0682,-0.132808 v -0.0021 a 0.5,0.5 0 0 0 -0.27906,-0.26355 z m -47.772274,0.330212 a 0.5,0.5 0 0 0 -0.574125,0.411861 c -0.08484,0.516294 -0.13267,1.034908 -0.152446,1.552877 a 0.5,0.5 0 0 0 0.480591,0.519348 0.5,0.5 0 0 0 0.517281,-0.48059 c 0.01837,-0.481144 0.06325,-0.958877 0.14056,-1.429371 a 0.5,0.5 0 0 0 -0.411861,-0.574125 z m 55.712874,0 a 0.5,0.5 0 0 0 -0.62321,0.33383 0.5,0.5 0 0 0 0.33228,0.623218 l 0.0858,0.02532 0.20102,0.06821 0.19534,0.07441 0.18758,0.07597 0.17777,0.0801 0.17157,0.08372 0.16226,0.08837 0.0842,0.04858 a 0.5,0.5 0 0 0 0.68523,-0.1757 0.5,0.5 0 0 0 -0.17777,-0.685746 l -0.0915,-0.05478 -0.0176,-0.0078 -0.17984,-0.09767 -0.0155,-0.0078 -0.18759,-0.09353 -0.0155,-0.0062 -0.19533,-0.08785 -0.0155,-0.0078 -0.20154,-0.08165 -0.0155,-0.0062 -0.20877,-0.07803 -0.0139,-0.0041 -0.21653,-0.0739 -0.0139,-0.0041 z m -29.494319,0.03514 c -0.156858,0.03759 -0.321728,0.06215 -0.494027,0.07803 h -0.0021 c -0.265815,0.02552 -0.560742,0.0182 -0.881083,0.01964 a 0.5,0.5 0 0 0 -0.497644,0.501778 0.5,0.5 0 0 0 0.501778,0.498161 c 0.296195,-0.0013 0.621624,0.0096 0.970483,-0.02377 0.208178,-0.01918 0.420184,-0.04977 0.635104,-0.101285 a 0.5,0.5 0 0 0 0.371037,-0.603581 0.5,0.5 0 0 0 -0.603581,-0.36897 z m -32.917888,0.236161 -0.109554,0.02532 c -0.0012,2.66e-4 -0.0024,-2.65e-4 -0.0036,0 l -0.0062,0.0021 c -0.130186,0.02753 -0.262798,0.04719 -0.399976,0.06046 h -0.0021 c -0.258552,0.02641 -0.545984,0.02127 -0.855761,0.02171 a 0.5,0.5 0 0 0 -0.498161,0.499711 0.5,0.5 0 0 0 0.500228,0.500227 c 0.291538,-4.08e-4 0.610966,0.0091 0.951363,-0.02532 0.17377,-0.01681 0.349396,-0.04239 0.525032,-0.0801 l 0.0098,-0.0041 0.119372,-0.02739 a 0.5,0.5 0 0 0 0.371037,-0.601514 0.5,0.5 0 0 0 -0.601514,-0.371037 z m 47.599677,0.410311 a 0.5,0.5 0 0 0 -0.57257,0.413929 l -0.23616,1.480529 a 0.5,0.5 0 0 0 0.41392,0.574126 0.5,0.5 0 0 0 0.57465,-0.415996 l 0.23409,-1.48053 a 0.5,0.5 0 0 0 -0.41393,-0.572058 z m -29.039052,0.494027 a 0.5,0.5 0 0 0 -0.56069,0.429431 c -0.06197,0.468014 -0.162023,0.929487 -0.306441,1.373043 a 0.5,0.5 0 0 0 0.320394,0.630969 0.5,0.5 0 0 0 0.628902,-0.321944 c 0.165177,-0.507311 0.278021,-1.027831 0.347266,-1.55081 a 0.5,0.5 0 0 0 -0.429431,-0.560689 z m 46.264362,0.359151 a 0.5,0.5 0 0 0 -0.3638,0.115239 0.5,0.5 0 0 0 -0.0625,0.705383 l 0.0486,0.05633 0.092,0.12299 0.0858,0.125057 0.078,0.127124 0.0724,0.128675 0.0646,0.132808 0.0563,0.134875 0.0506,0.136943 0.045,0.14056 0.004,0.01344 a 0.5,0.5 0 0 0 0.60926,0.357601 0.5,0.5 0 0 0 0.3576,-0.609265 l -0.006,-0.02532 -0.008,-0.02377 -0.0512,-0.163814 -0.008,-0.02377 -0.0605,-0.161747 -0.008,-0.02377 -0.0682,-0.15813 -0.01,-0.02119 -0.0765,-0.154513 -0.0114,-0.02325 -0.0842,-0.150378 -0.0119,-0.02171 -0.0915,-0.148311 -0.0119,-0.01964 -0.0997,-0.144694 -0.0134,-0.01912 -0.10749,-0.14056 -0.0155,-0.01757 -0.0548,-0.06873 a 0.5,0.5 0 0 0 -0.33952,-0.177767 z m -28.500589,0.0098 a 0.5,0.5 0 0 0 -0.375171,0.08216 l -0.04496,0.03101 c -0.130502,0.087 -0.268028,0.166731 -0.408244,0.240296 -0.148122,0.07772 -0.299891,0.149632 -0.45682,0.212906 l -0.197404,0.144694 -0.226342,0.271302 a 0.5,0.5 0 0 0 0.06614,0.705383 0.5,0.5 0 0 0 0.703317,-0.06666 l 0.156063,-0.187585 c 0.141423,-0.06074 0.282815,-0.121219 0.420129,-0.19327 0.173335,-0.09094 0.343526,-0.190931 0.507462,-0.300757 l 0.0078,-0.0057 0.04496,-0.03152 a 0.5,0.5 0 0 0 0.125057,-0.697115 0.5,0.5 0 0 0 -0.321944,-0.205155 z m -14.163993,0.03152 a 0.5,0.5 0 0 0 -0.566891,0.423747 c -0.06771,0.471773 -0.167656,0.938942 -0.300756,1.396297 a 0.5,0.5 0 0 0 0.340031,0.619084 0.5,0.5 0 0 0 0.619083,-0.339514 c 0.146308,-0.502739 0.257941,-1.017318 0.33228,-1.535307 a 0.5,0.5 0 0 0 -0.423747,-0.564307 z m 34.130732,0.05478 a 0.5,0.5 0 0 0 -0.27182,0.267168 0.5,0.5 0 0 0 0.26562,0.65629 l 0.0977,0.04134 0.016,0.0057 0.18552,0.07028 0.0155,0.0062 0.18965,0.06615 0.004,0.0021 c 0.35137,0.118294 0.69034,0.187694 1.00201,0.26355 a 0.5,0.5 0 0 0 0.60564,-0.366903 0.5,0.5 0 0 0 -0.36948,-0.603581 c -0.33062,-0.08047 -0.63916,-0.147491 -0.91571,-0.240295 l -0.1819,-0.06253 -0.1695,-0.0646 -0.0899,-0.03876 a 0.5,0.5 0 0 0 -0.38292,-0.0021 z m -52.673786,0.03927 a 0.5,0.5 0 0 0 -0.363286,0.122473 c -0.336261,0.291671 -0.72536,0.531535 -1.141015,0.715201 a 0.5,0.5 0 0 0 -0.253732,0.657841 0.5,0.5 0 0 0 0.658358,0.255799 c 0.498421,-0.220239 0.973293,-0.509042 1.39268,-0.872815 a 0.5,0.5 0 0 0 0.05064,-0.706934 0.5,0.5 0 0 0 -0.343648,-0.171565 z m 6.511747,0.163814 a 0.5,0.5 0 0 0 -0.507979,0.489892 c -0.004,0.224084 -1.53e-4,0.447531 0.01344,0.670244 l 0.0021,0.0098 0.01757,0.240296 0.0021,0.01757 0.02739,0.230477 0.0021,0.01757 0.03514,0.224275 0.0021,0.01964 0.03307,0.165882 a 0.5,0.5 0 0 0 0.586011,0.396875 0.5,0.5 0 0 0 0.396358,-0.586011 l -0.03101,-0.15813 -0.03152,-0.203605 -0.02532,-0.212907 -0.01757,-0.222209 v -0.0078 c -0.0117,-0.194904 -0.01533,-0.390203 -0.01189,-0.584461 A 0.5,0.5 0 0 0 71.759961,18.5198 Z m 49.374759,0.556555 a 0.5,0.5 0 0 0 -0.61339,0.3514 0.5,0.5 0 0 0 0.35191,0.613399 c 0.51816,0.14048 1.00101,0.216372 1.40974,0.365352 a 0.5,0.5 0 0 0 0.64078,-0.297139 0.5,0.5 0 0 0 -0.29869,-0.642338 c -0.5323,-0.194017 -1.04513,-0.269966 -1.49035,-0.390674 z m -34.751879,0.09973 a 0.5,0.5 0 0 0 -0.572058,0.415996 l -0.238745,1.48053 a 0.5,0.5 0 0 0 0.415995,0.572058 0.5,0.5 0 0 0 0.572575,-0.413929 l 0.236161,-1.482596 A 0.5,0.5 0 0 0 86.382841,19.17609 Z m -32.894633,0.0057 a 0.5,0.5 0 0 0 -0.572058,0.413928 l -0.236678,1.48053 a 0.5,0.5 0 0 0 0.414445,0.574125 0.5,0.5 0 0 0 0.572058,-0.415995 l 0.236161,-1.48053 a 0.5,0.5 0 0 0 -0.413928,-0.572058 z m 51.935852,0.03514 a 0.5,0.5 0 0 0 -0.57051,0.415995 l -0.23461,1.482597 a 0.5,0.5 0 0 0 0.41599,0.572058 0.5,0.5 0 0 0 0.57258,-0.415995 l 0.23409,-1.482597 a 0.5,0.5 0 0 0 -0.41754,-0.572058 z m -14.420312,0.130741 a 0.5,0.5 0 0 0 -0.499712,0.500228 0.5,0.5 0 0 0 0.499712,0.499711 h 0.636653 c 0.2522,6.23e-4 0.482395,0.02871 0.673861,0.09974 a 0.5,0.5 0 0 0 0.644922,-0.295073 0.5,0.5 0 0 0 -0.295073,-0.642338 c -0.349159,-0.12953 -0.700483,-0.161471 -1.021643,-0.162264 h -0.0021 z m -28.583785,0.255799 c -0.460386,0.09186 -0.934365,0.142622 -1.412317,0.162264 a 0.5,0.5 0 0 0 -0.478524,0.519348 0.5,0.5 0 0 0 0.519865,0.478523 c 0.520864,-0.02141 1.045909,-0.07548 1.566312,-0.179317 a 0.5,0.5 0 0 0 0.392741,-0.588078 0.5,0.5 0 0 0 -0.588077,-0.39274 z m 27.382824,0.0098 a 0.5,0.5 0 0 0 -0.570508,0.418062 l -0.224275,1.484664 a 0.5,0.5 0 0 0 0.419612,0.567924 0.5,0.5 0 0 0 0.568441,-0.417545 L 90.2224,20.181714 a 0.5,0.5 0 0 0 -0.419613,-0.568441 z m -21.710819,0.05684 a 0.5,0.5 0 0 0 -0.449585,0.54467 l 0.0078,0.101802 0.0021,0.01344 0.03359,0.256315 0.0016,0.0155 0.03721,0.251664 0.0041,0.01395 0.04496,0.24598 0.0036,0.0155 0.05271,0.242362 0.0041,0.0155 0.06046,0.236678 0.0041,0.0155 0.04082,0.14056 a 0.5,0.5 0 0 0 0.619084,0.341581 0.5,0.5 0 0 0 0.340031,-0.62115 l -0.03721,-0.132809 -0.05684,-0.218591 -0.04858,-0.224793 -0.04289,-0.230476 -0.03721,-0.236162 -0.02945,-0.242362 -0.0098,-0.09354 a 0.5,0.5 0 0 0 -0.544669,-0.451135 z m -10.062435,0.10542 a 0.5,0.5 0 0 0 -0.500228,0.500228 0.5,0.5 0 0 0 0.500228,0.499711 h 1.49965 a 0.5,0.5 0 0 0 0.500228,-0.499711 0.5,0.5 0 0 0 -0.500228,-0.500228 z m -1.191659,0.276986 v 5.17e-4 a 0.5,0.5 0 0 0 -0.570507,0.418062 l -0.232028,1.480013 a 0.5,0.5 0 0 0 0.415996,0.572575 0.5,0.5 0 0 0 0.572058,-0.415996 l 0.232544,-1.482596 a 0.5,0.5 0 0 0 -0.418063,-0.572575 z m 39.996009,0.117305 v 5.17e-4 a 0.5,0.5 0 0 0 -0.373104,0.08785 0.5,0.5 0 0 0 -0.111105,0.697115 c 0.254718,0.35286 0.448012,0.770259 0.611333,1.214913 a 0.5,0.5 0 0 0 0.640787,0.296623 0.5,0.5 0 0 0 0.296623,-0.640271 C 97.71748,21.333787 97.4918,20.830544 97.159961,20.37085 a 0.5,0.5 0 0 0 -0.326078,-0.201022 z m 26.937887,0.15813 -5.1e-4,5.17e-4 a 0.5,0.5 0 0 0 -0.38086,0.04289 0.5,0.5 0 0 0 -0.19895,0.677478 c 0.0196,0.03575 0.0387,0.08341 0.0563,0.13901 0.0475,0.158624 0.0574,0.336843 0.0258,0.503845 -2.5e-4,0.0013 2.5e-4,0.0023 0,0.0036 l -0.014,0.05478 -0.0196,0.05891 -0.0212,0.05633 -0.0253,0.05478 -0.0294,0.04858 a 0.5,0.5 0 0 0 0,0.0021 0.5,0.5 0 0 0 0.14469,0.691431 0.5,0.5 0 0 0 0.69143,-0.142627 l 0.006,-0.0098 0.0176,-0.02946 0.0491,-0.08372 0.0155,-0.03152 0.0408,-0.08785 0.0139,-0.03101 0.0351,-0.08992 0.0119,-0.03307 0.0289,-0.08992 0.0103,-0.03514 0.0212,-0.09405 0.004,-0.01912 c 0.0634,-0.328372 0.0487,-0.671734 -0.0506,-0.996322 l -0.002,-0.0041 c -0.0319,-0.100518 -0.0736,-0.208171 -0.13281,-0.316259 a 0.5,0.5 0 0 0 -0.29714,-0.240296 z m -15.01407,5.17e-4 a 0.5,0.5 0 0 0 -0.57206,0.415995 l -0.23667,1.48053 a 0.5,0.5 0 0 0 0.41651,0.572058 0.5,0.5 0 0 0 0.57206,-0.413928 l 0.23616,-1.482597 a 0.5,0.5 0 0 0 -0.416,-0.572058 z m -15.454868,0.241846 a 0.5,0.5 0 0 0 -0.283187,0.648539 l 0.01757,0.04703 0.02894,0.08217 0.0041,0.0098 0.480591,1.259355 a 0.5,0.5 0 0 0 0.644405,0.289388 0.5,0.5 0 0 0 0.288871,-0.646472 l -0.478523,-1.254187 -0.02894,-0.08372 -0.0062,-0.01395 -0.01912,-0.05478 a 0.5,0.5 0 0 0 -0.648539,-0.283186 z m -14.243575,0.121956 a 0.5,0.5 0 0 0 -0.309025,0.225826 l -0.01964,0.03307 c -0.08328,0.130435 -0.174374,0.256526 -0.269751,0.376721 -0.09511,0.11988 -0.195834,0.233851 -0.302824,0.342098 -0.09277,0.09293 -0.182947,0.177875 -0.273368,0.251664 a 0.5,0.5 0 0 0 -0.07235,0.703317 0.5,0.5 0 0 0 0.703316,0.07235 c 0.129059,-0.10532 0.244332,-0.215119 0.3514,-0.322461 l 0.0021,-0.0021 c 0.13311,-0.134674 0.258002,-0.276067 0.375171,-0.423747 0.119653,-0.150789 0.231279,-0.307436 0.333829,-0.468705 l 0.0041,-0.0078 0.01912,-0.03307 a 0.5,0.5 0 0 0 -0.163815,-0.687813 0.5,0.5 0 0 0 -0.378271,-0.05943 z m 48.206363,0.331246 a 0.5,0.5 0 0 0 -0.53537,0.460954 c -0.034,0.451342 -0.13044,0.891497 -0.30231,1.292944 a 0.5,0.5 0 0 0 0.26148,0.658358 0.5,0.5 0 0 0 0.6563,-0.264067 c 0.22208,-0.518733 0.34186,-1.068397 0.38292,-1.613338 a 0.5,0.5 0 0 0 -0.46302,-0.534851 z m -44.561624,0.130225 a 0.5,0.5 0 0 0 -0.282154,0.258382 c -0.18035,0.38656 -0.392283,0.758318 -0.633036,1.11156 l -0.07596,0.10697 a 0.5,0.5 0 0 0 0.12299,0.697632 0.5,0.5 0 0 0 0.695564,-0.12299 l 0.0801,-0.111621 0.0036,-0.0057 c 0.270655,-0.397115 0.509546,-0.817817 0.713135,-1.254187 a 0.5,0.5 0 0 0 -0.242362,-0.664042 0.5,0.5 0 0 0 -0.381889,-0.01602 z m -10.178707,0.25063 a 0.5,0.5 0 0 0 -0.374654,0.07597 0.5,0.5 0 0 0 -0.134876,0.693497 c 0.137447,0.203903 0.299834,0.405118 0.499711,0.583944 l 0.0041,0.0057 0.132809,0.115239 0.02119,0.01757 0.13901,0.107487 0.02325,0.01602 0.142627,0.09922 0.02325,0.01602 0.150378,0.0894 0.02377,0.01395 0.134876,0.07235 a 0.5,0.5 0 0 0 0.677478,-0.203089 0.5,0.5 0 0 0 -0.205156,-0.677994 l -0.120923,-0.0646 -0.127124,-0.07803 -0.120922,-0.08165 -0.115239,-0.09198 -0.117305,-0.09974 -0.0021,-0.0036 -0.0036,-0.0021 c -0.119529,-0.10803 -0.230638,-0.241955 -0.332279,-0.392741 a 0.5,0.5 0 0 0 -0.318327,-0.21084 z m 43.072311,0.214974 c -0.19166,0.002 -0.34602,0.04357 -0.46303,0.0739 l -0.0331,0.0098 -0.10542,0.03514 -0.0408,0.0155 -0.0274,0.01189 a 0.5,0.5 0 0 0 -0.25993,0.658357 0.5,0.5 0 0 0 0.65835,0.257866 l 0.008,-0.0021 0.0625,-0.0217 c 0.0987,-0.02502 0.17288,-0.03849 0.21136,-0.03876 h 0.008 c 0.16406,-0.0034 0.36241,0.05455 0.57051,0.15813 l 0.15038,0.07596 a 0.5,0.5 0 0 0 0.66972,-0.222725 0.5,0.5 0 0 0 -0.22272,-0.671794 l -0.15038,-0.07596 c -0.28914,-0.143932 -0.63796,-0.270867 -1.03508,-0.26355 z M 85.910002,22.1387 a 0.5,0.5 0 0 0 -0.574126,0.413929 l -0.236161,1.482596 a 0.5,0.5 0 0 0 0.415995,0.572059 0.5,0.5 0 0 0 0.572059,-0.413929 l 0.236678,-1.482597 A 0.5,0.5 0 0 0 85.910002,22.1387 Z m -32.894633,0.0036 a 0.5,0.5 0 0 0 -0.572058,0.416512 l -0.236162,1.480013 a 0.5,0.5 0 0 0 0.415996,0.572575 0.5,0.5 0 0 0 0.572058,-0.413929 l 0.236678,-1.482596 a 0.5,0.5 0 0 0 -0.416512,-0.572575 z m 51.941531,0.03721 a 0.5,0.5 0 0 0 -0.56999,0.415995 l -0.23461,1.482597 a 0.5,0.5 0 0 0 0.41599,0.572058 0.5,0.5 0 0 0 0.57258,-0.415995 l 0.23203,-1.48208 a 0.5,0.5 0 0 0 -0.416,-0.572575 z m 13.14287,0.300757 a 0.5,0.5 0 0 0 -0.62529,0.330212 0.5,0.5 0 0 0 0.33022,0.625285 l 0.0661,0.01912 0.016,0.0062 0.27699,0.07597 0.016,0.0041 0.28112,0.06615 0.0196,0.0041 c 0.28947,0.05675 0.5804,0.104864 0.87489,0.142627 a 0.5,0.5 0 0 0 0.56017,-0.432015 0.5,0.5 0 0 0 -0.4315,-0.560173 c -0.26421,-0.03388 -0.52949,-0.07592 -0.79272,-0.127124 l -0.0103,-0.0021 c -0.003,-6.37e-4 -0.007,-0.0014 -0.01,-0.0021 l -0.25218,-0.06046 -0.26148,-0.07235 z m -48.97479,0.05271 a 0.5,0.5 0 0 0 -0.378789,0.05478 0.5,0.5 0 0 0 -0.174149,0.685746 l 0.109554,0.183451 0.0098,0.0155 0.120923,0.189653 0.0098,0.01344 0.127124,0.183969 0.0098,0.01344 0.132809,0.177767 0.01188,0.01395 0.138493,0.171566 0.01189,0.01395 0.142627,0.165882 0.01344,0.01344 0.120922,0.131258 a 0.5,0.5 0 0 0 0.707451,0.02119 0.5,0.5 0 0 0 0.02325,-0.704866 L 70.146623,23.754106 70.013814,23.60166 69.88669,23.445081 69.765767,23.281266 69.648462,23.113318 69.537358,22.939685 69.431421,22.763468 A 0.5,0.5 0 0 0 69.12498,22.532992 Z m 7.62124,0.04341 -0.06666,0.02119 -0.142627,0.04289 -0.146244,0.03514 -0.150378,0.03152 -0.154513,0.02532 -0.156063,0.01964 c -0.160895,0.01717 -0.325962,0.02708 -0.490409,0.02739 h -0.0098 l -0.191202,-0.0041 -0.185519,-0.01189 -0.01757,-0.0015 a 0.5,0.5 0 0 0 -0.546736,0.449068 0.5,0.5 0 0 0 0.447001,0.546737 l 0.02739,0.0021 0.0217,0.0021 0.204639,0.01189 0.01964,0.0016 0.212907,0.0041 a 0.5,0.5 0 0 0 0.0041,-0.0041 0.5,0.5 0 0 0 0.0036,0.0041 c 0.200479,1e-6 0.403538,-0.01 0.605648,-0.03152 l 0.0098,-0.0015 0.1757,-0.0217 0.01964,-0.0041 0.173632,-0.02687 0.01757,-0.0041 0.170016,-0.03514 0.01964,-0.0041 0.167948,-0.04289 0.01964,-0.0036 0.161748,-0.04909 0.01964,-0.0057 0.07648,-0.02532 A 0.5,0.5 0 0 0 77.378739,22.888525 0.5,0.5 0 0 0 76.74622,22.5764 Z m 12.605432,0.0016 a 0.5,0.5 0 0 0 -0.568441,0.420129 l -0.208773,1.37511 -0.01757,0.09974 a 0.5,0.5 0 0 0 0.409795,0.576192 0.5,0.5 0 0 0 0.576192,-0.408244 l 0.01757,-0.103869 0.0021,-0.0098 0.209289,-1.378727 A 0.5,0.5 0 0 0 89.351652,22.57795 Z m 32.877068,0.06098 c -0.40299,0.140091 -0.85546,0.193065 -1.32447,0.204639 a 0.5,0.5 0 0 0 -0.48834,0.513664 0.5,0.5 0 0 0 0.51159,0.486792 c 0.52821,-0.01303 1.08585,-0.07099 1.62936,-0.259933 a 0.5,0.5 0 0 0 0.30644,-0.636653 0.5,0.5 0 0 0 -0.63458,-0.308509 z m -7.87136,0.24598 a 0.5,0.5 0 0 0 -0.58188,0.400492 l -0.004,0.0155 -0.004,0.03307 -0.0134,0.113172 -0.002,0.03359 -0.006,0.113172 v 0.03514 l 0.002,0.111104 0.002,0.03514 0.01,0.113688 0.006,0.03307 0.0176,0.113171 0.006,0.03101 0.0253,0.113688 0.008,0.03101 0.0351,0.113172 0.008,0.02946 0.0429,0.113172 0.0176,0.04289 c 0.11106,0.233492 0.26788,0.437829 0.45734,0.605648 a 0.5,0.5 0 0 0 0.70693,-0.04289 0.5,0.5 0 0 0 -0.0429,-0.705383 c -0.09,-0.07967 -0.16459,-0.177439 -0.21498,-0.28112 l -0.0217,-0.06046 -0.0233,-0.08372 -0.0196,-0.0801 -0.0114,-0.0801 -0.008,-0.0801 -0.002,-0.07855 0.004,-0.07803 0.01,-0.0801 -0.002,0.0021 a 0.5,0.5 0 0 0 -0.39998,-0.581877 z m -16.56643,0.04496 a 0.5,0.5 0 0 0 -0.285254,0.646472 l 0.214974,0.554488 0.05478,0.154512 0.04496,0.142627 0.03101,0.132809 c 0.02145,0.100302 0.03558,0.197187 0.03927,0.288871 a 0.5,0.5 0 0 0 0.519348,0.478524 0.5,0.5 0 0 0 0.480591,-0.519348 c -0.0064,-0.159444 -0.02939,-0.312014 -0.06046,-0.457337 l -0.0041,-0.0155 -0.03876,-0.160197 -0.0078,-0.02739 -0.05116,-0.165882 -0.0078,-0.02325 -0.06253,-0.172082 -0.0036,-0.01189 -0.217041,-0.560173 A 0.5,0.5 0 0 0 97.79093,22.929867 Z m -41.417627,0.08785 a 0.5,0.5 0 0 0 -0.570508,0.415996 l -0.148311,0.941544 c -0.02461,0.15825 -0.05811,0.306941 -0.10542,0.442867 a 0.5,0.5 0 0 0 0.308508,0.637171 0.5,0.5 0 0 0 0.636654,-0.306958 c 0.07256,-0.208461 0.116933,-0.41735 0.148311,-0.619084 l 0.148312,-0.941544 a 0.5,0.5 0 0 0 -0.417546,-0.569992 z m 51.912077,0.273369 a 0.5,0.5 0 0 0 -0.57257,0.415995 l -0.10542,0.666109 c -0.0375,0.235138 -0.0998,0.454202 -0.19327,0.638721 a 0.5,0.5 0 0 0 0.22065,0.671794 0.5,0.5 0 0 0 0.6718,-0.220659 c 0.15507,-0.306302 0.23847,-0.625338 0.28732,-0.931726 l 0.10749,-0.668176 a 0.5,0.5 0 0 0 -0.416,-0.572058 z m -13.560929,0.0801 a 0.5,0.5 0 0 0 -0.380856,0.01344 0.5,0.5 0 0 0 -0.248046,0.664042 c 0.154465,0.337891 0.262197,0.764133 0.478523,1.214913 l 0.0041,0.0098 0.08372,0.166398 0.0098,0.01757 0.0078,0.01344 a 0.5,0.5 0 0 0 0.681612,0.19327 0.5,0.5 0 0 0 0.19172,-0.679546 l -0.0021,-0.0062 -0.07441,-0.146244 c -0.158377,-0.330146 -0.265185,-0.750823 -0.470256,-1.19941 a 0.5,0.5 0 0 0 -0.281636,-0.261483 z m -13.568164,0.184485 a 0.5,0.5 0 0 0 -0.355534,0.141594 c -0.330493,0.32147 -0.69567,0.610624 -1.084172,0.863513 l -0.0078,0.0057 a 0.5,0.5 0 0 0 -0.153996,0.689364 0.5,0.5 0 0 0 0.689364,0.156579 l 0.01189,-0.0098 0.0057,-0.0021 c 0.440865,-0.286975 0.857126,-0.617874 1.2361,-0.986503 a 0.5,0.5 0 0 0 0.0098,-0.706934 0.5,0.5 0 0 0 -0.351399,-0.151412 z m 44.890803,0.168982 a 0.5,0.5 0 0 0 -0.34572,0.160197 c -0.30135,0.3275 -0.66203,0.610051 -1.05471,0.839742 a 0.5,0.5 0 0 0 -0.17777,0.683679 0.5,0.5 0 0 0 0.68368,0.177767 c 0.47002,-0.274922 0.90704,-0.614997 1.28312,-1.02371 a 0.5,0.5 0 0 0 -0.0294,-0.706934 0.5,0.5 0 0 0 -0.35915,-0.130741 z m -55.097932,0.947229 a 0.5,0.5 0 0 0 -0.312643,0.220658 0.5,0.5 0 0 0 0.15658,0.689364 l 0.07028,0.04496 0.0155,0.0078 0.19327,0.113688 0.0155,0.0098 0.201538,0.10697 0.01757,0.0083 0.206705,0.101286 0.01602,0.0057 0.212907,0.09612 0.01344,0.0057 0.217041,0.08785 0.0155,0.0062 0.220658,0.08165 0.0155,0.0062 0.02946,0.0098 a 0.5,0.5 0 0 0 0.632519,-0.316776 0.5,0.5 0 0 0 -0.31626,-0.63252 l -0.02119,-0.0078 -0.207222,-0.07648 -0.201022,-0.0801 -0.197404,-0.08785 -0.191203,-0.09353 -0.183968,-0.09973 -0.179317,-0.103353 -0.06253,-0.03927 a 0.5,0.5 0 0 0 -0.377238,-0.0646 z m 44.888732,0.31626 a 0.5,0.5 0 0 0 -0.2713,0.269751 0.5,0.5 0 0 0 0.26923,0.654223 c 0.25027,0.10405 0.50193,0.195679 0.7519,0.27957 l 0.0176,0.0036 c 0.242,0.07236 0.48569,0.140648 0.73432,0.199471 a 0.5,0.5 0 0 0 0.60203,-0.371036 0.5,0.5 0 0 0 -0.37156,-0.602031 c -0.22172,-0.05246 -0.44303,-0.113504 -0.66404,-0.179317 -0.23471,-0.07877 -0.46335,-0.162001 -0.68523,-0.254248 a 0.5,0.5 0 0 0 -0.38292,0 z m -29.941841,0.107487 a 0.5,0.5 0 0 0 -0.380339,0.04289 0.5,0.5 0 0 0 -0.195336,0.680062 l 0.01188,0.02325 0.0155,0.02532 0.04703,0.07235 0.02119,0.03101 c 0.13496,0.180669 0.302827,0.339122 0.501778,0.459403 0.360146,0.219205 0.757037,0.283717 1.117245,0.283187 h 0.0021 c 0.119637,-6.2e-5 0.242368,-0.0054 0.365352,-0.01757 0.417665,-0.0409 0.864415,-0.165309 1.245919,-0.459403 a 0.5,0.5 0 0 0 0.09198,-0.700733 0.5,0.5 0 0 0 -0.701249,-0.08992 c -0.185121,0.142708 -0.449561,0.22792 -0.73639,0.255799 -0.0868,0.0086 -0.176491,0.01136 -0.267683,0.01137 -0.232493,4.83e-4 -0.445887,-0.04628 -0.59738,-0.138492 h -0.0021 c -0.07978,-0.04814 -0.152433,-0.116135 -0.212907,-0.195337 l -0.0217,-0.03514 -0.0057,-0.0098 a 0.5,0.5 0 0 0 -0.299207,-0.238228 z m -32.874479,0.0021 a 0.5,0.5 0 0 0 -0.380855,0.04496 0.5,0.5 0 0 0 -0.19172,0.679545 l 0.01189,0.0217 0.01395,0.02532 0.04651,0.07235 0.01189,0.01757 c 0.154117,0.219308 0.359363,0.399795 0.599446,0.525033 0.341871,0.179154 0.703029,0.228996 1.029395,0.228926 0.34376,-5.52e-4 0.714636,-0.0409 1.07642,-0.185518 a 0.5,0.5 0 0 0 0.279053,-0.650607 0.5,0.5 0 0 0 -0.650607,-0.279052 c -0.202202,0.08083 -0.444595,0.11482 -0.704866,0.115238 -0.219994,4.7e-5 -0.41774,-0.03688 -0.564307,-0.113688 l -0.0021,-0.0021 c -0.09293,-0.04828 -0.177816,-0.12144 -0.240295,-0.208773 l -0.02946,-0.04496 -0.0036,-0.0098 A 0.5,0.5 0 0 0 53.02157,25.097693 Z m 51.91983,0.02739 a 0.5,0.5 0 0 0 -0.37517,0.06615 0.5,0.5 0 0 0 -0.154,0.689881 l 0.0372,0.05839 0.0212,0.03101 c 0.13857,0.185606 0.31351,0.344439 0.51573,0.463021 0.37526,0.220903 0.78358,0.279851 1.15031,0.279569 0.22963,-1.72e-4 0.47012,-0.01977 0.71314,-0.07855 A 0.5,0.5 0 0 0 107.21878,26.031486 0.5,0.5 0 0 0 106.6152,25.662 c -0.14651,0.03543 -0.30802,0.05051 -0.47853,0.05064 -0.25102,1.93e-4 -0.47897,-0.04594 -0.64233,-0.14211 h -0.002 c -0.0839,-0.04908 -0.15938,-0.11739 -0.21911,-0.197404 l -0.0176,-0.02946 a 0.5,0.5 0 0 0 -0.31419,-0.218592 z m -26.478489,0.08992 c -0.359891,0.143078 -0.73568,0.254654 -1.119312,0.339515 h -0.0036 c -0.0014,3.12e-4 -0.0027,0.0017 -0.0041,0.0021 l -0.205155,0.04134 -0.01137,0.0016 a 0.5,0.5 0 0 0 -0.40256,0.582393 0.5,0.5 0 0 0 0.580327,0.402043 l 0.0155,-0.0021 0.01344,-0.0015 0.219109,-0.04496 0.0057,-0.0021 c 0.433458,-0.09543 0.863094,-0.222445 1.281059,-0.388607 a 0.5,0.5 0 0 0 0.281636,-0.650606 0.5,0.5 0 0 0 -0.650606,-0.279053 z m 44.909919,0.09147 c -0.43667,0.153149 -0.89774,0.258051 -1.36891,0.332279 a 0.5,0.5 0 0 0 -0.41599,0.572058 0.5,0.5 0 0 0 0.57206,0.415996 c 0.51639,-0.08135 1.03545,-0.198695 1.54305,-0.376722 a 0.5,0.5 0 0 0 0.30696,-0.636653 0.5,0.5 0 0 0 -0.63717,-0.306958 z m -25.490949,0.275435 a 0.5,0.5 0 0 0 -0.381889,0.0078 c -0.159708,0.07063 -0.36566,0.10685 -0.593762,0.119372 l -0.173633,0.0057 0.01137,-0.0021 c -0.14535,-2e-4 -0.280104,-0.01223 -0.402043,-0.04082 a 0.5,0.5 0 0 0 -0.601514,0.373104 0.5,0.5 0 0 0 0.373104,0.601514 c 0.216382,0.05072 0.427282,0.06638 0.628902,0.06666 h 0.01344 l 0.179834,-0.0041 h 0.0155 c 0.297374,-0.01547 0.626779,-0.05885 0.952914,-0.203088 a 0.5,0.5 0 0 0 0.254248,-0.660425 0.5,0.5 0 0 0 -0.276469,-0.26355 z m -23.942208,0.07441 a 0.5,0.5 0 0 0 -0.566374,0.423747 0.5,0.5 0 0 0 0.423747,0.566374 l 0.179317,0.02532 0.01395,0.0021 0.253731,0.02946 0.01395,0.0021 0.257865,0.02325 h 0.01344 l 0.26355,0.0155 0.01189,0.0021 0.267684,0.0098 h 0.01344 l 0.271818,0.0041 a 0.5,0.5 0 0 0 0.0057,-0.0041 0.5,0.5 0 0 0 0.0036,0.0041 l 0.244429,-0.0041 h 0.01189 l 0.111104,-0.0036 a 0.5,0.5 0 0 0 0.484209,-0.515731 0.5,0.5 0 0 0 -0.517282,-0.484724 l -0.105419,0.0041 -0.22686,0.0041 h -0.01137 l -0.254248,-0.0041 -0.255798,-0.0098 -0.250114,-0.0155 -0.24598,-0.0217 -0.240295,-0.02739 z m 45.052547,0.01757 a 0.5,0.5 0 0 0 -0.55656,0.435632 0.5,0.5 0 0 0 0.43564,0.556556 c 0.51728,0.06254 1.03766,0.09317 1.55649,0.09353 a 0.5,0.5 0 0 0 0.004,-0.0021 0.5,0.5 0 0 0 0.004,0.0021 l 0.1602,-0.0036 a 0.5,0.5 0 0 0 0.49403,-0.505913 0.5,0.5 0 0 0 -0.50798,-0.494026 l -0.154,0.0036 c -0.003,-2e-6 -0.005,3e-6 -0.008,0 -0.47845,-6.27e-4 -0.9544,-0.0286 -1.4273,-0.08578 z" />
    <path
       id="rect4"
       style="fill:#000000;fill-opacity:1;stroke:#fafafa;stroke-width:1.04687;stroke-linecap:butt;stroke-linejoin:round;stroke-miterlimit:0;stroke-dasharray:1.04687, 1.04687;stroke-dashoffset:0;stroke-opacity:1"
       d="M 16.474447,4.4328044 V 31.670418 H 43.712061 V 4.4328044 Z" />
  </g>
</svg>
