<?xml version="1.0" encoding="UTF-8" standalone="no"?>
<!-- Generator: Adobe Illustrator 26.0.3, SVG Export Plug-In . SVG Version: 6.00 Build 0)  -->

<svg
   version="1.1"
   id="Layer_1"
   x="0px"
   y="0px"
   viewBox="0 0 3839 1214.3"
   style="enable-background:new 0 0 3839 1214.3;"
   xml:space="preserve"
   sodipodi:docname="Sony Playstation 2-27.svg"
   inkscape:version="1.3.2 (091e20e, 2023-11-25)"
   xmlns:inkscape="http://www.inkscape.org/namespaces/inkscape"
   xmlns:sodipodi="http://sodipodi.sourceforge.net/DTD/sodipodi-0.dtd"
   xmlns="http://www.w3.org/2000/svg"
   xmlns:svg="http://www.w3.org/2000/svg"><defs
   id="defs34">
	<linearGradient
   id="SVGID_1_"
   gradientUnits="userSpaceOnUse"
   x1="597.9769"
   y1="662.0109"
   x2="597.9769"
   y2="0">
		<stop
   offset="0"
   style="stop-color:#1BE7F2"
   id="stop1" />
		<stop
   offset="1.123279e-02"
   style="stop-color:#1CE5F1"
   id="stop2" />
		<stop
   offset="0.1812"
   style="stop-color:#2DB8E0"
   id="stop3" />
		<stop
   offset="0.3516"
   style="stop-color:#3A93D2"
   id="stop4" />
		<stop
   offset="0.5199"
   style="stop-color:#4677C8"
   id="stop5" />
		<stop
   offset="0.6855"
   style="stop-color:#4E63C0"
   id="stop6" />
		<stop
   offset="0.847"
   style="stop-color:#5257BC"
   id="stop7" />
		<stop
   offset="1"
   style="stop-color:#5353BA"
   id="stop8" />
	</linearGradient>
	
	
		<linearGradient
   id="SVGID_00000142135179307480607410000013029220581832943745_"
   gradientUnits="userSpaceOnUse"
   x1="3240.9927"
   y1="662.0109"
   x2="3240.9927"
   y2="0">
		<stop
   offset="0"
   style="stop-color:#1BE7F2"
   id="stop9" />
		<stop
   offset="1.123279e-02"
   style="stop-color:#1CE5F1"
   id="stop10" />
		<stop
   offset="0.1812"
   style="stop-color:#2DB8E0"
   id="stop11" />
		<stop
   offset="0.3516"
   style="stop-color:#3A93D2"
   id="stop12" />
		<stop
   offset="0.5199"
   style="stop-color:#4677C8"
   id="stop13" />
		<stop
   offset="0.6855"
   style="stop-color:#4E63C0"
   id="stop14" />
		<stop
   offset="0.847"
   style="stop-color:#5257BC"
   id="stop15" />
		<stop
   offset="1"
   style="stop-color:#5353BA"
   id="stop16" />
	</linearGradient>
	
	
		<linearGradient
   id="SVGID_00000080170224356263296020000008297747831737849523_"
   gradientUnits="userSpaceOnUse"
   x1="1830.8784"
   y1="662.0109"
   x2="1830.8784"
   y2="0">
		<stop
   offset="0"
   style="stop-color:#1BE7F2"
   id="stop17" />
		<stop
   offset="1.123279e-02"
   style="stop-color:#1CE5F1"
   id="stop18" />
		<stop
   offset="0.1812"
   style="stop-color:#2DB8E0"
   id="stop19" />
		<stop
   offset="0.3516"
   style="stop-color:#3A93D2"
   id="stop20" />
		<stop
   offset="0.5199"
   style="stop-color:#4677C8"
   id="stop21" />
		<stop
   offset="0.6855"
   style="stop-color:#4E63C0"
   id="stop22" />
		<stop
   offset="0.847"
   style="stop-color:#5257BC"
   id="stop23" />
		<stop
   offset="1"
   style="stop-color:#5353BA"
   id="stop24" />
	</linearGradient>
	
	
	
	
	
	
	
	
	
	
	
	
	
	
	
	
</defs><sodipodi:namedview
   id="namedview34"
   pagecolor="#ffffff"
   bordercolor="#000000"
   borderopacity="0.25"
   inkscape:showpageshadow="2"
   inkscape:pageopacity="0.0"
   inkscape:pagecheckerboard="0"
   inkscape:deskcolor="#d1d1d1"
   inkscape:zoom="0.18780933"
   inkscape:cx="1916.8377"
   inkscape:cy="606.99861"
   inkscape:window-width="1800"
   inkscape:window-height="1037"
   inkscape:window-x="0"
   inkscape:window-y="44"
   inkscape:window-maximized="0"
   inkscape:current-layer="Layer_1" />
<style
   type="text/css"
   id="style1">
	.st0{fill:#FFFFFF;}
	.st1{fill:url(#SVGID_1_);}
	.st2{fill:url(#SVGID_00000139273437367851497360000005258517855773748409_);}
	.st3{fill:url(#SVGID_00000099625073307471714310000005303101962421633688_);}
	.st4{fill:url(#SVGID_00000060005502842404079580000010074159844785956540_);}
	.st5{fill:url(#SVGID_00000168800268185757288100000015981670669288058541_);}
	.st6{fill:url(#SVGID_00000129167736650871136670000016655002364365393806_);}
	.st7{fill:url(#SVGID_00000111898173690123956000000011727442654463806139_);}
	.st8{fill:url(#SVGID_00000138575185426802700420000006540932291145274797_);}
	.st9{fill:url(#SVGID_00000044856403774474176590000017070311683157957267_);}
	.st10{fill:url(#SVGID_00000013152102818420164970000002744475298984981166_);}
	.st11{fill:url(#SVGID_00000119821741215197269150000009703643603432528773_);}
	.st12{fill:url(#SVGID_00000078017130557111570960000007526299247532662437_);}
	.st13{fill:url(#SVGID_00000127765896334154399500000014007469772671407550_);}
	.st14{fill:url(#SVGID_00000022554272892494390520000005943321884503421101_);}
	.st15{fill:url(#SVGID_00000108293784094232429780000002274686421993437365_);}
	.st16{fill:url(#SVGID_00000050635529693877839470000015831763941469422492_);}
	.st17{fill:url(#SVGID_00000154416186170155792050000004394388702773316020_);}
	.st18{fill:url(#SVGID_00000101784710021937943510000007236175373594211737_);}
	.st19{fill:url(#SVGID_00000164513979861640934360000015709154790218527413_);}
	.st20{fill:url(#SVGID_00000058583844544503438590000011665154258051237270_);}
	.st21{fill:url(#SVGID_00000153680126473421263010000010624665484318425006_);}
	.st22{fill-rule:evenodd;clip-rule:evenodd;}
	.st23{fill:#00AD9C;}
	.st24{fill:#FBB817;}
	.st25{fill:#0174BA;}
	.st26{fill:#EB2027;}
	.st27{fill-rule:evenodd;clip-rule:evenodd;fill:#FFFFFF;}
</style>
<g
   id="g52"><path
     d="M 0,0 V 47.300781 H 1148.6992 V 307.40039 H 0 V 662 H 47.300781 V 354.59961 H 1196 V 0 Z"
     style="fill:url(#SVGID_1_)"
     id="path52" /><path
     d="M 2643,0 V 47.300781 H 3791.6992 V 307.40039 H 2643 V 662 H 3839 V 614.69922 H 2690.3008 V 354.59961 H 3839 V 0 Z"
     style="fill:url(#SVGID_00000142135179307480607410000013029220581832943745_)"
     id="path51" /><path
     d="M 1806,0 V 614.69922 H 1196 V 662 h 659.6992 V 47.300781 h 610.1016 V 0 Z"
     style="fill:url(#SVGID_00000080170224356263296020000008297747831737849523_)"
     id="path50" /><path
     d="M 975,892.30078 V 1125 h 36.3008 V 914.59961 h 33.5996 c 0,0 24.3988,4.2e-4 32.7988,10.90039 7.1,9.29997 8.4004,26.10003 8.4004,37.5 0,12.19997 -0.8004,31.0004 -4.9004,37.9004 -6.2,10.5 -16.3992,12.5996 -25.6992,12.5996 h -22.1992 v 20.6992 h 31.8984 c 0,0 28.8012,1.2016 41.2012,-11.3984 15.2,-15.4 19.0996,-36.2001 19.0996,-64.00002 0,-25.19992 -9.2004,-50.70042 -27.9004,-59.40039 -15.5,-7.09998 -43.4004,-7.09961 -43.4004,-7.09961 z"
     style="fill:#ffffff"
     id="path49" /><path
     d="M 1154.1992,892.30078 V 1125.0996 H 1190.5 V 892.30078 Z"
     style="fill:#ffffff"
     id="path48" /><path
     d="m 1383.9004,946.59961 66.5,174.20119 -38.2012,93.5 h 30.2012 l 109.9004,-267.70119 h -33.7012 L 1470.6992,1077 l -44.5,-130.40039 z"
     style="fill:#ffffff"
     id="path47" /><path
     d="m 1638.0996,892.69922 c 0,0 -15.9992,0.10078 -25.6992,1.80078 -8.4,1.5 -19.5,4.80042 -27,12.40039 -7.6,7.49998 -15.0996,23.80048 -15.0996,52.90039 0,28.99991 7.0984,38.49886 12.3984,44.79882 5.3,6.3 16.4012,15.0008 33.2012,15.8008 11.9,0.6 22.1988,1.9 28.7988,2.5 9.3,0.8 15.5012,6.1996 18.2012,12.0996 2.6,6 3.9004,20.6008 3.9004,27.3008 0,6.7 -3.6,25.7 -7.5,30 -6.7,7.1 -15.6008,10.8984 -33.3008,10.8984 -8,0 -46.4004,-1.5 -46.4004,-1.5 v 22 l 56,1.5 c 0,0 15.9012,-0.099 25.7012,-1.7988 8.4,-1.5 19.4,-4.8004 27,-12.4004 7.5,-7.6 15.0996,-28.3004 15.0996,-57.4004 0,-28.9999 -7.2,-42.2996 -12.5,-48.5996 -5.3,-6.29998 -16.3012,-15.00078 -33.2012,-15.80078 -11.9,-0.6 -22.1988,-1.89844 -28.7988,-2.39844 -9.3,-0.9 -15.6012,-6.30119 -18.2012,-12.20117 -2.7,-5.89998 -3.5,-19.49885 -3.5,-26.29883 0,-6.69998 3.1,-18.50118 7,-22.70117 6.6,-7.09998 12.0012,-10.90039 29.7012,-10.90039 8,0 45.0996,1.5 45.0996,1.5 v -22 z"
     style="fill:#ffffff"
     id="path46" /><path
     d="M 1741.5996,914.59961 V 1085.5 c 0,0 0.9008,15.5996 1.8008,21.0996 0.9,5.5 8.8993,18.5 29.6992,18.5 l 37.5996,-0.6992 V 1102.5 c 0,0 -10.1984,0.6992 -16.3984,0.6992 -6.2,0 -13.8016,-0.3984 -15.1016,-10.8984 -1.4,-10.5 -1.3984,-23.1016 -1.3984,-23.1016 V 968.5 h 41 v -21.90039 h -41 v -32 z"
     style="fill:#ffffff"
     id="path45" /><path
     d="m 2128.5996,946.59961 v 178.49999 h 36.3008 V 946.59961 Z"
     style="fill:#ffffff"
     id="path44" /><path
     d="m 2128.5996,892.30078 v 32.39844 h 36.3008 v -32.39844 z"
     style="fill:#ffffff"
     id="path43" /><path
     d="m 2279.6992,945 c -24.7999,0 -43.8988,5.60042 -54.2988,13.90039 -10.4,8.29997 -23.0996,25.90052 -23.0996,76.90041 0,50.8998 12.6996,68.4984 23.0996,76.8984 10.4,8.3 29.4989,13.9004 54.2988,13.9004 24.7,0 43.9012,-5.6004 54.2012,-13.9004 10.4,-8.3 23.1992,-25.8986 23.1992,-76.8984 0,-50.89989 -12.7992,-68.60044 -23.1992,-76.90041 C 2323.6004,950.50042 2304.3992,945 2279.6992,945 Z m 1.1016,24.09961 c 11.9,0 21.0996,4.10119 26.0996,10.20117 5,6.09999 11.0996,19.0001 11.0996,56.50002 0,37.3998 -6.0996,50.4 -11.0996,56.5 -5.1,6.1 -14.1996,10.1992 -26.0996,10.1992 -11.8,0 -21,-4.0992 -26,-10.1992 -5,-6.1 -11.1016,-19.1002 -11.1016,-56.5 0,-37.39992 6.1016,-50.30003 11.1016,-56.50002 5,-6.09998 14.1,-10.20117 26,-10.20117 z"
     style="fill:#ffffff"
     id="path42" /><path
     d="m 2477.6992,946.59961 -81.3984,1.5 v 176.80079 h 36 V 971.59961 l 35.5996,-1.5 c 9.3,0 20.2996,2.5008 25.5996,9.30078 5,6.39998 8.0996,13.89964 8.0996,26.09961 v 119.3008 H 2538 V 1002.5 c 0,-23.09993 -7.1008,-36.60003 -17.8008,-45 -15.2,-12.09997 -42.5,-10.90039 -42.5,-10.90039 z"
     style="fill:#ffffff"
     id="path41" /><path
     d="M 2019.9004,914.59961 V 1085.5 c 0,0 0.8992,15.5996 1.6992,21.0996 0.9,5.5 8.8012,18.5 29.7012,18.5 l 37.5996,-0.6992 V 1102.5 c 0,0 -10.2004,0.6992 -16.4004,0.6992 -6.2,0 -13.7996,-0.3984 -15.0996,-10.8984 -1.3,-10.5 -1.3008,-23.1016 -1.3008,-23.1016 V 968.5 H 2097 v -21.90039 h -40.9004 v -32 z"
     style="fill:#ffffff"
     id="path40" /><path
     d="m 1304.5,946.5 -57.6992,1.5 v 23.59961 l 47.8984,-1.5 c 9.4,0 20.3016,2.6008 25.6016,9.30078 5,6.29998 8.0996,13.89964 8.0996,26.09961 v 95.1992 l -24,1.5 c -13.3,0 -25.2004,-0.9984 -31.9004,-5.8984 -7.5,-5.4 -10.5996,-12.6016 -10.5996,-28.6016 0,-12.2 2.5996,-17.7 7.5996,-24 5.3,-6.8 15.0008,-8.5 24.3008,-8.5 h 12.5 v -20.5996 h -22.2012 c 0,0 -27.2,-1.1996 -42.5,10.9004 -10.6,8.5 -17.6992,21.8997 -17.6992,45.0996 0,24 8.4004,41.2996 23.9004,47.5996 15.8999,6.4 47.3984,6.3008 47.3984,6.3008 l 69.6016,-1.5 v -120.5996 c 0,-23.09995 -7.1012,-36.50004 -17.7012,-45.00001 C 1331.7996,945.30042 1304.5,946.5 1304.5,946.5 Z"
     style="fill:#ffffff"
     id="path39" /><path
     d="m 1917.1992,946.5 -57.5996,1.5 v 23.59961 l 47.9004,-1.5 c 9.3,0 20.1996,2.6008 25.5996,9.30078 5,6.29998 8,13.89964 8,26.09961 h -0.1 v 95.1992 l -23.9004,1.5 c -13.3,0 -25.3004,-0.9984 -31.9004,-5.8984 -7.5,-5.4 -10.5996,-12.6016 -10.5996,-28.6016 0,-12.2 2.7012,-17.7 7.7012,-24 5.2,-6.8 14.8992,-8.5 24.1992,-8.5 h 12.5 v -20.5996 h -22.1992 c 0,0 -27.4016,-1.1996 -42.6016,10.9004 -10.6,8.5 -17.6992,21.8997 -17.6992,45.0996 0,24 8.5,41.2996 24,47.5996 15.8,6.4 47.4004,6.3008 47.4004,6.3008 L 1977.5,1123 v -120.5996 c 0,-23.09995 -7.2008,-36.50004 -17.8008,-45.00001 -15.2,-12.09997 -42.5,-10.90039 -42.5,-10.90039 z"
     style="fill:#ffffff"
     id="path38" /><path
     d="m 2603.9004,1055.5 c -19.5,0 -35.5,15.9 -35.5,35.5 0,9.5 3.7004,18.3996 10.4004,25.0996 6.7,6.7 15.5996,10.4004 25.0996,10.4004 9.5,0 18.3996,-3.7004 25.0996,-10.4004 6.7,-6.7 10.4004,-15.5996 10.4004,-25.0996 0,-9.5 -3.7004,-18.3996 -10.4004,-25.0996 -6.7,-6.7 -15.5996,-10.4004 -25.0996,-10.4004 z m 0.1,5.9004 c 7.9,0 15.3004,3.0992 20.9004,8.6992 5.5,5.6 8.6992,13.0004 8.6992,20.9004 0,16.3 -13.2,29.5 -29.5,29.5 -7.9,0 -15.3004,-3.0992 -20.9004,-8.6992 -5.7,-5.5 -8.7988,-12.9008 -8.7988,-20.8008 0,-7.9 3.0992,-15.3004 8.6992,-20.9004 5.6,-5.6 13.0004,-8.6992 20.9004,-8.6992 z"
     style="fill:#ffffff"
     id="path37" /><path
     d="m 2588.9004,1070.5996 v 39.5 h 6.7988 v -16.1992 H 2606.5 c 1.9,0 3.3992,0.1996 4.1992,0.5996 1.4,0.7 2.2012,2.0992 2.2012,4.1992 l 0.2988,6.3008 c 0.1,1.5 0.2008,2.4996 0.3008,3.0996 0.2,0.6 0.3,1.1 0.5,1.5 l 0.3008,0.5 h 7.5996 v -2.2988 l -0.5,-0.3008 c -0.5,-0.2 -0.9012,-0.7992 -1.2012,-1.6992 -0.2,-0.6 -0.2988,-1.6 -0.2988,-3 l -0.2012,-5.1016 c -0.1,-2.4 -0.5984,-4.0992 -1.3984,-5.1992 -0.5,-0.8 -1.4008,-1.4 -2.3008,-2 1.2,-0.8 2.2,-1.7004 3,-2.9004 1,-1.6 1.5,-3.6 1.5,-6 0,-4.7 -2.0008,-7.9992 -5.8008,-9.6992 -2,-0.9 -4.5,-1.3008 -7.5,-1.3008 z m 6.6992,6.0996 h 11.7012 c 1.6,0 2.8988,0.2012 3.7988,0.7012 1.6,0.8 2.4004,2.3992 2.4004,4.6992 0,2.2 -0.5992,3.7 -1.6992,4.5 -1.3,0.8 -3.0012,1.3008 -5.2012,1.3008 h -11 z"
     style="fill:#ffffff"
     id="path36" /><path
     d="m 2786.8008,850 c -55.2,0.8 -109.3008,3.19922 -109.3008,3.19922 V 881 c 0,0 55.4008,-1.19961 102.8008,-1.09961 18.8,0 25.2,4.89885 32,12.29883 5.6,6.39998 8.5,20.3008 8.5,34.80078 0,15.49996 -3.3,24.99963 -9.5,33.09961 -5.4,7.19998 -12.7012,10.79961 -32.7012,10.59961 -3.8,0 -12.3004,-0.2 -20.9004,-0.5 -11.6,-0.4 -19.9984,0.20039 -24.3984,0.40039 -22.6,1.2 -41.1,11.8008 -49,21.30078 -11.4,13.70001 -15.2004,21.29901 -15.9004,73.79881 v 44.9004 c 0,14.8 10.6996,22.2012 21.5996,22.2012 l 7.6992,0.1 H 2858 v -29.5996 h -146.6992 v -60.2012 c 0.7,-20.6 1.1984,-26.4 8.3984,-34 8.3,-9 26.0008,-10.9996 32.8008,-11.0996 l 43.0996,1.30078 c 34.8,0 50.5,-10.80158 58.5,-22.60156 9,-13.49998 10.3008,-27.5985 9.8008,-54.39844 -0.4,-25.59994 -4.0012,-38.00119 -14.2012,-51.20117 C 2840.0992,858.59963 2821.2006,849.5 2786.8008,850 Z"
     style="fill:#ffffff"
     id="path35" /></g>
</svg>
