<?xml version="1.0" encoding="UTF-8" standalone="no"?>
<!-- Generator: Adobe Illustrator 26.0.3, SVG Export Plug-In . SVG Version: 6.00 Build 0)  -->

<svg
   version="1.1"
   id="Layer_1"
   x="0px"
   y="0px"
   viewBox="0 0 3839 752.5"
   style="enable-background:new 0 0 3839 752.5;"
   xml:space="preserve"
   sodipodi:docname="Sony Playstation-02.svg"
   inkscape:version="1.3.2 (091e20e, 2023-11-25)"
   xmlns:inkscape="http://www.inkscape.org/namespaces/inkscape"
   xmlns:sodipodi="http://sodipodi.sourceforge.net/DTD/sodipodi-0.dtd"
   xmlns="http://www.w3.org/2000/svg"
   xmlns:svg="http://www.w3.org/2000/svg"><defs
   id="defs15">
	
	

		
		
		
		
		
		
		
		
	
		
		
		
		
		
		
		
		
		
		
		
		
	</defs><sodipodi:namedview
   id="namedview15"
   pagecolor="#ffffff"
   bordercolor="#000000"
   borderopacity="0.25"
   inkscape:showpageshadow="2"
   inkscape:pageopacity="0.0"
   inkscape:pagecheckerboard="0"
   inkscape:deskcolor="#d1d1d1"
   inkscape:zoom="0.18780933"
   inkscape:cx="1916.8377"
   inkscape:cy="378.043"
   inkscape:window-width="1800"
   inkscape:window-height="1037"
   inkscape:window-x="0"
   inkscape:window-y="44"
   inkscape:window-maximized="0"
   inkscape:current-layer="Layer_1" />
<style
   type="text/css"
   id="style1">
	.st0{fill:#FFFFFF;}
	.st1{fill-rule:evenodd;clip-rule:evenodd;fill:#FFFFFF;}
	.st2{fill-rule:evenodd;clip-rule:evenodd;}
	.st3{fill:#00AD9C;}
	.st4{fill:#FBB817;}
	.st5{fill:#0174BA;}
	.st6{fill:#EB2027;}
</style>
<g
   id="g34"><path
     d="m 1252,219.30078 v 0.0996 385.29883 h 60.0996 V 256.40039 h 55.7012 c 0,0 40.3988,-3.3e-4 54.2988,18.09961 11.7,15.29995 14,43.20006 14,62 0,20.19994 -1.2996,51.19925 -8.0996,62.69922 C 1417.7,416.49916 1400.8004,420 1385.4004,420 h -36.5996 v 34.09961 h 52.7988 c 0,0 47.7008,2.10111 68.3008,-18.79883 24.9999,-25.59992 31.5,-59.90053 31.5,-105.90039 0,-41.89988 -15.2012,-83.90122 -46.2012,-98.20117 -25.6999,-11.89997 -71.8984,-11.89844 -71.8984,-11.89844 z"
     style="fill:#ffffff"
     id="path34" /><path
     d="m 1548.5996,219.40039 v 385.29883 h 60.2012 V 219.40039 Z"
     style="fill:#ffffff"
     id="path33" /><path
     d="m 1928.6992,309.30078 110.1016,288.5 L 1975.6992,752.5 h 49.9004 L 2207.5,309.30078 h -55.8008 l -79.1992,216 -73.6992,-216 z"
     style="fill:#ffffff"
     id="path32" /><path
     d="m 2349.5,219.80078 c 0,0 -26.4,0.19844 -42.5,2.89844 -14,2.49999 -32.3008,8.1016 -44.8008,20.60156 -12.5,12.59997 -25,39.49937 -25,87.69922 0,47.99985 11.8016,63.69925 20.6016,74.19922 8.8,10.39997 27.0985,24.90117 54.8984,26.20117 19.8,1 36.7012,3.19961 47.7012,4.09961 15.4,1.3 25.6,10.29964 30,20.09961 4.5,9.79997 6.5996,33.99964 6.5996,45.09961 0,11.19997 -5.8004,42.8008 -12.4004,49.80078 -11,11.79997 -25.6,18.09961 -55,18.09961 -13.2,0 -76.7988,-2.5 -76.7988,-2.5 V 602.5 L 2345,605 c 0,0 26.4996,-0.20001 42.5996,-3 14,-2.4 32.2012,-8.00003 44.7012,-20.5 12.5,-12.59996 25,-46.99976 25,-95.09961 0,-48.09985 -11.8016,-70.00003 -20.6016,-80.5 -8.8,-10.39997 -27.2,-24.90117 -55,-26.20117 -19.7999,-1 -36.5996,-3.19961 -47.5996,-4.09961 -15.4,-1.3 -25.6996,-10.29964 -30.0996,-20.09961 -4.4,-9.79997 -5.6992,-32.30003 -5.6992,-43.5 0,-11.19997 5,-30.59963 11.5,-37.59961 11.1,-11.79997 19.8989,-18.09961 49.2988,-18.09961 13.2,0 74.5,2.39844 74.5,2.39844 v -36.39844 z"
     style="fill:#ffffff"
     id="path31" /><path
     d="m 2520.9004,256.40039 v 282.90039 c 0,0 1.4004,25.79886 2.9004,34.79883 1.5,9.09997 14.5993,30.70117 49.1992,30.70117 l 62.3008,-1.20117 v -36.40039 c 0,0 -16.9016,1.30078 -27.1016,1.30078 -10.3,0 -22.8,-0.69966 -25,-18.09961 -2.2,-17.39994 -2.1992,-38.20117 -2.1992,-38.20117 V 345.5 h 67.8008 V 309.30078 H 2581 v -52.90039 z"
     style="fill:#ffffff"
     id="path30" /><path
     d="m 3161.4004,309.30078 v 295.39844 h 60.1992 V 309.30078 Z"
     style="fill:#ffffff"
     id="path29" /><path
     d="M 3161.4004,219.40039 V 273 h 60.1992 v -53.59961 z"
     style="fill:#ffffff"
     id="path28" /><path
     d="m 3411.5996,306.80078 c -40.9998,0 -72.6004,9.20005 -89.9004,23 -17.0999,13.79996 -38.2988,42.99908 -38.2988,127.29883 0,84.29975 21.1989,113.40122 38.2988,127.20117 17.3,13.79996 48.9006,23 89.9004,23 40.8999,0 72.6012,-9.10004 89.7012,-23 17.0999,-13.69996 38.2988,-42.90142 38.2988,-127.20117 0,-84.39975 -21.0989,-113.49887 -38.2988,-127.29883 -17.2,-13.79995 -48.8013,-23 -89.7012,-23 z m 1.8008,39.79883 c 19.7,0 34.7996,6.70042 43.0996,16.90039 8.3,10.09997 18.4004,31.50018 18.4004,93.5 0,61.89982 -10.1004,83.40003 -18.4004,93.5 -8.3,10.29997 -23.4996,17 -43.0996,17 -19.7,0 -34.9012,-6.80003 -43.2012,-17 -8.2,-10.09997 -18.2988,-31.60018 -18.2988,-93.5 0,-61.99982 10.0988,-83.40003 18.2988,-93.5 8.3,-10.19997 23.5012,-16.90039 43.2012,-16.90039 z"
     style="fill:#ffffff"
     id="path27" /><path
     d="M 3739.3008,309.40039 3604.5,311.80078 V 604.5 h 59.5996 V 350.80078 h 0.1 l 59,-2.5 c 15.3,0 33.5008,4.19886 42.3008,15.29883 8.3,10.49997 13.4004,23.00123 13.4004,43.20117 V 604.40039 H 3839 V 402 c 0,-38.29988 -11.7008,-60.60004 -29.3008,-74.5 -25.2999,-19.99994 -70.3984,-18.09961 -70.3984,-18.09961 z"
     style="fill:#ffffff"
     id="path26" /><path
     d="m 2981.4004,256.40039 v 282.90039 c 0,0 1.6,25.79886 3,34.79883 1.4,9.09997 14.6997,30.70117 49.0996,30.70117 l 62.3008,-1.20117 v -36.40039 c 0,0 -16.8016,1.30078 -27.1016,1.30078 -10.3,0 -22.6984,-0.69966 -24.8984,-18.09961 -2.3,-17.39994 -2.3008,-38.20117 -2.3008,-38.20117 V 345.5 h 67.8008 V 309.30078 H 3041.5 v -52.90039 z"
     style="fill:#ffffff"
     id="path25" /><path
     d="m 1797.5,309.40039 -95.5,2.40039 v 39.09961 l 79.3008,-2.5 c 15.4,0 33.5984,4.19886 42.3984,15.29883 8.2,10.39997 13.3008,23.00123 13.3008,43.20117 h -0.1 v 157.79883 l -39.7012,2.5 c -21.9999,0 -41.7988,-1.79886 -52.7988,-9.79883 -12.4,-9.09997 -17.5996,-20.90047 -17.5996,-47.40039 0,-20.19994 4.4992,-29.19925 12.6992,-39.69922 8.8,-11.09997 24.9008,-13.90039 40.3008,-13.90039 h 20.5 V 422.19922 H 1763.5 c 0,0 -45.1004,-1.89838 -70.4004,18.10156 -17.5,13.99996 -29.1992,36.29973 -29.1992,74.59961 0,39.59988 13.7997,68.19925 39.5996,78.69922 26.1999,10.69997 78.5,10.5 78.5,10.5 l 115.1992,-2.5 V 402 c 0,-38.29988 -11.6988,-60.50004 -29.2988,-74.5 -25.2,-19.99994 -70.4004,-18.09961 -70.4004,-18.09961 z"
     style="fill:#ffffff"
     id="path24" /><path
     d="m 2811.5996,309.40039 -95.5,2.40039 v 39.09961 l 79.3008,-2.5 c 15.4,0 33.4988,4.19886 42.2988,15.29883 8.3,10.39997 13.5,23.00123 13.5,43.20117 h 0.2012 v 157.79883 l -39.8008,2.5 c -21.9999,0 -41.7988,-1.79886 -52.7988,-9.79883 -12.5,-9.09997 -17.6016,-20.90047 -17.6016,-47.40039 0,-20.19994 4.4016,-29.19925 12.6016,-39.69922 8.8,-11.09997 24.6996,-13.90039 40.0996,-13.90039 H 2814.5 v -34.20117 h -36.6992 c 0,0 -45.2005,-1.89838 -70.4004,18.10156 -17.6,13.99996 -29.4004,36.29973 -29.4004,74.59961 0,39.59988 13.9993,68.19925 39.6992,78.69922 26.2,10.69997 78.5,10.5 78.5,10.5 l 115.2012,-2.5 V 402 c 0,-38.29988 -11.8004,-60.50004 -29.4004,-74.5 -25.2999,-19.99994 -70.4004,-18.09961 -70.4004,-18.09961 z"
     style="fill:#ffffff"
     id="path23" /><path
     d="m 293.85547,437.61523 c -0.0878,0.0314 -173.95938,62.18597 -187.75586,66.88477 -13.79996,4.69999 -32.900391,12.19922 -32.900391,12.19922 l 136.101561,43.70117 154.39844,-55.40234 v -46.89258 z"
     style="fill:#00ad9c"
     id="path22" /><path
     d="m 525,505.59961 -2.40039,0.85937 v 94.75977 c 59.90081,-21.21673 148.59961,-52.61914 148.59961,-52.61914 z M 363.69922,563.31836 295,587.90039 l 68.69922,22.05273 z"
     style="fill:#00ad9c"
     id="path21" /><path
     d="m 760.40039,574.69922 -237.80078,85.1289 v 1.08594 L 656,703.80078 c 0,0 208.30003,-74.80079 218.5,-78.30078 10.29997,-3.59999 26,-9.59961 26,-9.59961 z"
     style="fill:#00ad9c"
     id="path20" /><path
     d="m 522.59961,660.91406 v 90.95117 L 656,703.80078 Z m -7.13086,88.74219 7.03125,2.24414 0.0469,-0.0176 z"
     style="fill:#fbb817"
     id="path19" /><path
     d="M 73.099609,516.69922 C 36.699719,531.79917 -1.8999943,554.20047 0,579.40039 1.8999943,604.60032 21.500213,625.40006 92.5,645 c 59.91898,16.54101 151.46112,32.2264 271.19922,6.18555 V 609.95312 L 295,587.90039 260.59961,600.5 c -27.69992,10.49997 -78.9993,17.10036 -106.19922,4.40039 -25.49992,-11.89997 5.09887,-27.10119 20.29883,-32.20117 l 34.5,-12.29883 z"
     style="fill:#fbb817"
     id="path18" /><path
     d="m 363.69922,412.91211 -69.89844,24.6875 69.89844,20.50586 z"
     style="fill:#0174ba"
     id="path17" /><path
     d="M 735.44141,463.76953 C 730.37426,463.76418 725.22498,463.8375 720,464 c -75.69977,2.4 -128.2002,15.90008 -195,41.5 l 146.19922,43 53.40039,-19.09961 c 0,0 15.20006,-5.80118 36,-7.70117 25.39992,-2.3 40.19964,-0.29961 48.59961,0.90039 4.19998,0.5 21.00079,4.40081 23.80078,12.80078 2.89999,8.39997 -11.19926,17.70041 -24.69922,22.40039 -13.59996,4.69999 -47.90039,16.79883 -47.90039,16.79883 L 900.5,615.80078 c 28.49991,-10.19997 77.80077,-34.50127 73.80078,-68.20117 -2.99999,-25.69992 -38.00014,-44.79887 -84.5,-59.29883 -20.71869,-6.46873 -78.35216,-24.45105 -154.35937,-24.53125 z"
     style="fill:#0174ba"
     id="path16" /><path
     d="m 363.69922,0 v 701.90039 l 158.90039,50 V 163.59961 c 0,-27.59994 12.30121,-45.9992 32.20117,-39.69922 25.89996,7.19998 31,32.59928 31,60.19922 v 235.20117 c 98.9998,47.7999 176.89844,-0.10143 176.89844,-126.20117 C 762.69922,163.59987 717.09933,106.0999 582.59961,60 529.59971,42.100036 431.19908,12.499976 363.69922,0 Z"
     style="fill:#eb2027"
     id="path15" /></g>
</svg>
