<?xml version="1.0" encoding="UTF-8" standalone="no"?>
<!-- Created with Inkscape (http://www.inkscape.org/) -->

<svg
   version="1.0"
   width="1619.3"
   height="456.5"
   viewBox="0 0 1619.282 456.502"
   id="Layer_2"
   xml:space="preserve"
   sodipodi:docname="retropie.svg"
   inkscape:version="1.3.2 (091e20e, 2023-11-25)"
   xmlns:inkscape="http://www.inkscape.org/namespaces/inkscape"
   xmlns:sodipodi="http://sodipodi.sourceforge.net/DTD/sodipodi-0.dtd"
   xmlns="http://www.w3.org/2000/svg"
   xmlns:svg="http://www.w3.org/2000/svg"
   xmlns:rdf="http://www.w3.org/1999/02/22-rdf-syntax-ns#"
   xmlns:cc="http://creativecommons.org/ns#"
   xmlns:dc="http://purl.org/dc/elements/1.1/"><sodipodi:namedview
   id="namedview1"
   pagecolor="#ffffff"
   bordercolor="#000000"
   borderopacity="0.25"
   inkscape:showpageshadow="2"
   inkscape:pageopacity="0.0"
   inkscape:pagecheckerboard="0"
   inkscape:deskcolor="#d1d1d1"
   inkscape:zoom="0.47502599"
   inkscape:cx="771.53673"
   inkscape:cy="82.100771"
   inkscape:window-width="1800"
   inkscape:window-height="1037"
   inkscape:window-x="0"
   inkscape:window-y="44"
   inkscape:window-maximized="0"
   inkscape:current-layer="Layer_2" /><defs
   id="defs32">
	
	
	
	
	
	
	
	
	
	
	
	
	
	
	
	
	
	
	

	
	

	
	
</defs><metadata
   id="metadata272"><rdf:RDF><cc:Work
       rdf:about=""><dc:format>image/svg+xml</dc:format><dc:type
         rdf:resource="http://purl.org/dc/dcmitype/StillImage" /></cc:Work></rdf:RDF></metadata>


<g
   id="g1"><path
     d="m 466.27404,73.250963 c -1.278,-0.009 -2.63813,0.552854 -3.53713,1.46485 -0.91299,0.900996 -1.47385,2.25413 -1.46485,3.537125 V 103.7511 c -0.011,1.278 0.55486,2.63917 1.46485,3.53517 0.897,0.911 2.25513,1.4749 3.53713,1.4629 h 89.49648 v 221.99902 h -54.49828 v -18.99618 c 0.009,-1.28199 -0.54985,-2.63613 -1.46485,-3.53712 -0.899,-0.911 -2.25913,-1.47385 -3.53713,-1.46485 h -81.4984 v -47.00216 l 81.4984,0.002 c 1.282,0.009 2.63713,-0.5529 3.53713,-1.4629 0.915,-0.90399 1.47485,-2.26117 1.46485,-3.53517 v -23.5001 c 0.009,-1.279 -0.55285,-2.63813 -1.46485,-3.53713 -0.899,-0.90998 -2.25913,-1.4758 -3.53713,-1.4668 h -81.9984 V 182.7515 h 82.50231 c 1.277,0.009 2.63418,-0.55181 3.53517,-1.46681 0.908,-0.89499 1.4729,-2.25622 1.4629,-3.53322 v -24.0001 c 0.009,-1.277 -0.55485,-2.63917 -1.46485,-3.53517 -0.899,-0.913 -2.25622,-1.47385 -3.53322,-1.46485 H 384.26391 c -1.27999,-0.009 -2.63509,0.5518 -3.53907,1.4668 -0.911,0.895 -1.4719,2.25622 -1.4629,3.53322 v 176.99882 l -5.50393,-0.004 h -17.42195 c -17.52594,0 -37.17345,-5e-5 -39.07244,0.002 -0.016,0 -0.13824,0.003 -0.36524,-0.008 l -1.4375,-0.084 -1.2129,-0.77149 c -0.372,-0.239 -0.87277,-0.56525 -1.50977,-0.99023 l -0.82813,-0.55469 -0.58399,-0.80665 c -0.342,-0.47 -0.79611,-1.11648 -1.28711,-1.85548 -3.52099,-5.23497 -10.06847,-15.92308 -17.81844,-28.87903 -11.63695,-19.45092 -26.05013,-44.09659 -37.54509,-63.86551 -4.12397,-7.08898 -7.87047,-13.55485 -10.98247,-18.92782 l -4.77736,-8.2559 h 83.34802 c 1.277,0.012 2.63922,-0.55685 3.53322,-1.46485 0.913,-0.89899 1.47485,-2.25717 1.46485,-3.53517 V 79.76857 c 0.009,-1.276996 -0.55181,-2.640082 -1.4668,-3.539078 -0.895,-0.907998 -2.25123,-1.469944 -3.53322,-1.460944 H 201.76116 c -2.73399,-0.009 -4.99302,2.236735 -5.00002,4.970725 l -1.46876,251.059697 -5.43557,0.0312 c -7.96996,0.049 -19.56763,0.1165 -31.31459,0.1875 -21.04892,0.124 -42.58646,0.25 -44.32246,0.25 -2.70399,0.044 -5.15098,-1.00648 -6.25198,-1.73047 l -0.0371,-0.0234 -0.0508,-0.0293 c -0.745,-0.471 -1.2217,-0.88046 -1.55469,-1.18946 l -0.25001,-0.23437 -76.963224,-92.97893 c -1.002,-1.20698 -2.39749,-1.8055 -3.85549,-1.8125 -1.135,0.003 -2.23547,0.36439 -3.18947,1.15039 -1.20198,0.996 -1.7986,2.38955 -1.8086,3.85353 0.004,1.112 0.35157,2.18997 1.10157,3.12697 l 76.37924,92.27384 0.53711,0.64649 c 0.399,0.475 1.69742,1.98607 4.275414,3.62306 2.56199,1.636 6.64052,3.33028 11.64849,3.32228 h 0.0625 c 3.57799,0 85.97472,-0.49805 86.02772,-0.49805 2.70799,-0.003 4.96877,-2.26369 4.96877,-4.97267 L 206.72993,84.764685 H 317.26948 V 195.76518 l -86.99843,0.002 c -1.79199,0 -3.43215,0.94701 -4.32814,2.50001 -0.45,0.773 -0.67383,1.63006 -0.67383,2.49806 0,0.83499 0.20795,1.66384 0.62695,2.42384 0.014,0.022 0.0184,0.0301 0.0234,0.0371 0.007,0.011 0.008,0.0164 0.01,0.0234 0.007,0.009 0.0136,0.0164 0.0176,0.0254 0.012,0.019 0.025,0.0432 0.043,0.0742 0.037,0.064 0.0892,0.1573 0.16016,0.2793 0.142,0.243 0.3501,0.60518 0.6211,1.07618 0.54299,0.94499 1.34338,2.32891 2.35938,4.08791 2.03399,3.52298 4.94427,8.55359 8.44926,14.60358 7.01097,12.09794 16.4036,28.26173 25.93956,44.52168 9.53896,16.26393 19.21861,32.61919 26.81457,45.12715 3.79999,6.25997 7.07232,11.54505 9.57231,15.41803 1.255,1.943 2.29903,3.51359 3.16603,4.72659 0.458,0.64099 0.81546,1.12018 1.18946,1.57617 0.236,0.281 0.38224,0.45718 0.61524,0.70118 0.515,0.5 0.36064,0.4061 1.18164,0.9961 v 0.002 c 2.381,1.56 3.26164,2.28674 5.34964,3.26173 0.76398,0.357 2.04089,0.73457 2.92188,0.85157 1.053,0.161 1.90543,0.1825 2.94142,0.1875 h 67.00225 c 1.282,0.009 2.63228,-0.55381 3.53126,-1.4668 0.915,-0.901 1.47776,-2.25622 1.46876,-3.53322 V 158.74548 h 102.51022 v 14.00202 h -82.49841 c -1.28,-0.009 -2.63713,0.55485 -3.53713,1.46485 -0.90999,0.89699 -1.47189,2.25413 -1.46289,3.53712 v 53.49828 c -0.009,1.28 0.55294,2.64022 1.46094,3.53322 0.899,0.911 2.26108,1.4768 3.53908,1.4668 h 81.9984 v 13.49811 l -81.4984,0.004 c -1.282,-0.01 -2.64118,0.54994 -3.53517,1.46094 -0.913,0.898 -1.47485,2.25408 -1.46485,3.53908 v 56.9983 c -0.009,1.27698 0.55376,2.63912 1.46875,3.53712 0.892,0.906 2.24927,1.46799 3.53127,1.45899 h 81.50036 v 19.00399 c -0.011,1.277 0.55285,2.63718 1.46485,3.53517 0.89699,0.911 2.24927,1.47385 3.53126,1.46485 h 64.50419 c 1.28,0.009 2.63427,-0.5538 3.53127,-1.4668 0.91299,-0.901 1.47485,-2.25622 1.46485,-3.53322 V 103.74719 c 0.009,-1.27698 -0.55286,-2.63617 -1.46485,-3.53517 -0.895,-0.907994 -2.25327,-1.472894 -3.53127,-1.462894 H 471.28383 V 83.249054 H 677.7945 v 15.500072 h -90.99845 c -1.28,-0.009 -2.63617,0.5529 -3.53517,1.462894 -0.911,0.899 -1.47685,2.25519 -1.46485,3.53517 v 232.00102 c -0.009,1.277 0.55185,2.63222 1.46485,3.53322 0.901,0.913 2.25517,1.4758 3.53517,1.4668 h 64.00223 c 1.277,0.009 2.63427,-0.5568 3.53127,-1.4668 0.913,-0.901 1.47485,-2.25622 1.46485,-3.53322 V 160.24744 h 99.00044 v 84.50037 l -74.49838,-0.004 c -1.95799,0 -3.74862,1.15433 -4.55861,2.94532 -0.296,0.651 -0.44336,1.34576 -0.44336,2.05274 0.003,1.178 0.41314,2.33371 1.24414,3.30471 l 0.002,-0.002 0.006,0.01 c 0.007,0.009 0.0221,0.0239 0.0371,0.0449 0.034,0.039 0.0844,0.093 0.14844,0.16797 0.133,0.151 0.32699,0.37697 0.58399,0.66797 0.512,0.585 1.26471,1.44408 2.22071,2.53908 1.915,2.18598 4.65327,5.31231 7.94925,9.0723 6.59199,7.52097 15.4179,17.58077 24.34386,27.72473 8.92606,10.14496 17.95206,20.37415 24.96106,28.25013 3.502,3.93797 6.5003,7.28396 8.7383,9.75394 1.114,1.229 2.0399,2.23597 2.7559,3.00197 0.361,0.384 0.6672,0.70605 0.9492,0.99805 0.402,0.4 0.3555,0.3706 0.8535,0.8086 2.944,2.55499 6.5581,4.20193 9.7091,4.87893 3.369,0.748 6.376,0.77416 9.5,0.78516 h 111.5005 c 1.277,0.01 2.6342,-0.5529 3.5332,-1.4629 0.912,-0.899 1.4749,-2.26314 1.4649,-3.53712 v -36.00016 c 0.01,-1.282 -0.5529,-2.64113 -1.4629,-3.53713 -0.896,-0.91099 -2.2562,-1.47189 -3.5352,-1.46289 h -51.0022 V 159.26697 h 135.0006 v 136.5006 h -53.0002 c -1.281,-0.009 -2.6381,0.5538 -3.5371,1.4668 -0.91,0.896 -1.4739,2.25422 -1.4649,3.53322 v 36.00016 c -0.012,1.27699 0.5529,2.63812 1.4629,3.53712 0.899,0.91 2.2542,1.4729 3.5352,1.4629 h 122.50046 c 1.275,0.01 2.6373,-0.5549 3.5313,-1.4629 0.913,-0.899 1.4758,-2.26313 1.4668,-3.53712 V 84.768591 h 112.5005 V 195.26908 h -87.4985 c -1.28,-0.009 -2.6352,0.5529 -3.5332,1.4629 -0.913,0.89899 -1.4768,2.26109 -1.4668,3.53907 v 135.5006 c -0.012,1.27699 0.5538,2.63717 1.4668,3.53517 0.896,0.911 2.2482,1.4719 3.5332,1.4629 h 157.5007 c 1.275,0.009 2.6323,-0.55186 3.5313,-1.46485 0.912,-0.899 1.4719,-2.25123 1.4629,-3.53322 V 140.77079 h 15.502 v 195.00086 c -0.01,1.27699 0.5558,2.63917 1.4668,3.53517 0.894,0.911 2.2512,1.4719 3.5332,1.4629 h 64.5023 c 1.275,0.009 2.6322,-0.55186 3.5312,-1.46485 0.912,-0.899 1.4719,-2.25123 1.4629,-3.53322 V 160.77088 h 101.0005 v 13.00006 l -80.4965,0.002 c -1.282,-0.009 -2.6392,0.55295 -3.5332,1.46095 -0.911,0.89898 -1.4758,2.26108 -1.4668,3.53907 v 53.99829 c -0.01,1.27699 0.5549,2.64117 1.4629,3.53517 0.897,0.911 2.2571,1.47385 3.5371,1.46485 h 82.4984 v 13.00006 h -80.4984 c -1.282,-0.009 -2.6372,0.5519 -3.5332,1.46289 -0.913,0.898 -1.4788,2.26013 -1.4668,3.53713 v 57.0022 c -0.012,1.275 0.5529,2.63727 1.4629,3.53127 0.899,0.91199 2.2571,1.47485 3.5371,1.46485 h 79.5004 v 18.00203 c -0.012,1.27699 0.5537,2.63808 1.4687,3.53908 0.89,0.90799 2.2474,1.46994 3.5294,1.46094 h 40.799 l -0.078,0.0176 h 44.1877 c 2.379,0.002 4.0487,0.24063 5.3887,0.64063 l 0.127,0.0391 0.1152,0.0391 c 0.392,0.14 1.2816,0.42602 2.2266,1.04102 0.911,0.601 1.444,1.1275 2.123,1.77149 l 0.066,0.0645 c 1.7499,1.77899 3.4395,4.11654 5.9785,7.43753 1.721,2.24799 6.9021,8.72953 13.834,17.3575 20.756,25.81689 56.7542,70.25421 56.7542,70.25421 0.997,1.229 2.4126,1.84653 3.8926,1.85353 1.119,-0.005 2.2018,-0.3544 3.1348,-1.10938 1.234,-1.004 1.8514,-2.42451 1.8574,-3.89651 -0.01,-1.12098 -0.3541,-2.19815 -1.1621,-3.20313 -0.031,-0.036 -0.077,-0.094 -0.1348,-0.16797 -0.124,-0.151 -0.303,-0.37312 -0.539,-0.66212 -0.471,-0.58199 -1.162,-1.4335 -2.043,-2.52149 -1.764,-2.174 -4.284,-5.2896 -7.334,-9.06059 -9.151,-11.30695 -23.0307,-28.46599 -35.2287,-43.59394 -6.102,-7.56297 -11.7785,-14.62085 -16.2325,-20.17782 -4.452,-5.55299 -7.7015,-9.63481 -8.8145,-11.0938 -3.364,-4.33199 -5.4797,-7.60689 -9.3496,-10.67388 -1.76,-1.37798 -4.0682,-2.60789 -6.4552,-3.29689 -2.4658,-0.72898 -5.1471,-1.04097 -8.2031,-1.04297 -3.485,0 -52.5405,-5e-5 -74.5003,0.002 h -5.502 v -17.99812 c 0.01,-1.284 -0.5529,-2.64113 -1.4629,-3.53713 -0.899,-0.91299 -2.2581,-1.47485 -3.5371,-1.46485 h -79.5004 v -47.0002 h 80.5023 c 1.277,0.009 2.6362,-0.5529 3.5352,-1.4629 0.91,-0.899 1.4738,-2.25714 1.4648,-3.53712 v -23.0001 c 0.01,-1.279 -0.5559,-2.64118 -1.4609,-3.53518 -0.899,-0.90999 -2.2601,-1.47289 -3.5391,-1.46289 h -82.5023 V 183.7888 h 80.5023 c 1.275,0.011 2.6411,-0.5529 3.5371,-1.4629 0.908,-0.89499 1.471,-2.25122 1.461,-3.53322 v -23.00229 c 0.01,-1.28 -0.5529,-2.64013 -1.4629,-3.53712 -0.895,-0.908 -2.2562,-1.47295 -3.5352,-1.46095 h -110.9985 c -1.284,-0.009 -2.6392,0.54995 -3.5371,1.46095 -0.911,0.89899 -1.4739,2.25912 -1.4649,3.53712 v 175.00077 h -54.5022 V 135.7903 c 0.01,-1.28199 -0.5509,-2.63812 -1.4629,-3.53712 -0.897,-0.911 -2.2612,-1.4749 -3.5352,-1.4629 h -25.4981 c -1.28,-0.011 -2.6381,0.55182 -3.5391,1.4668 -0.908,0.894 -1.4729,2.25323 -1.4629,3.53322 V 330.79116 H 1069.1966 V 205.28084 h 87.5043 c 1.2738,0.012 2.6361,-0.55377 3.5371,-1.46875 0.906,-0.892 1.4679,-2.25032 1.4609,-3.52932 V 79.784195 c 0.01,-1.281996 -0.5529,-2.640082 -1.4629,-3.539078 -0.897,-0.907997 -2.2542,-1.469944 -3.5332,-1.460944 h -122.5005 c -1.282,-0.009 -2.6421,0.552947 -3.5391,1.460944 -0.908,0.898996 -1.4719,2.259082 -1.4629,3.539078 V 331.78335 H 916.69984 v -25.99816 h 53.0041 c 1.277,0.009 2.6392,-0.5529 3.5352,-1.4629 0.913,-0.899 1.4749,-2.26013 1.4649,-3.53712 V 154.28453 c 0.01,-1.282 -0.5528,-2.63509 -1.4688,-3.53908 -0.894,-0.911 -2.2543,-1.4719 -3.5313,-1.4629 h -144.9986 c -1.279,-0.009 -2.6392,0.55381 -3.5372,1.4668 -0.913,0.901 -1.4739,2.25413 -1.4629,3.53713 v 146.49869 c -0.011,1.27699 0.5519,2.63812 1.4649,3.53712 0.895,0.908 2.2582,1.4719 3.5352,1.4629 h 51.0002 v 26.00207 h -5.5 c -11.116,-0.002 -29.5236,-0.002 -47.6174,-0.002 -25.59,0 -50.5581,-4e-5 -53.3811,0.002 h -0.064 l -0.064,-0.002 h -0.2539 c -2.855,-0.014 -4.8952,-0.0819 -6.9552,-0.54687 l -0.051,-0.0137 -0.039,-0.01 c -1.325,-0.254 -3.5845,-1.22335 -5.0235,-2.48634 l -0.2793,-0.22071 -0.2539,-0.26172 c -0.243,-0.25199 -0.6926,-0.72188 -1.2226,-1.29688 -5.747,-6.20397 -23.5675,-26.38505 -39.86934,-44.92597 -5.66299,-6.44198 -11.15043,-12.69439 -15.90242,-18.11336 l -8.00198,-9.12504 h 68.47884 c 1.277,0.01 2.6372,-0.55487 3.5332,-1.46485 0.913,-0.899 1.4738,-2.25718 1.4648,-3.53518 v -94.4965 c 0.01,-1.282 -0.5519,-2.64209 -1.4629,-3.53908 -0.896,-0.911 -2.2581,-1.4729 -3.5351,-1.4629 H 650.78657 c -1.28,-0.009 -2.64013,0.55185 -3.53713,1.46485 -0.913,0.896 -1.4758,2.25813 -1.4668,3.53713 V 330.78725 H 591.7824 V 108.75698 h 91.00235 c 1.277,0.011 2.63813,-0.55185 3.53713,-1.46485 0.90799,-0.894 1.47294,-2.25517 1.46094,-3.53517 V 78.252938 c 0.012,-1.283995 -0.55185,-2.638129 -1.46485,-3.537125 -0.896,-0.912996 -2.25622,-1.47485 -3.53322,-1.46485 z M 676.43707,253.09355 c 0.009,0.016 0.0165,0.0282 0.0254,0.0371 h 0.006 c -0.01,-0.014 -0.0156,-0.0204 -0.0176,-0.0234 z"
     style="display:inline;fill:#fee600"
     id="path4" /><path
     d="m 465.96935,62.332946 c -4.25399,0.009 -8.30152,1.689483 -11.3145,4.689474 -2.998,3.007991 -4.68048,7.058562 -4.68948,11.31255 v 25.50402 c 0.009,4.25199 1.69148,8.30052 4.68948,11.3145 3.01598,3 7.06451,4.67357 11.3145,4.68557 h 78.49644 v 200.00088 h -32.49624 v -8.00004 c -0.009,-4.25298 -1.69253,-8.30355 -4.68752,-11.31255 -3.01399,-2.99998 -7.06446,-4.67947 -11.31646,-4.68947 h -70.49835 v -25.00206 h 70.50031 c 4.24698,-0.008 8.30047,-1.68248 11.31645,-4.68948 2.993,-3.00698 4.67552,-7.0577 4.68752,-11.30669 l -0.002,-23.50205 c -0.009,-4.25299 -1.68949,-8.30357 -4.68947,-11.31255 -3.011,-3 -7.06057,-4.67852 -11.31255,-4.68752 h -70.99836 v -21.5001 h 71.50031 c 4.25199,-0.009 8.30161,-1.68952 11.3106,-4.68752 2.99999,-3.00998 4.68047,-7.06056 4.68947,-11.31255 v -24.0001 c -0.009,-4.25099 -1.68948,-8.30351 -4.68947,-11.31451 -3.00899,-2.99598 -7.05861,-4.67656 -11.3106,-4.68556 H 383.96899 c -4.25399,0.009 -8.30356,1.68948 -11.31255,4.68947 -2.99999,3.00999 -4.68047,7.05861 -4.68947,11.3106 V 319.7872 c -3.676,-10e-4 -7.74085,0 -11.92584,0 -14.84895,0 -31.20657,0.002 -37.02555,0.004 -0.042,-0.062 -0.0849,-0.12645 -0.12695,-0.18945 -3.245,-4.81599 -9.83154,-15.54541 -17.52352,-28.40638 -11.59296,-19.37494 -25.9918,-44.00134 -37.47477,-63.75028 -2.181,-3.74898 -4.25459,-7.3224 -6.18557,-10.65239 h 64.26395 c 4.25198,-0.012 8.29961,-1.68757 11.31059,-4.68557 3,-3.01398 4.67853,-7.06447 4.68753,-11.31645 V 79.790054 c -0.009,-4.251987 -1.68753,-8.300512 -4.68753,-11.314503 -3.00898,-2.999991 -7.06061,-4.67652 -11.31059,-4.68752 H 201.46819 c -8.79997,0.009 -15.94007,7.106298 -16.00007,15.908273 l -1.40821,240.188556 c -7.38397,0.045 -16.58314,0.0992 -25.87511,0.15625 -21.02194,0.123 -42.64404,0.25 -44.21504,0.25 -0.235,-0.025 -0.33777,-0.0292 -0.38477,-0.0332 L 37.293636,228.08954 c -3.15598,-3.815 -7.7521,-5.80881 -12.33208,-5.80081 -3.583,-0.005 -7.22933,1.21675 -10.19731,3.67775 -1.344,1.109 -2.45977,2.3968 -3.34377,3.8008 l -0.043,-0.0508 v 0.11914 c -1.5969803,2.56798 -2.4180703,5.51898 -2.4140703,8.46097 -0.005,3.58199 1.2158003,7.22633 3.6758003,10.19731 l 9.73637,11.76177 70.9925,85.766 0.50586,-0.50586 c 0.737,0.569 1.5654,1.15529 2.48438,1.73829 4.027004,2.559 10.051974,5.02618 17.546964,5.03518 h 0.0625 c 1.87399,0 23.34036,-0.126 44.4123,-0.25 10.52897,-0.062 20.94657,-0.12588 28.73255,-0.17188 3.89198,-0.024 7.12668,-0.0446 9.39066,-0.0586 1.131,-0.007 2.02197,-0.0116 2.62697,-0.0156 0.303,0 0.53536,-0.002 0.69336,-0.002 0.078,-0.002 0.13678,-0.002 0.17578,-0.002 h 0.0449 c 8.78797,-0.077 15.85399,-7.1503 15.91999,-15.90828 l 0.73828,-126.05914 c 3.305,5.73198 19.93466,34.55382 37.0236,63.68973 9.55397,16.28995 19.25154,32.67373 26.90051,45.27168 3.82699,6.30499 7.13348,11.64891 9.73246,15.6739 1.303,2.02 2.4261,3.70732 3.4551,5.15432 0.516,0.72 1.03726,1.42656 1.65626,2.18556 0.30899,0.37398 0.70947,0.84972 1.23047,1.38672 l 0.0488,0.0527 0.0508,0.0469 c 0.248,0.255 1.29259,1.32331 2.72657,2.27931 l 0.0566,0.041 0.0606,0.0371 c 1.908,1.231 3.67647,2.62644 6.85745,4.10744 1.91,0.855 3.87742,1.43529 5.90042,1.73829 1.808,0.275 3.36708,0.29969 4.53908,0.30469 h 67.02373 c 4.247,-0.008 8.29857,-1.68449 11.31255,-4.68947 2.996,-3.009 4.67657,-7.05666 4.68557,-11.30865 v -11.13091 c 2.736,2.018 6.05306,3.12092 9.50004,3.12892 h 70.50031 v 8.00199 c 0.009,4.25099 1.68953,8.30057 4.68752,11.31255 3.012,3 7.06457,4.67657 11.31255,4.68557 h 64.73857 c 4.24598,-0.008 8.30047,-1.68243 11.31645,-4.69143 0.618,-0.621 1.17965,-1.28629 1.68165,-1.98829 0.504,0.703 1.06751,1.3692 1.68751,1.9922 3.01098,2.99799 7.06251,4.68047 11.3145,4.68947 h 64.00028 c 4.24899,-0.009 8.2996,-1.69048 11.3106,-4.68947 2.99598,-3.01199 4.67852,-7.05861 4.68752,-11.3106 v -77.4144 c 0.432,0.679 0.91704,1.33123 1.45704,1.94923 0.005,0.004 17.4506,19.94819 35.31656,40.25213 8.93397,10.15297 17.971,20.39407 25.002,28.29504 3.516,3.956 6.5297,7.32008 8.8067,9.83208 1.145,1.264 2.1068,2.30673 2.8848,3.13673 0.403,0.431 0.7528,0.80144 1.0898,1.14844 l 0.037,0.0391 0.039,0.0391 c 0.216,0.213 0.6912,0.71516 1.4512,1.36914 4.506,3.874 9.6546,6.23959 14.5586,7.31058 4.667,1.039 8.7162,1.02202 11.8302,1.04102 h 111.5297 c 4.252,-0.01 8.2997,-1.68972 11.3087,-4.6797 2.051,-2.063 3.4864,-4.60624 4.1914,-7.36722 0.706,2.75898 2.1375,5.30136 4.1875,7.36136 3.011,2.99998 7.0636,4.67556 11.3126,4.68556 h 122.50046 c 4.252,-0.01 8.3006,-1.68858 11.3126,-4.68556 1.779,-1.788 3.0931,-3.94119 3.8691,-6.28519 0.797,1.957 1.9811,3.75519 3.5039,5.28518 3.013,3.002 7.0646,4.67657 11.3126,4.68557 h 157.5007 c 4.252,-0.009 8.3005,-1.69053 11.3125,-4.68752 0.519,-0.521 0.9976,-1.07335 1.4356,-1.65235 0.438,0.578 0.9165,1.13135 1.4355,1.65235 3.015,3.00399 7.0685,4.67852 11.3165,4.68752 h 64.5003 c 4.252,-0.009 8.3005,-1.69053 11.3125,-4.68752 3,-3.01199 4.6756,-7.06556 4.6856,-11.31255 v -11.87701 c 0.063,0.064 0.1245,0.12841 0.1875,0.19141 3.013,2.996 7.0615,4.67357 11.3145,4.68557 h 68.4984 v 7.00003 c 0.011,4.25099 1.6875,8.30056 4.6875,11.31255 3.011,3.00199 7.0645,4.67852 11.3125,4.68752 h 85.0023 c 0.788,-0.002 1.3326,0.04 1.6856,0.084 0.134,0.017 0.2413,0.0338 0.3223,0.0488 0.09,0.083 0.201,0.18746 0.334,0.31446 0.664,0.66 2.5245,3.0569 4.9355,6.25588 1.92,2.507 7.047,8.91319 14.0098,17.58016 20.726,25.78092 56.5856,70.04746 56.7796,70.28546 v 0.002 c 3.1474,3.88947 7.7913,5.92709 12.4239,5.92385 3.4568,-0.0414 6.9634,-1.18988 9.8536,-3.53126 3.887,-3.158 5.9397,-7.80147 5.9297,-12.44147 0,-3.52344 -1.1772,-7.11385 -3.5664,-10.06059 v 0.006 c -0.089,-0.111 -4.0506,-4.99955 -10.1055,-12.48052 -9.149,-11.30497 -23.0251,-28.46036 -35.2189,-43.57832 -6.093,-7.55697 -11.7671,-14.6104 -16.2111,-20.15438 -4.4148,-5.50699 -7.7274,-9.66965 -8.6914,-10.93364 -2.977,-3.776 -5.8332,-8.28473 -11.25,-12.59771 -2.908,-2.26 -6.3462,-4.09001 -10.1642,-5.20901 -3.7228,-1.098 -7.5059,-1.48138 -11.2969,-1.48438 h -69.0022 v -6.99808 c -0.012,-4.25199 -1.6896,-8.30246 -4.6876,-11.31646 -3.0128,-2.99898 -7.0655,-4.67556 -11.3145,-4.68556 h -68.5022 v -25.00011 h 69.5042 c 4.252,-0.009 8.2997,-1.68862 11.3086,-4.68362 3.002,-3.01599 4.6815,-7.06647 4.6915,-11.31645 v -22.99815 c -0.012,-4.24899 -1.6867,-8.2976 -4.6817,-11.3106 -3.018,-3.00498 -7.0684,-4.68047 -11.3184,-4.68947 h -71.5023 v -22.0001 h 69.5023 c 4.252,-0.011 8.2985,-1.68863 11.3125,-4.68361 3.004,-3.016 4.6756,-7.06847 4.6876,-11.31646 v -23.0001 c -0.01,-4.24798 -1.6816,-8.30051 -4.6856,-11.3145 -3.014,-3 -7.0656,-4.67357 -11.3126,-4.68557 h -111.0004 c -4.25,0.01 -8.3016,1.68557 -11.3126,4.68557 -3,3.01399 -4.6775,7.06252 -4.6875,11.3145 v 164.00072 h -32.5002 V 135.82155 c -0.01,-4.24998 -1.6845,-8.30051 -4.6875,-11.3145 -3.009,-2.99799 -7.0586,-4.67852 -11.3106,-4.68752 h -25.5001 c -4.254,0.009 -8.3044,1.68953 -11.3164,4.68752 -2.998,3.01199 -4.6756,7.06252 -4.6856,11.3145 V 319.82236 H 1079.97 V 216.32191 h 76.5043 c 4.251,-0.01 8.3005,-1.68758 11.3145,-4.68557 3.002,-3.011 4.6756,-7.06757 4.6856,-11.31255 V 79.82521 c -0.01,-4.249986 -1.6806,-8.300464 -4.6856,-11.316455 -3.011,-2.999991 -7.0656,-4.674568 -11.3126,-4.685568 l -122.4985,0.002 c -4.25,0.01 -8.3005,1.683624 -11.3165,4.683615 -3,3.015991 -4.6756,7.066469 -4.6856,11.316455 V 320.82432 h -90.50226 v -4.00002 h 42.0021 c 4.252,-0.009 8.3006,-1.68667 11.3126,-4.68166 2.999,-3.013 4.6784,-7.06447 4.6894,-11.31646 V 154.32554 c -0.01,-4.25398 -1.6904,-8.30446 -4.6894,-11.31646 -3.01,-2.99998 -7.0606,-4.67656 -11.3126,-4.68556 h -144.9987 c -4.252,0.009 -8.3024,1.68552 -11.3164,4.68752 -2.997,3.00899 -4.6756,7.06052 -4.6856,11.3145 v 146.52017 c 0.01,4.251 1.6895,8.30157 4.6875,11.31255 3.011,2.998 7.0605,4.67657 11.3145,4.68557 h 39.9983 v 4.00002 c -11.161,-10e-4 -26.7505,-0.002 -42.1155,-0.002 -25.2568,0 -49.8969,0.002 -53.2639,0.004 -0.262,-0.004 -0.437,0.002 -0.5,0.002 -2.278,0.011 -3.8645,-0.13451 -4.3125,-0.22851 -0.243,-0.062 -0.3949,-0.10496 -0.4609,-0.12696 -0.053,-0.017 -0.053,-0.0196 -0.053,-0.0176 l -0.01,-0.01 c -0.026,-0.016 -0.074,-0.0457 -0.1426,-0.0957 -0.203,-0.214 -0.4735,-0.50418 -0.7715,-0.82618 -5.513,-5.94998 -23.4317,-26.23391 -39.6877,-44.72285 -2.689,-3.05799 -5.33672,-6.07362 -7.88672,-8.9766 h 44.20132 c 4.25,-0.009 8.2986,-1.68754 11.3126,-4.68752 2.996,-3.009 4.6765,-7.05957 4.6875,-11.31255 v -94.49651 c -0.011,-4.24999 -1.6875,-8.30046 -4.6875,-11.31646 -3.013,-2.99998 -7.0626,-4.67652 -11.3126,-4.68752 l -109.00043,0.002 c -4.25198,0.01 -8.30051,1.68558 -11.3145,4.68556 -3,3.014 -4.67848,7.06447 -4.68948,11.31646 v 164.489 h -31.99964 v -199.9988 h 80.00231 c 4.25198,-0.012 8.30051,-1.68754 11.3145,-4.68752 3.00199,-3.014 4.67557,-7.06652 4.68557,-11.3145 V 78.33497 c -0.01,-4.249988 -1.68658,-8.300512 -4.68557,-11.314503 -3.01099,-2.997991 -7.06152,-4.678521 -11.3145,-4.687521 z M 1599.193,452.28583 c -0.013,1.5e-4 -0.024,0.008 -0.037,0.008 l 0.053,-0.004 c -0.01,1e-5 -0.01,-0.004 -0.016,-0.004 z m -0.037,0.008 -0.4551,0.0254 h 0.3008 c 0.052,2e-5 0.1025,-0.0249 0.1543,-0.0254 z M 466.27404,73.250963 h 216.51071 c 1.277,-0.01 2.63722,0.551853 3.53322,1.46485 0.913,0.898997 1.47685,2.253128 1.46485,3.537125 v 25.504022 c 0.012,1.28 -0.55294,2.64117 -1.46094,3.53517 -0.899,0.913 -2.26013,1.47585 -3.53713,1.46485 H 591.7824 v 222.03027 h 54.00024 V 155.28844 c -0.009,-1.279 0.5538,-2.64113 1.4668,-3.53713 0.897,-0.913 2.25713,-1.47385 3.53713,-1.46485 h 108.91847 c 1.277,-0.01 2.6391,0.5519 3.5351,1.4629 0.911,0.897 1.4729,2.25708 1.4629,3.53908 v 94.4965 c 0.01,1.278 -0.5518,2.63618 -1.4648,3.53518 -0.896,0.90998 -2.2562,1.47485 -3.5332,1.46485 H 691.2262 l 8.00198,9.12504 c 4.75199,5.41897 10.23943,11.67137 15.90242,18.11336 16.30194,18.54094 34.12234,38.722 39.86934,44.92597 0.53,0.575 0.9796,1.04489 1.2226,1.29688 l 0.2539,0.26172 0.2793,0.22071 c 1.439,1.263 3.6985,2.23234 5.0235,2.48634 l 0.039,0.01 0.051,0.0137 c 2.06,0.46498 4.1002,0.53287 6.9552,0.54687 h 0.2539 l 0.064,0.002 h 0.064 c 2.823,-0.002 27.7911,-0.002 53.3811,-0.002 18.0938,0 36.5014,-4e-5 47.6174,0.002 h 5.5 v -26.00237 h -51.0002 c -1.277,0.009 -2.6402,-0.5549 -3.5352,-1.4629 -0.913,-0.899 -1.4759,-2.26013 -1.4649,-3.53712 V 154.28648 c -0.011,-1.283 0.5499,-2.63613 1.4629,-3.53713 0.898,-0.91299 2.2582,-1.4758 3.5372,-1.4668 h 144.9986 c 1.277,-0.009 2.6373,0.5519 3.5313,1.4629 0.916,0.904 1.4788,2.25708 1.4688,3.53908 v 146.50064 c 0.01,1.27699 -0.5519,2.63812 -1.4649,3.53712 -0.896,0.91 -2.2582,1.4719 -3.5352,1.4629 h -53.0041 v 25.99816 H 1029.1996 V 79.784195 c -0.01,-1.279997 0.5549,-2.640081 1.4629,-3.539078 0.897,-0.907998 2.2571,-1.469944 3.5391,-1.460944 h 122.5005 c 1.279,-0.009 2.6362,0.552946 3.5332,1.460944 0.91,0.898997 1.4729,2.257081 1.4629,3.539078 V 200.28277 c 0.01,1.279 -0.5549,2.63732 -1.4609,3.52932 -0.901,0.91498 -2.2633,1.48075 -3.5371,1.46875 h -87.5043 v 125.51032 h 147.5006 V 135.7903 c -0.01,-1.27999 0.5549,-2.63922 1.4629,-3.53322 0.901,-0.91498 2.2591,-1.4778 3.5391,-1.4668 h 25.4981 c 1.274,-0.012 2.6382,0.5519 3.5352,1.4629 0.912,0.899 1.4729,2.25513 1.4629,3.53712 v 195.00086 h 54.5022 V 155.79039 c -0.01,-1.278 0.5539,-2.63813 1.4649,-3.53712 0.898,-0.911 2.2531,-1.46995 3.5371,-1.46095 h 110.9985 c 1.279,-0.012 2.6402,0.55295 3.5352,1.46095 0.91,0.89699 1.4729,2.25712 1.4629,3.53712 v 23.00205 c 0.01,1.282 -0.553,2.63823 -1.461,3.53322 -0.896,0.91 -2.2621,1.4739 -3.5371,1.4629 h -80.5023 v 44.00215 h 82.5023 c 1.279,-0.01 2.6401,0.5529 3.5391,1.46289 0.905,0.894 1.4709,2.25618 1.4609,3.53518 v 23.0001 c 0.01,1.27998 -0.5548,2.63812 -1.4648,3.53712 -0.899,0.91 -2.2582,1.4719 -3.5352,1.4629 h -80.5023 v 47.0002 h 79.5004 c 1.279,-0.01 2.6381,0.55186 3.5371,1.46485 0.91,0.896 1.4729,2.25313 1.4629,3.53713 v 17.99812 h 5.502 c 21.9598,-0.002 71.0153,-0.002 74.5003,-0.002 3.056,0.002 5.7373,0.31399 8.2031,1.04297 2.387,0.689 4.6952,1.91891 6.4552,3.29689 3.8699,3.067 5.9856,6.34189 9.3496,10.67388 1.113,1.459 4.3625,5.54081 8.8145,11.0938 4.454,5.55698 10.1305,12.61485 16.2325,20.17782 12.198,15.12796 26.0777,32.28697 35.2287,43.59394 3.05,3.77099 5.57,6.88659 7.334,9.06059 0.881,1.088 1.572,1.93949 2.043,2.52149 0.236,0.289 0.415,0.51112 0.539,0.66212 0.058,0.074 0.1038,0.13197 0.1348,0.16797 0.808,1.00498 1.1521,2.08215 1.1621,3.20313 -0.01,1.472 -0.6234,2.89251 -1.8574,3.89651 -0.933,0.75498 -2.0158,1.10438 -3.1348,1.10938 -1.48,-0.007 -2.8956,-0.62453 -3.8926,-1.85353 0,0 -35.9982,-44.43729 -56.7542,-70.25421 -6.9319,-8.62797 -12.113,-15.1095 -13.834,-17.3575 -2.539,-3.32099 -4.2286,-5.65854 -5.9785,-7.43753 l -0.066,-0.0645 c -0.679,-0.64399 -1.212,-1.17049 -2.123,-1.77149 -0.945,-0.615 -1.8346,-0.90102 -2.2266,-1.04102 l -0.1152,-0.0391 -0.127,-0.0391 c -1.34,-0.4 -3.0097,-0.63863 -5.3887,-0.64063 h -44.1877 l 0.078,-0.0176 h -40.799 c -1.282,0.009 -2.6394,-0.55295 -3.5294,-1.46094 -0.915,-0.901 -1.4807,-2.26208 -1.4687,-3.53908 v -18.00203 h -79.5004 c -1.28,0.01 -2.6381,-0.55286 -3.5371,-1.46485 -0.91,-0.894 -1.4749,-2.25627 -1.4629,-3.53127 v -57.0022 c -0.012,-1.277 0.5538,-2.63913 1.4668,-3.53713 0.896,-0.911 2.2512,-1.47189 3.5332,-1.46289 h 80.4984 v -13.00006 h -82.4984 c -1.28,0.009 -2.6401,-0.55385 -3.5371,-1.46485 -0.908,-0.894 -1.4729,-2.25818 -1.4629,-3.53517 v -53.99829 c -0.01,-1.27799 0.5558,-2.64009 1.4668,-3.53907 0.894,-0.908 2.2512,-1.46995 3.5332,-1.46095 l 80.4965,-0.002 v -13.00006 h -101.0005 v 175.00077 c 0.01,1.282 -0.5509,2.63422 -1.4629,3.53322 -0.899,0.913 -2.2562,1.47385 -3.5312,1.46485 h -64.5023 c -1.282,0.009 -2.6392,-0.5519 -3.5332,-1.4629 -0.911,-0.896 -1.4768,-2.25817 -1.4668,-3.53517 V 140.77079 h -15.502 v 195.00086 c 0.01,1.282 -0.5509,2.63422 -1.4629,3.53322 -0.899,0.913 -2.2563,1.47385 -3.5313,1.46485 h -157.5007 c -1.285,0.009 -2.6372,-0.5519 -3.5332,-1.4629 -0.913,-0.898 -1.4788,-2.25817 -1.4668,-3.53517 v -135.5006 c -0.01,-1.27798 0.5538,-2.64008 1.4668,-3.53907 0.898,-0.91 2.2532,-1.4719 3.5332,-1.4629 h 87.4985 V 84.768591 H 1039.2902 V 336.76775 c 0.01,1.27399 -0.5538,2.63812 -1.4668,3.53712 -0.894,0.908 -2.2563,1.4729 -3.5313,1.4629 H 911.79164 c -1.281,0.01 -2.6362,-0.5529 -3.5352,-1.4629 -0.91,-0.899 -1.4749,-2.26013 -1.4629,-3.53712 v -36.00016 c -0.01,-1.279 0.5549,-2.63722 1.4649,-3.53322 0.899,-0.913 2.2561,-1.4758 3.5371,-1.4668 h 53.0002 v -136.5006 h -135.0006 v 136.48107 h 51.0022 c 1.279,-0.009 2.6392,0.55189 3.5352,1.46289 0.91,0.896 1.4729,2.25513 1.4629,3.53713 v 36.00016 c 0.01,1.27398 -0.5529,2.63812 -1.4649,3.53712 -0.899,0.91 -2.2562,1.4729 -3.5332,1.4629 h -111.5005 c -3.124,-0.011 -6.131,-0.0372 -9.5,-0.78516 -3.151,-0.677 -6.7651,-2.32394 -9.7091,-4.87893 -0.498,-0.438 -0.4515,-0.4086 -0.8535,-0.8086 -0.282,-0.292 -0.5882,-0.61405 -0.9492,-0.99805 -0.716,-0.766 -1.6419,-1.77297 -2.7559,-3.00197 -2.238,-2.46998 -5.2363,-5.81596 -8.7383,-9.75394 -7.009,-7.87599 -16.035,-18.10516 -24.96104,-28.25013 -8.92597,-10.14397 -17.75187,-20.20375 -24.34386,-27.72473 -3.29598,-3.75999 -6.03425,-6.88632 -7.94925,-9.0723 -0.956,-1.095 -1.70871,-1.95408 -2.22071,-2.53908 -0.257,-0.291 -0.45099,-0.51697 -0.58399,-0.66797 -0.064,-0.075 -0.11444,-0.12897 -0.14844,-0.16797 -0.015,-0.021 -0.0301,-0.0359 -0.0371,-0.0449 l -0.006,-0.01 -0.002,0.002 c -0.831,-0.971 -1.24114,-2.12671 -1.24414,-3.30471 0,-0.70698 0.14736,-1.40174 0.44336,-2.05274 0.80999,-1.791 2.60061,-2.94532 4.55861,-2.94532 l 74.49836,0.004 v -84.50037 h -99.00042 v 175.50077 c 0.01,1.277 -0.55185,2.63222 -1.46485,3.53322 -0.897,0.91 -2.25427,1.4758 -3.53127,1.4668 h -64.00223 c -1.28,0.009 -2.63417,-0.5538 -3.53517,-1.4668 -0.913,-0.901 -1.47385,-2.25622 -1.46485,-3.53322 V 103.74719 c -0.012,-1.27998 0.55385,-2.63617 1.46485,-3.53517 0.899,-0.910004 2.25517,-1.471894 3.53517,-1.462894 h 90.99845 V 83.249054 H 471.28383 v 15.500072 h 89.50234 c 1.278,-0.01 2.63627,0.55489 3.53127,1.462894 0.91199,0.899 1.47385,2.25819 1.46485,3.53517 v 232.00102 c 0.01,1.277 -0.55186,2.63222 -1.46485,3.53322 -0.897,0.913 -2.25127,1.4758 -3.53127,1.4668 h -64.50419 c -1.282,0.009 -2.63427,-0.55385 -3.53126,-1.46485 -0.912,-0.898 -1.47585,-2.25817 -1.46485,-3.53517 v -19.00399 h -81.50036 c -1.282,0.009 -2.63927,-0.55299 -3.53127,-1.45899 -0.91499,-0.898 -1.47775,-2.26014 -1.46875,-3.53712 v -56.9983 c -0.01,-1.285 0.55185,-2.64108 1.46485,-3.53908 0.894,-0.911 2.25317,-1.47094 3.53517,-1.46094 l 81.4984,-0.004 v -13.49811 h -81.9984 c -1.278,0.01 -2.64008,-0.5558 -3.53908,-1.4668 -0.908,-0.893 -1.46994,-2.25322 -1.46094,-3.53322 v -53.49828 c -0.009,-1.283 0.55289,-2.64013 1.46289,-3.53712 0.9,-0.91 2.25713,-1.47385 3.53713,-1.46485 h 82.49841 V 158.74548 H 389.2737 v 177.02031 c 0.009,1.277 -0.55376,2.63222 -1.46876,3.53322 -0.89898,0.913 -2.24926,1.4758 -3.53126,1.4668 h -67.00225 c -1.036,-0.005 -1.88842,-0.0265 -2.94142,-0.1875 -0.881,-0.117 -2.1579,-0.49457 -2.92188,-0.85157 -2.088,-0.97499 -2.96864,-1.70173 -5.34964,-3.26173 v -0.002 c -0.821,-0.59 -0.66664,-0.4961 -1.18164,-0.9961 -0.233,-0.244 -0.37924,-0.42018 -0.61524,-0.70118 -0.374,-0.45599 -0.73146,-0.93518 -1.18946,-1.57617 -0.867,-1.213 -1.91103,-2.78359 -3.16603,-4.72659 -2.49999,-3.87298 -5.77231,-9.15806 -9.57231,-15.41803 -7.59597,-12.50797 -17.2756,-28.86321 -26.81457,-45.12715 -9.53597,-16.25996 -18.92859,-32.42373 -25.93956,-44.52168 -3.505,-6.04999 -6.41526,-11.0806 -8.44926,-14.60358 -1.016,-1.759 -1.81639,-3.14291 -2.35938,-4.08791 -0.271,-0.471 -0.4791,-0.83318 -0.6211,-1.07618 -0.071,-0.122 -0.12316,-0.2153 -0.16016,-0.2793 -0.018,-0.031 -0.031,-0.0552 -0.043,-0.0742 -0.004,-0.009 -0.0106,-0.0164 -0.0176,-0.0254 -0.002,-0.007 -0.003,-0.0124 -0.01,-0.0234 -0.005,-0.007 -0.009,-0.0151 -0.0234,-0.0371 -0.419,-0.76 -0.62695,-1.58884 -0.62695,-2.42384 0,-0.868 0.22383,-1.72506 0.67383,-2.49806 0.896,-1.553 2.53614,-2.50001 4.32814,-2.50001 l 86.99843,-0.002 V 84.764685 h -110.5393 l -1.47071,251.030405 c 0,2.70898 -2.26077,4.96967 -4.96877,4.97267 -0.053,0 -82.44973,0.49805 -86.02772,0.49805 h -0.0625 c -5.00798,0.008 -9.08649,-1.68628 -11.64849,-3.32228 -2.577994,-1.63699 -3.876414,-3.14806 -4.275414,-3.62306 l -0.53711,-0.64649 -76.37924,-92.27384 c -0.75,-0.937 -1.09757,-2.01497 -1.10157,-3.12697 0.01,-1.46398 0.60662,-2.85753 1.8086,-3.85353 0.954,-0.786 2.05447,-1.14739 3.18947,-1.15039 1.458,0.007 2.85349,0.60552 3.85549,1.8125 l 76.963224,92.97893 0.25001,0.23437 c 0.33299,0.309 0.80969,0.71846 1.55469,1.18946 l 0.0508,0.0293 0.0371,0.0234 c 1.101,0.72399 3.54799,1.77447 6.25198,1.73047 1.736,0 23.27352,-0.126 44.32246,-0.25 11.74697,-0.071 23.34462,-0.1385 31.31459,-0.1875 l 5.43557,-0.0312 1.46876,-251.059697 c 0.007,-2.733993 2.26603,-4.979725 5.00002,-4.970725 H 322.2617 c 1.282,-0.009 2.63822,0.552945 3.53322,1.460944 0.915,0.898997 1.4758,2.262081 1.4668,3.539078 v 120.98099 c 0.01,1.278 -0.55185,2.63618 -1.46485,3.53517 -0.894,0.908 -2.25622,1.47685 -3.53322,1.46485 h -83.34802 l 4.77736,8.2559 c 3.112,5.37298 6.85849,11.83883 10.98247,18.92782 11.49497,19.76894 25.90812,44.41457 37.54509,63.86551 7.74998,12.95597 14.29745,23.64405 17.81844,28.87903 0.491,0.739 0.94511,1.38548 1.28711,1.85548 l 0.58399,0.80665 0.82813,0.55469 c 0.637,0.42498 1.13777,0.75123 1.50977,0.99023 l 1.2129,0.77149 1.4375,0.084 c 0.227,0.011 0.34924,0.008 0.36524,0.008 1.899,-0.002 21.54648,-0.002 39.07244,-0.002 h 17.42195 l 5.50393,0.004 V 153.75132 c -0.009,-1.277 0.5519,-2.63822 1.4629,-3.53322 0.90398,-0.915 2.25908,-1.4758 3.53907,-1.4668 h 112.51026 c 1.277,-0.009 2.63422,0.55185 3.53322,1.46485 0.91,0.896 1.47385,2.25817 1.46485,3.53517 v 24.0001 c 0.01,1.277 -0.5549,2.63823 -1.4629,3.53322 -0.90099,0.915 -2.25817,1.47581 -3.53517,1.46681 h -82.50231 v 43.49628 h 81.9984 c 1.278,-0.009 2.63813,0.55682 3.53713,1.4668 0.912,0.899 1.47385,2.25813 1.46485,3.53713 v 23.5001 c 0.01,1.274 -0.54985,2.63118 -1.46485,3.53517 -0.9,0.91 -2.25513,1.4719 -3.53713,1.4629 l -81.4984,-0.002 v 47.00216 h 81.4984 c 1.278,-0.009 2.63813,0.55385 3.53713,1.46485 0.915,0.901 1.47385,2.25512 1.46485,3.53712 v 18.99618 h 54.49828 V 108.74917 h -89.49649 c -1.282,0.012 -2.64013,-0.5519 -3.53713,-1.4629 -0.90999,-0.896 -1.47585,-2.25717 -1.46485,-3.53517 V 78.252938 c -0.009,-1.282997 0.55186,-2.636128 1.46485,-3.537125 0.899,-0.911997 2.25913,-1.47385 3.53713,-1.46485 z m 107.28562,21.043061 h 0.25782 c -0.043,0.059 -0.0869,0.117735 -0.12891,0.177735 -0.04,-0.06 -0.0789,-0.119735 -0.12891,-0.177735 z m -355.96835,1.498052 h 88.59414 v 89.000394 l -76.00034,0.002 c -5.27898,0 -10.18632,2.59857 -13.1563,6.89457 l -0.008,0.002 z m 832.61689,0.004 h 90.5004 v 88.498434 l -76.4984,0.002 c -4.252,0.008 -8.3025,1.68758 -11.3145,4.68556 -1.069,1.074 -1.9695,2.27915 -2.6875,3.57814 z M 840.70924,170.29836 h 113.0005 v 114.48878 l -41.9982,0.002 c -4.249,0.009 -8.3006,1.68754 -11.3126,4.68752 -2.0499,2.057 -3.4825,4.59842 -4.1875,7.35941 -0.705,-2.75899 -2.1345,-5.30136 -4.1855,-7.36136 -3.013,-2.99799 -7.0655,-4.67657 -11.3145,-4.68557 h -40.0022 z m -174.02026,1.00195 h 76.99836 v 62.49637 h -63.4983 c -5.52199,0.004 -10.59207,2.83716 -13.50006,7.41214 h -0.0195 l 0.0195,-0.004 z m 9.74809,81.79333 0.0137,0.0137 c 0.002,0.003 0.008,0.009 0.0176,0.0234 h -0.006 c -0.009,-0.009 -0.0165,-0.0211 -0.0254,-0.0371 z"
     style="display:inline;fill:#000000;fill-opacity:1"
     id="path3" /><path
     d="m 1232.7031,15.78782 c -1.272,0.004 -2.4994,0.460119 -3.4804,1.412116 l -35.5022,34.500151 c -0.952,0.920997 -1.5066,2.222801 -1.5156,3.550797 v 0.142579 c 0.026,1.274995 0.5568,2.523752 1.4668,3.427749 l 35.4962,35.500156 c 0.9938,0.949026 2.1874,1.460419 3.5762,1.466803 1.3445,-0.01643 2.5796,-0.536428 3.5215,-1.490241 l 34.5002,-34.9982 c 0.9658,-0.985997 1.4325,-2.225739 1.4375,-3.511734 0,-1.290997 -0.4717,-2.527784 -1.4375,-3.509781 l -34.4982,-35.000154 c -0.992,-1.002997 -2.2516,-1.483241 -3.5626,-1.490241 z m -0.1386,12.052788 27.5548,27.951294 -27.5021,27.904419 -24.5001,-24.40831 h 0.092 l -3.9453,-3.94533 z"
     style="display:inline;fill:#fee600"
     id="path2" /><path
     d="m 1232.7051,4.7975376 c -4.001,-0.007 -8.0525,1.513463 -11.1465,4.523457 l -35.5022,34.5001514 c -3.0308,2.948994 -4.7667,6.966606 -4.8437,11.185596 -0.01,0.084 -0.012,0.152126 -0.012,0.203126 v 0.105469 c 0.01,4.235992 1.6904,8.296931 4.6894,11.296925 l 35.5002,35.490398 v 0.002 c 3,3.002 7.0774,4.68757 11.3184,4.68557 l 0.09,0.006 c 4.2568,-0.027 8.3271,-1.74109 11.3048,-4.77151 l 34.4982,-34.996251 c 3.059,-3.102994 4.6116,-7.192479 4.6016,-11.232471 0.01,-4.039992 -1.5406,-8.131477 -4.6016,-11.232471 L 1244.1015,9.5614206 c -3.119,-3.164994 -7.2815,-4.769693 -11.3965,-4.763693 z m 0.094,101.9985024 c -0.018,1.1e-4 -0.035,0.002 -0.053,0.002 h 0.1 z m -0.096,-91.00822 c 1.311,0.007 2.5706,0.487243 3.5626,1.490241 l 34.4982,35.000154 c 0.9658,0.981998 1.4375,2.218783 1.4375,3.509781 -0.01,1.285996 -0.4717,2.525736 -1.4375,3.511734 l -34.5002,34.9982 c -0.9419,0.953814 -2.177,1.473808 -3.5215,1.490241 -1.3888,-0.0064 -2.5824,-0.517776 -3.5762,-1.466803 l -35.4962,-35.500156 c -0.91,-0.903998 -1.4408,-2.152753 -1.4668,-3.427749 v -0.142579 c 0.01,-1.327998 0.5636,-2.629799 1.5156,-3.550797 l 35.5022,-34.500151 c 0.981,-0.951998 2.2084,-1.408116 3.4804,-1.412116 z m -0.1386,12.052788 -28.3009,27.502073 3.9453,3.94533 h -0.092 l 24.5001,24.40831 27.5021,-27.904419 z m -0.1153,15.498114 12.2755,12.45318 -12.0802,12.25396 -12.6621,-12.589899 z"
     style="display:inline;fill:#000000;fill-opacity:1"
     id="path1" /><path
     d="m -127.17778,8.9049776 c -2.7826,0.06705 -4.99711,1.1157994 -6.07229,3.0664204 -2.94498,5.239101 1.55778,12.783922 8.51175,18.955161 7.07718,6.097167 14.7036,10.702759 18.84579,8.40238 4.10887,-2.221314 2.96317,-13.081539 -5.27541,-22.191503 l 0.002,-0.0059 c -5.15822,-5.721815 -11.37413,-8.3383534 -16.01179,-8.2265984 z"
     style="fill:#ffffff;stroke-width:0.416133"
     id="path5" /></g>
</svg>
