<?xml version="1.0" encoding="UTF-8" standalone="no"?>
<!-- Generator: Adobe Illustrator 26.0.3, SVG Export Plug-In . SVG Version: 6.00 Build 0)  -->

<svg
   version="1.1"
   id="Layer_1"
   x="0px"
   y="0px"
   viewBox="0 0 3839 809.3"
   style="enable-background:new 0 0 3839 809.3;"
   xml:space="preserve"
   sodipodi:docname="Sega Saturn (Japan)-11.svg"
   inkscape:version="1.3.2 (091e20e, 2023-11-25)"
   xmlns:inkscape="http://www.inkscape.org/namespaces/inkscape"
   xmlns:sodipodi="http://sodipodi.sourceforge.net/DTD/sodipodi-0.dtd"
   xmlns:xlink="http://www.w3.org/1999/xlink"
   xmlns="http://www.w3.org/2000/svg"
   xmlns:svg="http://www.w3.org/2000/svg"><defs
   id="defs123">
	
	
	
	

		
		
		
		
	
		
		
	
		
		
	
		
	
			
			
		
			
			
		
			
		
			<defs
   id="defs83">
				<circle
   id="SVGID_00000018932013929421832860000001335680992803694230_"
   cx="312.29999"
   cy="410.79999"
   r="189" />
			</defs>
			
			
		
			<defs
   id="defs95">
				<circle
   id="SVGID_00000178904733159403436260000014471526369273756055_"
   cx="312.29999"
   cy="410.79999"
   r="189" />
			</defs>
			
			
			
			
		
			
			
			
			
			
			
			
			
		
			<defs
   id="defs85">
				<path
   id="SVGID_00000059296252425732885280000009258727797279120522_"
   d="m 220.8,482.5 c 25.4,-5.7 50.8,-11.2 76,-17.8 25.4,-6.6 50.2,-14.7 74.8,-23.7 24.5,-9 48.8,-18.5 73,-28.3 11.5,-4.6 23,-8.8 34.7,-12.8 7.1,-2.4 14.1,-5 21,-7.9 -2.9,-29.2 -12.4,-56.5 -27.1,-80.3 -21.7,7.8 -44.2,13.2 -66.3,19.7 -24.7,7.2 -49.3,14.7 -73.7,22.7 -24.4,8.1 -48.7,16.5 -73.3,24.1 -24.8,7.7 -49.6,15 -74.3,23.1 -20.6,6.7 -41,14.5 -62.1,19.8 1.5,28.1 9.2,54.5 21.6,78 25.7,-3.4 50.6,-10.9 75.7,-16.6 z" />
			</defs>
			<clipPath
   id="SVGID_00000141435290037386717560000012555847572822195340_">
				<use
   xlink:href="#SVGID_00000059296252425732885280000009258727797279120522_"
   style="overflow:visible"
   id="use85" />
			</clipPath>
			
		
				
					<linearGradient
   id="SVGID_00000018931653735534464930000009782885112638749628_"
   gradientUnits="userSpaceOnUse"
   x1="1980.2036"
   y1="799.35529"
   x2="1980.2036"
   y2="9.9478998">
					<stop
   offset="0.3079"
   style="stop-color:#000000"
   id="stop114" />
					<stop
   offset="0.3997"
   style="stop-color:#1B0007"
   id="stop115" />
					<stop
   offset="0.5976"
   style="stop-color:#610018"
   id="stop116" />
					<stop
   offset="0.8838"
   style="stop-color:#CE0033"
   id="stop117" />
					<stop
   offset="1"
   style="stop-color:#FD003E"
   id="stop118" />
				</linearGradient>
				
				
				
			
				
			<clipPath
   clipPathUnits="userSpaceOnUse"
   id="clipPath123"><g
     id="g124"><use
       xlink:href="#SVGID_00000018932013929421832860000001335680992803694230_"
       style="overflow:visible"
       id="use123" /></g></clipPath>
				
			
				
			
				
			
				
			
				
			
				
			
				
			<clipPath
   clipPathUnits="userSpaceOnUse"
   id="clipPath127"><g
     id="g128"
     transform="rotate(41.562164)"><use
       xlink:href="#SVGID_00000178904733159403436260000014471526369273756055_"
       style="overflow:visible"
       id="use127" /></g></clipPath>
				
			<clipPath
   clipPathUnits="userSpaceOnUse"
   id="clipPath129"><g
     id="g130"
     transform="rotate(45)"><use
       xlink:href="#SVGID_00000178904733159403436260000014471526369273756055_"
       style="overflow:visible"
       id="use129" /></g></clipPath>
				
			
				
			
				
			
					
					
					
					
					
					
					
					
					
					
					
					
					
					
					
				<clipPath
   clipPathUnits="userSpaceOnUse"
   id="clipPath131"><g
     id="g133"><g
       id="g132"><use
         xlink:href="#SVGID_00000178904733159403436260000014471526369273756055_"
         style="overflow:visible"
         id="use131" /></g></g></clipPath><clipPath
   clipPathUnits="userSpaceOnUse"
   id="clipPath133"><g
     id="g135"><g
       id="g134"><use
         xlink:href="#SVGID_00000178904733159403436260000014471526369273756055_"
         style="overflow:visible"
         id="use133" /></g></g></clipPath><clipPath
   clipPathUnits="userSpaceOnUse"
   id="clipPath135"><g
     id="g137"><g
       id="g136"><use
         xlink:href="#SVGID_00000178904733159403436260000014471526369273756055_"
         style="overflow:visible"
         id="use135" /></g></g></clipPath><clipPath
   clipPathUnits="userSpaceOnUse"
   id="clipPath137"><g
     id="g139"><g
       id="g138"><use
         xlink:href="#SVGID_00000178904733159403436260000014471526369273756055_"
         style="overflow:visible"
         id="use137" /></g></g></clipPath><clipPath
   clipPathUnits="userSpaceOnUse"
   id="clipPath139"><g
     id="g141"><g
       id="g140"><use
         xlink:href="#SVGID_00000178904733159403436260000014471526369273756055_"
         style="overflow:visible"
         id="use139" /></g></g></clipPath><clipPath
   clipPathUnits="userSpaceOnUse"
   id="clipPath141"><g
     id="g143"><g
       id="g142"><use
         xlink:href="#SVGID_00000178904733159403436260000014471526369273756055_"
         style="overflow:visible"
         id="use141" /></g></g></clipPath><clipPath
   clipPathUnits="userSpaceOnUse"
   id="clipPath143"><g
     id="g145"><g
       id="g144"><use
         xlink:href="#SVGID_00000178904733159403436260000014471526369273756055_"
         style="overflow:visible"
         id="use143" /></g></g></clipPath><clipPath
   clipPathUnits="userSpaceOnUse"
   id="clipPath145"><g
     id="g147"><g
       id="g146"><use
         xlink:href="#SVGID_00000178904733159403436260000014471526369273756055_"
         style="overflow:visible"
         id="use145" /></g></g></clipPath><clipPath
   clipPathUnits="userSpaceOnUse"
   id="clipPath147"><g
     id="g149"><g
       id="g148"><use
         xlink:href="#SVGID_00000178904733159403436260000014471526369273756055_"
         style="overflow:visible"
         id="use147" /></g></g></clipPath><clipPath
   clipPathUnits="userSpaceOnUse"
   id="clipPath149"><g
     id="g151"><g
       id="g150"><use
         xlink:href="#SVGID_00000178904733159403436260000014471526369273756055_"
         style="overflow:visible"
         id="use149" /></g></g></clipPath><clipPath
   clipPathUnits="userSpaceOnUse"
   id="clipPath151"><g
     id="g153"><g
       id="g152"><use
         xlink:href="#SVGID_00000178904733159403436260000014471526369273756055_"
         style="overflow:visible"
         id="use151" /></g></g></clipPath><clipPath
   clipPathUnits="userSpaceOnUse"
   id="clipPath153"><g
     id="g155"><g
       id="g154"><use
         xlink:href="#SVGID_00000178904733159403436260000014471526369273756055_"
         style="overflow:visible"
         id="use153" /></g></g></clipPath><clipPath
   clipPathUnits="userSpaceOnUse"
   id="clipPath155"><g
     id="g157"><g
       id="g156"><use
         xlink:href="#SVGID_00000178904733159403436260000014471526369273756055_"
         style="overflow:visible"
         id="use155" /></g></g></clipPath><clipPath
   clipPathUnits="userSpaceOnUse"
   id="clipPath157"><g
     id="g159"><g
       id="g158"><use
         xlink:href="#SVGID_00000178904733159403436260000014471526369273756055_"
         style="overflow:visible"
         id="use157" /></g></g></clipPath><clipPath
   clipPathUnits="userSpaceOnUse"
   id="clipPath159"><g
     id="g161"><g
       id="g160"><use
         xlink:href="#SVGID_00000178904733159403436260000014471526369273756055_"
         style="overflow:visible"
         id="use159" /></g></g></clipPath></defs><sodipodi:namedview
   id="namedview123"
   pagecolor="#ffffff"
   bordercolor="#000000"
   borderopacity="0.25"
   inkscape:showpageshadow="2"
   inkscape:pageopacity="0.0"
   inkscape:pagecheckerboard="0"
   inkscape:deskcolor="#d1d1d1"
   inkscape:zoom="0.18780933"
   inkscape:cx="1916.8377"
   inkscape:cy="404.66574"
   inkscape:window-width="1800"
   inkscape:window-height="1037"
   inkscape:window-x="0"
   inkscape:window-y="44"
   inkscape:window-maximized="0"
   inkscape:current-layer="Layer_1" />
<style
   type="text/css"
   id="style1">
	.st0{display:none;}
	.st1{display:inline;}
	.st2{fill:url(#SVGID_1_);}
	.st3{fill:url(#SVGID_00000168100025591357454960000002159746808030858402_);}
	.st4{clip-path:url(#SVGID_00000149383070865509019080000009902601261103237274_);}
	.st5{clip-path:url(#SVGID_00000119823815851341725950000003836663227279465095_);fill:none;}
	.st6{fill:none;}
	.st7{fill:url(#SVGID_00000178898550703290075460000009666590814036293801_);}
	.st8{clip-path:url(#SVGID_00000061470971903727029190000015718085890192268455_);}
	.st9{clip-path:url(#SVGID_00000056418265759059313870000008350311281263976105_);}
	.st10{clip-path:url(#SVGID_00000167380888687231320110000003845628851026750091_);}
	.st11{fill:url(#SVGID_00000173138085783974472560000013811625512104201881_);}
	.st12{fill:url(#SVGID_00000141457348042428042240000008981798573805819025_);}
	.st13{clip-path:url(#SVGID_00000089551533307049770850000005232725904448187780_);}
	.st14{clip-path:url(#SVGID_00000003790426628315351640000006549067271862786485_);fill:none;}
	.st15{fill:url(#SVGID_00000005962923916854336420000009697708284062440087_);}
	.st16{clip-path:url(#SVGID_00000104706889444389201430000018044072892522338447_);}
	.st17{clip-path:url(#SVGID_00000120529979134851964410000006456499386833351343_);}
	.st18{clip-path:url(#SVGID_00000134943093423519442680000015018887049424155060_);}
	.st19{fill:#FFFFFF;}
	.st20{fill:url(#SVGID_00000145037270652654154000000005985769383507380148_);}
	.st21{fill:url(#SVGID_00000031921541263869451020000005533393745981105342_);}
	.st22{clip-path:url(#SVGID_00000163752938702133596890000011696873713264131470_);fill:#FFFFFF;}
	.st23{clip-path:url(#SVGID_00000021821935781819219410000018135077192356553917_);fill:none;}
	.st24{fill:url(#SVGID_00000026125358772079696790000001907966245458711170_);}
	.st25{clip-path:url(#SVGID_00000076606221824615044870000017149586983741794976_);fill:#FFFFFF;}
	.st26{clip-path:url(#SVGID_00000124146630394620137210000001129561946332256958_);fill:#FFFFFF;}
	.st27{clip-path:url(#SVGID_00000137838250145625542030000003026387802826395782_);}
	.st28{clip-path:url(#SVGID_00000137838250145625542030000003026387802826395782_);fill:#FFFFFF;}
	.st29{fill:url(#SVGID_00000090254970216789404260000016703866874451248795_);}
	.st30{fill:url(#SVGID_00000155148571064355616440000011877449164281333395_);}
	.st31{clip-path:url(#SVGID_00000091703174683992023230000014136989187984514227_);fill:#FFFFFF;}
	.st32{clip-path:url(#SVGID_00000182530668638218269390000009712570668802655930_);fill:none;}
	.st33{fill:url(#SVGID_00000170261038027173359810000018175901311909510306_);}
	.st34{clip-path:url(#SVGID_00000001635581654441864560000000169447225422069137_);fill:#FFFFFF;}
	.st35{clip-path:url(#SVGID_00000015355315591387929590000013371812711220629928_);fill:#FFFFFF;}
	.st36{clip-path:url(#SVGID_00000163777804582887852060000011709457567345655969_);}
	.st37{clip-path:url(#SVGID_00000163777804582887852060000011709457567345655969_);fill:#FFFFFF;}
	.st38{clip-path:url(#SVGID_00000147900667176445781370000007022559772375323557_);}
	.st39{clip-path:url(#SVGID_00000163775377548154245110000009144214851414680722_);}
	.st40{clip-path:url(#SVGID_00000142167423480371064240000011267787384075668866_);}
	.st41{clip-path:url(#SVGID_00000145774420915660273510000001077549638430584997_);}
	.st42{clip-path:url(#SVGID_00000129171887187627678060000007517230321885877658_);}
	.st43{clip-path:url(#SVGID_00000108308871965973331710000016483750181258615486_);}
	.st44{clip-path:url(#SVGID_00000091711538667273311080000009945012431412514465_);fill:#FFFFFF;}
	.st45{clip-path:url(#SVGID_00000064351771504262087340000013716963679682635426_);fill:#FFFFFF;}
	.st46{clip-path:url(#SVGID_00000037658719157676037640000003784283863178982789_);}
	.st47{clip-path:url(#SVGID_00000037658719157676037640000003784283863178982789_);fill:#FFFFFF;}
	.st48{clip-path:url(#SVGID_00000034807683796136791650000009525246916782008511_);fill:#FFFFFF;}
	.st49{clip-path:url(#SVGID_00000115494218456375592560000018214770487877779076_);fill:#FFFFFF;}
	.st50{clip-path:url(#SVGID_00000051385600586822473020000001607936999123137444_);}
	.st51{clip-path:url(#SVGID_00000051385600586822473020000001607936999123137444_);fill:#FFFFFF;}
	.st52{fill:url(#SVGID_00000031171251334262520650000017814686909468587454_);}
	.st53{fill:url(#SVGID_00000178175502015193052200000004743564368521228426_);}
	.st54{clip-path:url(#SVGID_00000123409554212938005670000014936518091816508307_);}
	.st55{clip-path:url(#SVGID_00000098204128310328941410000011303755007810422707_);fill:none;}
	.st56{fill:url(#SVGID_00000041293961665344201010000007922886197960200104_);}
	.st57{fill:url(#SVGID_00000160188639447659350650000004317060303473996732_);}
	.st58{clip-path:url(#SVGID_00000000214612032144016900000001087477810550063234_);}
	.st59{clip-path:url(#SVGID_00000127754707317495553320000018190487668407230128_);fill:none;}
	.st60{fill:url(#SVGID_00000152259402274596543710000012133622372654173569_);}
	.st61{clip-path:url(#SVGID_00000152223765798970345750000003235921562634745268_);}
	.st62{clip-path:url(#SVGID_00000003785980768041874840000006343641355977913999_);}
	.st63{clip-path:url(#SVGID_00000025413684223820396790000013510805929296167351_);}
	.st64{fill:url(#SVGID_00000060005576189857168080000005767975271356835517_);}
	.st65{clip-path:url(#SVGID_00000016794753294863750960000001631706321282170022_);}
	.st66{clip-path:url(#SVGID_00000091003589436309018380000015080909131026009751_);}
	.st67{clip-path:url(#SVGID_00000103961961598356157370000014434033766045458821_);}
	.st68{clip-path:url(#SVGID_00000079478309037926255520000009583242987439835326_);}
	.st69{clip-path:url(#SVGID_00000052798516926558887250000018331596531848672128_);}
	.st70{clip-path:url(#SVGID_00000018213767383297903950000017218206409751785373_);}
	.st71{fill:url(#SVGID_00000083793699361392569230000009780907703985102499_);}
	.st72{clip-path:url(#SVGID_00000004509293822702277580000014695045552491455628_);}
	.st73{clip-path:url(#SVGID_00000048477378054991617530000011960841205501700273_);}
	.st74{clip-path:url(#SVGID_00000182494203752926591390000013740014383015899779_);}
	.st75{fill:url(#SVGID_00000054264578388925804360000018222742530707474088_);}
	.st76{fill:url(#SVGID_00000129887180951812194530000009125236306495559821_);}
	.st77{clip-path:url(#SVGID_00000019680335618965540310000006183528737676273599_);}
	.st78{clip-path:url(#SVGID_00000072996374389174920350000017077168668862466232_);fill:none;}
	.st79{clip-path:url(#SVGID_00000176724800854960743500000005814355718562376624_);}
	.st80{clip-path:url(#SVGID_00000075846768222354919270000004505677567028929428_);}
	.st81{clip-path:url(#SVGID_00000124867578051646789950000015348303085178677927_);}
	.st82{fill:url(#SVGID_00000006708612774304440410000015547125520769509515_);}
	.st83{clip-path:url(#SVGID_00000100348490555718054520000014719195418810443911_);}
	.st84{clip-path:url(#SVGID_00000107563242083709752460000012707932067490969256_);}
	.st85{clip-path:url(#SVGID_00000018204682690527283930000001108382304518035622_);}
	.st86{clip-path:url(#SVGID_00000163037493618901727740000007467287879491276450_);}
	.st87{clip-path:url(#SVGID_00000000189888340948536820000008773640896490969774_);}
	.st88{clip-path:url(#SVGID_00000168824306227532890680000017670131790971914158_);}
	.st89{clip-path:url(#SVGID_00000025427594747284106330000013371773988828709552_);}
	.st90{clip-path:url(#SVGID_00000076571389152309213410000012051090391667282588_);}
	.st91{clip-path:url(#SVGID_00000142153157961489790070000016385579584997567918_);}
	.st92{fill:url(#SVGID_00000116915654639597182830000000115706598100157330_);}
	.st93{clip-path:url(#SVGID_00000105424207434630065530000007089860604115848854_);}
	.st94{clip-path:url(#SVGID_00000010293358044129188000000008584593636346269574_);}
	.st95{clip-path:url(#SVGID_00000165944283870084534610000011292319504318904990_);}
	.st96{clip-path:url(#SVGID_00000008870666623795125820000001758540684874012064_);}
	.st97{clip-path:url(#SVGID_00000081635407076537686580000005724127800699486135_);fill:#FFFFFF;}
	.st98{clip-path:url(#SVGID_00000010292667554103874150000017410374576310260144_);}
	.st99{clip-path:url(#SVGID_00000169536607944287194790000013745759805808796831_);}
	.st100{clip-path:url(#SVGID_00000147899029261443175960000017376672548009246911_);fill:#FFFFFF;}
	.st101{clip-path:url(#SVGID_00000151515599750739354560000012825612558305339549_);}
	.st102{fill:url(#SVGID_00000053531474020064918190000015490598130829604995_);}
	.st103{fill:url(#SVGID_00000029743070027332917380000004152122597748220046_);}
	.st104{clip-path:url(#SVGID_00000119099084694259254880000006474462728687277479_);}
	.st105{clip-path:url(#SVGID_00000133509097712934733670000015686908195293522325_);fill:none;}
	.st106{clip-path:url(#SVGID_00000049209214587385285560000017688928185710486952_);}
	.st107{clip-path:url(#SVGID_00000003800383839415649620000015585915920059444123_);}
	.st108{clip-path:url(#SVGID_00000109024761557802626500000009851750219729087418_);}
	.st109{fill:url(#SVGID_00000110455739707177402160000009912961040598569909_);}
	.st110{fill:url(#SVGID_00000052073878926877965360000016611131772466936223_);}
	.st111{fill:url(#SVGID_00000009575144673288224760000011494104745344142981_);}
	.st112{clip-path:url(#SVGID_00000014614653117126377080000008999218820289951412_);}
	.st113{clip-path:url(#SVGID_00000100370994713233210660000016442541309174879645_);fill:none;}
	.st114{fill:url(#SVGID_00000064346345594131305810000002606408426787970991_);}
	.st115{fill:url(#SVGID_00000103956722031373842410000004973032904172267443_);}
	.st116{clip-path:url(#SVGID_00000162317490443184770010000015785950363598501261_);}
	.st117{clip-path:url(#SVGID_00000118366104131894139990000010979044088369523863_);fill:none;}
	.st118{clip-path:url(#SVGID_00000080913412185640107650000015000395765142047165_);}
	.st119{clip-path:url(#SVGID_00000041293228157819074810000014570862319187602622_);}
	.st120{clip-path:url(#SVGID_00000096055403899275757810000009599869001191191969_);}
	.st121{fill:url(#SVGID_00000047771286339427704780000006560535060819128724_);}
	.st122{fill:url(#SVGID_00000165914517555075044930000004283143541197359259_);}
	.st123{fill:url(#SVGID_00000132083175437064629550000017904991773648048824_);}
	.st124{clip-path:url(#SVGID_00000010286743709649452350000010241500033909744545_);}
	.st125{clip-path:url(#SVGID_00000006686458506291580690000008970763115872245126_);fill:none;}
	.st126{clip-path:url(#SVGID_00000044154578446133249060000007662183964997779877_);}
	.st127{clip-path:url(#SVGID_00000036965715257150405010000015911004374562789018_);}
	.st128{clip-path:url(#SVGID_00000126303549557408777790000004442647092219472041_);}
	.st129{fill:url(#SVGID_00000172415195354985476970000016474798260911599031_);}
	.st130{fill:url(#SVGID_00000070092869212919223430000016651094986583686299_);}
	.st131{fill:url(#SVGID_00000152947138910493727280000013206187180778480296_);}
	.st132{clip-path:url(#SVGID_00000070100241516200879510000014423680725231239862_);}
	.st133{clip-path:url(#SVGID_00000070839847344368497140000006740722352242398622_);fill:none;}
	.st134{clip-path:url(#SVGID_00000010309337541075358410000004480972895703596475_);}
	.st135{clip-path:url(#SVGID_00000168813822821864011980000008578719703417678222_);}
	.st136{clip-path:url(#SVGID_00000039832772902982778850000016009939516077059003_);}
	.st137{fill:url(#SVGID_00000085966425643386917290000005067644774890267807_);}
	.st138{fill:url(#SVGID_00000173142388447998994750000007669448472802870175_);}
	.st139{fill:url(#SVGID_00000169549077171561224080000007868100658781163950_);}
	.st140{clip-path:url(#SVGID_00000183932073721179263350000009729139582830317488_);}
	.st141{clip-path:url(#SVGID_00000124861906670488560230000016788388601697218490_);fill:none;}
	.st142{clip-path:url(#SVGID_00000039840062091554593020000004247721653629813651_);}
	.st143{clip-path:url(#SVGID_00000052075219563671269180000016667356954745781666_);}
	.st144{clip-path:url(#SVGID_00000075150532688507300820000015147561998162418875_);}
	.st145{fill:url(#SVGID_00000082327446717546808120000008711377687983778462_);}
	.st146{fill:url(#SVGID_00000182530494629229191800000002920403832978272418_);}
	.st147{fill:url(#SVGID_00000088101495237152834010000016559355810128199041_);}
	.st148{clip-path:url(#SVGID_00000044158812040338786220000000448456348184822670_);}
	.st149{clip-path:url(#SVGID_00000157279172927440454150000005631787335213302179_);fill:none;}
	.st150{clip-path:url(#SVGID_00000084502430858464582100000007380908237907868073_);}
	.st151{clip-path:url(#SVGID_00000029751484743971888000000000074282672978508987_);fill:#FFFFFF;}
	.st152{clip-path:url(#SVGID_00000178190817974310801210000011017828555885453442_);}
	.st153{fill:url(#SVGID_00000139260910906260770460000012495979493871265189_);}
	.st154{fill:url(#SVGID_00000127006200971419567690000015567325858372854449_);}
	.st155{fill:url(#SVGID_00000107571820572809102400000010710007005087160712_);}
	.st156{clip-path:url(#SVGID_00000106135620715415837480000014913009125211002752_);fill:#FFFFFF;}
	.st157{clip-path:url(#SVGID_00000109725847746199498020000000554937073841777588_);fill:none;}
	.st158{clip-path:url(#SVGID_00000081629072147485244050000017311291656677254043_);}
	.st159{clip-path:url(#SVGID_00000019673825673366800660000003757622017398654122_);fill:#FFFFFF;}
	.st160{clip-path:url(#SVGID_00000140732724944674958700000002298450843095877294_);}
	.st161{fill:url(#SVGID_00000044143318115697916250000007152223112197060500_);}
	.st162{fill:url(#SVGID_00000165949217016063640530000011189096322794002592_);}
	.st163{fill:url(#SVGID_00000090980573533579529900000018439824712125078451_);}
	.st164{clip-path:url(#SVGID_00000137090615477733442790000006050115732691040949_);fill:#FFFFFF;}
	.st165{clip-path:url(#SVGID_00000073689949377315222920000001661227030604678322_);fill:none;}
</style>



				
			
				
			
				
			
				
			
<g
   id="g196"><path
     id="path78"
     d="M 1748.8008 207.69922 C 1740.6008 207.69922 1733.4992 211.99923 1729.6992 219.19922 L 1630.8008 406.90039 C 1626.5008 415.00038 1618.2 420.09961 1609 420.09961 L 1486.3008 420.09961 C 1479.8008 420.09961 1473.8008 425.2004 1472.8008 431.40039 C 1472.2008 435.20039 1473.1004 438.90078 1475.4004 441.80078 C 1477.7004 444.70078 1481.2 446.60039 1485 446.90039 C 1515.7 449.70039 1533.2004 469.90042 1532.9004 502.40039 C 1532.7004 532.50036 1507.9 557 1477.5 557 L 1468.9004 557 C 1388.5005 557 1382.3008 466.69997 1382.3008 439 L 1382.3008 362 C 1382.3008 345.40002 1386.3997 262.59961 1466.5996 262.59961 C 1538.4995 262.59961 1575.4992 298.99964 1602.1992 334.59961 C 1604.6992 337.79961 1608.2992 339.69922 1612.1992 339.69922 C 1616.2992 339.69922 1620.2992 337.70078 1622.6992 334.30078 C 1624.9992 331.10078 1625.7004 326.9 1624.4004 323 L 1596.6992 236.09961 C 1594.2992 228.39962 1587.1 223.19922 1579 223.19922 C 1575.6 223.19922 1572.3008 224.10039 1569.3008 225.90039 C 1554.8008 234.70038 1545.1992 235.69922 1541.6992 235.69922 C 1540.8992 235.69922 1540.4004 235.59961 1540.4004 235.59961 L 1539.9004 235.5 L 1539 235.5 C 1535.8 235.5 1529.7 234.39961 1522 233.09961 C 1507 230.49961 1484.2008 226.59961 1458.8008 226.59961 C 1401.8008 226.59961 1348.6992 247.49965 1309.1992 285.59961 C 1308.7992 285.99961 1308.3 286.09961 1308 286.09961 C 1307.8 286.09961 1306.9 286 1306.5 285 L 1291.1992 247.69922 C 1288.3992 240.89923 1283.3 231.90039 1271 231.90039 L 1099.5996 231.90039 L 1099.5996 231.80078 L 1002.9004 231.80078 C 997.8004 231.80078 992.30077 231.60078 985.80078 231.30078 C 972.0008 230.50078 848.99916 223.80078 787.19922 223.80078 C 749.59926 223.80078 717.59998 230.10001 694.5 242 C 668.00003 255.69999 653.20078 276.09925 650.30078 302.69922 C 646.20079 341.29918 670.49963 363.00041 686.59961 377.40039 C 687.99961 378.60039 689.29961 379.8 690.59961 381 C 699.8996 389.39999 740.39963 414.89923 760.59961 424.19922 C 796.29957 440.6992 862.10077 478.69964 855.30078 504.59961 C 848.40079 530.79958 828.09996 542.5 789.5 542.5 C 749.30004 542.5 701.59916 516.19916 643.69922 462.19922 C 641.09922 459.69922 637.90039 458.40039 634.40039 458.40039 C 629.6004 458.40039 625.1 460.99922 622.5 465.19922 C 620 469.29921 619.79961 474.19961 622.09961 478.59961 C 630.0996 494.29959 657.69924 547.69925 675.69922 574.69922 C 679.89921 580.89921 686.79923 584.59961 694.19922 584.59961 C 696.09922 584.59961 697.89922 584.40039 699.69922 583.90039 C 712.29921 580.70039 729.10001 578.59961 741.5 578.59961 C 743.1 578.59961 744.50039 578.59922 745.90039 578.69922 C 752.60038 578.99922 762.29923 580 772.69922 581 C 786.39921 582.3 800.40079 583.69922 808.80078 583.69922 C 920.20067 583.69922 969.69922 556.70033 974.19922 493.40039 C 976.69922 458.80043 960.40075 426.10075 925.80078 396.30078 C 893.90081 368.90081 853.90037 350.59921 832.90039 342.19922 C 806.20042 331.49923 791.0996 318.60077 783.09961 309.80078 C 772.79962 298.40079 769.89961 288.90078 770.59961 283.80078 C 771.39961 277.70079 773.80004 259.19922 809 259.19922 C 810.3 259.19922 811.79922 259.20078 813.19922 259.30078 C 846.19919 260.60078 891.39964 269.60079 925.59961 281.80078 C 965.99957 296.20077 989.19922 313.9008 989.19922 330.30078 L 989.19922 530 C 989.19922 538.59999 978.6996 556.19922 966.59961 556.19922 L 966.30078 556.19922 C 962.20079 556.19922 958.20078 557.7 955.30078 560.5 L 955.19922 560.59961 C 951.39922 564.39961 950.1 569.4004 952 573.90039 C 953.7 578.00039 957.69922 580.69922 962.19922 580.69922 L 1282.8008 580.69922 C 1290.8008 580.69922 1297.9996 575.90038 1301.0996 568.40039 L 1311.3008 543.40039 C 1311.8008 542.20039 1312.8992 541.80078 1313.6992 541.80078 C 1314.1992 541.80078 1314.8004 541.90039 1315.4004 542.40039 C 1352.6004 576.00036 1404.1997 593 1468.5996 593 C 1485.3996 593 1518.2004 588.50039 1533.4004 582.90039 C 1537.8004 581.30039 1542.3008 580.5 1546.8008 580.5 L 1692.9004 580.5 C 1698.4004 580.5 1703.1992 577.19999 1705.1992 572 C 1707.0992 566.80001 1705.6996 561.10039 1701.5996 557.40039 C 1699.4996 555.50039 1697.2004 553.50078 1695.4004 551.80078 C 1685.7004 543.10079 1685.5008 537.4996 1685.3008 532.09961 C 1685.2008 531.69961 1685.1992 531.20078 1685.1992 530.80078 C 1684.8992 525.60079 1686.1 520.2996 1688.5 515.59961 L 1772.9004 355.30078 L 1844.9004 515 C 1847.2004 520.09999 1848.2008 525.40001 1847.8008 530.5 C 1847.8008 530.9 1847.6992 531.29922 1847.6992 531.69922 L 1847.6992 532.19922 C 1846.5992 538.49921 1840.6996 552.19922 1830.5996 552.19922 L 1828.5 552.19922 C 1823.9 552.19922 1819.5992 553.79922 1816.1992 556.69922 C 1811.1992 561.19921 1809.5 567.0004 1811.5 572.40039 C 1813.3 577.30039 1817.9992 580.5 1823.1992 580.5 L 1935.9004 580.5 C 1940.0004 580.5 1943.7008 578.69961 1946.3008 575.59961 C 1948.8008 572.49961 1949.8996 568.5 1949.0996 564.5 C 1948.1996 560 1944.9004 556.29922 1940.4004 554.69922 C 1930.9004 551.19922 1913.2 541.39998 1902 516.5 L 1768.4004 220.40039 C 1764.9004 212.6004 1757.4008 207.69922 1748.8008 207.69922 z M 1120.8008 266.5 L 1154.1992 266.5 C 1217.3992 266.5 1269.6004 308.80079 1279.4004 317.30078 C 1280.5004 318.30078 1280.8 320.10039 1280 321.40039 C 1264.3 346.10037 1255.5996 372.8008 1255.5996 396.30078 C 1255.5996 428.10075 1261.4992 457.50042 1273.1992 483.90039 C 1274.8992 487.80039 1274.0992 492.40039 1271.1992 495.40039 C 1246.8992 520.00037 1199.2999 546.30078 1138.5 546.30078 L 1122 546.30078 C 1109.7 546.30078 1099.6992 536.29999 1099.6992 524 L 1099.6992 427.30078 C 1099.6992 426.00078 1102.9996 422.30078 1108.0996 422.30078 C 1108.7996 422.30078 1109.3992 422.39961 1110.1992 422.59961 C 1122.9992 425.09961 1145.4996 433.09962 1163.5996 443.59961 C 1177.7996 451.7996 1188.9992 459.59923 1201.1992 469.69922 C 1203.7992 471.79922 1206.7996 472.90039 1210.0996 472.90039 C 1217.8996 472.90039 1224.3008 466.60077 1224.3008 458.80078 L 1224.3008 344.09961 C 1224.3008 336.29962 1217.8996 330 1210.0996 330 C 1206.7996 330 1203.7992 331.09922 1201.1992 333.19922 C 1188.9992 343.19921 1177.6996 351.10079 1163.5996 359.30078 C 1143.5996 370.70077 1120.8004 380.99922 1109.4004 383.69922 C 1107.7004 384.09922 1106.3 384.30078 1105 384.30078 C 1102.2 384.30078 1100.8008 383.40078 1099.8008 381.80078 L 1099.8008 287.5 C 1099.8008 275.90001 1109.2008 266.5 1120.8008 266.5 z " /><path
     id="path79"
     class="st19"
     d="M 1748.8008 202.59961 C 1738.9008 202.59961 1729.9008 207.99923 1725.3008 216.69922 L 1626.4004 404.40039 C 1623.0004 410.90038 1616.3 415 1609 415 L 1490.4004 415 L 1486.4004 415 C 1477.4004 415 1469.3 421.80001 1468 430.5 C 1467.2 435.59999 1468.4996 440.70079 1471.5996 444.80078 C 1474.7996 448.80078 1479.4992 451.40078 1484.6992 451.80078 C 1512.8992 454.40078 1528.3 472.30081 1528 502.30078 C 1527.8 529.70075 1505.1996 552 1477.5996 552 L 1469 552 C 1436.2 552 1412.8004 536.10075 1399.4004 504.80078 C 1388.5004 479.20081 1387.3008 450.29999 1387.3008 439 L 1387.3008 361.80078 C 1387.3008 339.6008 1392.9997 267.30078 1466.5996 267.30078 C 1536.2995 267.30078 1572.3008 302.70082 1598.3008 337.30078 C 1601.7008 341.80078 1606.8008 344.40039 1612.3008 344.40039 C 1618.0008 344.40039 1623.5008 341.6 1626.8008 337 C 1630.1008 332.5 1630.9992 326.69921 1629.1992 321.19922 L 1601.5 234.30078 C 1598.4 224.50079 1589.3996 217.90039 1579.0996 217.90039 C 1574.7996 217.90039 1570.6008 219.10039 1566.8008 221.40039 C 1553.0008 229.90038 1544.1008 230.5 1541.8008 230.5 L 1541.1992 230.5 L 1540.0996 230.19922 L 1539.4004 230.40039 L 1539.1992 230.40039 C 1536.3992 230.40039 1530.2 229.29961 1523 228.09961 C 1507.8 225.49961 1484.7004 221.59961 1458.9004 221.59961 C 1428.2004 221.59961 1398.7996 227.40079 1371.5996 238.80078 C 1348.4996 248.50077 1327.6008 261.89924 1309.3008 278.69922 L 1295.8008 245.90039 C 1293.9008 241.2004 1288 227 1271 227 L 1104.6992 227 L 1104.6992 226.90039 L 1094.8008 226.90039 L 1003 226.90039 C 997.90001 226.90039 992.5996 226.70039 986.09961 226.40039 C 972.29962 225.60039 849.09916 218.90039 787.19922 218.90039 C 748.29926 218.90039 716.29919 225.19962 692.19922 237.59961 C 664.59925 251.7996 648.40078 274.19925 645.30078 302.19922 C 643.40078 320.1992 647.19923 337.00001 656.69922 352 C 664.59921 364.49999 674.89923 373.69962 683.19922 381.09961 C 684.59922 382.29961 685.89922 383.49922 687.19922 384.69922 C 696.79921 393.49921 737.40041 419.10079 758.40039 428.80078 C 763.90039 431.30078 792.60081 444.90002 816.80078 462 C 840.60076 478.79998 852.80078 493.9004 850.30078 503.40039 C 844.00079 527.40037 825.70074 537.59961 789.30078 537.59961 C 751.00082 537.59961 703.00033 510.99956 646.90039 458.59961 C 643.40039 455.29961 638.89921 453.5 634.19922 453.5 C 627.69923 453.5 621.5 456.99961 618 462.59961 C 614.6 468.0996 614.40039 474.90079 617.40039 480.80078 C 625.50038 496.60077 653.1008 550.10042 671.30078 577.40039 C 676.40078 585.00038 684.9004 589.5 693.90039 589.5 C 696.20039 589.5 698.39961 589.19961 700.59961 588.59961 C 712.7996 585.49961 729.09962 583.5 741.09961 583.5 C 742.59961 583.5 743.89922 583.49961 745.19922 583.59961 C 751.79921 583.89961 761.50079 584.90039 771.80078 585.90039 C 785.50077 587.30039 799.70079 588.69922 808.30078 588.69922 C 867.60072 588.69922 909.70081 580.90037 936.80078 564.90039 C 962.60076 549.60041 976.29961 526.40075 978.59961 493.80078 C 979.99961 474.3008 975.59921 455.19998 965.69922 437 C 957.29923 421.60002 944.79998 406.5996 928.5 392.59961 C 896.10003 364.69964 855.4992 346.1996 834.19922 337.59961 C 808.39924 327.19962 793.90077 314.89999 786.30078 306.5 C 776.50079 295.70001 774.69961 287.39961 775.09961 284.59961 C 775.79961 278.99961 777.79964 264.30078 808.59961 264.30078 C 809.89961 264.30078 811.29961 264.30039 812.59961 264.40039 C 845.19958 265.60039 889.79964 274.49962 923.59961 286.59961 C 961.39957 300.0996 983.90039 316.4004 983.90039 330.40039 L 983.90039 529.90039 C 983.90039 536.60038 975.10077 551.19922 966.30078 551.19922 L 966 551.19922 C 960.60001 551.19922 955.39961 553.30039 951.59961 556.90039 L 951.5 557 L 951.40039 557.09961 C 946.1004 562.3996 944.49961 569.5004 947.09961 575.90039 C 949.59961 581.90038 955.4004 585.80078 961.90039 585.80078 L 1028.4004 585.80078 L 1094.3008 585.80078 L 1282.4004 585.80078 C 1292.4004 585.80078 1301.4008 579.79999 1305.3008 570.5 L 1314.1992 548.69922 C 1331.9992 564.0992 1353.2004 576.2004 1377.4004 584.40039 C 1404.1004 593.60038 1434.6996 598.19922 1468.0996 598.19922 C 1485.2996 598.19922 1518.9008 593.50078 1534.8008 587.80078 C 1538.6008 586.40078 1542.5004 585.69922 1546.4004 585.69922 L 1672.1992 585.69922 L 1692.5 585.69922 C 1700.1 585.69922 1706.7004 581.09999 1709.4004 574 C 1712.1004 566.90001 1710.2 559 1704.5 554 C 1701.6 551.4 1699.3 549.39961 1698.5 548.59961 L 1698.4004 548.5 L 1698.3008 548.40039 C 1690.2008 541.1004 1690.0008 537.09921 1689.8008 532.19922 C 1689.8008 531.79922 1689.7992 531.30039 1689.6992 530.90039 C 1689.4992 526.5004 1690.4 522.09921 1692.5 518.19922 L 1772.0996 367 L 1839.9004 517.40039 C 1841.8004 521.60039 1842.7008 526.10079 1842.3008 530.30078 C 1842.2008 530.80078 1842.1992 531.29961 1842.1992 531.59961 L 1842.1992 531.80078 C 1841.0992 537.50078 1836.2 547.5 1830 547.5 L 1827.9004 547.5 C 1822.1004 547.5 1816.6008 549.49922 1812.3008 553.19922 C 1805.8008 558.99921 1803.5008 567.1004 1806.3008 574.40039 C 1808.9008 581.10038 1815.3996 585.69922 1822.5996 585.69922 L 1935.3008 585.69922 C 1940.8008 585.69922 1946 583.3 1949.5 579 C 1953 574.8 1954.4004 569.20078 1953.4004 563.80078 C 1952.2004 557.70079 1947.7 552.50078 1941.5 550.30078 C 1932.7 547.00078 1916.5 537.8992 1906 514.69922 L 1773 218.19922 C 1768.7 208.59923 1759.4008 202.59961 1748.8008 202.59961 z M 1748.8008 212.59961 C 1754.9008 212.59961 1761.0004 215.9004 1763.9004 222.40039 L 1897.5 518.59961 C 1909.7 545.59958 1929.0996 555.90039 1938.5996 559.40039 C 1941.4996 560.40039 1943.5996 562.80039 1944.0996 565.40039 C 1945.0996 570.70039 1941.0008 575.40039 1935.8008 575.40039 L 1823.0996 575.40039 C 1816.4996 575.40039 1811.9004 567.00038 1819.4004 560.40039 C 1821.9004 558.30039 1825.1004 557.09961 1828.4004 557.09961 L 1830.5 557.09961 C 1843.9 557.09961 1851.1 540.99999 1852.5 533 C 1852.6 532.5 1852.5992 531.8 1852.6992 531 C 1853.1992 524.90001 1852.0004 518.59999 1849.4004 513 L 1773.1992 344 L 1684 513.30078 C 1681.1 518.80078 1679.7996 524.99962 1680.0996 531.09961 C 1680.3996 537.2996 1679.9004 544.69962 1691.9004 555.59961 C 1693.4004 556.99961 1695.6996 559.09922 1698.0996 561.19922 C 1703.6996 566.19921 1700.0992 575.5 1692.6992 575.5 L 1672.4004 575.5 L 1546.5996 575.5 C 1541.4996 575.5 1536.3996 576.39922 1531.5996 578.19922 C 1516.4996 583.69921 1484.0008 588 1468.3008 588 C 1401.2008 588 1352 568.99919 1318.5 538.69922 C 1317 537.39922 1315.3 536.80078 1313.5 536.80078 C 1310.6 536.80078 1307.7 538.5 1306.5 541.5 L 1296.3008 566.5 C 1293.9008 572.09999 1288.5996 575.69922 1282.5996 575.69922 L 1094.5 575.69922 L 1028.5996 575.69922 L 962.09961 575.69922 C 956.99961 575.69922 953.29961 569.39999 958.59961 564 C 960.59961 562.1 963.39922 561 966.19922 561 L 966.5 561 C 981.89998 561 994 540.90077 994 529.80078 L 994 330.30078 C 994 287.30082 875.79955 256.70039 813.09961 254.40039 C 811.59961 254.30039 810.19922 254.30078 808.69922 254.30078 C 789.49924 254.30078 768.50078 259.7008 765.30078 283.30078 C 763.30078 297.90077 782.09966 327.40002 830.59961 347 C 884.99955 368.79998 974.10078 418.50086 968.80078 493.30078 C 964.90079 547.70073 927.60027 579 808.40039 579 C 794.1004 579 761.40077 574.7 745.80078 574 C 744.40078 573.9 742.79922 573.90039 741.19922 573.90039 C 728.99923 573.90039 711.79921 575.90078 698.19922 579.30078 C 696.79922 579.70078 695.30039 579.80078 693.90039 579.80078 C 688.2004 579.80078 682.8 576.8996 679.5 572.09961 C 665.20001 550.59963 643.2992 509.99997 626.19922 476.5 C 622.79922 469.90001 628.19962 463.59961 634.09961 463.59961 C 636.09961 463.59961 638.2 464.29961 640 466.09961 C 681.39996 504.69957 737.19927 547.80078 789.19922 547.80078 C 822.39919 547.80078 851.00079 539.59958 859.80078 506.09961 C 868.60077 472.29964 783.60037 429.70038 762.40039 419.90039 C 741.90041 410.5004 702.19921 385.29999 693.69922 377.5 C 677.99923 363.20001 650.8 342.70035 655 303.40039 C 660.59999 251.20044 716.10046 229 786.90039 229 C 843.40033 229 953.80081 234.7 985.30078 236.5 C 991.10078 236.8 996.89922 237 1002.6992 237 L 1094.4004 237 L 1094.4004 237.09961 L 1271 237.09961 C 1279.3 237.09961 1283.4996 242.10079 1286.5996 249.80078 L 1302 287 C 1303.1 289.7 1305.5996 291.09961 1308.0996 291.09961 C 1309.6996 291.09961 1311.3992 290.49922 1312.6992 289.19922 C 1346.9992 256.09925 1396.9005 231.59961 1458.9004 231.59961 C 1497.1004 231.59961 1528.5996 240.40039 1539.0996 240.40039 L 1539.5996 240.40039 C 1539.5996 240.40039 1540.2992 240.5 1541.6992 240.5 C 1545.9992 240.5 1556.6004 239.30038 1571.9004 229.90039 C 1574.1004 228.50039 1576.6 227.90039 1579 227.90039 C 1584.7 227.90039 1590.1 231.5004 1592 237.40039 L 1619.6992 324.30078 C 1621.4992 330.00078 1616.8992 334.5 1612.1992 334.5 C 1609.9992 334.5 1607.7992 333.60039 1606.1992 331.40039 C 1574.5993 289.20043 1535.6995 257.40039 1466.5996 257.40039 C 1392.5997 257.40039 1377.3008 323.90082 1377.3008 361.80078 L 1377.3008 439 C 1377.3008 460.99998 1381.1005 561.90039 1468.9004 561.90039 L 1477.5 561.90039 C 1510.4 561.90039 1537.7004 535.10075 1537.9004 502.30078 C 1538.2004 466.80082 1518.5 444.80078 1485.5 441.80078 C 1480.6 441.40078 1476.8992 437.09999 1477.6992 432 C 1478.2992 428.1 1482.3008 424.90039 1486.3008 424.90039 L 1490.3008 424.90039 L 1609 424.90039 C 1620 424.90039 1630.0992 418.79999 1635.1992 409 L 1734.0996 221.30078 C 1737.1996 215.50079 1743.0008 212.59961 1748.8008 212.59961 z M 1120.6992 261.59961 C 1106.3992 261.59961 1094.6992 273.29962 1094.6992 287.59961 L 1094.6992 377.69922 L 1094.6992 383.19922 C 1096.2992 386.09922 1098.9004 389.30078 1104.9004 389.30078 C 1106.5004 389.30078 1108.3004 389.09961 1110.4004 388.59961 C 1123.5004 385.49961 1147.5 374.2996 1166 363.59961 C 1179 355.99962 1190.8008 348.09999 1204.3008 337 C 1206.0008 335.6 1208.1 334.90039 1210 334.90039 C 1214.7 334.90039 1219.1992 338.59961 1219.1992 344.09961 L 1219.1992 373 L 1219.1992 430 L 1219.1992 458.90039 C 1219.1992 464.30039 1214.7 468.09961 1210 468.09961 C 1208 468.09961 1206.0008 467.5 1204.3008 466 C 1190.8008 454.80001 1179 447.00038 1166 439.40039 C 1147.5 428.7004 1124.2 420.40078 1111 417.80078 C 1110 417.60078 1108.9996 417.5 1108.0996 417.5 C 1100.7996 417.5 1094.8008 423 1094.8008 427.5 L 1094.8008 432.40039 L 1094.8008 524.19922 C 1094.8008 539.1992 1107 551.40039 1122 551.40039 L 1138.5 551.40039 C 1205.9999 551.40039 1253.0992 520.89998 1274.6992 499 C 1279.0992 494.5 1280.1992 487.69999 1277.6992 482 C 1265.9992 455.70003 1260.5 426.40036 1260.5 396.40039 C 1260.5 373.90041 1268.7996 348.29959 1284.0996 324.09961 C 1286.1996 320.69961 1285.4996 316.09961 1282.5996 313.59961 C 1258.5996 292.89963 1208.7996 261.59961 1154.0996 261.59961 L 1120.6992 261.59961 z M 1120.8008 271.40039 L 1154.1992 271.40039 C 1213.3992 271.40039 1262.9 309.80001 1275 320 C 1259.3 345.19997 1250.5996 372.20081 1250.5996 396.30078 C 1250.5996 428.80075 1256.6992 458.90042 1268.6992 485.90039 C 1269.5992 488.00039 1269.1992 490.40039 1267.6992 491.90039 C 1244.1992 515.80037 1197.8996 541.30078 1138.5996 541.30078 L 1122 541.30078 C 1112.5 541.30078 1104.6992 533.49999 1104.6992 524 L 1104.6992 432.19922 L 1104.6992 428.5 C 1105.2992 428 1106.5996 427.19922 1108.0996 427.19922 C 1108.3996 427.19922 1108.6996 427.20078 1109.0996 427.30078 C 1121.1996 429.60078 1143.5 437.59923 1161 447.69922 C 1174.9 455.79921 1186.0004 463.5004 1197.9004 473.40039 C 1201.4004 476.30039 1205.5 477.80078 1210 477.80078 C 1220.6 477.80078 1229.1992 469.19921 1229.1992 458.69922 L 1229.1992 429.80078 L 1229.1992 372.80078 L 1229.1992 344 C 1229.1992 333.50001 1220.6 324.90039 1210 324.90039 C 1205.6 324.90039 1201.4004 326.40078 1197.9004 329.30078 C 1185.9004 339.20077 1174.9 346.90001 1161 355 C 1141.4 366.29999 1119.1996 376.30039 1108.0996 378.90039 C 1106.4996 379.30039 1105.5004 379.30078 1104.9004 379.30078 L 1104.6992 379.30078 L 1104.6992 377.59961 L 1104.6992 287.5 C 1104.6992 278.60001 1111.9008 271.40039 1120.8008 271.40039 z " /><path
     id="path80"
     d="M 2059.5 4.9003906 C 2057.1 4.9003906 2054.5992 5.4996105 2052.1992 6.5996094 C 2047.9992 8.5996074 2044.4996 10.19922 2041.5996 11.699219 C 1973.2997 46.099184 1923.7996 86.699264 1894.5996 132.19922 C 1872.6996 166.29918 1861.7004 203.40004 1860.9004 245.5 C 1859.9004 300.49995 1885.6996 355.99928 1913.0996 414.69922 C 1940.9996 474.49916 1969.8008 536.40007 1972.8008 603 C 1974.5008 640.09996 1969.8991 730.99965 1891.1992 773.09961 C 1887.2992 775.19961 1884.2996 778.89922 1883.0996 783.19922 C 1881.8996 787.49921 1882.4992 792.00039 1884.6992 795.90039 C 1887.6992 801.10039 1893.1992 804.30078 1899.1992 804.30078 C 1901.7992 804.30078 1904.1992 803.79961 1906.6992 802.59961 C 1983.8991 765.19965 2035.6996 727.49996 2065.0996 687.5 C 2093.2996 649.20004 2098.7 612.10036 2099.5 580.40039 L 2210.3008 580.40039 C 2215.8008 580.40039 2220.5996 577.10039 2222.5996 571.90039 C 2224.2996 567.4004 2223.4996 562.6 2220.5996 559 L 2220.5996 558.69922 L 2217.5996 556.09961 C 2215.8996 554.49961 2214.2004 553.00078 2212.9004 551.80078 L 2212.8008 551.69922 C 2203.2008 543.09923 2202.8992 537.7996 2202.6992 532.09961 L 2202.5996 530.90039 C 2202.2996 525.5004 2203.5004 520.2 2205.9004 515.5 L 2290.4004 355.19922 L 2362.4004 514.90039 C 2364.7004 520.00039 2365.7008 525.3004 2365.3008 530.40039 C 2365.3008 530.80039 2365.1992 531.19961 2365.1992 531.59961 L 2365.1992 532.09961 C 2364.0992 538.3996 2358.1996 552.09961 2348.0996 552.09961 L 2347.9004 552.09961 C 2344.1004 552.09961 2340.4004 553.39961 2337.4004 555.59961 C 2330.6004 560.7996 2329.8008 567.4004 2331.3008 571.90039 C 2333.0008 577.00039 2337.7996 580.40039 2343.0996 580.40039 L 2630.5 580.40039 C 2637.9 580.40039 2644.0008 574.6996 2644.3008 567.59961 C 2644.6008 561.69962 2641.0992 556.30078 2635.6992 554.30078 C 2625.7992 550.50079 2602.8008 539.00076 2602.8008 513.80078 L 2602.8008 268.09961 C 2602.8008 264.09961 2605.8008 261.09961 2609.8008 261.09961 L 2610.1992 261.09961 C 2650.3992 262.69961 2686.3992 271.7008 2717.1992 287.80078 C 2719.6992 289.00078 2721.1992 291.60078 2721.1992 294.30078 L 2721.1992 457.59961 L 2721.9004 457.59961 C 2724.9004 497.49957 2737.3008 527.0008 2759.8008 547.80078 C 2787.7008 573.60076 2830.8001 586.09961 2891.5 586.09961 C 2930.2 586.09961 2966.2008 575.8992 2992.8008 557.19922 C 3022.6008 536.29924 3038.4004 506.79997 3038.4004 472 L 3038.4004 290.59961 C 3038.4004 282.39962 3040.6 275.49921 3045 270.19922 C 3050.1 263.89923 3058.1004 260.30078 3066.9004 260.30078 L 3081.8008 260.30078 C 3090.6008 260.30078 3098.5992 263.89923 3103.6992 270.19922 C 3108.0992 275.59921 3110.3008 282.49962 3110.3008 290.59961 L 3110.3008 510.30078 C 3110.3008 538.80075 3088.7008 550.2 3075.8008 554.5 C 3071.1008 556 3067.5996 559.79961 3066.5996 564.59961 C 3065.7996 568.59961 3066.9004 572.59922 3069.4004 575.69922 C 3072.0004 578.69922 3075.6992 580.5 3079.6992 580.5 L 3251.1992 580.5 C 3256.7992 580.5 3261.9008 577.00039 3263.8008 571.90039 C 3265.0008 568.40039 3264.9008 564.70039 3263.3008 561.40039 C 3261.7008 558.10039 3258.9 555.6 3255.5 554.5 C 3242.4 550.2 3220.5996 538.79919 3220.5996 510.19922 L 3220.5996 277.30078 C 3220.5996 261.2008 3234.9 256.90039 3242.5 256.90039 L 3273.9004 256.90039 C 3299.8004 256.90039 3327.3008 278.19926 3327.3008 317.69922 C 3327.3008 342.19919 3320.3992 361.69923 3307.1992 374.19922 C 3296.6992 384.19921 3284.3004 387.69922 3276.9004 387.69922 L 3273.4004 387.69922 C 3264.4004 387.69922 3257.9992 387.59922 3251.1992 385.19922 L 3250.8008 385 C 3249.2008 384.2 3247.3996 383.80078 3245.5996 383.80078 C 3241.7996 383.80078 3238.2004 385.59922 3235.9004 388.69922 C 3233.6004 391.79922 3232.8996 395.70039 3234.0996 399.40039 C 3234.1996 399.80039 3234.4 400.10039 3234.5 400.40039 C 3244.7 435.00036 3261.5996 482.40081 3284.5996 513.30078 C 3314.6996 553.90074 3377.8001 602.30078 3507 602.30078 L 3556.0996 602.30078 C 3561.4996 602.30078 3566.0992 598.99921 3567.6992 594.19922 C 3568.7992 591.09922 3568.5 587.70078 3567 584.80078 C 3565.5 581.90078 3562.9008 579.70078 3559.8008 578.80078 C 3549.6008 575.80078 3532.5996 567.89998 3532.5996 549.5 L 3532.5996 388.80078 C 3532.5996 387.80078 3533.5996 387.40039 3534.0996 387.40039 C 3534.3996 387.40039 3534.7 387.60078 3535 387.80078 L 3772.5 585 C 3775.3 587.3 3778.7008 588.5 3782.3008 588.5 C 3786.3008 588.5 3790.1 586.89922 3793 584.19922 C 3796.1 581.29922 3797.8008 577.3 3797.8008 573 L 3797.8008 285.19922 C 3797.8008 264.79924 3817.8004 255.99922 3826.4004 253.19922 C 3829.2004 252.39922 3831.5008 250.50039 3832.8008 247.90039 C 3834.2008 245.30039 3834.4004 242.30078 3833.4004 239.30078 C 3831.9004 235.00079 3827.7 232.09961 3823 232.09961 L 3721.4004 232.09961 C 3716.7004 232.09961 3712.5 235.00079 3711 239.30078 C 3709 245.00078 3712.0008 251.19922 3717.8008 253.19922 C 3726.4008 255.99922 3746.4004 264.69924 3746.4004 285.19922 L 3746.4004 427.59961 C 3746.4004 428.59961 3745.4004 429 3744.9004 429 C 3744.6004 429 3744.3 428.79961 3744 428.59961 L 3594.1992 304.30078 C 3547.7993 265.80082 3482.6 239.6992 3436 224.69922 C 3434.6 224.19922 3433.0996 224 3431.5996 224 C 3425.6996 224 3420.4 227.89922 3418.5 233.69922 C 3416.6 239.49921 3418.5008 245.59922 3423.3008 249.19922 C 3424.4008 250.19922 3425.6008 251.00039 3426.8008 251.90039 L 3427.6992 252.59961 C 3478.5992 290.89957 3480.9004 345.5 3480.9004 346 L 3480.9004 546.30078 C 3480.9004 550.70078 3477.3004 554.30078 3472.9004 554.30078 C 3458.9004 554.30078 3423.0004 529.30076 3403.4004 508.80078 C 3394.6004 499.60079 3388 488.39999 3381 476.5 C 3374.1 464.80001 3367 452.70038 3357 440.90039 C 3350.2 433.0004 3343.7996 427.00078 3338.5996 422.80078 C 3383.3996 418.90079 3406.1004 397.4992 3417.4004 379.19922 C 3431.5004 356.39924 3432.1992 332.40078 3432.1992 327.80078 C 3432.1992 307.1008 3426.6 289.0992 3415.5 274.19922 C 3394.5 246.09925 3356.1003 231.80078 3301.4004 231.80078 L 2961.4004 231.80078 C 2956.7004 231.80078 2952.5 234.7 2951 239 C 2950 241.8 2950.1996 244.8 2951.5996 247.5 C 2952.8996 250.1 2955.3004 252.10039 2957.9004 252.90039 C 2966.5004 255.70039 2986.5 264.40041 2986.5 284.90039 L 2986.5 463.90039 C 2986.5 521.20033 2947.2 541.5 2913.5 541.5 C 2841.7001 541.5 2831 491.90075 2831 462.30078 L 2831 284.69922 C 2831 264.19924 2850.9996 255.49922 2859.5996 252.69922 C 2864.0996 251.29922 2867.0996 247.1 2867.0996 242.5 L 2867.0996 242.40039 C 2867.0996 236.4004 2862.3008 231.59961 2856.3008 231.59961 L 2380.1992 231.59961 C 2371.1992 231.59961 2362.9 236.8004 2359 244.90039 L 2340.3008 283.69922 C 2338.4008 287.59921 2338.6004 291.80039 2340.9004 295.40039 C 2343.2004 299.00039 2347.2008 301.19922 2351.3008 301.19922 C 2353.7008 301.19922 2355.9996 300.49961 2358.0996 299.09961 C 2381.7996 283.09963 2422.9005 263.39961 2484.4004 261.09961 L 2484.5996 261.09961 C 2488.3996 261.09961 2491.5996 264.19961 2491.5996 268.09961 L 2491.5996 513.69922 C 2491.5996 522.79921 2488.4996 531.00001 2482.5996 538 C 2479.0996 542.2 2473.7996 544.59961 2468.0996 544.59961 L 2453 544.59961 C 2448.9 544.59961 2444.9992 543.50078 2441.6992 541.30078 C 2431.2992 534.60079 2423.8008 526.0996 2419.3008 516.09961 L 2285.6992 219.90039 C 2282.0992 212.1004 2274.6 207.19922 2266 207.19922 C 2257.9 207.19922 2250.8 211.49923 2247 218.69922 L 2108 482.5 L 2090.4004 515.90039 C 2081.1004 484.30042 2065.7992 450.50036 2049.6992 414.90039 C 2020.5992 350.50046 1987.5 277.59954 1987.5 205.59961 C 1987.5 100.79971 2019.2993 69.999582 2057.6992 43.099609 C 2059.8992 41.499611 2062.5004 39.800779 2065.4004 37.800781 L 2068.5996 35.599609 C 2074.8996 31.399614 2077.5008 24.299602 2075.3008 17.099609 C 2073.1008 9.8996166 2066.6 4.9003906 2059.5 4.9003906 z " /><path
     id="path81"
     class="st19"
     d="M 2059.5996 0 C 2056.3996 0 2053.1996 0.69922025 2050.0996 2.1992188 C 2045.8996 4.1992167 2042.4008 5.8003922 2039.3008 7.4003906 C 2002.9008 25.700372 1971.5992 45.900412 1946.1992 67.400391 C 1923.2992 86.700371 1904.5004 107.69963 1890.4004 129.59961 C 1868.0004 164.49957 1856.8 202.30043 1856 245.40039 C 1854.9 301.60033 1880.9992 357.60084 1908.6992 416.80078 C 1936.3992 476.20072 1965.0004 537.59928 1967.9004 603.19922 C 1969.5004 639.39918 1965.1003 727.99926 1888.9004 768.69922 C 1883.8004 771.49922 1879.9008 776.2004 1878.3008 781.90039 C 1876.7008 787.50039 1877.4004 793.40001 1880.4004 798.5 C 1884.2004 805.19999 1891.3992 809.30078 1899.1992 809.30078 C 1902.4992 809.30078 1905.5996 808.59922 1908.5996 807.19922 C 1949.3996 787.39924 1982.3004 768.09959 2009.4004 748.09961 C 2034.7004 729.39963 2054.2004 710.59959 2068.9004 690.59961 C 2096.4004 653.09965 2102.7996 616.89997 2104.0996 585.5 L 2115.4004 585.5 L 2122.5996 585.5 L 2210.0996 585.5 C 2217.6996 585.5 2224.3 580.90077 2227 573.80078 C 2229.1 568.30079 2228.4008 562.2996 2225.3008 557.59961 L 2225.3008 556.59961 L 2221.9004 553.59961 C 2221.6004 553.39961 2221.2996 553.10039 2221.0996 552.90039 L 2219.3008 551.30078 C 2218.1008 550.20078 2216.9996 549.20078 2216.0996 548.30078 L 2216 548.19922 L 2215.9004 548.09961 C 2207.9004 540.89962 2207.7 536.9 2207.5 532 C 2207.5 531.6 2207.5004 531.20078 2207.4004 530.80078 C 2207.2004 526.30079 2208.0992 521.80039 2210.1992 517.90039 L 2289.9004 366.69922 L 2357.6992 517.09961 C 2359.5992 521.29961 2360.4996 525.8 2360.0996 530 C 2359.9996 530.5 2360 531.00078 2360 531.30078 L 2360 531.5 C 2358.9 537.19999 2354.0008 547.19922 2347.8008 547.19922 L 2347.5996 547.19922 C 2342.6996 547.19922 2337.8996 548.79922 2334.0996 551.69922 C 2325.1996 558.49921 2324.2008 567.49962 2326.3008 573.59961 C 2328.7008 580.6996 2335.3008 585.5 2342.8008 585.5 L 2455.0996 585.5 L 2461.6992 585.5 L 2550.4004 585.5 L 2576.5996 585.5 L 2630.1992 585.5 C 2640.1992 585.5 2648.4004 577.79999 2648.9004 568 C 2649.3004 560.00001 2644.5 552.49922 2637 549.69922 C 2628 546.29922 2607.3008 535.90037 2607.3008 513.90039 L 2607.3008 268.09961 C 2607.3008 266.89961 2608.1004 266.09961 2609.4004 266.09961 L 2609.5 266.09961 C 2649 267.59961 2684.3004 276.39923 2714.4004 292.19922 C 2715.2004 292.59922 2715.6992 293.40078 2715.6992 294.30078 L 2715.6992 452.5 L 2715.6992 462.40039 L 2716.8008 462.40039 C 2720.5008 501.30035 2733.4004 530.4008 2755.9004 551.30078 C 2784.8004 578.00075 2829.0001 591 2891 591 C 2930.7 591 2967.6992 580.3992 2995.1992 561.19922 C 3010.0992 550.79923 3021.7008 538.1992 3029.8008 523.69922 C 3038.5008 508.09923 3042.9004 490.69998 3042.9004 472 L 3042.9004 290.59961 C 3042.9004 283.49962 3044.7008 277.70039 3048.3008 273.40039 C 3052.5008 268.3004 3059.1004 265.30078 3066.4004 265.30078 L 3081.3008 265.30078 C 3088.6008 265.30078 3095.2004 268.3004 3099.4004 273.40039 C 3103.0004 277.90039 3104.8008 283.69923 3104.8008 290.69922 L 3104.8008 510.30078 C 3104.8008 535.70076 3085.2992 545.90079 3073.6992 549.80078 C 3067.2992 551.90078 3062.4992 557.19962 3061.1992 563.59961 C 3060.1992 568.9996 3061.5996 574.60079 3065.0996 578.80078 C 3068.5996 583.00078 3073.6992 585.40039 3079.1992 585.40039 L 3133.1992 585.40039 L 3194.1992 585.40039 L 3250.6992 585.40039 C 3258.3992 585.40039 3265.4 580.6996 3268 573.59961 C 3269.8 568.79961 3269.6004 563.6996 3267.4004 559.09961 C 3265.3004 554.69961 3261.3992 551.19922 3256.6992 549.69922 C 3244.9992 545.89922 3225.3008 535.59958 3225.3008 510.09961 L 3225.3008 302.09961 L 3225.3008 277.30078 C 3225.3008 262.0008 3241.6008 261.90039 3242.3008 261.90039 L 3273.6992 261.90039 C 3297.1992 261.90039 3322.0996 281.50082 3322.0996 317.80078 C 3322.0996 341.30076 3315.9 359.09923 3303.5 370.69922 C 3293.4 380.29921 3281.7996 382.80078 3276.5996 382.80078 L 3274.8008 382.80078 L 3273.0996 382.80078 C 3264.7996 382.80078 3258.8008 382.59961 3252.8008 380.59961 L 3252.6992 380.59961 C 3250.3992 379.49961 3247.9008 378.90039 3245.3008 378.90039 C 3239.9008 378.90039 3234.7996 381.5004 3231.5996 385.90039 C 3228.3996 390.20039 3227.4996 395.7004 3229.0996 400.90039 C 3229.1996 401.40039 3229.3996 401.80078 3229.5996 402.30078 C 3239.8996 437.20075 3257.1004 485.00042 3280.4004 516.40039 C 3300.9004 544.00036 3329.0993 565.89923 3364.1992 581.19922 C 3403.7992 598.5992 3451.8008 607.40039 3506.8008 607.40039 L 3555.9004 607.40039 C 3563.4004 607.40039 3569.9992 602.80077 3572.1992 595.80078 C 3573.6992 591.40079 3573.2992 586.69961 3571.1992 582.59961 C 3569.0992 578.49961 3565.3996 575.49961 3561.0996 574.09961 C 3552.1996 571.39961 3537.4004 564.69998 3537.4004 549.5 L 3537.4004 396.40039 L 3769.0996 588.80078 C 3772.7996 591.90078 3777.3 593.5 3782 593.5 C 3793.3 593.5 3802.4004 584.29999 3802.4004 573 L 3802.4004 285.19922 C 3802.4004 267.99924 3819.9 260.40039 3827.5 257.90039 C 3831.5 256.70039 3834.9008 253.79961 3836.8008 250.09961 C 3838.8008 246.29961 3839.0992 241.79921 3837.6992 237.69922 L 3837.6992 237.59961 L 3837.6992 237.5 C 3835.4992 231.20001 3829.3996 226.90039 3822.5996 226.90039 L 3796.4004 226.90039 L 3747.1992 226.90039 L 3721 226.90039 C 3714.2 226.90039 3708.1004 231.10001 3705.9004 237.5 C 3703.0004 245.79999 3707.4992 254.89922 3715.6992 257.69922 L 3715.8008 257.69922 L 3715.9004 257.69922 C 3723.5004 260.19922 3741.0996 267.80002 3741.0996 285 L 3741.0996 420 L 3597.1992 300.59961 C 3550.1993 261.49965 3484.4003 235.29959 3437.4004 220.09961 C 3435.4004 219.49961 3433.4004 219.09961 3431.4004 219.09961 C 3423.4004 219.09961 3416.1996 224.29923 3413.5996 232.19922 C 3410.9996 239.99921 3413.4996 248.19922 3420.0996 253.19922 C 3421.2996 254.19922 3422.5992 255.10039 3423.6992 255.90039 L 3424.5996 256.59961 C 3444.0996 271.19959 3458.4996 290.09924 3467.5996 312.69922 C 3475.2996 331.8992 3475.8008 345.80039 3475.8008 345.90039 L 3475.8008 537.09961 L 3475.8008 546.30078 C 3475.8008 548.00078 3474.3992 549.40039 3472.6992 549.40039 C 3468.6992 549.40039 3458.3996 545.59999 3442.5996 535 C 3429.6996 526.30001 3416.0008 515.00038 3406.8008 505.40039 C 3398.4008 496.6004 3391.8996 485.59999 3385.0996 474 C 3378.0996 462.10001 3370.8996 449.79921 3360.5996 437.69922 C 3356.8996 433.39922 3353.3004 429.60039 3349.9004 426.40039 C 3363.6004 424.20039 3375.9992 420.20078 3386.6992 414.30078 C 3401.0992 406.50079 3412.8008 395.5992 3421.3008 381.69922 C 3436.1008 357.79924 3436.8008 332.49921 3436.8008 327.69922 C 3436.8008 305.89924 3430.7996 286.79959 3419.0996 271.09961 C 3409.0996 257.69962 3395.0996 247.20077 3377.5996 239.80078 C 3356.9996 231.10079 3331.2004 226.69922 3300.9004 226.69922 L 3010.3008 226.69922 L 2960.9004 226.69922 C 2954.1004 226.69922 2948.0008 230.90079 2945.8008 237.30078 C 2944.4008 241.50078 2944.6996 245.89922 2946.5996 249.69922 C 2948.4996 253.39922 2951.9008 256.29961 2955.8008 257.59961 C 2963.4008 260.09961 2980.9004 267.70041 2980.9004 284.90039 L 2980.9004 464 C 2980.9004 533.19993 2924.2004 536.69922 2912.9004 536.69922 C 2848.8005 536.69922 2835.3008 496.39997 2835.3008 462.5 L 2835.3008 435.40039 L 2835.3008 284.90039 C 2835.3008 267.70041 2852.9 260.09961 2860.5 257.59961 C 2867 255.39961 2871.4004 249.3996 2871.4004 242.59961 L 2871.4004 242.5 C 2871.4004 233.80001 2864.2996 226.69922 2855.5996 226.69922 L 2742.0996 226.69922 L 2724.6992 226.69922 L 2496 226.69922 L 2379.5 226.69922 C 2368.6 226.69922 2358.6004 233.00079 2353.9004 242.80078 L 2335.1992 281.59961 C 2332.5992 286.9996 2332.9996 293.19922 2336.0996 298.19922 C 2339.2996 303.19921 2344.7992 306.30078 2350.6992 306.30078 C 2354.0992 306.30078 2357.4008 305.30039 2360.3008 303.40039 C 2383.5008 287.70041 2423.7001 268.49922 2484 266.19922 L 2484.0996 266.19922 C 2485.1996 266.19922 2486.1992 267.09922 2486.1992 268.19922 L 2486.1992 513.90039 C 2486.1992 522.00038 2483.7004 528.80001 2478.4004 535 C 2475.8004 538.1 2471.7992 539.90039 2467.6992 539.90039 L 2452.5996 539.90039 C 2449.3996 539.90039 2446.5 539.10039 2444 537.40039 C 2434.4 531.2004 2427.5004 523.40077 2423.4004 514.30078 L 2289.8008 218.09961 C 2285.4008 208.49962 2276.0996 202.5 2265.5996 202.5 C 2255.7996 202.5 2246.7992 207.89962 2242.1992 216.59961 L 2103.1992 480.40039 L 2091.1992 503.19922 C 2081.7992 474.59925 2068.1004 444.49958 2053.9004 413.09961 C 2023.5004 346.09968 1992.0996 276.70071 1992.0996 205.80078 C 1992.0996 103.40088 2022.9993 73.500365 2060.1992 47.400391 C 2062.3992 45.900392 2065.1004 43.999607 2067.9004 42.099609 L 2071.0996 39.900391 C 2079.1996 34.400396 2082.6008 25.000772 2079.8008 15.800781 C 2077.3008 6.3007907 2068.9996 1.4210841e-14 2059.5996 0 z M 2059.5996 9.9003906 C 2069.8996 9.9003906 2076.2004 24.500007 2065.9004 31.5 C 2061.7004 34.399997 2057.9008 36.899612 2054.8008 39.099609 C 2016.2008 66.099582 1982.4004 97.999717 1982.4004 205.59961 C 1982.4004 322.69949 2066.3008 437.20048 2088.8008 529.40039 L 2112.3008 484.80078 L 2251.3008 221 C 2254.4008 215.10001 2260.2004 212.19922 2265.9004 212.19922 C 2272.0004 212.19922 2278.1 215.50001 2281 222 L 2414.5996 518.19922 C 2420.0996 530.49921 2429.2004 539.30001 2438.9004 545.5 C 2443.1004 548.3 2448.0004 549.59961 2452.9004 549.59961 L 2468 549.59961 C 2475.1 549.59961 2481.8008 546.49921 2486.3008 541.19922 C 2492.1008 534.29923 2496.4004 525.29921 2496.4004 513.69922 L 2496.4004 268.09961 C 2496.4004 261.49962 2491.0004 256.09961 2484.4004 256.09961 L 2484 256.09961 C 2422.3001 258.49961 2380.1 278.00002 2355 295 C 2353.7 295.9 2352.3 296.30078 2351 296.30078 C 2346.1 296.30078 2342 291.10039 2344.5 285.90039 L 2363.1992 247.09961 C 2366.2992 240.79962 2372.8004 236.69922 2379.9004 236.69922 L 2496.4004 236.69922 L 2725.0996 236.69922 L 2742.5 236.69922 L 2856 236.69922 C 2859.3 236.69922 2861.8008 239.4 2861.8008 242.5 L 2861.8008 242.59961 C 2861.8008 245.19961 2860.1992 247.29961 2857.6992 248.09961 C 2848.2992 251.19961 2825.6992 261.1008 2825.6992 284.80078 L 2825.6992 435.30078 L 2825.6992 462.40039 C 2825.6992 509.30034 2849.9993 546.5 2913.1992 546.5 C 2947.8992 546.5 2991.1992 525.80033 2991.1992 463.90039 L 2991.1992 284.90039 C 2991.1992 261.20041 2968.5992 251.19922 2959.1992 248.19922 C 2956.1992 247.29922 2954.4 243.89961 2955.5 240.59961 C 2956.3 238.19961 2958.6992 236.69922 2961.1992 236.69922 L 3010.5996 236.69922 L 3301.1992 236.69922 C 3427.0991 236.69922 3427.0996 314.20079 3427.0996 327.80078 C 3427.0996 336.90077 3424.0999 418.5 3323.5 418.5 C 3323.5 418.5 3337.0996 425.49924 3353.0996 444.19922 C 3373.1996 467.7992 3381.7992 493.60041 3399.6992 512.40039 C 3418.6992 532.40037 3456.1008 559.5 3472.8008 559.5 C 3480.0008 559.5 3485.8008 553.69999 3485.8008 546.5 L 3485.8008 537.30078 L 3485.8008 346 C 3485.8008 339.90001 3480.4996 286.09918 3430.5996 248.69922 C 3429.0996 247.59922 3427.5992 246.60039 3426.1992 245.40039 C 3418.9992 239.9004 3423.5 229.19922 3431.5 229.19922 C 3432.4 229.19922 3433.4004 229.29922 3434.4004 229.69922 C 3478.1003 243.7992 3544.2004 269.60043 3590.9004 308.40039 L 3740.5 432.59961 C 3741.7 433.59961 3743.1996 434.09961 3744.5996 434.09961 C 3747.8996 434.09961 3751.0996 431.49921 3751.0996 427.69922 L 3751.0996 285.19922 C 3751.0996 261.49924 3728.4996 251.5 3719.0996 248.5 C 3716.0996 247.5 3714.3004 244.20039 3715.4004 240.90039 C 3716.2004 238.50039 3718.5996 237 3721.0996 237 L 3747.3008 237 L 3796.5 237 L 3822.6992 237 C 3825.2992 237 3827.6004 238.50039 3828.4004 240.90039 C 3829.5004 244.30039 3827.6996 247.6 3824.5996 248.5 C 3815.1996 251.6 3792.5996 261.49924 3792.5996 285.19922 L 3792.5996 573 C 3792.5996 579.29999 3787.4996 583.5 3782.0996 583.5 C 3779.7996 583.5 3777.5 582.69961 3775.5 581.09961 L 3538.3008 384 C 3537.1008 383 3535.5992 382.5 3534.1992 382.5 C 3530.8992 382.5 3527.6992 385.10039 3527.6992 388.90039 L 3527.6992 549.59961 C 3527.6992 571.79959 3548.6004 580.69922 3558.4004 583.69922 C 3562.1004 584.79922 3564.3 588.80079 3563 592.80078 C 3562.1 595.70078 3559.1996 597.5 3556.0996 597.5 L 3507 597.5 C 3392.7001 597.5 3324.4996 558.89995 3288.5996 510.5 C 3265.4996 479.40003 3248.4996 430.59958 3239.0996 398.59961 C 3238.9996 398.59961 3239.0004 398.39961 3238.9004 398.09961 C 3237.4004 393.29961 3241.0996 388.90039 3245.5996 388.90039 C 3246.5996 388.90039 3247.6992 389.09961 3248.6992 389.59961 C 3248.6992 389.69961 3248.8008 389.69922 3248.8008 389.69922 C 3256.7008 392.59922 3264.2008 392.80078 3273.3008 392.80078 L 3276.8008 392.80078 C 3292.9008 392.80078 3332.1992 378.20072 3332.1992 317.80078 C 3332.1992 276.70082 3303.1004 252 3273.9004 252 L 3242.5 252 C 3231.5 252 3215.5996 258.80041 3215.5996 277.40039 L 3215.5996 302.19922 L 3215.5996 510.30078 C 3215.5996 543.20075 3242.0004 555.40079 3253.9004 559.30078 C 3258.2004 560.70078 3260.8 565.50079 3259 570.30078 C 3257.8 573.60078 3254.5 575.59961 3251 575.59961 L 3194.5 575.59961 L 3133.5 575.59961 L 3079.5 575.59961 C 3074.3 575.59961 3070.3008 570.8996 3071.3008 565.59961 C 3071.9008 562.49961 3074.2996 560.20078 3077.0996 559.30078 C 3089.1996 555.30079 3115.0996 543.00036 3115.0996 510.40039 L 3115.0996 290.59961 C 3115.0996 279.99962 3111.7004 272.3996 3107.4004 267.09961 C 3101.2004 259.39962 3091.4996 255.30078 3081.5996 255.30078 L 3066.6992 255.30078 C 3056.7992 255.30078 3047.2004 259.39962 3040.9004 267.09961 C 3036.6004 272.2996 3033.1992 279.89962 3033.1992 290.59961 L 3033.1992 472 C 3033.1992 542.69993 2964.4991 581.09961 2891.1992 581.09961 C 2764.7993 581.09961 2730.2992 525.19993 2726.1992 452.5 L 2725.8008 452.5 L 2725.8008 294.30078 C 2725.8008 289.70079 2723.1996 285.50078 2719.0996 283.30078 C 2693.6996 270.00079 2657.7 257.89961 2610 256.09961 L 2609.4004 256.09961 C 2602.7004 256.09961 2597.4004 261.29962 2597.4004 268.09961 L 2597.4004 513.80078 C 2597.4004 541.80075 2622.3 554.60039 2633.5 558.90039 C 2636.9 560.10039 2639.1004 563.60078 2638.9004 567.30078 C 2638.7004 571.90078 2634.6996 575.40039 2630.0996 575.40039 L 2576.5 575.40039 L 2550.3008 575.40039 L 2461.5996 575.40039 L 2455 575.40039 L 2342.6992 575.40039 C 2335.8992 575.40039 2331.2 566.29999 2340 559.5 C 2342.1 557.9 2344.8 557 2347.5 557 L 2347.6992 557 C 2361.0992 557 2368.2992 540.90038 2369.6992 532.90039 C 2369.7992 532.40039 2369.8004 531.70039 2369.9004 530.90039 C 2370.4004 524.8004 2369.1996 518.50039 2366.5996 512.90039 L 2290.4004 343.90039 L 2201.0996 513.19922 C 2198.1996 518.69921 2196.8992 524.99922 2197.1992 531.19922 C 2197.4992 537.39921 2197.1 544.80001 2209 555.5 C 2210.5 556.9 2212.6996 558.9 2215.0996 561 C 2215.0996 561.1 2215.1992 561.09961 2215.1992 561.09961 C 2220.7992 566.0996 2217.2008 575.40039 2209.8008 575.40039 L 2122.3008 575.40039 L 2115.0996 575.40039 L 2094.0996 575.40039 C 2093.1996 649.60032 2069.0994 718.09969 1904.0996 798.09961 C 1902.4996 798.89961 1900.7 799.30078 1899 799.30078 C 1894.9 799.30078 1891.0008 797.20039 1888.8008 793.40039 C 1885.5008 787.8004 1887.7004 780.50039 1893.4004 777.40039 C 1960.8003 741.40043 1980.4996 666.79915 1977.5996 602.69922 C 1971.9996 469.49935 1864 354.8995 1866 245.59961 C 1867.2 180.39967 1893.1005 92.199143 2043.9004 16.199219 C 2046.9004 14.69922 2050.3008 12.999217 2054.3008 11.199219 C 2056.2008 10.29922 2057.9996 9.9003906 2059.5996 9.9003906 z " /><path
     id="path82"
     class="st19"
     d="M 312.19922 216.80078 C 241.49929 216.80078 176.60036 255.20006 142.40039 317 C 80.600452 343.69997 39.29998 371.69964 19.5 400.09961 C 1.95e-05 428.29958 3.500397 452.60041 9.9003906 467.90039 C 18.200382 488.10037 37.700811 498.30078 67.800781 498.30078 C 84.100765 498.30078 103.19925 495.59999 129.69922 489.5 C 131.19922 489.2 132.80039 488.80039 134.40039 488.40039 C 140.30038 501.90038 147.6004 514.6004 156.40039 526.40039 C 139.40041 527.70039 123.19998 528.40039 108 528.40039 C 99.900008 528.40039 91.900383 528.20078 84.400391 527.80078 L 82.800781 527.80078 C 67.300797 527.80078 54.699609 539.90002 54.099609 555.5 C 53.49961 571.19998 66.000407 584.70039 81.900391 585.40039 C 90.700382 585.80039 99.8004 586 108.90039 586 C 141.30036 586 176.69965 583.3996 214.09961 578.09961 C 243.79958 595.59959 277.70082 604.80078 312.30078 604.80078 C 348.70074 604.80078 384.09925 594.5992 414.69922 575.19922 C 444.09919 556.89924 468.09963 531.00036 484.09961 500.40039 C 531.19956 478.40041 567.19924 454.40037 588.19922 430.90039 C 608.2992 408.50041 616.60039 385.49959 612.90039 362.59961 C 610.40039 346.99962 601.90077 334.40077 588.30078 326.30078 C 576.60079 319.20079 561.3992 315.80078 541.69922 315.80078 C 525.99923 315.80078 507.39998 318 485 322.5 C 479.50001 311.60001 472.90038 301.29921 465.40039 291.69922 C 484.60037 289.69922 502.1008 288.69922 517.30078 288.69922 C 521.20078 288.69922 525.09922 288.80039 528.69922 288.90039 L 529.80078 288.90039 C 545.30077 288.90039 557.99961 276.7992 558.59961 261.19922 C 559.19961 245.29923 546.80037 231.90078 530.90039 231.30078 C 526.80039 231.20078 522.30078 231.09961 517.80078 231.09961 C 487.40081 231.09961 449.19918 234.69962 407.19922 241.59961 C 378.29925 225.39963 345.49919 216.80078 312.19922 216.80078 z M 542.69922 373.69922 C 546.89921 373.69922 550.6 373.90039 553.5 374.40039 C 554.5 374.50039 555.10078 375.19961 555.30078 375.59961 C 555.50078 375.89961 555.8 376.69922 555.5 377.69922 C 554 381.99921 550.5996 387.19922 545.59961 392.69922 C 536.49962 402.89921 523.20076 413.49923 505.80078 424.19922 C 506.10078 419.69922 506.30078 415.20078 506.30078 410.80078 C 506.30078 399.80079 505.3 388.70038 503.5 377.90039 C 519.19998 375.10039 532.29923 373.59922 542.69922 373.69922 z M 119.19922 392.19922 C 118.59922 398.39921 118.30039 404.6004 118.40039 410.90039 C 118.40039 418.20038 118.79961 425.49923 119.59961 432.69922 C 97.899631 438.09921 81.599989 440.80078 71 440.80078 C 69.600001 440.80078 68.199999 440.69961 67 440.59961 C 65.100002 440.39961 64.7 439.60078 64.5 439.30078 C 64 438.50078 64.100391 437.50039 64.400391 436.90039 L 64.400391 436.80078 C 65.00039 435.60078 65.800782 434.20078 66.800781 432.80078 C 75.300773 420.50079 93.299245 406.5992 119.19922 392.19922 z " /><path
     id="path83"
     class="st19"
     d="M 312.30078 211.90039 C 240.40085 211.90039 174.29996 250.59928 139 313.19922 C 77.200062 339.99919 35.69998 368.29925 15.5 397.19922 C 6.3000092 410.49921 1.0996084 424.4008 0.099609375 438.30078 C -0.60038992 449.10077 1.1007855 459.70079 5.3007812 469.80078 C 14.500772 492.00076 35.500814 503.19922 67.800781 503.19922 C 84.500765 503.19922 103.90081 500.40078 130.80078 494.30078 C 131.10078 494.20078 131.29961 494.19961 131.59961 494.09961 C 136.0996 503.7996 141.30079 513.10001 147.30078 522 C 133.60079 522.9 120.4996 523.30078 108.09961 523.30078 C 99.999617 523.30078 92.199211 523.09922 84.699219 522.69922 L 82.900391 522.69922 C 64.700409 522.69922 49.899218 536.99924 49.199219 555.19922 C 48.499219 573.6992 63.099237 589.40078 81.699219 590.30078 C 90.49921 590.70078 99.7004 590.90039 108.90039 590.90039 C 141.10036 590.90039 176.09965 588.29921 213.09961 583.19922 C 243.19958 600.4992 277.40082 609.69922 312.30078 609.69922 C 349.60074 609.69922 386.00003 599.29959 417.5 579.59961 C 447.19997 561.09963 471.40041 535.10036 487.90039 504.40039 C 534.90034 482.30041 570.89963 458.10037 592.09961 434.40039 C 613.19959 410.90041 621.9 386.49998 618 362 C 615.3 344.90002 605.99959 331.09921 591.09961 322.19922 C 578.59962 314.69923 562.50037 311 541.90039 311 C 526.80041 311 509.00037 313 487.90039 317 C 484.00039 309.70001 479.60078 302.70038 474.80078 295.90039 C 490.40077 294.50039 504.70001 293.80078 517.5 293.80078 C 521.4 293.80078 525.19922 293.9 528.69922 294 L 530 294 C 548.19998 294 563.10078 279.69998 563.80078 261.5 C 564.50078 242.90002 549.90076 227.10039 531.30078 226.40039 C 527.10079 226.20039 522.6 226.19922 518 226.19922 C 487.80003 226.19922 449.90074 229.80001 408.30078 236.5 C 379.00081 220.40002 345.90075 211.90039 312.30078 211.90039 z M 312.30078 221.80078 C 346.60075 221.80078 378.70042 230.9008 406.40039 246.80078 C 448.30035 239.90079 486.90042 236.09961 517.90039 236.09961 C 522.40039 236.09961 526.70079 236.20078 530.80078 236.30078 C 544.00077 236.80078 554.19922 247.89962 553.69922 261.09961 C 553.19922 273.9996 542.70038 284 529.90039 284 L 529 284 C 525.3 283.9 521.40039 283.80078 517.40039 283.80078 C 499.40041 283.80078 478.60037 285.20039 455.90039 287.90039 C 466.40038 300.10038 475.3004 313.7008 482.40039 328.30078 C 505.30037 323.60079 525.1008 321 541.80078 321 C 560.10076 321 574.8004 324.10079 585.90039 330.80078 C 598.20038 338.20077 605.89961 349.49923 608.09961 363.69922 C 611.59961 385.0992 603.6992 406.70041 584.69922 427.90039 C 563.59924 451.50037 527.59917 475.20002 480.69922 497 C 449.39925 558.09994 385.80032 599.90039 312.40039 599.90039 C 276.90043 599.90039 243.60075 590.09998 215.30078 573 C 177.90082 578.29999 141.89997 581.09961 109 581.09961 C 99.900009 581.09961 91.000773 580.9 82.300781 580.5 C 69.200794 579.9 58.800782 568.89921 59.300781 555.69922 C 59.800781 542.79923 70.299622 532.69922 83.099609 532.69922 L 84.400391 532.69922 C 92.100383 533.09922 100.10079 533.30078 108.30078 533.30078 C 126.60076 533.30078 146.0008 532.4 166.30078 530.5 C 154.50079 516.10001 144.7996 499.99998 137.59961 482.5 C 134.59961 483.2 131.70078 483.89961 128.80078 484.59961 C 108.1008 489.3996 86.799591 493.30078 68.099609 493.30078 C 43.499634 493.30078 23.300773 486.49998 14.800781 466 C 8.9007871 451.80001 5.7004088 429.20036 23.900391 402.90039 C 46.400368 370.50042 95.499269 342.70037 146.19922 320.90039 C 177.99919 261.90045 240.50085 221.80078 312.30078 221.80078 z M 542.69922 368.59961 C 532.99923 368.59961 518.80076 369.90039 497.80078 373.90039 C 500.20078 385.80038 501.40039 398.09923 501.40039 410.69922 C 501.30039 418.49921 500.80039 426.10001 499.90039 433.5 C 521.50037 421.00001 538.30079 408.29999 549.30078 396 C 552.80078 392.1 557.89922 385.80077 560.19922 379.30078 C 561.69922 374.90079 559.00039 370.20039 554.40039 369.40039 C 551.60039 368.90039 547.79921 368.59961 542.69922 368.59961 z M 542.59961 378.59961 C 545.19961 378.59961 547.5 378.70039 549.5 378.90039 C 548.2 381.50039 545.90078 385 541.80078 389.5 C 534.50079 397.69999 524.1996 406.2004 511.09961 414.90039 L 511.09961 410.90039 C 511.19961 401.2004 510.49961 391.49999 509.09961 382 C 522.3996 379.7 533.59962 378.59961 542.59961 378.59961 z M 125.30078 383.30078 C 94.600812 399.40077 72.799209 415.40001 62.699219 430 C 61.59922 431.6 60.70039 433.19961 59.900391 434.59961 C 57.900393 438.49961 59.500007 444.89961 66.5 445.59961 C 67.799999 445.59961 69.300392 445.69922 70.900391 445.69922 C 81.20038 445.69922 98.100027 443.20077 125 436.30078 C 123.9 428.00079 123.30078 419.40077 123.30078 410.80078 C 123.30078 401.50079 124.00078 392.30077 125.30078 383.30078 z M 113.59961 401.19922 C 113.39961 404.39922 113.40039 407.60078 113.40039 410.80078 C 113.40039 416.80078 113.69922 422.80079 114.19922 428.80078 C 90.499242 434.50078 77.699993 435.80078 71 435.80078 L 70.900391 435.80078 C 70.800391 435.70078 70.900391 435.59961 70.900391 435.59961 C 76.200385 427.99962 87.799635 416.3992 113.59961 401.19922 z " /><path
     id="polygon83"
     clip-path="url(#clipPath123)"
     d="M 112 445.5 L 140.40039 504.59961 L 234 595.59961 L 264.5 599.30078 L 112 445.5 z " /><path
     id="path85"
     clip-path="url(#SVGID_00000141435290037386717560000012555847572822195340_)"
     d="M 518.00586 236.07227 C 450.65204 236.125 348.48819 253.93167 252.30078 282.90039 C 183.90085 303.40037 63.200742 346.30045 23.800781 402.90039 C 5.6007994 429.20036 8.7992246 451.80001 14.699219 466 C 29.599204 502.09996 80.699267 495.6996 128.69922 484.59961 C 176.59917 473.49962 236.20006 453.69959 299.5 432.59961 C 360.59994 412.29963 423.70005 391.2996 474.5 379.09961 C 522.39995 367.69962 544.60001 367.9 554.5 369.5 C 559.1 370.3 561.80078 375.0004 560.30078 379.40039 C 558.00078 385.90038 552.90039 392.19961 549.40039 396.09961 C 519.70042 429.29958 446.8003 465.70003 354.40039 493.5 C 259.80049 521.79997 158.80071 536.60078 84.300781 532.80078 C 71.000795 532.10078 59.699218 542.39923 59.199219 555.69922 C 58.699219 568.89921 69.099232 579.9 82.199219 580.5 C 90.89921 580.9 99.8004 581.09961 108.90039 581.09961 C 185.10031 581.09961 277.80048 566.09997 367.90039 539 C 469.80029 508.40003 548.89925 467.80074 584.69922 427.80078 C 603.6992 406.6008 611.59961 384.99959 608.09961 363.59961 C 605.89961 349.39962 598.20038 338.09921 585.90039 330.69922 C 542.10043 304.19925 442.69906 334.29966 284.19922 387.09961 C 228.69927 405.59959 176.39996 422.59923 133 434.19922 C 96.900036 443.99921 76.999599 446.4 66.599609 445.5 C 59.599616 444.8 58.000002 438.4 60 434.5 C 60.799999 433.1 61.700782 431.50039 62.800781 429.90039 C 84.800759 398.20042 162.60088 359.30036 265.80078 328.40039 C 364.00068 299.00042 467.29967 281.6 529.09961 284 C 542.2996 284.5 553.40039 274.2996 553.90039 261.09961 C 554.40039 247.89962 544.19999 236.80078 531 236.30078 C 526.83125 236.14453 522.49611 236.06875 518.00586 236.07227 z " /><path
     id="path86"
     d="M 518.14453 236.05469 C 487.05472 236.03828 448.49996 239.88829 406.5 246.80078 C 425.09998 257.70077 441.9004 271.60041 455.90039 287.90039 C 483.70036 284.60039 508.59963 283.3 529.09961 284 C 542.2996 284.5 553.40039 274.2996 553.90039 261.09961 C 554.40039 247.89962 544.19999 236.80078 531 236.30078 C 526.875 236.13828 522.58593 236.05703 518.14453 236.05469 z " /><path
     id="path87"
     d="M 146 320.80078 C 95.300051 342.60076 46.199196 370.40081 23.699219 402.80078 C 5.499237 429.10075 8.6996153 451.6004 14.599609 465.90039 C 29.499594 502.00035 80.599657 495.59999 128.59961 484.5 C 131.49961 483.8 134.40039 483.10039 137.40039 482.40039 C 131.4004 467.80041 127.2 452.2992 125 436.19922 C 93.900031 444.29921 76.19999 446.4 66.5 445.5 C 59.500007 444.9 57.900393 438.4 59.900391 434.5 C 60.60039 433.1 61.49922 431.50039 62.699219 429.90039 C 72.799209 415.40041 94.600812 399.2992 125.30078 383.19922 C 128.60078 360.89924 135.70001 339.90076 146 320.80078 z " /><path
     id="path88"
     d="M 544.02539 320.90039 C 526.80041 320.65039 506.25076 323.24922 482.30078 328.19922 C 489.30077 342.4992 494.49961 357.80041 497.59961 373.90039 C 529.59958 367.7004 546.09923 368.00039 554.19922 369.40039 C 558.79921 370.20039 561.6 374.90079 560 379.30078 C 557.7 385.70077 552.59961 392.1 549.09961 396 C 538.09962 408.19999 521.2992 420.9004 499.69922 433.40039 C 496.99922 456.00037 490.30038 477.3008 480.40039 496.80078 C 527.30034 475.0008 563.30041 451.2992 584.40039 427.69922 C 603.60037 406.59924 611.5 384.99959 608 363.59961 C 605.7 349.49962 598.10077 338.09921 585.80078 330.69922 C 575.15079 324.24923 561.25037 321.15039 544.02539 320.90039 z " /><path
     id="path89"
     d="M 166.09961 530.5 C 136.69964 533.2 108.99919 533.89922 84.199219 532.69922 C 70.899232 531.99922 59.599609 542.29962 59.099609 555.59961 C 58.59961 568.7996 68.999622 579.80039 82.099609 580.40039 C 90.799601 580.80039 99.70079 581 108.80078 581 C 141.70075 581 177.59965 578.20039 215.09961 572.90039 C 196.39963 561.7004 179.7996 547.29998 166.09961 530.5 z " /><path
     id="path90"
     class="st6"
     d="M 312.30078 221.90039 C 240.50085 221.90039 177.99997 262.00006 146 321 C 183.99996 304.70002 222.89925 291.79999 252.19922 283 C 303.99917 267.30002 357.50044 255.00038 406.40039 246.90039 C 378.70042 231.00041 346.60075 221.90039 312.30078 221.90039 z " /><path
     id="path91"
     class="st6"
     d="M 455.80078 287.80078 C 399.40084 294.40077 331.39954 308.70041 265.59961 328.40039 C 209.89967 345.20037 161.50075 364.3008 125.30078 383.30078 C 124.00078 392.30077 123.30078 401.50079 123.30078 410.80078 C 123.30078 419.50077 123.9 428.00079 125 436.30078 C 127.5 435.60078 130.20039 434.99922 132.90039 434.19922 C 176.30035 422.59923 228.59966 405.59959 284.09961 387.09961 C 365.69953 359.89964 431.60083 338.79921 482.30078 328.19922 C 475.20079 313.59923 466.30077 300.00077 455.80078 287.80078 z " /><path
     id="path92"
     class="st6"
     d="M 480.5 496.90039 C 447.70003 512.10038 409.69918 526.40001 367.69922 539 C 316.59927 554.39998 264.59956 565.9004 215.09961 572.90039 C 243.49958 589.90037 276.69925 599.80078 312.19922 599.80078 C 385.59915 599.80078 449.20003 558.00033 480.5 496.90039 z " /><path
     id="path93"
     class="st6"
     d="M 497.69922 374 C 490.69923 375.4 482.90038 376.99961 474.40039 379.09961 C 423.60044 391.2996 360.50033 412.29963 299.40039 432.59961 C 239.90045 452.39959 183.70034 471.20001 137.40039 482.5 C 144.60038 499.99998 154.29962 516.10001 166.09961 530.5 C 225.19955 525.20001 291.10084 512.30037 354.30078 493.40039 C 412.60072 475.90041 463.10043 454.89998 499.90039 433.5 C 500.80039 426.10001 501.30078 418.50077 501.30078 410.80078 C 501.30078 398.20079 500.09922 385.89999 497.69922 374 z " /><path
     id="path95"
     clip-path="url(#clipPath159)"
     d="M 332.90039 146.09961 L 308.19922 151.5 L 626.5 460.80078 L 630.80078 441 C 630.80078 441 484.40037 316.60076 460.90039 293.80078 C 436.40042 270.2008 332.90039 146.09961 332.90039 146.09961 z " /><path
     id="path96"
     clip-path="url(#clipPath157)"
     d="M 312.90039 161.40039 L 288.90039 167.30078 L 605.5 476 L 610.59961 456.69922 C 610.59961 456.69922 465.59959 331.79998 442.09961 309 C 417.59963 285.40002 312.90039 161.40039 312.90039 161.40039 z " /><path
     id="path97"
     clip-path="url(#clipPath155)"
     d="M 292.90039 176.80078 L 269.5 183.09961 L 584.59961 491.19922 L 590.5 472.40039 C 590.5 472.40039 446.90037 347.10076 423.40039 324.30078 C 398.90042 300.7008 292.90039 176.80078 292.90039 176.80078 z " /><path
     id="path98"
     clip-path="url(#clipPath153)"
     d="M 273 192.19922 L 250.19922 198.90039 L 563.69922 506.5 L 570.40039 488.19922 C 570.40039 488.19922 428.1992 362.4992 404.69922 339.69922 C 380.19924 315.99924 273 192.19922 273 192.19922 z " /><path
     id="path99"
     clip-path="url(#clipPath151)"
     d="M 253 207.59961 L 230.80078 214.80078 L 542.69922 521.80078 L 550.19922 504 C 550.19922 504 409.49998 377.79998 386 355 C 361.50002 331.30002 253 207.59961 253 207.59961 z " /><path
     id="path100"
     clip-path="url(#clipPath149)"
     d="M 233 223 L 211.5 230.59961 L 521.80078 537 L 530 519.69922 C 530 519.69922 390.7992 393.10076 367.19922 370.30078 C 342.69924 346.6008 233 223 233 223 z " /><path
     id="path101"
     clip-path="url(#clipPath147)"
     d="M 213.09961 238.30078 L 192.09961 246.40039 L 500.90039 552.19922 L 509.90039 535.40039 C 509.90039 535.40039 371.99998 408.29998 348.5 385.5 C 324.10002 361.80002 213.09961 238.30078 213.09961 238.30078 z " /><path
     id="path102"
     clip-path="url(#clipPath145)"
     d="M 193.09961 253.69922 L 172.80078 262.19922 L 480 567.40039 L 489.80078 551.09961 C 489.80078 551.09961 353.30076 423.60076 329.80078 400.80078 C 305.30081 377.2008 193.09961 253.69922 193.09961 253.69922 z " /><path
     id="path103"
     clip-path="url(#clipPath143)"
     d="M 173.09961 269.09961 L 153.40039 278 L 459 582.69922 L 469.5 566.90039 C 469.5 566.90039 334.49998 438.89959 311 416.09961 C 286.60002 392.49963 173.09961 269.09961 173.09961 269.09961 z " /><path
     id="path104"
     clip-path="url(#clipPath141)"
     d="M 153.19922 284.5 L 134.09961 293.80078 L 438.09961 597.90039 L 449.5 582.59961 C 449.5 582.59961 315.90037 454.20037 292.40039 431.40039 C 267.90042 407.80041 153.19922 284.5 153.19922 284.5 z " /><path
     id="path105"
     clip-path="url(#clipPath139)"
     d="M 133.19922 299.90039 L 114.69922 309.69922 L 417.09961 613.19922 L 429.30078 598.40039 C 429.30078 598.40039 297.09959 469.4992 273.59961 446.69922 C 249.19963 423.09924 133.19922 299.90039 133.19922 299.90039 z " /><path
     id="path106"
     clip-path="url(#clipPath137)"
     d="M 113.19922 315.19922 L 95.400391 325.5 L 396.19922 628.40039 L 409.19922 614.09961 C 409.19922 614.09961 278.40037 484.79998 254.90039 462 C 230.40042 438.30002 113.19922 315.19922 113.19922 315.19922 z " /><path
     id="path107"
     clip-path="url(#clipPath135)"
     d="M 93.300781 330.59961 L 76 341.30078 L 375.19922 643.59961 L 389 629.80078 C 389 629.80078 259.6992 500.10076 236.19922 477.30078 C 211.79924 453.6008 93.300781 330.59961 93.300781 330.59961 z " /><path
     id="path108"
     clip-path="url(#clipPath133)"
     d="M 73.300781 346 L 56.699219 357.09961 L 354.30078 658.90039 L 368.90039 645.59961 C 368.90039 645.59961 240.99998 515.39959 217.5 492.59961 C 193.00002 468.89963 73.300781 346 73.300781 346 z " /><path
     id="path109"
     clip-path="url(#clipPath131)"
     d="M 53.300781 361.40039 L 37.300781 372.90039 L 333.30078 674.19922 L 348.69922 661.40039 C 348.69922 661.40039 222.1992 530.70037 198.69922 507.90039 C 174.29924 484.20041 53.300781 361.40039 53.300781 361.40039 z " /><path
     id="rect110"
     clip-path="url(#clipPath127)"
     style="stroke-width:0.999951"
     d="M -216.04581 495.36575 L -230.84576 495.36521 L -230.8439 558.96171 L -216.04542 558.96095 L -216.04581 495.36575 z "
     transform="rotate(-41.562164)" /><path
     id="rect111"
     clip-path="url(#clipPath129)"
     style="stroke-width:0.99999"
     d="M 129.81624 496.03403 L 116.21549 496.03403 L 116.21549 539.73378 L 129.81624 539.73378 L 129.81624 496.03403 z "
     transform="rotate(-45)" /><path
     id="path118"
     style="fill:url(#SVGID_00000018931653735534464930000009782885112638749628_)"
     d="M 2059.0469 9.9921875 C 2057.532 10.057031 2055.9383 10.43672 2054.3008 11.199219 C 2050.3008 12.999217 2046.9004 14.69922 2043.9004 16.199219 C 1893.2005 92.099143 1867.3 180.39967 1866 245.59961 C 1864 354.8995 1971.9992 469.50091 1977.6992 602.80078 C 1980.5992 666.90072 1960.8999 741.50004 1893.5 777.5 C 1887.8 780.6 1885.6004 787.90001 1888.9004 793.5 C 1892.0004 798.79999 1898.6992 800.89922 1904.1992 798.19922 C 2072.7991 716.4993 2094.3008 646.79914 2094.3008 570.69922 C 2094.3008 472.69932 1982.4004 340.89908 1982.4004 205.69922 C 1982.4004 98.099326 2016.2008 66.199192 2054.8008 39.199219 C 2057.9008 36.999221 2061.7004 34.499606 2065.9004 31.599609 C 2076.3129 24.512116 2069.6508 9.5382817 2059.0469 9.9921875 z " /><path
     id="path119"
     d="M 1749.3379 212.65039 C 1743.4004 212.47539 1737.3496 215.40001 1734.0996 221.5 L 1635.1992 409.19922 C 1630.0992 418.89921 1619.9 425.09961 1609 425.09961 L 1490.4004 425.09961 L 1486.4004 425.09961 C 1482.4004 425.09961 1478.4008 428.29922 1477.8008 432.19922 C 1477.0008 437.29921 1480.6996 441.6 1485.5996 442 C 1518.5996 445 1538.3 467.00004 1538 502.5 C 1537.8 535.29997 1510.4996 562.09961 1477.5996 562.09961 L 1469 562.09961 C 1381.2001 562.09961 1377.4004 461.1992 1377.4004 439.19922 L 1377.4004 362 C 1377.4004 324.10004 1392.6993 257.59961 1466.6992 257.59961 C 1535.7991 257.59961 1574.7008 289.39965 1606.3008 331.59961 C 1611.5008 338.5996 1622.5008 332.79999 1619.8008 324.5 L 1592.0996 237.59961 C 1589.3996 229.19962 1579.6 225.49961 1572 230.09961 C 1551.6 242.5996 1539.6992 240.5 1539.6992 240.5 C 1529.6992 240.8 1497.7004 231.69922 1458.9004 231.69922 C 1397.0005 231.69922 1346.9992 256.30081 1312.6992 289.30078 C 1309.2992 292.60078 1303.7 291.4 1302 287 L 1286.6992 249.69922 C 1283.4992 241.99923 1279.3996 237 1271.0996 237 L 1094.8008 237 L 1094.8008 236.90039 L 1003 236.90039 C 997.20001 236.90039 991.3996 236.70039 985.59961 236.40039 C 954.19964 234.70039 843.69916 228.90039 787.19922 228.90039 C 716.39929 228.90039 660.90078 251.10083 655.30078 303.30078 C 651.10079 342.60074 678.30002 363.1004 694 377.40039 C 702.49999 385.20038 742.19924 410.40079 762.69922 419.80078 C 783.9992 429.60077 868.8996 472.20003 860.09961 506 C 851.29962 539.49997 822.59997 547.69922 789.5 547.69922 C 737.50005 547.69922 681.60074 504.59996 640.30078 466 C 633.10079 459.20001 622 467.6004 626.5 476.40039 C 643.59998 509.90036 665.5008 550.50002 679.80078 572 C 683.90078 577.99999 691.3004 580.99922 698.40039 579.19922 C 713.90038 575.29922 733.80001 573.30039 746 573.90039 C 761.69998 574.60039 794.29962 578.90039 808.59961 578.90039 C 927.69949 578.90039 965.1 547.59916 969 493.19922 C 974.29999 418.49929 885.20073 368.70037 830.80078 346.90039 C 782.30083 327.40041 763.4 297.8992 765.5 283.19922 C 768.9 257.79924 793.0008 253.50078 813.30078 254.30078 C 875.90072 256.70078 994.19922 287.29926 994.19922 330.19922 L 994.19922 529.69922 C 994.19922 540.89921 981.9992 560.90039 966.69922 560.90039 L 966.40039 560.90039 C 963.60039 560.90039 960.90078 561.90039 958.80078 563.90039 C 953.50079 569.20039 957.20079 575.59961 962.30078 575.59961 L 1028.8008 575.59961 L 1094.6992 575.59961 L 1282.8008 575.59961 C 1288.8008 575.59961 1294.2 572.00039 1296.5 566.40039 L 1306.6992 541.40039 C 1308.5992 536.6004 1314.7992 535.19961 1318.6992 538.59961 C 1352.2992 568.89958 1401.4001 587.90039 1468.5 587.90039 C 1484.2 587.90039 1516.6008 583.5996 1531.8008 578.09961 C 1536.6008 576.39961 1541.7008 575.40039 1546.8008 575.40039 L 1672.5996 575.40039 L 1692.9004 575.40039 C 1700.4004 575.40039 1704.0008 566.0996 1698.3008 561.09961 C 1695.8008 558.99961 1693.5996 556.9 1692.0996 555.5 C 1680.0996 544.70001 1680.6008 537.29999 1680.3008 531 C 1680.0008 524.90001 1681.2992 518.69921 1684.1992 513.19922 L 1773.4004 343.90039 L 1849.5996 512.90039 C 1852.1996 518.50039 1853.4004 524.8004 1852.9004 530.90039 C 1852.8004 531.70039 1852.7992 532.40039 1852.6992 532.90039 C 1851.2992 540.90038 1844.0992 557 1830.6992 557 L 1828.5996 557 C 1825.2996 557 1821.9996 558.10078 1819.5996 560.30078 C 1812.0996 567.00077 1816.7008 575.30078 1823.3008 575.30078 L 1936 575.30078 C 1941.2 575.30078 1945.3008 570.60078 1944.3008 565.30078 C 1943.6008 562.80078 1941.4996 560.40039 1938.5996 559.40039 C 1929.0996 555.80039 1909.6 545.59958 1897.5 518.59961 L 1763.9004 222.40039 C 1761.1004 216.1004 1755.2754 212.82539 1749.3379 212.65039 z M 1120.8008 261.5 L 1154.1992 261.5 C 1208.8992 261.5 1258.6992 292.80002 1282.6992 313.5 C 1285.5992 316.1 1286.2996 320.69961 1284.0996 324.09961 C 1268.6996 348.29959 1260.5 373.80041 1260.5 396.40039 C 1260.5 426.40036 1265.9992 455.70003 1277.6992 482 C 1280.2992 487.69999 1279.0992 494.5 1274.6992 499 C 1253.0992 520.89998 1205.8999 551.40039 1138.5 551.40039 L 1122 551.40039 C 1107 551.40039 1094.8008 539.1992 1094.8008 524.19922 L 1094.8008 432.40039 L 1094.8008 427.5 C 1094.8008 422.40001 1102.4996 416.00078 1111.0996 417.80078 C 1124.2996 420.40078 1147.4996 428.6004 1166.0996 439.40039 C 1179.0996 447.00038 1190.9004 454.90001 1204.4004 466 C 1210.3004 470.9 1219.3008 466.60038 1219.3008 458.90039 L 1219.3008 430 L 1219.3008 373 L 1219.3008 344 C 1219.3008 336.30001 1210.3004 332.0004 1204.4004 336.90039 C 1190.9004 348.10038 1179.0996 355.90001 1166.0996 363.5 C 1147.5996 374.09999 1123.6 385.4 1110.5 388.5 C 1100.4 390.9 1096.8008 386.89961 1094.8008 383.09961 L 1094.8008 377.59961 L 1094.8008 287.5 C 1094.8008 273.20001 1106.5008 261.5 1120.8008 261.5 z " /><path
     id="path120"
     d="M 2266.5996 212.25 C 2260.6746 212.075 2254.6504 214.99962 2251.4004 221.09961 L 2112.4004 484.90039 L 2072.3008 561 L 2075.0996 575.5 L 2115.4004 575.5 L 2122.5996 575.5 L 2210.0996 575.5 C 2217.5996 575.5 2221.2 566.19921 2215.5 561.19922 C 2215.5 561.19922 2215.4004 561.19961 2215.4004 561.09961 C 2212.9004 558.99961 2210.8008 556.99961 2209.3008 555.59961 C 2197.4008 544.99962 2197.8 537.60077 2197.5 531.30078 C 2197.2 525.10079 2198.5004 518.80078 2201.4004 513.30078 L 2290.6992 344 L 2366.9004 513 C 2369.5004 518.59999 2370.6992 524.90001 2370.1992 531 C 2370.0992 531.8 2370.1 532.5 2370 533 C 2368.6 540.99999 2361.4 557.09961 2348 557.09961 L 2347.8008 557.09961 C 2345.1008 557.09961 2342.5008 557.89961 2340.3008 559.59961 C 2331.5008 566.3996 2336.2 575.5 2343 575.5 L 2455.3008 575.5 L 2461.9004 575.5 L 2550.5996 575.5 L 2576.8008 575.5 L 2630.4004 575.5 C 2635.0004 575.5 2638.9992 572.00039 2639.1992 567.40039 C 2639.3992 563.70039 2637.2008 560.2 2633.8008 559 C 2622.5008 554.7 2597.6992 541.90036 2597.6992 513.90039 L 2597.6992 268.09961 C 2597.6992 261.09962 2603.3008 255.79961 2610.3008 256.09961 C 2658.0007 257.89961 2694.0004 270.00079 2719.4004 283.30078 C 2723.5004 285.40078 2726.0996 289.60079 2726.0996 294.30078 L 2726.0996 452.5 L 2726.5 452.5 C 2730.6 525.19993 2765.1001 581.09961 2891.5 581.09961 C 2964.7999 581.09961 3033.5 542.69993 3033.5 472 L 3033.5 290.59961 C 3033.5 279.89962 3036.8992 272.2996 3041.1992 267.09961 C 3047.3992 259.39962 3057.1 255.30078 3067 255.30078 L 3081.9004 255.30078 C 3091.8004 255.30078 3101.4992 259.39962 3107.6992 267.09961 C 3111.9992 272.3996 3115.4004 279.99962 3115.4004 290.59961 L 3115.4004 510.19922 C 3115.4004 542.89919 3089.5004 555.09961 3077.4004 559.09961 C 3074.5004 559.99961 3072.1996 562.40039 3071.5996 565.40039 C 3070.5996 570.70039 3074.6008 575.40039 3079.8008 575.40039 L 3133.8008 575.40039 L 3194.8008 575.40039 L 3251.3008 575.40039 C 3254.8008 575.40039 3258.1008 573.39961 3259.3008 570.09961 C 3261.0008 565.39961 3258.4992 560.59961 3254.1992 559.09961 C 3242.2992 555.19961 3215.9004 542.89958 3215.9004 510.09961 L 3215.9004 302.09961 L 3215.9004 277.30078 C 3215.9004 258.7008 3231.9008 251.90039 3242.8008 251.90039 L 3274.1992 251.90039 C 3303.4992 251.90039 3332.5 276.59926 3332.5 317.69922 C 3332.5 378.09916 3293.1996 392.69922 3277.0996 392.69922 C 3266.3996 392.69922 3257.9996 392.89961 3249.0996 389.59961 C 3249.0996 389.59961 3249 389.6 3249 389.5 C 3243.4 386.8 3237.2992 392.10001 3239.1992 398 C 3239.2992 398.3 3239.3004 398.5 3239.4004 398.5 C 3248.8004 430.39997 3265.8004 479.30042 3288.9004 510.40039 C 3324.8004 558.80034 3393.0009 597.40039 3507.3008 597.40039 L 3556.4004 597.40039 C 3559.5004 597.40039 3562.3008 595.59922 3563.3008 592.69922 C 3564.6008 588.69922 3562.3992 584.69961 3558.6992 583.59961 C 3548.8992 580.59961 3528 571.69998 3528 549.5 L 3528 388.90039 C 3528 383.5004 3534.3 380.5 3538.5 384 L 3776 581.09961 C 3782.9 586.6996 3793.0996 581.89999 3793.0996 573 L 3793.0996 285.19922 C 3793.0996 261.49924 3815.6996 251.5 3825.0996 248.5 C 3827.9996 247.5 3829.7992 244.20039 3828.6992 240.90039 C 3827.8992 238.50039 3825.5 237 3823 237 L 3796.8008 237 L 3747.5996 237 L 3721.4004 237 C 3718.8004 237 3716.4992 238.50039 3715.6992 240.90039 C 3714.5992 244.20039 3716.4004 247.5 3719.4004 248.5 C 3728.8004 251.6 3751.4004 261.49924 3751.4004 285.19922 L 3751.4004 427.59961 C 3751.4004 432.9996 3745.1004 436 3740.9004 432.5 L 3591.3008 308.30078 C 3544.6008 269.50082 3478.5007 243.6996 3434.8008 229.59961 C 3425.2008 226.49961 3418.4996 239.2004 3426.5996 245.40039 C 3427.9996 246.50039 3429.5 247.49922 3431 248.69922 C 3480.8 286.19918 3486.1992 339.90001 3486.1992 346 L 3486.1992 537.19922 L 3486.1992 546.40039 C 3486.1992 553.60038 3480.3992 559.40039 3473.1992 559.40039 C 3456.4992 559.40039 3419.1996 532.30076 3400.0996 512.30078 C 3382.1996 493.6008 3373.6 467.79959 3353.5 444.09961 C 3337.5 425.39963 3323.9004 418.40039 3323.9004 418.40039 C 3424.5003 418.40039 3427.5 336.79921 3427.5 327.69922 C 3427.5 314.09923 3427.4995 236.59961 3301.5996 236.59961 L 3011 236.59961 L 2961.5996 236.59961 C 2958.9996 236.59961 2956.7004 238.1 2955.9004 240.5 C 2954.8004 243.8 2956.5996 247.19961 2959.5996 248.09961 C 2968.9996 251.19961 2991.5996 261.1008 2991.5996 284.80078 L 2991.5996 464 C 2991.5996 525.89994 2948.2996 546.59961 2913.5996 546.59961 C 2850.2997 546.59961 2826.0996 509.29995 2826.0996 462.5 L 2826.0996 435.40039 L 2826.0996 284.90039 C 2826.0996 261.20041 2848.6996 251.19922 2858.0996 248.19922 C 2860.5996 247.39922 2862.1992 245.19922 2862.1992 242.69922 L 2862.1992 242.59961 C 2862.1992 239.39961 2859.6004 236.80078 2856.4004 236.80078 L 2742.9004 236.80078 L 2725.5 236.80078 L 2496.8008 236.80078 L 2380.3008 236.80078 C 2373.2008 236.80078 2366.6996 240.89923 2363.5996 247.19922 L 2344.9004 286 C 2341.7004 292.69999 2349.3004 299.19961 2355.4004 295.09961 C 2380.5004 278.09963 2422.6005 258.59922 2484.4004 256.19922 C 2491.2004 255.99922 2496.8008 261.39923 2496.8008 268.19922 L 2496.8008 513.90039 C 2496.8008 525.60038 2492.4992 534.6004 2486.6992 541.40039 C 2482.1992 546.70039 2475.4004 549.80078 2468.4004 549.80078 L 2453.3008 549.80078 C 2448.4008 549.80078 2443.5008 548.49922 2439.3008 545.69922 C 2429.7008 539.49922 2420.6 530.70038 2415 518.40039 L 2281.1992 222 C 2278.3492 215.70001 2272.5246 212.425 2266.5996 212.25 z " /></g></svg>
