<?xml version="1.0" encoding="UTF-8" standalone="no"?>
<!-- Generator: Adobe Illustrator 26.0.1, SVG Export Plug-In . SVG Version: 6.00 Build 0)  -->

<svg
   version="1.1"
   id="Layer_1"
   x="0px"
   y="0px"
   viewBox="0 0 3839 1048.4"
   style="enable-background:new 0 0 3839 1048.4;"
   xml:space="preserve"
   sodipodi:docname="Sega 32X-04.svg"
   inkscape:version="1.3.2 (091e20e, 2023-11-25)"
   xmlns:inkscape="http://www.inkscape.org/namespaces/inkscape"
   xmlns:sodipodi="http://sodipodi.sourceforge.net/DTD/sodipodi-0.dtd"
   xmlns="http://www.w3.org/2000/svg"
   xmlns:svg="http://www.w3.org/2000/svg"><defs
   id="defs10">
	

		
		
		
		
		
		
	
			
		
			
		
			
		
			
		
			
		
			
		
				
			
				
			</defs><sodipodi:namedview
   id="namedview10"
   pagecolor="#ffffff"
   bordercolor="#666666"
   borderopacity="1.0"
   inkscape:showpageshadow="2"
   inkscape:pageopacity="0.0"
   inkscape:pagecheckerboard="0"
   inkscape:deskcolor="#d1d1d1"
   inkscape:zoom="0.16097942"
   inkscape:cx="1916.394"
   inkscape:cy="524.91181"
   inkscape:window-width="2048"
   inkscape:window-height="1154"
   inkscape:window-x="0"
   inkscape:window-y="25"
   inkscape:window-maximized="0"
   inkscape:current-layer="Layer_1" />
<style
   type="text/css"
   id="style1">
	.st0{fill:#E00000;}
	.st1{fill:#FFFFFF;}
	.st2{fill:#002F82;}
</style>
<g
   id="g15"><path
     d="m 3384.9004,42.800781 v 18.898438 c 15.7,0 29.5996,6.700423 29.5996,17.40039 0,3.751982 -2.4322,8.137587 -6.2324,13.154297 l 8.9316,-8.853515 c 13.8999,-14.799912 24.4004,-25.499658 24.4004,-33.59961 0,-2.588973 -0.8837,-4.917592 -2.3398,-7 z m 360.4453,0 c -22.9535,9.901386 -39.4179,26.08478 -59.7461,45.798828 l -379.9004,376.701171 1.2051,1.23242 L 3658.5,117.90039 c 33.0999,-32.099902 55.8009,-55.000784 113.3008,-56.300781 V 42.800781 Z m -1240.6465,0.09961 v 18.798828 c 43.4999,0 59.2012,20.100813 69.7012,30.800781 L 2984.3438,512.11133 3012.8008,484 2601.5,63 c -5.4734,-5.577637 -12.6304,-13.591789 -24.1309,-20.099609 z m 404.1406,0 c -1.5295,2.321718 -2.4394,5.001678 -2.4394,8.199218 0,2.391669 2.3692,6.260058 5.791,10.861328 1.3418,-0.04263 2.3994,-0.261718 3.8086,-0.261718 V 42.900391 Z M 3147,622.19922 2838.5,927.90039 c -5.8296,6.29862 -10.6863,10.30531 -13.3945,15.81641 L 3119.9004,651.5 l 254.5,258.80078 c 24.6909,24.98924 47.3719,46.26809 57.334,60.4668 25.5709,-0.078 32.4648,-4.09834 32.4648,-17.36719 0,-11.99993 -29.5994,-38.90059 -62.6992,-72.40039 z m -646.4219,367.30469 c -8.1155,4.64583 -17.465,7.75799 -28.9785,9.44336 V 1019 h 360.5996 v -18.8008 c -17.3218,0 -29.4638,-3.95947 -34.2226,-10.61522 z m 935.4766,0.0957 c -2.6202,7.85445 -11.1292,10.49999 -32.0547,10.49999 v 18.8008 h 407.9004 v -18.8008 c -19.2336,-0.53085 -32.5366,-4.13972 -44.0332,-10.49999 z"
     style=""
     id="path15" /><path
     d="m 675.80078,158.30078 c -213.77398,0 -366.68271,81.84406 -392.95117,129.91016 57.99104,-46.12619 191.74304,-100.41016 365.75,-100.41016 182.89945,0 266.59961,61.59901 266.59961,123.29883 0,11.88041 -2.94961,23.84467 -9.37695,35.39648 26.18887,-19.57467 36.57812,-42.37278 36.57812,-64.89648 0,-61.69963 -83.7007,-123.29883 -266.59961,-123.29883 z m -598.999999,13.29883 -24.40039,10.70117 184.900389,186.5 20.89844,-13.40039 c -3.49999,-6.79998 -7,-14.8012 -7,-24.20117 0,-1.50203 0.22703,-3.07914 0.59961,-4.70313 l -146.06445,-147.25 c -0.88031,0.0829 -1.88649,0.45313 -2.73438,0.45313 -10.499969,0 -19.19924,-4.09962 -26.199219,-8.09961 z M 454.69922,395.5 v 220 h 24.40039 C 484.39959,591.40007 512.30039,576.59961 643,576.59961 c 252.79924,0 343.40039,80.29983 343.40039,154.09961 0,16.2783 -4.57948,31.58096 -13.37305,45.72851 C 999.5318,755.04359 1013.5,729.57724 1013.5,701.09961 1013.5,627.30005 922.8981,547 670.09961,547 539.40039,547 511.49918,561.80053 506.19922,585.90039 H 481.80078 V 400.66602 c -0.86887,-1.6865 -1.83259,-3.32473 -2.40039,-5.16602 H 455 Z m 676.48048,6.40234 c -29.336,26.51446 -68.5259,46.82539 -117.3789,57.99805 V 462.5 c 9.7404,2.67463 18.7102,5.94387 28.0332,8.94336 38.6856,-16.8348 68.8082,-40.62069 89.3457,-69.54102 z M 139.40039,685.09961 0,915.69922 l 28,7.90039 c 10.499969,-6.59998 21.000432,-12 34.900391,-12 59.299819,0 158.700969,120.70119 613.599609,120.70119 248.65297,0 433.071,-66.74211 513.3203,-170.84572 C 1099.298,948.39666 927.74869,1002.8008 703.59961,1002.8008 248.70233,1002.8008 149.29964,882.09961 90,882.09961 c -13.899917,0 -24.400453,5.40004 -34.900391,12 L 27.199219,886 146.64062,688.41602 Z"
     style=""
     id="path14" /><path
     d="m 1901.5,158.19922 c -164.1707,0 -308.3109,86.33276 -355.1211,150 63.0263,-57.93124 188.259,-120.59961 328.1211,-120.59961 118.4997,0 249.1992,45.60144 249.1992,132.70117 0,18.76659 -5.8774,35.8428 -16.5156,51.68359 27.3374,-23.74127 43.5156,-50.09339 43.5156,-81.08398 0,-87.09956 -130.6998,-132.70117 -249.1992,-132.70117 z m -588.3008,54.90039 -24.3984,14.80078 205.7988,190.29883 22.5996,-16.09961 c -6.9,-6.69998 -13.8984,-14.79886 -13.8984,-26.79883 0,-1.02464 0.1731,-2.11794 0.2754,-3.18359 L 1338.4824,219.30273 c -1.5225,0.29856 -2.9962,0.49805 -4.3828,0.49805 -10.4,0 -17.4004,-2.70118 -20.9004,-6.70117 z m 1006.8164,247.48437 c -181.1274,173.24259 -625.0009,187.52312 -765.2148,365.2168 h 0.8398 c 173.1522,-158.87764 614.0862,-174.65986 764.375,-365.2168 z m -960.5215,299.15039 c -67.3889,66.71424 -110.7949,150.26919 -110.7949,259.16603 h 1119 c 38.3999,0 52.3008,10.7 52.3008,29.5 h 24.4004 v -41.1641 C 2438.9635,995.86256 2424.0942,989.5 2394.6992,989.5 h -1119 c 0,-93.49712 32.1068,-168.24069 83.7949,-229.76563 z M 2420,823.19922 c 0,0.1139 -0.028,0.20701 -0.029,0.32031 0.3499,-0.0745 0.519,-0.24207 0.8613,-0.32031 z"
     style=""
     id="path13" /><path
     d="M 2531.8008,13.5 V 32.199219 C 2575.3006,32.199219 2591,52.300032 2601.5,63 l 411.3008,421 -435.7012,430.40039 c -33.0999,33.5999 -45.3005,53.69883 -88.9004,56.29883 V 989.5 l 371.1016,0.0996 v -18.79883 c -22.6,0 -36.5,-6.70042 -36.5,-17.40039 0,-12.09997 6.9992,-16.10003 15.6992,-25.5 L 3147,622.19922 3401.5,881 c 33.0999,33.4999 62.6992,60.40042 62.6992,72.40039 0,13.39996 -6.8996,17.40039 -33.0996,17.40039 v 18.79883 H 3839 v -18.79883 c -47.0999,-1.3 -59.1997,-20.10089 -94.0996,-56.30078 L 3305.6992,465.30078 3685.5996,88.599609 c 33.0999,-32.099903 55.8009,-54.998831 113.3008,-56.298828 V 13.5 H 3412 v 18.900391 c 15.7,0 29.5996,6.700423 29.5996,17.40039 0,8.099976 -10.5004,18.799653 -24.4004,33.59961 l -247.5,245.298829 -237.0996,-244.000001 c -17.5,-17.499948 -26.1992,-28.199625 -26.1992,-33.59961 0,-13.399959 14.0993,-18.798828 36.6992,-18.798828 V 13.5 Z"
     style="fill:#e00000"
     id="path12" /><path
     d="M 691.30078,0 C 286.902,0 180.59946,150.19922 130.09961,150.19922 c -10.49997,0 -19.19924,-4.09962 -26.19922,-8.09961 L 79.5,152.80078 l 185,186.5 20.90039,-13.40039 c -3.49999,-6.79998 -7,-14.8012 -7,-24.20117 0,-44.09987 162.1011,-143.39844 397.40039,-143.39844 182.89946,0 266.59961,61.59901 266.59961,123.29883 0,57.69982 -64.5015,118 -303.30078,118 -97.59971,0 -125.50002,-10.89968 -132.5,-33.59961 h -24.40039 -0.39844 v 219.90039 h 24.39844 C 511.4992,561.80046 539.4,547 670.09961,547 922.89885,547 1013.5,627.29983 1013.5,701.09961 1013.5,785.59935 893.30012,844.50039 673.80078,844.40039 384.40165,844.40039 191,735.79985 191,683.5 c 0,-6.69998 1.80078,-12.09962 1.80078,-16.09961 l -26.20117,-12 L 27.199219,886 l 27.90039,8.09961 c 10.499969,-6.59998 21.000433,-12 34.900391,-12 59.29982,0 158.70097,120.70119 613.59961,120.70119 338.09899,0 557.70119,-123.30132 557.70119,-296.3008 0,-127.39962 -101.1005,-203.80012 -247.5,-244 v -2.59961 c 111.4997,-25.49992 176,-96.50144 176,-187.70117 C 1189.8008,117.99968 975.39993,0 691.30078,0 Z"
     style="fill:#e00000"
     id="path11" /><path
     d="m 1912,0 c -371.1992,0 -501.9008,190.30078 -550.8008,190.30078 -10.4,0 -17.3984,-2.70117 -20.8984,-6.70117 l -24.4004,14.80078 205.6992,190.40039 22.5996,-16.10156 c -6.9,-6.69998 -13.8984,-14.79885 -13.8984,-26.79883 0,-58.99988 170.7996,-187.70117 371.1992,-187.70117 118.4998,0 249.1992,45.60135 249.1992,132.70117 0,230.69954 -875,209.30059 -875,698.59961 h 1119 c 38.4,0 52.3008,10.7 52.3008,29.5 h 24.5996 V 793.69922 h -24.4004 c 0,21.39996 -13.9988,32.10156 -52.2988,32.10156 h -840.0996 c 177.6996,-225.19954 843.5,-187.7015 843.5,-544.30078 C 2398.3008,95.200372 2128.0996,0 1912,0 Z"
     style="fill:#e00000"
     id="path10" /></g>
</svg>
