<?xml version="1.0" encoding="UTF-8" standalone="no"?>
<!-- Generator: Adobe Illustrator 26.0.3, SVG Export Plug-In . SVG Version: 6.00 Build 0)  -->

<svg
   version="1.1"
   id="Layer_1"
   x="0px"
   y="0px"
   viewBox="0 0 3839 422"
   style="enable-background:new 0 0 3839 422;"
   xml:space="preserve"
   sodipodi:docname="Sega 32X (unofficial shadow depth, matches Sega Gen &amp; CD shadows).-15.svg"
   inkscape:version="1.3.2 (091e20e, 2023-11-25)"
   xmlns:inkscape="http://www.inkscape.org/namespaces/inkscape"
   xmlns:sodipodi="http://sodipodi.sourceforge.net/DTD/sodipodi-0.dtd"
   xmlns="http://www.w3.org/2000/svg"
   xmlns:svg="http://www.w3.org/2000/svg"><defs
   id="defs15">
	
	

		
		
		
		
		
		
		
	
		
		
		
		
		
		
		
	</defs><sodipodi:namedview
   id="namedview15"
   pagecolor="#ffffff"
   bordercolor="#000000"
   borderopacity="0.25"
   inkscape:showpageshadow="2"
   inkscape:pageopacity="0.0"
   inkscape:pagecheckerboard="0"
   inkscape:deskcolor="#d1d1d1"
   inkscape:zoom="0.2151602"
   inkscape:cx="1921.8238"
   inkscape:cy="209.14649"
   inkscape:window-width="1800"
   inkscape:window-height="1037"
   inkscape:window-x="0"
   inkscape:window-y="44"
   inkscape:window-maximized="0"
   inkscape:current-layer="Layer_1" />
<style
   type="text/css"
   id="style1">
	.st0{clip-path:url(#SVGID_00000118360278734782439670000002800259609772738469_);fill:#F02622;}
	.st1{clip-path:url(#SVGID_00000118360278734782439670000002800259609772738469_);fill:#DA221F;}
	.st2{fill:#FFFFFF;}
	.st3{fill:#034693;}
	.st4{clip-path:url(#SVGID_00000016790697869404505230000005800489839026122880_);fill:#FF0025;}
	.st5{clip-path:url(#SVGID_00000016790697869404505230000005800489839026122880_);fill:#E8001C;}
	.st6{clip-path:url(#SVGID_00000016790697869404505230000005800489839026122880_);fill:#DA221F;}
	.st7{clip-path:url(#SVGID_00000016790697869404505230000005800489839026122880_);fill:#F02622;}
	.st8{clip-path:url(#SVGID_00000016759162403398609700000017273340667466881963_);fill:#F02622;}
	.st9{clip-path:url(#SVGID_00000016759162403398609700000017273340667466881963_);fill:#DA221F;}
	.st10{fill:#B2B2B2;}
	.st11{clip-path:url(#SVGID_00000000200924781641453230000017188148791681739939_);fill:#FF0025;}
	.st12{clip-path:url(#SVGID_00000000200924781641453230000017188148791681739939_);fill:#E8001C;}
	.st13{clip-path:url(#SVGID_00000000200924781641453230000017188148791681739939_);fill:#DA221F;}
	.st14{clip-path:url(#SVGID_00000000200924781641453230000017188148791681739939_);fill:#F02622;}
	.st15{clip-path:url(#SVGID_00000098218583416345804850000006277580184381556627_);fill:#FAD512;}
	.st16{clip-path:url(#SVGID_00000098218583416345804850000006277580184381556627_);fill:#FEBB09;}
	.st17{fill:#DA221F;}
	.st18{clip-path:url(#SVGID_00000142866224549356992500000006378140106682753979_);fill:#FAD512;}
	.st19{clip-path:url(#SVGID_00000142866224549356992500000006378140106682753979_);fill:#E8001C;}
	.st20{clip-path:url(#SVGID_00000142866224549356992500000006378140106682753979_);fill:#FEBB09;}
	.st21{clip-path:url(#SVGID_00000067238519663283170380000017325513220148064640_);fill:#FAD512;}
	.st22{clip-path:url(#SVGID_00000067238519663283170380000017325513220148064640_);fill:#FEBB09;}
	.st23{clip-path:url(#SVGID_00000123414307814325681800000014307834532770396804_);fill:#FF0025;}
	.st24{clip-path:url(#SVGID_00000123414307814325681800000014307834532770396804_);fill:#E8001C;}
	.st25{clip-path:url(#SVGID_00000123414307814325681800000014307834532770396804_);fill:#008ED6;}
	.st26{clip-path:url(#SVGID_00000123414307814325681800000014307834532770396804_);fill:#00A1F2;}
	.st27{clip-path:url(#SVGID_00000010292323361991782200000016318043636595315359_);fill:#FF0025;}
	.st28{clip-path:url(#SVGID_00000010292323361991782200000016318043636595315359_);fill:#E8001C;}
	.st29{clip-path:url(#SVGID_00000010292323361991782200000016318043636595315359_);fill:#008ED6;}
	.st30{clip-path:url(#SVGID_00000010292323361991782200000016318043636595315359_);fill:#00A1F2;}
	.st31{display:none;}
	.st32{display:inline;}
	.st33{clip-path:url(#SVGID_00000013161886831968241680000016372393171490286489_);fill:#F02622;}
	.st34{clip-path:url(#SVGID_00000013161886831968241680000016372393171490286489_);fill:#DA221F;}
	.st35{clip-path:url(#SVGID_00000178173146956872811660000009211491062826193834_);fill:#FF0025;}
	.st36{clip-path:url(#SVGID_00000178173146956872811660000009211491062826193834_);fill:#E8001C;}
	.st37{clip-path:url(#SVGID_00000178173146956872811660000009211491062826193834_);fill:#DA221F;}
	.st38{clip-path:url(#SVGID_00000178173146956872811660000009211491062826193834_);fill:#F02622;}
	.st39{clip-path:url(#SVGID_00000182518104797887083880000008607685888020903063_);fill:#F02622;}
	.st40{clip-path:url(#SVGID_00000182518104797887083880000008607685888020903063_);fill:#DA221F;}
	.st41{clip-path:url(#SVGID_00000181784958943149938930000013971695335261564080_);fill:#FF0025;}
	.st42{clip-path:url(#SVGID_00000181784958943149938930000013971695335261564080_);fill:#E8001C;}
	.st43{clip-path:url(#SVGID_00000181784958943149938930000013971695335261564080_);fill:#DA221F;}
	.st44{clip-path:url(#SVGID_00000181784958943149938930000013971695335261564080_);fill:#F02622;}
	.st45{clip-path:url(#SVGID_00000070076718123619226100000015449684479595211695_);fill:#FAD512;}
	.st46{clip-path:url(#SVGID_00000070076718123619226100000015449684479595211695_);fill:#FEBB09;}
	.st47{clip-path:url(#SVGID_00000160150203277098644680000015642091859657883547_);fill:#FAD512;}
	.st48{clip-path:url(#SVGID_00000160150203277098644680000015642091859657883547_);fill:#E8001C;}
	.st49{clip-path:url(#SVGID_00000160150203277098644680000015642091859657883547_);fill:#FEBB09;}
	.st50{clip-path:url(#SVGID_00000134212635449040387590000005274074013675390338_);fill:#FF0025;}
	.st51{clip-path:url(#SVGID_00000134212635449040387590000005274074013675390338_);fill:#E8001C;}
	.st52{clip-path:url(#SVGID_00000134212635449040387590000005274074013675390338_);fill:#FF981D;}
	.st53{clip-path:url(#SVGID_00000134212635449040387590000005274074013675390338_);fill:#FFAF22;}
	.st54{clip-path:url(#SVGID_00000134212635449040387590000005274074013675390338_);fill:#FAD512;}
	.st55{clip-path:url(#SVGID_00000134212635449040387590000005274074013675390338_);fill:#FEBB09;}
	.st56{clip-path:url(#SVGID_00000014625094374054996740000009517356396780688307_);fill:#FF0025;}
	.st57{clip-path:url(#SVGID_00000014625094374054996740000009517356396780688307_);fill:#E8001C;}
	.st58{clip-path:url(#SVGID_00000014625094374054996740000009517356396780688307_);fill:#008ED6;}
	.st59{clip-path:url(#SVGID_00000014625094374054996740000009517356396780688307_);fill:#00A1F2;}
	.st60{clip-path:url(#SVGID_00000146473420633988147010000007620686318543173784_);fill:#FF0025;}
	.st61{clip-path:url(#SVGID_00000146473420633988147010000007620686318543173784_);fill:#E8001C;}
	.st62{clip-path:url(#SVGID_00000146473420633988147010000007620686318543173784_);fill:#008ED6;}
	.st63{clip-path:url(#SVGID_00000146473420633988147010000007620686318543173784_);fill:#00A1F2;}
</style>
<g
   id="g28"><path
     d="m 503.40039,61.900391 c -2,1.499995 -3.4012,3.599609 -12.20117,3.599609 -1.17937,0 -4.37693,-1.006872 -8.59766,-2.441406 L 442.7832,122.33008 c 6.23467,3.77329 9.61719,6.84195 9.61719,8.36914 0,2.69999 -0.60078,5.20078 -1.30078,7.30078 L 462,142.59961 514.30078,64.599609 Z m -244.80078,5.798828 c -105.49895,0 -151,25.100713 -151,57.400391 0,11.4675 7.58836,18.9536 20.02148,24.10937 -0.25541,-1.40925 -0.42187,-2.86477 -0.42187,-4.4082 0,-32.2999 45.50031,-57.400389 151,-57.400389 73.82202,0 126.61162,16.273319 153.61914,29.115239 0.46952,-1.72548 0.98242,-3.47586 0.98242,-5.51563 0,-6.79993 -63.70228,-43.300781 -174.20117,-43.300781 z M 44.394531,196.62109 C 101.74197,281.76765 331.08737,231.59343 403.11719,267.19336 378.2527,201.76772 133.7592,262.1401 44.394531,196.62109 Z M 489.95508,217.7793 c 10.63352,14.70638 16.74414,33.15952 16.74414,56.41992 0,68.79931 -86.70095,122 -260.19922,122 -137.55344,0 -191.658232,-26.90202 -215.599609,-36.33985 L 19.5,377.80078 l 8.800781,1.59961 c 3.299991,-1.4 5.29845,-4.09961 9.398438,-4.09961 15.699952,0 63.100881,40.59961 228.400391,40.59961 173.49948,0 260.20117,-53.20021 260.20117,-122 0,-35.12144 -13.84091,-59.35977 -36.3457,-76.12109 z m -414.154299,71.41992 -3.761719,5.92187 c 3.319886,3.81041 8.08375,7.3746 13.962891,10.74219 -0.35768,-1.37066 -0.601562,-2.75448 -0.601562,-4.16406 0,-4.29999 1.298828,-6.29844 1.298828,-8.39844 z"
     style=""
     id="path28" /><path
     d="m 1008.8008,19.599609 c 0,4.912269 -3.2206,8.334072 -10.20119,10.074219 v 56.925781 h -9.40039 c 0,-9.399905 -6.79978,-13.5 -23.09961,-13.5 H 640.30078 V 165.90039 H 660 V 92.699219 h 325.69922 c 16.29998,0 23.10158,4.100027 23.10158,13.500001 h 9.3984 V 19.599609 Z M 895.80078,172 c 0,6.35473 -3.25184,10.23615 -10.30078,12.11719 V 240 h -9.40039 c 0,-4.09996 -1.30044,-7.30041 -5.40039,-9.40039 -3.49997,-2.09998 -9.3993,-3.19922 -17.69922,-3.19922 H 640.30078 V 329.5 H 660 V 247 h 212.69922 c 8.29997,0 14.20118,1.09922 17.70117,3.19922 4.09999,2.09999 5.40039,5.3004 5.40039,9.40039 h 9.39844 V 172 Z m 119.29882,164.5 c 0,5.67879 -3.2502,9.3462 -10.2988,11.15625 V 402.5 h -9.40041 c 0,-7.29992 -6.79978,-11.40039 -23.09961,-11.40039 H 563.56641 c -0.66238,8.83938 -4.34005,12.09961 -17.56641,12.09961 v 7.40039 h 446 c 16.3,0 23.0996,4.10041 23.0996,11.40039 h 9.4004 v -85.5 z"
     style=""
     id="path27" /><path
     d="m 1565,60.800781 c -2.7,2.999991 -8.8004,5.699219 -14.9004,5.699219 -1.3823,0 -5.281,-1.068738 -10.2891,-2.591797 L 1492.75,125.15039 c 5.058,3.98248 7.8496,7.71994 7.8496,10.84961 0,3.69999 -0.5988,6.80039 -1.2988,8.90039 l 9.3984,4.59961 65.7012,-85.5 z m -247.3008,7.09961 c -113.7989,0 -205.8984,43.299709 -205.8984,131.298829 0,38.15132 16.3127,67.46642 42.1484,89.27734 -14.2914,-18.97156 -22.5488,-42.123 -22.5488,-69.67578 0,-87.99973 92.1007,-131.30078 205.9004,-131.30078 61.9155,0 115.8471,15.25308 143.5312,30.05273 0.019,-0.45804 0.168,-0.67333 0.168,-1.15234 0,-16.19983 -73.2017,-48.499999 -163.3008,-48.499999 z m 275.2012,142.499999 -31.8652,0.0137 c -0.2566,1.40755 -0.6348,2.66071 -0.6348,4.38672 v 102.59961 c 0,8.39992 3.4993,11.40002 12.1992,13 v 7.29883 c -42.7995,18.69981 -147.0004,58.40039 -264.1992,58.40039 -94.4857,0 -181.7357,-22.02803 -235.9883,-69.39063 51.0483,61.0713 148.8279,88.99024 255.5879,88.99024 117.1997,0 221.3994,-39.6985 264.1992,-58.39844 V 350 C 1583.4992,348.4 1580,345.39997 1580,337 V 234.40039 c 0,-11.49997 6.1004,-15.60117 12.9004,-16.70117 z m -245.3008,47.19922 c -4.5329,0 -8.1874,0.75732 -11.4004,1.8125 v 30.28711 h 9.4004 c 0,-7.29998 8.0996,-12.5 21.5996,-12.5 h 97 v -19.59961 z"
     style=""
     id="path26" /><path
     d="m 1913.3535,31 c 1.0719,2.792607 2.6458,5.700104 4.8457,9 l 196.5,323.69922 c 7.5088,12.94065 11.0632,17.69619 19.3242,19.14453 L 1937.8008,59.599609 c -3.4,-5.099984 -6.1016,-9.400012 -6.1016,-13.5 0,-3.699988 4.0012,-6.698831 14.2012,-7.798828 V 31 Z m -67.0527,63.800781 -79.9004,136.599609 h 31.1641 l 64.4531,-110.19141 z M 1734.5996,290.80078 c -39.2996,67.69932 -49.5,78.20007 -49.5,85 0,4.59996 4.1012,7.29883 10.2012,7.79883 v 7.30078 h -80.0625 c -6.4943,9.60092 -11.1208,11.89234 -21.0391,12.29883 V 410.5 h 120.7012 v -7.30078 c -6.1,-0.5 -10.2012,-3.19884 -10.2012,-7.79883 0,-6.79998 10.2002,-17.3002 49.5,-85 h 224.7559 c -4.9294,-8.01251 -5.6577,-9.10223 -12.0547,-19.59961 z m 300.8809,100 c 1.6906,3.29524 2.5195,5.50155 2.5195,7.09961 0,2.5 -3.3992,5.19922 -12.1992,5.19922 v 7.30078 h 134.8984 v -7.30078 c -11.5181,0 -15.672,-2.75884 -21.7949,-12.29883 z"
     style=""
     id="path25" /><path
     d="m 2574.6992,67.900391 c -91.4991,0 -154.5,38.498999 -154.5,55.798829 0,3.59997 1.3012,6.80041 2.7012,9.40039 l -7.9668,5.11719 19.4668,19.68359 8.0996,-5.20117 c -1.4,-2.6 -2.6992,-5.79845 -2.6992,-9.39844 0,-17.29994 63.0003,-55.80078 154.5,-55.80078 37.3964,0 64.0165,6.625168 80.959,16.36328 -9.2371,-19.377388 -41.3317,-35.962889 -100.5606,-35.962889 z m 184.8203,2.210937 c 9.6603,12.798797 14.9805,26.985953 14.9805,42.087892 0,35.39964 -25.1008,63.1001 -68.4004,73 v 1.10156 c 13.3066,3.66515 25.5302,8.17389 36.6328,13.4375 32.8171,-12.61505 51.4668,-37.35494 51.4668,-67.83789 0,-23.38292 -12.6974,-44.589698 -34.6797,-61.789062 z M 2572.9004,218.80078 c -29.6196,0 -44.7732,2.12443 -53.4004,5.60352 v 29.19531 h 9.4004 c 2.1,-9.39997 12.8994,-15.09961 63.6992,-15.09961 53.1402,0 87.7051,9.17071 108.3535,22.10352 -12.6696,-22.31237 -50.5185,-41.80274 -128.0527,-41.80274 z m 214.4551,15.40039 c 9.6223,13.15243 15.0449,28.66486 15.0449,46.89844 0,67.19932 -85.4021,115.20117 -216.8008,115.20117 -160.2749,0 -206.8424,-38.18813 -231.248,-45.39258 L 2342.5,370.5 l 10.9004,3.19922 c 4.1,-2.5 8.1,-4.59961 13.5,-4.59961 22.8999,0 61.6009,46.90039 238.4004,46.90039 131.3995,0 216.7988,-47.99942 216.7988,-115.19922 0,-28.32926 -12.9692,-50.15238 -34.7441,-66.59961 z m -390.6563,46.69922 -2.3613,3.9043 c 3.1502,3.19075 7.2583,6.44405 12.3828,9.82812 -0.3113,-1.01514 -0.5215,-2.00412 -0.5215,-2.93359 0,-2.6 0.7012,-4.59922 0.7012,-6.19922 z"
     style=""
     id="path24" /><path
     d="m 3047.5996,68 c -77.8992,-0.1 -144.2988,49.90062 -144.2988,72.90039 0,4.59996 2.6984,7.80002 5.3984,10.5 l -8.7988,6.19922 -59.4336,-55.125 -0.8672,0.52539 79.9004,74.09961 8.8008,-6.19922 c -2.7,-2.69999 -5.4004,-5.90001 -5.4004,-10.5 0,-22.99993 66.3991,-73.00039 144.2988,-72.90039 26.2714,0 54.0353,5.76749 73.0879,16.98633 C 3127.6611,80.56463 3086.1861,68 3047.5996,68 Z m 176.8418,2.507812 c 10.114,13.154423 16.1582,28.245771 16.1582,45.392578 0,138.59861 -258.8011,124.00049 -327.9004,211.59961 h 40.4219 c 89.2483,-66.57841 307.1797,-64.78326 307.1797,-192 0,-26.40671 -14.0193,-48.0816 -35.8594,-64.992188 z m 54.8594,264.091798 c 0,6.13767 -2.9352,9.95386 -10.3008,11.57812 V 402.5 h -9.4004 c 0,-7.29992 -5.399,-11.40039 -20.2988,-11.40039 h -414 c -0.8266,6.26743 -1.3008,12.74513 -1.3008,19.5 h 435 c 14.9,0 20.3008,4.10041 20.3008,11.40039 h 9.3984 v -87.40039 z"
     style=""
     id="path23" /><path
     d="M 3330.9004,31.099609 V 38.5 c 10.7071,0 17.0651,3.131396 21.3398,6.46875 l -13.5488,-13.869141 z m 128.8281,0 c 1.7094,2.105977 4.1271,4.707556 7.3711,8 l 92.0996,94.800781 0.2852,-0.2832 -72.7852,-74.917971 c -6.7,-6.79998 -10.1992,-10.900006 -10.1992,-13 0,-5.199985 5.3992,-7.298828 14.1992,-7.298828 v -7.300782 z m 310.4004,0 c -3.4383,2.871437 -6.8438,6.028379 -10.5293,9.59961 L 3612,187.09961 3782.6992,361.69922 c 1.9793,2.06726 3.1626,2.93209 4.8379,4.70703 L 3631.4004,206.69922 3779.1992,60.300781 c 12.9,-12.499962 21.8016,-21.400392 44.1016,-21.90039 V 31.099609 Z M 3550.4004,248 3430.5,366.80078 c -3.5,3.59997 -6.0996,5.20005 -6.0996,10 0,4.09997 5.3993,6.79883 14.1992,6.79883 v 7.30078 h -99.5019 c -7.1177,7.18861 -12.9476,11.5062 -25.1973,12.29883 V 410.5 h 144.2988 v -7.30078 c -8.8,0 -14.1992,-2.69884 -14.1992,-6.79883 0,-4.79998 2.5996,-6.40001 6.0996,-10 l 119.7227,-118.625 z m 139.8476,142.90039 c 1.6862,2.23225 2.8516,4.17086 2.8516,5.5 0,5.19999 -2.7004,6.79883 -12.9004,6.79883 V 410.5 h 158.5 v -7.30078 c -13.539,-0.36992 -19.697,-4.48529 -27.4472,-12.29883 z"
     style=""
     id="path22" /><path
     d="m 263,6.1992187 c -131.39961,0 -251.299219,36.5002613 -251.199219,124.0000013 0,173.19948 393.599609,46.50187 393.599609,148.60156 0,28.69991 -42.00115,55.79883 -165.30078,55.79883 -86.79974,0 -174.199219,-21.7997 -174.199219,-52.59961 0,-4.29999 1.298828,-6.30039 1.298828,-8.40039 L 56.300781,269.5 0,358.09961 l 8.6992188,1.59961 c 3.2999892,-1.4 5.3004032,-4.09961 9.4003902,-4.09961 15.699954,0 63.100887,40.59961 228.400391,40.59961 173.49948,0 260.19922,-53.20021 260.19922,-122 0,-188.699437 -399.09961,-63.59987 -399.09961,-149.09961 0,-32.299904 45.50031,-57.400391 151,-57.400391 110.49967,0 174.20117,36.500801 174.20117,43.300781 0,2.69999 -0.60078,5.20079 -1.30078,7.30078 l 10.90039,4.59961 52.40039,-77.999999 -10.90039,-2.701172 c -2,1.499995 -3.4012,3.601562 -12.20117,3.601562 -8.09998,0 -90.79958,-39.6015623 -208.69922,-39.6015623 z"
     style="fill:#da221f"
     id="path21" /><path
     d="m 989.19922,0 c 0,7.2999781 -6.89966,11.400391 -23.09961,11.400391 H 526.40039 v 7.298828 c 14.99996,0 17.69922,4.301205 17.69922,15.701172 V 367.90039 c 0,11.59997 -2.79926,15.69922 -17.69922,15.69922 h -0.0996 v 7.5 h 446 c 16.29995,0 23.09961,4.10041 23.09961,11.40039 h 9.40041 V 317 h -9.40041 c 0,8.39997 -6.89965,12.5 -23.09961,12.5 h -332 V 227.40039 H 853 c 8.29997,0 14.19923,1.09922 17.69922,3.19922 4.09998,2.1 5.40039,5.3004 5.40039,9.40039 H 885.5 v -87.59961 h -9.40039 c 0,9.39997 -6.89966,13.5 -23.09961,13.5 H 640.30078 V 73.099609 h 325.79883 c 16.29995,0 23.09961,4.100029 23.09961,13.5 h 9.40039 V 0 Z"
     style="fill:#da221f"
     id="path20" /><path
     d="m 1316.5,6.1992187 c -140.9996,0 -300.8008,59.6004053 -300.8008,195.0000013 0,135.39959 136.8016,194.90039 292.7012,194.90039 117.1997,0 221.3994,-39.70045 264.1992,-58.40039 v -7.29883 c -8.7,-1.6 -12.1992,-4.60003 -12.1992,-13 V 214.80078 c 0,-11.49997 6.1004,-15.60117 12.9004,-16.70117 v -7.29883 l -225.7012,0.0996 c -13.5,0 -21.5996,-5.20002 -21.5996,-12.5 h -9.4004 v 91.69922 H 1326 c 0,-7.29998 8.0996,-12.5 21.5996,-12.5 h 116.5996 v 43.30078 c -20.2999,11.49997 -70.4987,33.90039 -155.8984,33.90039 -104.3997,0 -196.5,-43.30184 -196.5,-135.60156 0,-87.99974 92.0987,-131.298829 205.8984,-131.298829 90.0997,0 163.3008,32.300049 163.3008,48.499999 0,3.69999 -0.6008,6.8004 -1.3008,8.90039 l 9.4004,4.59961 65.7012,-85.499999 -9.4004,-3.201172 c -2.7,2.999991 -8.8004,5.701172 -14.9004,5.701172 -4.6,0 -31.2001,-9.500427 -67,-21.400391 -38.4999,-9.299972 -91.5002,-19.3007812 -147,-19.3007813 z"
     style="fill:#da221f"
     id="path19" /><path
     d="m 1778.5,11.400391 v 7.298828 c 8.8,0.999997 14.1992,3.700408 14.1992,9.40039 0,4.799987 -3.8984,10.501188 -7.3984,15.701172 L 1600.4004,363.80078 c -9.6,16.59995 -13.6008,19.29883 -25.8008,19.79883 v 7.30078 h 120.7012 v -7.30078 c -6.1,-0.5 -10.2012,-3.19884 -10.2012,-7.79883 0,-6.79998 10.2001,-17.3002 49.5,-85 h 232.3008 c 45.3998,74.49978 51.5,81.80002 51.5,87.5 0,2.5 -3.4012,5.19922 -12.2012,5.19922 v 7.30078 h 134.9004 V 383.5 c -14.2,0 -17.0004,-3.60083 -26.4004,-19.80078 L 1918.1992,40 c -3.4,-5.099985 -6.0996,-9.400012 -6.0996,-13.5 0,-3.699989 4.0012,-6.700784 14.2012,-7.800781 v -7.298828 z m 67.8008,83.40039 81.2988,136.599609 h -161.1992 z"
     style="fill:#da221f"
     id="path18" /><path
     d="m 2580.6992,6.4003906 c -157.1995,0 -198.4996,58.4003904 -218.0996,58.4003904 -4.1,0 -7.4992,-1.601176 -10.1992,-3.201172 l -9.4004,4.09961 71.8008,72.601561 8.0996,-5.20117 c -1.4,-2.6 -2.7012,-5.8004 -2.7012,-9.40039 0,-17.29995 63.0003,-55.798829 154.5,-55.798829 71.1998,0 103.7012,23.900463 103.7012,47.900389 0,22.29994 -25.1007,45.79883 -117.9004,45.79883 -37.9999,0 -48.8,-4.10003 -51.5,-13 h -9.1992 v 85.30078 h 9.3984 c 2.1,-9.39997 12.9013,-15.09961 63.7012,-15.09961 98.1997,0 133.4004,31.19853 133.4004,59.89844 0,32.7999 -46.7019,55.80078 -132.1016,55.80078 -112.5997,0 -187.6992,-42.20006 -187.6992,-62.5 0,-2.59999 0.6992,-4.59922 0.6992,-6.19922 L 2377,261.19922 2322.8008,350.80078 2333.6992,354 c 4.1,-2.5 8.1,-4.59961 13.5,-4.59961 22.9,0 61.601,46.90039 238.4004,46.90039 131.3996,0 216.8008,-48.00138 216.8008,-115.20117 0,-49.39985 -39.3009,-79.09887 -96.3008,-94.79883 v -1.10156 c 43.2999,-9.89997 68.4004,-37.60011 68.4004,-73 0,-59.999822 -83.3011,-105.7988294 -193.8008,-105.7988294 z M 2499.8008,148.59961 v -0.29883 h -0.2012 v 0.29883 z"
     style="fill:#da221f"
     id="path17" /><path
     d="m 3051.5,6.5 c -144.2996,0 -195.0996,73.900391 -214.0996,73.900391 -4,0 -6.7996,-1.101177 -8.0996,-2.701172 l -9.4004,5.701172 80,74.199219 8.7988,-6.19922 c -2.7,-2.69999 -5.3984,-5.90001 -5.3984,-10.5 0,-22.99993 66.3991,-73.00039 144.2988,-72.90039 46.0999,0 96.9004,17.69971 96.9004,51.59961 0,89.59973 -340.0996,81.20057 -340.0996,271.5 h 434.9004 c 14.9,0 20.2988,4.10041 20.2988,11.40039 H 3269 V 315 h -9.4004 c 0,8.39997 -5.3988,12.5 -20.2988,12.5 H 2912.6992 C 2981.799,239.90027 3240.5996,254.49997 3240.5996,115.90039 3240.5996,43.500608 3135.4997,6.5 3051.5,6.5 Z"
     style="fill:#da221f"
     id="path16" /><path
     d="m 3311.3008,11.5 v 7.400391 c 16.9,0 22.9996,7.800398 27.0996,11.90039 l 159.7988,163.599609 -169.3984,167.29883 c -12.9,12.99998 -17.5,20.80039 -34.5,21.90039 v 7.30078 h 144.2988 v -7.30078 c -8.8,0 -14.1992,-2.69883 -14.1992,-6.79883 0,-4.79998 2.5996,-6.4 6.0996,-10 L 3550.4004,248 l 98.9004,100.69922 c 12.8,12.99998 24.3984,23.50158 24.3984,28.10156 0,5.2 -2.6984,6.79883 -12.8984,6.79883 v 7.30078 h 158.5 v -7.30078 c -18.3,-0.5 -23.1016,-7.80043 -36.6016,-21.90039 L 3612,187.09961 3759.5996,40.699219 c 12.9,-12.499976 21.7996,-21.398438 44.0996,-21.898438 V 11.5 h -150.3984 v 7.300781 c 6.2,0 11.5996,2.698836 11.5996,6.798828 0,2.999994 -4.0004,7.300012 -9.4004,13 l -96.3008,95.300781 -92.0996,-94.800781 c -6.7,-6.799986 -10.1992,-10.900004 -10.1992,-13 0,-5.199988 5.3992,-7.298828 14.1992,-7.298828 V 11.5 Z"
     style="fill:#da221f"
     id="path15" /></g>
</svg>
