<?xml version="1.0" encoding="UTF-8" standalone="no"?>
<!-- Generator: Adobe Illustrator 25.2.1, SVG Export Plug-In . SVG Version: 6.00 Build 0)  -->

<svg
   version="1.1"
   id="Layer_1"
   x="0px"
   y="0px"
   viewBox="0 0 3839 1018.3"
   style="enable-background:new 0 0 3839 1018.3;"
   xml:space="preserve"
   sodipodi:docname="Super Nintendo Entertainment System-16.svg"
   inkscape:version="1.3.2 (091e20e, 2023-11-25)"
   xmlns:inkscape="http://www.inkscape.org/namespaces/inkscape"
   xmlns:sodipodi="http://sodipodi.sourceforge.net/DTD/sodipodi-0.dtd"
   xmlns="http://www.w3.org/2000/svg"
   xmlns:svg="http://www.w3.org/2000/svg"><defs
   id="defs15">
	

		
	
			
		
				
				
				
				
				
				
				
				
				
				
				
			
					
					
					
				
					
				
					
				
					
				
					
				
					
				
					
				
					
				
					
				
					
				</defs><sodipodi:namedview
   id="namedview15"
   pagecolor="#ffffff"
   bordercolor="#666666"
   borderopacity="1.0"
   inkscape:showpageshadow="2"
   inkscape:pageopacity="0.0"
   inkscape:pagecheckerboard="0"
   inkscape:deskcolor="#d1d1d1"
   inkscape:zoom="0.09898411"
   inkscape:cx="1914.4487"
   inkscape:cy="510.18289"
   inkscape:window-width="2048"
   inkscape:window-height="1154"
   inkscape:window-x="0"
   inkscape:window-y="25"
   inkscape:window-maximized="0"
   inkscape:current-layer="Layer_1" />
<style
   type="text/css"
   id="style1">
	.st0{fill:#ED2224;}
	.st1{fill:#FFFFFF;}
	.st2{fill:#DB3127;}
	.st3{fill-rule:evenodd;clip-rule:evenodd;fill:#FCDA00;}
	.st4{fill-rule:evenodd;clip-rule:evenodd;fill:#73B744;}
	.st5{fill-rule:evenodd;clip-rule:evenodd;fill:#ED2224;}
	.st6{fill-rule:evenodd;clip-rule:evenodd;fill:#2AA4DD;}
	.st7{fill-rule:evenodd;clip-rule:evenodd;fill:#DB3127;}
</style>
<g
   id="g27"><path
     d="m 174.5,1.6992187 c -36.29989,0 -67.10042,25.4012803 -74.40039,61.7011723 L 80.099609,181.40039 C 74.699626,215.90029 76.500847,234.10012 98.300781,274 114.60073,304.79991 169.10082,408.30046 181.80078,431.90039 198.10073,461.0003 201.6996,471.80006 198.09961,490 l -18.19922,96.19922 C 176.2004,598.89918 163.49996,609.80078 149,609.80078 h -43.59961 c -10.899966,0 -19.999999,-9.10003 -19.999999,-20 V 588 L 110.80078,441 H 30.900391 L 0,615.30078 v 10.89844 C 0,660.69911 25.400494,687.9 59.900391,688 H 174.30078 c 38.09989,0 68.89924,-27.19932 76.19922,-61.69922 l 23.59961,-132.5 C 281.29958,462.90087 274.09997,433.89916 265,415.69922 257.80002,397.49928 192.39918,288.59993 179.69922,265 161.49928,234.20009 154.30002,215.9991 160,177.69922 L 174.5,101.5 c 3.59999,-12.699962 14.50004,-23.599609 29,-23.599609 h 43.59961 c 10.89997,0 20,9.100032 20,20 V 101.5 l -25.40039,141.59961 h 79.90039 l 29,-168.798829 v -10.90039 c 0,-34.499897 -28.99931,-61.7011723 -61.69922,-61.7011723 z"
     style="fill:#ed2224"
     id="path27" /><path
     d="M 415.69922,0 304.90039,611.69922 v 12.70117 c 0,34.4999 27.20049,61.69922 59.90039,61.69922 h 114.39844 c 38.09988,0 68.9012,-27.19932 76.20117,-61.69922 L 669.80078,0 H 588.09961 L 481,586.30078 c -3.59999,12.69997 -14.50004,23.59961 -29,23.59961 h -43.59961 c -10.89997,0 -20,-9.10082 -20,-21.80078 L 495.59961,0 Z"
     style="fill:#ed2224"
     id="path26" /><path
     d="M 1012.8008,0 887.59961,686.09961 h 186.99999 l 12.7012,-76.19922 H 985.59961 l 43.59959,-237.80078 h 101.6016 l 14.5,-78 h -101.6016 l 38.1016,-216.000001 h 103.5 L 1198,0 Z"
     style="fill:#ed2224"
     id="path25" /><path
     d="m 1673.5,0 -125.1992,686.09961 h 85.2988 C 1695.2994,335.70066 1704.4,255.89898 1708,174.19922 c 0,68.99979 1.8009,145.20149 36.3008,511.90039 h 83.5 L 1953,0 h -83.5 c -63.4998,352.19895 -72.6004,451.99982 -74.4004,524.59961 C 1793.2996,455.59982 1793.2999,366.6989 1757,0 Z"
     style="fill:#ed2224"
     id="path24" /><path
     d="m 2011.1992,0 -123.5,686.09961 h 81.7012 L 2094.6992,0 Z"
     style="fill:#ed2224"
     id="path23" /><path
     d="m 2464.9004,0 -14.5,78.099609 h 59.9004 l -112.5,608.000001 h 83.5 L 2592,78.099609 h 56.3008 L 2664.5996,0 Z"
     style="fill:#ed2224"
     id="path22" /><path
     d="m 2699.0996,0 -125.1992,686.09961 h 186.9004 L 2773.5,609.90039 h -101.5996 l 43.5,-237.80078 h 101.6992 l 14.5,-78 H 2730 L 2768.0996,78.099609 H 2871.5 L 2884.1992,0 Z"
     style="fill:#ed2224"
     id="path21" /><path
     d="m 2158.1992,0 -125.2988,686.09961 h 85.4004 c 61.6998,-350.39895 70.7984,-430.20063 74.3984,-511.90039 0,68.99979 1.8009,145.20149 36.3008,511.90039 h 83.5 L 2437.6992,0 h -83.5 c -63.4998,352.19895 -72.5984,451.99982 -74.3984,524.59961 C 2278.0008,455.59982 2277.9991,366.6989 2241.6992,0 Z"
     style="fill:#ed2224"
     id="path20" /><path
     d="m 2940.5,0 -125.1992,686.09961 h 85.2988 C 2962.2994,335.70066 2971.4,255.89898 2975,174.19922 c 0,68.99979 1.8009,145.20149 36.3008,511.90039 h 83.5 L 3220,0 h -83.5 c -63.4998,352.19895 -72.6004,451.99982 -74.4004,524.59961 C 3060.2996,455.59982 3060.2999,366.6989 3024,0 Z"
     style="fill:#ed2224"
     id="path19" /><path
     d="M 720.59961,0 595.40039,686.09961 678.80078,684.30078 735.09961,377.5 h 107.09961 c 38.09988,0 69.0004,-25.39933 74.40039,-61.69922 L 960.19922,72.599609 C 961.99922,68.999621 962,65.299208 962,61.699219 962,27.199322 934.80068,0 900.30078,0 Z M 3278.0996,0 3153,686.09961 h 197.8008 c 38.0998,0 68.9984,-27.19932 74.3984,-61.69922 L 3525,72.599609 c 1.8,-3.599988 1.8008,-7.300401 1.8008,-10.90039 C 3526.8008,27.199322 3499.5995,0 3465.0996,0 Z m 377.5996,0 c -36.2998,0 -67.1984,27.199322 -74.3984,61.699219 l -98,550.000001 v 12.70117 c 0,34.4999 25.3986,61.69922 59.8984,61.69922 h 114.4004 c 38.0999,0 68.9012,-27.19932 76.2012,-61.69922 l 98,-551.800781 V 61.699219 C 3831.8008,27.199322 3804.6003,0 3771.9004,0 Z m -2410.5,1.8007812 -123.5,686.0996088 h 83.5 l 54.5,-303.09961 H 1325 c 10.9,0 20,9.09886 20,21.79883 L 1296,688 h 83.5996 l 49,-270.5 v -10.90039 c 3.6,-25.39993 -7.3004,-47.19886 -30.9004,-56.29883 27.2,-9.09997 47.2016,-29.10165 52.6016,-58.10156 l 38.0996,-216.000001 c 1.8,-5.399984 1.7988,-9.09923 1.7988,-12.699219 0,-34.499897 -27.1993,-61.6992187 -61.6992,-61.6992188 z M 787.69922,76.199219 h 69 c 10.89997,0 20,9.100033 20,20 v 3.601562 l -34.5,177.898439 c -3.59999,14.49995 -14.50005,23.60156 -29,23.60156 H 746 Z m 528.30078,0 h 65.3008 c 10.9,0 20,9.100033 20,20 v 3.601562 l -32.7012,177.898439 c -3.6,12.69996 -14.5,23.60156 -29,23.60156 L 1276,299.5 Z m 2029.1992,0 h 74.4004 c 10.9,0 20,9.100033 20,20 v 3.601562 l -88.9004,486.499999 c -3.6,12.69997 -14.5,23.59961 -29,23.59961 h -0.1 V 608 H 3249 Z m 335.8008,0 h 45.4004 c 10.9,0 20,9.100033 20,20 v 3.601562 l -87.0996,486.499999 c -3.6,12.69997 -14.5,23.59961 -29,23.59961 h -43.6016 c -10.9,0 -20,-9.10003 -20,-20 0,0 0,-1.79961 -1.7988,-3.59961 L 3652,99.800781 c 3.6,-12.699961 16.3,-23.601562 29,-23.601562 z"
     style="fill:#ed2224"
     id="path18" /><path
     d="m 1275.9004,818.59961 c -1.8,3.59999 -3.6004,12.70079 -5.4004,16.30078 -3.6,7.29998 -5.3996,14.49885 -9.0996,21.79883 l -20,45.40039 h 23.6992 l 5.4004,-45.40039 c 0,-7.29998 1.7996,-14.49885 3.5996,-21.79883 0,-3.59999 1.8008,-12.70079 1.8008,-16.30078 z"
     style="fill:#ed2224"
     id="path17" /><path
     d="m 885.69922,827.69922 -10.89844,45.40039 h 21.79883 c 9.09997,0 18.20079,-7.29966 21.80078,-23.59961 3.69999,-18.19994 -1.8012,-21.80078 -12.70117,-21.80078 z"
     style="fill:#ed2224"
     id="path16" /><path
     d="m 9.0996094,751.5 v 266.8008 H 3839 V 751.5 Z M 2771.5996,798.59961 c 41.9,1.9 31.0008,40.00002 27.3008,54.5 h -27.2012 c 3.6,-14.49998 7.3004,-29 -9.0996,-29 -9.1,0 -16.2992,3.60002 -18.1992,14.5 -3.6,12.69998 1.7996,16.29963 9.0996,23.59961 7.3,5.39998 20.0004,18.20119 25.4004,27.20117 7.3,10.89998 7.2996,20.00004 3.5996,34.5 -7.3,30.89994 -30.8996,47.19922 -58.0996,47.19922 -32.7,0 -39.9004,-20.00006 -30.9004,-49 l 3.5996,-12.69922 h 27.2012 L 2722.5,918.5 c -5.4,16.29996 -3.5996,27.19922 10.9004,27.19922 10.9,0 18.1988,-7.29924 21.7988,-18.19922 1.8,-9.09998 0,-16.3008 -5.3984,-21.80078 -10.9,-12.69998 -27.2012,-21.79965 -32.7012,-38.09961 -1.8,-7.29998 -3.6,-16.30041 0,-25.40039 7.3,-27.19994 25.4,-43.59961 54.5,-43.59961 z m 381.2012,0 c 41.7998,1.9 30.9,40.00002 25.5,54.5 h -25.4004 c 3.6,-14.49998 7.3004,-29 -9.0996,-29 -9.1,0 -16.3012,3.60002 -18.2012,14.5 -3.6,12.69998 1.7996,16.29963 9.0996,23.59961 7.3,5.39998 20.0004,18.20119 25.4004,27.20117 7.3,10.89998 7.2996,20.00004 3.5996,34.5 -7.3,30.89994 -30.8996,47.19922 -58.0996,47.19922 -32.7,0 -39.9004,-20.00006 -30.9004,-49 l 3.6016,-12.69922 H 3105.5 l -1.8008,9.09961 c -5.4,16.29996 -3.5996,27.19922 10.9004,27.19922 10.9,0 18.2008,-7.29924 21.8008,-18.19922 1.8,-9.09998 -4e-4,-16.3008 -5.4004,-21.80078 -10.9,-12.69998 -27.1992,-21.79965 -32.6992,-38.09961 -1.8,-7.29998 -3.6,-16.30041 0,-25.40039 7.3,-27.19994 25.4,-43.59961 54.5,-43.59961 z m -2657.3008,5.5 h 90.80078 l -5.5,23.59961 H 550 L 513.69922,965.59961 H 486.5 l 36.30078,-137.90039 h -32.70117 z m 368.5,0 h 50.80078 c 25.39996,0 41.7992,9.10045 32.69922,39.90039 -5.39998,18.19996 -14.49926,36.30039 -32.69922,39.90039 16.29996,1.8 18.1992,14.50004 12.69922,29 -1.8,7.29998 -12.70078,47.19883 -7.30078,50.79883 v 3.60156 h -30.89844 c 0,-10.89998 5.39883,-30.90119 7.29883,-41.70117 1.8,-10.89998 5.40115,-23.59922 -1.79883,-27.19922 -7.29998,-1.8 -14.5008,-1.80078 -21.80078,-1.80078 h -5.40039 l -18.19922,69 h -27.20117 z m 183.1992,0 H 1138 l -5.4004,23.59961 h -30.9004 l -36.2988,137.90039 h -27.2012 L 1074.5,827.69922 h -32.6992 z m 1368.6016,0 h 90.7988 l -5.4004,23.59961 h -30.8984 L 2434,965.59961 h -27.1992 l 36.2988,-137.90039 h -32.6992 z m 860.3984,0 H 3367 l -3.5996,23.59961 h -32.7012 l -36.2988,137.90039 h -27.2012 L 3303.5,827.69922 h -32.6992 z m -297.5996,1.70117 h 29 l -58,92.69922 -18.1992,69 h -27.2012 l 18.2012,-69 -14.5,-92.59961 h 29 l 3.5996,41.69922 c 0,7.29998 1.8,16.30041 0,25.40039 5.4,-12.69998 10.9008,-21.80041 16.3008,-30.90039 z m -2862.49999,0.0996 h 76.20117 l -7.20117,21.79883 h -49 l -10.90039,41.70117 h 45.40039 L 165.19922,893 h -45.39844 l -12.70117,50.80078 h 49 l -5.40039,23.59961 H 74.400391 Z m 1933.30079,0 h 76.1992 l -7.2988,21.79883 h -49 l -10.9004,41.70117 h 45.4004 L 2098.4004,893 H 2053 l -12.6992,50.80078 h 49 l -5.4004,23.59961 h -76.2012 z m 1424.6992,0 h 76.2012 l -5.4004,21.79883 h -49 L 3485,869.40039 h 45.4004 L 3525,893 h -45.4004 l -12.6992,50.80078 h 49 l -5.4004,23.59961 h -78.0996 z M 686.09961,806 h 76.20117 l -7.20117,21.69922 h -49 l -10.90039,41.70117 h 45.40039 L 735.19922,893 H 689.80078 L 677,943.90039 h 49 L 720.59961,967.5 H 644.40039 Z M 1261.5,806 h 36.3008 l -9.1016,161.5 h -29 l 3.6016,-41.69922 h -32.7012 L 1212.4004,967.5 h -29 z m 181.5,0 h 27.1992 L 1428.5,967.5 h -27.1992 z m 364.9004,0 H 1851.5 l -5.4004,76.19922 c 0,12.69998 -5.3988,32.70041 -7.2988,45.40039 5.4,-16.29996 10.8988,-34.50041 16.2988,-45.40039 L 1889.5996,806 h 43.5996 l -41.7988,161.5 h -27.2012 l 12.7012,-50.80078 c 9.1,-32.69994 18.1992,-65.29928 27.1992,-96.19922 l -67.1992,147 h -16.3008 l 10.9004,-147 h -1.8008 c -7.3,32.69994 -14.4996,65.29928 -23.5996,96.19922 L 1793.4004,967.5 h -27.2012 z m 1858.6992,0 h 43.5996 l -5.3984,76.19922 c 0,12.69998 -5.4008,32.70041 -7.3008,45.40039 5.4,-16.29996 10.9008,-34.50041 16.3008,-45.40039 L 3748.3008,806 h 43.5996 l -41.8008,161.5 h -27.1992 l 12.6992,-50.80078 c 9.1,-32.69994 18.2012,-65.29928 27.2012,-96.19922 l -67.2012,147 h -16.2988 l 10.8984,-147 h -1.7988 c -7.3,32.69994 -14.4996,65.29928 -23.5996,96.19922 L 3652.0996,967.5 h -27.1992 z m -3356.19921,0.0996 h 29 L 344.80078,866 c 1.8,18.19996 3.59883,38.10084 1.79883,65.30078 3.6,-14.49996 5.39961,-30.90041 9.09961,-45.40039 3.6,-16.29996 7.30039,-30.90041 10.90039,-45.40039 l 9.09961,-32.69922 H 403 L 359.40039,967.5 h -29 L 325,909.40039 c -1.8,-19.99996 -3.60078,-38.10084 -1.80078,-65.30078 -1.8,12.69998 -5.39961,29.00121 -9.09961,47.20117 -3.6,16.29996 -7.30039,32.69846 -10.90039,45.39844 l -7.29883,30.90039 h -27.20117 z m 1286.90041,0 h 29 L 1631.6992,866 c 1.8,18.19996 3.6008,38.10084 1.8008,65.30078 3.6,-14.49996 5.3996,-30.90041 9.0996,-45.40039 3.6,-16.29996 7.3004,-30.90041 10.9004,-45.40039 l 9.0996,-32.69922 h 27.2012 L 1644.5,967.5 h -27.1992 l -5.4004,-58.09961 c -1.8,-19.99996 -3.6008,-38.10084 -1.8008,-65.30078 -1.8,12.69998 -5.3996,29.00121 -9.0996,47.20117 -3.6,16.29996 -7.3004,32.69846 -10.9004,45.39844 l -7.2988,30.90039 h -27.2012 z m 628.0996,0 h 29 L 2259.8008,866 c 1.8,18.19996 3.5988,38.10084 1.7988,65.30078 3.6,-14.49996 5.3996,-30.90041 9.0996,-45.40039 3.6,-16.29996 7.3004,-30.90041 10.9004,-45.40039 l 9.0996,-32.69922 h 27.2012 l -43.5,159.69922 h -29 L 2240,909.40039 c -1.8,-19.99996 -3.6008,-38.10084 -1.8008,-65.30078 -1.8,12.69998 -5.3996,29.00121 -9.0996,47.20117 -3.6,16.29996 -7.3004,32.69846 -10.9004,45.39844 l -7.2988,30.90039 h -27.2012 z"
     style="fill:#ed2224"
     id="path15" /></g>
</svg>
