<?xml version="1.0" encoding="UTF-8" standalone="no"?>
<!-- Generator: Adobe Illustrator 25.2.1, SVG Export Plug-In . SVG Version: 6.00 Build 0)  -->

<svg
   version="1.1"
   id="Layer_1"
   x="0px"
   y="0px"
   viewBox="0 0 3839 727.8"
   style="enable-background:new 0 0 3839 727.8;"
   xml:space="preserve"
   sodipodi:docname="Super Nintendo Entertainment System-8-02.svg"
   inkscape:version="1.3.2 (091e20e, 2023-11-25)"
   xmlns:inkscape="http://www.inkscape.org/namespaces/inkscape"
   xmlns:sodipodi="http://sodipodi.sourceforge.net/DTD/sodipodi-0.dtd"
   xmlns="http://www.w3.org/2000/svg"
   xmlns:svg="http://www.w3.org/2000/svg"><defs
   id="defs17">
	
	

		
		
		
		
	
		
	
			
		
				
			
					
					
					
					
					
					
					
					
					
					
					
				
						
					
						
					
						
					
						
					
						
					
						
					
						
					
						
					
						
					
						
						
						
					</defs><sodipodi:namedview
   id="namedview17"
   pagecolor="#ffffff"
   bordercolor="#666666"
   borderopacity="1.0"
   inkscape:showpageshadow="2"
   inkscape:pageopacity="0.0"
   inkscape:pagecheckerboard="0"
   inkscape:deskcolor="#d1d1d1"
   inkscape:zoom="0.16097942"
   inkscape:cx="1916.394"
   inkscape:cy="363.40049"
   inkscape:window-width="2048"
   inkscape:window-height="1154"
   inkscape:window-x="0"
   inkscape:window-y="25"
   inkscape:window-maximized="0"
   inkscape:current-layer="Layer_1" />
<style
   type="text/css"
   id="style1">
	.st0{fill-rule:evenodd;clip-rule:evenodd;fill:#FCDA00;}
	.st1{fill-rule:evenodd;clip-rule:evenodd;fill:#73B744;}
	.st2{fill-rule:evenodd;clip-rule:evenodd;fill:#ED2224;}
	.st3{fill-rule:evenodd;clip-rule:evenodd;fill:#2AA4DD;}
	.st4{fill:#FFFFFF;}
	.st5{fill:#ED2224;}
	.st6{fill-rule:evenodd;clip-rule:evenodd;fill:#DB3127;}
	.st7{fill:#DB3127;}
</style>
<g
   id="g33"><path
     d="m 592.69922,522.90039 c -190.89943,0 -204.89844,82.29891 -204.89844,109.79883 0,26.09992 40.09893,95.10156 204.89844,95.10156 C 752.09874,727.80078 805,666.59911 805,632.69922 805,603.79931 779.99865,522.90039 592.69922,522.90039 Z"
     style="clip-rule:evenodd;fill:#fcda00;fill-rule:evenodd"
     id="path33" /><path
     d="M 197.59961,332.59961 C 6.6001818,332.59961 0,422.20045 0,442.40039 0,462.60033 40.100885,537.6 204.90039,537.5 364.29991,537.5 402.5,462.70033 402.5,442.40039 402.5,422.10045 384.89904,332.59961 197.59961,332.59961 Z"
     style="clip-rule:evenodd;fill:#73b744;fill-rule:evenodd"
     id="path32" /><path
     d="m 824.82422,198.86914 c -8.73979,0.14905 -17.81214,0.80625 -27.22461,2.03125 -150.59955,19.59994 -153.59961,183 -153.59961,183 0,0 191.20082,-10.79976 204.80078,197.59961 0,0.3 217.09872,-11.70111 168.29882,-248.90039 -4.9687,-23.90618 -61.17848,-135.96617 -192.27538,-133.73047 z"
     style="clip-rule:evenodd;fill:#ed2224;fill-rule:evenodd"
     id="path31" /><path
     d="M 444.22461,1.3691406 C 435.48482,1.518188 426.41247,2.1753943 417,3.4003906 266.40045,23.000332 263.40039,186.40039 263.40039,186.40039 c 0,0 191.20043,-10.89976 204.90039,197.59961 0,0.3 216.99907,-11.70111 168.19922,-248.90039 C 631.53126,111.19343 575.32151,-0.86657041 444.22461,1.3691406 Z"
     style="clip-rule:evenodd;fill:#2aa4dd;fill-rule:evenodd"
     id="path30" /><path
     d="m 1219.8008,1.3007812 c -26,10e-8 -48.0012,18.1996868 -53.2012,44.0996098 l -14.2988,84.298829 c -3.9,24.69992 -2.6,37.70126 13,66.20117 11.7,22.09994 50.5992,96.00045 59.6992,112.90039 11.7,20.69994 14.2992,28.50004 11.6992,41.5 l -13,68.79883 C 1221.0992,428.19958 1211.9996,436 1201.5996,436 H 1170.5 c -7.8,0 -14.3008,-6.50081 -14.3008,-14.30078 v -1.29883 l 18.2012,-105.09961 h -57.0996 l -22.1016,124.5 v 7.79883 c 0,24.59992 18.2008,44.09961 42.8008,44.09961 h 81.6992 c 27.3,0 49.3,-19.49969 54.5,-44.09961 l 16.9004,-94.69922 c 5.2,-22.09994 0,-42.80082 -6.5,-55.80078 -5.2,-12.99996 -51.9,-90.79927 -61,-107.69922 -12.9,-21.99994 -18.0988,-35.00087 -14.2988,-62.30078 l 10.3984,-54.500001 c 2.6,-9.099972 10.4008,-16.90039 20.8008,-16.90039 h 31.0996 c 7.8,0 14.3008,6.500805 14.3008,14.300781 v 2.599609 l -18.2012,101.201171 h 57.1016 L 1345.5996,53.199219 V 45.400391 C 1345.5996,20.800464 1324.9,1.3007812 1301.5,1.3007812 Z"
     style="fill:#ed2224"
     id="path29" /><path
     d="m 1392.3008,0 -79.1016,437.19922 v 9.10156 c 0,24.59993 19.4008,44.09961 42.8008,44.09961 h 81.6992 c 27.3,0 49.3,-19.49968 54.5,-44.09961 L 1573.9004,0 H 1515.5 L 1439,419 c -2.6,9.09997 -10.4008,16.90039 -20.8008,16.90039 h -31.0996 c -7.8,0 -14.2988,-6.49964 -14.2988,-15.59961 L 1449.4004,0 Z"
     style="fill:#ed2224"
     id="path28" /><path
     d="m 1819.0996,0 -89.5,490.40039 h 133.5996 l 9.1016,-54.5 h -72.7012 l 31.2012,-170 h 72.5996 l 10.4004,-55.70117 h -72.6016 l 27.2012,-154.398439 h 74 L 1951.4004,0 Z"
     style="fill:#ed2224"
     id="path27" /><path
     d="m 2291.3008,0 -89.5,490.40039 h 61 C 2306.9006,240.10114 2313.4,182.99943 2316,124.59961 c 0,49.29985 1.3004,103.70156 25.9004,365.80078 h 59.6992 L 2491.0996,0 h -59.6992 c -45.3999,251.69925 -51.9012,323.00054 -53.2012,374.90039 C 2376.8992,325.60054 2376.8999,262.09922 2351,0 Z"
     style="fill:#ed2224"
     id="path26" /><path
     d="m 2532.5996,0 -88.1992,490.40039 h 58.4004 L 2592.3008,0 Z"
     style="fill:#ed2224"
     id="path25" /><path
     d="m 2856.9004,0 -10.3008,55.800781 h 42.8008 l -80.5,434.599609 h 59.6992 L 2947.8008,55.800781 H 2988 L 2999.5996,0 Z"
     style="fill:#ed2224"
     id="path24" /><path
     d="m 3024.3008,0 -89.5,490.40039 h 133.5996 l 9.0996,-54.5 h -72.6992 l 31.1992,-170 h 72.5996 L 3119,210.19922 h -72.5996 L 3073.5996,55.800781 H 3147.5 L 3156.5996,0 Z"
     style="fill:#ed2224"
     id="path23" /><path
     d="m 2637.6992,0 -89.5,490.40039 h 61 c 44.0999,-250.29925 50.6012,-307.40096 53.2012,-365.80078 0,49.29985 1.3004,103.70156 25.9004,365.80078 H 2748 L 2837.5,0 h -59.6992 c -45.3999,251.69925 -51.9012,323.00054 -53.2012,374.90039 -1.3,-49.29985 -1.2993,-112.80117 -27.1992,-374.90039 z"
     style="fill:#ed2224"
     id="path22" /><path
     d="m 3196.8008,0 -89.5,490.40039 h 61 C 3212.4006,240.10114 3218.9,182.99943 3221.5,124.59961 c 0,49.29985 1.3004,103.70156 25.9004,365.80078 h 59.6992 L 3396.5996,0 h -59.6992 c -45.3999,251.69925 -51.9012,323.00054 -53.2012,374.90039 C 3282.3992,325.60054 3282.3999,262.09922 3256.5,0 Z"
     style="fill:#ed2224"
     id="path21" /><path
     d="m 1610.1992,0 -89.5,490.40039 59.7012,-1.40039 40.1992,-219.19922 h 76.5 c 27.3,0 49.3012,-18.20164 53.2012,-44.10156 l 31.0996,-173.798829 c 1.3,-2.599993 1.2988,-5.200789 1.2988,-7.800782 C 1782.6992,19.499684 1763.1996,0 1738.5996,0 Z M 3438.0996,0 3348.5,490.40039 h 141.4004 c 27.2999,0 49.2992,-19.49968 53.1992,-44.09961 L 3614.5,51.900391 c 1.3,-2.599993 1.3008,-5.200789 1.3008,-7.800782 C 3615.8008,19.499684 3596.2992,0 3571.6992,0 Z M 3708,0 c -25.9999,0 -47.9992,19.499684 -53.1992,44.099609 l -70.1016,393.099611 v 9.10156 c 0,24.59993 18.2008,44.09961 42.8008,44.09961 h 81.6992 c 27.3,0 49.3,-19.49968 54.5,-44.09961 L 3833.8008,51.900391 V 44.099609 C 3833.8008,19.499684 3814.4,0 3791,0 Z M 1985.0996,1.1992187 1896.9004,491.59961 h 59.6992 L 1995.5,275 h 46.6992 c 7.8,0 14.3008,6.49964 14.3008,15.59961 l -35,201 h 59.6992 l 35,-193.29883 V 290.5 c 2.5,-18.09994 -5.1996,-33.69924 -22.0996,-40.19922 19.4,-6.49998 33.6996,-20.70006 37.5996,-41.5 l 27.2012,-154.400389 c 1.3,-3.899989 1.2988,-6.499617 1.2988,-9.09961 0,-24.599926 -19.4996,-44.1015623 -44.0996,-44.1015623 z M 3486.1992,54.400391 h 53.2012 c 7.8,0 14.2988,6.498851 14.2988,14.298828 v 2.601562 L 3490.0996,419 c -2.6,9.09997 -10.3988,16.90039 -20.7988,16.90039 V 434.5 h -51.9004 z m 240,0 h 32.4004 c 7.8,0 14.3008,6.498851 14.3008,14.298828 v 2.601562 L 3710.5996,419 c -2.6,9.09997 -10.3988,16.90039 -20.7988,16.90039 h -31.1016 c -7.8,0 -14.2988,-6.50081 -14.2988,-14.30078 0,0 -8e-4,-1.29961 -1.3008,-2.59961 l 62.3008,-347.699219 c 2.6,-9.099973 11.6988,-16.90039 20.7988,-16.90039 z m -2068,0.09961 H 1707.5 c 7.8,0 14.3008,6.500805 14.3008,14.300781 v 2.59961 L 1697.1992,198.5 c -2.6,10.39997 -10.3988,16.90039 -20.7988,16.90039 h -48 z m 377.6016,0 H 2082.5 c 7.8,0 14.3008,6.500805 14.3008,14.300781 v 2.59961 L 2073.4004,198.5 c -2.6,9.09997 -10.4008,16.90039 -20.8008,16.90039 l -45.2988,-1.30078 z"
     style="fill:#ed2224"
     id="path20" /><path
     d="m 2007.1992,585.09961 c -1.3,2.59999 -2.5984,9.10118 -3.8984,11.70117 -2.6,5.19999 -3.9,10.39963 -6.5,15.59961 L 1982.5,644.80078 h 16.9004 l 3.9004,-32.40039 c 0,-5.19998 1.2996,-10.39962 2.5996,-15.59961 0,-2.59999 1.2988,-9.10118 1.2988,-11.70117 z"
     style="fill:#ed2224"
     id="path19" /><path
     d="M 1728.3008,591.59961 1720.5,624 h 15.5996 c 6.5,0 12.9996,-5.20042 15.5996,-16.90039 2.5,-12.89996 -1.2996,-15.5 -9.0996,-15.5 z"
     style="fill:#ed2224"
     id="path18" /><path
     d="M 1101.6992,537.09961 V 727.80078 H 3839 V 537.09961 Z m 1974.4004,33.70117 c 29.9,1.3 22.1,28.59846 19.5,38.89844 h -19.5 c 2.6,-10.39998 5.2,-20.79883 -6.5,-20.79883 -6.5,0 -11.7,2.60041 -13,10.40039 -2.6,9.09998 1.3,11.69844 6.5,16.89844 5.2,3.89998 14.3012,13.00002 18.2012,19.5 5.2,7.79998 5.1996,14.30158 2.5996,24.60156 -5.2,22.09996 -22.1,33.69922 -41.5,33.69922 -23.4,0 -28.4996,-14.30004 -22.0996,-35 l 2.5996,-9.09961 h 19.5 l -1.3008,6.5 c -3.9,11.69998 -2.5992,19.5 7.8008,19.5 7.8,0 12.9996,-5.20002 15.5996,-13 1.3,-6.49998 -4e-4,-11.69961 -3.9004,-15.59961 -7.8,-9.09998 -19.5004,-15.60119 -23.4004,-27.20117 -1.3,-5.2 -2.6,-11.69924 0,-18.19922 5.2,-19.49996 18.2004,-31.09961 38.9004,-31.09961 z m 272.5,0 c 29.9,1.3 22.1012,28.59846 18.2012,38.89844 h -18.2012 c 2.6,-10.39998 5.2,-20.79883 -6.5,-20.79883 -6.5,0 -11.7,2.60041 -13,10.40039 -2.6,9.09998 1.3,11.69844 6.5,16.89844 5.2,3.89998 14.3012,13.00002 18.2012,19.5 5.2,7.79998 5.1996,14.30158 2.5996,24.60156 -5.2,22.09996 -22.1,33.69922 -41.5,33.69922 -23.4,0 -28.4996,-14.30004 -22.0996,-35 l 2.5996,-9.09961 h 19.5 l -1.3008,6.5 c -3.9,11.69998 -2.5992,19.5 7.8008,19.5 7.8,0 12.9996,-5.20002 15.5996,-13 1.3,-6.49998 -4e-4,-11.69961 -3.9004,-15.59961 -7.8,-9.09998 -19.5004,-15.60119 -23.4004,-27.20117 -1.3,-5.2 -2.6,-11.69924 0,-18.19922 5.2,-19.49996 18.2004,-31.09961 38.9004,-31.09961 z M 1712.5,574.59961 h 36.3008 c 18.4,0.1 30.0996,6.59965 23.5996,28.59961 -3.9,12.99998 -10.4004,25.9 -23.4004,28.5 11.7,1.3 12.9996,10.4008 9.0996,20.80078 -1.3,5.19998 -9.0992,33.70078 -5.1992,36.30078 v 2.59961 h -22.0996 c 0,-7.79998 3.8992,-22.1008 5.1992,-29.80078 1.3,-7.79998 3.8992,-16.9 -1.3008,-19.5 -5.2,-1.3 -10.3996,-1.29883 -15.5996,-1.29883 h -3.9004 l -13,49.29883 h -19.5 z m -263.1992,0.0996 h 64.8984 l -3.7988,16.90039 h -22.0996 l -25.9004,98.59961 h -19.5 l 25.9004,-98.59961 h -23.4004 z m 394.2988,0 H 1908.5 l -3.8008,16.90039 h -22.0996 l -25.9004,98.59961 h -19.5 l 25.9004,-98.59961 h -23.4004 z m 978.3008,0 h 64.9004 l -3.9004,16.90039 h -22.0996 l -25.9004,98.59961 h -19.5 l 25.9004,-98.59961 H 2818 Z m 614.7988,0 h 64.9004 l -2.5,16.90039 h -23.4004 l -25.8984,98.59961 h -19.5 l 25.8984,-98.59961 h -23.3984 z M 1178.0996,576 h 54.5 l -5.0996,15.59961 h -35 l -7.8008,29.80078 h 32.4004 l -3.9004,16.90039 h -32.3984 l -9.1016,36.29883 h 35 L 1202.8008,691.5 h -54.5 z m 138.8008,0 h 20.7988 l 3.9004,42.80078 c 1.3,12.99998 2.6008,27.19926 1.3008,46.69922 2.6,-10.39998 3.9,-22.10041 6.5,-32.40039 2.6,-11.69998 5.1988,-22.10041 7.7988,-32.40039 l 6.5,-23.39844 h 19.5 L 1352.0996,691.5 h -20.7988 l -3.9004,-41.5 c -1.3,-14.29998 -2.6008,-27.19926 -1.3008,-46.69922 -1.3,9.09998 -3.9,20.79924 -6.5,33.69922 -2.6,11.69998 -5.1988,23.40041 -7.7988,32.40039 L 1306.5996,691.5 h -19.5 z m 268.5996,0 h 54.5 l -5.0996,15.59961 h -35 l -7.8008,29.80078 H 1624.5 l -3.9004,16.90039 h -32.4004 l -9.0996,36.29883 h 35 L 1610.1992,691.5 h -54.5 z m 411.1992,0 h 25.9004 l -6.2988,115.5 H 1995.5 l 2.5996,-29.80078 h -23.4004 l -13,29.80078 h -20.7988 z m 129.8008,0 h 19.5 l -29.8008,115.5 h -19.5 z m 110.3008,0 h 20.7988 l 3.9004,42.80078 c 1.3,12.99998 2.6008,27.19926 1.3008,46.69922 2.6,-10.39998 3.9,-22.10041 6.5,-32.40039 2.6,-11.69998 5.1988,-22.10041 7.7988,-32.40039 l 6.5,-23.39844 h 19.5 l -32.5,114.19922 h -19.5 l -3.9004,-41.5 c -1.3,-14.29998 -2.5988,-27.19926 -1.2988,-46.69922 -1.3,9.09998 -3.9,20.79924 -6.5,33.69922 -2.6,11.69998 -5.2008,23.40041 -7.8008,32.40039 L 2226.4004,691.5 H 2207 Z m 150.3984,0 h 31.1016 l -3.9004,54.5 c 0,9.09998 -3.9012,23.40041 -5.2012,32.40039 3.9,-11.69998 7.8012,-24.60041 11.7012,-32.40039 L 2445.5,576 h 31.0996 L 2447,691.5 h -19.5 l 9.0996,-36.30078 c 6.5,-23.39996 13,-46.69887 19.5,-68.79883 l -48,105.09961 h -11.6992 l 7.7988,-105.09961 h -1.2988 c -5.2,23.39996 -10.4004,46.69887 -16.9004,68.79883 L 2376.9004,691.5 h -19.5 z m 172.6016,0 h 54.5 l -5.1016,15.59961 h -35 l -7.7988,29.80078 h 32.4004 l -3.9004,16.90039 H 2562.5 l -9.0996,36.29883 h 35 L 2584.5,691.5 H 2530 Z m 125.7988,0 h 20.8008 l 3.9004,42.80078 c 1.3,12.99998 2.5988,27.19926 1.2988,46.69922 2.6,-10.39998 3.9,-22.10041 6.5,-32.40039 2.6,-11.69998 5.2008,-22.10041 7.8008,-32.40039 l 6.5,-23.39844 h 19.5 L 2720.6992,691.5 H 2700 l -3.9004,-41.5 c -1.3,-14.29998 -2.5988,-27.19926 -1.2988,-46.69922 -1.3,9.09998 -3.9,20.79924 -6.5,33.69922 -2.6,11.69998 -5.2008,23.40041 -7.8008,32.40039 L 2675.3008,691.5 h -19.5 z m 487.8008,0 h 20.7988 l 2.6016,29.80078 c 0,5.2 1.3,11.69924 0,18.19922 3.9,-9.09998 7.7992,-15.59963 11.6992,-22.09961 L 3224.0996,576 h 20.8008 l -41.5996,66.19922 -13,49.30078 h -19.5 l 13,-49.30078 z m 404.6992,0 h 54.5 l -3.7988,15.59961 h -35 L 3586,621.40039 h 32.4004 l -3.9004,16.90039 h -32.4004 L 3573,674.59961 h 35 L 3604.0996,691.5 h -55.7988 z m 137.5996,0 h 31.1016 l -3.9004,54.5 c 0,9.09998 -3.9012,23.40041 -5.2012,32.40039 3.9,-11.69998 7.8012,-24.60041 11.7012,-32.40039 L 3774,576 h 31.0996 l -29.6992,115.5 H 3756 l 9.0996,-36.30078 c 6.5,-23.39996 13,-46.69887 19.5,-68.79883 l -48,105.09961 h -11.6992 l 7.7988,-105.09961 h -1.2988 c -5.2,23.39996 -10.4004,46.69887 -16.9004,68.79883 L 3705.4004,691.5 h -19.5 z"
     style="fill:#ed2224"
     id="path17" /></g>
</svg>
