<?xml version="1.0" encoding="UTF-8" standalone="no"?>
<!-- Generator: Adobe Illustrator 26.0.1, SVG Export Plug-In . SVG Version: 6.00 Build 0)  -->

<svg
   version="1.1"
   id="Layer_1"
   x="0px"
   y="0px"
   viewBox="0 0 3839 1000.4"
   style="enable-background:new 0 0 3839 1000.4;"
   xml:space="preserve"
   sodipodi:docname="GCE Vectrex-01-01-02.svg"
   inkscape:version="1.3.2 (091e20e, 2023-11-25)"
   xmlns:inkscape="http://www.inkscape.org/namespaces/inkscape"
   xmlns:sodipodi="http://sodipodi.sourceforge.net/DTD/sodipodi-0.dtd"
   xmlns="http://www.w3.org/2000/svg"
   xmlns:svg="http://www.w3.org/2000/svg"><defs
   id="defs6">
	
	
	
	
	
	
</defs><sodipodi:namedview
   id="namedview6"
   pagecolor="#ffffff"
   bordercolor="#000000"
   borderopacity="0.25"
   inkscape:showpageshadow="2"
   inkscape:pageopacity="0.0"
   inkscape:pagecheckerboard="0"
   inkscape:deskcolor="#d1d1d1"
   inkscape:zoom="0.18780933"
   inkscape:cx="1916.8377"
   inkscape:cy="500.50763"
   inkscape:window-width="1800"
   inkscape:window-height="1037"
   inkscape:window-x="0"
   inkscape:window-y="44"
   inkscape:window-maximized="0"
   inkscape:current-layer="Layer_1" />
<style
   type="text/css"
   id="style1">
	.st0{fill:#333333;}
	.st1{fill:#111111;}
	.st2{fill:#FFFFFF;}
	.st3{fill:#CCCCCC;}
</style>
<path
   d="m 2389.9883,471.40039 -0.088,0.0996 v 514.30078 h 179.5 V 651 h 110.6992 L 2838.5,471.5 H 2638 l -148,169.09961 c -8.2,9.39997 -22.4008,10.29958 -31.8008,2.09961 -9.4,-8.19997 -10.2996,-22.39886 -2.0996,-31.79883 l 122.0996,-139.5 h -8.7988 -111.0996 z"
   style="fill:#ffffff"
   id="path12" /><path
   d="m 3001.9004,454.09961 c -148.0996,0 -268.0996,120.00005 -268.0996,268.09961 0,148.09955 120,268.10156 268.0996,268.10156 148.0995,-0.2 268.0996,-120.20162 268.0996,-268.20117 0,-55.29984 -16.8001,-106.80013 -45.5,-149.5 L 3062,758.09961 3052.5,769 h -0.1 c -12.6,13.59996 -30.6,22.09961 -50.5,22.09961 -8.7,0 -16.8996,-1.60001 -24.5996,-4.5 L 3062.5,689.30078 3195.8008,537.09961 c -48.7999,-51.09985 -117.6007,-83 -193.9004,-83 z m 0.1,199 c 9.7,0 19.0004,2.00118 27.4004,5.70117 l -86.5,98.79883 c -6.3,-10.39997 -9.9004,-22.50004 -9.9004,-35.5 0,-38.09988 30.9001,-69 69,-69 z"
   style="fill:#ffffff"
   id="path11" /><path
   d="m 1251.3008,454.09961 c -148.0996,0 -268.10158,120.00005 -268.10158,268.09961 0,148.09955 120.00198,268.10156 268.10158,268.10156 148.0995,0 268.0996,-120.00201 268.0996,-268.10156 0,-55.29984 -16.8001,-106.80013 -45.5,-149.5 l -162.5,185.40039 -9.5,10.90039 h -0.1 c -12.6,13.59996 -30.6001,22.09961 -50.5,22.09961 -8.7,0 -16.9016,-1.60001 -24.6016,-4.5 l 85.2012,-97.29883 133.2988,-152.20117 c -48.7998,-51.09985 -117.5987,-83 -193.8984,-83 z m 0,199 c 9.7,0 18.9984,2.00118 27.3984,5.70117 l -86.5,98.79883 c -6.3,-10.39997 -9.8984,-22.50004 -9.8984,-35.5 0,-38.09988 30.9001,-69 69,-69 z"
   style="fill:#ffffff"
   id="path10" /><path
   d="m 2291.1992,0 -406.0996,465 c -24.0999,-7.09998 -49.6993,-11 -76.1992,-11 -148.0996,0 -268.0996,120.00006 -268.0996,268.09961 0,148.09955 120,268.09961 268.0996,268.09961 148.0995,0 268.0996,-120.00006 268.0996,-268.09961 0,-55.29984 -16.8001,-106.80013 -45.5,-149.5 L 1869,758.09961 1859.5,769 h -0.1 c -12.6,13.59996 -30.6,22.09961 -50.5,22.09961 -38.0999,0 -69,-30.90012 -69,-69 0,-38.09988 30.9001,-69 69,-69 26.1999,0 48.9996,14.59967 60.5996,36.09961 L 2002.8008,537 c -27.3,-28.59991 -60.8005,-51.10004 -98.4004,-65.5 h 155.6992 l 110.3008,-126 c 8.2,-9.39997 22.3988,-10.29958 31.7988,-2.09961 9.4,8.19997 10.3016,22.39886 2.1016,31.79883 L 2120,471.5 l -9.0996,10.40039 v 503.90039 h 179.5 V 471.5 h 99.5 L 2548.3008,292 h -257.1016 z"
   style="fill:#ffffff"
   id="path9" /><path
   d="M 3176.5,471.40039 3402.9004,730 3179,985.80078 h 209.8008 L 3534.4004,819.5 c 8.2,-9.39997 22.3988,-10.29958 31.7988,-2.09961 9.4,8.19997 10.3016,22.39886 2.1016,31.79883 l -119.7012,136.70117 h 388 L 3612.5996,730 3839,471.5 h -209.8008 l -148.0996,169.09961 c -8.2,9.39997 -22.3988,10.29958 -31.7988,2.09961 -9.4,-8.19997 -10.3016,-22.39886 -2.1016,-31.79883 l 122.1016,-139.5 z"
   style="fill:#ffffff"
   id="path8" /><path
   d="M 0,292 620.09961,1000.4004 1240.3008,292 H 942.59961 l -347,396.30078 c -11.89998,13.59998 -32.49963,14.89959 -46.09961,3.09961 -13.59998,-11.89998 -14.89959,-32.49963 -3.09961,-46.09961 L 855.80078,292 Z"
   style="fill:#cccccc"
   id="path7" />
</svg>
