<?xml version="1.0" encoding="UTF-8" standalone="no"?>
<!-- Generator: Adobe Illustrator 26.0.1, SVG Export Plug-In . SVG Version: 6.00 Build 0)  -->

<svg
   version="1.1"
   id="Layer_1"
   x="0px"
   y="0px"
   viewBox="0 0 3839 1060.5"
   style="enable-background:new 0 0 3839 1060.5;"
   xml:space="preserve"
   sodipodi:docname="Nintendo Virtual Boy-04.svg"
   inkscape:version="1.3.2 (091e20e, 2023-11-25)"
   xmlns:inkscape="http://www.inkscape.org/namespaces/inkscape"
   xmlns:sodipodi="http://sodipodi.sourceforge.net/DTD/sodipodi-0.dtd"
   xmlns="http://www.w3.org/2000/svg"
   xmlns:svg="http://www.w3.org/2000/svg"><defs
   id="defs12">

	

		
		
		
		
		
		
		
		
		
		
	
			
			
		
				
				
				
				
				
				
				
				
				
				
			</defs><sodipodi:namedview
   id="namedview12"
   pagecolor="#ffffff"
   bordercolor="#666666"
   borderopacity="1.0"
   inkscape:showpageshadow="2"
   inkscape:pageopacity="0.0"
   inkscape:pagecheckerboard="0"
   inkscape:deskcolor="#d1d1d1"
   inkscape:zoom="0.16097942"
   inkscape:cx="1916.394"
   inkscape:cy="531.12379"
   inkscape:window-width="2048"
   inkscape:window-height="1154"
   inkscape:window-x="0"
   inkscape:window-y="25"
   inkscape:window-maximized="0"
   inkscape:current-layer="Layer_1" />
<style
   type="text/css"
   id="style1">
	.st0{fill:#780117;}
	.st1{fill:#FF0000;}
</style>

<g
   id="g31"><path
     d="m 1081,26.699219 v 32.90039 h 75.5996 111.7012 111.1992 v 78.800781 h 24.1992 V 26.699219 h -107.3984 -107.9004 z m 187.3008,144.500001 v 829.70118 h 28 V 171.19922 Z"
     style="fill:#780117"
     id="path31" /><path
     d="m 1451,26.699219 v 32.90039 h 87.1992 V 921.90039 h 110.7012 V 889 h -90.0996 V 26.699219 Z m 214.8008,0 v 32.90039 h 94.8984 V 875.80078 c 0,17.77697 -3.5245,34.57518 -8.6699,50.64453 13.7635,-24.59542 21.7715,-53.07285 21.7715,-83.54492 V 26.699219 Z"
     style="fill:#780117"
     id="path30" /><path
     d="M 1971.5,0 1778,1000.9004 h 17.543 L 1983.4629,61.875 Z m 17.8008,508.40039 -5.8887,29.44141 45.6875,236.35742 h -92.959 l -6.541,32.70117 H 2049 Z m 67.8125,410.19922 15.8867,82.30079 h 14.8027 l -16.6035,-82.30079 z"
     style="fill:#780117"
     id="path29" /><path
     d="m 54.5,26.699219 6.357422,32.90039 H 95.300781 L 200.30078,584.80078 227.75,447.63281 146.40039,26.699219 Z m 294.90039,0 -6.35742,32.90039 H 400.5 L 227.74609,923.29102 247.90039,1027.5996 441.30078,26.699219 Z"
     style="fill:#780117"
     id="path28" /><path
     d="M 2620.5996,26.900391 V 1000.9004 H 2648.5 V 59.599609 h 33.1992 78.5 79.3008 c 26.9138,0 51.8004,7.877824 73.2949,20.796875 -25.3351,-32.594118 -64.1412,-53.496093 -107.6953,-53.496093 H 2728.5 2652.5996 Z M 2835.5,171.19922 V 458 h -75.4004 v 32.69922 h 110.7012 v -319.5 z m 0,431.20117 v 286.79883 h -75.4004 v 32.70117 h 110.7012 v -319.5 z"
     style="fill:#780117"
     id="path27" /><path
     d="m 501.5,26.699219 v 32.90039 h 72.30078 V 1000.6992 h 35.59961 V 26.699219 Z"
     style="fill:#780117"
     id="path26" /><path
     d="m 708.90039,26.900391 v 32.699218 h 79.19922 79.30078 c 78.99889,0 143.00001,64.001111 143.00001,143.000001 v 256.80078 c 0,23.09293 -5.7189,44.7457 -15.44337,64.04102 22.71577,-25.46836 36.64257,-59.43576 36.64257,-96.8418 V 169.90039 c 0,-78.999761 -61.89944,-142.999999 -138.19921,-142.999999 H 816.80078 Z M 788,171.19922 v 319.5 h 28.80078 V 458 171.19922 Z M 816.80078,458 l 2.39844,8.80078 6.51562,23.89844 h 72.98438 V 458 Z M 788,490.69922 v 0.10156 510.09962 h 28.80078 V 593.06641 L 790.40039,499.5 Z m 171.07617,78.03125 c -8.52695,7.15124 -17.72667,13.53524 -27.77539,18.57031 l 116.67382,413.59962 h 28.8262 z"
     style="fill:#780117"
     id="path25" /><path
     d="M 2216.0996,26.699219 V 889.19922 945 1000.9004 H 2242.5 V 977.80078 921.90039 59.599609 h 81.4004 v -32.90039 z m 138.0996,862.500001 v 32.70117 H 2489 v -32.70117 z"
     style="fill:#780117"
     id="path24" /><path
     d="m 3207.3008,17.599609 c -89.0997,0 -161.4004,74.799885 -161.4004,167.099611 v 136.70117 409.5 112 c 0,52.90216 23.8388,100.01985 60.9512,130.65039 -19.9507,-27.52863 -32.0508,-61.09013 -32.0508,-97.65039 v -112.09961 -409.5 -136.70117 c 0,-92.2988 74.9008,-167.09961 167.0996,-167.09961 32.2873,0 62.161,9.576685 87.7129,25.421875 -29.5951,-35.657302 -73.3578,-58.322266 -122.3125,-58.322266 z m 53.582,153.701171 -0.082,150.09961 v 259.79883 149.70117 158.29883 h -74.2012 v 32.70117 h 110.7012 V 763.59961 613.90039 354.09961 171.30078 Z"
     style="fill:#780117"
     id="path23" /><path
     d="m 3396.4004,25.900391 138,596.599609 v 377.5996 h 48.9004 V 656.09961 L 3440.4004,59.599609 h 56.498 l -7.7988,-33.699218 z m 293.0996,0 -79.2012,342.261719 29.8008,124.4375 103.5996,-433.000001 h 29.8477 l 7.7539,-33.699218 z"
     style="fill:#780117"
     id="path22" /><path
     d="M 1045.5,59.599609 V 171.19922 h 111.0996 v 862.40038 h 111.7012 V 171.19922 H 1379.5 V 59.599609 h -111.1992 -111.7012 z"
     style="fill:#ff0000"
     id="path21" /><path
     d="M 1426.5,59.599609 V 875.80078 c 0,92.19973 74.7999,167.09962 167.0996,167.09962 92.1997,0 167.0996,-74.79989 167.0996,-167.09962 V 59.599609 H 1648.9004 V 921.90039 H 1538.1992 V 59.599609 Z"
     style="fill:#ff0000"
     id="path20" /><path
     d="M 1989.3008,32.699219 1789,1033.5996 h 95.0996 l 23,-114.99999 h 164.0996 l 23.2012,114.99999 H 2189.5 Z m 0,475.701171 59.6992,298.5 h -119.4004 z"
     style="fill:#ff0000"
     id="path19" /><path
     d="M 0,59.599609 200.30078,1060.5 400.5,59.599609 H 305.40039 L 200.30078,584.80078 95.300781,59.599609 Z"
     style="fill:#ff0000"
     id="path18" /><path
     d="M 2648.5,59.599609 V 1033.5996 h 33.1992 157.8008 c 78.9997,0 143,-64.00023 143,-142.99999 V 645 c 0,-32.29991 -15.5997,-71.70047 -39.5996,-98.40039 23.9999,-26.59992 39.5996,-66.10049 39.5996,-98.40039 V 202.59961 c 0,-78.99976 -64.0003,-143.000001 -143,-143.000001 h -79.3008 -78.5 z m 111.5996,111.599611 h 110.7012 v 319.5 h -110.7012 z m 0,431.20117 h 110.7012 v 319.5 h -110.7012 z"
     style="fill:#ff0000"
     id="path17" /><path
     d="M 3440.4004,59.599609 3583.3008,656.09961 V 1033.5996 H 3695 V 664 L 3839,59.599609 h -95.3008 L 3640.0996,492.59961 3536.4004,59.599609 Z"
     style="fill:#ff0000"
     id="path16" /><path
     d="M 462.09961,59.599609 V 1033.5996 H 573.80078 V 59.599609 Z"
     style="fill:#ff0000"
     id="path15" /><path
     d="M 676.30078,59.599609 V 171.30078 1033.5996 H 788 v -542.79882 -0.10156 -319.5 h 110.69922 v 319.5 H 788 l 2.40039,8.80078 150.69922,534.0996 H 1057.1992 L 931.30078,587.30078 c 46.89986,-23.49993 79.09962,-71.90056 79.09962,-127.90039 V 202.59961 c 0,-78.99976 -64.00025,-143.000001 -143.00001,-143.000001 h -79.30078 z"
     style="fill:#ff0000"
     id="path14" /><path
     d="m 2242.5,59.599609 v 862.300781 55.90039 55.79882 h 282.5996 V 921.90039 H 2354.1992 V 59.599609 Z"
     style="fill:#ff0000"
     id="path13" /><path
     d="m 3241.9004,50.5 c -92.1998,0 -167.0996,74.79979 -167.0996,167.09961 v 136.70117 409.5 112.09961 C 3074.8008,968.10021 3149.6006,1043 3241.9004,1043 3334.1002,1043 3409,968.20021 3409,875.90039 V 763.59961 613.90039 479.30078 354.09961 217.40039 C 3409,125.30057 3334.2002,50.5 3241.9004,50.5 Z m -55.3008,120.80078 h 110.7012 v 182.79883 259.80078 149.69922 158.30078 h -110.7012 v -308 -134.59961 z"
     style="fill:#ff0000"
     id="path12" /></g>
</svg>
