<?xml version="1.0" encoding="UTF-8" standalone="no"?>
<!-- Generator: Adobe Illustrator 25.4.1, SVG Export Plug-In . SVG Version: 6.00 Build 0)  -->

<svg
   version="1.1"
   id="Layer_1"
   x="0px"
   y="0px"
   viewBox="0 0 3839 1836.3"
   style="enable-background:new 0 0 3839 1836.3;"
   xml:space="preserve"
   sodipodi:docname="Nintendo Wii-03.svg"
   inkscape:version="1.3.2 (091e20e, 2023-11-25)"
   xmlns:inkscape="http://www.inkscape.org/namespaces/inkscape"
   xmlns:sodipodi="http://sodipodi.sourceforge.net/DTD/sodipodi-0.dtd"
   xmlns="http://www.w3.org/2000/svg"
   xmlns:svg="http://www.w3.org/2000/svg"><defs
   id="defs3">
	
	
	
	
	
</defs><sodipodi:namedview
   id="namedview3"
   pagecolor="#ffffff"
   bordercolor="#000000"
   borderopacity="0.25"
   inkscape:showpageshadow="2"
   inkscape:pageopacity="0.0"
   inkscape:pagecheckerboard="0"
   inkscape:deskcolor="#d1d1d1"
   inkscape:zoom="0.1285193"
   inkscape:cx="1921.8903"
   inkscape:cy="918.15002"
   inkscape:window-width="1800"
   inkscape:window-height="1037"
   inkscape:window-x="0"
   inkscape:window-y="44"
   inkscape:window-maximized="0"
   inkscape:current-layer="Layer_1" />
<style
   type="text/css"
   id="style1">
	.st0{fill:#17B3E8;}
	.st1{fill:#22B2E9;}
	.st2{fill:#A19FA3;}
	.st3{fill:#FFFFFF;}
</style>
<path
   d="m 2865.9004,0 c -119.4997,0 -216.5996,93.699955 -216.5996,209.09961 0,115.29965 97.1003,208.80078 216.5,208.80078 124.1996,0 221.6992,-91.60114 221.6992,-208.80078 C 3087.5,91.799961 2990,0 2865.9004,0 Z"
   style="fill:#17b3e8"
   id="path8" /><path
   d="M 2685.3008,627.19922 V 1823.1992 h 369.5996 V 627.19922 Z"
   style="fill:#17b3e8"
   id="path7" /><path
   d="m 3617.4004,0 c -119.3997,0 -216.5996,93.699955 -216.5996,209.09961 0,115.29965 97.1999,208.80078 216.5996,208.80078 C 3741.6,417.90039 3839,326.29925 3839,209.09961 3839,91.799961 3741.7,0 3617.4004,0 Z"
   style="fill:#17b3e8"
   id="path6" /><path
   d="M 3436.5996,627.19922 V 1823.1992 h 369.8008 V 627.19922 Z"
   style="fill:#17b3e8"
   id="path5" /><path
   d="m 1244.0996,87.300781 c -117.6998,0 -200.7992,59.398699 -241.1992,194.898439 C 962.80046,417.49894 714.80078,1371.4004 714.80078,1371.4004 L 390.59961,100.59961 H 0 c 0,0 375.09971,1355.90079 426.09961,1512.90039 39.69992,122.5998 133.60067,222.8008 272.90039,222.8008 159.29968,0 233.69928,-116.101 268.19922,-222.8008 34.09998,-105.9998 276.90038,-1001.59961 276.90038,-1001.59961 0,0 242.9004,895.59981 276.9004,1001.59961 34.5,106.6998 108.9,222.8008 268.0996,222.8008 139.3998,0 233.1998,-100.201 273.0996,-222.8008 50.9,-156.9996 425.7012,-1512.90039 425.7012,-1512.90039 H 2097.5 L 1773.3008,1371.4004 c 0,0 -247.8012,-953.90146 -288.2012,-1089.20118 -40.3,-135.49974 -123.3002,-194.898439 -241,-194.898439 z"
   style="fill:#17b3e8"
   id="path4" />
</svg>
